0
SECTION
2
HEADER
9
$INSUNITS
70
4
9
$ACADVER
1
AC1014
9
$HANDSEED
5
FFFF
0
ENDSEC
0
SECTION
2
TABLES
0
TABLE
2
VPORT
5
8
100
AcDbSymbolTable
0
ENDTAB
0
TABLE
2
LTYPE
5
5
100
AcDbSymbolTable
0
LTYPE
5
14
100
AcDbSymbolTableRecord
100
AcDbLinetypeTableRecord
2
BYBLOCK
70
0
0
LTYPE
5
15
100
AcDbSymbolTableRecord
100
AcDbLinetypeTableRecord
2
BYLAYER
70
0
0
ENDTAB
0
TABLE
2
LAYER
5
2
100
AcDbSymbolTable
70
2
0
LAYER
5
50
100
AcDbSymbolTableRecord
100
AcDbLayerTableRecord
2
0
70
0
6
CONTINUOUS
0
ENDTAB
0
TABLE
2
STYLE
5
3
100
AcDbSymbolTable
70
1
0
STYLE
5
11
100
AcDbSymbolTableRecord
100
AcDbTextStyleTableRecord
2
STANDARD
70
0
0
ENDTAB
0
TABLE
2
VIEW
5
6
100
AcDbSymbolTable
70
0
0
ENDTAB
0
TABLE
2
UCS
5
7
100
AcDbSymbolTable
70
0
0
ENDTAB
0
TABLE
2
APPID
5
9
100
AcDbSymbolTable
70
2
0
APPID
5
12
100
AcDbSymbolTableRecord
100
AcDbRegAppTableRecord
2
ACAD
70
0
0
ENDTAB
0
TABLE
2
DIMSTYLE
5
A
100
AcDbSymbolTable
70
1
0
ENDTAB
0
TABLE
2
BLOCK_RECORD
5
1
100
AcDbSymbolTable
70
1
0
BLOCK_RECORD
5
1F
100
AcDbSymbolTableRecord
100
AcDbBlockTableRecord
2
*MODEL_SPACE
0
BLOCK_RECORD
5
1B
100
AcDbSymbolTableRecord
100
AcDbBlockTableRecord
2
*PAPER_SPACE
0
ENDTAB
0
ENDSEC
0
SECTION
2
BLOCKS
0
BLOCK
5
20
100
AcDbEntity
100
AcDbBlockBegin
2
*MODEL_SPACE
0
ENDBLK
5
21
100
AcDbEntity
100
AcDbBlockEnd
0
BLOCK
5
1C
100
AcDbEntity
100
AcDbBlockBegin
2
*PAPER_SPACE
0
ENDBLK
5
1D
100
AcDbEntity
100
AcDbBlockEnd
0
ENDSEC
0
SECTION
2
ENTITIES
0
LWPOLYLINE
5
100
100
AcDbEntity
8
0
100
AcDbPolyline
90
14
70
1
43
0.0
10
-48.000000000000014
20
-21.999999999999869
42
-0.41421356237309503
10
-49.000000000000014
20
-20.999999999999872
10
-49.000000000000014
20
-13.5
10
-47
20
-13.499999999999998
42
0.41421356237309503
10
-44
20
-10.499999999999998
10
-44.000000000000014
20
10.500000000000004
42
0.41421356237309503
10
-47.000000000000014
20
13.500000000000004
10
-49
20
13.5
10
-48.999999999999986
20
20.999999999999872
42
-0.4142135623730937
10
-47.999999999999979
20
21.999999999999869
10
-16.999997988348138
20
21.99999999999989
42
-0.41421356237309631
10
-15.99999798834814
20
20.99999999999989
10
-15.999997988348099
20
-20.99999999999989
42
-0.41421356237309503
10
-16.999997988348099
20
-21.99999999999989
0
ARC
5
101
100
AcDbEntity
8
0
100
AcDbCircle
10
-47
20
-10.499999999999998
30
0
40
3.3000000000000007
210
0
220
0
230
1
100
AcDbArc
50
-90
51
0
0
LINE
5
102
100
AcDbEntity
8
0
100
AcDbLine
10
-47
20
-10.499999999999998
30
0
11
-47
21
-13.799999999999999
31
0
0
LINE
5
103
100
AcDbEntity
8
0
100
AcDbLine
10
-47
20
-10.499999999999998
30
0
11
-43.700000000000003
21
-10.499999999999998
31
0
0
LINE
5
104
100
AcDbEntity
8
0
100
AcDbLine
10
-16.299997988348117
20
-21.399999999999896
30
0
11
-16.299997988348117
21
21.399999999999903
31
0
0
LINE
5
105
100
AcDbEntity
8
0
100
AcDbLine
10
-16.599997988348118
20
-21.699999999999893
30
0
11
-48.400000000000006
21
-21.699999999999875
31
0
0
LINE
5
106
100
AcDbEntity
8
0
100
AcDbLine
10
-48.70000000000001
20
-14.099999999999998
30
0
11
-48.70000000000001
21
-21.399999999999878
31
0
0
LINE
5
107
100
AcDbEntity
8
0
100
AcDbLine
10
-47
20
-13.799999999999999
30
0
11
-48.399999999999999
21
-13.799999999999994
31
0
0
LINE
5
108
100
AcDbEntity
8
0
100
AcDbLine
10
-44
20
2.2204460492503131e-15
30
0
11
-16.299997988348117
21
1.2239807258014628e-14
31
0
0
LINE
5
109
100
AcDbEntity
8
0
100
AcDbLine
10
-16.599997988348118
20
21.699999999999903
30
0
11
-48.400000000000041
21
21.699999999999882
31
0
0
LINE
5
110
100
AcDbEntity
8
0
100
AcDbLine
10
-48.700000000000045
20
14.100000194708514
30
0
11
-48.700000000000045
21
21.399999999999885
31
0
0
LINE
5
111
100
AcDbEntity
8
0
100
AcDbLine
10
-47
20
13.799999999999999
30
0
11
-48.400000041723288
21
13.800000194708515
31
0
0
ARC
5
112
100
AcDbEntity
8
0
100
AcDbCircle
10
-47
20
10.500000000000004
30
0
40
3.3000000000000007
210
0
220
0
230
1
100
AcDbArc
50
0
51
90
0
LINE
5
113
100
AcDbEntity
8
0
100
AcDbLine
10
-43.700000000000003
20
-10.499999999999998
30
0
11
-43.700000000000003
21
10.500000000000004
31
0
0
ARC
5
114
100
AcDbEntity
8
0
100
AcDbCircle
10
-16.599997988348118
20
-21.399999999999896
30
0
40
0.29999999999999805
210
0
220
0
230
1
100
AcDbArc
50
-90
51
0
0
ARC
5
115
100
AcDbEntity
8
0
100
AcDbCircle
10
-48.400000000000006
20
-21.399999999999878
30
0
40
0.30000000000000249
210
0
220
0
230
1
100
AcDbArc
50
180
51
270
0
ARC
5
116
100
AcDbEntity
8
0
100
AcDbCircle
10
-48.400000000000006
20
-14.099999999999998
30
0
40
0.30000000000000249
210
0
220
-0
230
1
100
AcDbArc
50
89.99999999999865
51
180
0
ARC
5
117
100
AcDbEntity
8
0
100
AcDbCircle
10
-16.599997988348118
20
21.399999999999903
30
0
40
0.30000000000000027
210
0
220
-0
230
1
100
AcDbArc
50
0
51
90
0
ARC
5
118
100
AcDbEntity
8
0
100
AcDbCircle
10
-48.400000000000041
20
21.399999999999885
30
0
40
0.29999999999999805
210
0
220
-0
230
1
100
AcDbArc
50
90
51
180
0
ARC
5
119
100
AcDbEntity
8
0
100
AcDbCircle
10
-48.400000000000041
20
14.100000194708514
30
0
40
0.30000000000000249
210
0
220
0
230
1
100
AcDbArc
50
180
51
269.99999203144677
0
LWPOLYLINE
5
120
100
AcDbEntity
8
0
100
AcDbPolyline
90
4
70
1
43
0.0
10
-16.599999999999998
20
-8.9999999999999982
10
-42.100000000000001
20
-8.9999999999999982
10
-42.100000000000001
20
9.0000000000000018
10
-16.599999999999998
20
9.0000000000000018
0
LINE
5
121
100
AcDbEntity
8
0
100
AcDbLine
10
-22.799999999999997
20
-8.9999999999999982
30
0
11
-22.799999999999997
21
9.0000000000000018
31
0
0
LINE
5
122
100
AcDbEntity
8
0
100
AcDbLine
10
-16.599999999999998
20
-8.9999999999999982
30
0
11
-16.299997988348117
21
-8.9999999999999982
31
0
0
LINE
5
123
100
AcDbEntity
8
0
100
AcDbLine
10
-16.599999999999998
20
9.0000000000000018
30
0
11
-16.29999798834811
21
9.0000000000000018
31
0
0
LINE
5
124
100
AcDbEntity
8
0
100
AcDbLine
10
-38.70000000000001
20
21.699999999999889
30
0
11
-38.700000000000045
21
-21.699999999999878
31
0
0
LINE
5
125
100
AcDbEntity
8
0
100
AcDbLine
10
-48.70000000000001
20
-17.749999999999936
30
0
11
-16.299997988348117
21
-17.749999999999936
31
0
0
LINE
5
126
100
AcDbEntity
8
0
100
AcDbLine
10
-48.700000000000045
20
17.750000097354199
30
0
11
-16.299997988348117
21
17.750000097354199
31
0
0
ENDSEC
0
SECTION
2
OBJECTS
0
DICTIONARY
5
C
100
AcDbDictionary
3
ACAD_GROUP
350
D
3
ACAD_MLINESTYLE
350
17
0
DICTIONARY
5
D
100
AcDbDictionary
0
DICTIONARY
5
1A
330
C
100
AcDbDictionary
0
DICTIONARY
5
17
100
AcDbDictionary
0
ENDSEC
0
EOF
