0
SECTION
2
HEADER
9
$INSUNITS
70
4
9
$ACADVER
1
AC1014
9
$HANDSEED
5
FFFF
0
ENDSEC
0
SECTION
2
TABLES
0
TABLE
2
VPORT
5
8
100
AcDbSymbolTable
0
ENDTAB
0
TABLE
2
LTYPE
5
5
100
AcDbSymbolTable
0
LTYPE
5
14
100
AcDbSymbolTableRecord
100
AcDbLinetypeTableRecord
2
BYBLOCK
70
0
0
LTYPE
5
15
100
AcDbSymbolTableRecord
100
AcDbLinetypeTableRecord
2
BYLAYER
70
0
0
ENDTAB
0
TABLE
2
LAYER
5
2
100
AcDbSymbolTable
70
2
0
LAYER
5
50
100
AcDbSymbolTableRecord
100
AcDbLayerTableRecord
2
0
70
0
6
CONTINUOUS
0
ENDTAB
0
TABLE
2
STYLE
5
3
100
AcDbSymbolTable
70
1
0
STYLE
5
11
100
AcDbSymbolTableRecord
100
AcDbTextStyleTableRecord
2
STANDARD
70
0
0
ENDTAB
0
TABLE
2
VIEW
5
6
100
AcDbSymbolTable
70
0
0
ENDTAB
0
TABLE
2
UCS
5
7
100
AcDbSymbolTable
70
0
0
ENDTAB
0
TABLE
2
APPID
5
9
100
AcDbSymbolTable
70
2
0
APPID
5
12
100
AcDbSymbolTableRecord
100
AcDbRegAppTableRecord
2
ACAD
70
0
0
ENDTAB
0
TABLE
2
DIMSTYLE
5
A
100
AcDbSymbolTable
70
1
0
ENDTAB
0
TABLE
2
BLOCK_RECORD
5
1
100
AcDbSymbolTable
70
1
0
BLOCK_RECORD
5
1F
100
AcDbSymbolTableRecord
100
AcDbBlockTableRecord
2
*MODEL_SPACE
0
BLOCK_RECORD
5
1B
100
AcDbSymbolTableRecord
100
AcDbBlockTableRecord
2
*PAPER_SPACE
0
ENDTAB
0
ENDSEC
0
SECTION
2
BLOCKS
0
BLOCK
5
20
100
AcDbEntity
100
AcDbBlockBegin
2
*MODEL_SPACE
0
ENDBLK
5
21
100
AcDbEntity
100
AcDbBlockEnd
0
BLOCK
5
1C
100
AcDbEntity
100
AcDbBlockBegin
2
*PAPER_SPACE
0
ENDBLK
5
1D
100
AcDbEntity
100
AcDbBlockEnd
0
ENDSEC
0
SECTION
2
ENTITIES
0
ARC
5
100
100
AcDbEntity
8
0
100
AcDbCircle
10
-15.501505493384901
20
20.700000000000006
30
0
40
1.2999999999999989
210
0
220
-0
230
1
100
AcDbArc
50
90
51
113.65058983621577
0
ARC
5
101
100
AcDbEntity
8
0
100
AcDbCircle
10
-15.56863791131863
20
21.000000000000007
30
0
40
1.0000000000000018
210
0
220
0
230
1
100
AcDbArc
50
117.0245969860311
51
180.49183462961321
0
LINE
5
102
100
AcDbEntity
8
0
100
AcDbLine
10
-16.568601067869508
20
20.991415971761214
30
0
11
-16.499999999999996
21
13.000000000000005
31
0
0
LINE
5
103
100
AcDbEntity
8
0
100
AcDbLine
10
-16.499999999999996
20
13.000000000000005
30
0
11
-16.500000000000004
21
3.5000000000000062
31
0
0
LINE
5
104
100
AcDbEntity
8
0
100
AcDbLine
10
16.5
20
3.5000000000000062
30
0
11
16.499999999999993
21
20.999999999999996
31
0
0
ARC
5
105
100
AcDbEntity
8
0
100
AcDbCircle
10
15.5
20
20.999999999999996
30
0
40
0.99999999999999201
210
0
220
-0
230
1
100
AcDbArc
50
0
51
90.000000000000099
0
LINE
5
106
100
AcDbEntity
8
0
100
AcDbLine
10
15.499999999999998
20
21.999999999999996
30
0
11
-15.501505493384901
21
22.000000000000007
31
0
0
LINE
5
107
100
AcDbEntity
8
0
100
AcDbLine
10
-17.5
20
11.999999999999982
30
0
11
-4.7500000000000098
21
6.1714285714285708
31
0
0
LINE
5
108
100
AcDbEntity
8
0
100
AcDbLine
10
-4.7500000000000098
20
6.1714285714285708
30
0
11
4.7500000000000009
21
6.1714285714286108
31
0
0
LINE
5
109
100
AcDbEntity
8
0
100
AcDbLine
10
4.7500000000000009
20
6.1714285714286108
30
0
11
17.500000000000004
21
12.000000000000007
31
0
0
LINE
5
110
100
AcDbEntity
8
0
100
AcDbLine
10
4.423397236582411
20
6.671428571428609
30
0
11
-4.4233972365824092
21
6.6714285714285726
31
0
0
LINE
5
111
100
AcDbEntity
8
0
100
AcDbLine
10
-4.8391569968502059
20
6.7619540958427713
30
0
11
-15.411450754165486
21
11.595002670615466
31
0
0
LINE
5
112
100
AcDbEntity
8
0
100
AcDbLine
10
-15.995654150448571
20
12.495893117962471
30
0
11
-16.064290473208377
21
20.491415971761214
31
0
0
LINE
5
113
100
AcDbEntity
8
0
100
AcDbLine
10
-15.064327316657497
20
21.500000000000014
30
0
11
14.999999999999996
21
21.499999999999993
31
0
0
LINE
5
114
100
AcDbEntity
8
0
100
AcDbLine
10
15.999999999999995
20
20.499999999999993
30
0
11
15.999999999999995
21
18.798245042754779
31
0
0
LINE
5
115
100
AcDbEntity
8
0
100
AcDbLine
10
15.41575976026779
20
11.59697250197654
30
0
11
4.8391569968501997
21
6.7619540958428086
31
0
0
ARC
5
116
100
AcDbEntity
8
0
100
AcDbCircle
10
14.999999999999991
20
20.499999999999993
30
0
40
1.0000000000000031
210
0
220
0
230
1
100
AcDbArc
50
0
51
89.999999999999702
0
ARC
5
117
100
AcDbEntity
8
0
100
AcDbCircle
10
-15.064327316657495
20
20.500000000000011
30
0
40
1.0000000000000009
210
0
220
0
230
1
100
AcDbArc
50
90.000000000000099
51
180.49183462961321
0
ARC
5
118
100
AcDbEntity
8
0
100
AcDbCircle
10
14.999999999999998
20
12.506446977562337
30
0
40
0.99999999999999734
210
0
220
0
230
1
100
AcDbArc
50
-65.432828679398781
51
0
0
ARC
5
119
100
AcDbEntity
8
0
100
AcDbCircle
10
-14.995690993897693
20
12.504477146201268
30
0
40
1.0000000000000004
210
0
220
0
230
1
100
AcDbArc
50
180.49183462961321
51
245.43282867939877
0
ARC
5
120
100
AcDbEntity
8
0
100
AcDbCircle
10
4.4233972365824066
20
7.671428571428609
30
0
40
0.99999999999999978
210
0
220
0
230
1
100
AcDbArc
50
270.00000000000023
51
294.56717132060123
0
ARC
5
121
100
AcDbEntity
8
0
100
AcDbCircle
10
-4.4233972365824137
20
7.6714285714285726
30
0
40
0.99999999999999989
210
0
220
0
230
1
100
AcDbArc
50
245.43282867939877
51
270.00000000000023
0
LINE
5
122
100
AcDbEntity
8
0
100
AcDbLine
10
0
20
0
30
0
11
-3.0000000447034836
21
0
31
0
0
LINE
5
123
100
AcDbEntity
8
0
100
AcDbLine
10
15.41575976026779
20
-11.59697250197654
30
0
11
4.8391569968501997
21
-6.7619540958428086
31
0
0
ARC
5
124
100
AcDbEntity
8
0
100
AcDbCircle
10
4.4233972365824066
20
-7.671428571428609
30
0
40
0.99999999999999989
210
0
220
-0
230
1
100
AcDbArc
50
65.432828679398753
51
89.999999999999744
0
LINE
5
125
100
AcDbEntity
8
0
100
AcDbLine
10
4.423397236582411
20
-6.671428571428609
30
0
11
-4.4233972365824092
21
-6.6714285714285726
31
0
0
LINE
5
126
100
AcDbEntity
8
0
100
AcDbLine
10
-4.8391569968502059
20
-6.7619540958427713
30
0
11
-15.411450754165486
21
-11.595002670615466
31
0
0
ARC
5
127
100
AcDbEntity
8
0
100
AcDbCircle
10
-4.4233972365824137
20
-7.6714285714285726
30
0
40
0.99999999999999978
210
0
220
-0
230
1
100
AcDbArc
50
89.999999999999744
51
114.56717132060119
0
ARC
5
128
100
AcDbEntity
8
0
100
AcDbCircle
10
-14.995690993897693
20
-12.504477146201268
30
0
40
1
210
0
220
0
230
1
100
AcDbArc
50
114.56717132060123
51
179.50816537038679
0
LINE
5
129
100
AcDbEntity
8
0
100
AcDbLine
10
-15.995654150448571
20
-12.495893117962471
30
0
11
-16.064290473208377
21
-20.491415971761214
31
0
0
LINE
5
130
100
AcDbEntity
8
0
100
AcDbLine
10
-15.064327316657497
20
-21.500000000000014
30
0
11
14.999999999999996
21
-21.499999999999993
31
0
0
ARC
5
131
100
AcDbEntity
8
0
100
AcDbCircle
10
-15.064327316657495
20
-20.500000000000011
30
0
40
1.0000000000000027
210
0
220
0
230
1
100
AcDbArc
50
179.50816537038679
51
269.99999999999989
0
ARC
5
132
100
AcDbEntity
8
0
100
AcDbCircle
10
14.999999999999998
20
-12.506446977562337
30
0
40
0.99999999999999645
210
0
220
0
230
1
100
AcDbArc
50
0
51
65.432828679398781
0
LINE
5
133
100
AcDbEntity
8
0
100
AcDbLine
10
15.999999999999995
20
-15.628825362470389
30
0
11
15.999999999999995
21
-12.506446977562341
31
0
0
ARC
5
134
100
AcDbEntity
8
0
100
AcDbCircle
10
14.999999999999991
20
-20.499999999999993
30
0
40
1.0000000000000009
210
0
220
0
230
1
100
AcDbArc
50
-89.999999999999702
51
0
0
LWPOLYLINE
5
135
100
AcDbEntity
8
0
100
AcDbPolyline
90
5
70
1
43
0.0
10
-2.5099999999999998
20
21.269999284744259
10
1.2999999999999954
20
21.269999284744259
10
2.5700000000000141
20
21.269999284744259
10
2.5700000000000096
20
18.72999928474426
10
-2.5099999999999962
20
18.72999928474426
0
CIRCLE
5
136
100
AcDbEntity
8
0
100
AcDbCircle
10
-1.24
20
19.999999284744263
30
0
40
0.49999999999999933
210
0
220
0
230
1
0
CIRCLE
5
137
100
AcDbEntity
8
0
100
AcDbCircle
10
1.3
20
19.999999284744263
30
0
40
0.50000000000000033
210
0
220
0
230
1
0
LINE
5
138
100
AcDbEntity
8
0
100
AcDbLine
10
1.3
20
19.999999284744263
30
0
11
-1.24
21
19.999999284744263
31
0
0
LINE
5
139
100
AcDbEntity
8
0
100
AcDbLine
10
1.2999999999999958
20
19.999999284744263
30
0
11
1.2999999999999954
21
21.269999284744259
31
0
0
LINE
5
140
100
AcDbEntity
8
0
100
AcDbLine
10
12.730000000000013
20
13.730000424683087
30
0
11
15.270000000000014
21
13.730000424683082
31
0
0
CIRCLE
5
141
100
AcDbEntity
8
0
100
AcDbCircle
10
14.000000000000002
20
15.000000424683094
30
0
40
0.49999999999999983
210
0
220
0
230
1
0
LINE
5
142
100
AcDbEntity
8
0
100
AcDbLine
10
12.730000000000006
20
16.27000042468309
30
0
11
12.730000000000013
21
13.730000424683087
31
0
0
LINE
5
143
100
AcDbEntity
8
0
100
AcDbLine
10
14.000000000000002
20
16.27000042468309
30
0
11
12.730000000000006
21
16.27000042468309
31
0
0
LINE
5
144
100
AcDbEntity
8
0
100
AcDbLine
10
15.270000000000014
20
13.730000424683082
30
0
11
15.270000000000014
21
16.270000424683086
31
0
0
LINE
5
145
100
AcDbEntity
8
0
100
AcDbLine
10
14.000000000000002
20
15.000000424683094
30
0
11
14.000000000000002
21
16.27000042468309
31
0
0
LINE
5
146
100
AcDbEntity
8
0
100
AcDbLine
10
15.270000000000014
20
16.270000424683086
30
0
11
14.000000000000002
21
16.27000042468309
31
0
0
LINE
5
147
100
AcDbEntity
8
0
100
AcDbLine
10
-15.269999999999996
20
13.730000424683091
30
0
11
-12.729999999999995
21
13.730000424683091
31
0
0
CIRCLE
5
148
100
AcDbEntity
8
0
100
AcDbCircle
10
-14.000000000000002
20
15.000000424683094
30
0
40
0.49999999999999983
210
0
220
0
230
1
0
LINE
5
149
100
AcDbEntity
8
0
100
AcDbLine
10
-15.27
20
16.27000042468309
30
0
11
-15.269999999999996
21
13.730000424683091
31
0
0
LINE
5
150
100
AcDbEntity
8
0
100
AcDbLine
10
-14.000000000000002
20
16.27000042468309
30
0
11
-15.27
21
16.27000042468309
31
0
0
LINE
5
151
100
AcDbEntity
8
0
100
AcDbLine
10
-12.729999999999995
20
13.730000424683091
30
0
11
-12.729999999999995
21
16.27000042468309
31
0
0
LINE
5
152
100
AcDbEntity
8
0
100
AcDbLine
10
-14.000000000000002
20
15.000000424683094
30
0
11
-14.000000000000002
21
16.27000042468309
31
0
0
LINE
5
153
100
AcDbEntity
8
0
100
AcDbLine
10
-12.729999999999995
20
16.27000042468309
30
0
11
-14.000000000000002
21
16.27000042468309
31
0
0
LWPOLYLINE
5
154
100
AcDbEntity
8
0
100
AcDbPolyline
90
5
70
1
43
0.0
10
3.8100000000000076
20
-18.229999627470974
10
3.8100000000000058
20
-20.769999627470973
10
-3.8099999999999956
20
-20.769999627470973
10
-3.8099999999999969
20
-18.229999627470974
10
1.6653345369377348e-15
20
-18.229999627470974
0
CIRCLE
5
155
100
AcDbEntity
8
0
100
AcDbCircle
10
2.5399999999999996
20
-19.49999962747097
30
0
40
0.50000000000000089
210
0
220
0
230
1
0
CIRCLE
5
156
100
AcDbEntity
8
0
100
AcDbCircle
10
0
20
-19.49999962747097
30
0
40
0.49999999999999994
210
0
220
0
230
1
0
LINE
5
157
100
AcDbEntity
8
0
100
AcDbLine
10
1.5308085217450157e-15
20
-19.49999962747097
30
0
11
1.6085735934908726e-15
21
-18.229999627470974
31
0
0
LINE
5
158
100
AcDbEntity
8
0
100
AcDbLine
10
0
20
-19.49999962747097
30
0
11
2.5399999999999996
21
-19.49999962747097
31
0
0
CIRCLE
5
159
100
AcDbEntity
8
0
100
AcDbCircle
10
-2.54
20
-19.49999962747097
30
0
40
0.49999999999999983
210
0
220
0
230
1
0
LINE
5
160
100
AcDbEntity
8
0
100
AcDbLine
10
0
20
-19.49999962747097
30
0
11
-2.54
21
-19.49999962747097
31
0
0
CIRCLE
5
161
100
AcDbEntity
8
0
100
AcDbCircle
10
14.000000000000002
20
-14.999999575316906
30
0
40
0.49999999999999983
210
0
220
0
230
1
0
CIRCLE
5
162
100
AcDbEntity
8
0
100
AcDbCircle
10
-14.000000000000002
20
-14.999999575316906
30
0
40
0.49999999999999983
210
0
220
0
230
1
0
LINE
5
163
100
AcDbEntity
8
0
100
AcDbLine
10
-12.729999999999995
20
-13.72999957531691
30
0
11
-14.000000000000002
21
-13.72999957531691
31
0
0
LINE
5
164
100
AcDbEntity
8
0
100
AcDbLine
10
-14.000000000000002
20
-13.72999957531691
30
0
11
-15.27
21
-13.72999957531691
31
0
0
LINE
5
165
100
AcDbEntity
8
0
100
AcDbLine
10
-14.000000000000002
20
-14.999999575316906
30
0
11
-14.000000000000002
21
-13.72999957531691
31
0
0
LINE
5
166
100
AcDbEntity
8
0
100
AcDbLine
10
15.270000000000014
20
-16.269999575316916
30
0
11
15.270000000000014
21
-13.729999575316914
31
0
0
LINE
5
167
100
AcDbEntity
8
0
100
AcDbLine
10
15.270000000000014
20
-13.729999575316914
30
0
11
14.000000000000002
21
-13.72999957531691
31
0
0
LINE
5
168
100
AcDbEntity
8
0
100
AcDbLine
10
14.000000000000002
20
-13.72999957531691
30
0
11
12.730000000000006
21
-13.72999957531691
31
0
0
LINE
5
169
100
AcDbEntity
8
0
100
AcDbLine
10
-12.729999999999995
20
-16.269999575316909
30
0
11
-12.729999999999995
21
-13.72999957531691
31
0
0
LINE
5
170
100
AcDbEntity
8
0
100
AcDbLine
10
-15.27
20
-13.72999957531691
30
0
11
-15.269999999999996
21
-16.269999575316909
31
0
0
LINE
5
171
100
AcDbEntity
8
0
100
AcDbLine
10
-15.269999999999996
20
-16.269999575316909
30
0
11
-12.729999999999995
21
-16.269999575316909
31
0
0
LINE
5
172
100
AcDbEntity
8
0
100
AcDbLine
10
12.730000000000013
20
-16.269999575316913
30
0
11
15.270000000000014
21
-16.269999575316916
31
0
0
LINE
5
173
100
AcDbEntity
8
0
100
AcDbLine
10
14.000000000000002
20
-14.999999575316906
30
0
11
14.000000000000002
21
-13.72999957531691
31
0
0
LINE
5
174
100
AcDbEntity
8
0
100
AcDbLine
10
12.730000000000006
20
-13.72999957531691
30
0
11
12.730000000000013
21
-16.269999575316913
31
0
0
LINE
5
175
100
AcDbEntity
8
0
100
AcDbLine
10
0.030000000000004468
20
18.72999928474426
30
0
11
0.030000000000004468
21
21.269999284744259
31
0
0
LINE
5
176
100
AcDbEntity
8
0
100
AcDbLine
10
0
20
-19.49999962747097
30
0
11
4.9960036108132044e-15
21
-20.769999627470973
31
0
0
LINE
5
177
100
AcDbEntity
8
0
100
AcDbLine
10
-12.729999999999995
20
16.27000042468309
30
0
11
-15.269999999999996
21
13.730000424683091
31
0
0
LINE
5
178
100
AcDbEntity
8
0
100
AcDbLine
10
-12.729999999999995
20
13.730000424683091
30
0
11
-15.27
21
16.27000042468309
31
0
0
LINE
5
179
100
AcDbEntity
8
0
100
AcDbLine
10
12.730000000000013
20
13.730000424683087
30
0
11
15.270000000000014
21
16.270000424683086
31
0
0
LINE
5
180
100
AcDbEntity
8
0
100
AcDbLine
10
15.270000000000014
20
13.730000424683082
30
0
11
12.730000000000006
21
16.27000042468309
31
0
0
LINE
5
181
100
AcDbEntity
8
0
100
AcDbLine
10
15.270000000000014
20
-16.269999575316916
30
0
11
12.730000000000006
21
-13.72999957531691
31
0
0
LINE
5
182
100
AcDbEntity
8
0
100
AcDbLine
10
15.270000000000014
20
-13.729999575316914
30
0
11
12.730000000000013
21
-16.269999575316913
31
0
0
LINE
5
183
100
AcDbEntity
8
0
100
AcDbLine
10
-15.27
20
-13.72999957531691
30
0
11
-12.729999999999995
21
-16.269999575316909
31
0
0
LINE
5
184
100
AcDbEntity
8
0
100
AcDbLine
10
-12.729999999999995
20
-13.72999957531691
30
0
11
-15.269999999999996
21
-16.269999575316909
31
0
0
LWPOLYLINE
5
185
100
AcDbEntity
8
0
100
AcDbPolyline
90
12
70
1
43
0.0
10
50.500000000000007
20
-21.000000000000007
10
50.500000000000007
20
20.999999999999996
42
0.41421356237309243
10
49.500000000000014
20
21.999999999999993
10
18.498494506615103
20
22.000000000000007
42
0.10356304959532027
10
17.976989123119782
20
21.89081154469774
42
0.2842313061659078
10
17.431398932130499
20
20.99141597176121
10
17.500000000000007
20
13.000000000000009
10
17.500000000000007
20
-13.000000000000005
10
17.431398932130499
20
-20.991415971761207
42
0.28423130616591152
10
17.976989123119797
20
-21.89081154469774
42
0.10356304959532321
10
18.498494506615096
20
-22
10
49.5
20
-22
42
0.4142135623730937
0
CIRCLE
5
186
100
AcDbEntity
8
0
100
AcDbCircle
10
35.300000000000004
20
19.999999284744263
30
0
40
0.50000000000000033
210
0
220
-0
230
1
0
CIRCLE
5
187
100
AcDbEntity
8
0
100
AcDbCircle
10
48.000000000000007
20
15.000000424683094
30
0
40
0.49999999999999983
210
0
220
-0
230
1
0
LINE
5
188
100
AcDbEntity
8
0
100
AcDbLine
10
31.490000000000009
20
18.72999928474426
30
0
11
36.570000000000014
21
18.72999928474426
31
0
0
LINE
5
189
100
AcDbEntity
8
0
100
AcDbLine
10
18.730000000000004
20
-13.72999957531691
30
0
11
18.730000000000008
21
-16.269999575316909
31
0
0
LINE
5
190
100
AcDbEntity
8
0
100
AcDbLine
10
30.190000000000005
20
-18.229999627470974
30
0
11
30.190000000000012
21
-20.769999627470973
31
0
0
LINE
5
191
100
AcDbEntity
8
0
100
AcDbLine
10
30.190000000000012
20
-20.769999627470973
30
0
11
37.810000000000009
21
-20.769999627470973
31
0
0
LINE
5
192
100
AcDbEntity
8
0
100
AcDbLine
10
46.730000000000018
20
-16.269999575316913
30
0
11
49.27000000000001
21
-16.269999575316916
31
0
0
ARC
5
193
100
AcDbEntity
8
0
100
AcDbCircle
10
19.000000000000007
20
-20.500000000000004
30
0
40
1.0000000000000009
210
0
220
0
230
1
100
AcDbArc
50
180
51
269.99999999999983
0
LINE
5
194
100
AcDbEntity
8
0
100
AcDbLine
10
19.000000000000004
20
-21.500000000000004
30
0
11
49
21
-21.500000000000004
31
0
0
LINE
5
195
100
AcDbEntity
8
0
100
AcDbLine
10
21.270000000000007
20
-13.72999957531691
30
0
11
18.730000000000008
21
-16.269999575316909
31
0
0
LINE
5
196
100
AcDbEntity
8
0
100
AcDbLine
10
35.300000000000004
20
19.999999284744263
30
0
11
32.760000000000005
21
19.999999284744263
31
0
0
LINE
5
197
100
AcDbEntity
8
0
100
AcDbLine
10
20
20
-13.72999957531691
30
0
11
18.730000000000004
21
-13.72999957531691
31
0
0
CIRCLE
5
198
100
AcDbEntity
8
0
100
AcDbCircle
10
20
20
-14.999999575316906
30
0
40
0.49999999999999983
210
0
220
-0
230
1
0
LINE
5
199
100
AcDbEntity
8
0
100
AcDbLine
10
18.730000000000004
20
-13.72999957531691
30
0
11
21.270000000000007
21
-16.269999575316909
31
0
0
LINE
5
200
100
AcDbEntity
8
0
100
AcDbLine
10
34
20
-18.229999627470974
30
0
11
30.190000000000005
21
-18.229999627470974
31
0
0
LINE
5
201
100
AcDbEntity
8
0
100
AcDbLine
10
18.730000000000008
20
-16.269999575316909
30
0
11
21.270000000000007
21
-16.269999575316909
31
0
0
LINE
5
202
100
AcDbEntity
8
0
100
AcDbLine
10
34
20
-19.49999962747097
30
0
11
31.460000000000004
21
-19.49999962747097
31
0
0
CIRCLE
5
203
100
AcDbEntity
8
0
100
AcDbCircle
10
31.460000000000004
20
-19.49999962747097
30
0
40
0.49999999999999983
210
0
220
-0
230
1
0
LINE
5
204
100
AcDbEntity
8
0
100
AcDbLine
10
21.270000000000007
20
-13.72999957531691
30
0
11
20
21
-13.72999957531691
31
0
0
LINE
5
205
100
AcDbEntity
8
0
100
AcDbLine
10
21.270000000000007
20
-16.269999575316909
30
0
11
21.270000000000007
21
-13.72999957531691
31
0
0
LINE
5
206
100
AcDbEntity
8
0
100
AcDbLine
10
18.000000000000007
20
15.628825367471023
30
0
11
18.000000000000007
21
-15.628825363720861
31
0
0
ARC
5
207
100
AcDbEntity
8
0
100
AcDbCircle
10
49
20
20.499999999999986
30
0
40
1.0000000000000142
210
0
220
-0
230
1
100
AcDbArc
50
0
51
89.99999999999919
0
LINE
5
208
100
AcDbEntity
8
0
100
AcDbLine
10
49.27000000000001
20
13.730000424683082
30
0
11
49.27000000000001
21
16.270000424683086
31
0
0
LINE
5
209
100
AcDbEntity
8
0
100
AcDbLine
10
48.000000000000007
20
16.27000042468309
30
0
11
46.730000000000011
21
16.27000042468309
31
0
0
LINE
5
210
100
AcDbEntity
8
0
100
AcDbLine
10
36.570000000000022
20
21.269999284744259
30
0
11
35.299999999999997
21
21.269999284744259
31
0
0
LINE
5
211
100
AcDbEntity
8
0
100
AcDbLine
10
46.730000000000018
20
13.730000424683087
30
0
11
49.27000000000001
21
16.270000424683086
31
0
0
LINE
5
212
100
AcDbEntity
8
0
100
AcDbLine
10
46.730000000000018
20
13.730000424683087
30
0
11
49.27000000000001
21
13.730000424683082
31
0
0
LINE
5
213
100
AcDbEntity
8
0
100
AcDbLine
10
49.27000000000001
20
16.270000424683086
30
0
11
48.000000000000007
21
16.27000042468309
31
0
0
LINE
5
214
100
AcDbEntity
8
0
100
AcDbLine
10
34.030000000000008
20
18.72999928474426
30
0
11
34.030000000000008
21
21.269999284744259
31
0
0
LINE
5
215
100
AcDbEntity
8
0
100
AcDbLine
10
49.27000000000001
20
13.730000424683082
30
0
11
46.730000000000011
21
16.27000042468309
31
0
0
LINE
5
216
100
AcDbEntity
8
0
100
AcDbLine
10
36.570000000000014
20
18.72999928474426
30
0
11
36.570000000000022
21
21.269999284744259
31
0
0
LINE
5
217
100
AcDbEntity
8
0
100
AcDbLine
10
21.270000000000007
20
13.730000424683091
30
0
11
21.270000000000007
21
16.27000042468309
31
0
0
LINE
5
218
100
AcDbEntity
8
0
100
AcDbLine
10
18.730000000000004
20
16.27000042468309
30
0
11
18.730000000000008
21
13.730000424683091
31
0
0
CIRCLE
5
219
100
AcDbEntity
8
0
100
AcDbCircle
10
34
20
-19.49999962747097
30
0
40
0.49999999999999989
210
0
220
-0
230
1
0
LINE
5
220
100
AcDbEntity
8
0
100
AcDbLine
10
48.000000000000007
20
-13.72999957531691
30
0
11
46.730000000000011
21
-13.72999957531691
31
0
0
LINE
5
221
100
AcDbEntity
8
0
100
AcDbLine
10
49.27000000000001
20
-13.729999575316914
30
0
11
46.730000000000018
21
-16.269999575316913
31
0
0
LINE
5
222
100
AcDbEntity
8
0
100
AcDbLine
10
35.299999999999997
20
21.269999284744259
30
0
11
31.490000000000006
21
21.269999284744259
31
0
0
LINE
5
223
100
AcDbEntity
8
0
100
AcDbLine
10
34
20
-19.49999962747097
30
0
11
36.540000000000006
21
-19.49999962747097
31
0
0
LINE
5
224
100
AcDbEntity
8
0
100
AcDbLine
10
50
20
-20.500000000000004
30
0
11
50.000000000000014
21
20.499999999999989
31
0
0
LINE
5
225
100
AcDbEntity
8
0
100
AcDbLine
10
21.270000000000007
20
16.27000042468309
30
0
11
18.730000000000008
21
13.730000424683091
31
0
0
LINE
5
226
100
AcDbEntity
8
0
100
AcDbLine
10
20
20
16.27000042468309
30
0
11
18.730000000000004
21
16.27000042468309
31
0
0
LINE
5
227
100
AcDbEntity
8
0
100
AcDbLine
10
37.810000000000009
20
-18.229999627470974
30
0
11
34
21
-18.229999627470974
31
0
0
LINE
5
228
100
AcDbEntity
8
0
100
AcDbLine
10
49.000000000000014
20
21.499999999999993
30
0
11
19.000000000000004
21
21.500000000000021
31
0
0
LINE
5
229
100
AcDbEntity
8
0
100
AcDbLine
10
49.27000000000001
20
-16.269999575316916
30
0
11
49.27000000000001
21
-13.729999575316914
31
0
0
LINE
5
230
100
AcDbEntity
8
0
100
AcDbLine
10
21.270000000000007
20
16.27000042468309
30
0
11
20
21
16.27000042468309
31
0
0
CIRCLE
5
231
100
AcDbEntity
8
0
100
AcDbCircle
10
36.540000000000006
20
-19.49999962747097
30
0
40
0.50000000000000078
210
0
220
-0
230
1
0
LINE
5
232
100
AcDbEntity
8
0
100
AcDbLine
10
34
20
-19.49999962747097
30
0
11
34
21
-18.229999627470974
31
0
0
LINE
5
233
100
AcDbEntity
8
0
100
AcDbLine
10
18.730000000000008
20
13.730000424683091
30
0
11
21.270000000000007
21
13.730000424683091
31
0
0
ARC
5
234
100
AcDbEntity
8
0
100
AcDbCircle
10
19.000000000000011
20
20.500000000000014
30
0
40
1.0000000000000053
210
0
220
0
230
1
100
AcDbArc
50
90.000000000000398
51
180
0
CIRCLE
5
235
100
AcDbEntity
8
0
100
AcDbCircle
10
48.000000000000007
20
-14.999999575316906
30
0
40
0.49999999999999983
210
0
220
-0
230
1
0
CIRCLE
5
236
100
AcDbEntity
8
0
100
AcDbCircle
10
20
20
15.000000424683094
30
0
40
0.49999999999999983
210
0
220
-0
230
1
0
LINE
5
237
100
AcDbEntity
8
0
100
AcDbLine
10
49.27000000000001
20
-13.729999575316914
30
0
11
48.000000000000007
21
-13.72999957531691
31
0
0
CIRCLE
5
238
100
AcDbEntity
8
0
100
AcDbCircle
10
32.760000000000005
20
19.999999284744263
30
0
40
0.49999999999999933
210
0
220
-0
230
1
0
LINE
5
239
100
AcDbEntity
8
0
100
AcDbLine
10
46.730000000000011
20
-13.72999957531691
30
0
11
46.730000000000018
21
-16.269999575316913
31
0
0
LINE
5
240
100
AcDbEntity
8
0
100
AcDbLine
10
31.490000000000006
20
21.269999284744259
30
0
11
31.490000000000009
21
18.72999928474426
31
0
0
LINE
5
241
100
AcDbEntity
8
0
100
AcDbLine
10
37.810000000000009
20
-20.769999627470973
30
0
11
37.810000000000009
21
-18.229999627470974
31
0
0
LINE
5
242
100
AcDbEntity
8
0
100
AcDbLine
10
21.270000000000007
20
13.730000424683091
30
0
11
18.730000000000004
21
16.27000042468309
31
0
0
ARC
5
243
100
AcDbEntity
8
0
100
AcDbCircle
10
48.999999999999993
20
-20.5
30
0
40
1.0000000000000053
210
-0
220
0
230
1
100
AcDbArc
50
270.0000000000004
51
360
0
LINE
5
244
100
AcDbEntity
8
0
100
AcDbLine
10
34
20
-19.49999962747097
30
0
11
34.000000000000007
21
-20.769999627470973
31
0
0
LINE
5
245
100
AcDbEntity
8
0
100
AcDbLine
10
49.27000000000001
20
-16.269999575316916
30
0
11
46.730000000000011
21
-13.72999957531691
31
0
0
LINE
5
246
100
AcDbEntity
8
0
100
AcDbLine
10
46.730000000000011
20
16.27000042468309
30
0
11
46.730000000000018
21
13.730000424683087
31
0
0
LINE
5
247
100
AcDbEntity
8
0
100
AcDbLine
10
16.999949999982057
20
-17.798245039004779
30
0
11
17.000049999981933
21
-17.798245044004776
31
0
0
LINE
5
248
100
AcDbEntity
8
0
100
AcDbLine
10
16.991565966320433
20
-16.628789800376438
30
0
11
16.991465969961983
21
-16.628788946973437
31
0
0
LINE
5
249
100
AcDbEntity
8
0
100
AcDbLine
10
16.991365973565419
20
16.628788093570105
30
0
11
16.991465969946589
21
16.628788946973305
31
0
0
LINE
5
250
100
AcDbEntity
8
0
100
AcDbLine
10
16.999949999982046
20
17.798245039004779
30
0
11
17.000049999981922
21
17.79824504400478
31
0
0
ARC
5
251
100
AcDbEntity
8
0
100
AcDbCircle
10
16.999999999999986
20
-15.628825363720853
30
0
40
1.0000000037500167
210
0
220
0
230
1
100
AcDbArc
50
269.51675973853833
51
360
0
LINE
5
252
100
AcDbEntity
8
0
100
AcDbLine
10
17.999969017733619
20
-18.79822683295081
30
0
11
18.000000000000007
21
-20.500000000000007
31
0
0
ARC
5
253
100
AcDbEntity
8
0
100
AcDbCircle
10
16.999969017899343
20
-18.798245038823943
30
0
40
1.0000000000000027
210
0
220
-0
230
1
100
AcDbArc
50
0.0010431192440352388
51
90.001089646395656
0
ARC
5
254
100
AcDbEntity
8
0
100
AcDbCircle
10
17.000000000000018
20
15.628825367471023
30
0
40
0.99999999999998979
210
0
220
0
230
1
100
AcDbArc
50
0
51
90.494699421381284
0
LINE
5
255
100
AcDbEntity
8
0
100
AcDbLine
10
18.000000000000007
20
18.798245037754779
30
0
11
18.000000000000004
21
20.500000000000025
31
0
0
ARC
5
256
100
AcDbEntity
8
0
100
AcDbCircle
10
17.000000000000007
20
18.798245037754779
30
0
40
0.99999999999999956
210
0
220
0
230
1
100
AcDbArc
50
-90.002864790005944
51
0
0
ARC
5
257
100
AcDbEntity
8
0
100
AcDbCircle
10
17.000000000000437
20
-15.628825362470389
30
0
40
1.0000000000004428
210
0
220
0
230
1
100
AcDbArc
50
180
51
269.51103016118458
0
LINE
5
258
100
AcDbEntity
8
0
100
AcDbLine
10
15.999999999999995
20
-20.499999999999993
30
0
11
15.999999999999995
21
-18.798245042754782
31
0
0
ARC
5
259
100
AcDbEntity
8
0
100
AcDbCircle
10
17
20
-18.798245042754782
30
0
40
1.0000000000000042
210
0
220
-0
230
1
100
AcDbArc
50
89.997135212058339
51
180
0
ARC
5
260
100
AcDbEntity
8
0
100
AcDbCircle
10
16.999999999999989
20
18.798245042754779
30
0
40
0.99999999999999645
210
0
220
0
230
1
100
AcDbArc
50
180
51
270.00286478794169
0
LINE
5
261
100
AcDbEntity
8
0
100
AcDbLine
10
16
20
15.62882536247084
30
0
11
15.999999999999995
21
12.506446977562341
31
0
0
ARC
5
262
100
AcDbEntity
8
0
100
AcDbCircle
10
16.999999999999989
20
15.628825362470838
30
0
40
0.99999999999998823
210
0
220
0
230
1
100
AcDbArc
50
90.488969839672066
51
180
0
ENDSEC
0
SECTION
2
OBJECTS
0
DICTIONARY
5
C
100
AcDbDictionary
3
ACAD_GROUP
350
D
3
ACAD_MLINESTYLE
350
17
0
DICTIONARY
5
D
100
AcDbDictionary
0
DICTIONARY
5
1A
330
C
100
AcDbDictionary
0
DICTIONARY
5
17
100
AcDbDictionary
0
ENDSEC
0
EOF
