0
SECTION
2
HEADER
9
$INSUNITS
70
4
9
$ACADVER
1
AC1014
9
$HANDSEED
5
FFFF
0
ENDSEC
0
SECTION
2
TABLES
0
TABLE
2
VPORT
5
8
100
AcDbSymbolTable
0
ENDTAB
0
TABLE
2
LTYPE
5
5
100
AcDbSymbolTable
0
LTYPE
5
14
100
AcDbSymbolTableRecord
100
AcDbLinetypeTableRecord
2
BYBLOCK
70
0
0
LTYPE
5
15
100
AcDbSymbolTableRecord
100
AcDbLinetypeTableRecord
2
BYLAYER
70
0
0
ENDTAB
0
TABLE
2
LAYER
5
2
100
AcDbSymbolTable
70
2
0
LAYER
5
50
100
AcDbSymbolTableRecord
100
AcDbLayerTableRecord
2
0
70
0
6
CONTINUOUS
0
ENDTAB
0
TABLE
2
STYLE
5
3
100
AcDbSymbolTable
70
1
0
STYLE
5
11
100
AcDbSymbolTableRecord
100
AcDbTextStyleTableRecord
2
STANDARD
70
0
0
ENDTAB
0
TABLE
2
VIEW
5
6
100
AcDbSymbolTable
70
0
0
ENDTAB
0
TABLE
2
UCS
5
7
100
AcDbSymbolTable
70
0
0
ENDTAB
0
TABLE
2
APPID
5
9
100
AcDbSymbolTable
70
2
0
APPID
5
12
100
AcDbSymbolTableRecord
100
AcDbRegAppTableRecord
2
ACAD
70
0
0
ENDTAB
0
TABLE
2
DIMSTYLE
5
A
100
AcDbSymbolTable
70
1
0
ENDTAB
0
TABLE
2
BLOCK_RECORD
5
1
100
AcDbSymbolTable
70
1
0
BLOCK_RECORD
5
1F
100
AcDbSymbolTableRecord
100
AcDbBlockTableRecord
2
*MODEL_SPACE
0
BLOCK_RECORD
5
1B
100
AcDbSymbolTableRecord
100
AcDbBlockTableRecord
2
*PAPER_SPACE
0
ENDTAB
0
ENDSEC
0
SECTION
2
BLOCKS
0
BLOCK
5
20
100
AcDbEntity
100
AcDbBlockBegin
2
*MODEL_SPACE
0
ENDBLK
5
21
100
AcDbEntity
100
AcDbBlockEnd
0
BLOCK
5
1C
100
AcDbEntity
100
AcDbBlockBegin
2
*PAPER_SPACE
0
ENDBLK
5
1D
100
AcDbEntity
100
AcDbBlockEnd
0
ENDSEC
0
SECTION
2
ENTITIES
0
LWPOLYLINE
5
100
100
AcDbEntity
8
0
100
AcDbPolyline
90
14
70
1
43
0.0
10
-48.000000000000014
20
-21.999999999999869
42
-0.41421356237309503
10
-49.000000000000014
20
-20.999999999999872
10
-49.000000000000014
20
-13.5
10
-47
20
-13.499999999999998
42
0.41421356237309503
10
-44
20
-10.499999999999998
10
-44.000000000000014
20
10.500000000000004
42
0.41421356237309503
10
-47.000000000000014
20
13.500000000000004
10
-49
20
13.5
10
-48.999999999999986
20
20.999999999999872
42
-0.4142135623730937
10
-47.999999999999979
20
21.999999999999869
10
-16.999997988348138
20
21.99999999999989
42
-0.41421356237309631
10
-15.99999798834814
20
20.99999999999989
10
-15.999997988348099
20
-20.99999999999989
42
-0.41421356237309503
10
-16.999997988348099
20
-21.99999999999989
0
ARC
5
101
100
AcDbEntity
8
0
100
AcDbCircle
10
-47
20
-10.499999999999998
30
0
40
3.3000000000000007
210
0
220
0
230
1
100
AcDbArc
50
-90
51
0
0
LINE
5
102
100
AcDbEntity
8
0
100
AcDbLine
10
-47
20
-10.499999999999998
30
0
11
-47
21
-13.799999999999999
31
0
0
LINE
5
103
100
AcDbEntity
8
0
100
AcDbLine
10
-47
20
-10.499999999999998
30
0
11
-43.700000000000003
21
-10.499999999999998
31
0
0
LINE
5
104
100
AcDbEntity
8
0
100
AcDbLine
10
-16.599997988348118
20
-21.699999999999893
30
0
11
-48.400000000000006
21
-21.699999999999875
31
0
0
LINE
5
105
100
AcDbEntity
8
0
100
AcDbLine
10
-48.70000000000001
20
-14.099999999999998
30
0
11
-48.70000000000001
21
-21.399999999999878
31
0
0
LINE
5
106
100
AcDbEntity
8
0
100
AcDbLine
10
-47
20
-13.799999999999999
30
0
11
-48.399999999999999
21
-13.799999999999994
31
0
0
LINE
5
107
100
AcDbEntity
8
0
100
AcDbLine
10
-44
20
2.2204460492503131e-15
30
0
11
-16.299997988348117
21
1.2239807258014628e-14
31
0
0
LINE
5
108
100
AcDbEntity
8
0
100
AcDbLine
10
-16.599997988348118
20
21.699999999999903
30
0
11
-48.400000000000041
21
21.699999999999882
31
0
0
LINE
5
109
100
AcDbEntity
8
0
100
AcDbLine
10
-48.700000000000045
20
14.100000194708514
30
0
11
-48.700000000000045
21
21.399999999999885
31
0
0
LINE
5
110
100
AcDbEntity
8
0
100
AcDbLine
10
-47
20
13.799999999999999
30
0
11
-48.400000041723288
21
13.800000194708515
31
0
0
ARC
5
111
100
AcDbEntity
8
0
100
AcDbCircle
10
-47
20
10.500000000000004
30
0
40
3.3000000000000007
210
0
220
0
230
1
100
AcDbArc
50
0
51
90
0
LINE
5
112
100
AcDbEntity
8
0
100
AcDbLine
10
-43.700000000000003
20
-10.499999999999998
30
0
11
-43.700000000000003
21
10.500000000000004
31
0
0
ARC
5
113
100
AcDbEntity
8
0
100
AcDbCircle
10
-16.599997988348118
20
-21.399999999999896
30
0
40
0.29999999999999805
210
0
220
0
230
1
100
AcDbArc
50
-90
51
0
0
ARC
5
114
100
AcDbEntity
8
0
100
AcDbCircle
10
-48.400000000000006
20
-21.399999999999878
30
0
40
0.30000000000000249
210
0
220
0
230
1
100
AcDbArc
50
180
51
270
0
ARC
5
115
100
AcDbEntity
8
0
100
AcDbCircle
10
-48.400000000000006
20
-14.099999999999998
30
0
40
0.30000000000000249
210
0
220
-0
230
1
100
AcDbArc
50
89.99999999999865
51
180
0
ARC
5
116
100
AcDbEntity
8
0
100
AcDbCircle
10
-16.599997988348118
20
21.399999999999903
30
0
40
0.30000000000000027
210
0
220
-0
230
1
100
AcDbArc
50
0
51
90
0
ARC
5
117
100
AcDbEntity
8
0
100
AcDbCircle
10
-48.400000000000041
20
21.399999999999885
30
0
40
0.29999999999999805
210
0
220
-0
230
1
100
AcDbArc
50
90
51
180
0
ARC
5
118
100
AcDbEntity
8
0
100
AcDbCircle
10
-48.400000000000041
20
14.100000194708514
30
0
40
0.30000000000000249
210
0
220
0
230
1
100
AcDbArc
50
180
51
269.99999203144677
0
LWPOLYLINE
5
119
100
AcDbEntity
8
0
100
AcDbPolyline
90
4
70
1
43
0.0
10
-16.599999999999998
20
-8.9999999999999982
10
-42.100000000000001
20
-8.9999999999999982
10
-42.100000000000001
20
9.0000000000000018
10
-16.599999999999998
20
9.0000000000000018
0
LINE
5
120
100
AcDbEntity
8
0
100
AcDbLine
10
-22.799999999999997
20
-8.9999999999999982
30
0
11
-22.799999999999997
21
9.0000000000000018
31
0
0
LINE
5
121
100
AcDbEntity
8
0
100
AcDbLine
10
-16.599999999999998
20
-8.9999999999999982
30
0
11
-16.299997988348117
21
-8.9999999999999982
31
0
0
LINE
5
122
100
AcDbEntity
8
0
100
AcDbLine
10
-16.599999999999998
20
9.0000000000000018
30
0
11
-16.29999798834811
21
9.0000000000000018
31
0
0
LINE
5
123
100
AcDbEntity
8
0
100
AcDbLine
10
-38.70000000000001
20
21.699999999999889
30
0
11
-38.700000000000045
21
-21.699999999999878
31
0
0
LINE
5
124
100
AcDbEntity
8
0
100
AcDbLine
10
-48.70000000000001
20
-17.749999999999936
30
0
11
-16.299997988348117
21
-17.749999999999936
31
0
0
LINE
5
125
100
AcDbEntity
8
0
100
AcDbLine
10
-48.700000000000045
20
17.750000097354199
30
0
11
-16.299997988348117
21
17.750000097354199
31
0
0
LINE
5
126
100
AcDbEntity
8
0
100
AcDbLine
10
-16.299997988348117
20
1.2239807258014628e-14
30
0
11
-15.799997988348117
21
1.2742051007249821e-14
31
0
0
LINE
5
127
100
AcDbEntity
8
0
100
AcDbLine
10
-15.799997988348117
20
1.2742051007249821e-14
30
0
11
-15.799997988348116
21
-2.9999999999999876
31
0
0
LINE
5
128
100
AcDbEntity
8
0
100
AcDbLine
10
-15.799997988348117
20
1.2742051007249821e-14
30
0
11
-15.799997988348121
21
3.0000000000000133
31
0
0
ARC
5
129
100
AcDbEntity
8
0
100
AcDbCircle
10
-14.999997988348087
20
-21.399999999999896
30
0
40
0.30000000000000027
210
0
220
0
230
1
100
AcDbArc
50
180
51
270.00000000000034
0
LINE
5
130
100
AcDbEntity
8
0
100
AcDbLine
10
17.100004023303804
20
-17.749999999999886
30
0
11
-15.299997988348091
21
-17.749999999999936
31
0
0
LINE
5
131
100
AcDbEntity
8
0
100
AcDbLine
10
15.400004023303786
20
-13.799999999999953
30
0
11
16.800004023303782
21
-13.799999999999946
31
0
0
ARC
5
132
100
AcDbEntity
8
0
100
AcDbCircle
10
15.400004023303786
20
-10.499999999999952
30
0
40
3.3000000000000007
210
0
220
0
230
1
100
AcDbArc
50
180
51
270
0
LWPOLYLINE
5
133
100
AcDbEntity
8
0
100
AcDbPolyline
90
4
70
1
43
0.0
10
-14.999995976696223
20
-8.9999999999999964
10
10.500004023303784
20
-8.9999999999999591
10
10.500004023303758
20
9.0000000000000409
10
-14.999995976696251
20
9.0000000000000036
0
LINE
5
134
100
AcDbEntity
8
0
100
AcDbLine
10
-8.7999959766962235
20
-8.9999999999999876
30
0
11
-8.7999959766962519
21
9.0000000000000107
31
0
0
LINE
5
135
100
AcDbEntity
8
0
100
AcDbLine
10
12.100004023303786
20
-10.270359897388419
30
0
11
12.10000402330375
21
10.270360039282693
31
0
0
ARC
5
136
100
AcDbEntity
8
0
100
AcDbCircle
10
15.400004023303751
20
10.50000000000005
30
0
40
3.2999999999999963
210
0
220
-0
230
1
100
AcDbArc
50
90
51
180
0
LINE
5
137
100
AcDbEntity
8
0
100
AcDbLine
10
15.400004023303751
20
13.800000000000045
30
0
11
16.800004065027039
21
13.800000194708563
31
0
0
LINE
5
138
100
AcDbEntity
8
0
100
AcDbLine
10
17.100004023303786
20
17.750000097354249
30
0
11
-15.299997988348144
21
17.750000097354199
31
0
0
LINE
5
139
100
AcDbEntity
8
0
100
AcDbLine
10
12.40000402330377
20
4.3964834752999185e-14
30
0
11
-15.299997988348117
21
1.2979955941098068e-14
31
0
0
ARC
5
140
100
AcDbEntity
8
0
100
AcDbCircle
10
-14.999997988348149
20
21.399999999999903
30
0
40
0.29999999999999805
210
0
220
0
230
1
100
AcDbArc
50
90.000000000000341
51
180
0
LINE
5
141
100
AcDbEntity
8
0
100
AcDbLine
10
10.500004023303781
20
-21.399999999999704
30
0
11
10.500004023303745
21
-14.029640102611491
31
0
0
LINE
5
142
100
AcDbEntity
8
0
100
AcDbLine
10
10.600189916107553
20
-13.593366596092109
30
0
11
11.99981813049998
21
-10.7066334039078
31
0
0
LINE
5
143
100
AcDbEntity
8
0
100
AcDbLine
10
-14.99999798834815
20
21.699999999999903
30
0
11
10.200004065026986
21
21.700000000000085
31
0
0
LINE
5
144
100
AcDbEntity
8
0
100
AcDbLine
10
10.500004065026987
20
21.400000041723338
30
0
11
10.500005090078314
21
14.02963988751155
31
0
0
LINE
5
145
100
AcDbEntity
8
0
100
AcDbLine
10
10.600190865274769
20
13.593366762634908
30
0
11
11.999818248107289
21
10.706633303236844
31
0
0
LINE
5
146
100
AcDbEntity
8
0
100
AcDbLine
10
-8.7999959766962235
20
-8.9999999999999876
30
0
11
-8.7999959766961329
21
-21.699999999999847
31
0
0
LINE
5
147
100
AcDbEntity
8
0
100
AcDbLine
10
-8.7999959766962519
20
9.0000000000000107
30
0
11
-8.7999959766963443
21
21.699999514967203
31
0
0
ARC
5
148
100
AcDbEntity
8
0
100
AcDbCircle
10
10.20000402330378
20
-21.399999999999704
30
0
40
0.30000000000000249
210
-0
220
0
230
1
100
AcDbArc
50
-90
51
0
0
ARC
5
149
100
AcDbEntity
8
0
100
AcDbCircle
10
10.200004065026988
20
21.400000000000084
30
0
40
0.30000000000000093
210
0
220
-0
230
1
100
AcDbArc
50
7.9634704241263836e-06
51
90.000000000000341
0
ARC
5
150
100
AcDbEntity
8
0
100
AcDbCircle
10
11.500004023303788
20
-14.029640102611499
30
0
40
1.0000000000000406
210
0
220
0
230
1
100
AcDbArc
50
154.13364320590532
51
180
0
ARC
5
151
100
AcDbEntity
8
0
100
AcDbCircle
10
11.50000509007832
20
14.02964002658906
30
0
40
1.0000000000000151
210
0
220
0
230
1
100
AcDbArc
50
180.00000791757108
51
205.86634134872364
0
ARC
5
152
100
AcDbEntity
8
0
100
AcDbCircle
10
11.100004023303738
20
-10.270359897388408
30
0
40
1.0000000000000475
210
0
220
0
230
1
100
AcDbArc
50
334.1336432059054
51
360
0
ARC
5
153
100
AcDbEntity
8
0
100
AcDbCircle
10
11.100004023303793
20
10.270360039282702
30
0
40
0.99999999999995648
210
0
220
0
230
1
100
AcDbArc
50
0
51
25.866341348724482
0
LINE
5
154
100
AcDbEntity
8
0
100
AcDbLine
10
-15.299997988348091
20
-19.699999999999896
30
0
11
-16.299997988348117
21
-19.699999999999896
31
0
0
LWPOLYLINE
5
155
100
AcDbEntity
8
0
100
AcDbPolyline
90
4
70
1
43
0.0
10
-16.299997988348117
20
-11.699999999999896
10
-15.2999979883481
20
-11.699999999999896
10
-15.299997988348128
20
11.699999999999925
10
-16.299997988348142
20
11.699999999999925
0
LINE
5
156
100
AcDbEntity
8
0
100
AcDbLine
10
-16.299997988348117
20
-21.399999999999896
30
0
11
-16.299997988348117
21
-19.699999999999896
31
0
0
LINE
5
157
100
AcDbEntity
8
0
100
AcDbLine
10
-15.299997988348085
20
-21.399999999999896
30
0
11
-15.299997988348091
21
-19.699999999999896
31
0
0
LINE
5
158
100
AcDbEntity
8
0
100
AcDbLine
10
-15.299997988348137
20
19.699999999999925
30
0
11
-16.29999798834816
21
19.699999999999925
31
0
0
LINE
5
159
100
AcDbEntity
8
0
100
AcDbLine
10
-16.29999798834816
20
19.699999999999925
30
0
11
-16.299997988348117
21
21.399999999999903
31
0
0
LINE
5
160
100
AcDbEntity
8
0
100
AcDbLine
10
-15.299997988348137
20
19.699999999999925
30
0
11
-15.299997988348149
21
21.399999999999903
31
0
0
LINE
5
161
100
AcDbEntity
8
0
100
AcDbLine
10
-14.999997988348085
20
-21.699999999999893
30
0
11
-5.000000074505806
21
-21.699999999999822
31
0
0
LINE
5
162
100
AcDbEntity
8
0
100
AcDbLine
10
-5.000000074505806
20
-21.699999999999822
30
0
11
-5.0000000745057989
21
-22.699999999999822
31
0
0
LINE
5
163
100
AcDbEntity
8
0
100
AcDbLine
10
-7.4505799307900133e-08
20
-22.69999999999979
30
0
11
-7.4505805525149071e-08
21
-21.69999999999979
31
0
0
LINE
5
164
100
AcDbEntity
8
0
100
AcDbLine
10
-7.4505805525149071e-08
20
-21.69999999999979
30
0
11
10.20000402330378
21
-21.699999999999704
31
0
0
LINE
5
165
100
AcDbEntity
8
0
100
AcDbLine
10
-7.4505799307900133e-08
20
-22.69999999999979
30
0
11
3.9999999254942025
21
-22.699999999999761
31
0
0
LINE
5
166
100
AcDbEntity
8
0
100
AcDbLine
10
4.9999999254942109
20
-23.699999999999754
30
0
11
4.9999999254942198
21
-24.699999999999747
31
0
0
LINE
5
167
100
AcDbEntity
8
0
100
AcDbLine
10
3.9999999254942251
20
-25.699999999999758
30
0
11
-9.0000000745057775
21
-25.699999999999861
31
0
0
LINE
5
168
100
AcDbEntity
8
0
100
AcDbLine
10
-10.000000074505785
20
-24.699999999999868
30
0
11
-10.000000074505792
21
-23.69999999999985
31
0
0
LINE
5
169
100
AcDbEntity
8
0
100
AcDbLine
10
-9.0000000745057953
20
-22.699999999999839
30
0
11
-5.0000000745057989
21
-22.699999999999822
31
0
0
ARC
5
170
100
AcDbEntity
8
0
100
AcDbCircle
10
3.9999999254942149
20
-24.699999999999754
30
0
40
1.0000000000000053
210
0
220
0
230
1
100
AcDbArc
50
-89.999999999999389
51
0
0
ARC
5
171
100
AcDbEntity
8
0
100
AcDbCircle
10
3.9999999254942087
20
-23.699999999999761
30
0
40
1.000000000000002
210
0
220
-0
230
1
100
AcDbArc
50
0
51
90.000000000000369
0
ARC
5
172
100
AcDbEntity
8
0
100
AcDbCircle
10
-9.0000000745057882
20
-23.699999999999847
30
0
40
1.0000000000000053
210
0
220
0
230
1
100
AcDbArc
50
90.000000000000398
51
180
0
ARC
5
173
100
AcDbEntity
8
0
100
AcDbCircle
10
-9.0000000745057864
20
-24.699999999999864
30
0
40
0.99999999999999756
210
0
220
0
230
1
100
AcDbArc
50
180
51
270.00000000000051
0
ENDSEC
0
SECTION
2
OBJECTS
0
DICTIONARY
5
C
100
AcDbDictionary
3
ACAD_GROUP
350
D
3
ACAD_MLINESTYLE
350
17
0
DICTIONARY
5
D
100
AcDbDictionary
0
DICTIONARY
5
1A
330
C
100
AcDbDictionary
0
DICTIONARY
5
17
100
AcDbDictionary
0
ENDSEC
0
EOF
