G04 #@! TF.GenerationSoftware,KiCad,Pcbnew,(5.0.2)-1*
G04 #@! TF.CreationDate,2020-01-20T23:46:43+09:00*
G04 #@! TF.ProjectId,schematic,73636865-6d61-4746-9963-2e6b69636164,rev?*
G04 #@! TF.SameCoordinates,Original*
G04 #@! TF.FileFunction,Legend,Top*
G04 #@! TF.FilePolarity,Positive*
%FSLAX46Y46*%
G04 Gerber Fmt 4.6, Leading zero omitted, Abs format (unit mm)*
G04 Created by KiCad (PCBNEW (5.0.2)-1) date 2020/01/20 23:46:43*
%MOMM*%
%LPD*%
G01*
G04 APERTURE LIST*
%ADD10C,0.100000*%
%ADD11C,0.150000*%
%ADD12C,0.120000*%
%ADD13C,0.010000*%
G04 APERTURE END LIST*
D10*
X62500000Y-57500000D02*
G75*
G03X62500000Y-57500000I-500000J0D01*
G01*
X34750000Y-60000000D02*
G75*
G03X34750000Y-60000000I-500000J0D01*
G01*
X33750000Y-57500000D02*
G75*
G03X33750000Y-57500000I-500000J0D01*
G01*
X33750000Y-46500000D02*
G75*
G03X33750000Y-46500000I-500000J0D01*
G01*
X38000000Y-33000000D02*
G75*
G03X38000000Y-33000000I-500000J0D01*
G01*
X35750000Y-36250000D02*
X36750000Y-36250000D01*
X36250000Y-36250000D02*
X35750000Y-37000000D01*
X36750000Y-37000000D02*
X36250000Y-36250000D01*
X35750000Y-37000000D02*
X36750000Y-37000000D01*
X38250000Y-66250000D02*
X38750000Y-67000000D01*
X39250000Y-66250000D02*
X38250000Y-66250000D01*
X38750000Y-67000000D02*
X39250000Y-66250000D01*
X38250000Y-67000000D02*
X39250000Y-67000000D01*
X74500000Y-73500000D02*
X74000000Y-74250000D01*
X74000000Y-73500000D02*
X75000000Y-73500000D01*
X74000000Y-74250000D02*
X75000000Y-74250000D01*
X75000000Y-74250000D02*
X74500000Y-73500000D01*
X58500000Y-73500000D02*
X58000000Y-74250000D01*
X58000000Y-73500000D02*
X59000000Y-73500000D01*
X58000000Y-74250000D02*
X59000000Y-74250000D01*
X59000000Y-74250000D02*
X58500000Y-73500000D01*
X71000000Y-76500000D02*
X70500000Y-77250000D01*
X70500000Y-76500000D02*
X71500000Y-76500000D01*
X70500000Y-77250000D02*
X71500000Y-77250000D01*
X71500000Y-77250000D02*
X71000000Y-76500000D01*
X61500000Y-76750000D02*
X62500000Y-76750000D01*
X62000000Y-76750000D02*
X61500000Y-77500000D01*
X62500000Y-77500000D02*
X62000000Y-76750000D01*
X61500000Y-77500000D02*
X62500000Y-77500000D01*
X25750000Y-35250000D02*
X26750000Y-35250000D01*
X26500000Y-28750000D02*
X26500000Y-29750000D01*
X26000000Y-29250000D02*
X27000000Y-29250000D01*
X54000000Y-35700000D02*
X80000000Y-35700000D01*
X54000000Y-64000000D02*
X80000000Y-64000000D01*
D11*
X81400004Y-50000000D02*
X53700002Y-50000000D01*
X25000000Y-50000000D02*
X52700002Y-50000000D01*
X60200004Y-59000000D02*
X60200004Y-41000000D01*
X60200004Y-59000000D02*
X60200004Y-71700000D01*
X60200004Y-41000000D02*
X60200004Y-28300000D01*
D12*
G04 #@! TO.C,BT1*
X25550000Y-29360000D02*
X20830000Y-29360000D01*
X20830000Y-29360000D02*
X20830000Y-35480000D01*
X20830000Y-35480000D02*
X25550000Y-35480000D01*
X25550000Y-35480000D02*
X25550000Y-29360000D01*
X25550000Y-31120000D02*
X25750000Y-31120000D01*
X25750000Y-31120000D02*
X25750000Y-30820000D01*
X25750000Y-30820000D02*
X25550000Y-30820000D01*
X25650000Y-31120000D02*
X25650000Y-30820000D01*
X25550000Y-31920000D02*
X24940000Y-31920000D01*
X24940000Y-31920000D02*
X24940000Y-29970000D01*
X24940000Y-29970000D02*
X21440000Y-29970000D01*
X21440000Y-29970000D02*
X21440000Y-34870000D01*
X21440000Y-34870000D02*
X24940000Y-34870000D01*
X24940000Y-34870000D02*
X24940000Y-32920000D01*
X24940000Y-32920000D02*
X25550000Y-32920000D01*
X24240000Y-29360000D02*
X24240000Y-29970000D01*
X22940000Y-29360000D02*
X22940000Y-29970000D01*
X24240000Y-35480000D02*
X24240000Y-34870000D01*
X22940000Y-35480000D02*
X22940000Y-34870000D01*
X21440000Y-32320000D02*
X21940000Y-32320000D01*
X21940000Y-32320000D02*
X21940000Y-32520000D01*
X21940000Y-32520000D02*
X21440000Y-32520000D01*
X21440000Y-32420000D02*
X21940000Y-32420000D01*
X25850000Y-30310000D02*
X25850000Y-29060000D01*
X25850000Y-29060000D02*
X24600000Y-29060000D01*
G04 #@! TO.C,C1*
X32530000Y-51836267D02*
X32530000Y-51493733D01*
X33550000Y-51836267D02*
X33550000Y-51493733D01*
G04 #@! TO.C,C2*
X33110000Y-41401267D02*
X33110000Y-41058733D01*
X34130000Y-41401267D02*
X34130000Y-41058733D01*
G04 #@! TO.C,C3*
X42570000Y-30506267D02*
X42570000Y-30163733D01*
X41550000Y-30506267D02*
X41550000Y-30163733D01*
G04 #@! TO.C,C8*
X62740000Y-36748733D02*
X62740000Y-37091267D01*
X61720000Y-36748733D02*
X61720000Y-37091267D01*
G04 #@! TO.C,C13*
X31361267Y-64700000D02*
X31018733Y-64700000D01*
X31361267Y-65720000D02*
X31018733Y-65720000D01*
G04 #@! TO.C,C16*
X61628733Y-44240000D02*
X61971267Y-44240000D01*
X61628733Y-45260000D02*
X61971267Y-45260000D01*
G04 #@! TO.C,D1*
X61185000Y-78300000D02*
X61185000Y-75840000D01*
X61185000Y-75840000D02*
X59715000Y-75840000D01*
X59715000Y-75840000D02*
X59715000Y-78300000D01*
G04 #@! TO.C,D3*
X73265000Y-78295000D02*
X73265000Y-75835000D01*
X73265000Y-75835000D02*
X71795000Y-75835000D01*
X71795000Y-75835000D02*
X71795000Y-78295000D01*
G04 #@! TO.C,D6*
X73855000Y-75830000D02*
X73855000Y-78290000D01*
X75325000Y-75830000D02*
X73855000Y-75830000D01*
X75325000Y-78290000D02*
X75325000Y-75830000D01*
G04 #@! TO.C,D7*
X37675000Y-67440000D02*
X37675000Y-64980000D01*
X36205000Y-67440000D02*
X37675000Y-67440000D01*
X36205000Y-64980000D02*
X36205000Y-67440000D01*
G04 #@! TO.C,D8*
X35395000Y-36490000D02*
X35395000Y-34030000D01*
X35395000Y-34030000D02*
X33925000Y-34030000D01*
X33925000Y-34030000D02*
X33925000Y-36490000D01*
G04 #@! TO.C,D9*
X57755000Y-75830000D02*
X57755000Y-78290000D01*
X59225000Y-75830000D02*
X57755000Y-75830000D01*
X59225000Y-78290000D02*
X59225000Y-75830000D01*
G04 #@! TO.C,F1*
X44270000Y-38093748D02*
X44270000Y-40866252D01*
X40850000Y-38093748D02*
X40850000Y-40866252D01*
G04 #@! TO.C,J9*
X49100000Y-69170000D02*
X49050000Y-69170000D01*
X49100000Y-66750000D02*
X49050000Y-66750000D01*
X52170000Y-69170000D02*
X52120000Y-69170000D01*
X52170000Y-66750000D02*
X52120000Y-66750000D01*
X52120000Y-65370000D02*
X52120000Y-66750000D01*
X49050000Y-66750000D02*
X49050000Y-69170000D01*
X52170000Y-66750000D02*
X52170000Y-69170000D01*
G04 #@! TO.C,J10*
X57360000Y-66750000D02*
X57360000Y-69170000D01*
X54240000Y-66750000D02*
X54240000Y-69170000D01*
X57310000Y-65370000D02*
X57310000Y-66750000D01*
X57360000Y-66750000D02*
X57310000Y-66750000D01*
X57360000Y-69170000D02*
X57310000Y-69170000D01*
X54290000Y-66750000D02*
X54240000Y-66750000D01*
X54290000Y-69170000D02*
X54240000Y-69170000D01*
G04 #@! TO.C,J11*
X57370000Y-31060000D02*
X57370000Y-33480000D01*
X54250000Y-31060000D02*
X54250000Y-33480000D01*
X57320000Y-29680000D02*
X57320000Y-31060000D01*
X57370000Y-31060000D02*
X57320000Y-31060000D01*
X57370000Y-33480000D02*
X57320000Y-33480000D01*
X54300000Y-31060000D02*
X54250000Y-31060000D01*
X54300000Y-33480000D02*
X54250000Y-33480000D01*
G04 #@! TO.C,J12*
X49100000Y-33480000D02*
X49050000Y-33480000D01*
X49100000Y-31060000D02*
X49050000Y-31060000D01*
X52170000Y-33480000D02*
X52120000Y-33480000D01*
X52170000Y-31060000D02*
X52120000Y-31060000D01*
X52120000Y-29680000D02*
X52120000Y-31060000D01*
X49050000Y-31060000D02*
X49050000Y-33480000D01*
X52170000Y-31060000D02*
X52170000Y-33480000D01*
G04 #@! TO.C,M1*
X28690000Y-67390000D02*
X26030000Y-67390000D01*
X28690000Y-67390000D02*
X28690000Y-64790000D01*
X28690000Y-64790000D02*
X26030000Y-64790000D01*
X26030000Y-67390000D02*
X26030000Y-64790000D01*
X26030000Y-69990000D02*
X26030000Y-68660000D01*
X27360000Y-69990000D02*
X26030000Y-69990000D01*
G04 #@! TO.C,Q1*
X62730000Y-49210000D02*
X61270000Y-49210000D01*
X62730000Y-46050000D02*
X60570000Y-46050000D01*
X62730000Y-46050000D02*
X62730000Y-46980000D01*
X62730000Y-49210000D02*
X62730000Y-48280000D01*
G04 #@! TO.C,Q2*
X75010000Y-52360000D02*
X73550000Y-52360000D01*
X75010000Y-49200000D02*
X72850000Y-49200000D01*
X75010000Y-49200000D02*
X75010000Y-50130000D01*
X75010000Y-52360000D02*
X75010000Y-51430000D01*
G04 #@! TO.C,Q5*
X40830000Y-43080000D02*
X40830000Y-44010000D01*
X40830000Y-46240000D02*
X40830000Y-45310000D01*
X40830000Y-46240000D02*
X42990000Y-46240000D01*
X40830000Y-43080000D02*
X42290000Y-43080000D01*
G04 #@! TO.C,Q6*
X66520000Y-77580000D02*
X66830000Y-77580000D01*
X68440000Y-77580000D02*
X68130000Y-77580000D01*
X68440000Y-77580000D02*
X68440000Y-76170000D01*
X66520000Y-77580000D02*
X66520000Y-76420000D01*
G04 #@! TO.C,Q9*
X63010000Y-77570000D02*
X63320000Y-77570000D01*
X64930000Y-77570000D02*
X64620000Y-77570000D01*
X64930000Y-77570000D02*
X64930000Y-76160000D01*
X63010000Y-77570000D02*
X63010000Y-76410000D01*
G04 #@! TO.C,SW3*
X21770000Y-71590000D02*
X20440000Y-71590000D01*
X20440000Y-71590000D02*
X20440000Y-70260000D01*
X20440000Y-68990000D02*
X20440000Y-63850000D01*
X23100000Y-63850000D02*
X20440000Y-63850000D01*
X23100000Y-68990000D02*
X23100000Y-63850000D01*
X23100000Y-68990000D02*
X20440000Y-68990000D01*
G04 #@! TO.C,TP1*
X25960000Y-32110000D02*
X28180000Y-32110000D01*
X25960000Y-32110000D02*
X25960000Y-32045000D01*
X28180000Y-32110000D02*
X28180000Y-32045000D01*
X25960000Y-32110000D02*
X26506529Y-32110000D01*
X27633471Y-32110000D02*
X28180000Y-32110000D01*
X25960000Y-31350000D02*
X25960000Y-30590000D01*
X25960000Y-30590000D02*
X27070000Y-30590000D01*
G04 #@! TO.C,TP2*
X26000000Y-32760000D02*
X27110000Y-32760000D01*
X26000000Y-33520000D02*
X26000000Y-32760000D01*
X27673471Y-34280000D02*
X28220000Y-34280000D01*
X26000000Y-34280000D02*
X26546529Y-34280000D01*
X28220000Y-34280000D02*
X28220000Y-34215000D01*
X26000000Y-34280000D02*
X26000000Y-34215000D01*
X26000000Y-34280000D02*
X28220000Y-34280000D01*
G04 #@! TO.C,TP3*
X37190000Y-45490000D02*
X39410000Y-45490000D01*
X37190000Y-45490000D02*
X37190000Y-45425000D01*
X39410000Y-45490000D02*
X39410000Y-45425000D01*
X37190000Y-45490000D02*
X37736529Y-45490000D01*
X38863471Y-45490000D02*
X39410000Y-45490000D01*
X37190000Y-44730000D02*
X37190000Y-43970000D01*
X37190000Y-43970000D02*
X38300000Y-43970000D01*
D11*
G04 #@! TO.C,U1*
X31860000Y-56755000D02*
X29935000Y-56755000D01*
X31085000Y-53505000D02*
X29935000Y-53505000D01*
G04 #@! TO.C,U2*
X31215000Y-42655000D02*
X30065000Y-42655000D01*
X31990000Y-45905000D02*
X30065000Y-45905000D01*
G04 #@! TO.C,U4*
X62805000Y-55635000D02*
X61695000Y-55635000D01*
X61695000Y-51485000D02*
X62805000Y-51485000D01*
X70645000Y-51485000D02*
X69535000Y-51485000D01*
X70645000Y-55635000D02*
X69535000Y-55635000D01*
X61695000Y-55635000D02*
X61695000Y-51485000D01*
X70645000Y-55635000D02*
X70645000Y-51485000D01*
X62805000Y-55635000D02*
X62805000Y-56760000D01*
D12*
G04 #@! TO.C,U5*
X33890000Y-32920000D02*
X36840000Y-32920000D01*
X35690000Y-29700000D02*
X33890000Y-29700000D01*
G04 #@! TO.C,U8*
X35530000Y-64070000D02*
X37330000Y-64070000D01*
X37330000Y-60850000D02*
X34380000Y-60850000D01*
G04 #@! TO.C,Q7*
X38720000Y-69860000D02*
X39650000Y-69860000D01*
X41880000Y-69860000D02*
X40950000Y-69860000D01*
X41880000Y-69860000D02*
X41880000Y-67700000D01*
X38720000Y-69860000D02*
X38720000Y-68400000D01*
G04 #@! TO.C,JP1*
X32470000Y-69390000D02*
X32470000Y-71390000D01*
X29670000Y-69390000D02*
X32470000Y-69390000D01*
X29670000Y-71390000D02*
X29670000Y-69390000D01*
X32470000Y-71390000D02*
X29670000Y-71390000D01*
D13*
G04 #@! TO.C,G\002A\002A\002A*
G36*
X46143634Y-57154753D02*
X46266367Y-57165263D01*
X46384002Y-57182715D01*
X46495628Y-57207193D01*
X46532580Y-57217283D01*
X46617317Y-57244022D01*
X46693717Y-57273233D01*
X46763453Y-57305658D01*
X46828201Y-57342037D01*
X46859126Y-57361873D01*
X46926957Y-57412708D01*
X46986132Y-57468650D01*
X47036548Y-57529545D01*
X47078103Y-57595238D01*
X47110694Y-57665574D01*
X47134218Y-57740397D01*
X47145034Y-57794080D01*
X47150859Y-57848880D01*
X47152161Y-57908098D01*
X47149103Y-57968150D01*
X47141849Y-58025455D01*
X47132471Y-58069457D01*
X47105246Y-58153163D01*
X47069068Y-58232163D01*
X47024122Y-58306192D01*
X46970594Y-58374986D01*
X46908668Y-58438281D01*
X46838529Y-58495812D01*
X46829598Y-58502296D01*
X46810679Y-58514914D01*
X46787593Y-58528889D01*
X46762227Y-58543238D01*
X46736471Y-58556977D01*
X46712212Y-58569122D01*
X46691338Y-58578691D01*
X46675739Y-58584698D01*
X46668383Y-58586280D01*
X46665068Y-58585549D01*
X46662677Y-58582415D01*
X46661062Y-58575468D01*
X46660072Y-58563295D01*
X46659560Y-58544485D01*
X46659375Y-58517627D01*
X46659360Y-58500890D01*
X46659641Y-58465154D01*
X46660526Y-58438718D01*
X46662070Y-58420734D01*
X46664332Y-58410358D01*
X46665710Y-58407806D01*
X46672414Y-58401728D01*
X46685379Y-58391532D01*
X46702484Y-58378847D01*
X46714868Y-58370005D01*
X46737042Y-58353241D01*
X46762440Y-58332224D01*
X46787337Y-58310112D01*
X46801612Y-58296524D01*
X46853677Y-58239000D01*
X46897137Y-58178095D01*
X46931849Y-58114498D01*
X46957672Y-58048895D01*
X46974463Y-57981974D01*
X46982080Y-57914424D01*
X46980380Y-57846931D01*
X46969222Y-57780182D01*
X46948464Y-57714867D01*
X46930219Y-57674420D01*
X46902562Y-57625416D01*
X46871207Y-57581463D01*
X46833666Y-57539233D01*
X46815702Y-57521447D01*
X46755897Y-57470880D01*
X46687660Y-57425738D01*
X46611202Y-57386102D01*
X46526728Y-57352049D01*
X46434448Y-57323659D01*
X46334570Y-57301010D01*
X46227300Y-57284180D01*
X46172134Y-57278085D01*
X46106080Y-57273314D01*
X46032545Y-57270784D01*
X45953942Y-57270428D01*
X45872686Y-57272180D01*
X45791190Y-57275975D01*
X45711867Y-57281747D01*
X45637132Y-57289429D01*
X45605260Y-57293545D01*
X45449567Y-57319041D01*
X45295220Y-57352046D01*
X45143630Y-57392143D01*
X44996211Y-57438917D01*
X44854374Y-57491951D01*
X44719533Y-57550829D01*
X44699061Y-57560591D01*
X44672254Y-57573416D01*
X44648546Y-57584547D01*
X44629471Y-57593282D01*
X44616562Y-57598917D01*
X44611431Y-57600760D01*
X44609190Y-57596127D01*
X44607607Y-57584012D01*
X44607039Y-57567906D01*
X44607039Y-57535052D01*
X44654029Y-57507420D01*
X44683529Y-57490858D01*
X44720256Y-57471468D01*
X44762047Y-57450298D01*
X44806738Y-57428398D01*
X44852167Y-57406819D01*
X44896170Y-57386608D01*
X44936583Y-57368817D01*
X44959825Y-57359078D01*
X45087478Y-57310790D01*
X45218225Y-57268707D01*
X45351156Y-57232911D01*
X45485361Y-57203484D01*
X45619929Y-57180508D01*
X45753951Y-57164065D01*
X45886516Y-57154236D01*
X46016713Y-57151105D01*
X46143634Y-57154753D01*
X46143634Y-57154753D01*
G37*
X46143634Y-57154753D02*
X46266367Y-57165263D01*
X46384002Y-57182715D01*
X46495628Y-57207193D01*
X46532580Y-57217283D01*
X46617317Y-57244022D01*
X46693717Y-57273233D01*
X46763453Y-57305658D01*
X46828201Y-57342037D01*
X46859126Y-57361873D01*
X46926957Y-57412708D01*
X46986132Y-57468650D01*
X47036548Y-57529545D01*
X47078103Y-57595238D01*
X47110694Y-57665574D01*
X47134218Y-57740397D01*
X47145034Y-57794080D01*
X47150859Y-57848880D01*
X47152161Y-57908098D01*
X47149103Y-57968150D01*
X47141849Y-58025455D01*
X47132471Y-58069457D01*
X47105246Y-58153163D01*
X47069068Y-58232163D01*
X47024122Y-58306192D01*
X46970594Y-58374986D01*
X46908668Y-58438281D01*
X46838529Y-58495812D01*
X46829598Y-58502296D01*
X46810679Y-58514914D01*
X46787593Y-58528889D01*
X46762227Y-58543238D01*
X46736471Y-58556977D01*
X46712212Y-58569122D01*
X46691338Y-58578691D01*
X46675739Y-58584698D01*
X46668383Y-58586280D01*
X46665068Y-58585549D01*
X46662677Y-58582415D01*
X46661062Y-58575468D01*
X46660072Y-58563295D01*
X46659560Y-58544485D01*
X46659375Y-58517627D01*
X46659360Y-58500890D01*
X46659641Y-58465154D01*
X46660526Y-58438718D01*
X46662070Y-58420734D01*
X46664332Y-58410358D01*
X46665710Y-58407806D01*
X46672414Y-58401728D01*
X46685379Y-58391532D01*
X46702484Y-58378847D01*
X46714868Y-58370005D01*
X46737042Y-58353241D01*
X46762440Y-58332224D01*
X46787337Y-58310112D01*
X46801612Y-58296524D01*
X46853677Y-58239000D01*
X46897137Y-58178095D01*
X46931849Y-58114498D01*
X46957672Y-58048895D01*
X46974463Y-57981974D01*
X46982080Y-57914424D01*
X46980380Y-57846931D01*
X46969222Y-57780182D01*
X46948464Y-57714867D01*
X46930219Y-57674420D01*
X46902562Y-57625416D01*
X46871207Y-57581463D01*
X46833666Y-57539233D01*
X46815702Y-57521447D01*
X46755897Y-57470880D01*
X46687660Y-57425738D01*
X46611202Y-57386102D01*
X46526728Y-57352049D01*
X46434448Y-57323659D01*
X46334570Y-57301010D01*
X46227300Y-57284180D01*
X46172134Y-57278085D01*
X46106080Y-57273314D01*
X46032545Y-57270784D01*
X45953942Y-57270428D01*
X45872686Y-57272180D01*
X45791190Y-57275975D01*
X45711867Y-57281747D01*
X45637132Y-57289429D01*
X45605260Y-57293545D01*
X45449567Y-57319041D01*
X45295220Y-57352046D01*
X45143630Y-57392143D01*
X44996211Y-57438917D01*
X44854374Y-57491951D01*
X44719533Y-57550829D01*
X44699061Y-57560591D01*
X44672254Y-57573416D01*
X44648546Y-57584547D01*
X44629471Y-57593282D01*
X44616562Y-57598917D01*
X44611431Y-57600760D01*
X44609190Y-57596127D01*
X44607607Y-57584012D01*
X44607039Y-57567906D01*
X44607039Y-57535052D01*
X44654029Y-57507420D01*
X44683529Y-57490858D01*
X44720256Y-57471468D01*
X44762047Y-57450298D01*
X44806738Y-57428398D01*
X44852167Y-57406819D01*
X44896170Y-57386608D01*
X44936583Y-57368817D01*
X44959825Y-57359078D01*
X45087478Y-57310790D01*
X45218225Y-57268707D01*
X45351156Y-57232911D01*
X45485361Y-57203484D01*
X45619929Y-57180508D01*
X45753951Y-57164065D01*
X45886516Y-57154236D01*
X46016713Y-57151105D01*
X46143634Y-57154753D01*
G36*
X44572689Y-57865472D02*
X44611557Y-57868039D01*
X44647002Y-57872279D01*
X44663696Y-57875238D01*
X44696286Y-57882726D01*
X44726625Y-57891269D01*
X44752926Y-57900237D01*
X44773405Y-57909000D01*
X44786275Y-57916926D01*
X44788650Y-57919383D01*
X44792051Y-57929705D01*
X44794179Y-57949703D01*
X44794992Y-57978967D01*
X44795000Y-57982552D01*
X44794818Y-58008812D01*
X44793313Y-58027112D01*
X44789040Y-58038394D01*
X44780556Y-58043596D01*
X44766419Y-58043660D01*
X44745186Y-58039526D01*
X44717937Y-58032771D01*
X44670267Y-58022120D01*
X44625185Y-58014717D01*
X44583728Y-58010552D01*
X44546936Y-58009614D01*
X44515846Y-58011892D01*
X44491496Y-58017376D01*
X44474926Y-58026055D01*
X44467955Y-58035327D01*
X44464822Y-58055884D01*
X44470399Y-58075144D01*
X44477275Y-58084289D01*
X44484893Y-58090240D01*
X44499925Y-58100576D01*
X44521070Y-58114454D01*
X44547030Y-58131034D01*
X44576505Y-58149475D01*
X44605545Y-58167322D01*
X44651533Y-58195790D01*
X44689410Y-58220372D01*
X44720081Y-58241870D01*
X44744449Y-58261081D01*
X44763419Y-58278807D01*
X44777897Y-58295846D01*
X44788785Y-58312998D01*
X44796989Y-58331063D01*
X44799847Y-58339103D01*
X44808360Y-58377438D01*
X44810385Y-58418921D01*
X44806077Y-58460002D01*
X44795585Y-58497131D01*
X44792813Y-58503650D01*
X44771822Y-58537885D01*
X44742451Y-58567547D01*
X44705743Y-58591858D01*
X44662742Y-58610044D01*
X44641859Y-58615963D01*
X44624501Y-58618948D01*
X44600284Y-58621522D01*
X44572507Y-58623499D01*
X44544469Y-58624693D01*
X44519468Y-58624918D01*
X44500803Y-58623988D01*
X44500360Y-58623938D01*
X44456289Y-58617853D01*
X44415069Y-58610153D01*
X44378056Y-58601228D01*
X44346605Y-58591466D01*
X44322071Y-58581256D01*
X44305811Y-58570985D01*
X44302056Y-58567112D01*
X44297402Y-58559708D01*
X44294434Y-58550239D01*
X44292800Y-58536405D01*
X44292147Y-58515908D01*
X44292080Y-58501953D01*
X44292282Y-58476423D01*
X44293869Y-58458801D01*
X44298306Y-58448143D01*
X44307062Y-58443508D01*
X44321603Y-58443952D01*
X44343398Y-58448533D01*
X44366198Y-58454324D01*
X44411181Y-58464469D01*
X44456508Y-58472068D01*
X44499621Y-58476826D01*
X44537956Y-58478447D01*
X44564404Y-58477189D01*
X44584310Y-58474421D01*
X44597732Y-58470360D01*
X44608347Y-58463540D01*
X44615681Y-58456734D01*
X44628932Y-58438103D01*
X44632091Y-58418934D01*
X44625204Y-58399377D01*
X44608315Y-58379583D01*
X44587939Y-58363883D01*
X44574527Y-58355187D01*
X44554282Y-58342415D01*
X44529078Y-58326730D01*
X44500784Y-58309296D01*
X44471275Y-58291279D01*
X44467340Y-58288889D01*
X44420717Y-58259595D01*
X44382669Y-58233168D01*
X44352376Y-58208611D01*
X44329014Y-58184929D01*
X44311762Y-58161126D01*
X44299799Y-58136205D01*
X44292302Y-58109171D01*
X44288450Y-58079028D01*
X44287991Y-58071513D01*
X44289203Y-58023976D01*
X44298130Y-57982963D01*
X44314975Y-57948206D01*
X44339937Y-57919437D01*
X44373216Y-57896387D01*
X44415015Y-57878788D01*
X44436657Y-57872575D01*
X44462383Y-57868131D01*
X44495419Y-57865487D01*
X44533082Y-57864611D01*
X44572689Y-57865472D01*
X44572689Y-57865472D01*
G37*
X44572689Y-57865472D02*
X44611557Y-57868039D01*
X44647002Y-57872279D01*
X44663696Y-57875238D01*
X44696286Y-57882726D01*
X44726625Y-57891269D01*
X44752926Y-57900237D01*
X44773405Y-57909000D01*
X44786275Y-57916926D01*
X44788650Y-57919383D01*
X44792051Y-57929705D01*
X44794179Y-57949703D01*
X44794992Y-57978967D01*
X44795000Y-57982552D01*
X44794818Y-58008812D01*
X44793313Y-58027112D01*
X44789040Y-58038394D01*
X44780556Y-58043596D01*
X44766419Y-58043660D01*
X44745186Y-58039526D01*
X44717937Y-58032771D01*
X44670267Y-58022120D01*
X44625185Y-58014717D01*
X44583728Y-58010552D01*
X44546936Y-58009614D01*
X44515846Y-58011892D01*
X44491496Y-58017376D01*
X44474926Y-58026055D01*
X44467955Y-58035327D01*
X44464822Y-58055884D01*
X44470399Y-58075144D01*
X44477275Y-58084289D01*
X44484893Y-58090240D01*
X44499925Y-58100576D01*
X44521070Y-58114454D01*
X44547030Y-58131034D01*
X44576505Y-58149475D01*
X44605545Y-58167322D01*
X44651533Y-58195790D01*
X44689410Y-58220372D01*
X44720081Y-58241870D01*
X44744449Y-58261081D01*
X44763419Y-58278807D01*
X44777897Y-58295846D01*
X44788785Y-58312998D01*
X44796989Y-58331063D01*
X44799847Y-58339103D01*
X44808360Y-58377438D01*
X44810385Y-58418921D01*
X44806077Y-58460002D01*
X44795585Y-58497131D01*
X44792813Y-58503650D01*
X44771822Y-58537885D01*
X44742451Y-58567547D01*
X44705743Y-58591858D01*
X44662742Y-58610044D01*
X44641859Y-58615963D01*
X44624501Y-58618948D01*
X44600284Y-58621522D01*
X44572507Y-58623499D01*
X44544469Y-58624693D01*
X44519468Y-58624918D01*
X44500803Y-58623988D01*
X44500360Y-58623938D01*
X44456289Y-58617853D01*
X44415069Y-58610153D01*
X44378056Y-58601228D01*
X44346605Y-58591466D01*
X44322071Y-58581256D01*
X44305811Y-58570985D01*
X44302056Y-58567112D01*
X44297402Y-58559708D01*
X44294434Y-58550239D01*
X44292800Y-58536405D01*
X44292147Y-58515908D01*
X44292080Y-58501953D01*
X44292282Y-58476423D01*
X44293869Y-58458801D01*
X44298306Y-58448143D01*
X44307062Y-58443508D01*
X44321603Y-58443952D01*
X44343398Y-58448533D01*
X44366198Y-58454324D01*
X44411181Y-58464469D01*
X44456508Y-58472068D01*
X44499621Y-58476826D01*
X44537956Y-58478447D01*
X44564404Y-58477189D01*
X44584310Y-58474421D01*
X44597732Y-58470360D01*
X44608347Y-58463540D01*
X44615681Y-58456734D01*
X44628932Y-58438103D01*
X44632091Y-58418934D01*
X44625204Y-58399377D01*
X44608315Y-58379583D01*
X44587939Y-58363883D01*
X44574527Y-58355187D01*
X44554282Y-58342415D01*
X44529078Y-58326730D01*
X44500784Y-58309296D01*
X44471275Y-58291279D01*
X44467340Y-58288889D01*
X44420717Y-58259595D01*
X44382669Y-58233168D01*
X44352376Y-58208611D01*
X44329014Y-58184929D01*
X44311762Y-58161126D01*
X44299799Y-58136205D01*
X44292302Y-58109171D01*
X44288450Y-58079028D01*
X44287991Y-58071513D01*
X44289203Y-58023976D01*
X44298130Y-57982963D01*
X44314975Y-57948206D01*
X44339937Y-57919437D01*
X44373216Y-57896387D01*
X44415015Y-57878788D01*
X44436657Y-57872575D01*
X44462383Y-57868131D01*
X44495419Y-57865487D01*
X44533082Y-57864611D01*
X44572689Y-57865472D01*
G36*
X46340529Y-57885792D02*
X46379397Y-57888359D01*
X46414842Y-57892599D01*
X46431536Y-57895558D01*
X46464126Y-57903046D01*
X46494465Y-57911589D01*
X46520766Y-57920557D01*
X46541245Y-57929320D01*
X46554115Y-57937246D01*
X46556490Y-57939703D01*
X46559891Y-57950025D01*
X46562019Y-57970023D01*
X46562832Y-57999287D01*
X46562840Y-58002872D01*
X46562658Y-58029132D01*
X46561153Y-58047432D01*
X46556880Y-58058714D01*
X46548396Y-58063916D01*
X46534259Y-58063980D01*
X46513026Y-58059846D01*
X46485777Y-58053091D01*
X46438107Y-58042440D01*
X46393025Y-58035037D01*
X46351568Y-58030872D01*
X46314776Y-58029934D01*
X46283686Y-58032212D01*
X46259336Y-58037696D01*
X46242766Y-58046375D01*
X46235795Y-58055647D01*
X46232662Y-58076204D01*
X46238239Y-58095464D01*
X46245115Y-58104609D01*
X46252733Y-58110560D01*
X46267765Y-58120896D01*
X46288910Y-58134774D01*
X46314870Y-58151354D01*
X46344345Y-58169795D01*
X46373385Y-58187642D01*
X46419373Y-58216110D01*
X46457250Y-58240692D01*
X46487921Y-58262190D01*
X46512289Y-58281401D01*
X46531259Y-58299127D01*
X46545737Y-58316166D01*
X46556625Y-58333318D01*
X46564829Y-58351383D01*
X46567687Y-58359423D01*
X46576200Y-58397758D01*
X46578225Y-58439241D01*
X46573917Y-58480322D01*
X46563425Y-58517451D01*
X46560653Y-58523970D01*
X46539662Y-58558205D01*
X46510291Y-58587867D01*
X46473583Y-58612178D01*
X46430582Y-58630364D01*
X46409699Y-58636283D01*
X46392341Y-58639268D01*
X46368124Y-58641842D01*
X46340347Y-58643819D01*
X46312309Y-58645013D01*
X46287308Y-58645238D01*
X46268643Y-58644308D01*
X46268200Y-58644258D01*
X46224129Y-58638173D01*
X46182909Y-58630473D01*
X46145896Y-58621548D01*
X46114445Y-58611786D01*
X46089911Y-58601576D01*
X46073651Y-58591305D01*
X46069896Y-58587432D01*
X46065242Y-58580028D01*
X46062274Y-58570559D01*
X46060640Y-58556725D01*
X46059987Y-58536228D01*
X46059920Y-58522273D01*
X46060122Y-58496743D01*
X46061709Y-58479121D01*
X46066146Y-58468463D01*
X46074902Y-58463828D01*
X46089443Y-58464272D01*
X46111238Y-58468853D01*
X46134038Y-58474644D01*
X46179021Y-58484789D01*
X46224348Y-58492388D01*
X46267461Y-58497146D01*
X46305796Y-58498767D01*
X46332244Y-58497509D01*
X46352150Y-58494741D01*
X46365572Y-58490680D01*
X46376187Y-58483860D01*
X46383521Y-58477054D01*
X46396772Y-58458423D01*
X46399931Y-58439254D01*
X46393044Y-58419697D01*
X46376155Y-58399903D01*
X46355779Y-58384203D01*
X46342367Y-58375507D01*
X46322122Y-58362735D01*
X46296918Y-58347050D01*
X46268624Y-58329616D01*
X46239115Y-58311599D01*
X46235180Y-58309209D01*
X46188557Y-58279915D01*
X46150509Y-58253488D01*
X46120216Y-58228931D01*
X46096854Y-58205249D01*
X46079602Y-58181446D01*
X46067639Y-58156525D01*
X46060142Y-58129491D01*
X46056290Y-58099348D01*
X46055831Y-58091833D01*
X46057043Y-58044296D01*
X46065970Y-58003283D01*
X46082815Y-57968526D01*
X46107777Y-57939757D01*
X46141056Y-57916707D01*
X46182855Y-57899108D01*
X46204497Y-57892895D01*
X46230223Y-57888451D01*
X46263259Y-57885807D01*
X46300922Y-57884931D01*
X46340529Y-57885792D01*
X46340529Y-57885792D01*
G37*
X46340529Y-57885792D02*
X46379397Y-57888359D01*
X46414842Y-57892599D01*
X46431536Y-57895558D01*
X46464126Y-57903046D01*
X46494465Y-57911589D01*
X46520766Y-57920557D01*
X46541245Y-57929320D01*
X46554115Y-57937246D01*
X46556490Y-57939703D01*
X46559891Y-57950025D01*
X46562019Y-57970023D01*
X46562832Y-57999287D01*
X46562840Y-58002872D01*
X46562658Y-58029132D01*
X46561153Y-58047432D01*
X46556880Y-58058714D01*
X46548396Y-58063916D01*
X46534259Y-58063980D01*
X46513026Y-58059846D01*
X46485777Y-58053091D01*
X46438107Y-58042440D01*
X46393025Y-58035037D01*
X46351568Y-58030872D01*
X46314776Y-58029934D01*
X46283686Y-58032212D01*
X46259336Y-58037696D01*
X46242766Y-58046375D01*
X46235795Y-58055647D01*
X46232662Y-58076204D01*
X46238239Y-58095464D01*
X46245115Y-58104609D01*
X46252733Y-58110560D01*
X46267765Y-58120896D01*
X46288910Y-58134774D01*
X46314870Y-58151354D01*
X46344345Y-58169795D01*
X46373385Y-58187642D01*
X46419373Y-58216110D01*
X46457250Y-58240692D01*
X46487921Y-58262190D01*
X46512289Y-58281401D01*
X46531259Y-58299127D01*
X46545737Y-58316166D01*
X46556625Y-58333318D01*
X46564829Y-58351383D01*
X46567687Y-58359423D01*
X46576200Y-58397758D01*
X46578225Y-58439241D01*
X46573917Y-58480322D01*
X46563425Y-58517451D01*
X46560653Y-58523970D01*
X46539662Y-58558205D01*
X46510291Y-58587867D01*
X46473583Y-58612178D01*
X46430582Y-58630364D01*
X46409699Y-58636283D01*
X46392341Y-58639268D01*
X46368124Y-58641842D01*
X46340347Y-58643819D01*
X46312309Y-58645013D01*
X46287308Y-58645238D01*
X46268643Y-58644308D01*
X46268200Y-58644258D01*
X46224129Y-58638173D01*
X46182909Y-58630473D01*
X46145896Y-58621548D01*
X46114445Y-58611786D01*
X46089911Y-58601576D01*
X46073651Y-58591305D01*
X46069896Y-58587432D01*
X46065242Y-58580028D01*
X46062274Y-58570559D01*
X46060640Y-58556725D01*
X46059987Y-58536228D01*
X46059920Y-58522273D01*
X46060122Y-58496743D01*
X46061709Y-58479121D01*
X46066146Y-58468463D01*
X46074902Y-58463828D01*
X46089443Y-58464272D01*
X46111238Y-58468853D01*
X46134038Y-58474644D01*
X46179021Y-58484789D01*
X46224348Y-58492388D01*
X46267461Y-58497146D01*
X46305796Y-58498767D01*
X46332244Y-58497509D01*
X46352150Y-58494741D01*
X46365572Y-58490680D01*
X46376187Y-58483860D01*
X46383521Y-58477054D01*
X46396772Y-58458423D01*
X46399931Y-58439254D01*
X46393044Y-58419697D01*
X46376155Y-58399903D01*
X46355779Y-58384203D01*
X46342367Y-58375507D01*
X46322122Y-58362735D01*
X46296918Y-58347050D01*
X46268624Y-58329616D01*
X46239115Y-58311599D01*
X46235180Y-58309209D01*
X46188557Y-58279915D01*
X46150509Y-58253488D01*
X46120216Y-58228931D01*
X46096854Y-58205249D01*
X46079602Y-58181446D01*
X46067639Y-58156525D01*
X46060142Y-58129491D01*
X46056290Y-58099348D01*
X46055831Y-58091833D01*
X46057043Y-58044296D01*
X46065970Y-58003283D01*
X46082815Y-57968526D01*
X46107777Y-57939757D01*
X46141056Y-57916707D01*
X46182855Y-57899108D01*
X46204497Y-57892895D01*
X46230223Y-57888451D01*
X46263259Y-57885807D01*
X46300922Y-57884931D01*
X46340529Y-57885792D01*
G36*
X45784697Y-57749504D02*
X45791230Y-57752444D01*
X45795322Y-57757432D01*
X45795581Y-57757906D01*
X45797563Y-57766531D01*
X45799203Y-57783045D01*
X45800345Y-57805175D01*
X45800832Y-57830652D01*
X45800840Y-57834106D01*
X45800840Y-57900480D01*
X45869420Y-57900480D01*
X45901381Y-57900657D01*
X45924585Y-57901933D01*
X45940434Y-57905426D01*
X45950329Y-57912253D01*
X45955673Y-57923530D01*
X45957868Y-57940376D01*
X45958316Y-57963907D01*
X45958320Y-57971311D01*
X45958121Y-57995030D01*
X45956597Y-58012290D01*
X45952353Y-58024117D01*
X45943998Y-58031539D01*
X45930136Y-58035582D01*
X45909376Y-58037272D01*
X45880324Y-58037636D01*
X45868289Y-58037640D01*
X45800840Y-58037640D01*
X45800840Y-58261493D01*
X45800877Y-58317075D01*
X45801032Y-58363391D01*
X45801367Y-58401340D01*
X45801942Y-58431815D01*
X45802820Y-58455714D01*
X45804062Y-58473931D01*
X45805732Y-58487362D01*
X45807890Y-58496903D01*
X45810599Y-58503450D01*
X45813921Y-58507897D01*
X45817917Y-58511142D01*
X45818110Y-58511272D01*
X45825151Y-58512743D01*
X45840120Y-58513955D01*
X45860785Y-58514778D01*
X45883723Y-58515082D01*
X45908269Y-58515544D01*
X45929763Y-58516740D01*
X45945775Y-58518486D01*
X45953573Y-58520418D01*
X45958148Y-58523957D01*
X45961049Y-58530019D01*
X45962643Y-58540664D01*
X45963300Y-58557950D01*
X45963400Y-58575327D01*
X45962858Y-58602538D01*
X45960641Y-58621406D01*
X45955858Y-58633719D01*
X45947622Y-58641265D01*
X45935044Y-58645831D01*
X45927538Y-58647425D01*
X45903873Y-58650673D01*
X45873986Y-58653028D01*
X45841323Y-58654387D01*
X45809331Y-58654648D01*
X45781454Y-58653709D01*
X45765741Y-58652216D01*
X45725799Y-58644357D01*
X45694243Y-58632625D01*
X45669749Y-58616146D01*
X45650997Y-58594048D01*
X45637491Y-58567542D01*
X45634765Y-58560616D01*
X45632483Y-58553907D01*
X45630602Y-58546469D01*
X45629074Y-58537358D01*
X45627854Y-58525629D01*
X45626896Y-58510337D01*
X45626154Y-58490539D01*
X45625582Y-58465288D01*
X45625133Y-58433641D01*
X45624763Y-58394652D01*
X45624425Y-58347378D01*
X45624079Y-58291882D01*
X45623636Y-58235573D01*
X45623037Y-58185021D01*
X45622301Y-58140897D01*
X45621443Y-58103874D01*
X45620481Y-58074624D01*
X45619432Y-58053820D01*
X45618313Y-58042133D01*
X45617673Y-58039835D01*
X45610012Y-58035672D01*
X45596237Y-58031909D01*
X45588694Y-58030628D01*
X45550510Y-58024871D01*
X45522134Y-58019383D01*
X45503221Y-58014084D01*
X45493424Y-58008896D01*
X45493307Y-58008782D01*
X45488936Y-57999164D01*
X45486281Y-57982851D01*
X45485311Y-57962940D01*
X45485997Y-57942527D01*
X45488310Y-57924708D01*
X45492220Y-57912579D01*
X45494252Y-57909992D01*
X45504583Y-57906034D01*
X45524998Y-57902956D01*
X45555456Y-57900761D01*
X45561562Y-57900480D01*
X45620500Y-57897940D01*
X45621932Y-57838066D01*
X45622407Y-57813784D01*
X45623438Y-57796253D01*
X45626455Y-57784087D01*
X45632887Y-57775902D01*
X45644162Y-57770312D01*
X45661711Y-57765933D01*
X45686960Y-57761379D01*
X45704139Y-57758388D01*
X45735443Y-57753054D01*
X45758304Y-57749801D01*
X45774222Y-57748620D01*
X45784697Y-57749504D01*
X45784697Y-57749504D01*
G37*
X45784697Y-57749504D02*
X45791230Y-57752444D01*
X45795322Y-57757432D01*
X45795581Y-57757906D01*
X45797563Y-57766531D01*
X45799203Y-57783045D01*
X45800345Y-57805175D01*
X45800832Y-57830652D01*
X45800840Y-57834106D01*
X45800840Y-57900480D01*
X45869420Y-57900480D01*
X45901381Y-57900657D01*
X45924585Y-57901933D01*
X45940434Y-57905426D01*
X45950329Y-57912253D01*
X45955673Y-57923530D01*
X45957868Y-57940376D01*
X45958316Y-57963907D01*
X45958320Y-57971311D01*
X45958121Y-57995030D01*
X45956597Y-58012290D01*
X45952353Y-58024117D01*
X45943998Y-58031539D01*
X45930136Y-58035582D01*
X45909376Y-58037272D01*
X45880324Y-58037636D01*
X45868289Y-58037640D01*
X45800840Y-58037640D01*
X45800840Y-58261493D01*
X45800877Y-58317075D01*
X45801032Y-58363391D01*
X45801367Y-58401340D01*
X45801942Y-58431815D01*
X45802820Y-58455714D01*
X45804062Y-58473931D01*
X45805732Y-58487362D01*
X45807890Y-58496903D01*
X45810599Y-58503450D01*
X45813921Y-58507897D01*
X45817917Y-58511142D01*
X45818110Y-58511272D01*
X45825151Y-58512743D01*
X45840120Y-58513955D01*
X45860785Y-58514778D01*
X45883723Y-58515082D01*
X45908269Y-58515544D01*
X45929763Y-58516740D01*
X45945775Y-58518486D01*
X45953573Y-58520418D01*
X45958148Y-58523957D01*
X45961049Y-58530019D01*
X45962643Y-58540664D01*
X45963300Y-58557950D01*
X45963400Y-58575327D01*
X45962858Y-58602538D01*
X45960641Y-58621406D01*
X45955858Y-58633719D01*
X45947622Y-58641265D01*
X45935044Y-58645831D01*
X45927538Y-58647425D01*
X45903873Y-58650673D01*
X45873986Y-58653028D01*
X45841323Y-58654387D01*
X45809331Y-58654648D01*
X45781454Y-58653709D01*
X45765741Y-58652216D01*
X45725799Y-58644357D01*
X45694243Y-58632625D01*
X45669749Y-58616146D01*
X45650997Y-58594048D01*
X45637491Y-58567542D01*
X45634765Y-58560616D01*
X45632483Y-58553907D01*
X45630602Y-58546469D01*
X45629074Y-58537358D01*
X45627854Y-58525629D01*
X45626896Y-58510337D01*
X45626154Y-58490539D01*
X45625582Y-58465288D01*
X45625133Y-58433641D01*
X45624763Y-58394652D01*
X45624425Y-58347378D01*
X45624079Y-58291882D01*
X45623636Y-58235573D01*
X45623037Y-58185021D01*
X45622301Y-58140897D01*
X45621443Y-58103874D01*
X45620481Y-58074624D01*
X45619432Y-58053820D01*
X45618313Y-58042133D01*
X45617673Y-58039835D01*
X45610012Y-58035672D01*
X45596237Y-58031909D01*
X45588694Y-58030628D01*
X45550510Y-58024871D01*
X45522134Y-58019383D01*
X45503221Y-58014084D01*
X45493424Y-58008896D01*
X45493307Y-58008782D01*
X45488936Y-57999164D01*
X45486281Y-57982851D01*
X45485311Y-57962940D01*
X45485997Y-57942527D01*
X45488310Y-57924708D01*
X45492220Y-57912579D01*
X45494252Y-57909992D01*
X45504583Y-57906034D01*
X45524998Y-57902956D01*
X45555456Y-57900761D01*
X45561562Y-57900480D01*
X45620500Y-57897940D01*
X45621932Y-57838066D01*
X45622407Y-57813784D01*
X45623438Y-57796253D01*
X45626455Y-57784087D01*
X45632887Y-57775902D01*
X45644162Y-57770312D01*
X45661711Y-57765933D01*
X45686960Y-57761379D01*
X45704139Y-57758388D01*
X45735443Y-57753054D01*
X45758304Y-57749801D01*
X45774222Y-57748620D01*
X45784697Y-57749504D01*
G36*
X44980099Y-57664370D02*
X45000605Y-57664840D01*
X45014341Y-57665877D01*
X45023002Y-57667689D01*
X45028283Y-57670483D01*
X45031629Y-57674120D01*
X45033881Y-57679038D01*
X45035635Y-57687634D01*
X45036946Y-57701003D01*
X45037867Y-57720243D01*
X45038454Y-57746450D01*
X45038759Y-57780722D01*
X45038840Y-57819815D01*
X45038840Y-57955648D01*
X45070494Y-57942786D01*
X45115844Y-57927807D01*
X45164404Y-57918823D01*
X45218735Y-57915393D01*
X45230237Y-57915334D01*
X45277430Y-57917843D01*
X45317295Y-57925309D01*
X45351582Y-57938135D01*
X45367548Y-57946909D01*
X45390058Y-57964809D01*
X45412075Y-57989467D01*
X45431054Y-58017689D01*
X45442404Y-58040843D01*
X45455962Y-58074712D01*
X45455554Y-58367104D01*
X45455415Y-58432318D01*
X45455182Y-58487986D01*
X45454842Y-58534725D01*
X45454383Y-58573148D01*
X45453788Y-58603872D01*
X45453046Y-58627509D01*
X45452143Y-58644676D01*
X45451063Y-58655988D01*
X45449795Y-58662058D01*
X45448923Y-58663450D01*
X45441692Y-58664961D01*
X45426469Y-58666219D01*
X45405423Y-58667099D01*
X45380721Y-58667477D01*
X45378492Y-58667482D01*
X45350730Y-58667302D01*
X45331234Y-58666536D01*
X45318117Y-58664962D01*
X45309493Y-58662356D01*
X45303677Y-58658670D01*
X45301305Y-58656476D01*
X45299310Y-58653644D01*
X45297655Y-58649323D01*
X45296301Y-58642663D01*
X45295210Y-58632814D01*
X45294344Y-58618926D01*
X45293666Y-58600150D01*
X45293137Y-58575634D01*
X45292719Y-58544531D01*
X45292374Y-58505989D01*
X45292064Y-58459158D01*
X45291751Y-58403189D01*
X45291685Y-58390700D01*
X45291338Y-58331755D01*
X45290961Y-58282112D01*
X45290524Y-58240913D01*
X45289996Y-58207298D01*
X45289349Y-58180410D01*
X45288553Y-58159389D01*
X45287577Y-58143378D01*
X45286391Y-58131519D01*
X45284967Y-58122952D01*
X45283273Y-58116819D01*
X45282064Y-58113840D01*
X45268888Y-58092515D01*
X45251381Y-58078268D01*
X45227267Y-58069461D01*
X45217685Y-58067507D01*
X45185517Y-58065592D01*
X45148428Y-58069625D01*
X45109337Y-58079089D01*
X45071171Y-58093463D01*
X45039099Y-58108005D01*
X45037699Y-58379911D01*
X45037331Y-58442051D01*
X45036906Y-58494726D01*
X45036402Y-58538631D01*
X45035801Y-58574462D01*
X45035083Y-58602913D01*
X45034226Y-58624679D01*
X45033212Y-58640456D01*
X45032021Y-58650938D01*
X45030632Y-58656822D01*
X45029710Y-58658418D01*
X45021606Y-58661531D01*
X45005716Y-58663974D01*
X44984396Y-58665705D01*
X44960001Y-58666682D01*
X44934887Y-58666862D01*
X44911409Y-58666202D01*
X44891923Y-58664660D01*
X44878783Y-58662194D01*
X44876280Y-58661190D01*
X44863580Y-58654560D01*
X44862284Y-58166403D01*
X44862078Y-58084750D01*
X44861923Y-58012657D01*
X44861829Y-57949522D01*
X44861805Y-57894746D01*
X44861859Y-57847727D01*
X44862000Y-57807866D01*
X44862236Y-57774561D01*
X44862577Y-57747213D01*
X44863030Y-57725220D01*
X44863604Y-57707982D01*
X44864309Y-57694899D01*
X44865152Y-57685369D01*
X44866143Y-57678793D01*
X44867289Y-57674570D01*
X44868600Y-57672099D01*
X44869415Y-57671253D01*
X44875977Y-57668257D01*
X44888121Y-57666179D01*
X44907155Y-57664906D01*
X44934387Y-57664325D01*
X44951130Y-57664260D01*
X44980099Y-57664370D01*
X44980099Y-57664370D01*
G37*
X44980099Y-57664370D02*
X45000605Y-57664840D01*
X45014341Y-57665877D01*
X45023002Y-57667689D01*
X45028283Y-57670483D01*
X45031629Y-57674120D01*
X45033881Y-57679038D01*
X45035635Y-57687634D01*
X45036946Y-57701003D01*
X45037867Y-57720243D01*
X45038454Y-57746450D01*
X45038759Y-57780722D01*
X45038840Y-57819815D01*
X45038840Y-57955648D01*
X45070494Y-57942786D01*
X45115844Y-57927807D01*
X45164404Y-57918823D01*
X45218735Y-57915393D01*
X45230237Y-57915334D01*
X45277430Y-57917843D01*
X45317295Y-57925309D01*
X45351582Y-57938135D01*
X45367548Y-57946909D01*
X45390058Y-57964809D01*
X45412075Y-57989467D01*
X45431054Y-58017689D01*
X45442404Y-58040843D01*
X45455962Y-58074712D01*
X45455554Y-58367104D01*
X45455415Y-58432318D01*
X45455182Y-58487986D01*
X45454842Y-58534725D01*
X45454383Y-58573148D01*
X45453788Y-58603872D01*
X45453046Y-58627509D01*
X45452143Y-58644676D01*
X45451063Y-58655988D01*
X45449795Y-58662058D01*
X45448923Y-58663450D01*
X45441692Y-58664961D01*
X45426469Y-58666219D01*
X45405423Y-58667099D01*
X45380721Y-58667477D01*
X45378492Y-58667482D01*
X45350730Y-58667302D01*
X45331234Y-58666536D01*
X45318117Y-58664962D01*
X45309493Y-58662356D01*
X45303677Y-58658670D01*
X45301305Y-58656476D01*
X45299310Y-58653644D01*
X45297655Y-58649323D01*
X45296301Y-58642663D01*
X45295210Y-58632814D01*
X45294344Y-58618926D01*
X45293666Y-58600150D01*
X45293137Y-58575634D01*
X45292719Y-58544531D01*
X45292374Y-58505989D01*
X45292064Y-58459158D01*
X45291751Y-58403189D01*
X45291685Y-58390700D01*
X45291338Y-58331755D01*
X45290961Y-58282112D01*
X45290524Y-58240913D01*
X45289996Y-58207298D01*
X45289349Y-58180410D01*
X45288553Y-58159389D01*
X45287577Y-58143378D01*
X45286391Y-58131519D01*
X45284967Y-58122952D01*
X45283273Y-58116819D01*
X45282064Y-58113840D01*
X45268888Y-58092515D01*
X45251381Y-58078268D01*
X45227267Y-58069461D01*
X45217685Y-58067507D01*
X45185517Y-58065592D01*
X45148428Y-58069625D01*
X45109337Y-58079089D01*
X45071171Y-58093463D01*
X45039099Y-58108005D01*
X45037699Y-58379911D01*
X45037331Y-58442051D01*
X45036906Y-58494726D01*
X45036402Y-58538631D01*
X45035801Y-58574462D01*
X45035083Y-58602913D01*
X45034226Y-58624679D01*
X45033212Y-58640456D01*
X45032021Y-58650938D01*
X45030632Y-58656822D01*
X45029710Y-58658418D01*
X45021606Y-58661531D01*
X45005716Y-58663974D01*
X44984396Y-58665705D01*
X44960001Y-58666682D01*
X44934887Y-58666862D01*
X44911409Y-58666202D01*
X44891923Y-58664660D01*
X44878783Y-58662194D01*
X44876280Y-58661190D01*
X44863580Y-58654560D01*
X44862284Y-58166403D01*
X44862078Y-58084750D01*
X44861923Y-58012657D01*
X44861829Y-57949522D01*
X44861805Y-57894746D01*
X44861859Y-57847727D01*
X44862000Y-57807866D01*
X44862236Y-57774561D01*
X44862577Y-57747213D01*
X44863030Y-57725220D01*
X44863604Y-57707982D01*
X44864309Y-57694899D01*
X44865152Y-57685369D01*
X44866143Y-57678793D01*
X44867289Y-57674570D01*
X44868600Y-57672099D01*
X44869415Y-57671253D01*
X44875977Y-57668257D01*
X44888121Y-57666179D01*
X44907155Y-57664906D01*
X44934387Y-57664325D01*
X44951130Y-57664260D01*
X44980099Y-57664370D01*
G36*
X44249009Y-57781789D02*
X44249275Y-57782134D01*
X44253914Y-57794291D01*
X44255930Y-57812494D01*
X44255413Y-57832996D01*
X44252454Y-57852052D01*
X44247258Y-57865736D01*
X44240335Y-57875861D01*
X44229165Y-57891287D01*
X44215735Y-57909292D01*
X44210228Y-57916536D01*
X44157266Y-57993723D01*
X44112926Y-58075225D01*
X44077608Y-58160113D01*
X44051712Y-58247459D01*
X44038494Y-58315473D01*
X44035126Y-58347824D01*
X44033444Y-58386351D01*
X44033411Y-58427496D01*
X44034991Y-58467700D01*
X44038147Y-58503407D01*
X44040587Y-58520096D01*
X44058237Y-58592673D01*
X44084714Y-58660382D01*
X44119899Y-58723173D01*
X44163677Y-58781000D01*
X44215931Y-58833815D01*
X44276544Y-58881571D01*
X44345399Y-58924220D01*
X44422379Y-58961714D01*
X44507368Y-58994006D01*
X44600248Y-59021048D01*
X44700904Y-59042793D01*
X44809217Y-59059194D01*
X44925072Y-59070202D01*
X45048351Y-59075770D01*
X45178939Y-59075851D01*
X45316717Y-59070398D01*
X45382033Y-59066051D01*
X45509001Y-59053647D01*
X45637847Y-59035440D01*
X45767232Y-59011803D01*
X45895816Y-58983110D01*
X46022259Y-58949737D01*
X46145222Y-58912057D01*
X46263365Y-58870446D01*
X46375347Y-58825277D01*
X46479830Y-58776926D01*
X46552184Y-58738954D01*
X46571550Y-58728328D01*
X46587443Y-58719845D01*
X46597892Y-58714544D01*
X46600952Y-58713280D01*
X46601645Y-58718132D01*
X46602265Y-58731780D01*
X46602786Y-58752858D01*
X46603179Y-58780002D01*
X46603418Y-58811847D01*
X46603480Y-58839444D01*
X46603480Y-58965609D01*
X46546330Y-58993962D01*
X46432762Y-59046195D01*
X46310971Y-59094490D01*
X46182229Y-59138523D01*
X46047810Y-59177971D01*
X45908986Y-59212506D01*
X45767030Y-59241807D01*
X45623215Y-59265546D01*
X45478813Y-59283401D01*
X45376660Y-59292325D01*
X45355877Y-59293423D01*
X45327214Y-59294370D01*
X45292336Y-59295159D01*
X45252906Y-59295782D01*
X45210591Y-59296232D01*
X45167054Y-59296502D01*
X45123960Y-59296584D01*
X45082973Y-59296472D01*
X45045759Y-59296156D01*
X45013982Y-59295632D01*
X44989306Y-59294890D01*
X44975340Y-59294098D01*
X44844916Y-59280304D01*
X44723026Y-59261097D01*
X44609583Y-59236445D01*
X44504502Y-59206316D01*
X44407698Y-59170678D01*
X44319086Y-59129500D01*
X44238580Y-59082749D01*
X44166096Y-59030393D01*
X44101548Y-58972401D01*
X44093472Y-58964175D01*
X44041974Y-58905784D01*
X43999503Y-58845942D01*
X43965245Y-58783050D01*
X43938388Y-58715507D01*
X43918119Y-58641713D01*
X43910552Y-58603933D01*
X43904376Y-58559311D01*
X43900587Y-58509643D01*
X43899216Y-58458086D01*
X43900293Y-58407797D01*
X43903848Y-58361935D01*
X43907925Y-58333622D01*
X43929291Y-58243282D01*
X43960035Y-58156142D01*
X44000262Y-58072017D01*
X44050073Y-57990720D01*
X44109573Y-57912065D01*
X44178864Y-57835863D01*
X44189420Y-57825314D01*
X44210081Y-57805054D01*
X44224833Y-57791164D01*
X44234888Y-57782768D01*
X44241460Y-57778990D01*
X44245763Y-57778956D01*
X44249009Y-57781789D01*
X44249009Y-57781789D01*
G37*
X44249009Y-57781789D02*
X44249275Y-57782134D01*
X44253914Y-57794291D01*
X44255930Y-57812494D01*
X44255413Y-57832996D01*
X44252454Y-57852052D01*
X44247258Y-57865736D01*
X44240335Y-57875861D01*
X44229165Y-57891287D01*
X44215735Y-57909292D01*
X44210228Y-57916536D01*
X44157266Y-57993723D01*
X44112926Y-58075225D01*
X44077608Y-58160113D01*
X44051712Y-58247459D01*
X44038494Y-58315473D01*
X44035126Y-58347824D01*
X44033444Y-58386351D01*
X44033411Y-58427496D01*
X44034991Y-58467700D01*
X44038147Y-58503407D01*
X44040587Y-58520096D01*
X44058237Y-58592673D01*
X44084714Y-58660382D01*
X44119899Y-58723173D01*
X44163677Y-58781000D01*
X44215931Y-58833815D01*
X44276544Y-58881571D01*
X44345399Y-58924220D01*
X44422379Y-58961714D01*
X44507368Y-58994006D01*
X44600248Y-59021048D01*
X44700904Y-59042793D01*
X44809217Y-59059194D01*
X44925072Y-59070202D01*
X45048351Y-59075770D01*
X45178939Y-59075851D01*
X45316717Y-59070398D01*
X45382033Y-59066051D01*
X45509001Y-59053647D01*
X45637847Y-59035440D01*
X45767232Y-59011803D01*
X45895816Y-58983110D01*
X46022259Y-58949737D01*
X46145222Y-58912057D01*
X46263365Y-58870446D01*
X46375347Y-58825277D01*
X46479830Y-58776926D01*
X46552184Y-58738954D01*
X46571550Y-58728328D01*
X46587443Y-58719845D01*
X46597892Y-58714544D01*
X46600952Y-58713280D01*
X46601645Y-58718132D01*
X46602265Y-58731780D01*
X46602786Y-58752858D01*
X46603179Y-58780002D01*
X46603418Y-58811847D01*
X46603480Y-58839444D01*
X46603480Y-58965609D01*
X46546330Y-58993962D01*
X46432762Y-59046195D01*
X46310971Y-59094490D01*
X46182229Y-59138523D01*
X46047810Y-59177971D01*
X45908986Y-59212506D01*
X45767030Y-59241807D01*
X45623215Y-59265546D01*
X45478813Y-59283401D01*
X45376660Y-59292325D01*
X45355877Y-59293423D01*
X45327214Y-59294370D01*
X45292336Y-59295159D01*
X45252906Y-59295782D01*
X45210591Y-59296232D01*
X45167054Y-59296502D01*
X45123960Y-59296584D01*
X45082973Y-59296472D01*
X45045759Y-59296156D01*
X45013982Y-59295632D01*
X44989306Y-59294890D01*
X44975340Y-59294098D01*
X44844916Y-59280304D01*
X44723026Y-59261097D01*
X44609583Y-59236445D01*
X44504502Y-59206316D01*
X44407698Y-59170678D01*
X44319086Y-59129500D01*
X44238580Y-59082749D01*
X44166096Y-59030393D01*
X44101548Y-58972401D01*
X44093472Y-58964175D01*
X44041974Y-58905784D01*
X43999503Y-58845942D01*
X43965245Y-58783050D01*
X43938388Y-58715507D01*
X43918119Y-58641713D01*
X43910552Y-58603933D01*
X43904376Y-58559311D01*
X43900587Y-58509643D01*
X43899216Y-58458086D01*
X43900293Y-58407797D01*
X43903848Y-58361935D01*
X43907925Y-58333622D01*
X43929291Y-58243282D01*
X43960035Y-58156142D01*
X44000262Y-58072017D01*
X44050073Y-57990720D01*
X44109573Y-57912065D01*
X44178864Y-57835863D01*
X44189420Y-57825314D01*
X44210081Y-57805054D01*
X44224833Y-57791164D01*
X44234888Y-57782768D01*
X44241460Y-57778990D01*
X44245763Y-57778956D01*
X44249009Y-57781789D01*
G36*
X47527503Y-59531160D02*
X47554664Y-59531519D01*
X47578557Y-59532509D01*
X47597086Y-59533995D01*
X47608154Y-59535842D01*
X47609653Y-59536418D01*
X47613460Y-59539194D01*
X47616137Y-59543850D01*
X47617881Y-59552007D01*
X47618889Y-59565283D01*
X47619356Y-59585295D01*
X47619479Y-59613663D01*
X47619480Y-59617520D01*
X47619384Y-59646948D01*
X47618966Y-59667835D01*
X47618030Y-59681801D01*
X47616380Y-59690462D01*
X47613820Y-59695438D01*
X47610153Y-59698347D01*
X47609653Y-59698621D01*
X47601112Y-59700554D01*
X47584585Y-59702166D01*
X47562245Y-59703314D01*
X47536266Y-59703856D01*
X47529504Y-59703880D01*
X47499280Y-59703630D01*
X47477540Y-59702772D01*
X47462614Y-59701146D01*
X47452837Y-59698589D01*
X47447890Y-59695971D01*
X47443382Y-59692273D01*
X47440265Y-59687408D01*
X47438285Y-59679610D01*
X47437184Y-59667113D01*
X47436708Y-59648151D01*
X47436600Y-59620956D01*
X47436600Y-59618019D01*
X47436596Y-59587060D01*
X47437507Y-59564480D01*
X47440711Y-59548962D01*
X47447589Y-59539186D01*
X47459521Y-59533834D01*
X47477887Y-59531587D01*
X47504068Y-59531126D01*
X47527503Y-59531160D01*
X47527503Y-59531160D01*
G37*
X47527503Y-59531160D02*
X47554664Y-59531519D01*
X47578557Y-59532509D01*
X47597086Y-59533995D01*
X47608154Y-59535842D01*
X47609653Y-59536418D01*
X47613460Y-59539194D01*
X47616137Y-59543850D01*
X47617881Y-59552007D01*
X47618889Y-59565283D01*
X47619356Y-59585295D01*
X47619479Y-59613663D01*
X47619480Y-59617520D01*
X47619384Y-59646948D01*
X47618966Y-59667835D01*
X47618030Y-59681801D01*
X47616380Y-59690462D01*
X47613820Y-59695438D01*
X47610153Y-59698347D01*
X47609653Y-59698621D01*
X47601112Y-59700554D01*
X47584585Y-59702166D01*
X47562245Y-59703314D01*
X47536266Y-59703856D01*
X47529504Y-59703880D01*
X47499280Y-59703630D01*
X47477540Y-59702772D01*
X47462614Y-59701146D01*
X47452837Y-59698589D01*
X47447890Y-59695971D01*
X47443382Y-59692273D01*
X47440265Y-59687408D01*
X47438285Y-59679610D01*
X47437184Y-59667113D01*
X47436708Y-59648151D01*
X47436600Y-59620956D01*
X47436600Y-59618019D01*
X47436596Y-59587060D01*
X47437507Y-59564480D01*
X47440711Y-59548962D01*
X47447589Y-59539186D01*
X47459521Y-59533834D01*
X47477887Y-59531587D01*
X47504068Y-59531126D01*
X47527503Y-59531160D01*
G36*
X44925979Y-59740890D02*
X44957530Y-59743772D01*
X44977431Y-59747267D01*
X45028780Y-59764102D01*
X45073864Y-59788927D01*
X45112695Y-59821752D01*
X45145282Y-59862586D01*
X45171636Y-59911441D01*
X45186330Y-59950260D01*
X45190780Y-59965525D01*
X45194086Y-59981170D01*
X45196480Y-59999298D01*
X45198195Y-60022012D01*
X45199465Y-60051417D01*
X45200160Y-60075079D01*
X45200914Y-60107729D01*
X45201151Y-60131742D01*
X45200776Y-60148634D01*
X45199693Y-60159920D01*
X45197804Y-60167115D01*
X45195016Y-60171734D01*
X45193964Y-60172869D01*
X45191146Y-60174945D01*
X45186616Y-60176657D01*
X45179459Y-60178040D01*
X45168756Y-60179129D01*
X45153591Y-60179957D01*
X45133046Y-60180559D01*
X45106204Y-60180970D01*
X45072148Y-60181224D01*
X45029960Y-60181355D01*
X44978723Y-60181398D01*
X44966657Y-60181400D01*
X44747881Y-60181400D01*
X44751234Y-60209933D01*
X44760038Y-60248930D01*
X44776321Y-60282606D01*
X44797272Y-60307611D01*
X44811463Y-60319615D01*
X44825467Y-60328438D01*
X44841181Y-60334543D01*
X44860503Y-60338396D01*
X44885329Y-60340460D01*
X44917556Y-60341198D01*
X44934700Y-60341223D01*
X44965018Y-60340936D01*
X44990189Y-60340018D01*
X45012857Y-60338121D01*
X45035668Y-60334897D01*
X45061270Y-60329998D01*
X45092308Y-60323077D01*
X45116947Y-60317257D01*
X45138269Y-60312272D01*
X45151909Y-60309653D01*
X45160056Y-60309351D01*
X45164896Y-60311313D01*
X45168617Y-60315488D01*
X45169017Y-60316033D01*
X45172128Y-60325375D01*
X45174425Y-60341915D01*
X45175805Y-60362717D01*
X45176166Y-60384844D01*
X45175404Y-60405359D01*
X45173418Y-60421325D01*
X45172791Y-60423996D01*
X45165715Y-60433445D01*
X45150163Y-60444018D01*
X45127669Y-60455099D01*
X45099767Y-60466074D01*
X45067990Y-60476325D01*
X45033873Y-60485238D01*
X45005858Y-60491003D01*
X44976282Y-60495076D01*
X44942497Y-60497769D01*
X44907971Y-60498967D01*
X44876169Y-60498559D01*
X44850557Y-60496431D01*
X44848537Y-60496130D01*
X44787958Y-60482583D01*
X44734788Y-60462096D01*
X44688975Y-60434625D01*
X44650465Y-60400128D01*
X44619208Y-60358560D01*
X44595151Y-60309879D01*
X44583624Y-60275380D01*
X44580267Y-60260290D01*
X44577629Y-60240793D01*
X44575598Y-60215476D01*
X44574064Y-60182931D01*
X44572917Y-60141747D01*
X44572842Y-60138220D01*
X44572401Y-60086280D01*
X44573539Y-60045510D01*
X44749318Y-60045510D01*
X44754170Y-60046511D01*
X44767877Y-60047414D01*
X44789133Y-60048182D01*
X44816635Y-60048780D01*
X44849076Y-60049171D01*
X44885152Y-60049319D01*
X44887150Y-60049320D01*
X45025021Y-60049320D01*
X45022209Y-60022070D01*
X45014403Y-59985908D01*
X44999512Y-59953614D01*
X44978684Y-59926742D01*
X44953073Y-59906848D01*
X44929573Y-59896906D01*
X44899485Y-59892350D01*
X44867149Y-59893829D01*
X44836667Y-59900887D01*
X44817914Y-59909319D01*
X44792511Y-59929817D01*
X44772309Y-59957615D01*
X44758642Y-59990614D01*
X44754634Y-60008680D01*
X44751925Y-60026134D01*
X44750008Y-60039457D01*
X44749318Y-60045510D01*
X44573539Y-60045510D01*
X44573621Y-60042579D01*
X44576785Y-60005290D01*
X44582179Y-59972585D01*
X44590087Y-59942637D01*
X44600794Y-59913618D01*
X44611486Y-59890010D01*
X44637716Y-59847213D01*
X44671660Y-59810563D01*
X44712493Y-59780695D01*
X44759395Y-59758245D01*
X44796543Y-59747012D01*
X44822502Y-59742824D01*
X44855023Y-59740411D01*
X44890662Y-59739768D01*
X44925979Y-59740890D01*
X44925979Y-59740890D01*
G37*
X44925979Y-59740890D02*
X44957530Y-59743772D01*
X44977431Y-59747267D01*
X45028780Y-59764102D01*
X45073864Y-59788927D01*
X45112695Y-59821752D01*
X45145282Y-59862586D01*
X45171636Y-59911441D01*
X45186330Y-59950260D01*
X45190780Y-59965525D01*
X45194086Y-59981170D01*
X45196480Y-59999298D01*
X45198195Y-60022012D01*
X45199465Y-60051417D01*
X45200160Y-60075079D01*
X45200914Y-60107729D01*
X45201151Y-60131742D01*
X45200776Y-60148634D01*
X45199693Y-60159920D01*
X45197804Y-60167115D01*
X45195016Y-60171734D01*
X45193964Y-60172869D01*
X45191146Y-60174945D01*
X45186616Y-60176657D01*
X45179459Y-60178040D01*
X45168756Y-60179129D01*
X45153591Y-60179957D01*
X45133046Y-60180559D01*
X45106204Y-60180970D01*
X45072148Y-60181224D01*
X45029960Y-60181355D01*
X44978723Y-60181398D01*
X44966657Y-60181400D01*
X44747881Y-60181400D01*
X44751234Y-60209933D01*
X44760038Y-60248930D01*
X44776321Y-60282606D01*
X44797272Y-60307611D01*
X44811463Y-60319615D01*
X44825467Y-60328438D01*
X44841181Y-60334543D01*
X44860503Y-60338396D01*
X44885329Y-60340460D01*
X44917556Y-60341198D01*
X44934700Y-60341223D01*
X44965018Y-60340936D01*
X44990189Y-60340018D01*
X45012857Y-60338121D01*
X45035668Y-60334897D01*
X45061270Y-60329998D01*
X45092308Y-60323077D01*
X45116947Y-60317257D01*
X45138269Y-60312272D01*
X45151909Y-60309653D01*
X45160056Y-60309351D01*
X45164896Y-60311313D01*
X45168617Y-60315488D01*
X45169017Y-60316033D01*
X45172128Y-60325375D01*
X45174425Y-60341915D01*
X45175805Y-60362717D01*
X45176166Y-60384844D01*
X45175404Y-60405359D01*
X45173418Y-60421325D01*
X45172791Y-60423996D01*
X45165715Y-60433445D01*
X45150163Y-60444018D01*
X45127669Y-60455099D01*
X45099767Y-60466074D01*
X45067990Y-60476325D01*
X45033873Y-60485238D01*
X45005858Y-60491003D01*
X44976282Y-60495076D01*
X44942497Y-60497769D01*
X44907971Y-60498967D01*
X44876169Y-60498559D01*
X44850557Y-60496431D01*
X44848537Y-60496130D01*
X44787958Y-60482583D01*
X44734788Y-60462096D01*
X44688975Y-60434625D01*
X44650465Y-60400128D01*
X44619208Y-60358560D01*
X44595151Y-60309879D01*
X44583624Y-60275380D01*
X44580267Y-60260290D01*
X44577629Y-60240793D01*
X44575598Y-60215476D01*
X44574064Y-60182931D01*
X44572917Y-60141747D01*
X44572842Y-60138220D01*
X44572401Y-60086280D01*
X44573539Y-60045510D01*
X44749318Y-60045510D01*
X44754170Y-60046511D01*
X44767877Y-60047414D01*
X44789133Y-60048182D01*
X44816635Y-60048780D01*
X44849076Y-60049171D01*
X44885152Y-60049319D01*
X44887150Y-60049320D01*
X45025021Y-60049320D01*
X45022209Y-60022070D01*
X45014403Y-59985908D01*
X44999512Y-59953614D01*
X44978684Y-59926742D01*
X44953073Y-59906848D01*
X44929573Y-59896906D01*
X44899485Y-59892350D01*
X44867149Y-59893829D01*
X44836667Y-59900887D01*
X44817914Y-59909319D01*
X44792511Y-59929817D01*
X44772309Y-59957615D01*
X44758642Y-59990614D01*
X44754634Y-60008680D01*
X44751925Y-60026134D01*
X44750008Y-60039457D01*
X44749318Y-60045510D01*
X44573539Y-60045510D01*
X44573621Y-60042579D01*
X44576785Y-60005290D01*
X44582179Y-59972585D01*
X44590087Y-59942637D01*
X44600794Y-59913618D01*
X44611486Y-59890010D01*
X44637716Y-59847213D01*
X44671660Y-59810563D01*
X44712493Y-59780695D01*
X44759395Y-59758245D01*
X44796543Y-59747012D01*
X44822502Y-59742824D01*
X44855023Y-59740411D01*
X44890662Y-59739768D01*
X44925979Y-59740890D01*
G36*
X44306417Y-59593544D02*
X44312950Y-59596484D01*
X44317042Y-59601472D01*
X44317301Y-59601946D01*
X44319283Y-59610571D01*
X44320923Y-59627085D01*
X44322065Y-59649215D01*
X44322552Y-59674692D01*
X44322560Y-59678146D01*
X44322560Y-59744520D01*
X44391140Y-59744520D01*
X44423101Y-59744697D01*
X44446305Y-59745973D01*
X44462154Y-59749466D01*
X44472049Y-59756293D01*
X44477393Y-59767570D01*
X44479588Y-59784416D01*
X44480036Y-59807947D01*
X44480040Y-59815351D01*
X44479841Y-59839070D01*
X44478317Y-59856330D01*
X44474073Y-59868157D01*
X44465718Y-59875579D01*
X44451856Y-59879622D01*
X44431096Y-59881312D01*
X44402044Y-59881676D01*
X44390009Y-59881680D01*
X44322560Y-59881680D01*
X44322560Y-60105533D01*
X44322597Y-60161115D01*
X44322752Y-60207431D01*
X44323087Y-60245380D01*
X44323662Y-60275855D01*
X44324540Y-60299754D01*
X44325782Y-60317971D01*
X44327452Y-60331402D01*
X44329610Y-60340943D01*
X44332319Y-60347490D01*
X44335641Y-60351937D01*
X44339637Y-60355182D01*
X44339830Y-60355312D01*
X44346871Y-60356783D01*
X44361840Y-60357995D01*
X44382505Y-60358818D01*
X44405443Y-60359122D01*
X44429989Y-60359584D01*
X44451483Y-60360780D01*
X44467495Y-60362526D01*
X44475293Y-60364458D01*
X44479868Y-60367997D01*
X44482769Y-60374059D01*
X44484363Y-60384704D01*
X44485020Y-60401990D01*
X44485120Y-60419367D01*
X44484578Y-60446578D01*
X44482361Y-60465446D01*
X44477578Y-60477759D01*
X44469342Y-60485305D01*
X44456764Y-60489871D01*
X44449258Y-60491465D01*
X44425593Y-60494713D01*
X44395706Y-60497068D01*
X44363043Y-60498427D01*
X44331051Y-60498688D01*
X44303174Y-60497749D01*
X44287461Y-60496256D01*
X44247519Y-60488397D01*
X44215963Y-60476665D01*
X44191469Y-60460186D01*
X44172717Y-60438088D01*
X44159211Y-60411582D01*
X44156485Y-60404656D01*
X44154203Y-60397947D01*
X44152322Y-60390509D01*
X44150794Y-60381398D01*
X44149574Y-60369669D01*
X44148616Y-60354377D01*
X44147874Y-60334579D01*
X44147302Y-60309328D01*
X44146853Y-60277681D01*
X44146483Y-60238692D01*
X44146145Y-60191418D01*
X44145799Y-60135922D01*
X44145356Y-60079613D01*
X44144757Y-60029061D01*
X44144021Y-59984937D01*
X44143163Y-59947914D01*
X44142201Y-59918664D01*
X44141152Y-59897860D01*
X44140033Y-59886173D01*
X44139393Y-59883875D01*
X44131732Y-59879712D01*
X44117957Y-59875949D01*
X44110414Y-59874668D01*
X44072230Y-59868911D01*
X44043854Y-59863423D01*
X44024941Y-59858124D01*
X44015144Y-59852936D01*
X44015027Y-59852822D01*
X44010656Y-59843204D01*
X44008001Y-59826891D01*
X44007031Y-59806980D01*
X44007717Y-59786567D01*
X44010030Y-59768748D01*
X44013940Y-59756619D01*
X44015972Y-59754032D01*
X44026303Y-59750074D01*
X44046718Y-59746996D01*
X44077176Y-59744801D01*
X44083282Y-59744520D01*
X44142220Y-59741980D01*
X44143652Y-59682106D01*
X44144127Y-59657824D01*
X44145158Y-59640293D01*
X44148175Y-59628127D01*
X44154607Y-59619942D01*
X44165882Y-59614352D01*
X44183431Y-59609973D01*
X44208680Y-59605419D01*
X44225859Y-59602428D01*
X44257163Y-59597094D01*
X44280024Y-59593841D01*
X44295942Y-59592660D01*
X44306417Y-59593544D01*
X44306417Y-59593544D01*
G37*
X44306417Y-59593544D02*
X44312950Y-59596484D01*
X44317042Y-59601472D01*
X44317301Y-59601946D01*
X44319283Y-59610571D01*
X44320923Y-59627085D01*
X44322065Y-59649215D01*
X44322552Y-59674692D01*
X44322560Y-59678146D01*
X44322560Y-59744520D01*
X44391140Y-59744520D01*
X44423101Y-59744697D01*
X44446305Y-59745973D01*
X44462154Y-59749466D01*
X44472049Y-59756293D01*
X44477393Y-59767570D01*
X44479588Y-59784416D01*
X44480036Y-59807947D01*
X44480040Y-59815351D01*
X44479841Y-59839070D01*
X44478317Y-59856330D01*
X44474073Y-59868157D01*
X44465718Y-59875579D01*
X44451856Y-59879622D01*
X44431096Y-59881312D01*
X44402044Y-59881676D01*
X44390009Y-59881680D01*
X44322560Y-59881680D01*
X44322560Y-60105533D01*
X44322597Y-60161115D01*
X44322752Y-60207431D01*
X44323087Y-60245380D01*
X44323662Y-60275855D01*
X44324540Y-60299754D01*
X44325782Y-60317971D01*
X44327452Y-60331402D01*
X44329610Y-60340943D01*
X44332319Y-60347490D01*
X44335641Y-60351937D01*
X44339637Y-60355182D01*
X44339830Y-60355312D01*
X44346871Y-60356783D01*
X44361840Y-60357995D01*
X44382505Y-60358818D01*
X44405443Y-60359122D01*
X44429989Y-60359584D01*
X44451483Y-60360780D01*
X44467495Y-60362526D01*
X44475293Y-60364458D01*
X44479868Y-60367997D01*
X44482769Y-60374059D01*
X44484363Y-60384704D01*
X44485020Y-60401990D01*
X44485120Y-60419367D01*
X44484578Y-60446578D01*
X44482361Y-60465446D01*
X44477578Y-60477759D01*
X44469342Y-60485305D01*
X44456764Y-60489871D01*
X44449258Y-60491465D01*
X44425593Y-60494713D01*
X44395706Y-60497068D01*
X44363043Y-60498427D01*
X44331051Y-60498688D01*
X44303174Y-60497749D01*
X44287461Y-60496256D01*
X44247519Y-60488397D01*
X44215963Y-60476665D01*
X44191469Y-60460186D01*
X44172717Y-60438088D01*
X44159211Y-60411582D01*
X44156485Y-60404656D01*
X44154203Y-60397947D01*
X44152322Y-60390509D01*
X44150794Y-60381398D01*
X44149574Y-60369669D01*
X44148616Y-60354377D01*
X44147874Y-60334579D01*
X44147302Y-60309328D01*
X44146853Y-60277681D01*
X44146483Y-60238692D01*
X44146145Y-60191418D01*
X44145799Y-60135922D01*
X44145356Y-60079613D01*
X44144757Y-60029061D01*
X44144021Y-59984937D01*
X44143163Y-59947914D01*
X44142201Y-59918664D01*
X44141152Y-59897860D01*
X44140033Y-59886173D01*
X44139393Y-59883875D01*
X44131732Y-59879712D01*
X44117957Y-59875949D01*
X44110414Y-59874668D01*
X44072230Y-59868911D01*
X44043854Y-59863423D01*
X44024941Y-59858124D01*
X44015144Y-59852936D01*
X44015027Y-59852822D01*
X44010656Y-59843204D01*
X44008001Y-59826891D01*
X44007031Y-59806980D01*
X44007717Y-59786567D01*
X44010030Y-59768748D01*
X44013940Y-59756619D01*
X44015972Y-59754032D01*
X44026303Y-59750074D01*
X44046718Y-59746996D01*
X44077176Y-59744801D01*
X44083282Y-59744520D01*
X44142220Y-59741980D01*
X44143652Y-59682106D01*
X44144127Y-59657824D01*
X44145158Y-59640293D01*
X44148175Y-59628127D01*
X44154607Y-59619942D01*
X44165882Y-59614352D01*
X44183431Y-59609973D01*
X44208680Y-59605419D01*
X44225859Y-59602428D01*
X44257163Y-59597094D01*
X44280024Y-59593841D01*
X44295942Y-59592660D01*
X44306417Y-59593544D01*
G36*
X45681200Y-59717272D02*
X45742458Y-59726639D01*
X45800648Y-59742489D01*
X45824347Y-59751049D01*
X45846141Y-59760100D01*
X45863137Y-59768378D01*
X45870647Y-59773052D01*
X45887497Y-59785904D01*
X45886078Y-59850302D01*
X45884660Y-59914700D01*
X45869420Y-59914083D01*
X45858656Y-59912517D01*
X45840649Y-59908711D01*
X45817916Y-59903238D01*
X45793220Y-59896738D01*
X45766740Y-59889747D01*
X45745202Y-59884988D01*
X45725224Y-59882022D01*
X45703424Y-59880409D01*
X45676422Y-59879711D01*
X45661140Y-59879574D01*
X45631967Y-59879552D01*
X45610724Y-59880071D01*
X45595182Y-59881393D01*
X45583114Y-59883778D01*
X45572292Y-59887484D01*
X45564620Y-59890842D01*
X45535493Y-59907983D01*
X45512111Y-59930370D01*
X45494025Y-59958883D01*
X45480788Y-59994399D01*
X45471954Y-60037798D01*
X45467565Y-60081670D01*
X45466750Y-60127122D01*
X45469812Y-60172316D01*
X45476398Y-60214148D01*
X45486155Y-60249514D01*
X45486878Y-60251482D01*
X45502912Y-60281943D01*
X45526095Y-60309614D01*
X45553705Y-60331560D01*
X45568614Y-60339603D01*
X45580726Y-60344624D01*
X45592356Y-60347988D01*
X45605914Y-60349993D01*
X45623813Y-60350936D01*
X45648462Y-60351116D01*
X45661140Y-60351038D01*
X45691493Y-60350466D01*
X45715548Y-60348972D01*
X45737159Y-60346033D01*
X45760181Y-60341126D01*
X45788140Y-60333820D01*
X45813386Y-60327258D01*
X45836718Y-60321812D01*
X45855497Y-60318058D01*
X45866880Y-60316582D01*
X45884660Y-60316020D01*
X45886086Y-60378323D01*
X45886581Y-60404582D01*
X45886457Y-60422697D01*
X45885434Y-60434682D01*
X45883231Y-60442547D01*
X45879568Y-60448304D01*
X45875749Y-60452392D01*
X45862533Y-60461730D01*
X45841174Y-60472191D01*
X45813517Y-60483037D01*
X45781408Y-60493531D01*
X45753982Y-60501117D01*
X45707675Y-60509760D01*
X45657106Y-60513833D01*
X45606989Y-60513126D01*
X45572057Y-60509254D01*
X45511619Y-60495094D01*
X45458090Y-60473488D01*
X45411472Y-60444439D01*
X45371768Y-60407947D01*
X45343605Y-60371302D01*
X45318264Y-60324181D01*
X45298820Y-60270116D01*
X45285517Y-60210609D01*
X45278603Y-60147159D01*
X45278322Y-60081268D01*
X45284921Y-60014435D01*
X45285023Y-60013760D01*
X45295426Y-59960625D01*
X45309713Y-59915042D01*
X45328886Y-59874818D01*
X45353946Y-59837762D01*
X45378449Y-59809410D01*
X45415546Y-59777290D01*
X45459493Y-59751636D01*
X45509162Y-59732629D01*
X45563422Y-59720446D01*
X45621145Y-59715268D01*
X45681200Y-59717272D01*
X45681200Y-59717272D01*
G37*
X45681200Y-59717272D02*
X45742458Y-59726639D01*
X45800648Y-59742489D01*
X45824347Y-59751049D01*
X45846141Y-59760100D01*
X45863137Y-59768378D01*
X45870647Y-59773052D01*
X45887497Y-59785904D01*
X45886078Y-59850302D01*
X45884660Y-59914700D01*
X45869420Y-59914083D01*
X45858656Y-59912517D01*
X45840649Y-59908711D01*
X45817916Y-59903238D01*
X45793220Y-59896738D01*
X45766740Y-59889747D01*
X45745202Y-59884988D01*
X45725224Y-59882022D01*
X45703424Y-59880409D01*
X45676422Y-59879711D01*
X45661140Y-59879574D01*
X45631967Y-59879552D01*
X45610724Y-59880071D01*
X45595182Y-59881393D01*
X45583114Y-59883778D01*
X45572292Y-59887484D01*
X45564620Y-59890842D01*
X45535493Y-59907983D01*
X45512111Y-59930370D01*
X45494025Y-59958883D01*
X45480788Y-59994399D01*
X45471954Y-60037798D01*
X45467565Y-60081670D01*
X45466750Y-60127122D01*
X45469812Y-60172316D01*
X45476398Y-60214148D01*
X45486155Y-60249514D01*
X45486878Y-60251482D01*
X45502912Y-60281943D01*
X45526095Y-60309614D01*
X45553705Y-60331560D01*
X45568614Y-60339603D01*
X45580726Y-60344624D01*
X45592356Y-60347988D01*
X45605914Y-60349993D01*
X45623813Y-60350936D01*
X45648462Y-60351116D01*
X45661140Y-60351038D01*
X45691493Y-60350466D01*
X45715548Y-60348972D01*
X45737159Y-60346033D01*
X45760181Y-60341126D01*
X45788140Y-60333820D01*
X45813386Y-60327258D01*
X45836718Y-60321812D01*
X45855497Y-60318058D01*
X45866880Y-60316582D01*
X45884660Y-60316020D01*
X45886086Y-60378323D01*
X45886581Y-60404582D01*
X45886457Y-60422697D01*
X45885434Y-60434682D01*
X45883231Y-60442547D01*
X45879568Y-60448304D01*
X45875749Y-60452392D01*
X45862533Y-60461730D01*
X45841174Y-60472191D01*
X45813517Y-60483037D01*
X45781408Y-60493531D01*
X45753982Y-60501117D01*
X45707675Y-60509760D01*
X45657106Y-60513833D01*
X45606989Y-60513126D01*
X45572057Y-60509254D01*
X45511619Y-60495094D01*
X45458090Y-60473488D01*
X45411472Y-60444439D01*
X45371768Y-60407947D01*
X45343605Y-60371302D01*
X45318264Y-60324181D01*
X45298820Y-60270116D01*
X45285517Y-60210609D01*
X45278603Y-60147159D01*
X45278322Y-60081268D01*
X45284921Y-60014435D01*
X45285023Y-60013760D01*
X45295426Y-59960625D01*
X45309713Y-59915042D01*
X45328886Y-59874818D01*
X45353946Y-59837762D01*
X45378449Y-59809410D01*
X45415546Y-59777290D01*
X45459493Y-59751636D01*
X45509162Y-59732629D01*
X45563422Y-59720446D01*
X45621145Y-59715268D01*
X45681200Y-59717272D01*
G36*
X46133259Y-59518570D02*
X46153765Y-59519040D01*
X46167501Y-59520077D01*
X46176162Y-59521889D01*
X46181443Y-59524683D01*
X46184789Y-59528320D01*
X46187041Y-59533238D01*
X46188795Y-59541834D01*
X46190106Y-59555203D01*
X46191027Y-59574443D01*
X46191614Y-59600650D01*
X46191919Y-59634922D01*
X46192000Y-59674015D01*
X46192000Y-59809848D01*
X46223654Y-59796986D01*
X46269004Y-59782007D01*
X46317564Y-59773023D01*
X46371895Y-59769593D01*
X46383397Y-59769534D01*
X46430258Y-59771881D01*
X46469550Y-59779013D01*
X46502975Y-59791557D01*
X46532234Y-59810143D01*
X46557584Y-59833818D01*
X46580938Y-59865848D01*
X46600011Y-59906711D01*
X46612576Y-59947102D01*
X46614535Y-59955689D01*
X46616180Y-59965529D01*
X46617536Y-59977536D01*
X46618632Y-59992628D01*
X46619493Y-60011720D01*
X46620147Y-60035728D01*
X46620620Y-60065568D01*
X46620939Y-60102157D01*
X46621131Y-60146410D01*
X46621223Y-60199244D01*
X46621242Y-60243371D01*
X46621198Y-60304220D01*
X46621045Y-60355628D01*
X46620767Y-60398310D01*
X46620344Y-60432984D01*
X46619761Y-60460368D01*
X46618999Y-60481179D01*
X46618041Y-60496134D01*
X46616869Y-60505950D01*
X46615466Y-60511345D01*
X46614670Y-60512611D01*
X46607178Y-60515804D01*
X46591439Y-60518225D01*
X46566781Y-60519946D01*
X46539457Y-60520888D01*
X46510119Y-60521379D01*
X46489120Y-60521098D01*
X46474656Y-60519906D01*
X46464926Y-60517661D01*
X46458673Y-60514589D01*
X46446511Y-60506621D01*
X46444985Y-60246220D01*
X46444608Y-60187107D01*
X46444204Y-60137298D01*
X46443746Y-60095938D01*
X46443202Y-60062172D01*
X46442543Y-60035143D01*
X46441738Y-60013996D01*
X46440758Y-59997875D01*
X46439573Y-59985926D01*
X46438153Y-59977292D01*
X46436466Y-59971117D01*
X46435224Y-59968040D01*
X46422048Y-59946715D01*
X46404541Y-59932468D01*
X46380427Y-59923661D01*
X46370845Y-59921707D01*
X46338677Y-59919792D01*
X46301588Y-59923825D01*
X46262497Y-59933289D01*
X46224331Y-59947663D01*
X46192259Y-59962205D01*
X46190859Y-60234111D01*
X46190491Y-60296251D01*
X46190066Y-60348926D01*
X46189562Y-60392831D01*
X46188961Y-60428662D01*
X46188243Y-60457113D01*
X46187386Y-60478879D01*
X46186372Y-60494656D01*
X46185181Y-60505138D01*
X46183792Y-60511022D01*
X46182870Y-60512618D01*
X46174766Y-60515731D01*
X46158876Y-60518174D01*
X46137556Y-60519905D01*
X46113161Y-60520882D01*
X46088047Y-60521062D01*
X46064569Y-60520402D01*
X46045083Y-60518860D01*
X46031943Y-60516394D01*
X46029440Y-60515390D01*
X46016740Y-60508760D01*
X46015444Y-60020603D01*
X46015238Y-59938950D01*
X46015083Y-59866857D01*
X46014989Y-59803722D01*
X46014965Y-59748946D01*
X46015019Y-59701927D01*
X46015160Y-59662066D01*
X46015396Y-59628761D01*
X46015737Y-59601413D01*
X46016190Y-59579420D01*
X46016764Y-59562182D01*
X46017469Y-59549099D01*
X46018312Y-59539569D01*
X46019303Y-59532993D01*
X46020449Y-59528770D01*
X46021760Y-59526299D01*
X46022575Y-59525453D01*
X46029137Y-59522457D01*
X46041281Y-59520379D01*
X46060315Y-59519106D01*
X46087547Y-59518525D01*
X46104290Y-59518460D01*
X46133259Y-59518570D01*
X46133259Y-59518570D01*
G37*
X46133259Y-59518570D02*
X46153765Y-59519040D01*
X46167501Y-59520077D01*
X46176162Y-59521889D01*
X46181443Y-59524683D01*
X46184789Y-59528320D01*
X46187041Y-59533238D01*
X46188795Y-59541834D01*
X46190106Y-59555203D01*
X46191027Y-59574443D01*
X46191614Y-59600650D01*
X46191919Y-59634922D01*
X46192000Y-59674015D01*
X46192000Y-59809848D01*
X46223654Y-59796986D01*
X46269004Y-59782007D01*
X46317564Y-59773023D01*
X46371895Y-59769593D01*
X46383397Y-59769534D01*
X46430258Y-59771881D01*
X46469550Y-59779013D01*
X46502975Y-59791557D01*
X46532234Y-59810143D01*
X46557584Y-59833818D01*
X46580938Y-59865848D01*
X46600011Y-59906711D01*
X46612576Y-59947102D01*
X46614535Y-59955689D01*
X46616180Y-59965529D01*
X46617536Y-59977536D01*
X46618632Y-59992628D01*
X46619493Y-60011720D01*
X46620147Y-60035728D01*
X46620620Y-60065568D01*
X46620939Y-60102157D01*
X46621131Y-60146410D01*
X46621223Y-60199244D01*
X46621242Y-60243371D01*
X46621198Y-60304220D01*
X46621045Y-60355628D01*
X46620767Y-60398310D01*
X46620344Y-60432984D01*
X46619761Y-60460368D01*
X46618999Y-60481179D01*
X46618041Y-60496134D01*
X46616869Y-60505950D01*
X46615466Y-60511345D01*
X46614670Y-60512611D01*
X46607178Y-60515804D01*
X46591439Y-60518225D01*
X46566781Y-60519946D01*
X46539457Y-60520888D01*
X46510119Y-60521379D01*
X46489120Y-60521098D01*
X46474656Y-60519906D01*
X46464926Y-60517661D01*
X46458673Y-60514589D01*
X46446511Y-60506621D01*
X46444985Y-60246220D01*
X46444608Y-60187107D01*
X46444204Y-60137298D01*
X46443746Y-60095938D01*
X46443202Y-60062172D01*
X46442543Y-60035143D01*
X46441738Y-60013996D01*
X46440758Y-59997875D01*
X46439573Y-59985926D01*
X46438153Y-59977292D01*
X46436466Y-59971117D01*
X46435224Y-59968040D01*
X46422048Y-59946715D01*
X46404541Y-59932468D01*
X46380427Y-59923661D01*
X46370845Y-59921707D01*
X46338677Y-59919792D01*
X46301588Y-59923825D01*
X46262497Y-59933289D01*
X46224331Y-59947663D01*
X46192259Y-59962205D01*
X46190859Y-60234111D01*
X46190491Y-60296251D01*
X46190066Y-60348926D01*
X46189562Y-60392831D01*
X46188961Y-60428662D01*
X46188243Y-60457113D01*
X46187386Y-60478879D01*
X46186372Y-60494656D01*
X46185181Y-60505138D01*
X46183792Y-60511022D01*
X46182870Y-60512618D01*
X46174766Y-60515731D01*
X46158876Y-60518174D01*
X46137556Y-60519905D01*
X46113161Y-60520882D01*
X46088047Y-60521062D01*
X46064569Y-60520402D01*
X46045083Y-60518860D01*
X46031943Y-60516394D01*
X46029440Y-60515390D01*
X46016740Y-60508760D01*
X46015444Y-60020603D01*
X46015238Y-59938950D01*
X46015083Y-59866857D01*
X46014989Y-59803722D01*
X46014965Y-59748946D01*
X46015019Y-59701927D01*
X46015160Y-59662066D01*
X46015396Y-59628761D01*
X46015737Y-59601413D01*
X46016190Y-59579420D01*
X46016764Y-59562182D01*
X46017469Y-59549099D01*
X46018312Y-59539569D01*
X46019303Y-59532993D01*
X46020449Y-59528770D01*
X46021760Y-59526299D01*
X46022575Y-59525453D01*
X46029137Y-59522457D01*
X46041281Y-59520379D01*
X46060315Y-59519106D01*
X46087547Y-59518525D01*
X46104290Y-59518460D01*
X46133259Y-59518570D01*
G36*
X47151618Y-59782041D02*
X47190910Y-59789173D01*
X47224335Y-59801717D01*
X47253594Y-59820303D01*
X47278944Y-59843978D01*
X47302298Y-59876008D01*
X47321371Y-59916871D01*
X47333936Y-59957262D01*
X47335895Y-59965849D01*
X47337540Y-59975689D01*
X47338896Y-59987696D01*
X47339992Y-60002788D01*
X47340853Y-60021880D01*
X47341507Y-60045888D01*
X47341980Y-60075728D01*
X47342299Y-60112317D01*
X47342491Y-60156570D01*
X47342583Y-60209404D01*
X47342602Y-60253531D01*
X47342558Y-60314380D01*
X47342405Y-60365788D01*
X47342127Y-60408470D01*
X47341704Y-60443144D01*
X47341121Y-60470528D01*
X47340359Y-60491339D01*
X47339401Y-60506294D01*
X47338229Y-60516110D01*
X47336826Y-60521505D01*
X47336030Y-60522771D01*
X47328538Y-60525964D01*
X47312799Y-60528385D01*
X47288141Y-60530106D01*
X47260817Y-60531048D01*
X47231479Y-60531539D01*
X47210480Y-60531258D01*
X47196016Y-60530066D01*
X47186286Y-60527821D01*
X47180033Y-60524749D01*
X47167871Y-60516781D01*
X47166345Y-60256380D01*
X47165968Y-60197267D01*
X47165564Y-60147458D01*
X47165106Y-60106098D01*
X47164562Y-60072332D01*
X47163903Y-60045303D01*
X47163098Y-60024156D01*
X47162118Y-60008035D01*
X47160933Y-59996086D01*
X47159513Y-59987452D01*
X47157826Y-59981277D01*
X47156584Y-59978200D01*
X47143408Y-59956875D01*
X47125901Y-59942628D01*
X47101787Y-59933821D01*
X47092205Y-59931867D01*
X47060037Y-59929952D01*
X47022948Y-59933985D01*
X46983857Y-59943449D01*
X46945691Y-59957823D01*
X46913619Y-59972365D01*
X46912219Y-60244271D01*
X46911851Y-60306411D01*
X46911426Y-60359086D01*
X46910922Y-60402991D01*
X46910321Y-60438822D01*
X46909603Y-60467273D01*
X46908746Y-60489039D01*
X46907732Y-60504816D01*
X46906541Y-60515298D01*
X46905152Y-60521182D01*
X46904230Y-60522778D01*
X46896126Y-60525891D01*
X46880236Y-60528334D01*
X46858916Y-60530065D01*
X46834521Y-60531042D01*
X46809407Y-60531222D01*
X46785929Y-60530562D01*
X46766443Y-60529020D01*
X46753303Y-60526554D01*
X46750800Y-60525550D01*
X46738100Y-60518920D01*
X46736795Y-60156171D01*
X46736570Y-60083897D01*
X46736453Y-60021189D01*
X46736455Y-59967455D01*
X46736582Y-59922103D01*
X46736844Y-59884539D01*
X46737248Y-59854172D01*
X46737802Y-59830407D01*
X46738515Y-59812652D01*
X46739395Y-59800315D01*
X46740450Y-59792802D01*
X46741689Y-59789522D01*
X46741875Y-59789368D01*
X46749060Y-59787936D01*
X46764178Y-59786796D01*
X46785006Y-59785962D01*
X46809321Y-59785451D01*
X46834898Y-59785277D01*
X46859516Y-59785457D01*
X46880951Y-59786004D01*
X46896980Y-59786935D01*
X46905324Y-59788243D01*
X46911514Y-59795436D01*
X46913360Y-59805667D01*
X46913360Y-59820008D01*
X46945014Y-59807146D01*
X46990364Y-59792167D01*
X47038924Y-59783183D01*
X47093255Y-59779753D01*
X47104757Y-59779694D01*
X47151618Y-59782041D01*
X47151618Y-59782041D01*
G37*
X47151618Y-59782041D02*
X47190910Y-59789173D01*
X47224335Y-59801717D01*
X47253594Y-59820303D01*
X47278944Y-59843978D01*
X47302298Y-59876008D01*
X47321371Y-59916871D01*
X47333936Y-59957262D01*
X47335895Y-59965849D01*
X47337540Y-59975689D01*
X47338896Y-59987696D01*
X47339992Y-60002788D01*
X47340853Y-60021880D01*
X47341507Y-60045888D01*
X47341980Y-60075728D01*
X47342299Y-60112317D01*
X47342491Y-60156570D01*
X47342583Y-60209404D01*
X47342602Y-60253531D01*
X47342558Y-60314380D01*
X47342405Y-60365788D01*
X47342127Y-60408470D01*
X47341704Y-60443144D01*
X47341121Y-60470528D01*
X47340359Y-60491339D01*
X47339401Y-60506294D01*
X47338229Y-60516110D01*
X47336826Y-60521505D01*
X47336030Y-60522771D01*
X47328538Y-60525964D01*
X47312799Y-60528385D01*
X47288141Y-60530106D01*
X47260817Y-60531048D01*
X47231479Y-60531539D01*
X47210480Y-60531258D01*
X47196016Y-60530066D01*
X47186286Y-60527821D01*
X47180033Y-60524749D01*
X47167871Y-60516781D01*
X47166345Y-60256380D01*
X47165968Y-60197267D01*
X47165564Y-60147458D01*
X47165106Y-60106098D01*
X47164562Y-60072332D01*
X47163903Y-60045303D01*
X47163098Y-60024156D01*
X47162118Y-60008035D01*
X47160933Y-59996086D01*
X47159513Y-59987452D01*
X47157826Y-59981277D01*
X47156584Y-59978200D01*
X47143408Y-59956875D01*
X47125901Y-59942628D01*
X47101787Y-59933821D01*
X47092205Y-59931867D01*
X47060037Y-59929952D01*
X47022948Y-59933985D01*
X46983857Y-59943449D01*
X46945691Y-59957823D01*
X46913619Y-59972365D01*
X46912219Y-60244271D01*
X46911851Y-60306411D01*
X46911426Y-60359086D01*
X46910922Y-60402991D01*
X46910321Y-60438822D01*
X46909603Y-60467273D01*
X46908746Y-60489039D01*
X46907732Y-60504816D01*
X46906541Y-60515298D01*
X46905152Y-60521182D01*
X46904230Y-60522778D01*
X46896126Y-60525891D01*
X46880236Y-60528334D01*
X46858916Y-60530065D01*
X46834521Y-60531042D01*
X46809407Y-60531222D01*
X46785929Y-60530562D01*
X46766443Y-60529020D01*
X46753303Y-60526554D01*
X46750800Y-60525550D01*
X46738100Y-60518920D01*
X46736795Y-60156171D01*
X46736570Y-60083897D01*
X46736453Y-60021189D01*
X46736455Y-59967455D01*
X46736582Y-59922103D01*
X46736844Y-59884539D01*
X46737248Y-59854172D01*
X46737802Y-59830407D01*
X46738515Y-59812652D01*
X46739395Y-59800315D01*
X46740450Y-59792802D01*
X46741689Y-59789522D01*
X46741875Y-59789368D01*
X46749060Y-59787936D01*
X46764178Y-59786796D01*
X46785006Y-59785962D01*
X46809321Y-59785451D01*
X46834898Y-59785277D01*
X46859516Y-59785457D01*
X46880951Y-59786004D01*
X46896980Y-59786935D01*
X46905324Y-59788243D01*
X46911514Y-59795436D01*
X46913360Y-59805667D01*
X46913360Y-59820008D01*
X46945014Y-59807146D01*
X46990364Y-59792167D01*
X47038924Y-59783183D01*
X47093255Y-59779753D01*
X47104757Y-59779694D01*
X47151618Y-59782041D01*
G36*
X47566430Y-59796291D02*
X47587006Y-59797762D01*
X47601556Y-59800128D01*
X47606780Y-59802228D01*
X47608772Y-59803923D01*
X47610489Y-59806333D01*
X47611956Y-59810185D01*
X47613197Y-59816209D01*
X47614236Y-59825130D01*
X47615097Y-59837678D01*
X47615804Y-59854580D01*
X47616381Y-59876563D01*
X47616853Y-59904356D01*
X47617243Y-59938686D01*
X47617576Y-59980281D01*
X47617876Y-60029868D01*
X47618168Y-60088177D01*
X47618467Y-60154318D01*
X47618742Y-60234548D01*
X47618808Y-60304678D01*
X47618667Y-60364766D01*
X47618316Y-60414873D01*
X47617755Y-60455055D01*
X47616985Y-60485372D01*
X47616003Y-60505881D01*
X47614810Y-60516642D01*
X47614629Y-60517365D01*
X47611403Y-60526508D01*
X47606826Y-60533054D01*
X47599314Y-60537437D01*
X47587285Y-60540090D01*
X47569156Y-60541448D01*
X47543344Y-60541946D01*
X47524792Y-60542010D01*
X47497904Y-60541839D01*
X47479146Y-60541077D01*
X47466496Y-60539461D01*
X47457930Y-60536724D01*
X47451424Y-60532602D01*
X47451132Y-60532368D01*
X47439140Y-60522656D01*
X47439140Y-60166861D01*
X47439173Y-60095562D01*
X47439280Y-60033802D01*
X47439474Y-59980960D01*
X47439763Y-59936416D01*
X47440161Y-59899549D01*
X47440679Y-59869739D01*
X47441327Y-59846364D01*
X47442117Y-59828805D01*
X47443060Y-59816440D01*
X47444167Y-59808648D01*
X47445451Y-59804810D01*
X47445729Y-59804463D01*
X47453972Y-59801238D01*
X47470043Y-59798715D01*
X47491633Y-59796927D01*
X47516434Y-59795905D01*
X47542136Y-59795683D01*
X47566430Y-59796291D01*
X47566430Y-59796291D01*
G37*
X47566430Y-59796291D02*
X47587006Y-59797762D01*
X47601556Y-59800128D01*
X47606780Y-59802228D01*
X47608772Y-59803923D01*
X47610489Y-59806333D01*
X47611956Y-59810185D01*
X47613197Y-59816209D01*
X47614236Y-59825130D01*
X47615097Y-59837678D01*
X47615804Y-59854580D01*
X47616381Y-59876563D01*
X47616853Y-59904356D01*
X47617243Y-59938686D01*
X47617576Y-59980281D01*
X47617876Y-60029868D01*
X47618168Y-60088177D01*
X47618467Y-60154318D01*
X47618742Y-60234548D01*
X47618808Y-60304678D01*
X47618667Y-60364766D01*
X47618316Y-60414873D01*
X47617755Y-60455055D01*
X47616985Y-60485372D01*
X47616003Y-60505881D01*
X47614810Y-60516642D01*
X47614629Y-60517365D01*
X47611403Y-60526508D01*
X47606826Y-60533054D01*
X47599314Y-60537437D01*
X47587285Y-60540090D01*
X47569156Y-60541448D01*
X47543344Y-60541946D01*
X47524792Y-60542010D01*
X47497904Y-60541839D01*
X47479146Y-60541077D01*
X47466496Y-60539461D01*
X47457930Y-60536724D01*
X47451424Y-60532602D01*
X47451132Y-60532368D01*
X47439140Y-60522656D01*
X47439140Y-60166861D01*
X47439173Y-60095562D01*
X47439280Y-60033802D01*
X47439474Y-59980960D01*
X47439763Y-59936416D01*
X47440161Y-59899549D01*
X47440679Y-59869739D01*
X47441327Y-59846364D01*
X47442117Y-59828805D01*
X47443060Y-59816440D01*
X47444167Y-59808648D01*
X47445451Y-59804810D01*
X47445729Y-59804463D01*
X47453972Y-59801238D01*
X47470043Y-59798715D01*
X47491633Y-59796927D01*
X47516434Y-59795905D01*
X47542136Y-59795683D01*
X47566430Y-59796291D01*
G36*
X48094200Y-59783312D02*
X48155458Y-59792679D01*
X48213648Y-59808529D01*
X48237347Y-59817089D01*
X48259141Y-59826140D01*
X48276137Y-59834418D01*
X48283647Y-59839092D01*
X48300497Y-59851944D01*
X48299078Y-59916342D01*
X48297660Y-59980740D01*
X48282420Y-59980123D01*
X48271656Y-59978557D01*
X48253649Y-59974751D01*
X48230916Y-59969278D01*
X48206220Y-59962778D01*
X48179740Y-59955787D01*
X48158202Y-59951028D01*
X48138224Y-59948062D01*
X48116424Y-59946449D01*
X48089422Y-59945751D01*
X48074140Y-59945614D01*
X48044967Y-59945592D01*
X48023724Y-59946111D01*
X48008182Y-59947433D01*
X47996114Y-59949818D01*
X47985292Y-59953524D01*
X47977620Y-59956882D01*
X47948493Y-59974023D01*
X47925111Y-59996410D01*
X47907025Y-60024923D01*
X47893788Y-60060439D01*
X47884954Y-60103838D01*
X47880565Y-60147710D01*
X47879750Y-60193162D01*
X47882812Y-60238356D01*
X47889398Y-60280188D01*
X47899155Y-60315554D01*
X47899878Y-60317522D01*
X47915912Y-60347983D01*
X47939095Y-60375654D01*
X47966705Y-60397600D01*
X47981614Y-60405643D01*
X47993726Y-60410664D01*
X48005356Y-60414028D01*
X48018914Y-60416033D01*
X48036813Y-60416976D01*
X48061462Y-60417156D01*
X48074140Y-60417078D01*
X48104493Y-60416506D01*
X48128548Y-60415012D01*
X48150159Y-60412073D01*
X48173181Y-60407166D01*
X48201140Y-60399860D01*
X48226386Y-60393298D01*
X48249718Y-60387852D01*
X48268497Y-60384098D01*
X48279880Y-60382622D01*
X48297660Y-60382060D01*
X48299086Y-60444363D01*
X48299581Y-60470622D01*
X48299457Y-60488737D01*
X48298434Y-60500722D01*
X48296231Y-60508587D01*
X48292568Y-60514344D01*
X48288749Y-60518432D01*
X48275533Y-60527770D01*
X48254174Y-60538231D01*
X48226517Y-60549077D01*
X48194408Y-60559571D01*
X48166982Y-60567157D01*
X48120675Y-60575800D01*
X48070106Y-60579873D01*
X48019989Y-60579166D01*
X47985057Y-60575294D01*
X47924619Y-60561134D01*
X47871090Y-60539528D01*
X47824472Y-60510479D01*
X47784768Y-60473987D01*
X47756605Y-60437342D01*
X47731264Y-60390221D01*
X47711820Y-60336156D01*
X47698517Y-60276649D01*
X47691603Y-60213199D01*
X47691322Y-60147308D01*
X47697921Y-60080475D01*
X47698023Y-60079800D01*
X47708426Y-60026665D01*
X47722713Y-59981082D01*
X47741886Y-59940858D01*
X47766946Y-59903802D01*
X47791449Y-59875450D01*
X47828546Y-59843330D01*
X47872493Y-59817676D01*
X47922162Y-59798669D01*
X47976422Y-59786486D01*
X48034145Y-59781308D01*
X48094200Y-59783312D01*
X48094200Y-59783312D01*
G37*
X48094200Y-59783312D02*
X48155458Y-59792679D01*
X48213648Y-59808529D01*
X48237347Y-59817089D01*
X48259141Y-59826140D01*
X48276137Y-59834418D01*
X48283647Y-59839092D01*
X48300497Y-59851944D01*
X48299078Y-59916342D01*
X48297660Y-59980740D01*
X48282420Y-59980123D01*
X48271656Y-59978557D01*
X48253649Y-59974751D01*
X48230916Y-59969278D01*
X48206220Y-59962778D01*
X48179740Y-59955787D01*
X48158202Y-59951028D01*
X48138224Y-59948062D01*
X48116424Y-59946449D01*
X48089422Y-59945751D01*
X48074140Y-59945614D01*
X48044967Y-59945592D01*
X48023724Y-59946111D01*
X48008182Y-59947433D01*
X47996114Y-59949818D01*
X47985292Y-59953524D01*
X47977620Y-59956882D01*
X47948493Y-59974023D01*
X47925111Y-59996410D01*
X47907025Y-60024923D01*
X47893788Y-60060439D01*
X47884954Y-60103838D01*
X47880565Y-60147710D01*
X47879750Y-60193162D01*
X47882812Y-60238356D01*
X47889398Y-60280188D01*
X47899155Y-60315554D01*
X47899878Y-60317522D01*
X47915912Y-60347983D01*
X47939095Y-60375654D01*
X47966705Y-60397600D01*
X47981614Y-60405643D01*
X47993726Y-60410664D01*
X48005356Y-60414028D01*
X48018914Y-60416033D01*
X48036813Y-60416976D01*
X48061462Y-60417156D01*
X48074140Y-60417078D01*
X48104493Y-60416506D01*
X48128548Y-60415012D01*
X48150159Y-60412073D01*
X48173181Y-60407166D01*
X48201140Y-60399860D01*
X48226386Y-60393298D01*
X48249718Y-60387852D01*
X48268497Y-60384098D01*
X48279880Y-60382622D01*
X48297660Y-60382060D01*
X48299086Y-60444363D01*
X48299581Y-60470622D01*
X48299457Y-60488737D01*
X48298434Y-60500722D01*
X48296231Y-60508587D01*
X48292568Y-60514344D01*
X48288749Y-60518432D01*
X48275533Y-60527770D01*
X48254174Y-60538231D01*
X48226517Y-60549077D01*
X48194408Y-60559571D01*
X48166982Y-60567157D01*
X48120675Y-60575800D01*
X48070106Y-60579873D01*
X48019989Y-60579166D01*
X47985057Y-60575294D01*
X47924619Y-60561134D01*
X47871090Y-60539528D01*
X47824472Y-60510479D01*
X47784768Y-60473987D01*
X47756605Y-60437342D01*
X47731264Y-60390221D01*
X47711820Y-60336156D01*
X47698517Y-60276649D01*
X47691603Y-60213199D01*
X47691322Y-60147308D01*
X47697921Y-60080475D01*
X47698023Y-60079800D01*
X47708426Y-60026665D01*
X47722713Y-59981082D01*
X47741886Y-59940858D01*
X47766946Y-59903802D01*
X47791449Y-59875450D01*
X47828546Y-59843330D01*
X47872493Y-59817676D01*
X47922162Y-59798669D01*
X47976422Y-59786486D01*
X48034145Y-59781308D01*
X48094200Y-59783312D01*
G36*
X48567778Y-60648021D02*
X48565172Y-60666899D01*
X48561798Y-60683600D01*
X48559560Y-60691201D01*
X48556583Y-60697745D01*
X48552249Y-60701723D01*
X48544286Y-60703773D01*
X48530422Y-60704532D01*
X48511689Y-60704640D01*
X48488540Y-60704105D01*
X48474161Y-60702366D01*
X48467210Y-60699221D01*
X48466307Y-60697813D01*
X48465989Y-60689477D01*
X48467684Y-60674823D01*
X48470741Y-60657336D01*
X48474510Y-60640504D01*
X48478340Y-60627814D01*
X48480041Y-60624165D01*
X48487219Y-60620978D01*
X48503411Y-60618971D01*
X48527283Y-60618280D01*
X48570887Y-60618280D01*
X48567778Y-60648021D01*
X48567778Y-60648021D01*
G37*
X48567778Y-60648021D02*
X48565172Y-60666899D01*
X48561798Y-60683600D01*
X48559560Y-60691201D01*
X48556583Y-60697745D01*
X48552249Y-60701723D01*
X48544286Y-60703773D01*
X48530422Y-60704532D01*
X48511689Y-60704640D01*
X48488540Y-60704105D01*
X48474161Y-60702366D01*
X48467210Y-60699221D01*
X48466307Y-60697813D01*
X48465989Y-60689477D01*
X48467684Y-60674823D01*
X48470741Y-60657336D01*
X48474510Y-60640504D01*
X48478340Y-60627814D01*
X48480041Y-60624165D01*
X48487219Y-60620978D01*
X48503411Y-60618971D01*
X48527283Y-60618280D01*
X48570887Y-60618280D01*
X48567778Y-60648021D01*
G36*
X47661596Y-60627610D02*
X47667169Y-60627798D01*
X47672513Y-60629204D01*
X47674840Y-60634109D01*
X47674675Y-60644952D01*
X47673412Y-60656914D01*
X47670394Y-60678660D01*
X47666133Y-60692540D01*
X47658556Y-60700317D01*
X47645588Y-60703756D01*
X47625157Y-60704619D01*
X47617304Y-60704640D01*
X47593229Y-60703983D01*
X47578541Y-60701947D01*
X47572547Y-60698433D01*
X47572489Y-60698290D01*
X47572048Y-60690212D01*
X47573265Y-60675558D01*
X47575452Y-60660190D01*
X47579494Y-60641150D01*
X47583976Y-60630943D01*
X47588697Y-60628211D01*
X47607097Y-60627814D01*
X47627615Y-60627570D01*
X47646898Y-60627496D01*
X47661596Y-60627610D01*
X47661596Y-60627610D01*
G37*
X47661596Y-60627610D02*
X47667169Y-60627798D01*
X47672513Y-60629204D01*
X47674840Y-60634109D01*
X47674675Y-60644952D01*
X47673412Y-60656914D01*
X47670394Y-60678660D01*
X47666133Y-60692540D01*
X47658556Y-60700317D01*
X47645588Y-60703756D01*
X47625157Y-60704619D01*
X47617304Y-60704640D01*
X47593229Y-60703983D01*
X47578541Y-60701947D01*
X47572547Y-60698433D01*
X47572489Y-60698290D01*
X47572048Y-60690212D01*
X47573265Y-60675558D01*
X47575452Y-60660190D01*
X47579494Y-60641150D01*
X47583976Y-60630943D01*
X47588697Y-60628211D01*
X47607097Y-60627814D01*
X47627615Y-60627570D01*
X47646898Y-60627496D01*
X47661596Y-60627610D01*
G36*
X48520601Y-60751048D02*
X48534533Y-60753535D01*
X48541756Y-60758450D01*
X48543959Y-60766426D01*
X48543968Y-60767413D01*
X48543097Y-60774879D01*
X48540655Y-60791099D01*
X48536849Y-60814823D01*
X48531884Y-60844801D01*
X48525968Y-60879783D01*
X48519306Y-60918520D01*
X48514160Y-60948057D01*
X48505723Y-60995724D01*
X48498682Y-61034268D01*
X48492836Y-61064602D01*
X48487984Y-61087636D01*
X48483924Y-61104282D01*
X48480455Y-61115450D01*
X48477376Y-61122052D01*
X48475160Y-61124587D01*
X48463665Y-61128810D01*
X48446303Y-61130915D01*
X48427107Y-61130889D01*
X48410107Y-61128719D01*
X48399898Y-61124835D01*
X48397605Y-61122606D01*
X48396065Y-61119088D01*
X48395400Y-61113268D01*
X48395734Y-61104133D01*
X48397189Y-61090670D01*
X48399889Y-61071867D01*
X48403957Y-61046710D01*
X48409514Y-61014186D01*
X48416685Y-60973282D01*
X48421787Y-60944441D01*
X48428988Y-60903751D01*
X48435591Y-60866323D01*
X48441395Y-60833310D01*
X48446197Y-60805866D01*
X48449797Y-60785146D01*
X48451991Y-60772304D01*
X48452600Y-60768448D01*
X48455737Y-60763626D01*
X48460582Y-60758342D01*
X48471855Y-60752781D01*
X48491763Y-60750456D01*
X48498267Y-60750360D01*
X48520601Y-60751048D01*
X48520601Y-60751048D01*
G37*
X48520601Y-60751048D02*
X48534533Y-60753535D01*
X48541756Y-60758450D01*
X48543959Y-60766426D01*
X48543968Y-60767413D01*
X48543097Y-60774879D01*
X48540655Y-60791099D01*
X48536849Y-60814823D01*
X48531884Y-60844801D01*
X48525968Y-60879783D01*
X48519306Y-60918520D01*
X48514160Y-60948057D01*
X48505723Y-60995724D01*
X48498682Y-61034268D01*
X48492836Y-61064602D01*
X48487984Y-61087636D01*
X48483924Y-61104282D01*
X48480455Y-61115450D01*
X48477376Y-61122052D01*
X48475160Y-61124587D01*
X48463665Y-61128810D01*
X48446303Y-61130915D01*
X48427107Y-61130889D01*
X48410107Y-61128719D01*
X48399898Y-61124835D01*
X48397605Y-61122606D01*
X48396065Y-61119088D01*
X48395400Y-61113268D01*
X48395734Y-61104133D01*
X48397189Y-61090670D01*
X48399889Y-61071867D01*
X48403957Y-61046710D01*
X48409514Y-61014186D01*
X48416685Y-60973282D01*
X48421787Y-60944441D01*
X48428988Y-60903751D01*
X48435591Y-60866323D01*
X48441395Y-60833310D01*
X48446197Y-60805866D01*
X48449797Y-60785146D01*
X48451991Y-60772304D01*
X48452600Y-60768448D01*
X48455737Y-60763626D01*
X48460582Y-60758342D01*
X48471855Y-60752781D01*
X48491763Y-60750456D01*
X48498267Y-60750360D01*
X48520601Y-60751048D01*
G36*
X47918564Y-60749362D02*
X47943183Y-60752054D01*
X47956574Y-60754982D01*
X47984105Y-60767783D01*
X48004932Y-60788016D01*
X48018773Y-60815241D01*
X48025346Y-60849014D01*
X48025880Y-60863239D01*
X48025004Y-60874553D01*
X48022552Y-60894105D01*
X48018782Y-60920142D01*
X48013954Y-60950907D01*
X48008329Y-60984648D01*
X48005322Y-61001959D01*
X47997840Y-61043253D01*
X47991554Y-61075246D01*
X47986282Y-61098706D01*
X47981845Y-61114398D01*
X47978062Y-61123088D01*
X47976411Y-61125010D01*
X47966550Y-61128480D01*
X47950367Y-61130555D01*
X47931615Y-61131158D01*
X47914047Y-61130215D01*
X47901414Y-61127650D01*
X47899171Y-61126567D01*
X47897102Y-61123904D01*
X47896091Y-61118398D01*
X47896260Y-61108921D01*
X47897735Y-61094348D01*
X47900639Y-61073549D01*
X47905095Y-61045400D01*
X47911229Y-61008772D01*
X47913736Y-60994081D01*
X47920792Y-60952444D01*
X47926043Y-60919591D01*
X47929476Y-60894305D01*
X47931075Y-60875369D01*
X47930824Y-60861566D01*
X47928708Y-60851679D01*
X47924710Y-60844491D01*
X47918817Y-60838784D01*
X47911694Y-60833788D01*
X47902042Y-60829197D01*
X47889318Y-60827091D01*
X47870639Y-60827127D01*
X47860574Y-60827682D01*
X47841823Y-60829258D01*
X47827268Y-60831178D01*
X47819674Y-60833064D01*
X47819301Y-60833324D01*
X47817623Y-60838972D01*
X47814472Y-60853331D01*
X47810104Y-60875100D01*
X47804770Y-60902978D01*
X47798724Y-60935665D01*
X47792221Y-60971858D01*
X47791207Y-60977592D01*
X47783061Y-61022859D01*
X47776218Y-61058818D01*
X47770511Y-61086216D01*
X47765771Y-61105799D01*
X47761830Y-61118311D01*
X47758520Y-61124500D01*
X47757965Y-61125010D01*
X47748087Y-61128489D01*
X47731889Y-61130562D01*
X47713122Y-61131153D01*
X47695539Y-61130191D01*
X47682889Y-61127602D01*
X47680654Y-61126520D01*
X47678844Y-61124072D01*
X47677946Y-61118904D01*
X47678087Y-61110050D01*
X47679388Y-61096547D01*
X47681975Y-61077432D01*
X47685972Y-61051740D01*
X47691502Y-61018508D01*
X47698689Y-60976771D01*
X47703319Y-60950263D01*
X47712566Y-60898360D01*
X47720452Y-60856007D01*
X47727087Y-60822701D01*
X47732576Y-60797939D01*
X47737028Y-60781218D01*
X47740549Y-60772034D01*
X47741738Y-60770341D01*
X47753064Y-60764108D01*
X47772467Y-60758708D01*
X47797888Y-60754289D01*
X47827268Y-60750997D01*
X47858547Y-60748981D01*
X47889665Y-60748387D01*
X47918564Y-60749362D01*
X47918564Y-60749362D01*
G37*
X47918564Y-60749362D02*
X47943183Y-60752054D01*
X47956574Y-60754982D01*
X47984105Y-60767783D01*
X48004932Y-60788016D01*
X48018773Y-60815241D01*
X48025346Y-60849014D01*
X48025880Y-60863239D01*
X48025004Y-60874553D01*
X48022552Y-60894105D01*
X48018782Y-60920142D01*
X48013954Y-60950907D01*
X48008329Y-60984648D01*
X48005322Y-61001959D01*
X47997840Y-61043253D01*
X47991554Y-61075246D01*
X47986282Y-61098706D01*
X47981845Y-61114398D01*
X47978062Y-61123088D01*
X47976411Y-61125010D01*
X47966550Y-61128480D01*
X47950367Y-61130555D01*
X47931615Y-61131158D01*
X47914047Y-61130215D01*
X47901414Y-61127650D01*
X47899171Y-61126567D01*
X47897102Y-61123904D01*
X47896091Y-61118398D01*
X47896260Y-61108921D01*
X47897735Y-61094348D01*
X47900639Y-61073549D01*
X47905095Y-61045400D01*
X47911229Y-61008772D01*
X47913736Y-60994081D01*
X47920792Y-60952444D01*
X47926043Y-60919591D01*
X47929476Y-60894305D01*
X47931075Y-60875369D01*
X47930824Y-60861566D01*
X47928708Y-60851679D01*
X47924710Y-60844491D01*
X47918817Y-60838784D01*
X47911694Y-60833788D01*
X47902042Y-60829197D01*
X47889318Y-60827091D01*
X47870639Y-60827127D01*
X47860574Y-60827682D01*
X47841823Y-60829258D01*
X47827268Y-60831178D01*
X47819674Y-60833064D01*
X47819301Y-60833324D01*
X47817623Y-60838972D01*
X47814472Y-60853331D01*
X47810104Y-60875100D01*
X47804770Y-60902978D01*
X47798724Y-60935665D01*
X47792221Y-60971858D01*
X47791207Y-60977592D01*
X47783061Y-61022859D01*
X47776218Y-61058818D01*
X47770511Y-61086216D01*
X47765771Y-61105799D01*
X47761830Y-61118311D01*
X47758520Y-61124500D01*
X47757965Y-61125010D01*
X47748087Y-61128489D01*
X47731889Y-61130562D01*
X47713122Y-61131153D01*
X47695539Y-61130191D01*
X47682889Y-61127602D01*
X47680654Y-61126520D01*
X47678844Y-61124072D01*
X47677946Y-61118904D01*
X47678087Y-61110050D01*
X47679388Y-61096547D01*
X47681975Y-61077432D01*
X47685972Y-61051740D01*
X47691502Y-61018508D01*
X47698689Y-60976771D01*
X47703319Y-60950263D01*
X47712566Y-60898360D01*
X47720452Y-60856007D01*
X47727087Y-60822701D01*
X47732576Y-60797939D01*
X47737028Y-60781218D01*
X47740549Y-60772034D01*
X47741738Y-60770341D01*
X47753064Y-60764108D01*
X47772467Y-60758708D01*
X47797888Y-60754289D01*
X47827268Y-60750997D01*
X47858547Y-60748981D01*
X47889665Y-60748387D01*
X47918564Y-60749362D01*
G36*
X47597233Y-60751047D02*
X47608038Y-60751416D01*
X47627861Y-60752348D01*
X47639712Y-60753802D01*
X47645775Y-60756536D01*
X47648234Y-60761309D01*
X47648906Y-60765614D01*
X47648381Y-60773198D01*
X47646283Y-60789148D01*
X47642853Y-60812069D01*
X47638334Y-60840564D01*
X47632969Y-60873239D01*
X47627000Y-60908699D01*
X47620669Y-60945547D01*
X47614219Y-60982389D01*
X47607892Y-61017829D01*
X47601931Y-61050472D01*
X47596577Y-61078922D01*
X47592075Y-61101783D01*
X47588665Y-61117662D01*
X47586591Y-61125161D01*
X47586375Y-61125517D01*
X47578484Y-61128337D01*
X47563880Y-61129982D01*
X47545941Y-61130457D01*
X47528045Y-61129768D01*
X47513571Y-61127919D01*
X47506427Y-61125399D01*
X47504129Y-61123111D01*
X47502582Y-61119553D01*
X47501910Y-61113707D01*
X47502233Y-61104553D01*
X47503675Y-61091074D01*
X47506356Y-61072252D01*
X47510399Y-61047067D01*
X47515926Y-61014502D01*
X47523058Y-60973538D01*
X47527907Y-60945940D01*
X47535224Y-60904858D01*
X47542208Y-60866596D01*
X47548619Y-60832399D01*
X47554215Y-60803515D01*
X47558758Y-60781188D01*
X47562006Y-60766665D01*
X47563477Y-60761576D01*
X47566822Y-60755723D01*
X47571967Y-60752382D01*
X47581306Y-60751005D01*
X47597233Y-60751047D01*
X47597233Y-60751047D01*
G37*
X47597233Y-60751047D02*
X47608038Y-60751416D01*
X47627861Y-60752348D01*
X47639712Y-60753802D01*
X47645775Y-60756536D01*
X47648234Y-60761309D01*
X47648906Y-60765614D01*
X47648381Y-60773198D01*
X47646283Y-60789148D01*
X47642853Y-60812069D01*
X47638334Y-60840564D01*
X47632969Y-60873239D01*
X47627000Y-60908699D01*
X47620669Y-60945547D01*
X47614219Y-60982389D01*
X47607892Y-61017829D01*
X47601931Y-61050472D01*
X47596577Y-61078922D01*
X47592075Y-61101783D01*
X47588665Y-61117662D01*
X47586591Y-61125161D01*
X47586375Y-61125517D01*
X47578484Y-61128337D01*
X47563880Y-61129982D01*
X47545941Y-61130457D01*
X47528045Y-61129768D01*
X47513571Y-61127919D01*
X47506427Y-61125399D01*
X47504129Y-61123111D01*
X47502582Y-61119553D01*
X47501910Y-61113707D01*
X47502233Y-61104553D01*
X47503675Y-61091074D01*
X47506356Y-61072252D01*
X47510399Y-61047067D01*
X47515926Y-61014502D01*
X47523058Y-60973538D01*
X47527907Y-60945940D01*
X47535224Y-60904858D01*
X47542208Y-60866596D01*
X47548619Y-60832399D01*
X47554215Y-60803515D01*
X47558758Y-60781188D01*
X47562006Y-60766665D01*
X47563477Y-60761576D01*
X47566822Y-60755723D01*
X47571967Y-60752382D01*
X47581306Y-60751005D01*
X47597233Y-60751047D01*
G36*
X49179116Y-60748959D02*
X49206313Y-60751790D01*
X49217610Y-60754370D01*
X49242442Y-60766695D01*
X49264252Y-60787360D01*
X49281375Y-60814635D01*
X49285836Y-60825117D01*
X49291409Y-60841681D01*
X49294418Y-60856932D01*
X49295280Y-60874585D01*
X49294416Y-60898358D01*
X49294309Y-60900220D01*
X49292508Y-60922536D01*
X49290009Y-60942474D01*
X49287255Y-60956747D01*
X49286269Y-60959910D01*
X49280891Y-60973880D01*
X49169549Y-60973880D01*
X49132658Y-60973959D01*
X49104685Y-60974255D01*
X49084385Y-60974856D01*
X49070517Y-60975848D01*
X49061837Y-60977319D01*
X49057104Y-60979356D01*
X49055123Y-60981915D01*
X49052502Y-61001779D01*
X49058154Y-61021668D01*
X49070675Y-61038505D01*
X49085234Y-61047940D01*
X49106624Y-61053611D01*
X49133366Y-61054576D01*
X49166901Y-61050822D01*
X49187483Y-61047003D01*
X49208538Y-61042731D01*
X49227531Y-61038948D01*
X49240791Y-61036385D01*
X49242050Y-61036152D01*
X49256801Y-61033457D01*
X49253487Y-61061656D01*
X49251163Y-61078632D01*
X49248745Y-61092035D01*
X49247414Y-61097043D01*
X49240728Y-61103096D01*
X49226236Y-61110092D01*
X49206155Y-61117284D01*
X49182697Y-61123927D01*
X49158077Y-61129273D01*
X49146020Y-61131227D01*
X49123298Y-61134194D01*
X49106798Y-61135447D01*
X49092721Y-61134967D01*
X49077271Y-61132737D01*
X49067324Y-61130859D01*
X49031801Y-61119715D01*
X49003650Y-61101586D01*
X48982772Y-61076372D01*
X48969068Y-61043975D01*
X48965458Y-61028365D01*
X48963324Y-61013329D01*
X48962852Y-60998002D01*
X48964190Y-60979715D01*
X48967487Y-60955798D01*
X48970505Y-60937403D01*
X48978237Y-60901380D01*
X49069926Y-60901380D01*
X49071012Y-60904799D01*
X49077089Y-60905957D01*
X49091266Y-60906710D01*
X49111490Y-60906999D01*
X49135708Y-60906765D01*
X49138121Y-60906714D01*
X49201900Y-60905300D01*
X49203458Y-60886555D01*
X49201292Y-60862637D01*
X49191140Y-60844226D01*
X49174096Y-60832272D01*
X49151253Y-60827723D01*
X49136743Y-60828702D01*
X49114296Y-60836087D01*
X49098830Y-60848339D01*
X49088098Y-60861550D01*
X49078802Y-60876622D01*
X49072294Y-60890813D01*
X49069926Y-60901380D01*
X48978237Y-60901380D01*
X48981259Y-60887302D01*
X48995232Y-60846217D01*
X49012951Y-60813371D01*
X49034942Y-60787983D01*
X49061729Y-60769274D01*
X49092289Y-60756921D01*
X49118045Y-60751607D01*
X49148340Y-60748925D01*
X49179116Y-60748959D01*
X49179116Y-60748959D01*
G37*
X49179116Y-60748959D02*
X49206313Y-60751790D01*
X49217610Y-60754370D01*
X49242442Y-60766695D01*
X49264252Y-60787360D01*
X49281375Y-60814635D01*
X49285836Y-60825117D01*
X49291409Y-60841681D01*
X49294418Y-60856932D01*
X49295280Y-60874585D01*
X49294416Y-60898358D01*
X49294309Y-60900220D01*
X49292508Y-60922536D01*
X49290009Y-60942474D01*
X49287255Y-60956747D01*
X49286269Y-60959910D01*
X49280891Y-60973880D01*
X49169549Y-60973880D01*
X49132658Y-60973959D01*
X49104685Y-60974255D01*
X49084385Y-60974856D01*
X49070517Y-60975848D01*
X49061837Y-60977319D01*
X49057104Y-60979356D01*
X49055123Y-60981915D01*
X49052502Y-61001779D01*
X49058154Y-61021668D01*
X49070675Y-61038505D01*
X49085234Y-61047940D01*
X49106624Y-61053611D01*
X49133366Y-61054576D01*
X49166901Y-61050822D01*
X49187483Y-61047003D01*
X49208538Y-61042731D01*
X49227531Y-61038948D01*
X49240791Y-61036385D01*
X49242050Y-61036152D01*
X49256801Y-61033457D01*
X49253487Y-61061656D01*
X49251163Y-61078632D01*
X49248745Y-61092035D01*
X49247414Y-61097043D01*
X49240728Y-61103096D01*
X49226236Y-61110092D01*
X49206155Y-61117284D01*
X49182697Y-61123927D01*
X49158077Y-61129273D01*
X49146020Y-61131227D01*
X49123298Y-61134194D01*
X49106798Y-61135447D01*
X49092721Y-61134967D01*
X49077271Y-61132737D01*
X49067324Y-61130859D01*
X49031801Y-61119715D01*
X49003650Y-61101586D01*
X48982772Y-61076372D01*
X48969068Y-61043975D01*
X48965458Y-61028365D01*
X48963324Y-61013329D01*
X48962852Y-60998002D01*
X48964190Y-60979715D01*
X48967487Y-60955798D01*
X48970505Y-60937403D01*
X48978237Y-60901380D01*
X49069926Y-60901380D01*
X49071012Y-60904799D01*
X49077089Y-60905957D01*
X49091266Y-60906710D01*
X49111490Y-60906999D01*
X49135708Y-60906765D01*
X49138121Y-60906714D01*
X49201900Y-60905300D01*
X49203458Y-60886555D01*
X49201292Y-60862637D01*
X49191140Y-60844226D01*
X49174096Y-60832272D01*
X49151253Y-60827723D01*
X49136743Y-60828702D01*
X49114296Y-60836087D01*
X49098830Y-60848339D01*
X49088098Y-60861550D01*
X49078802Y-60876622D01*
X49072294Y-60890813D01*
X49069926Y-60901380D01*
X48978237Y-60901380D01*
X48981259Y-60887302D01*
X48995232Y-60846217D01*
X49012951Y-60813371D01*
X49034942Y-60787983D01*
X49061729Y-60769274D01*
X49092289Y-60756921D01*
X49118045Y-60751607D01*
X49148340Y-60748925D01*
X49179116Y-60748959D01*
G36*
X48928351Y-60619384D02*
X48941969Y-60622798D01*
X48948786Y-60629318D01*
X48950440Y-60638240D01*
X48949544Y-60648415D01*
X48947006Y-60666789D01*
X48943046Y-60692160D01*
X48937887Y-60723326D01*
X48931752Y-60759084D01*
X48924861Y-60798231D01*
X48917437Y-60839564D01*
X48909701Y-60881881D01*
X48901877Y-60923979D01*
X48894185Y-60964656D01*
X48886847Y-61002708D01*
X48880086Y-61036933D01*
X48874124Y-61066129D01*
X48869182Y-61089092D01*
X48865483Y-61104620D01*
X48863248Y-61111511D01*
X48863059Y-61111721D01*
X48851733Y-61116099D01*
X48831948Y-61120834D01*
X48805380Y-61125598D01*
X48773707Y-61130063D01*
X48762480Y-61131408D01*
X48737752Y-61134061D01*
X48720050Y-61135347D01*
X48706336Y-61135329D01*
X48693577Y-61134065D01*
X48686280Y-61132930D01*
X48649796Y-61122902D01*
X48620499Y-61106432D01*
X48598881Y-61083894D01*
X48585495Y-61055879D01*
X48580899Y-61029777D01*
X48580716Y-61022722D01*
X48671533Y-61022722D01*
X48673081Y-61031729D01*
X48676616Y-61037963D01*
X48681883Y-61043284D01*
X48694618Y-61051957D01*
X48706600Y-61056453D01*
X48718674Y-61057293D01*
X48735449Y-61057010D01*
X48753642Y-61055850D01*
X48769968Y-61054058D01*
X48781144Y-61051881D01*
X48783846Y-61050665D01*
X48785603Y-61045098D01*
X48788722Y-61031315D01*
X48792872Y-61011116D01*
X48797720Y-60986303D01*
X48802936Y-60958677D01*
X48808188Y-60930040D01*
X48813144Y-60902192D01*
X48817473Y-60876935D01*
X48820844Y-60856071D01*
X48822925Y-60841400D01*
X48823440Y-60835506D01*
X48820506Y-60830643D01*
X48810643Y-60827129D01*
X48792257Y-60824404D01*
X48791651Y-60824339D01*
X48761583Y-60823661D01*
X48736678Y-60829052D01*
X48716497Y-60841110D01*
X48700601Y-60860434D01*
X48688553Y-60887624D01*
X48679913Y-60923277D01*
X48674243Y-60967993D01*
X48672835Y-60986580D01*
X48671582Y-61008489D01*
X48671533Y-61022722D01*
X48580716Y-61022722D01*
X48580036Y-60996641D01*
X48582695Y-60958798D01*
X48588664Y-60918575D01*
X48597731Y-60878302D01*
X48603467Y-60858532D01*
X48619573Y-60823271D01*
X48643323Y-60794093D01*
X48673907Y-60771448D01*
X48710515Y-60755784D01*
X48752335Y-60747548D01*
X48798559Y-60747191D01*
X48803752Y-60747640D01*
X48823298Y-60748926D01*
X48834671Y-60748049D01*
X48839662Y-60744844D01*
X48839933Y-60744254D01*
X48841779Y-60736773D01*
X48844818Y-60721625D01*
X48848595Y-60701168D01*
X48851854Y-60682497D01*
X48856687Y-60656081D01*
X48861486Y-60638111D01*
X48867623Y-60626969D01*
X48876471Y-60621041D01*
X48889402Y-60618708D01*
X48906320Y-60618349D01*
X48928351Y-60619384D01*
X48928351Y-60619384D01*
G37*
X48928351Y-60619384D02*
X48941969Y-60622798D01*
X48948786Y-60629318D01*
X48950440Y-60638240D01*
X48949544Y-60648415D01*
X48947006Y-60666789D01*
X48943046Y-60692160D01*
X48937887Y-60723326D01*
X48931752Y-60759084D01*
X48924861Y-60798231D01*
X48917437Y-60839564D01*
X48909701Y-60881881D01*
X48901877Y-60923979D01*
X48894185Y-60964656D01*
X48886847Y-61002708D01*
X48880086Y-61036933D01*
X48874124Y-61066129D01*
X48869182Y-61089092D01*
X48865483Y-61104620D01*
X48863248Y-61111511D01*
X48863059Y-61111721D01*
X48851733Y-61116099D01*
X48831948Y-61120834D01*
X48805380Y-61125598D01*
X48773707Y-61130063D01*
X48762480Y-61131408D01*
X48737752Y-61134061D01*
X48720050Y-61135347D01*
X48706336Y-61135329D01*
X48693577Y-61134065D01*
X48686280Y-61132930D01*
X48649796Y-61122902D01*
X48620499Y-61106432D01*
X48598881Y-61083894D01*
X48585495Y-61055879D01*
X48580899Y-61029777D01*
X48580716Y-61022722D01*
X48671533Y-61022722D01*
X48673081Y-61031729D01*
X48676616Y-61037963D01*
X48681883Y-61043284D01*
X48694618Y-61051957D01*
X48706600Y-61056453D01*
X48718674Y-61057293D01*
X48735449Y-61057010D01*
X48753642Y-61055850D01*
X48769968Y-61054058D01*
X48781144Y-61051881D01*
X48783846Y-61050665D01*
X48785603Y-61045098D01*
X48788722Y-61031315D01*
X48792872Y-61011116D01*
X48797720Y-60986303D01*
X48802936Y-60958677D01*
X48808188Y-60930040D01*
X48813144Y-60902192D01*
X48817473Y-60876935D01*
X48820844Y-60856071D01*
X48822925Y-60841400D01*
X48823440Y-60835506D01*
X48820506Y-60830643D01*
X48810643Y-60827129D01*
X48792257Y-60824404D01*
X48791651Y-60824339D01*
X48761583Y-60823661D01*
X48736678Y-60829052D01*
X48716497Y-60841110D01*
X48700601Y-60860434D01*
X48688553Y-60887624D01*
X48679913Y-60923277D01*
X48674243Y-60967993D01*
X48672835Y-60986580D01*
X48671582Y-61008489D01*
X48671533Y-61022722D01*
X48580716Y-61022722D01*
X48580036Y-60996641D01*
X48582695Y-60958798D01*
X48588664Y-60918575D01*
X48597731Y-60878302D01*
X48603467Y-60858532D01*
X48619573Y-60823271D01*
X48643323Y-60794093D01*
X48673907Y-60771448D01*
X48710515Y-60755784D01*
X48752335Y-60747548D01*
X48798559Y-60747191D01*
X48803752Y-60747640D01*
X48823298Y-60748926D01*
X48834671Y-60748049D01*
X48839662Y-60744844D01*
X48839933Y-60744254D01*
X48841779Y-60736773D01*
X48844818Y-60721625D01*
X48848595Y-60701168D01*
X48851854Y-60682497D01*
X48856687Y-60656081D01*
X48861486Y-60638111D01*
X48867623Y-60626969D01*
X48876471Y-60621041D01*
X48889402Y-60618708D01*
X48906320Y-60618349D01*
X48928351Y-60619384D01*
G36*
X48276567Y-60749339D02*
X48310459Y-60755609D01*
X48337293Y-60762513D01*
X48356153Y-60769746D01*
X48366122Y-60777001D01*
X48367380Y-60779661D01*
X48367541Y-60790484D01*
X48365547Y-60805950D01*
X48362194Y-60821971D01*
X48358274Y-60834462D01*
X48355921Y-60838629D01*
X48349156Y-60839713D01*
X48335166Y-60838219D01*
X48316473Y-60834429D01*
X48315031Y-60834080D01*
X48288252Y-60828808D01*
X48261309Y-60825728D01*
X48236575Y-60824897D01*
X48216419Y-60826368D01*
X48203212Y-60830198D01*
X48201402Y-60831422D01*
X48195242Y-60842052D01*
X48194533Y-60851399D01*
X48197134Y-60858365D01*
X48204173Y-60866806D01*
X48216820Y-60877783D01*
X48236245Y-60892357D01*
X48251940Y-60903479D01*
X48280190Y-60923737D01*
X48300967Y-60940180D01*
X48315491Y-60954254D01*
X48324979Y-60967407D01*
X48330650Y-60981086D01*
X48333722Y-60996740D01*
X48334240Y-61001263D01*
X48333714Y-61036984D01*
X48324632Y-61067973D01*
X48307449Y-61093488D01*
X48282624Y-61112791D01*
X48259304Y-61122732D01*
X48218379Y-61131524D01*
X48174877Y-61134040D01*
X48142555Y-61131354D01*
X48120642Y-61126795D01*
X48097799Y-61120408D01*
X48089215Y-61117454D01*
X48063980Y-61107987D01*
X48064592Y-61078674D01*
X48065783Y-61061813D01*
X48068215Y-61048956D01*
X48070446Y-61044121D01*
X48078153Y-61042047D01*
X48094025Y-61043587D01*
X48113013Y-61047443D01*
X48139863Y-61052406D01*
X48166797Y-61055320D01*
X48191474Y-61056133D01*
X48211552Y-61054794D01*
X48224689Y-61051252D01*
X48226714Y-61049935D01*
X48239101Y-61035547D01*
X48241334Y-61021366D01*
X48237610Y-61012656D01*
X48230670Y-61005450D01*
X48217203Y-60994124D01*
X48199126Y-60980210D01*
X48178356Y-60965239D01*
X48177559Y-60964683D01*
X48156561Y-60949592D01*
X48138025Y-60935397D01*
X48123926Y-60923669D01*
X48116243Y-60915982D01*
X48116150Y-60915853D01*
X48104018Y-60891110D01*
X48098618Y-60862111D01*
X48100017Y-60832266D01*
X48108281Y-60804988D01*
X48113772Y-60795182D01*
X48131066Y-60777465D01*
X48156072Y-60763237D01*
X48186772Y-60753067D01*
X48221146Y-60747523D01*
X48257175Y-60747174D01*
X48276567Y-60749339D01*
X48276567Y-60749339D01*
G37*
X48276567Y-60749339D02*
X48310459Y-60755609D01*
X48337293Y-60762513D01*
X48356153Y-60769746D01*
X48366122Y-60777001D01*
X48367380Y-60779661D01*
X48367541Y-60790484D01*
X48365547Y-60805950D01*
X48362194Y-60821971D01*
X48358274Y-60834462D01*
X48355921Y-60838629D01*
X48349156Y-60839713D01*
X48335166Y-60838219D01*
X48316473Y-60834429D01*
X48315031Y-60834080D01*
X48288252Y-60828808D01*
X48261309Y-60825728D01*
X48236575Y-60824897D01*
X48216419Y-60826368D01*
X48203212Y-60830198D01*
X48201402Y-60831422D01*
X48195242Y-60842052D01*
X48194533Y-60851399D01*
X48197134Y-60858365D01*
X48204173Y-60866806D01*
X48216820Y-60877783D01*
X48236245Y-60892357D01*
X48251940Y-60903479D01*
X48280190Y-60923737D01*
X48300967Y-60940180D01*
X48315491Y-60954254D01*
X48324979Y-60967407D01*
X48330650Y-60981086D01*
X48333722Y-60996740D01*
X48334240Y-61001263D01*
X48333714Y-61036984D01*
X48324632Y-61067973D01*
X48307449Y-61093488D01*
X48282624Y-61112791D01*
X48259304Y-61122732D01*
X48218379Y-61131524D01*
X48174877Y-61134040D01*
X48142555Y-61131354D01*
X48120642Y-61126795D01*
X48097799Y-61120408D01*
X48089215Y-61117454D01*
X48063980Y-61107987D01*
X48064592Y-61078674D01*
X48065783Y-61061813D01*
X48068215Y-61048956D01*
X48070446Y-61044121D01*
X48078153Y-61042047D01*
X48094025Y-61043587D01*
X48113013Y-61047443D01*
X48139863Y-61052406D01*
X48166797Y-61055320D01*
X48191474Y-61056133D01*
X48211552Y-61054794D01*
X48224689Y-61051252D01*
X48226714Y-61049935D01*
X48239101Y-61035547D01*
X48241334Y-61021366D01*
X48237610Y-61012656D01*
X48230670Y-61005450D01*
X48217203Y-60994124D01*
X48199126Y-60980210D01*
X48178356Y-60965239D01*
X48177559Y-60964683D01*
X48156561Y-60949592D01*
X48138025Y-60935397D01*
X48123926Y-60923669D01*
X48116243Y-60915982D01*
X48116150Y-60915853D01*
X48104018Y-60891110D01*
X48098618Y-60862111D01*
X48100017Y-60832266D01*
X48108281Y-60804988D01*
X48113772Y-60795182D01*
X48131066Y-60777465D01*
X48156072Y-60763237D01*
X48186772Y-60753067D01*
X48221146Y-60747523D01*
X48257175Y-60747174D01*
X48276567Y-60749339D01*
D12*
G04 #@! TO.C,REF\002A\002A*
X79240000Y-41110000D02*
X79240000Y-40000000D01*
X80000000Y-41110000D02*
X79240000Y-41110000D01*
X80760000Y-39436529D02*
X80760000Y-38890000D01*
X80760000Y-41110000D02*
X80760000Y-40563471D01*
X80760000Y-38890000D02*
X80695000Y-38890000D01*
X80760000Y-41110000D02*
X80695000Y-41110000D01*
X80760000Y-41110000D02*
X80760000Y-38890000D01*
X25640000Y-41110000D02*
X25640000Y-40000000D01*
X26400000Y-41110000D02*
X25640000Y-41110000D01*
X27160000Y-39436529D02*
X27160000Y-38890000D01*
X27160000Y-41110000D02*
X27160000Y-40563471D01*
X27160000Y-38890000D02*
X27095000Y-38890000D01*
X27160000Y-41110000D02*
X27095000Y-41110000D01*
X27160000Y-41110000D02*
X27160000Y-38890000D01*
G04 #@! TO.C,BT1*
D11*
X25384285Y-36758571D02*
X25527142Y-36806190D01*
X25574761Y-36853809D01*
X25622380Y-36949047D01*
X25622380Y-37091904D01*
X25574761Y-37187142D01*
X25527142Y-37234761D01*
X25431904Y-37282380D01*
X25050952Y-37282380D01*
X25050952Y-36282380D01*
X25384285Y-36282380D01*
X25479523Y-36330000D01*
X25527142Y-36377619D01*
X25574761Y-36472857D01*
X25574761Y-36568095D01*
X25527142Y-36663333D01*
X25479523Y-36710952D01*
X25384285Y-36758571D01*
X25050952Y-36758571D01*
X25908095Y-36282380D02*
X26479523Y-36282380D01*
X26193809Y-37282380D02*
X26193809Y-36282380D01*
X27336666Y-37282380D02*
X26765238Y-37282380D01*
X27050952Y-37282380D02*
X27050952Y-36282380D01*
X26955714Y-36425238D01*
X26860476Y-36520476D01*
X26765238Y-36568095D01*
G04 #@! TO.C,C1*
X31123333Y-52067142D02*
X31075714Y-52114761D01*
X30932857Y-52162380D01*
X30837619Y-52162380D01*
X30694761Y-52114761D01*
X30599523Y-52019523D01*
X30551904Y-51924285D01*
X30504285Y-51733809D01*
X30504285Y-51590952D01*
X30551904Y-51400476D01*
X30599523Y-51305238D01*
X30694761Y-51210000D01*
X30837619Y-51162380D01*
X30932857Y-51162380D01*
X31075714Y-51210000D01*
X31123333Y-51257619D01*
X32075714Y-52162380D02*
X31504285Y-52162380D01*
X31790000Y-52162380D02*
X31790000Y-51162380D01*
X31694761Y-51305238D01*
X31599523Y-51400476D01*
X31504285Y-51448095D01*
G04 #@! TO.C,C2*
X31533333Y-41567142D02*
X31485714Y-41614761D01*
X31342857Y-41662380D01*
X31247619Y-41662380D01*
X31104761Y-41614761D01*
X31009523Y-41519523D01*
X30961904Y-41424285D01*
X30914285Y-41233809D01*
X30914285Y-41090952D01*
X30961904Y-40900476D01*
X31009523Y-40805238D01*
X31104761Y-40710000D01*
X31247619Y-40662380D01*
X31342857Y-40662380D01*
X31485714Y-40710000D01*
X31533333Y-40757619D01*
X31914285Y-40757619D02*
X31961904Y-40710000D01*
X32057142Y-40662380D01*
X32295238Y-40662380D01*
X32390476Y-40710000D01*
X32438095Y-40757619D01*
X32485714Y-40852857D01*
X32485714Y-40948095D01*
X32438095Y-41090952D01*
X31866666Y-41662380D01*
X32485714Y-41662380D01*
G04 #@! TO.C,C3*
X43533333Y-29577142D02*
X43485714Y-29624761D01*
X43342857Y-29672380D01*
X43247619Y-29672380D01*
X43104761Y-29624761D01*
X43009523Y-29529523D01*
X42961904Y-29434285D01*
X42914285Y-29243809D01*
X42914285Y-29100952D01*
X42961904Y-28910476D01*
X43009523Y-28815238D01*
X43104761Y-28720000D01*
X43247619Y-28672380D01*
X43342857Y-28672380D01*
X43485714Y-28720000D01*
X43533333Y-28767619D01*
X43866666Y-28672380D02*
X44485714Y-28672380D01*
X44152380Y-29053333D01*
X44295238Y-29053333D01*
X44390476Y-29100952D01*
X44438095Y-29148571D01*
X44485714Y-29243809D01*
X44485714Y-29481904D01*
X44438095Y-29577142D01*
X44390476Y-29624761D01*
X44295238Y-29672380D01*
X44009523Y-29672380D01*
X43914285Y-29624761D01*
X43866666Y-29577142D01*
G04 #@! TO.C,C7*
X66543333Y-49107142D02*
X66495714Y-49154761D01*
X66352857Y-49202380D01*
X66257619Y-49202380D01*
X66114761Y-49154761D01*
X66019523Y-49059523D01*
X65971904Y-48964285D01*
X65924285Y-48773809D01*
X65924285Y-48630952D01*
X65971904Y-48440476D01*
X66019523Y-48345238D01*
X66114761Y-48250000D01*
X66257619Y-48202380D01*
X66352857Y-48202380D01*
X66495714Y-48250000D01*
X66543333Y-48297619D01*
X66876666Y-48202380D02*
X67543333Y-48202380D01*
X67114761Y-49202380D01*
G04 #@! TO.C,C8*
X63913333Y-37267142D02*
X63865714Y-37314761D01*
X63722857Y-37362380D01*
X63627619Y-37362380D01*
X63484761Y-37314761D01*
X63389523Y-37219523D01*
X63341904Y-37124285D01*
X63294285Y-36933809D01*
X63294285Y-36790952D01*
X63341904Y-36600476D01*
X63389523Y-36505238D01*
X63484761Y-36410000D01*
X63627619Y-36362380D01*
X63722857Y-36362380D01*
X63865714Y-36410000D01*
X63913333Y-36457619D01*
X64484761Y-36790952D02*
X64389523Y-36743333D01*
X64341904Y-36695714D01*
X64294285Y-36600476D01*
X64294285Y-36552857D01*
X64341904Y-36457619D01*
X64389523Y-36410000D01*
X64484761Y-36362380D01*
X64675238Y-36362380D01*
X64770476Y-36410000D01*
X64818095Y-36457619D01*
X64865714Y-36552857D01*
X64865714Y-36600476D01*
X64818095Y-36695714D01*
X64770476Y-36743333D01*
X64675238Y-36790952D01*
X64484761Y-36790952D01*
X64389523Y-36838571D01*
X64341904Y-36886190D01*
X64294285Y-36981428D01*
X64294285Y-37171904D01*
X64341904Y-37267142D01*
X64389523Y-37314761D01*
X64484761Y-37362380D01*
X64675238Y-37362380D01*
X64770476Y-37314761D01*
X64818095Y-37267142D01*
X64865714Y-37171904D01*
X64865714Y-36981428D01*
X64818095Y-36886190D01*
X64770476Y-36838571D01*
X64675238Y-36790952D01*
G04 #@! TO.C,C9*
X58973333Y-34897142D02*
X58925714Y-34944761D01*
X58782857Y-34992380D01*
X58687619Y-34992380D01*
X58544761Y-34944761D01*
X58449523Y-34849523D01*
X58401904Y-34754285D01*
X58354285Y-34563809D01*
X58354285Y-34420952D01*
X58401904Y-34230476D01*
X58449523Y-34135238D01*
X58544761Y-34040000D01*
X58687619Y-33992380D01*
X58782857Y-33992380D01*
X58925714Y-34040000D01*
X58973333Y-34087619D01*
X59449523Y-34992380D02*
X59640000Y-34992380D01*
X59735238Y-34944761D01*
X59782857Y-34897142D01*
X59878095Y-34754285D01*
X59925714Y-34563809D01*
X59925714Y-34182857D01*
X59878095Y-34087619D01*
X59830476Y-34040000D01*
X59735238Y-33992380D01*
X59544761Y-33992380D01*
X59449523Y-34040000D01*
X59401904Y-34087619D01*
X59354285Y-34182857D01*
X59354285Y-34420952D01*
X59401904Y-34516190D01*
X59449523Y-34563809D01*
X59544761Y-34611428D01*
X59735238Y-34611428D01*
X59830476Y-34563809D01*
X59878095Y-34516190D01*
X59925714Y-34420952D01*
G04 #@! TO.C,C10*
X29287142Y-37697142D02*
X29239523Y-37744761D01*
X29096666Y-37792380D01*
X29001428Y-37792380D01*
X28858571Y-37744761D01*
X28763333Y-37649523D01*
X28715714Y-37554285D01*
X28668095Y-37363809D01*
X28668095Y-37220952D01*
X28715714Y-37030476D01*
X28763333Y-36935238D01*
X28858571Y-36840000D01*
X29001428Y-36792380D01*
X29096666Y-36792380D01*
X29239523Y-36840000D01*
X29287142Y-36887619D01*
X30239523Y-37792380D02*
X29668095Y-37792380D01*
X29953809Y-37792380D02*
X29953809Y-36792380D01*
X29858571Y-36935238D01*
X29763333Y-37030476D01*
X29668095Y-37078095D01*
X30858571Y-36792380D02*
X30953809Y-36792380D01*
X31049047Y-36840000D01*
X31096666Y-36887619D01*
X31144285Y-36982857D01*
X31191904Y-37173333D01*
X31191904Y-37411428D01*
X31144285Y-37601904D01*
X31096666Y-37697142D01*
X31049047Y-37744761D01*
X30953809Y-37792380D01*
X30858571Y-37792380D01*
X30763333Y-37744761D01*
X30715714Y-37697142D01*
X30668095Y-37601904D01*
X30620476Y-37411428D01*
X30620476Y-37173333D01*
X30668095Y-36982857D01*
X30715714Y-36887619D01*
X30763333Y-36840000D01*
X30858571Y-36792380D01*
G04 #@! TO.C,C11*
X28967142Y-33107142D02*
X28919523Y-33154761D01*
X28776666Y-33202380D01*
X28681428Y-33202380D01*
X28538571Y-33154761D01*
X28443333Y-33059523D01*
X28395714Y-32964285D01*
X28348095Y-32773809D01*
X28348095Y-32630952D01*
X28395714Y-32440476D01*
X28443333Y-32345238D01*
X28538571Y-32250000D01*
X28681428Y-32202380D01*
X28776666Y-32202380D01*
X28919523Y-32250000D01*
X28967142Y-32297619D01*
X29919523Y-33202380D02*
X29348095Y-33202380D01*
X29633809Y-33202380D02*
X29633809Y-32202380D01*
X29538571Y-32345238D01*
X29443333Y-32440476D01*
X29348095Y-32488095D01*
X30871904Y-33202380D02*
X30300476Y-33202380D01*
X30586190Y-33202380D02*
X30586190Y-32202380D01*
X30490952Y-32345238D01*
X30395714Y-32440476D01*
X30300476Y-32488095D01*
G04 #@! TO.C,C12*
X33437142Y-66887142D02*
X33389523Y-66934761D01*
X33246666Y-66982380D01*
X33151428Y-66982380D01*
X33008571Y-66934761D01*
X32913333Y-66839523D01*
X32865714Y-66744285D01*
X32818095Y-66553809D01*
X32818095Y-66410952D01*
X32865714Y-66220476D01*
X32913333Y-66125238D01*
X33008571Y-66030000D01*
X33151428Y-65982380D01*
X33246666Y-65982380D01*
X33389523Y-66030000D01*
X33437142Y-66077619D01*
X34389523Y-66982380D02*
X33818095Y-66982380D01*
X34103809Y-66982380D02*
X34103809Y-65982380D01*
X34008571Y-66125238D01*
X33913333Y-66220476D01*
X33818095Y-66268095D01*
X34770476Y-66077619D02*
X34818095Y-66030000D01*
X34913333Y-65982380D01*
X35151428Y-65982380D01*
X35246666Y-66030000D01*
X35294285Y-66077619D01*
X35341904Y-66172857D01*
X35341904Y-66268095D01*
X35294285Y-66410952D01*
X34722857Y-66982380D01*
X35341904Y-66982380D01*
G04 #@! TO.C,C13*
X33827142Y-65527142D02*
X33779523Y-65574761D01*
X33636666Y-65622380D01*
X33541428Y-65622380D01*
X33398571Y-65574761D01*
X33303333Y-65479523D01*
X33255714Y-65384285D01*
X33208095Y-65193809D01*
X33208095Y-65050952D01*
X33255714Y-64860476D01*
X33303333Y-64765238D01*
X33398571Y-64670000D01*
X33541428Y-64622380D01*
X33636666Y-64622380D01*
X33779523Y-64670000D01*
X33827142Y-64717619D01*
X34779523Y-65622380D02*
X34208095Y-65622380D01*
X34493809Y-65622380D02*
X34493809Y-64622380D01*
X34398571Y-64765238D01*
X34303333Y-64860476D01*
X34208095Y-64908095D01*
X35112857Y-64622380D02*
X35731904Y-64622380D01*
X35398571Y-65003333D01*
X35541428Y-65003333D01*
X35636666Y-65050952D01*
X35684285Y-65098571D01*
X35731904Y-65193809D01*
X35731904Y-65431904D01*
X35684285Y-65527142D01*
X35636666Y-65574761D01*
X35541428Y-65622380D01*
X35255714Y-65622380D01*
X35160476Y-65574761D01*
X35112857Y-65527142D01*
G04 #@! TO.C,C14*
X64387142Y-43437142D02*
X64339523Y-43484761D01*
X64196666Y-43532380D01*
X64101428Y-43532380D01*
X63958571Y-43484761D01*
X63863333Y-43389523D01*
X63815714Y-43294285D01*
X63768095Y-43103809D01*
X63768095Y-42960952D01*
X63815714Y-42770476D01*
X63863333Y-42675238D01*
X63958571Y-42580000D01*
X64101428Y-42532380D01*
X64196666Y-42532380D01*
X64339523Y-42580000D01*
X64387142Y-42627619D01*
X65339523Y-43532380D02*
X64768095Y-43532380D01*
X65053809Y-43532380D02*
X65053809Y-42532380D01*
X64958571Y-42675238D01*
X64863333Y-42770476D01*
X64768095Y-42818095D01*
X66196666Y-42865714D02*
X66196666Y-43532380D01*
X65958571Y-42484761D02*
X65720476Y-43199047D01*
X66339523Y-43199047D01*
G04 #@! TO.C,C16*
X58087142Y-45197142D02*
X58039523Y-45244761D01*
X57896666Y-45292380D01*
X57801428Y-45292380D01*
X57658571Y-45244761D01*
X57563333Y-45149523D01*
X57515714Y-45054285D01*
X57468095Y-44863809D01*
X57468095Y-44720952D01*
X57515714Y-44530476D01*
X57563333Y-44435238D01*
X57658571Y-44340000D01*
X57801428Y-44292380D01*
X57896666Y-44292380D01*
X58039523Y-44340000D01*
X58087142Y-44387619D01*
X59039523Y-45292380D02*
X58468095Y-45292380D01*
X58753809Y-45292380D02*
X58753809Y-44292380D01*
X58658571Y-44435238D01*
X58563333Y-44530476D01*
X58468095Y-44578095D01*
X59896666Y-44292380D02*
X59706190Y-44292380D01*
X59610952Y-44340000D01*
X59563333Y-44387619D01*
X59468095Y-44530476D01*
X59420476Y-44720952D01*
X59420476Y-45101904D01*
X59468095Y-45197142D01*
X59515714Y-45244761D01*
X59610952Y-45292380D01*
X59801428Y-45292380D01*
X59896666Y-45244761D01*
X59944285Y-45197142D01*
X59991904Y-45101904D01*
X59991904Y-44863809D01*
X59944285Y-44768571D01*
X59896666Y-44720952D01*
X59801428Y-44673333D01*
X59610952Y-44673333D01*
X59515714Y-44720952D01*
X59468095Y-44768571D01*
X59420476Y-44863809D01*
G04 #@! TO.C,C17*
X57427142Y-43757142D02*
X57379523Y-43804761D01*
X57236666Y-43852380D01*
X57141428Y-43852380D01*
X56998571Y-43804761D01*
X56903333Y-43709523D01*
X56855714Y-43614285D01*
X56808095Y-43423809D01*
X56808095Y-43280952D01*
X56855714Y-43090476D01*
X56903333Y-42995238D01*
X56998571Y-42900000D01*
X57141428Y-42852380D01*
X57236666Y-42852380D01*
X57379523Y-42900000D01*
X57427142Y-42947619D01*
X58379523Y-43852380D02*
X57808095Y-43852380D01*
X58093809Y-43852380D02*
X58093809Y-42852380D01*
X57998571Y-42995238D01*
X57903333Y-43090476D01*
X57808095Y-43138095D01*
X58712857Y-42852380D02*
X59379523Y-42852380D01*
X58950952Y-43852380D01*
G04 #@! TO.C,C18*
X61077142Y-68677142D02*
X61029523Y-68724761D01*
X60886666Y-68772380D01*
X60791428Y-68772380D01*
X60648571Y-68724761D01*
X60553333Y-68629523D01*
X60505714Y-68534285D01*
X60458095Y-68343809D01*
X60458095Y-68200952D01*
X60505714Y-68010476D01*
X60553333Y-67915238D01*
X60648571Y-67820000D01*
X60791428Y-67772380D01*
X60886666Y-67772380D01*
X61029523Y-67820000D01*
X61077142Y-67867619D01*
X62029523Y-68772380D02*
X61458095Y-68772380D01*
X61743809Y-68772380D02*
X61743809Y-67772380D01*
X61648571Y-67915238D01*
X61553333Y-68010476D01*
X61458095Y-68058095D01*
X62600952Y-68200952D02*
X62505714Y-68153333D01*
X62458095Y-68105714D01*
X62410476Y-68010476D01*
X62410476Y-67962857D01*
X62458095Y-67867619D01*
X62505714Y-67820000D01*
X62600952Y-67772380D01*
X62791428Y-67772380D01*
X62886666Y-67820000D01*
X62934285Y-67867619D01*
X62981904Y-67962857D01*
X62981904Y-68010476D01*
X62934285Y-68105714D01*
X62886666Y-68153333D01*
X62791428Y-68200952D01*
X62600952Y-68200952D01*
X62505714Y-68248571D01*
X62458095Y-68296190D01*
X62410476Y-68391428D01*
X62410476Y-68581904D01*
X62458095Y-68677142D01*
X62505714Y-68724761D01*
X62600952Y-68772380D01*
X62791428Y-68772380D01*
X62886666Y-68724761D01*
X62934285Y-68677142D01*
X62981904Y-68581904D01*
X62981904Y-68391428D01*
X62934285Y-68296190D01*
X62886666Y-68248571D01*
X62791428Y-68200952D01*
G04 #@! TO.C,C19*
X31107142Y-59857142D02*
X31059523Y-59904761D01*
X30916666Y-59952380D01*
X30821428Y-59952380D01*
X30678571Y-59904761D01*
X30583333Y-59809523D01*
X30535714Y-59714285D01*
X30488095Y-59523809D01*
X30488095Y-59380952D01*
X30535714Y-59190476D01*
X30583333Y-59095238D01*
X30678571Y-59000000D01*
X30821428Y-58952380D01*
X30916666Y-58952380D01*
X31059523Y-59000000D01*
X31107142Y-59047619D01*
X32059523Y-59952380D02*
X31488095Y-59952380D01*
X31773809Y-59952380D02*
X31773809Y-58952380D01*
X31678571Y-59095238D01*
X31583333Y-59190476D01*
X31488095Y-59238095D01*
X32535714Y-59952380D02*
X32726190Y-59952380D01*
X32821428Y-59904761D01*
X32869047Y-59857142D01*
X32964285Y-59714285D01*
X33011904Y-59523809D01*
X33011904Y-59142857D01*
X32964285Y-59047619D01*
X32916666Y-59000000D01*
X32821428Y-58952380D01*
X32630952Y-58952380D01*
X32535714Y-59000000D01*
X32488095Y-59047619D01*
X32440476Y-59142857D01*
X32440476Y-59380952D01*
X32488095Y-59476190D01*
X32535714Y-59523809D01*
X32630952Y-59571428D01*
X32821428Y-59571428D01*
X32916666Y-59523809D01*
X32964285Y-59476190D01*
X33011904Y-59380952D01*
G04 #@! TO.C,C20*
X68387142Y-33757142D02*
X68339523Y-33804761D01*
X68196666Y-33852380D01*
X68101428Y-33852380D01*
X67958571Y-33804761D01*
X67863333Y-33709523D01*
X67815714Y-33614285D01*
X67768095Y-33423809D01*
X67768095Y-33280952D01*
X67815714Y-33090476D01*
X67863333Y-32995238D01*
X67958571Y-32900000D01*
X68101428Y-32852380D01*
X68196666Y-32852380D01*
X68339523Y-32900000D01*
X68387142Y-32947619D01*
X68768095Y-32947619D02*
X68815714Y-32900000D01*
X68910952Y-32852380D01*
X69149047Y-32852380D01*
X69244285Y-32900000D01*
X69291904Y-32947619D01*
X69339523Y-33042857D01*
X69339523Y-33138095D01*
X69291904Y-33280952D01*
X68720476Y-33852380D01*
X69339523Y-33852380D01*
X69958571Y-32852380D02*
X70053809Y-32852380D01*
X70149047Y-32900000D01*
X70196666Y-32947619D01*
X70244285Y-33042857D01*
X70291904Y-33233333D01*
X70291904Y-33471428D01*
X70244285Y-33661904D01*
X70196666Y-33757142D01*
X70149047Y-33804761D01*
X70053809Y-33852380D01*
X69958571Y-33852380D01*
X69863333Y-33804761D01*
X69815714Y-33757142D01*
X69768095Y-33661904D01*
X69720476Y-33471428D01*
X69720476Y-33233333D01*
X69768095Y-33042857D01*
X69815714Y-32947619D01*
X69863333Y-32900000D01*
X69958571Y-32852380D01*
G04 #@! TO.C,D1*
X61481904Y-79092380D02*
X61481904Y-78092380D01*
X61720000Y-78092380D01*
X61862857Y-78140000D01*
X61958095Y-78235238D01*
X62005714Y-78330476D01*
X62053333Y-78520952D01*
X62053333Y-78663809D01*
X62005714Y-78854285D01*
X61958095Y-78949523D01*
X61862857Y-79044761D01*
X61720000Y-79092380D01*
X61481904Y-79092380D01*
X63005714Y-79092380D02*
X62434285Y-79092380D01*
X62720000Y-79092380D02*
X62720000Y-78092380D01*
X62624761Y-78235238D01*
X62529523Y-78330476D01*
X62434285Y-78378095D01*
G04 #@! TO.C,D3*
X70001904Y-79087380D02*
X70001904Y-78087380D01*
X70240000Y-78087380D01*
X70382857Y-78135000D01*
X70478095Y-78230238D01*
X70525714Y-78325476D01*
X70573333Y-78515952D01*
X70573333Y-78658809D01*
X70525714Y-78849285D01*
X70478095Y-78944523D01*
X70382857Y-79039761D01*
X70240000Y-79087380D01*
X70001904Y-79087380D01*
X70906666Y-78087380D02*
X71525714Y-78087380D01*
X71192380Y-78468333D01*
X71335238Y-78468333D01*
X71430476Y-78515952D01*
X71478095Y-78563571D01*
X71525714Y-78658809D01*
X71525714Y-78896904D01*
X71478095Y-78992142D01*
X71430476Y-79039761D01*
X71335238Y-79087380D01*
X71049523Y-79087380D01*
X70954285Y-79039761D01*
X70906666Y-78992142D01*
G04 #@! TO.C,D6*
X73831904Y-75612380D02*
X73831904Y-74612380D01*
X74070000Y-74612380D01*
X74212857Y-74660000D01*
X74308095Y-74755238D01*
X74355714Y-74850476D01*
X74403333Y-75040952D01*
X74403333Y-75183809D01*
X74355714Y-75374285D01*
X74308095Y-75469523D01*
X74212857Y-75564761D01*
X74070000Y-75612380D01*
X73831904Y-75612380D01*
X75260476Y-74612380D02*
X75070000Y-74612380D01*
X74974761Y-74660000D01*
X74927142Y-74707619D01*
X74831904Y-74850476D01*
X74784285Y-75040952D01*
X74784285Y-75421904D01*
X74831904Y-75517142D01*
X74879523Y-75564761D01*
X74974761Y-75612380D01*
X75165238Y-75612380D01*
X75260476Y-75564761D01*
X75308095Y-75517142D01*
X75355714Y-75421904D01*
X75355714Y-75183809D01*
X75308095Y-75088571D01*
X75260476Y-75040952D01*
X75165238Y-74993333D01*
X74974761Y-74993333D01*
X74879523Y-75040952D01*
X74831904Y-75088571D01*
X74784285Y-75183809D01*
G04 #@! TO.C,D7*
X38151904Y-65452380D02*
X38151904Y-64452380D01*
X38390000Y-64452380D01*
X38532857Y-64500000D01*
X38628095Y-64595238D01*
X38675714Y-64690476D01*
X38723333Y-64880952D01*
X38723333Y-65023809D01*
X38675714Y-65214285D01*
X38628095Y-65309523D01*
X38532857Y-65404761D01*
X38390000Y-65452380D01*
X38151904Y-65452380D01*
X39056666Y-64452380D02*
X39723333Y-64452380D01*
X39294761Y-65452380D01*
G04 #@! TO.C,D8*
X35731904Y-34952380D02*
X35731904Y-33952380D01*
X35970000Y-33952380D01*
X36112857Y-34000000D01*
X36208095Y-34095238D01*
X36255714Y-34190476D01*
X36303333Y-34380952D01*
X36303333Y-34523809D01*
X36255714Y-34714285D01*
X36208095Y-34809523D01*
X36112857Y-34904761D01*
X35970000Y-34952380D01*
X35731904Y-34952380D01*
X36874761Y-34380952D02*
X36779523Y-34333333D01*
X36731904Y-34285714D01*
X36684285Y-34190476D01*
X36684285Y-34142857D01*
X36731904Y-34047619D01*
X36779523Y-34000000D01*
X36874761Y-33952380D01*
X37065238Y-33952380D01*
X37160476Y-34000000D01*
X37208095Y-34047619D01*
X37255714Y-34142857D01*
X37255714Y-34190476D01*
X37208095Y-34285714D01*
X37160476Y-34333333D01*
X37065238Y-34380952D01*
X36874761Y-34380952D01*
X36779523Y-34428571D01*
X36731904Y-34476190D01*
X36684285Y-34571428D01*
X36684285Y-34761904D01*
X36731904Y-34857142D01*
X36779523Y-34904761D01*
X36874761Y-34952380D01*
X37065238Y-34952380D01*
X37160476Y-34904761D01*
X37208095Y-34857142D01*
X37255714Y-34761904D01*
X37255714Y-34571428D01*
X37208095Y-34476190D01*
X37160476Y-34428571D01*
X37065238Y-34380952D01*
G04 #@! TO.C,D9*
X57761904Y-75542380D02*
X57761904Y-74542380D01*
X58000000Y-74542380D01*
X58142857Y-74590000D01*
X58238095Y-74685238D01*
X58285714Y-74780476D01*
X58333333Y-74970952D01*
X58333333Y-75113809D01*
X58285714Y-75304285D01*
X58238095Y-75399523D01*
X58142857Y-75494761D01*
X58000000Y-75542380D01*
X57761904Y-75542380D01*
X58809523Y-75542380D02*
X59000000Y-75542380D01*
X59095238Y-75494761D01*
X59142857Y-75447142D01*
X59238095Y-75304285D01*
X59285714Y-75113809D01*
X59285714Y-74732857D01*
X59238095Y-74637619D01*
X59190476Y-74590000D01*
X59095238Y-74542380D01*
X58904761Y-74542380D01*
X58809523Y-74590000D01*
X58761904Y-74637619D01*
X58714285Y-74732857D01*
X58714285Y-74970952D01*
X58761904Y-75066190D01*
X58809523Y-75113809D01*
X58904761Y-75161428D01*
X59095238Y-75161428D01*
X59190476Y-75113809D01*
X59238095Y-75066190D01*
X59285714Y-74970952D01*
G04 #@! TO.C,F1*
X42156666Y-39428571D02*
X41823333Y-39428571D01*
X41823333Y-39952380D02*
X41823333Y-38952380D01*
X42299523Y-38952380D01*
X43204285Y-39952380D02*
X42632857Y-39952380D01*
X42918571Y-39952380D02*
X42918571Y-38952380D01*
X42823333Y-39095238D01*
X42728095Y-39190476D01*
X42632857Y-39238095D01*
G04 #@! TO.C,J9*
X50416666Y-62952380D02*
X50416666Y-63666666D01*
X50369047Y-63809523D01*
X50273809Y-63904761D01*
X50130952Y-63952380D01*
X50035714Y-63952380D01*
X50940476Y-63952380D02*
X51130952Y-63952380D01*
X51226190Y-63904761D01*
X51273809Y-63857142D01*
X51369047Y-63714285D01*
X51416666Y-63523809D01*
X51416666Y-63142857D01*
X51369047Y-63047619D01*
X51321428Y-63000000D01*
X51226190Y-62952380D01*
X51035714Y-62952380D01*
X50940476Y-63000000D01*
X50892857Y-63047619D01*
X50845238Y-63142857D01*
X50845238Y-63380952D01*
X50892857Y-63476190D01*
X50940476Y-63523809D01*
X51035714Y-63571428D01*
X51226190Y-63571428D01*
X51321428Y-63523809D01*
X51369047Y-63476190D01*
X51416666Y-63380952D01*
G04 #@! TO.C,J10*
X54960476Y-62852380D02*
X54960476Y-63566666D01*
X54912857Y-63709523D01*
X54817619Y-63804761D01*
X54674761Y-63852380D01*
X54579523Y-63852380D01*
X55960476Y-63852380D02*
X55389047Y-63852380D01*
X55674761Y-63852380D02*
X55674761Y-62852380D01*
X55579523Y-62995238D01*
X55484285Y-63090476D01*
X55389047Y-63138095D01*
X56579523Y-62852380D02*
X56674761Y-62852380D01*
X56770000Y-62900000D01*
X56817619Y-62947619D01*
X56865238Y-63042857D01*
X56912857Y-63233333D01*
X56912857Y-63471428D01*
X56865238Y-63661904D01*
X56817619Y-63757142D01*
X56770000Y-63804761D01*
X56674761Y-63852380D01*
X56579523Y-63852380D01*
X56484285Y-63804761D01*
X56436666Y-63757142D01*
X56389047Y-63661904D01*
X56341428Y-63471428D01*
X56341428Y-63233333D01*
X56389047Y-63042857D01*
X56436666Y-62947619D01*
X56484285Y-62900000D01*
X56579523Y-62852380D01*
G04 #@! TO.C,J11*
X55040476Y-36322380D02*
X55040476Y-37036666D01*
X54992857Y-37179523D01*
X54897619Y-37274761D01*
X54754761Y-37322380D01*
X54659523Y-37322380D01*
X56040476Y-37322380D02*
X55469047Y-37322380D01*
X55754761Y-37322380D02*
X55754761Y-36322380D01*
X55659523Y-36465238D01*
X55564285Y-36560476D01*
X55469047Y-36608095D01*
X56992857Y-37322380D02*
X56421428Y-37322380D01*
X56707142Y-37322380D02*
X56707142Y-36322380D01*
X56611904Y-36465238D01*
X56516666Y-36560476D01*
X56421428Y-36608095D01*
G04 #@! TO.C,J12*
X49870476Y-36282380D02*
X49870476Y-36996666D01*
X49822857Y-37139523D01*
X49727619Y-37234761D01*
X49584761Y-37282380D01*
X49489523Y-37282380D01*
X50870476Y-37282380D02*
X50299047Y-37282380D01*
X50584761Y-37282380D02*
X50584761Y-36282380D01*
X50489523Y-36425238D01*
X50394285Y-36520476D01*
X50299047Y-36568095D01*
X51251428Y-36377619D02*
X51299047Y-36330000D01*
X51394285Y-36282380D01*
X51632380Y-36282380D01*
X51727619Y-36330000D01*
X51775238Y-36377619D01*
X51822857Y-36472857D01*
X51822857Y-36568095D01*
X51775238Y-36710952D01*
X51203809Y-37282380D01*
X51822857Y-37282380D01*
G04 #@! TO.C,M1*
X24120476Y-68232380D02*
X24120476Y-67232380D01*
X24453809Y-67946666D01*
X24787142Y-67232380D01*
X24787142Y-68232380D01*
X25787142Y-68232380D02*
X25215714Y-68232380D01*
X25501428Y-68232380D02*
X25501428Y-67232380D01*
X25406190Y-67375238D01*
X25310952Y-67470476D01*
X25215714Y-67518095D01*
G04 #@! TO.C,Q1*
X59124761Y-49427619D02*
X59029523Y-49380000D01*
X58934285Y-49284761D01*
X58791428Y-49141904D01*
X58696190Y-49094285D01*
X58600952Y-49094285D01*
X58648571Y-49332380D02*
X58553333Y-49284761D01*
X58458095Y-49189523D01*
X58410476Y-48999047D01*
X58410476Y-48665714D01*
X58458095Y-48475238D01*
X58553333Y-48380000D01*
X58648571Y-48332380D01*
X58839047Y-48332380D01*
X58934285Y-48380000D01*
X59029523Y-48475238D01*
X59077142Y-48665714D01*
X59077142Y-48999047D01*
X59029523Y-49189523D01*
X58934285Y-49284761D01*
X58839047Y-49332380D01*
X58648571Y-49332380D01*
X60029523Y-49332380D02*
X59458095Y-49332380D01*
X59743809Y-49332380D02*
X59743809Y-48332380D01*
X59648571Y-48475238D01*
X59553333Y-48570476D01*
X59458095Y-48618095D01*
G04 #@! TO.C,Q2*
X74154761Y-48827619D02*
X74059523Y-48780000D01*
X73964285Y-48684761D01*
X73821428Y-48541904D01*
X73726190Y-48494285D01*
X73630952Y-48494285D01*
X73678571Y-48732380D02*
X73583333Y-48684761D01*
X73488095Y-48589523D01*
X73440476Y-48399047D01*
X73440476Y-48065714D01*
X73488095Y-47875238D01*
X73583333Y-47780000D01*
X73678571Y-47732380D01*
X73869047Y-47732380D01*
X73964285Y-47780000D01*
X74059523Y-47875238D01*
X74107142Y-48065714D01*
X74107142Y-48399047D01*
X74059523Y-48589523D01*
X73964285Y-48684761D01*
X73869047Y-48732380D01*
X73678571Y-48732380D01*
X74488095Y-47827619D02*
X74535714Y-47780000D01*
X74630952Y-47732380D01*
X74869047Y-47732380D01*
X74964285Y-47780000D01*
X75011904Y-47827619D01*
X75059523Y-47922857D01*
X75059523Y-48018095D01*
X75011904Y-48160952D01*
X74440476Y-48732380D01*
X75059523Y-48732380D01*
G04 #@! TO.C,Q5*
X41494761Y-47707619D02*
X41399523Y-47660000D01*
X41304285Y-47564761D01*
X41161428Y-47421904D01*
X41066190Y-47374285D01*
X40970952Y-47374285D01*
X41018571Y-47612380D02*
X40923333Y-47564761D01*
X40828095Y-47469523D01*
X40780476Y-47279047D01*
X40780476Y-46945714D01*
X40828095Y-46755238D01*
X40923333Y-46660000D01*
X41018571Y-46612380D01*
X41209047Y-46612380D01*
X41304285Y-46660000D01*
X41399523Y-46755238D01*
X41447142Y-46945714D01*
X41447142Y-47279047D01*
X41399523Y-47469523D01*
X41304285Y-47564761D01*
X41209047Y-47612380D01*
X41018571Y-47612380D01*
X42351904Y-46612380D02*
X41875714Y-46612380D01*
X41828095Y-47088571D01*
X41875714Y-47040952D01*
X41970952Y-46993333D01*
X42209047Y-46993333D01*
X42304285Y-47040952D01*
X42351904Y-47088571D01*
X42399523Y-47183809D01*
X42399523Y-47421904D01*
X42351904Y-47517142D01*
X42304285Y-47564761D01*
X42209047Y-47612380D01*
X41970952Y-47612380D01*
X41875714Y-47564761D01*
X41828095Y-47517142D01*
G04 #@! TO.C,Q6*
X68474761Y-79527619D02*
X68379523Y-79480000D01*
X68284285Y-79384761D01*
X68141428Y-79241904D01*
X68046190Y-79194285D01*
X67950952Y-79194285D01*
X67998571Y-79432380D02*
X67903333Y-79384761D01*
X67808095Y-79289523D01*
X67760476Y-79099047D01*
X67760476Y-78765714D01*
X67808095Y-78575238D01*
X67903333Y-78480000D01*
X67998571Y-78432380D01*
X68189047Y-78432380D01*
X68284285Y-78480000D01*
X68379523Y-78575238D01*
X68427142Y-78765714D01*
X68427142Y-79099047D01*
X68379523Y-79289523D01*
X68284285Y-79384761D01*
X68189047Y-79432380D01*
X67998571Y-79432380D01*
X69284285Y-78432380D02*
X69093809Y-78432380D01*
X68998571Y-78480000D01*
X68950952Y-78527619D01*
X68855714Y-78670476D01*
X68808095Y-78860952D01*
X68808095Y-79241904D01*
X68855714Y-79337142D01*
X68903333Y-79384761D01*
X68998571Y-79432380D01*
X69189047Y-79432380D01*
X69284285Y-79384761D01*
X69331904Y-79337142D01*
X69379523Y-79241904D01*
X69379523Y-79003809D01*
X69331904Y-78908571D01*
X69284285Y-78860952D01*
X69189047Y-78813333D01*
X68998571Y-78813333D01*
X68903333Y-78860952D01*
X68855714Y-78908571D01*
X68808095Y-79003809D01*
G04 #@! TO.C,Q9*
X63984761Y-79497619D02*
X63889523Y-79450000D01*
X63794285Y-79354761D01*
X63651428Y-79211904D01*
X63556190Y-79164285D01*
X63460952Y-79164285D01*
X63508571Y-79402380D02*
X63413333Y-79354761D01*
X63318095Y-79259523D01*
X63270476Y-79069047D01*
X63270476Y-78735714D01*
X63318095Y-78545238D01*
X63413333Y-78450000D01*
X63508571Y-78402380D01*
X63699047Y-78402380D01*
X63794285Y-78450000D01*
X63889523Y-78545238D01*
X63937142Y-78735714D01*
X63937142Y-79069047D01*
X63889523Y-79259523D01*
X63794285Y-79354761D01*
X63699047Y-79402380D01*
X63508571Y-79402380D01*
X64413333Y-79402380D02*
X64603809Y-79402380D01*
X64699047Y-79354761D01*
X64746666Y-79307142D01*
X64841904Y-79164285D01*
X64889523Y-78973809D01*
X64889523Y-78592857D01*
X64841904Y-78497619D01*
X64794285Y-78450000D01*
X64699047Y-78402380D01*
X64508571Y-78402380D01*
X64413333Y-78450000D01*
X64365714Y-78497619D01*
X64318095Y-78592857D01*
X64318095Y-78830952D01*
X64365714Y-78926190D01*
X64413333Y-78973809D01*
X64508571Y-79021428D01*
X64699047Y-79021428D01*
X64794285Y-78973809D01*
X64841904Y-78926190D01*
X64889523Y-78830952D01*
G04 #@! TO.C,R1*
X38613333Y-39992380D02*
X38280000Y-39516190D01*
X38041904Y-39992380D02*
X38041904Y-38992380D01*
X38422857Y-38992380D01*
X38518095Y-39040000D01*
X38565714Y-39087619D01*
X38613333Y-39182857D01*
X38613333Y-39325714D01*
X38565714Y-39420952D01*
X38518095Y-39468571D01*
X38422857Y-39516190D01*
X38041904Y-39516190D01*
X39565714Y-39992380D02*
X38994285Y-39992380D01*
X39280000Y-39992380D02*
X39280000Y-38992380D01*
X39184761Y-39135238D01*
X39089523Y-39230476D01*
X38994285Y-39278095D01*
G04 #@! TO.C,R3*
X32503333Y-37862380D02*
X32170000Y-37386190D01*
X31931904Y-37862380D02*
X31931904Y-36862380D01*
X32312857Y-36862380D01*
X32408095Y-36910000D01*
X32455714Y-36957619D01*
X32503333Y-37052857D01*
X32503333Y-37195714D01*
X32455714Y-37290952D01*
X32408095Y-37338571D01*
X32312857Y-37386190D01*
X31931904Y-37386190D01*
X32836666Y-36862380D02*
X33455714Y-36862380D01*
X33122380Y-37243333D01*
X33265238Y-37243333D01*
X33360476Y-37290952D01*
X33408095Y-37338571D01*
X33455714Y-37433809D01*
X33455714Y-37671904D01*
X33408095Y-37767142D01*
X33360476Y-37814761D01*
X33265238Y-37862380D01*
X32979523Y-37862380D01*
X32884285Y-37814761D01*
X32836666Y-37767142D01*
G04 #@! TO.C,R4*
X30333333Y-30702380D02*
X30000000Y-30226190D01*
X29761904Y-30702380D02*
X29761904Y-29702380D01*
X30142857Y-29702380D01*
X30238095Y-29750000D01*
X30285714Y-29797619D01*
X30333333Y-29892857D01*
X30333333Y-30035714D01*
X30285714Y-30130952D01*
X30238095Y-30178571D01*
X30142857Y-30226190D01*
X29761904Y-30226190D01*
X31190476Y-30035714D02*
X31190476Y-30702380D01*
X30952380Y-29654761D02*
X30714285Y-30369047D01*
X31333333Y-30369047D01*
G04 #@! TO.C,R5*
X58963333Y-56032380D02*
X58630000Y-55556190D01*
X58391904Y-56032380D02*
X58391904Y-55032380D01*
X58772857Y-55032380D01*
X58868095Y-55080000D01*
X58915714Y-55127619D01*
X58963333Y-55222857D01*
X58963333Y-55365714D01*
X58915714Y-55460952D01*
X58868095Y-55508571D01*
X58772857Y-55556190D01*
X58391904Y-55556190D01*
X59868095Y-55032380D02*
X59391904Y-55032380D01*
X59344285Y-55508571D01*
X59391904Y-55460952D01*
X59487142Y-55413333D01*
X59725238Y-55413333D01*
X59820476Y-55460952D01*
X59868095Y-55508571D01*
X59915714Y-55603809D01*
X59915714Y-55841904D01*
X59868095Y-55937142D01*
X59820476Y-55984761D01*
X59725238Y-56032380D01*
X59487142Y-56032380D01*
X59391904Y-55984761D01*
X59344285Y-55937142D01*
G04 #@! TO.C,R6*
X59003333Y-51972380D02*
X58670000Y-51496190D01*
X58431904Y-51972380D02*
X58431904Y-50972380D01*
X58812857Y-50972380D01*
X58908095Y-51020000D01*
X58955714Y-51067619D01*
X59003333Y-51162857D01*
X59003333Y-51305714D01*
X58955714Y-51400952D01*
X58908095Y-51448571D01*
X58812857Y-51496190D01*
X58431904Y-51496190D01*
X59860476Y-50972380D02*
X59670000Y-50972380D01*
X59574761Y-51020000D01*
X59527142Y-51067619D01*
X59431904Y-51210476D01*
X59384285Y-51400952D01*
X59384285Y-51781904D01*
X59431904Y-51877142D01*
X59479523Y-51924761D01*
X59574761Y-51972380D01*
X59765238Y-51972380D01*
X59860476Y-51924761D01*
X59908095Y-51877142D01*
X59955714Y-51781904D01*
X59955714Y-51543809D01*
X59908095Y-51448571D01*
X59860476Y-51400952D01*
X59765238Y-51353333D01*
X59574761Y-51353333D01*
X59479523Y-51400952D01*
X59431904Y-51448571D01*
X59384285Y-51543809D01*
G04 #@! TO.C,R8*
X68403333Y-61782380D02*
X68070000Y-61306190D01*
X67831904Y-61782380D02*
X67831904Y-60782380D01*
X68212857Y-60782380D01*
X68308095Y-60830000D01*
X68355714Y-60877619D01*
X68403333Y-60972857D01*
X68403333Y-61115714D01*
X68355714Y-61210952D01*
X68308095Y-61258571D01*
X68212857Y-61306190D01*
X67831904Y-61306190D01*
X68974761Y-61210952D02*
X68879523Y-61163333D01*
X68831904Y-61115714D01*
X68784285Y-61020476D01*
X68784285Y-60972857D01*
X68831904Y-60877619D01*
X68879523Y-60830000D01*
X68974761Y-60782380D01*
X69165238Y-60782380D01*
X69260476Y-60830000D01*
X69308095Y-60877619D01*
X69355714Y-60972857D01*
X69355714Y-61020476D01*
X69308095Y-61115714D01*
X69260476Y-61163333D01*
X69165238Y-61210952D01*
X68974761Y-61210952D01*
X68879523Y-61258571D01*
X68831904Y-61306190D01*
X68784285Y-61401428D01*
X68784285Y-61591904D01*
X68831904Y-61687142D01*
X68879523Y-61734761D01*
X68974761Y-61782380D01*
X69165238Y-61782380D01*
X69260476Y-61734761D01*
X69308095Y-61687142D01*
X69355714Y-61591904D01*
X69355714Y-61401428D01*
X69308095Y-61306190D01*
X69260476Y-61258571D01*
X69165238Y-61210952D01*
G04 #@! TO.C,R9*
X38523333Y-30602380D02*
X38190000Y-30126190D01*
X37951904Y-30602380D02*
X37951904Y-29602380D01*
X38332857Y-29602380D01*
X38428095Y-29650000D01*
X38475714Y-29697619D01*
X38523333Y-29792857D01*
X38523333Y-29935714D01*
X38475714Y-30030952D01*
X38428095Y-30078571D01*
X38332857Y-30126190D01*
X37951904Y-30126190D01*
X38999523Y-30602380D02*
X39190000Y-30602380D01*
X39285238Y-30554761D01*
X39332857Y-30507142D01*
X39428095Y-30364285D01*
X39475714Y-30173809D01*
X39475714Y-29792857D01*
X39428095Y-29697619D01*
X39380476Y-29650000D01*
X39285238Y-29602380D01*
X39094761Y-29602380D01*
X38999523Y-29650000D01*
X38951904Y-29697619D01*
X38904285Y-29792857D01*
X38904285Y-30030952D01*
X38951904Y-30126190D01*
X38999523Y-30173809D01*
X39094761Y-30221428D01*
X39285238Y-30221428D01*
X39380476Y-30173809D01*
X39428095Y-30126190D01*
X39475714Y-30030952D01*
G04 #@! TO.C,R10*
X46547142Y-29762380D02*
X46213809Y-29286190D01*
X45975714Y-29762380D02*
X45975714Y-28762380D01*
X46356666Y-28762380D01*
X46451904Y-28810000D01*
X46499523Y-28857619D01*
X46547142Y-28952857D01*
X46547142Y-29095714D01*
X46499523Y-29190952D01*
X46451904Y-29238571D01*
X46356666Y-29286190D01*
X45975714Y-29286190D01*
X47499523Y-29762380D02*
X46928095Y-29762380D01*
X47213809Y-29762380D02*
X47213809Y-28762380D01*
X47118571Y-28905238D01*
X47023333Y-29000476D01*
X46928095Y-29048095D01*
X48118571Y-28762380D02*
X48213809Y-28762380D01*
X48309047Y-28810000D01*
X48356666Y-28857619D01*
X48404285Y-28952857D01*
X48451904Y-29143333D01*
X48451904Y-29381428D01*
X48404285Y-29571904D01*
X48356666Y-29667142D01*
X48309047Y-29714761D01*
X48213809Y-29762380D01*
X48118571Y-29762380D01*
X48023333Y-29714761D01*
X47975714Y-29667142D01*
X47928095Y-29571904D01*
X47880476Y-29381428D01*
X47880476Y-29143333D01*
X47928095Y-28952857D01*
X47975714Y-28857619D01*
X48023333Y-28810000D01*
X48118571Y-28762380D01*
G04 #@! TO.C,R11*
X25437142Y-63672380D02*
X25103809Y-63196190D01*
X24865714Y-63672380D02*
X24865714Y-62672380D01*
X25246666Y-62672380D01*
X25341904Y-62720000D01*
X25389523Y-62767619D01*
X25437142Y-62862857D01*
X25437142Y-63005714D01*
X25389523Y-63100952D01*
X25341904Y-63148571D01*
X25246666Y-63196190D01*
X24865714Y-63196190D01*
X26389523Y-63672380D02*
X25818095Y-63672380D01*
X26103809Y-63672380D02*
X26103809Y-62672380D01*
X26008571Y-62815238D01*
X25913333Y-62910476D01*
X25818095Y-62958095D01*
X27341904Y-63672380D02*
X26770476Y-63672380D01*
X27056190Y-63672380D02*
X27056190Y-62672380D01*
X26960952Y-62815238D01*
X26865714Y-62910476D01*
X26770476Y-62958095D01*
G04 #@! TO.C,R13*
X45447142Y-45102380D02*
X45113809Y-44626190D01*
X44875714Y-45102380D02*
X44875714Y-44102380D01*
X45256666Y-44102380D01*
X45351904Y-44150000D01*
X45399523Y-44197619D01*
X45447142Y-44292857D01*
X45447142Y-44435714D01*
X45399523Y-44530952D01*
X45351904Y-44578571D01*
X45256666Y-44626190D01*
X44875714Y-44626190D01*
X46399523Y-45102380D02*
X45828095Y-45102380D01*
X46113809Y-45102380D02*
X46113809Y-44102380D01*
X46018571Y-44245238D01*
X45923333Y-44340476D01*
X45828095Y-44388095D01*
X46732857Y-44102380D02*
X47351904Y-44102380D01*
X47018571Y-44483333D01*
X47161428Y-44483333D01*
X47256666Y-44530952D01*
X47304285Y-44578571D01*
X47351904Y-44673809D01*
X47351904Y-44911904D01*
X47304285Y-45007142D01*
X47256666Y-45054761D01*
X47161428Y-45102380D01*
X46875714Y-45102380D01*
X46780476Y-45054761D01*
X46732857Y-45007142D01*
G04 #@! TO.C,R14*
X70937142Y-58412380D02*
X70603809Y-57936190D01*
X70365714Y-58412380D02*
X70365714Y-57412380D01*
X70746666Y-57412380D01*
X70841904Y-57460000D01*
X70889523Y-57507619D01*
X70937142Y-57602857D01*
X70937142Y-57745714D01*
X70889523Y-57840952D01*
X70841904Y-57888571D01*
X70746666Y-57936190D01*
X70365714Y-57936190D01*
X71889523Y-58412380D02*
X71318095Y-58412380D01*
X71603809Y-58412380D02*
X71603809Y-57412380D01*
X71508571Y-57555238D01*
X71413333Y-57650476D01*
X71318095Y-57698095D01*
X72746666Y-57745714D02*
X72746666Y-58412380D01*
X72508571Y-57364761D02*
X72270476Y-58079047D01*
X72889523Y-58079047D01*
G04 #@! TO.C,R15*
X60767142Y-60122380D02*
X60433809Y-59646190D01*
X60195714Y-60122380D02*
X60195714Y-59122380D01*
X60576666Y-59122380D01*
X60671904Y-59170000D01*
X60719523Y-59217619D01*
X60767142Y-59312857D01*
X60767142Y-59455714D01*
X60719523Y-59550952D01*
X60671904Y-59598571D01*
X60576666Y-59646190D01*
X60195714Y-59646190D01*
X61719523Y-60122380D02*
X61148095Y-60122380D01*
X61433809Y-60122380D02*
X61433809Y-59122380D01*
X61338571Y-59265238D01*
X61243333Y-59360476D01*
X61148095Y-59408095D01*
X62624285Y-59122380D02*
X62148095Y-59122380D01*
X62100476Y-59598571D01*
X62148095Y-59550952D01*
X62243333Y-59503333D01*
X62481428Y-59503333D01*
X62576666Y-59550952D01*
X62624285Y-59598571D01*
X62671904Y-59693809D01*
X62671904Y-59931904D01*
X62624285Y-60027142D01*
X62576666Y-60074761D01*
X62481428Y-60122380D01*
X62243333Y-60122380D01*
X62148095Y-60074761D01*
X62100476Y-60027142D01*
G04 #@! TO.C,R16*
X72677142Y-42192380D02*
X72343809Y-41716190D01*
X72105714Y-42192380D02*
X72105714Y-41192380D01*
X72486666Y-41192380D01*
X72581904Y-41240000D01*
X72629523Y-41287619D01*
X72677142Y-41382857D01*
X72677142Y-41525714D01*
X72629523Y-41620952D01*
X72581904Y-41668571D01*
X72486666Y-41716190D01*
X72105714Y-41716190D01*
X73629523Y-42192380D02*
X73058095Y-42192380D01*
X73343809Y-42192380D02*
X73343809Y-41192380D01*
X73248571Y-41335238D01*
X73153333Y-41430476D01*
X73058095Y-41478095D01*
X74486666Y-41192380D02*
X74296190Y-41192380D01*
X74200952Y-41240000D01*
X74153333Y-41287619D01*
X74058095Y-41430476D01*
X74010476Y-41620952D01*
X74010476Y-42001904D01*
X74058095Y-42097142D01*
X74105714Y-42144761D01*
X74200952Y-42192380D01*
X74391428Y-42192380D01*
X74486666Y-42144761D01*
X74534285Y-42097142D01*
X74581904Y-42001904D01*
X74581904Y-41763809D01*
X74534285Y-41668571D01*
X74486666Y-41620952D01*
X74391428Y-41573333D01*
X74200952Y-41573333D01*
X74105714Y-41620952D01*
X74058095Y-41668571D01*
X74010476Y-41763809D01*
G04 #@! TO.C,R20*
X26157142Y-60162380D02*
X25823809Y-59686190D01*
X25585714Y-60162380D02*
X25585714Y-59162380D01*
X25966666Y-59162380D01*
X26061904Y-59210000D01*
X26109523Y-59257619D01*
X26157142Y-59352857D01*
X26157142Y-59495714D01*
X26109523Y-59590952D01*
X26061904Y-59638571D01*
X25966666Y-59686190D01*
X25585714Y-59686190D01*
X26538095Y-59257619D02*
X26585714Y-59210000D01*
X26680952Y-59162380D01*
X26919047Y-59162380D01*
X27014285Y-59210000D01*
X27061904Y-59257619D01*
X27109523Y-59352857D01*
X27109523Y-59448095D01*
X27061904Y-59590952D01*
X26490476Y-60162380D01*
X27109523Y-60162380D01*
X27728571Y-59162380D02*
X27823809Y-59162380D01*
X27919047Y-59210000D01*
X27966666Y-59257619D01*
X28014285Y-59352857D01*
X28061904Y-59543333D01*
X28061904Y-59781428D01*
X28014285Y-59971904D01*
X27966666Y-60067142D01*
X27919047Y-60114761D01*
X27823809Y-60162380D01*
X27728571Y-60162380D01*
X27633333Y-60114761D01*
X27585714Y-60067142D01*
X27538095Y-59971904D01*
X27490476Y-59781428D01*
X27490476Y-59543333D01*
X27538095Y-59352857D01*
X27585714Y-59257619D01*
X27633333Y-59210000D01*
X27728571Y-59162380D01*
G04 #@! TO.C,R21*
X66107142Y-46972380D02*
X65773809Y-46496190D01*
X65535714Y-46972380D02*
X65535714Y-45972380D01*
X65916666Y-45972380D01*
X66011904Y-46020000D01*
X66059523Y-46067619D01*
X66107142Y-46162857D01*
X66107142Y-46305714D01*
X66059523Y-46400952D01*
X66011904Y-46448571D01*
X65916666Y-46496190D01*
X65535714Y-46496190D01*
X66488095Y-46067619D02*
X66535714Y-46020000D01*
X66630952Y-45972380D01*
X66869047Y-45972380D01*
X66964285Y-46020000D01*
X67011904Y-46067619D01*
X67059523Y-46162857D01*
X67059523Y-46258095D01*
X67011904Y-46400952D01*
X66440476Y-46972380D01*
X67059523Y-46972380D01*
X68011904Y-46972380D02*
X67440476Y-46972380D01*
X67726190Y-46972380D02*
X67726190Y-45972380D01*
X67630952Y-46115238D01*
X67535714Y-46210476D01*
X67440476Y-46258095D01*
G04 #@! TO.C,R22*
X75877142Y-42192380D02*
X75543809Y-41716190D01*
X75305714Y-42192380D02*
X75305714Y-41192380D01*
X75686666Y-41192380D01*
X75781904Y-41240000D01*
X75829523Y-41287619D01*
X75877142Y-41382857D01*
X75877142Y-41525714D01*
X75829523Y-41620952D01*
X75781904Y-41668571D01*
X75686666Y-41716190D01*
X75305714Y-41716190D01*
X76258095Y-41287619D02*
X76305714Y-41240000D01*
X76400952Y-41192380D01*
X76639047Y-41192380D01*
X76734285Y-41240000D01*
X76781904Y-41287619D01*
X76829523Y-41382857D01*
X76829523Y-41478095D01*
X76781904Y-41620952D01*
X76210476Y-42192380D01*
X76829523Y-42192380D01*
X77210476Y-41287619D02*
X77258095Y-41240000D01*
X77353333Y-41192380D01*
X77591428Y-41192380D01*
X77686666Y-41240000D01*
X77734285Y-41287619D01*
X77781904Y-41382857D01*
X77781904Y-41478095D01*
X77734285Y-41620952D01*
X77162857Y-42192380D01*
X77781904Y-42192380D01*
G04 #@! TO.C,R23*
X69467142Y-40332380D02*
X69133809Y-39856190D01*
X68895714Y-40332380D02*
X68895714Y-39332380D01*
X69276666Y-39332380D01*
X69371904Y-39380000D01*
X69419523Y-39427619D01*
X69467142Y-39522857D01*
X69467142Y-39665714D01*
X69419523Y-39760952D01*
X69371904Y-39808571D01*
X69276666Y-39856190D01*
X68895714Y-39856190D01*
X69848095Y-39427619D02*
X69895714Y-39380000D01*
X69990952Y-39332380D01*
X70229047Y-39332380D01*
X70324285Y-39380000D01*
X70371904Y-39427619D01*
X70419523Y-39522857D01*
X70419523Y-39618095D01*
X70371904Y-39760952D01*
X69800476Y-40332380D01*
X70419523Y-40332380D01*
X70752857Y-39332380D02*
X71371904Y-39332380D01*
X71038571Y-39713333D01*
X71181428Y-39713333D01*
X71276666Y-39760952D01*
X71324285Y-39808571D01*
X71371904Y-39903809D01*
X71371904Y-40141904D01*
X71324285Y-40237142D01*
X71276666Y-40284761D01*
X71181428Y-40332380D01*
X70895714Y-40332380D01*
X70800476Y-40284761D01*
X70752857Y-40237142D01*
G04 #@! TO.C,R28*
X63667142Y-63722380D02*
X63333809Y-63246190D01*
X63095714Y-63722380D02*
X63095714Y-62722380D01*
X63476666Y-62722380D01*
X63571904Y-62770000D01*
X63619523Y-62817619D01*
X63667142Y-62912857D01*
X63667142Y-63055714D01*
X63619523Y-63150952D01*
X63571904Y-63198571D01*
X63476666Y-63246190D01*
X63095714Y-63246190D01*
X64048095Y-62817619D02*
X64095714Y-62770000D01*
X64190952Y-62722380D01*
X64429047Y-62722380D01*
X64524285Y-62770000D01*
X64571904Y-62817619D01*
X64619523Y-62912857D01*
X64619523Y-63008095D01*
X64571904Y-63150952D01*
X64000476Y-63722380D01*
X64619523Y-63722380D01*
X65190952Y-63150952D02*
X65095714Y-63103333D01*
X65048095Y-63055714D01*
X65000476Y-62960476D01*
X65000476Y-62912857D01*
X65048095Y-62817619D01*
X65095714Y-62770000D01*
X65190952Y-62722380D01*
X65381428Y-62722380D01*
X65476666Y-62770000D01*
X65524285Y-62817619D01*
X65571904Y-62912857D01*
X65571904Y-62960476D01*
X65524285Y-63055714D01*
X65476666Y-63103333D01*
X65381428Y-63150952D01*
X65190952Y-63150952D01*
X65095714Y-63198571D01*
X65048095Y-63246190D01*
X65000476Y-63341428D01*
X65000476Y-63531904D01*
X65048095Y-63627142D01*
X65095714Y-63674761D01*
X65190952Y-63722380D01*
X65381428Y-63722380D01*
X65476666Y-63674761D01*
X65524285Y-63627142D01*
X65571904Y-63531904D01*
X65571904Y-63341428D01*
X65524285Y-63246190D01*
X65476666Y-63198571D01*
X65381428Y-63150952D01*
G04 #@! TO.C,R29*
X65297142Y-39982380D02*
X64963809Y-39506190D01*
X64725714Y-39982380D02*
X64725714Y-38982380D01*
X65106666Y-38982380D01*
X65201904Y-39030000D01*
X65249523Y-39077619D01*
X65297142Y-39172857D01*
X65297142Y-39315714D01*
X65249523Y-39410952D01*
X65201904Y-39458571D01*
X65106666Y-39506190D01*
X64725714Y-39506190D01*
X65678095Y-39077619D02*
X65725714Y-39030000D01*
X65820952Y-38982380D01*
X66059047Y-38982380D01*
X66154285Y-39030000D01*
X66201904Y-39077619D01*
X66249523Y-39172857D01*
X66249523Y-39268095D01*
X66201904Y-39410952D01*
X65630476Y-39982380D01*
X66249523Y-39982380D01*
X66725714Y-39982380D02*
X66916190Y-39982380D01*
X67011428Y-39934761D01*
X67059047Y-39887142D01*
X67154285Y-39744285D01*
X67201904Y-39553809D01*
X67201904Y-39172857D01*
X67154285Y-39077619D01*
X67106666Y-39030000D01*
X67011428Y-38982380D01*
X66820952Y-38982380D01*
X66725714Y-39030000D01*
X66678095Y-39077619D01*
X66630476Y-39172857D01*
X66630476Y-39410952D01*
X66678095Y-39506190D01*
X66725714Y-39553809D01*
X66820952Y-39601428D01*
X67011428Y-39601428D01*
X67106666Y-39553809D01*
X67154285Y-39506190D01*
X67201904Y-39410952D01*
G04 #@! TO.C,R30*
X68137142Y-64042380D02*
X67803809Y-63566190D01*
X67565714Y-64042380D02*
X67565714Y-63042380D01*
X67946666Y-63042380D01*
X68041904Y-63090000D01*
X68089523Y-63137619D01*
X68137142Y-63232857D01*
X68137142Y-63375714D01*
X68089523Y-63470952D01*
X68041904Y-63518571D01*
X67946666Y-63566190D01*
X67565714Y-63566190D01*
X68470476Y-63042380D02*
X69089523Y-63042380D01*
X68756190Y-63423333D01*
X68899047Y-63423333D01*
X68994285Y-63470952D01*
X69041904Y-63518571D01*
X69089523Y-63613809D01*
X69089523Y-63851904D01*
X69041904Y-63947142D01*
X68994285Y-63994761D01*
X68899047Y-64042380D01*
X68613333Y-64042380D01*
X68518095Y-63994761D01*
X68470476Y-63947142D01*
X69708571Y-63042380D02*
X69803809Y-63042380D01*
X69899047Y-63090000D01*
X69946666Y-63137619D01*
X69994285Y-63232857D01*
X70041904Y-63423333D01*
X70041904Y-63661428D01*
X69994285Y-63851904D01*
X69946666Y-63947142D01*
X69899047Y-63994761D01*
X69803809Y-64042380D01*
X69708571Y-64042380D01*
X69613333Y-63994761D01*
X69565714Y-63947142D01*
X69518095Y-63851904D01*
X69470476Y-63661428D01*
X69470476Y-63423333D01*
X69518095Y-63232857D01*
X69565714Y-63137619D01*
X69613333Y-63090000D01*
X69708571Y-63042380D01*
G04 #@! TO.C,R31*
X76317142Y-62312380D02*
X75983809Y-61836190D01*
X75745714Y-62312380D02*
X75745714Y-61312380D01*
X76126666Y-61312380D01*
X76221904Y-61360000D01*
X76269523Y-61407619D01*
X76317142Y-61502857D01*
X76317142Y-61645714D01*
X76269523Y-61740952D01*
X76221904Y-61788571D01*
X76126666Y-61836190D01*
X75745714Y-61836190D01*
X76650476Y-61312380D02*
X77269523Y-61312380D01*
X76936190Y-61693333D01*
X77079047Y-61693333D01*
X77174285Y-61740952D01*
X77221904Y-61788571D01*
X77269523Y-61883809D01*
X77269523Y-62121904D01*
X77221904Y-62217142D01*
X77174285Y-62264761D01*
X77079047Y-62312380D01*
X76793333Y-62312380D01*
X76698095Y-62264761D01*
X76650476Y-62217142D01*
X78221904Y-62312380D02*
X77650476Y-62312380D01*
X77936190Y-62312380D02*
X77936190Y-61312380D01*
X77840952Y-61455238D01*
X77745714Y-61550476D01*
X77650476Y-61598095D01*
G04 #@! TO.C,R32*
X73697142Y-57582380D02*
X73363809Y-57106190D01*
X73125714Y-57582380D02*
X73125714Y-56582380D01*
X73506666Y-56582380D01*
X73601904Y-56630000D01*
X73649523Y-56677619D01*
X73697142Y-56772857D01*
X73697142Y-56915714D01*
X73649523Y-57010952D01*
X73601904Y-57058571D01*
X73506666Y-57106190D01*
X73125714Y-57106190D01*
X74030476Y-56582380D02*
X74649523Y-56582380D01*
X74316190Y-56963333D01*
X74459047Y-56963333D01*
X74554285Y-57010952D01*
X74601904Y-57058571D01*
X74649523Y-57153809D01*
X74649523Y-57391904D01*
X74601904Y-57487142D01*
X74554285Y-57534761D01*
X74459047Y-57582380D01*
X74173333Y-57582380D01*
X74078095Y-57534761D01*
X74030476Y-57487142D01*
X75030476Y-56677619D02*
X75078095Y-56630000D01*
X75173333Y-56582380D01*
X75411428Y-56582380D01*
X75506666Y-56630000D01*
X75554285Y-56677619D01*
X75601904Y-56772857D01*
X75601904Y-56868095D01*
X75554285Y-57010952D01*
X74982857Y-57582380D01*
X75601904Y-57582380D01*
G04 #@! TO.C,R33*
X29607142Y-64082380D02*
X29273809Y-63606190D01*
X29035714Y-64082380D02*
X29035714Y-63082380D01*
X29416666Y-63082380D01*
X29511904Y-63130000D01*
X29559523Y-63177619D01*
X29607142Y-63272857D01*
X29607142Y-63415714D01*
X29559523Y-63510952D01*
X29511904Y-63558571D01*
X29416666Y-63606190D01*
X29035714Y-63606190D01*
X29940476Y-63082380D02*
X30559523Y-63082380D01*
X30226190Y-63463333D01*
X30369047Y-63463333D01*
X30464285Y-63510952D01*
X30511904Y-63558571D01*
X30559523Y-63653809D01*
X30559523Y-63891904D01*
X30511904Y-63987142D01*
X30464285Y-64034761D01*
X30369047Y-64082380D01*
X30083333Y-64082380D01*
X29988095Y-64034761D01*
X29940476Y-63987142D01*
X30892857Y-63082380D02*
X31511904Y-63082380D01*
X31178571Y-63463333D01*
X31321428Y-63463333D01*
X31416666Y-63510952D01*
X31464285Y-63558571D01*
X31511904Y-63653809D01*
X31511904Y-63891904D01*
X31464285Y-63987142D01*
X31416666Y-64034761D01*
X31321428Y-64082380D01*
X31035714Y-64082380D01*
X30940476Y-64034761D01*
X30892857Y-63987142D01*
G04 #@! TO.C,R36*
X75917142Y-31762380D02*
X75583809Y-31286190D01*
X75345714Y-31762380D02*
X75345714Y-30762380D01*
X75726666Y-30762380D01*
X75821904Y-30810000D01*
X75869523Y-30857619D01*
X75917142Y-30952857D01*
X75917142Y-31095714D01*
X75869523Y-31190952D01*
X75821904Y-31238571D01*
X75726666Y-31286190D01*
X75345714Y-31286190D01*
X76250476Y-30762380D02*
X76869523Y-30762380D01*
X76536190Y-31143333D01*
X76679047Y-31143333D01*
X76774285Y-31190952D01*
X76821904Y-31238571D01*
X76869523Y-31333809D01*
X76869523Y-31571904D01*
X76821904Y-31667142D01*
X76774285Y-31714761D01*
X76679047Y-31762380D01*
X76393333Y-31762380D01*
X76298095Y-31714761D01*
X76250476Y-31667142D01*
X77726666Y-30762380D02*
X77536190Y-30762380D01*
X77440952Y-30810000D01*
X77393333Y-30857619D01*
X77298095Y-31000476D01*
X77250476Y-31190952D01*
X77250476Y-31571904D01*
X77298095Y-31667142D01*
X77345714Y-31714761D01*
X77440952Y-31762380D01*
X77631428Y-31762380D01*
X77726666Y-31714761D01*
X77774285Y-31667142D01*
X77821904Y-31571904D01*
X77821904Y-31333809D01*
X77774285Y-31238571D01*
X77726666Y-31190952D01*
X77631428Y-31143333D01*
X77440952Y-31143333D01*
X77345714Y-31190952D01*
X77298095Y-31238571D01*
X77250476Y-31333809D01*
G04 #@! TO.C,R37*
X73697142Y-53722380D02*
X73363809Y-53246190D01*
X73125714Y-53722380D02*
X73125714Y-52722380D01*
X73506666Y-52722380D01*
X73601904Y-52770000D01*
X73649523Y-52817619D01*
X73697142Y-52912857D01*
X73697142Y-53055714D01*
X73649523Y-53150952D01*
X73601904Y-53198571D01*
X73506666Y-53246190D01*
X73125714Y-53246190D01*
X74030476Y-52722380D02*
X74649523Y-52722380D01*
X74316190Y-53103333D01*
X74459047Y-53103333D01*
X74554285Y-53150952D01*
X74601904Y-53198571D01*
X74649523Y-53293809D01*
X74649523Y-53531904D01*
X74601904Y-53627142D01*
X74554285Y-53674761D01*
X74459047Y-53722380D01*
X74173333Y-53722380D01*
X74078095Y-53674761D01*
X74030476Y-53627142D01*
X74982857Y-52722380D02*
X75649523Y-52722380D01*
X75220952Y-53722380D01*
G04 #@! TO.C,SW3*
X23106666Y-70844761D02*
X23249523Y-70892380D01*
X23487619Y-70892380D01*
X23582857Y-70844761D01*
X23630476Y-70797142D01*
X23678095Y-70701904D01*
X23678095Y-70606666D01*
X23630476Y-70511428D01*
X23582857Y-70463809D01*
X23487619Y-70416190D01*
X23297142Y-70368571D01*
X23201904Y-70320952D01*
X23154285Y-70273333D01*
X23106666Y-70178095D01*
X23106666Y-70082857D01*
X23154285Y-69987619D01*
X23201904Y-69940000D01*
X23297142Y-69892380D01*
X23535238Y-69892380D01*
X23678095Y-69940000D01*
X24011428Y-69892380D02*
X24249523Y-70892380D01*
X24440000Y-70178095D01*
X24630476Y-70892380D01*
X24868571Y-69892380D01*
X25154285Y-69892380D02*
X25773333Y-69892380D01*
X25440000Y-70273333D01*
X25582857Y-70273333D01*
X25678095Y-70320952D01*
X25725714Y-70368571D01*
X25773333Y-70463809D01*
X25773333Y-70701904D01*
X25725714Y-70797142D01*
X25678095Y-70844761D01*
X25582857Y-70892380D01*
X25297142Y-70892380D01*
X25201904Y-70844761D01*
X25154285Y-70797142D01*
G04 #@! TO.C,TP1*
X26988095Y-29452380D02*
X27559523Y-29452380D01*
X27273809Y-30452380D02*
X27273809Y-29452380D01*
X27892857Y-30452380D02*
X27892857Y-29452380D01*
X28273809Y-29452380D01*
X28369047Y-29500000D01*
X28416666Y-29547619D01*
X28464285Y-29642857D01*
X28464285Y-29785714D01*
X28416666Y-29880952D01*
X28369047Y-29928571D01*
X28273809Y-29976190D01*
X27892857Y-29976190D01*
X29416666Y-30452380D02*
X28845238Y-30452380D01*
X29130952Y-30452380D02*
X29130952Y-29452380D01*
X29035714Y-29595238D01*
X28940476Y-29690476D01*
X28845238Y-29738095D01*
G04 #@! TO.C,TP2*
X27238095Y-34642380D02*
X27809523Y-34642380D01*
X27523809Y-35642380D02*
X27523809Y-34642380D01*
X28142857Y-35642380D02*
X28142857Y-34642380D01*
X28523809Y-34642380D01*
X28619047Y-34690000D01*
X28666666Y-34737619D01*
X28714285Y-34832857D01*
X28714285Y-34975714D01*
X28666666Y-35070952D01*
X28619047Y-35118571D01*
X28523809Y-35166190D01*
X28142857Y-35166190D01*
X29095238Y-34737619D02*
X29142857Y-34690000D01*
X29238095Y-34642380D01*
X29476190Y-34642380D01*
X29571428Y-34690000D01*
X29619047Y-34737619D01*
X29666666Y-34832857D01*
X29666666Y-34928095D01*
X29619047Y-35070952D01*
X29047619Y-35642380D01*
X29666666Y-35642380D01*
G04 #@! TO.C,TP3*
X37038095Y-42487380D02*
X37609523Y-42487380D01*
X37323809Y-43487380D02*
X37323809Y-42487380D01*
X37942857Y-43487380D02*
X37942857Y-42487380D01*
X38323809Y-42487380D01*
X38419047Y-42535000D01*
X38466666Y-42582619D01*
X38514285Y-42677857D01*
X38514285Y-42820714D01*
X38466666Y-42915952D01*
X38419047Y-42963571D01*
X38323809Y-43011190D01*
X37942857Y-43011190D01*
X38847619Y-42487380D02*
X39466666Y-42487380D01*
X39133333Y-42868333D01*
X39276190Y-42868333D01*
X39371428Y-42915952D01*
X39419047Y-42963571D01*
X39466666Y-43058809D01*
X39466666Y-43296904D01*
X39419047Y-43392142D01*
X39371428Y-43439761D01*
X39276190Y-43487380D01*
X38990476Y-43487380D01*
X38895238Y-43439761D01*
X38847619Y-43392142D01*
G04 #@! TO.C,U1*
X29748095Y-57132380D02*
X29748095Y-57941904D01*
X29795714Y-58037142D01*
X29843333Y-58084761D01*
X29938571Y-58132380D01*
X30129047Y-58132380D01*
X30224285Y-58084761D01*
X30271904Y-58037142D01*
X30319523Y-57941904D01*
X30319523Y-57132380D01*
X31319523Y-58132380D02*
X30748095Y-58132380D01*
X31033809Y-58132380D02*
X31033809Y-57132380D01*
X30938571Y-57275238D01*
X30843333Y-57370476D01*
X30748095Y-57418095D01*
G04 #@! TO.C,U2*
X29478095Y-46472380D02*
X29478095Y-47281904D01*
X29525714Y-47377142D01*
X29573333Y-47424761D01*
X29668571Y-47472380D01*
X29859047Y-47472380D01*
X29954285Y-47424761D01*
X30001904Y-47377142D01*
X30049523Y-47281904D01*
X30049523Y-46472380D01*
X30478095Y-46567619D02*
X30525714Y-46520000D01*
X30620952Y-46472380D01*
X30859047Y-46472380D01*
X30954285Y-46520000D01*
X31001904Y-46567619D01*
X31049523Y-46662857D01*
X31049523Y-46758095D01*
X31001904Y-46900952D01*
X30430476Y-47472380D01*
X31049523Y-47472380D01*
G04 #@! TO.C,U4*
X65208095Y-53032380D02*
X65208095Y-53841904D01*
X65255714Y-53937142D01*
X65303333Y-53984761D01*
X65398571Y-54032380D01*
X65589047Y-54032380D01*
X65684285Y-53984761D01*
X65731904Y-53937142D01*
X65779523Y-53841904D01*
X65779523Y-53032380D01*
X66684285Y-53365714D02*
X66684285Y-54032380D01*
X66446190Y-52984761D02*
X66208095Y-53699047D01*
X66827142Y-53699047D01*
G04 #@! TO.C,U5*
X33818095Y-28452380D02*
X33818095Y-29261904D01*
X33865714Y-29357142D01*
X33913333Y-29404761D01*
X34008571Y-29452380D01*
X34199047Y-29452380D01*
X34294285Y-29404761D01*
X34341904Y-29357142D01*
X34389523Y-29261904D01*
X34389523Y-28452380D01*
X35341904Y-28452380D02*
X34865714Y-28452380D01*
X34818095Y-28928571D01*
X34865714Y-28880952D01*
X34960952Y-28833333D01*
X35199047Y-28833333D01*
X35294285Y-28880952D01*
X35341904Y-28928571D01*
X35389523Y-29023809D01*
X35389523Y-29261904D01*
X35341904Y-29357142D01*
X35294285Y-29404761D01*
X35199047Y-29452380D01*
X34960952Y-29452380D01*
X34865714Y-29404761D01*
X34818095Y-29357142D01*
G04 #@! TO.C,U8*
X35668095Y-59412380D02*
X35668095Y-60221904D01*
X35715714Y-60317142D01*
X35763333Y-60364761D01*
X35858571Y-60412380D01*
X36049047Y-60412380D01*
X36144285Y-60364761D01*
X36191904Y-60317142D01*
X36239523Y-60221904D01*
X36239523Y-59412380D01*
X36858571Y-59840952D02*
X36763333Y-59793333D01*
X36715714Y-59745714D01*
X36668095Y-59650476D01*
X36668095Y-59602857D01*
X36715714Y-59507619D01*
X36763333Y-59460000D01*
X36858571Y-59412380D01*
X37049047Y-59412380D01*
X37144285Y-59460000D01*
X37191904Y-59507619D01*
X37239523Y-59602857D01*
X37239523Y-59650476D01*
X37191904Y-59745714D01*
X37144285Y-59793333D01*
X37049047Y-59840952D01*
X36858571Y-59840952D01*
X36763333Y-59888571D01*
X36715714Y-59936190D01*
X36668095Y-60031428D01*
X36668095Y-60221904D01*
X36715714Y-60317142D01*
X36763333Y-60364761D01*
X36858571Y-60412380D01*
X37049047Y-60412380D01*
X37144285Y-60364761D01*
X37191904Y-60317142D01*
X37239523Y-60221904D01*
X37239523Y-60031428D01*
X37191904Y-59936190D01*
X37144285Y-59888571D01*
X37049047Y-59840952D01*
G04 #@! TO.C,Q7*
X42974761Y-69907619D02*
X42879523Y-69860000D01*
X42784285Y-69764761D01*
X42641428Y-69621904D01*
X42546190Y-69574285D01*
X42450952Y-69574285D01*
X42498571Y-69812380D02*
X42403333Y-69764761D01*
X42308095Y-69669523D01*
X42260476Y-69479047D01*
X42260476Y-69145714D01*
X42308095Y-68955238D01*
X42403333Y-68860000D01*
X42498571Y-68812380D01*
X42689047Y-68812380D01*
X42784285Y-68860000D01*
X42879523Y-68955238D01*
X42927142Y-69145714D01*
X42927142Y-69479047D01*
X42879523Y-69669523D01*
X42784285Y-69764761D01*
X42689047Y-69812380D01*
X42498571Y-69812380D01*
X43260476Y-68812380D02*
X43927142Y-68812380D01*
X43498571Y-69812380D01*
G04 #@! TO.C,JP1*
X30431666Y-67662380D02*
X30431666Y-68376666D01*
X30384047Y-68519523D01*
X30288809Y-68614761D01*
X30145952Y-68662380D01*
X30050714Y-68662380D01*
X30907857Y-68662380D02*
X30907857Y-67662380D01*
X31288809Y-67662380D01*
X31384047Y-67710000D01*
X31431666Y-67757619D01*
X31479285Y-67852857D01*
X31479285Y-67995714D01*
X31431666Y-68090952D01*
X31384047Y-68138571D01*
X31288809Y-68186190D01*
X30907857Y-68186190D01*
X32431666Y-68662380D02*
X31860238Y-68662380D01*
X32145952Y-68662380D02*
X32145952Y-67662380D01*
X32050714Y-67805238D01*
X31955476Y-67900476D01*
X31860238Y-67948095D01*
G04 #@! TD*
M02*
