G04 #@! TF.GenerationSoftware,KiCad,Pcbnew,(5.0.2)-1*
G04 #@! TF.CreationDate,2020-06-29T20:54:18+09:00*
G04 #@! TF.ProjectId,schematic,73636865-6d61-4746-9963-2e6b69636164,rev?*
G04 #@! TF.SameCoordinates,Original*
G04 #@! TF.FileFunction,Legend,Bot*
G04 #@! TF.FilePolarity,Positive*
%FSLAX46Y46*%
G04 Gerber Fmt 4.6, Leading zero omitted, Abs format (unit mm)*
G04 Created by KiCad (PCBNEW (5.0.2)-1) date 2020/06/29 20:54:18*
%MOMM*%
%LPD*%
G01*
G04 APERTURE LIST*
%ADD10C,0.150000*%
%ADD11C,0.120000*%
%ADD12C,0.010000*%
G04 APERTURE END LIST*
D10*
X82853553Y-93250000D02*
G75*
G03X82853553Y-93250000I-353553J0D01*
G01*
X82353553Y-86000000D02*
G75*
G03X82353553Y-86000000I-353553J0D01*
G01*
X77353553Y-82500000D02*
G75*
G03X77353553Y-82500000I-353553J0D01*
G01*
X97353553Y-82750000D02*
G75*
G03X97353553Y-82750000I-353553J0D01*
G01*
X90250000Y-87000000D02*
X91000000Y-86500000D01*
X90250000Y-86000000D02*
X90250000Y-87000000D01*
X91000000Y-86500000D02*
X90250000Y-86000000D01*
X91000000Y-87000000D02*
X91000000Y-86000000D01*
X96000000Y-96250000D02*
X95750000Y-96250000D01*
X96000000Y-95250000D02*
X96250000Y-95250000D01*
X96750000Y-96250000D02*
X96000000Y-95750000D01*
X96750000Y-95250000D02*
X96750000Y-96250000D01*
X96000000Y-95750000D02*
X96750000Y-95250000D01*
X96000000Y-96250000D02*
X96000000Y-95250000D01*
X73853553Y-103250000D02*
G75*
G03X73853553Y-103250000I-353553J0D01*
G01*
X68103553Y-100750000D02*
G75*
G03X68103553Y-100750000I-353553J0D01*
G01*
D11*
G04 #@! TO.C,R17*
X72647936Y-100590000D02*
X73852064Y-100590000D01*
X72647936Y-102410000D02*
X73852064Y-102410000D01*
G04 #@! TO.C,C1*
X87528733Y-89390000D02*
X87871267Y-89390000D01*
X87528733Y-90410000D02*
X87871267Y-90410000D01*
G04 #@! TO.C,C3*
X93402064Y-95260000D02*
X92197936Y-95260000D01*
X93402064Y-92540000D02*
X92197936Y-92540000D01*
G04 #@! TO.C,C12*
X80610000Y-89228733D02*
X80610000Y-89571267D01*
X79590000Y-89228733D02*
X79590000Y-89571267D01*
G04 #@! TO.C,C17*
X87728733Y-95190000D02*
X88071267Y-95190000D01*
X87728733Y-96210000D02*
X88071267Y-96210000D01*
G04 #@! TO.C,C20*
X44490000Y-88171267D02*
X44490000Y-87828733D01*
X45510000Y-88171267D02*
X45510000Y-87828733D01*
G04 #@! TO.C,D1*
X94100000Y-98500000D02*
X97950000Y-98500000D01*
X94100000Y-96500000D02*
X97950000Y-96500000D01*
X94100000Y-98500000D02*
X94100000Y-96500000D01*
G04 #@! TO.C,D4*
X92240000Y-88545000D02*
X89780000Y-88545000D01*
X92240000Y-87075000D02*
X92240000Y-88545000D01*
X89780000Y-87075000D02*
X92240000Y-87075000D01*
D10*
G04 #@! TO.C,IC1*
X67375000Y-103275000D02*
X67375000Y-102350000D01*
X70475000Y-103275000D02*
X70475000Y-106525000D01*
X67225000Y-103275000D02*
X67225000Y-106525000D01*
X70475000Y-103275000D02*
X70227500Y-103275000D01*
X70475000Y-106525000D02*
X70227500Y-106525000D01*
X67225000Y-106525000D02*
X67472500Y-106525000D01*
X67225000Y-103275000D02*
X67375000Y-103275000D01*
D11*
G04 #@! TO.C,Q2*
X67840000Y-88230000D02*
X69300000Y-88230000D01*
X67840000Y-85070000D02*
X70000000Y-85070000D01*
X67840000Y-85070000D02*
X67840000Y-86000000D01*
X67840000Y-88230000D02*
X67840000Y-87300000D01*
G04 #@! TO.C,Q3*
X60640000Y-87130000D02*
X62100000Y-87130000D01*
X60640000Y-83970000D02*
X62800000Y-83970000D01*
X60640000Y-83970000D02*
X60640000Y-84900000D01*
X60640000Y-87130000D02*
X60640000Y-86200000D01*
G04 #@! TO.C,Q6*
X48460000Y-96510000D02*
X48460000Y-95350000D01*
X46540000Y-96510000D02*
X46540000Y-95100000D01*
X46540000Y-96510000D02*
X46850000Y-96510000D01*
X48460000Y-96510000D02*
X48150000Y-96510000D01*
G04 #@! TO.C,Q7*
X46540000Y-83490000D02*
X46540000Y-84650000D01*
X48460000Y-83490000D02*
X48460000Y-84900000D01*
X48460000Y-83490000D02*
X48150000Y-83490000D01*
X46540000Y-83490000D02*
X46850000Y-83490000D01*
G04 #@! TO.C,Q8*
X64855000Y-106660000D02*
X64855000Y-105200000D01*
X61695000Y-106660000D02*
X61695000Y-104500000D01*
X61695000Y-106660000D02*
X62625000Y-106660000D01*
X64855000Y-106660000D02*
X63925000Y-106660000D01*
G04 #@! TO.C,Q9*
X61130000Y-106560000D02*
X61130000Y-105100000D01*
X57970000Y-106560000D02*
X57970000Y-104400000D01*
X57970000Y-106560000D02*
X58900000Y-106560000D01*
X61130000Y-106560000D02*
X60200000Y-106560000D01*
D10*
G04 #@! TO.C,U1*
X82275000Y-87450000D02*
X82275000Y-89375000D01*
X85525000Y-88225000D02*
X85525000Y-89375000D01*
D11*
G04 #@! TO.C,U3*
X93900000Y-83090000D02*
X96350000Y-83090000D01*
X95700000Y-86310000D02*
X93900000Y-86310000D01*
D10*
G04 #@! TO.C,U4*
X77275000Y-83850000D02*
X77275000Y-85775000D01*
X80525000Y-84625000D02*
X80525000Y-85775000D01*
G04 #@! TO.C,U5*
X70875000Y-90035000D02*
X72000000Y-90035000D01*
X70875000Y-97875000D02*
X66725000Y-97875000D01*
X70875000Y-88925000D02*
X66725000Y-88925000D01*
X70875000Y-97875000D02*
X70875000Y-96765000D01*
X66725000Y-97875000D02*
X66725000Y-96765000D01*
X66725000Y-88925000D02*
X66725000Y-90035000D01*
X70875000Y-90035000D02*
X70875000Y-88925000D01*
G04 #@! TO.C,U6*
X82775000Y-94650000D02*
X82775000Y-96575000D01*
X86025000Y-95425000D02*
X86025000Y-96575000D01*
D11*
G04 #@! TO.C,U7*
X73140000Y-107560000D02*
X73140000Y-104610000D01*
X76360000Y-105760000D02*
X76360000Y-107560000D01*
D12*
G04 #@! TO.C,G\002A\002A\002A*
G36*
X54764753Y-85693634D02*
X54775263Y-85816367D01*
X54792715Y-85934002D01*
X54817193Y-86045628D01*
X54827283Y-86082580D01*
X54854022Y-86167317D01*
X54883233Y-86243717D01*
X54915658Y-86313453D01*
X54952037Y-86378201D01*
X54971873Y-86409126D01*
X55022708Y-86476957D01*
X55078650Y-86536132D01*
X55139545Y-86586548D01*
X55205238Y-86628103D01*
X55275574Y-86660694D01*
X55350397Y-86684218D01*
X55404080Y-86695034D01*
X55458880Y-86700859D01*
X55518098Y-86702161D01*
X55578150Y-86699103D01*
X55635455Y-86691849D01*
X55679457Y-86682471D01*
X55763163Y-86655246D01*
X55842163Y-86619068D01*
X55916192Y-86574122D01*
X55984986Y-86520594D01*
X56048281Y-86458668D01*
X56105812Y-86388529D01*
X56112296Y-86379598D01*
X56124914Y-86360679D01*
X56138889Y-86337593D01*
X56153238Y-86312227D01*
X56166977Y-86286471D01*
X56179122Y-86262212D01*
X56188691Y-86241338D01*
X56194698Y-86225739D01*
X56196280Y-86218383D01*
X56195549Y-86215068D01*
X56192415Y-86212677D01*
X56185468Y-86211062D01*
X56173295Y-86210072D01*
X56154485Y-86209560D01*
X56127627Y-86209375D01*
X56110890Y-86209360D01*
X56075154Y-86209641D01*
X56048718Y-86210526D01*
X56030734Y-86212070D01*
X56020358Y-86214332D01*
X56017806Y-86215710D01*
X56011728Y-86222414D01*
X56001532Y-86235379D01*
X55988847Y-86252484D01*
X55980005Y-86264868D01*
X55963241Y-86287042D01*
X55942224Y-86312440D01*
X55920112Y-86337337D01*
X55906524Y-86351612D01*
X55849000Y-86403677D01*
X55788095Y-86447137D01*
X55724498Y-86481849D01*
X55658895Y-86507672D01*
X55591974Y-86524463D01*
X55524424Y-86532080D01*
X55456931Y-86530380D01*
X55390182Y-86519222D01*
X55324867Y-86498464D01*
X55284420Y-86480219D01*
X55235416Y-86452562D01*
X55191463Y-86421207D01*
X55149233Y-86383666D01*
X55131447Y-86365702D01*
X55080880Y-86305897D01*
X55035738Y-86237660D01*
X54996102Y-86161202D01*
X54962049Y-86076728D01*
X54933659Y-85984448D01*
X54911010Y-85884570D01*
X54894180Y-85777300D01*
X54888085Y-85722134D01*
X54883314Y-85656080D01*
X54880784Y-85582545D01*
X54880428Y-85503942D01*
X54882180Y-85422686D01*
X54885975Y-85341190D01*
X54891747Y-85261867D01*
X54899429Y-85187132D01*
X54903545Y-85155260D01*
X54929041Y-84999567D01*
X54962046Y-84845220D01*
X55002143Y-84693630D01*
X55048917Y-84546211D01*
X55101951Y-84404374D01*
X55160829Y-84269533D01*
X55170591Y-84249061D01*
X55183416Y-84222254D01*
X55194547Y-84198546D01*
X55203282Y-84179471D01*
X55208917Y-84166562D01*
X55210760Y-84161431D01*
X55206127Y-84159190D01*
X55194012Y-84157607D01*
X55177906Y-84157039D01*
X55145052Y-84157039D01*
X55117420Y-84204029D01*
X55100858Y-84233529D01*
X55081468Y-84270256D01*
X55060298Y-84312047D01*
X55038398Y-84356738D01*
X55016819Y-84402167D01*
X54996608Y-84446170D01*
X54978817Y-84486583D01*
X54969078Y-84509825D01*
X54920790Y-84637478D01*
X54878707Y-84768225D01*
X54842911Y-84901156D01*
X54813484Y-85035361D01*
X54790508Y-85169929D01*
X54774065Y-85303951D01*
X54764236Y-85436516D01*
X54761105Y-85566713D01*
X54764753Y-85693634D01*
X54764753Y-85693634D01*
G37*
X54764753Y-85693634D02*
X54775263Y-85816367D01*
X54792715Y-85934002D01*
X54817193Y-86045628D01*
X54827283Y-86082580D01*
X54854022Y-86167317D01*
X54883233Y-86243717D01*
X54915658Y-86313453D01*
X54952037Y-86378201D01*
X54971873Y-86409126D01*
X55022708Y-86476957D01*
X55078650Y-86536132D01*
X55139545Y-86586548D01*
X55205238Y-86628103D01*
X55275574Y-86660694D01*
X55350397Y-86684218D01*
X55404080Y-86695034D01*
X55458880Y-86700859D01*
X55518098Y-86702161D01*
X55578150Y-86699103D01*
X55635455Y-86691849D01*
X55679457Y-86682471D01*
X55763163Y-86655246D01*
X55842163Y-86619068D01*
X55916192Y-86574122D01*
X55984986Y-86520594D01*
X56048281Y-86458668D01*
X56105812Y-86388529D01*
X56112296Y-86379598D01*
X56124914Y-86360679D01*
X56138889Y-86337593D01*
X56153238Y-86312227D01*
X56166977Y-86286471D01*
X56179122Y-86262212D01*
X56188691Y-86241338D01*
X56194698Y-86225739D01*
X56196280Y-86218383D01*
X56195549Y-86215068D01*
X56192415Y-86212677D01*
X56185468Y-86211062D01*
X56173295Y-86210072D01*
X56154485Y-86209560D01*
X56127627Y-86209375D01*
X56110890Y-86209360D01*
X56075154Y-86209641D01*
X56048718Y-86210526D01*
X56030734Y-86212070D01*
X56020358Y-86214332D01*
X56017806Y-86215710D01*
X56011728Y-86222414D01*
X56001532Y-86235379D01*
X55988847Y-86252484D01*
X55980005Y-86264868D01*
X55963241Y-86287042D01*
X55942224Y-86312440D01*
X55920112Y-86337337D01*
X55906524Y-86351612D01*
X55849000Y-86403677D01*
X55788095Y-86447137D01*
X55724498Y-86481849D01*
X55658895Y-86507672D01*
X55591974Y-86524463D01*
X55524424Y-86532080D01*
X55456931Y-86530380D01*
X55390182Y-86519222D01*
X55324867Y-86498464D01*
X55284420Y-86480219D01*
X55235416Y-86452562D01*
X55191463Y-86421207D01*
X55149233Y-86383666D01*
X55131447Y-86365702D01*
X55080880Y-86305897D01*
X55035738Y-86237660D01*
X54996102Y-86161202D01*
X54962049Y-86076728D01*
X54933659Y-85984448D01*
X54911010Y-85884570D01*
X54894180Y-85777300D01*
X54888085Y-85722134D01*
X54883314Y-85656080D01*
X54880784Y-85582545D01*
X54880428Y-85503942D01*
X54882180Y-85422686D01*
X54885975Y-85341190D01*
X54891747Y-85261867D01*
X54899429Y-85187132D01*
X54903545Y-85155260D01*
X54929041Y-84999567D01*
X54962046Y-84845220D01*
X55002143Y-84693630D01*
X55048917Y-84546211D01*
X55101951Y-84404374D01*
X55160829Y-84269533D01*
X55170591Y-84249061D01*
X55183416Y-84222254D01*
X55194547Y-84198546D01*
X55203282Y-84179471D01*
X55208917Y-84166562D01*
X55210760Y-84161431D01*
X55206127Y-84159190D01*
X55194012Y-84157607D01*
X55177906Y-84157039D01*
X55145052Y-84157039D01*
X55117420Y-84204029D01*
X55100858Y-84233529D01*
X55081468Y-84270256D01*
X55060298Y-84312047D01*
X55038398Y-84356738D01*
X55016819Y-84402167D01*
X54996608Y-84446170D01*
X54978817Y-84486583D01*
X54969078Y-84509825D01*
X54920790Y-84637478D01*
X54878707Y-84768225D01*
X54842911Y-84901156D01*
X54813484Y-85035361D01*
X54790508Y-85169929D01*
X54774065Y-85303951D01*
X54764236Y-85436516D01*
X54761105Y-85566713D01*
X54764753Y-85693634D01*
G36*
X55475472Y-84122689D02*
X55478039Y-84161557D01*
X55482279Y-84197002D01*
X55485238Y-84213696D01*
X55492726Y-84246286D01*
X55501269Y-84276625D01*
X55510237Y-84302926D01*
X55519000Y-84323405D01*
X55526926Y-84336275D01*
X55529383Y-84338650D01*
X55539705Y-84342051D01*
X55559703Y-84344179D01*
X55588967Y-84344992D01*
X55592552Y-84345000D01*
X55618812Y-84344818D01*
X55637112Y-84343313D01*
X55648394Y-84339040D01*
X55653596Y-84330556D01*
X55653660Y-84316419D01*
X55649526Y-84295186D01*
X55642771Y-84267937D01*
X55632120Y-84220267D01*
X55624717Y-84175185D01*
X55620552Y-84133728D01*
X55619614Y-84096936D01*
X55621892Y-84065846D01*
X55627376Y-84041496D01*
X55636055Y-84024926D01*
X55645327Y-84017955D01*
X55665884Y-84014822D01*
X55685144Y-84020399D01*
X55694289Y-84027275D01*
X55700240Y-84034893D01*
X55710576Y-84049925D01*
X55724454Y-84071070D01*
X55741034Y-84097030D01*
X55759475Y-84126505D01*
X55777322Y-84155545D01*
X55805790Y-84201533D01*
X55830372Y-84239410D01*
X55851870Y-84270081D01*
X55871081Y-84294449D01*
X55888807Y-84313419D01*
X55905846Y-84327897D01*
X55922998Y-84338785D01*
X55941063Y-84346989D01*
X55949103Y-84349847D01*
X55987438Y-84358360D01*
X56028921Y-84360385D01*
X56070002Y-84356077D01*
X56107131Y-84345585D01*
X56113650Y-84342813D01*
X56147885Y-84321822D01*
X56177547Y-84292451D01*
X56201858Y-84255743D01*
X56220044Y-84212742D01*
X56225963Y-84191859D01*
X56228948Y-84174501D01*
X56231522Y-84150284D01*
X56233499Y-84122507D01*
X56234693Y-84094469D01*
X56234918Y-84069468D01*
X56233988Y-84050803D01*
X56233938Y-84050360D01*
X56227853Y-84006289D01*
X56220153Y-83965069D01*
X56211228Y-83928056D01*
X56201466Y-83896605D01*
X56191256Y-83872071D01*
X56180985Y-83855811D01*
X56177112Y-83852056D01*
X56169708Y-83847402D01*
X56160239Y-83844434D01*
X56146405Y-83842800D01*
X56125908Y-83842147D01*
X56111953Y-83842080D01*
X56086423Y-83842282D01*
X56068801Y-83843869D01*
X56058143Y-83848306D01*
X56053508Y-83857062D01*
X56053952Y-83871603D01*
X56058533Y-83893398D01*
X56064324Y-83916198D01*
X56074469Y-83961181D01*
X56082068Y-84006508D01*
X56086826Y-84049621D01*
X56088447Y-84087956D01*
X56087189Y-84114404D01*
X56084421Y-84134310D01*
X56080360Y-84147732D01*
X56073540Y-84158347D01*
X56066734Y-84165681D01*
X56048103Y-84178932D01*
X56028934Y-84182091D01*
X56009377Y-84175204D01*
X55989583Y-84158315D01*
X55973883Y-84137939D01*
X55965187Y-84124527D01*
X55952415Y-84104282D01*
X55936730Y-84079078D01*
X55919296Y-84050784D01*
X55901279Y-84021275D01*
X55898889Y-84017340D01*
X55869595Y-83970717D01*
X55843168Y-83932669D01*
X55818611Y-83902376D01*
X55794929Y-83879014D01*
X55771126Y-83861762D01*
X55746205Y-83849799D01*
X55719171Y-83842302D01*
X55689028Y-83838450D01*
X55681513Y-83837991D01*
X55633976Y-83839203D01*
X55592963Y-83848130D01*
X55558206Y-83864975D01*
X55529437Y-83889937D01*
X55506387Y-83923216D01*
X55488788Y-83965015D01*
X55482575Y-83986657D01*
X55478131Y-84012383D01*
X55475487Y-84045419D01*
X55474611Y-84083082D01*
X55475472Y-84122689D01*
X55475472Y-84122689D01*
G37*
X55475472Y-84122689D02*
X55478039Y-84161557D01*
X55482279Y-84197002D01*
X55485238Y-84213696D01*
X55492726Y-84246286D01*
X55501269Y-84276625D01*
X55510237Y-84302926D01*
X55519000Y-84323405D01*
X55526926Y-84336275D01*
X55529383Y-84338650D01*
X55539705Y-84342051D01*
X55559703Y-84344179D01*
X55588967Y-84344992D01*
X55592552Y-84345000D01*
X55618812Y-84344818D01*
X55637112Y-84343313D01*
X55648394Y-84339040D01*
X55653596Y-84330556D01*
X55653660Y-84316419D01*
X55649526Y-84295186D01*
X55642771Y-84267937D01*
X55632120Y-84220267D01*
X55624717Y-84175185D01*
X55620552Y-84133728D01*
X55619614Y-84096936D01*
X55621892Y-84065846D01*
X55627376Y-84041496D01*
X55636055Y-84024926D01*
X55645327Y-84017955D01*
X55665884Y-84014822D01*
X55685144Y-84020399D01*
X55694289Y-84027275D01*
X55700240Y-84034893D01*
X55710576Y-84049925D01*
X55724454Y-84071070D01*
X55741034Y-84097030D01*
X55759475Y-84126505D01*
X55777322Y-84155545D01*
X55805790Y-84201533D01*
X55830372Y-84239410D01*
X55851870Y-84270081D01*
X55871081Y-84294449D01*
X55888807Y-84313419D01*
X55905846Y-84327897D01*
X55922998Y-84338785D01*
X55941063Y-84346989D01*
X55949103Y-84349847D01*
X55987438Y-84358360D01*
X56028921Y-84360385D01*
X56070002Y-84356077D01*
X56107131Y-84345585D01*
X56113650Y-84342813D01*
X56147885Y-84321822D01*
X56177547Y-84292451D01*
X56201858Y-84255743D01*
X56220044Y-84212742D01*
X56225963Y-84191859D01*
X56228948Y-84174501D01*
X56231522Y-84150284D01*
X56233499Y-84122507D01*
X56234693Y-84094469D01*
X56234918Y-84069468D01*
X56233988Y-84050803D01*
X56233938Y-84050360D01*
X56227853Y-84006289D01*
X56220153Y-83965069D01*
X56211228Y-83928056D01*
X56201466Y-83896605D01*
X56191256Y-83872071D01*
X56180985Y-83855811D01*
X56177112Y-83852056D01*
X56169708Y-83847402D01*
X56160239Y-83844434D01*
X56146405Y-83842800D01*
X56125908Y-83842147D01*
X56111953Y-83842080D01*
X56086423Y-83842282D01*
X56068801Y-83843869D01*
X56058143Y-83848306D01*
X56053508Y-83857062D01*
X56053952Y-83871603D01*
X56058533Y-83893398D01*
X56064324Y-83916198D01*
X56074469Y-83961181D01*
X56082068Y-84006508D01*
X56086826Y-84049621D01*
X56088447Y-84087956D01*
X56087189Y-84114404D01*
X56084421Y-84134310D01*
X56080360Y-84147732D01*
X56073540Y-84158347D01*
X56066734Y-84165681D01*
X56048103Y-84178932D01*
X56028934Y-84182091D01*
X56009377Y-84175204D01*
X55989583Y-84158315D01*
X55973883Y-84137939D01*
X55965187Y-84124527D01*
X55952415Y-84104282D01*
X55936730Y-84079078D01*
X55919296Y-84050784D01*
X55901279Y-84021275D01*
X55898889Y-84017340D01*
X55869595Y-83970717D01*
X55843168Y-83932669D01*
X55818611Y-83902376D01*
X55794929Y-83879014D01*
X55771126Y-83861762D01*
X55746205Y-83849799D01*
X55719171Y-83842302D01*
X55689028Y-83838450D01*
X55681513Y-83837991D01*
X55633976Y-83839203D01*
X55592963Y-83848130D01*
X55558206Y-83864975D01*
X55529437Y-83889937D01*
X55506387Y-83923216D01*
X55488788Y-83965015D01*
X55482575Y-83986657D01*
X55478131Y-84012383D01*
X55475487Y-84045419D01*
X55474611Y-84083082D01*
X55475472Y-84122689D01*
G36*
X55495792Y-85890529D02*
X55498359Y-85929397D01*
X55502599Y-85964842D01*
X55505558Y-85981536D01*
X55513046Y-86014126D01*
X55521589Y-86044465D01*
X55530557Y-86070766D01*
X55539320Y-86091245D01*
X55547246Y-86104115D01*
X55549703Y-86106490D01*
X55560025Y-86109891D01*
X55580023Y-86112019D01*
X55609287Y-86112832D01*
X55612872Y-86112840D01*
X55639132Y-86112658D01*
X55657432Y-86111153D01*
X55668714Y-86106880D01*
X55673916Y-86098396D01*
X55673980Y-86084259D01*
X55669846Y-86063026D01*
X55663091Y-86035777D01*
X55652440Y-85988107D01*
X55645037Y-85943025D01*
X55640872Y-85901568D01*
X55639934Y-85864776D01*
X55642212Y-85833686D01*
X55647696Y-85809336D01*
X55656375Y-85792766D01*
X55665647Y-85785795D01*
X55686204Y-85782662D01*
X55705464Y-85788239D01*
X55714609Y-85795115D01*
X55720560Y-85802733D01*
X55730896Y-85817765D01*
X55744774Y-85838910D01*
X55761354Y-85864870D01*
X55779795Y-85894345D01*
X55797642Y-85923385D01*
X55826110Y-85969373D01*
X55850692Y-86007250D01*
X55872190Y-86037921D01*
X55891401Y-86062289D01*
X55909127Y-86081259D01*
X55926166Y-86095737D01*
X55943318Y-86106625D01*
X55961383Y-86114829D01*
X55969423Y-86117687D01*
X56007758Y-86126200D01*
X56049241Y-86128225D01*
X56090322Y-86123917D01*
X56127451Y-86113425D01*
X56133970Y-86110653D01*
X56168205Y-86089662D01*
X56197867Y-86060291D01*
X56222178Y-86023583D01*
X56240364Y-85980582D01*
X56246283Y-85959699D01*
X56249268Y-85942341D01*
X56251842Y-85918124D01*
X56253819Y-85890347D01*
X56255013Y-85862309D01*
X56255238Y-85837308D01*
X56254308Y-85818643D01*
X56254258Y-85818200D01*
X56248173Y-85774129D01*
X56240473Y-85732909D01*
X56231548Y-85695896D01*
X56221786Y-85664445D01*
X56211576Y-85639911D01*
X56201305Y-85623651D01*
X56197432Y-85619896D01*
X56190028Y-85615242D01*
X56180559Y-85612274D01*
X56166725Y-85610640D01*
X56146228Y-85609987D01*
X56132273Y-85609920D01*
X56106743Y-85610122D01*
X56089121Y-85611709D01*
X56078463Y-85616146D01*
X56073828Y-85624902D01*
X56074272Y-85639443D01*
X56078853Y-85661238D01*
X56084644Y-85684038D01*
X56094789Y-85729021D01*
X56102388Y-85774348D01*
X56107146Y-85817461D01*
X56108767Y-85855796D01*
X56107509Y-85882244D01*
X56104741Y-85902150D01*
X56100680Y-85915572D01*
X56093860Y-85926187D01*
X56087054Y-85933521D01*
X56068423Y-85946772D01*
X56049254Y-85949931D01*
X56029697Y-85943044D01*
X56009903Y-85926155D01*
X55994203Y-85905779D01*
X55985507Y-85892367D01*
X55972735Y-85872122D01*
X55957050Y-85846918D01*
X55939616Y-85818624D01*
X55921599Y-85789115D01*
X55919209Y-85785180D01*
X55889915Y-85738557D01*
X55863488Y-85700509D01*
X55838931Y-85670216D01*
X55815249Y-85646854D01*
X55791446Y-85629602D01*
X55766525Y-85617639D01*
X55739491Y-85610142D01*
X55709348Y-85606290D01*
X55701833Y-85605831D01*
X55654296Y-85607043D01*
X55613283Y-85615970D01*
X55578526Y-85632815D01*
X55549757Y-85657777D01*
X55526707Y-85691056D01*
X55509108Y-85732855D01*
X55502895Y-85754497D01*
X55498451Y-85780223D01*
X55495807Y-85813259D01*
X55494931Y-85850922D01*
X55495792Y-85890529D01*
X55495792Y-85890529D01*
G37*
X55495792Y-85890529D02*
X55498359Y-85929397D01*
X55502599Y-85964842D01*
X55505558Y-85981536D01*
X55513046Y-86014126D01*
X55521589Y-86044465D01*
X55530557Y-86070766D01*
X55539320Y-86091245D01*
X55547246Y-86104115D01*
X55549703Y-86106490D01*
X55560025Y-86109891D01*
X55580023Y-86112019D01*
X55609287Y-86112832D01*
X55612872Y-86112840D01*
X55639132Y-86112658D01*
X55657432Y-86111153D01*
X55668714Y-86106880D01*
X55673916Y-86098396D01*
X55673980Y-86084259D01*
X55669846Y-86063026D01*
X55663091Y-86035777D01*
X55652440Y-85988107D01*
X55645037Y-85943025D01*
X55640872Y-85901568D01*
X55639934Y-85864776D01*
X55642212Y-85833686D01*
X55647696Y-85809336D01*
X55656375Y-85792766D01*
X55665647Y-85785795D01*
X55686204Y-85782662D01*
X55705464Y-85788239D01*
X55714609Y-85795115D01*
X55720560Y-85802733D01*
X55730896Y-85817765D01*
X55744774Y-85838910D01*
X55761354Y-85864870D01*
X55779795Y-85894345D01*
X55797642Y-85923385D01*
X55826110Y-85969373D01*
X55850692Y-86007250D01*
X55872190Y-86037921D01*
X55891401Y-86062289D01*
X55909127Y-86081259D01*
X55926166Y-86095737D01*
X55943318Y-86106625D01*
X55961383Y-86114829D01*
X55969423Y-86117687D01*
X56007758Y-86126200D01*
X56049241Y-86128225D01*
X56090322Y-86123917D01*
X56127451Y-86113425D01*
X56133970Y-86110653D01*
X56168205Y-86089662D01*
X56197867Y-86060291D01*
X56222178Y-86023583D01*
X56240364Y-85980582D01*
X56246283Y-85959699D01*
X56249268Y-85942341D01*
X56251842Y-85918124D01*
X56253819Y-85890347D01*
X56255013Y-85862309D01*
X56255238Y-85837308D01*
X56254308Y-85818643D01*
X56254258Y-85818200D01*
X56248173Y-85774129D01*
X56240473Y-85732909D01*
X56231548Y-85695896D01*
X56221786Y-85664445D01*
X56211576Y-85639911D01*
X56201305Y-85623651D01*
X56197432Y-85619896D01*
X56190028Y-85615242D01*
X56180559Y-85612274D01*
X56166725Y-85610640D01*
X56146228Y-85609987D01*
X56132273Y-85609920D01*
X56106743Y-85610122D01*
X56089121Y-85611709D01*
X56078463Y-85616146D01*
X56073828Y-85624902D01*
X56074272Y-85639443D01*
X56078853Y-85661238D01*
X56084644Y-85684038D01*
X56094789Y-85729021D01*
X56102388Y-85774348D01*
X56107146Y-85817461D01*
X56108767Y-85855796D01*
X56107509Y-85882244D01*
X56104741Y-85902150D01*
X56100680Y-85915572D01*
X56093860Y-85926187D01*
X56087054Y-85933521D01*
X56068423Y-85946772D01*
X56049254Y-85949931D01*
X56029697Y-85943044D01*
X56009903Y-85926155D01*
X55994203Y-85905779D01*
X55985507Y-85892367D01*
X55972735Y-85872122D01*
X55957050Y-85846918D01*
X55939616Y-85818624D01*
X55921599Y-85789115D01*
X55919209Y-85785180D01*
X55889915Y-85738557D01*
X55863488Y-85700509D01*
X55838931Y-85670216D01*
X55815249Y-85646854D01*
X55791446Y-85629602D01*
X55766525Y-85617639D01*
X55739491Y-85610142D01*
X55709348Y-85606290D01*
X55701833Y-85605831D01*
X55654296Y-85607043D01*
X55613283Y-85615970D01*
X55578526Y-85632815D01*
X55549757Y-85657777D01*
X55526707Y-85691056D01*
X55509108Y-85732855D01*
X55502895Y-85754497D01*
X55498451Y-85780223D01*
X55495807Y-85813259D01*
X55494931Y-85850922D01*
X55495792Y-85890529D01*
G36*
X55359504Y-85334697D02*
X55362444Y-85341230D01*
X55367432Y-85345322D01*
X55367906Y-85345581D01*
X55376531Y-85347563D01*
X55393045Y-85349203D01*
X55415175Y-85350345D01*
X55440652Y-85350832D01*
X55444106Y-85350840D01*
X55510480Y-85350840D01*
X55510480Y-85419420D01*
X55510657Y-85451381D01*
X55511933Y-85474585D01*
X55515426Y-85490434D01*
X55522253Y-85500329D01*
X55533530Y-85505673D01*
X55550376Y-85507868D01*
X55573907Y-85508316D01*
X55581311Y-85508320D01*
X55605030Y-85508121D01*
X55622290Y-85506597D01*
X55634117Y-85502353D01*
X55641539Y-85493998D01*
X55645582Y-85480136D01*
X55647272Y-85459376D01*
X55647636Y-85430324D01*
X55647640Y-85418289D01*
X55647640Y-85350840D01*
X55871493Y-85350840D01*
X55927075Y-85350877D01*
X55973391Y-85351032D01*
X56011340Y-85351367D01*
X56041815Y-85351942D01*
X56065714Y-85352820D01*
X56083931Y-85354062D01*
X56097362Y-85355732D01*
X56106903Y-85357890D01*
X56113450Y-85360599D01*
X56117897Y-85363921D01*
X56121142Y-85367917D01*
X56121272Y-85368110D01*
X56122743Y-85375151D01*
X56123955Y-85390120D01*
X56124778Y-85410785D01*
X56125082Y-85433723D01*
X56125544Y-85458269D01*
X56126740Y-85479763D01*
X56128486Y-85495775D01*
X56130418Y-85503573D01*
X56133957Y-85508148D01*
X56140019Y-85511049D01*
X56150664Y-85512643D01*
X56167950Y-85513300D01*
X56185327Y-85513400D01*
X56212538Y-85512858D01*
X56231406Y-85510641D01*
X56243719Y-85505858D01*
X56251265Y-85497622D01*
X56255831Y-85485044D01*
X56257425Y-85477538D01*
X56260673Y-85453873D01*
X56263028Y-85423986D01*
X56264387Y-85391323D01*
X56264648Y-85359331D01*
X56263709Y-85331454D01*
X56262216Y-85315741D01*
X56254357Y-85275799D01*
X56242625Y-85244243D01*
X56226146Y-85219749D01*
X56204048Y-85200997D01*
X56177542Y-85187491D01*
X56170616Y-85184765D01*
X56163907Y-85182483D01*
X56156469Y-85180602D01*
X56147358Y-85179074D01*
X56135629Y-85177854D01*
X56120337Y-85176896D01*
X56100539Y-85176154D01*
X56075288Y-85175582D01*
X56043641Y-85175133D01*
X56004652Y-85174763D01*
X55957378Y-85174425D01*
X55901882Y-85174079D01*
X55845573Y-85173636D01*
X55795021Y-85173037D01*
X55750897Y-85172301D01*
X55713874Y-85171443D01*
X55684624Y-85170481D01*
X55663820Y-85169432D01*
X55652133Y-85168313D01*
X55649835Y-85167673D01*
X55645672Y-85160012D01*
X55641909Y-85146237D01*
X55640628Y-85138694D01*
X55634871Y-85100510D01*
X55629383Y-85072134D01*
X55624084Y-85053221D01*
X55618896Y-85043424D01*
X55618782Y-85043307D01*
X55609164Y-85038936D01*
X55592851Y-85036281D01*
X55572940Y-85035311D01*
X55552527Y-85035997D01*
X55534708Y-85038310D01*
X55522579Y-85042220D01*
X55519992Y-85044252D01*
X55516034Y-85054583D01*
X55512956Y-85074998D01*
X55510761Y-85105456D01*
X55510480Y-85111562D01*
X55507940Y-85170500D01*
X55448066Y-85171932D01*
X55423784Y-85172407D01*
X55406253Y-85173438D01*
X55394087Y-85176455D01*
X55385902Y-85182887D01*
X55380312Y-85194162D01*
X55375933Y-85211711D01*
X55371379Y-85236960D01*
X55368388Y-85254139D01*
X55363054Y-85285443D01*
X55359801Y-85308304D01*
X55358620Y-85324222D01*
X55359504Y-85334697D01*
X55359504Y-85334697D01*
G37*
X55359504Y-85334697D02*
X55362444Y-85341230D01*
X55367432Y-85345322D01*
X55367906Y-85345581D01*
X55376531Y-85347563D01*
X55393045Y-85349203D01*
X55415175Y-85350345D01*
X55440652Y-85350832D01*
X55444106Y-85350840D01*
X55510480Y-85350840D01*
X55510480Y-85419420D01*
X55510657Y-85451381D01*
X55511933Y-85474585D01*
X55515426Y-85490434D01*
X55522253Y-85500329D01*
X55533530Y-85505673D01*
X55550376Y-85507868D01*
X55573907Y-85508316D01*
X55581311Y-85508320D01*
X55605030Y-85508121D01*
X55622290Y-85506597D01*
X55634117Y-85502353D01*
X55641539Y-85493998D01*
X55645582Y-85480136D01*
X55647272Y-85459376D01*
X55647636Y-85430324D01*
X55647640Y-85418289D01*
X55647640Y-85350840D01*
X55871493Y-85350840D01*
X55927075Y-85350877D01*
X55973391Y-85351032D01*
X56011340Y-85351367D01*
X56041815Y-85351942D01*
X56065714Y-85352820D01*
X56083931Y-85354062D01*
X56097362Y-85355732D01*
X56106903Y-85357890D01*
X56113450Y-85360599D01*
X56117897Y-85363921D01*
X56121142Y-85367917D01*
X56121272Y-85368110D01*
X56122743Y-85375151D01*
X56123955Y-85390120D01*
X56124778Y-85410785D01*
X56125082Y-85433723D01*
X56125544Y-85458269D01*
X56126740Y-85479763D01*
X56128486Y-85495775D01*
X56130418Y-85503573D01*
X56133957Y-85508148D01*
X56140019Y-85511049D01*
X56150664Y-85512643D01*
X56167950Y-85513300D01*
X56185327Y-85513400D01*
X56212538Y-85512858D01*
X56231406Y-85510641D01*
X56243719Y-85505858D01*
X56251265Y-85497622D01*
X56255831Y-85485044D01*
X56257425Y-85477538D01*
X56260673Y-85453873D01*
X56263028Y-85423986D01*
X56264387Y-85391323D01*
X56264648Y-85359331D01*
X56263709Y-85331454D01*
X56262216Y-85315741D01*
X56254357Y-85275799D01*
X56242625Y-85244243D01*
X56226146Y-85219749D01*
X56204048Y-85200997D01*
X56177542Y-85187491D01*
X56170616Y-85184765D01*
X56163907Y-85182483D01*
X56156469Y-85180602D01*
X56147358Y-85179074D01*
X56135629Y-85177854D01*
X56120337Y-85176896D01*
X56100539Y-85176154D01*
X56075288Y-85175582D01*
X56043641Y-85175133D01*
X56004652Y-85174763D01*
X55957378Y-85174425D01*
X55901882Y-85174079D01*
X55845573Y-85173636D01*
X55795021Y-85173037D01*
X55750897Y-85172301D01*
X55713874Y-85171443D01*
X55684624Y-85170481D01*
X55663820Y-85169432D01*
X55652133Y-85168313D01*
X55649835Y-85167673D01*
X55645672Y-85160012D01*
X55641909Y-85146237D01*
X55640628Y-85138694D01*
X55634871Y-85100510D01*
X55629383Y-85072134D01*
X55624084Y-85053221D01*
X55618896Y-85043424D01*
X55618782Y-85043307D01*
X55609164Y-85038936D01*
X55592851Y-85036281D01*
X55572940Y-85035311D01*
X55552527Y-85035997D01*
X55534708Y-85038310D01*
X55522579Y-85042220D01*
X55519992Y-85044252D01*
X55516034Y-85054583D01*
X55512956Y-85074998D01*
X55510761Y-85105456D01*
X55510480Y-85111562D01*
X55507940Y-85170500D01*
X55448066Y-85171932D01*
X55423784Y-85172407D01*
X55406253Y-85173438D01*
X55394087Y-85176455D01*
X55385902Y-85182887D01*
X55380312Y-85194162D01*
X55375933Y-85211711D01*
X55371379Y-85236960D01*
X55368388Y-85254139D01*
X55363054Y-85285443D01*
X55359801Y-85308304D01*
X55358620Y-85324222D01*
X55359504Y-85334697D01*
G36*
X55274370Y-84530099D02*
X55274840Y-84550605D01*
X55275877Y-84564341D01*
X55277689Y-84573002D01*
X55280483Y-84578283D01*
X55284120Y-84581629D01*
X55289038Y-84583881D01*
X55297634Y-84585635D01*
X55311003Y-84586946D01*
X55330243Y-84587867D01*
X55356450Y-84588454D01*
X55390722Y-84588759D01*
X55429815Y-84588840D01*
X55565648Y-84588840D01*
X55552786Y-84620494D01*
X55537807Y-84665844D01*
X55528823Y-84714404D01*
X55525393Y-84768735D01*
X55525334Y-84780237D01*
X55527843Y-84827430D01*
X55535309Y-84867295D01*
X55548135Y-84901582D01*
X55556909Y-84917548D01*
X55574809Y-84940058D01*
X55599467Y-84962075D01*
X55627689Y-84981054D01*
X55650843Y-84992404D01*
X55684712Y-85005962D01*
X55977104Y-85005554D01*
X56042318Y-85005415D01*
X56097986Y-85005182D01*
X56144725Y-85004842D01*
X56183148Y-85004383D01*
X56213872Y-85003788D01*
X56237509Y-85003046D01*
X56254676Y-85002143D01*
X56265988Y-85001063D01*
X56272058Y-84999795D01*
X56273450Y-84998923D01*
X56274961Y-84991692D01*
X56276219Y-84976469D01*
X56277099Y-84955423D01*
X56277477Y-84930721D01*
X56277482Y-84928492D01*
X56277302Y-84900730D01*
X56276536Y-84881234D01*
X56274962Y-84868117D01*
X56272356Y-84859493D01*
X56268670Y-84853677D01*
X56266476Y-84851305D01*
X56263644Y-84849310D01*
X56259323Y-84847655D01*
X56252663Y-84846301D01*
X56242814Y-84845210D01*
X56228926Y-84844344D01*
X56210150Y-84843666D01*
X56185634Y-84843137D01*
X56154531Y-84842719D01*
X56115989Y-84842374D01*
X56069158Y-84842064D01*
X56013189Y-84841751D01*
X56000700Y-84841685D01*
X55941755Y-84841338D01*
X55892112Y-84840961D01*
X55850913Y-84840524D01*
X55817298Y-84839996D01*
X55790410Y-84839349D01*
X55769389Y-84838553D01*
X55753378Y-84837577D01*
X55741519Y-84836391D01*
X55732952Y-84834967D01*
X55726819Y-84833273D01*
X55723840Y-84832064D01*
X55702515Y-84818888D01*
X55688268Y-84801381D01*
X55679461Y-84777267D01*
X55677507Y-84767685D01*
X55675592Y-84735517D01*
X55679625Y-84698428D01*
X55689089Y-84659337D01*
X55703463Y-84621171D01*
X55718005Y-84589099D01*
X55989911Y-84587699D01*
X56052051Y-84587331D01*
X56104726Y-84586906D01*
X56148631Y-84586402D01*
X56184462Y-84585801D01*
X56212913Y-84585083D01*
X56234679Y-84584226D01*
X56250456Y-84583212D01*
X56260938Y-84582021D01*
X56266822Y-84580632D01*
X56268418Y-84579710D01*
X56271531Y-84571606D01*
X56273974Y-84555716D01*
X56275705Y-84534396D01*
X56276682Y-84510001D01*
X56276862Y-84484887D01*
X56276202Y-84461409D01*
X56274660Y-84441923D01*
X56272194Y-84428783D01*
X56271190Y-84426280D01*
X56264560Y-84413580D01*
X55776403Y-84412284D01*
X55694750Y-84412078D01*
X55622657Y-84411923D01*
X55559522Y-84411829D01*
X55504746Y-84411805D01*
X55457727Y-84411859D01*
X55417866Y-84412000D01*
X55384561Y-84412236D01*
X55357213Y-84412577D01*
X55335220Y-84413030D01*
X55317982Y-84413604D01*
X55304899Y-84414309D01*
X55295369Y-84415152D01*
X55288793Y-84416143D01*
X55284570Y-84417289D01*
X55282099Y-84418600D01*
X55281253Y-84419415D01*
X55278257Y-84425977D01*
X55276179Y-84438121D01*
X55274906Y-84457155D01*
X55274325Y-84484387D01*
X55274260Y-84501130D01*
X55274370Y-84530099D01*
X55274370Y-84530099D01*
G37*
X55274370Y-84530099D02*
X55274840Y-84550605D01*
X55275877Y-84564341D01*
X55277689Y-84573002D01*
X55280483Y-84578283D01*
X55284120Y-84581629D01*
X55289038Y-84583881D01*
X55297634Y-84585635D01*
X55311003Y-84586946D01*
X55330243Y-84587867D01*
X55356450Y-84588454D01*
X55390722Y-84588759D01*
X55429815Y-84588840D01*
X55565648Y-84588840D01*
X55552786Y-84620494D01*
X55537807Y-84665844D01*
X55528823Y-84714404D01*
X55525393Y-84768735D01*
X55525334Y-84780237D01*
X55527843Y-84827430D01*
X55535309Y-84867295D01*
X55548135Y-84901582D01*
X55556909Y-84917548D01*
X55574809Y-84940058D01*
X55599467Y-84962075D01*
X55627689Y-84981054D01*
X55650843Y-84992404D01*
X55684712Y-85005962D01*
X55977104Y-85005554D01*
X56042318Y-85005415D01*
X56097986Y-85005182D01*
X56144725Y-85004842D01*
X56183148Y-85004383D01*
X56213872Y-85003788D01*
X56237509Y-85003046D01*
X56254676Y-85002143D01*
X56265988Y-85001063D01*
X56272058Y-84999795D01*
X56273450Y-84998923D01*
X56274961Y-84991692D01*
X56276219Y-84976469D01*
X56277099Y-84955423D01*
X56277477Y-84930721D01*
X56277482Y-84928492D01*
X56277302Y-84900730D01*
X56276536Y-84881234D01*
X56274962Y-84868117D01*
X56272356Y-84859493D01*
X56268670Y-84853677D01*
X56266476Y-84851305D01*
X56263644Y-84849310D01*
X56259323Y-84847655D01*
X56252663Y-84846301D01*
X56242814Y-84845210D01*
X56228926Y-84844344D01*
X56210150Y-84843666D01*
X56185634Y-84843137D01*
X56154531Y-84842719D01*
X56115989Y-84842374D01*
X56069158Y-84842064D01*
X56013189Y-84841751D01*
X56000700Y-84841685D01*
X55941755Y-84841338D01*
X55892112Y-84840961D01*
X55850913Y-84840524D01*
X55817298Y-84839996D01*
X55790410Y-84839349D01*
X55769389Y-84838553D01*
X55753378Y-84837577D01*
X55741519Y-84836391D01*
X55732952Y-84834967D01*
X55726819Y-84833273D01*
X55723840Y-84832064D01*
X55702515Y-84818888D01*
X55688268Y-84801381D01*
X55679461Y-84777267D01*
X55677507Y-84767685D01*
X55675592Y-84735517D01*
X55679625Y-84698428D01*
X55689089Y-84659337D01*
X55703463Y-84621171D01*
X55718005Y-84589099D01*
X55989911Y-84587699D01*
X56052051Y-84587331D01*
X56104726Y-84586906D01*
X56148631Y-84586402D01*
X56184462Y-84585801D01*
X56212913Y-84585083D01*
X56234679Y-84584226D01*
X56250456Y-84583212D01*
X56260938Y-84582021D01*
X56266822Y-84580632D01*
X56268418Y-84579710D01*
X56271531Y-84571606D01*
X56273974Y-84555716D01*
X56275705Y-84534396D01*
X56276682Y-84510001D01*
X56276862Y-84484887D01*
X56276202Y-84461409D01*
X56274660Y-84441923D01*
X56272194Y-84428783D01*
X56271190Y-84426280D01*
X56264560Y-84413580D01*
X55776403Y-84412284D01*
X55694750Y-84412078D01*
X55622657Y-84411923D01*
X55559522Y-84411829D01*
X55504746Y-84411805D01*
X55457727Y-84411859D01*
X55417866Y-84412000D01*
X55384561Y-84412236D01*
X55357213Y-84412577D01*
X55335220Y-84413030D01*
X55317982Y-84413604D01*
X55304899Y-84414309D01*
X55295369Y-84415152D01*
X55288793Y-84416143D01*
X55284570Y-84417289D01*
X55282099Y-84418600D01*
X55281253Y-84419415D01*
X55278257Y-84425977D01*
X55276179Y-84438121D01*
X55274906Y-84457155D01*
X55274325Y-84484387D01*
X55274260Y-84501130D01*
X55274370Y-84530099D01*
G36*
X55391789Y-83799009D02*
X55392134Y-83799275D01*
X55404291Y-83803914D01*
X55422494Y-83805930D01*
X55442996Y-83805413D01*
X55462052Y-83802454D01*
X55475736Y-83797258D01*
X55485861Y-83790335D01*
X55501287Y-83779165D01*
X55519292Y-83765735D01*
X55526536Y-83760228D01*
X55603723Y-83707266D01*
X55685225Y-83662926D01*
X55770113Y-83627608D01*
X55857459Y-83601712D01*
X55925473Y-83588494D01*
X55957824Y-83585126D01*
X55996351Y-83583444D01*
X56037496Y-83583411D01*
X56077700Y-83584991D01*
X56113407Y-83588147D01*
X56130096Y-83590587D01*
X56202673Y-83608237D01*
X56270382Y-83634714D01*
X56333173Y-83669899D01*
X56391000Y-83713677D01*
X56443815Y-83765931D01*
X56491571Y-83826544D01*
X56534220Y-83895399D01*
X56571714Y-83972379D01*
X56604006Y-84057368D01*
X56631048Y-84150248D01*
X56652793Y-84250904D01*
X56669194Y-84359217D01*
X56680202Y-84475072D01*
X56685770Y-84598351D01*
X56685851Y-84728939D01*
X56680398Y-84866717D01*
X56676051Y-84932033D01*
X56663647Y-85059001D01*
X56645440Y-85187847D01*
X56621803Y-85317232D01*
X56593110Y-85445816D01*
X56559737Y-85572259D01*
X56522057Y-85695222D01*
X56480446Y-85813365D01*
X56435277Y-85925347D01*
X56386926Y-86029830D01*
X56348954Y-86102184D01*
X56338328Y-86121550D01*
X56329845Y-86137443D01*
X56324544Y-86147892D01*
X56323280Y-86150952D01*
X56328132Y-86151645D01*
X56341780Y-86152265D01*
X56362858Y-86152786D01*
X56390002Y-86153179D01*
X56421847Y-86153418D01*
X56449444Y-86153480D01*
X56575609Y-86153480D01*
X56603962Y-86096330D01*
X56656195Y-85982762D01*
X56704490Y-85860971D01*
X56748523Y-85732229D01*
X56787971Y-85597810D01*
X56822506Y-85458986D01*
X56851807Y-85317030D01*
X56875546Y-85173215D01*
X56893401Y-85028813D01*
X56902325Y-84926660D01*
X56903423Y-84905877D01*
X56904370Y-84877214D01*
X56905159Y-84842336D01*
X56905782Y-84802906D01*
X56906232Y-84760591D01*
X56906502Y-84717054D01*
X56906584Y-84673960D01*
X56906472Y-84632973D01*
X56906156Y-84595759D01*
X56905632Y-84563982D01*
X56904890Y-84539306D01*
X56904098Y-84525340D01*
X56890304Y-84394916D01*
X56871097Y-84273026D01*
X56846445Y-84159583D01*
X56816316Y-84054502D01*
X56780678Y-83957698D01*
X56739500Y-83869086D01*
X56692749Y-83788580D01*
X56640393Y-83716096D01*
X56582401Y-83651548D01*
X56574175Y-83643472D01*
X56515784Y-83591974D01*
X56455942Y-83549503D01*
X56393050Y-83515245D01*
X56325507Y-83488388D01*
X56251713Y-83468119D01*
X56213933Y-83460552D01*
X56169311Y-83454376D01*
X56119643Y-83450587D01*
X56068086Y-83449216D01*
X56017797Y-83450293D01*
X55971935Y-83453848D01*
X55943622Y-83457925D01*
X55853282Y-83479291D01*
X55766142Y-83510035D01*
X55682017Y-83550262D01*
X55600720Y-83600073D01*
X55522065Y-83659573D01*
X55445863Y-83728864D01*
X55435314Y-83739420D01*
X55415054Y-83760081D01*
X55401164Y-83774833D01*
X55392768Y-83784888D01*
X55388990Y-83791460D01*
X55388956Y-83795763D01*
X55391789Y-83799009D01*
X55391789Y-83799009D01*
G37*
X55391789Y-83799009D02*
X55392134Y-83799275D01*
X55404291Y-83803914D01*
X55422494Y-83805930D01*
X55442996Y-83805413D01*
X55462052Y-83802454D01*
X55475736Y-83797258D01*
X55485861Y-83790335D01*
X55501287Y-83779165D01*
X55519292Y-83765735D01*
X55526536Y-83760228D01*
X55603723Y-83707266D01*
X55685225Y-83662926D01*
X55770113Y-83627608D01*
X55857459Y-83601712D01*
X55925473Y-83588494D01*
X55957824Y-83585126D01*
X55996351Y-83583444D01*
X56037496Y-83583411D01*
X56077700Y-83584991D01*
X56113407Y-83588147D01*
X56130096Y-83590587D01*
X56202673Y-83608237D01*
X56270382Y-83634714D01*
X56333173Y-83669899D01*
X56391000Y-83713677D01*
X56443815Y-83765931D01*
X56491571Y-83826544D01*
X56534220Y-83895399D01*
X56571714Y-83972379D01*
X56604006Y-84057368D01*
X56631048Y-84150248D01*
X56652793Y-84250904D01*
X56669194Y-84359217D01*
X56680202Y-84475072D01*
X56685770Y-84598351D01*
X56685851Y-84728939D01*
X56680398Y-84866717D01*
X56676051Y-84932033D01*
X56663647Y-85059001D01*
X56645440Y-85187847D01*
X56621803Y-85317232D01*
X56593110Y-85445816D01*
X56559737Y-85572259D01*
X56522057Y-85695222D01*
X56480446Y-85813365D01*
X56435277Y-85925347D01*
X56386926Y-86029830D01*
X56348954Y-86102184D01*
X56338328Y-86121550D01*
X56329845Y-86137443D01*
X56324544Y-86147892D01*
X56323280Y-86150952D01*
X56328132Y-86151645D01*
X56341780Y-86152265D01*
X56362858Y-86152786D01*
X56390002Y-86153179D01*
X56421847Y-86153418D01*
X56449444Y-86153480D01*
X56575609Y-86153480D01*
X56603962Y-86096330D01*
X56656195Y-85982762D01*
X56704490Y-85860971D01*
X56748523Y-85732229D01*
X56787971Y-85597810D01*
X56822506Y-85458986D01*
X56851807Y-85317030D01*
X56875546Y-85173215D01*
X56893401Y-85028813D01*
X56902325Y-84926660D01*
X56903423Y-84905877D01*
X56904370Y-84877214D01*
X56905159Y-84842336D01*
X56905782Y-84802906D01*
X56906232Y-84760591D01*
X56906502Y-84717054D01*
X56906584Y-84673960D01*
X56906472Y-84632973D01*
X56906156Y-84595759D01*
X56905632Y-84563982D01*
X56904890Y-84539306D01*
X56904098Y-84525340D01*
X56890304Y-84394916D01*
X56871097Y-84273026D01*
X56846445Y-84159583D01*
X56816316Y-84054502D01*
X56780678Y-83957698D01*
X56739500Y-83869086D01*
X56692749Y-83788580D01*
X56640393Y-83716096D01*
X56582401Y-83651548D01*
X56574175Y-83643472D01*
X56515784Y-83591974D01*
X56455942Y-83549503D01*
X56393050Y-83515245D01*
X56325507Y-83488388D01*
X56251713Y-83468119D01*
X56213933Y-83460552D01*
X56169311Y-83454376D01*
X56119643Y-83450587D01*
X56068086Y-83449216D01*
X56017797Y-83450293D01*
X55971935Y-83453848D01*
X55943622Y-83457925D01*
X55853282Y-83479291D01*
X55766142Y-83510035D01*
X55682017Y-83550262D01*
X55600720Y-83600073D01*
X55522065Y-83659573D01*
X55445863Y-83728864D01*
X55435314Y-83739420D01*
X55415054Y-83760081D01*
X55401164Y-83774833D01*
X55392768Y-83784888D01*
X55388990Y-83791460D01*
X55388956Y-83795763D01*
X55391789Y-83799009D01*
G36*
X57141160Y-87077503D02*
X57141519Y-87104664D01*
X57142509Y-87128557D01*
X57143995Y-87147086D01*
X57145842Y-87158154D01*
X57146418Y-87159653D01*
X57149194Y-87163460D01*
X57153850Y-87166137D01*
X57162007Y-87167881D01*
X57175283Y-87168889D01*
X57195295Y-87169356D01*
X57223663Y-87169479D01*
X57227520Y-87169480D01*
X57256948Y-87169384D01*
X57277835Y-87168966D01*
X57291801Y-87168030D01*
X57300462Y-87166380D01*
X57305438Y-87163820D01*
X57308347Y-87160153D01*
X57308621Y-87159653D01*
X57310554Y-87151112D01*
X57312166Y-87134585D01*
X57313314Y-87112245D01*
X57313856Y-87086266D01*
X57313880Y-87079504D01*
X57313630Y-87049280D01*
X57312772Y-87027540D01*
X57311146Y-87012614D01*
X57308589Y-87002837D01*
X57305971Y-86997890D01*
X57302273Y-86993382D01*
X57297408Y-86990265D01*
X57289610Y-86988285D01*
X57277113Y-86987184D01*
X57258151Y-86986708D01*
X57230956Y-86986600D01*
X57228019Y-86986600D01*
X57197060Y-86986596D01*
X57174480Y-86987507D01*
X57158962Y-86990711D01*
X57149186Y-86997589D01*
X57143834Y-87009521D01*
X57141587Y-87027887D01*
X57141126Y-87054068D01*
X57141160Y-87077503D01*
X57141160Y-87077503D01*
G37*
X57141160Y-87077503D02*
X57141519Y-87104664D01*
X57142509Y-87128557D01*
X57143995Y-87147086D01*
X57145842Y-87158154D01*
X57146418Y-87159653D01*
X57149194Y-87163460D01*
X57153850Y-87166137D01*
X57162007Y-87167881D01*
X57175283Y-87168889D01*
X57195295Y-87169356D01*
X57223663Y-87169479D01*
X57227520Y-87169480D01*
X57256948Y-87169384D01*
X57277835Y-87168966D01*
X57291801Y-87168030D01*
X57300462Y-87166380D01*
X57305438Y-87163820D01*
X57308347Y-87160153D01*
X57308621Y-87159653D01*
X57310554Y-87151112D01*
X57312166Y-87134585D01*
X57313314Y-87112245D01*
X57313856Y-87086266D01*
X57313880Y-87079504D01*
X57313630Y-87049280D01*
X57312772Y-87027540D01*
X57311146Y-87012614D01*
X57308589Y-87002837D01*
X57305971Y-86997890D01*
X57302273Y-86993382D01*
X57297408Y-86990265D01*
X57289610Y-86988285D01*
X57277113Y-86987184D01*
X57258151Y-86986708D01*
X57230956Y-86986600D01*
X57228019Y-86986600D01*
X57197060Y-86986596D01*
X57174480Y-86987507D01*
X57158962Y-86990711D01*
X57149186Y-86997589D01*
X57143834Y-87009521D01*
X57141587Y-87027887D01*
X57141126Y-87054068D01*
X57141160Y-87077503D01*
G36*
X57350890Y-84475979D02*
X57353772Y-84507530D01*
X57357267Y-84527431D01*
X57374102Y-84578780D01*
X57398927Y-84623864D01*
X57431752Y-84662695D01*
X57472586Y-84695282D01*
X57521441Y-84721636D01*
X57560260Y-84736330D01*
X57575525Y-84740780D01*
X57591170Y-84744086D01*
X57609298Y-84746480D01*
X57632012Y-84748195D01*
X57661417Y-84749465D01*
X57685079Y-84750160D01*
X57717729Y-84750914D01*
X57741742Y-84751151D01*
X57758634Y-84750776D01*
X57769920Y-84749693D01*
X57777115Y-84747804D01*
X57781734Y-84745016D01*
X57782869Y-84743964D01*
X57784945Y-84741146D01*
X57786657Y-84736616D01*
X57788040Y-84729459D01*
X57789129Y-84718756D01*
X57789957Y-84703591D01*
X57790559Y-84683046D01*
X57790970Y-84656204D01*
X57791224Y-84622148D01*
X57791355Y-84579960D01*
X57791398Y-84528723D01*
X57791400Y-84516657D01*
X57791400Y-84297881D01*
X57819933Y-84301234D01*
X57858930Y-84310038D01*
X57892606Y-84326321D01*
X57917611Y-84347272D01*
X57929615Y-84361463D01*
X57938438Y-84375467D01*
X57944543Y-84391181D01*
X57948396Y-84410503D01*
X57950460Y-84435329D01*
X57951198Y-84467556D01*
X57951223Y-84484700D01*
X57950936Y-84515018D01*
X57950018Y-84540189D01*
X57948121Y-84562857D01*
X57944897Y-84585668D01*
X57939998Y-84611270D01*
X57933077Y-84642308D01*
X57927257Y-84666947D01*
X57922272Y-84688269D01*
X57919653Y-84701909D01*
X57919351Y-84710056D01*
X57921313Y-84714896D01*
X57925488Y-84718617D01*
X57926033Y-84719017D01*
X57935375Y-84722128D01*
X57951915Y-84724425D01*
X57972717Y-84725805D01*
X57994844Y-84726166D01*
X58015359Y-84725404D01*
X58031325Y-84723418D01*
X58033996Y-84722791D01*
X58043445Y-84715715D01*
X58054018Y-84700163D01*
X58065099Y-84677669D01*
X58076074Y-84649767D01*
X58086325Y-84617990D01*
X58095238Y-84583873D01*
X58101003Y-84555858D01*
X58105076Y-84526282D01*
X58107769Y-84492497D01*
X58108967Y-84457971D01*
X58108559Y-84426169D01*
X58106431Y-84400557D01*
X58106130Y-84398537D01*
X58092583Y-84337958D01*
X58072096Y-84284788D01*
X58044625Y-84238975D01*
X58010128Y-84200465D01*
X57968560Y-84169208D01*
X57919879Y-84145151D01*
X57885380Y-84133624D01*
X57870290Y-84130267D01*
X57850793Y-84127629D01*
X57825476Y-84125598D01*
X57792931Y-84124064D01*
X57751747Y-84122917D01*
X57748220Y-84122842D01*
X57696280Y-84122401D01*
X57655510Y-84123539D01*
X57655510Y-84299318D01*
X57656511Y-84304170D01*
X57657414Y-84317877D01*
X57658182Y-84339133D01*
X57658780Y-84366635D01*
X57659171Y-84399076D01*
X57659319Y-84435152D01*
X57659320Y-84437150D01*
X57659320Y-84575021D01*
X57632070Y-84572209D01*
X57595908Y-84564403D01*
X57563614Y-84549512D01*
X57536742Y-84528684D01*
X57516848Y-84503073D01*
X57506906Y-84479573D01*
X57502350Y-84449485D01*
X57503829Y-84417149D01*
X57510887Y-84386667D01*
X57519319Y-84367914D01*
X57539817Y-84342511D01*
X57567615Y-84322309D01*
X57600614Y-84308642D01*
X57618680Y-84304634D01*
X57636134Y-84301925D01*
X57649457Y-84300008D01*
X57655510Y-84299318D01*
X57655510Y-84123539D01*
X57652579Y-84123621D01*
X57615290Y-84126785D01*
X57582585Y-84132179D01*
X57552637Y-84140087D01*
X57523618Y-84150794D01*
X57500010Y-84161486D01*
X57457213Y-84187716D01*
X57420563Y-84221660D01*
X57390695Y-84262493D01*
X57368245Y-84309395D01*
X57357012Y-84346543D01*
X57352824Y-84372502D01*
X57350411Y-84405023D01*
X57349768Y-84440662D01*
X57350890Y-84475979D01*
X57350890Y-84475979D01*
G37*
X57350890Y-84475979D02*
X57353772Y-84507530D01*
X57357267Y-84527431D01*
X57374102Y-84578780D01*
X57398927Y-84623864D01*
X57431752Y-84662695D01*
X57472586Y-84695282D01*
X57521441Y-84721636D01*
X57560260Y-84736330D01*
X57575525Y-84740780D01*
X57591170Y-84744086D01*
X57609298Y-84746480D01*
X57632012Y-84748195D01*
X57661417Y-84749465D01*
X57685079Y-84750160D01*
X57717729Y-84750914D01*
X57741742Y-84751151D01*
X57758634Y-84750776D01*
X57769920Y-84749693D01*
X57777115Y-84747804D01*
X57781734Y-84745016D01*
X57782869Y-84743964D01*
X57784945Y-84741146D01*
X57786657Y-84736616D01*
X57788040Y-84729459D01*
X57789129Y-84718756D01*
X57789957Y-84703591D01*
X57790559Y-84683046D01*
X57790970Y-84656204D01*
X57791224Y-84622148D01*
X57791355Y-84579960D01*
X57791398Y-84528723D01*
X57791400Y-84516657D01*
X57791400Y-84297881D01*
X57819933Y-84301234D01*
X57858930Y-84310038D01*
X57892606Y-84326321D01*
X57917611Y-84347272D01*
X57929615Y-84361463D01*
X57938438Y-84375467D01*
X57944543Y-84391181D01*
X57948396Y-84410503D01*
X57950460Y-84435329D01*
X57951198Y-84467556D01*
X57951223Y-84484700D01*
X57950936Y-84515018D01*
X57950018Y-84540189D01*
X57948121Y-84562857D01*
X57944897Y-84585668D01*
X57939998Y-84611270D01*
X57933077Y-84642308D01*
X57927257Y-84666947D01*
X57922272Y-84688269D01*
X57919653Y-84701909D01*
X57919351Y-84710056D01*
X57921313Y-84714896D01*
X57925488Y-84718617D01*
X57926033Y-84719017D01*
X57935375Y-84722128D01*
X57951915Y-84724425D01*
X57972717Y-84725805D01*
X57994844Y-84726166D01*
X58015359Y-84725404D01*
X58031325Y-84723418D01*
X58033996Y-84722791D01*
X58043445Y-84715715D01*
X58054018Y-84700163D01*
X58065099Y-84677669D01*
X58076074Y-84649767D01*
X58086325Y-84617990D01*
X58095238Y-84583873D01*
X58101003Y-84555858D01*
X58105076Y-84526282D01*
X58107769Y-84492497D01*
X58108967Y-84457971D01*
X58108559Y-84426169D01*
X58106431Y-84400557D01*
X58106130Y-84398537D01*
X58092583Y-84337958D01*
X58072096Y-84284788D01*
X58044625Y-84238975D01*
X58010128Y-84200465D01*
X57968560Y-84169208D01*
X57919879Y-84145151D01*
X57885380Y-84133624D01*
X57870290Y-84130267D01*
X57850793Y-84127629D01*
X57825476Y-84125598D01*
X57792931Y-84124064D01*
X57751747Y-84122917D01*
X57748220Y-84122842D01*
X57696280Y-84122401D01*
X57655510Y-84123539D01*
X57655510Y-84299318D01*
X57656511Y-84304170D01*
X57657414Y-84317877D01*
X57658182Y-84339133D01*
X57658780Y-84366635D01*
X57659171Y-84399076D01*
X57659319Y-84435152D01*
X57659320Y-84437150D01*
X57659320Y-84575021D01*
X57632070Y-84572209D01*
X57595908Y-84564403D01*
X57563614Y-84549512D01*
X57536742Y-84528684D01*
X57516848Y-84503073D01*
X57506906Y-84479573D01*
X57502350Y-84449485D01*
X57503829Y-84417149D01*
X57510887Y-84386667D01*
X57519319Y-84367914D01*
X57539817Y-84342511D01*
X57567615Y-84322309D01*
X57600614Y-84308642D01*
X57618680Y-84304634D01*
X57636134Y-84301925D01*
X57649457Y-84300008D01*
X57655510Y-84299318D01*
X57655510Y-84123539D01*
X57652579Y-84123621D01*
X57615290Y-84126785D01*
X57582585Y-84132179D01*
X57552637Y-84140087D01*
X57523618Y-84150794D01*
X57500010Y-84161486D01*
X57457213Y-84187716D01*
X57420563Y-84221660D01*
X57390695Y-84262493D01*
X57368245Y-84309395D01*
X57357012Y-84346543D01*
X57352824Y-84372502D01*
X57350411Y-84405023D01*
X57349768Y-84440662D01*
X57350890Y-84475979D01*
G36*
X57203544Y-83856417D02*
X57206484Y-83862950D01*
X57211472Y-83867042D01*
X57211946Y-83867301D01*
X57220571Y-83869283D01*
X57237085Y-83870923D01*
X57259215Y-83872065D01*
X57284692Y-83872552D01*
X57288146Y-83872560D01*
X57354520Y-83872560D01*
X57354520Y-83941140D01*
X57354697Y-83973101D01*
X57355973Y-83996305D01*
X57359466Y-84012154D01*
X57366293Y-84022049D01*
X57377570Y-84027393D01*
X57394416Y-84029588D01*
X57417947Y-84030036D01*
X57425351Y-84030040D01*
X57449070Y-84029841D01*
X57466330Y-84028317D01*
X57478157Y-84024073D01*
X57485579Y-84015718D01*
X57489622Y-84001856D01*
X57491312Y-83981096D01*
X57491676Y-83952044D01*
X57491680Y-83940009D01*
X57491680Y-83872560D01*
X57715533Y-83872560D01*
X57771115Y-83872597D01*
X57817431Y-83872752D01*
X57855380Y-83873087D01*
X57885855Y-83873662D01*
X57909754Y-83874540D01*
X57927971Y-83875782D01*
X57941402Y-83877452D01*
X57950943Y-83879610D01*
X57957490Y-83882319D01*
X57961937Y-83885641D01*
X57965182Y-83889637D01*
X57965312Y-83889830D01*
X57966783Y-83896871D01*
X57967995Y-83911840D01*
X57968818Y-83932505D01*
X57969122Y-83955443D01*
X57969584Y-83979989D01*
X57970780Y-84001483D01*
X57972526Y-84017495D01*
X57974458Y-84025293D01*
X57977997Y-84029868D01*
X57984059Y-84032769D01*
X57994704Y-84034363D01*
X58011990Y-84035020D01*
X58029367Y-84035120D01*
X58056578Y-84034578D01*
X58075446Y-84032361D01*
X58087759Y-84027578D01*
X58095305Y-84019342D01*
X58099871Y-84006764D01*
X58101465Y-83999258D01*
X58104713Y-83975593D01*
X58107068Y-83945706D01*
X58108427Y-83913043D01*
X58108688Y-83881051D01*
X58107749Y-83853174D01*
X58106256Y-83837461D01*
X58098397Y-83797519D01*
X58086665Y-83765963D01*
X58070186Y-83741469D01*
X58048088Y-83722717D01*
X58021582Y-83709211D01*
X58014656Y-83706485D01*
X58007947Y-83704203D01*
X58000509Y-83702322D01*
X57991398Y-83700794D01*
X57979669Y-83699574D01*
X57964377Y-83698616D01*
X57944579Y-83697874D01*
X57919328Y-83697302D01*
X57887681Y-83696853D01*
X57848692Y-83696483D01*
X57801418Y-83696145D01*
X57745922Y-83695799D01*
X57689613Y-83695356D01*
X57639061Y-83694757D01*
X57594937Y-83694021D01*
X57557914Y-83693163D01*
X57528664Y-83692201D01*
X57507860Y-83691152D01*
X57496173Y-83690033D01*
X57493875Y-83689393D01*
X57489712Y-83681732D01*
X57485949Y-83667957D01*
X57484668Y-83660414D01*
X57478911Y-83622230D01*
X57473423Y-83593854D01*
X57468124Y-83574941D01*
X57462936Y-83565144D01*
X57462822Y-83565027D01*
X57453204Y-83560656D01*
X57436891Y-83558001D01*
X57416980Y-83557031D01*
X57396567Y-83557717D01*
X57378748Y-83560030D01*
X57366619Y-83563940D01*
X57364032Y-83565972D01*
X57360074Y-83576303D01*
X57356996Y-83596718D01*
X57354801Y-83627176D01*
X57354520Y-83633282D01*
X57351980Y-83692220D01*
X57292106Y-83693652D01*
X57267824Y-83694127D01*
X57250293Y-83695158D01*
X57238127Y-83698175D01*
X57229942Y-83704607D01*
X57224352Y-83715882D01*
X57219973Y-83733431D01*
X57215419Y-83758680D01*
X57212428Y-83775859D01*
X57207094Y-83807163D01*
X57203841Y-83830024D01*
X57202660Y-83845942D01*
X57203544Y-83856417D01*
X57203544Y-83856417D01*
G37*
X57203544Y-83856417D02*
X57206484Y-83862950D01*
X57211472Y-83867042D01*
X57211946Y-83867301D01*
X57220571Y-83869283D01*
X57237085Y-83870923D01*
X57259215Y-83872065D01*
X57284692Y-83872552D01*
X57288146Y-83872560D01*
X57354520Y-83872560D01*
X57354520Y-83941140D01*
X57354697Y-83973101D01*
X57355973Y-83996305D01*
X57359466Y-84012154D01*
X57366293Y-84022049D01*
X57377570Y-84027393D01*
X57394416Y-84029588D01*
X57417947Y-84030036D01*
X57425351Y-84030040D01*
X57449070Y-84029841D01*
X57466330Y-84028317D01*
X57478157Y-84024073D01*
X57485579Y-84015718D01*
X57489622Y-84001856D01*
X57491312Y-83981096D01*
X57491676Y-83952044D01*
X57491680Y-83940009D01*
X57491680Y-83872560D01*
X57715533Y-83872560D01*
X57771115Y-83872597D01*
X57817431Y-83872752D01*
X57855380Y-83873087D01*
X57885855Y-83873662D01*
X57909754Y-83874540D01*
X57927971Y-83875782D01*
X57941402Y-83877452D01*
X57950943Y-83879610D01*
X57957490Y-83882319D01*
X57961937Y-83885641D01*
X57965182Y-83889637D01*
X57965312Y-83889830D01*
X57966783Y-83896871D01*
X57967995Y-83911840D01*
X57968818Y-83932505D01*
X57969122Y-83955443D01*
X57969584Y-83979989D01*
X57970780Y-84001483D01*
X57972526Y-84017495D01*
X57974458Y-84025293D01*
X57977997Y-84029868D01*
X57984059Y-84032769D01*
X57994704Y-84034363D01*
X58011990Y-84035020D01*
X58029367Y-84035120D01*
X58056578Y-84034578D01*
X58075446Y-84032361D01*
X58087759Y-84027578D01*
X58095305Y-84019342D01*
X58099871Y-84006764D01*
X58101465Y-83999258D01*
X58104713Y-83975593D01*
X58107068Y-83945706D01*
X58108427Y-83913043D01*
X58108688Y-83881051D01*
X58107749Y-83853174D01*
X58106256Y-83837461D01*
X58098397Y-83797519D01*
X58086665Y-83765963D01*
X58070186Y-83741469D01*
X58048088Y-83722717D01*
X58021582Y-83709211D01*
X58014656Y-83706485D01*
X58007947Y-83704203D01*
X58000509Y-83702322D01*
X57991398Y-83700794D01*
X57979669Y-83699574D01*
X57964377Y-83698616D01*
X57944579Y-83697874D01*
X57919328Y-83697302D01*
X57887681Y-83696853D01*
X57848692Y-83696483D01*
X57801418Y-83696145D01*
X57745922Y-83695799D01*
X57689613Y-83695356D01*
X57639061Y-83694757D01*
X57594937Y-83694021D01*
X57557914Y-83693163D01*
X57528664Y-83692201D01*
X57507860Y-83691152D01*
X57496173Y-83690033D01*
X57493875Y-83689393D01*
X57489712Y-83681732D01*
X57485949Y-83667957D01*
X57484668Y-83660414D01*
X57478911Y-83622230D01*
X57473423Y-83593854D01*
X57468124Y-83574941D01*
X57462936Y-83565144D01*
X57462822Y-83565027D01*
X57453204Y-83560656D01*
X57436891Y-83558001D01*
X57416980Y-83557031D01*
X57396567Y-83557717D01*
X57378748Y-83560030D01*
X57366619Y-83563940D01*
X57364032Y-83565972D01*
X57360074Y-83576303D01*
X57356996Y-83596718D01*
X57354801Y-83627176D01*
X57354520Y-83633282D01*
X57351980Y-83692220D01*
X57292106Y-83693652D01*
X57267824Y-83694127D01*
X57250293Y-83695158D01*
X57238127Y-83698175D01*
X57229942Y-83704607D01*
X57224352Y-83715882D01*
X57219973Y-83733431D01*
X57215419Y-83758680D01*
X57212428Y-83775859D01*
X57207094Y-83807163D01*
X57203841Y-83830024D01*
X57202660Y-83845942D01*
X57203544Y-83856417D01*
G36*
X57327272Y-85231200D02*
X57336639Y-85292458D01*
X57352489Y-85350648D01*
X57361049Y-85374347D01*
X57370100Y-85396141D01*
X57378378Y-85413137D01*
X57383052Y-85420647D01*
X57395904Y-85437497D01*
X57460302Y-85436078D01*
X57524700Y-85434660D01*
X57524083Y-85419420D01*
X57522517Y-85408656D01*
X57518711Y-85390649D01*
X57513238Y-85367916D01*
X57506738Y-85343220D01*
X57499747Y-85316740D01*
X57494988Y-85295202D01*
X57492022Y-85275224D01*
X57490409Y-85253424D01*
X57489711Y-85226422D01*
X57489574Y-85211140D01*
X57489552Y-85181967D01*
X57490071Y-85160724D01*
X57491393Y-85145182D01*
X57493778Y-85133114D01*
X57497484Y-85122292D01*
X57500842Y-85114620D01*
X57517983Y-85085493D01*
X57540370Y-85062111D01*
X57568883Y-85044025D01*
X57604399Y-85030788D01*
X57647798Y-85021954D01*
X57691670Y-85017565D01*
X57737122Y-85016750D01*
X57782316Y-85019812D01*
X57824148Y-85026398D01*
X57859514Y-85036155D01*
X57861482Y-85036878D01*
X57891943Y-85052912D01*
X57919614Y-85076095D01*
X57941560Y-85103705D01*
X57949603Y-85118614D01*
X57954624Y-85130726D01*
X57957988Y-85142356D01*
X57959993Y-85155914D01*
X57960936Y-85173813D01*
X57961116Y-85198462D01*
X57961038Y-85211140D01*
X57960466Y-85241493D01*
X57958972Y-85265548D01*
X57956033Y-85287159D01*
X57951126Y-85310181D01*
X57943820Y-85338140D01*
X57937258Y-85363386D01*
X57931812Y-85386718D01*
X57928058Y-85405497D01*
X57926582Y-85416880D01*
X57926020Y-85434660D01*
X57988323Y-85436086D01*
X58014582Y-85436581D01*
X58032697Y-85436457D01*
X58044682Y-85435434D01*
X58052547Y-85433231D01*
X58058304Y-85429568D01*
X58062392Y-85425749D01*
X58071730Y-85412533D01*
X58082191Y-85391174D01*
X58093037Y-85363517D01*
X58103531Y-85331408D01*
X58111117Y-85303982D01*
X58119760Y-85257675D01*
X58123833Y-85207106D01*
X58123126Y-85156989D01*
X58119254Y-85122057D01*
X58105094Y-85061619D01*
X58083488Y-85008090D01*
X58054439Y-84961472D01*
X58017947Y-84921768D01*
X57981302Y-84893605D01*
X57934181Y-84868264D01*
X57880116Y-84848820D01*
X57820609Y-84835517D01*
X57757159Y-84828603D01*
X57691268Y-84828322D01*
X57624435Y-84834921D01*
X57623760Y-84835023D01*
X57570625Y-84845426D01*
X57525042Y-84859713D01*
X57484818Y-84878886D01*
X57447762Y-84903946D01*
X57419410Y-84928449D01*
X57387290Y-84965546D01*
X57361636Y-85009493D01*
X57342629Y-85059162D01*
X57330446Y-85113422D01*
X57325268Y-85171145D01*
X57327272Y-85231200D01*
X57327272Y-85231200D01*
G37*
X57327272Y-85231200D02*
X57336639Y-85292458D01*
X57352489Y-85350648D01*
X57361049Y-85374347D01*
X57370100Y-85396141D01*
X57378378Y-85413137D01*
X57383052Y-85420647D01*
X57395904Y-85437497D01*
X57460302Y-85436078D01*
X57524700Y-85434660D01*
X57524083Y-85419420D01*
X57522517Y-85408656D01*
X57518711Y-85390649D01*
X57513238Y-85367916D01*
X57506738Y-85343220D01*
X57499747Y-85316740D01*
X57494988Y-85295202D01*
X57492022Y-85275224D01*
X57490409Y-85253424D01*
X57489711Y-85226422D01*
X57489574Y-85211140D01*
X57489552Y-85181967D01*
X57490071Y-85160724D01*
X57491393Y-85145182D01*
X57493778Y-85133114D01*
X57497484Y-85122292D01*
X57500842Y-85114620D01*
X57517983Y-85085493D01*
X57540370Y-85062111D01*
X57568883Y-85044025D01*
X57604399Y-85030788D01*
X57647798Y-85021954D01*
X57691670Y-85017565D01*
X57737122Y-85016750D01*
X57782316Y-85019812D01*
X57824148Y-85026398D01*
X57859514Y-85036155D01*
X57861482Y-85036878D01*
X57891943Y-85052912D01*
X57919614Y-85076095D01*
X57941560Y-85103705D01*
X57949603Y-85118614D01*
X57954624Y-85130726D01*
X57957988Y-85142356D01*
X57959993Y-85155914D01*
X57960936Y-85173813D01*
X57961116Y-85198462D01*
X57961038Y-85211140D01*
X57960466Y-85241493D01*
X57958972Y-85265548D01*
X57956033Y-85287159D01*
X57951126Y-85310181D01*
X57943820Y-85338140D01*
X57937258Y-85363386D01*
X57931812Y-85386718D01*
X57928058Y-85405497D01*
X57926582Y-85416880D01*
X57926020Y-85434660D01*
X57988323Y-85436086D01*
X58014582Y-85436581D01*
X58032697Y-85436457D01*
X58044682Y-85435434D01*
X58052547Y-85433231D01*
X58058304Y-85429568D01*
X58062392Y-85425749D01*
X58071730Y-85412533D01*
X58082191Y-85391174D01*
X58093037Y-85363517D01*
X58103531Y-85331408D01*
X58111117Y-85303982D01*
X58119760Y-85257675D01*
X58123833Y-85207106D01*
X58123126Y-85156989D01*
X58119254Y-85122057D01*
X58105094Y-85061619D01*
X58083488Y-85008090D01*
X58054439Y-84961472D01*
X58017947Y-84921768D01*
X57981302Y-84893605D01*
X57934181Y-84868264D01*
X57880116Y-84848820D01*
X57820609Y-84835517D01*
X57757159Y-84828603D01*
X57691268Y-84828322D01*
X57624435Y-84834921D01*
X57623760Y-84835023D01*
X57570625Y-84845426D01*
X57525042Y-84859713D01*
X57484818Y-84878886D01*
X57447762Y-84903946D01*
X57419410Y-84928449D01*
X57387290Y-84965546D01*
X57361636Y-85009493D01*
X57342629Y-85059162D01*
X57330446Y-85113422D01*
X57325268Y-85171145D01*
X57327272Y-85231200D01*
G36*
X57128570Y-85683259D02*
X57129040Y-85703765D01*
X57130077Y-85717501D01*
X57131889Y-85726162D01*
X57134683Y-85731443D01*
X57138320Y-85734789D01*
X57143238Y-85737041D01*
X57151834Y-85738795D01*
X57165203Y-85740106D01*
X57184443Y-85741027D01*
X57210650Y-85741614D01*
X57244922Y-85741919D01*
X57284015Y-85742000D01*
X57419848Y-85742000D01*
X57406986Y-85773654D01*
X57392007Y-85819004D01*
X57383023Y-85867564D01*
X57379593Y-85921895D01*
X57379534Y-85933397D01*
X57381881Y-85980258D01*
X57389013Y-86019550D01*
X57401557Y-86052975D01*
X57420143Y-86082234D01*
X57443818Y-86107584D01*
X57475848Y-86130938D01*
X57516711Y-86150011D01*
X57557102Y-86162576D01*
X57565689Y-86164535D01*
X57575529Y-86166180D01*
X57587536Y-86167536D01*
X57602628Y-86168632D01*
X57621720Y-86169493D01*
X57645728Y-86170147D01*
X57675568Y-86170620D01*
X57712157Y-86170939D01*
X57756410Y-86171131D01*
X57809244Y-86171223D01*
X57853371Y-86171242D01*
X57914220Y-86171198D01*
X57965628Y-86171045D01*
X58008310Y-86170767D01*
X58042984Y-86170344D01*
X58070368Y-86169761D01*
X58091179Y-86168999D01*
X58106134Y-86168041D01*
X58115950Y-86166869D01*
X58121345Y-86165466D01*
X58122611Y-86164670D01*
X58125804Y-86157178D01*
X58128225Y-86141439D01*
X58129946Y-86116781D01*
X58130888Y-86089457D01*
X58131379Y-86060119D01*
X58131098Y-86039120D01*
X58129906Y-86024656D01*
X58127661Y-86014926D01*
X58124589Y-86008673D01*
X58116621Y-85996511D01*
X57856220Y-85994985D01*
X57797107Y-85994608D01*
X57747298Y-85994204D01*
X57705938Y-85993746D01*
X57672172Y-85993202D01*
X57645143Y-85992543D01*
X57623996Y-85991738D01*
X57607875Y-85990758D01*
X57595926Y-85989573D01*
X57587292Y-85988153D01*
X57581117Y-85986466D01*
X57578040Y-85985224D01*
X57556715Y-85972048D01*
X57542468Y-85954541D01*
X57533661Y-85930427D01*
X57531707Y-85920845D01*
X57529792Y-85888677D01*
X57533825Y-85851588D01*
X57543289Y-85812497D01*
X57557663Y-85774331D01*
X57572205Y-85742259D01*
X57844111Y-85740859D01*
X57906251Y-85740491D01*
X57958926Y-85740066D01*
X58002831Y-85739562D01*
X58038662Y-85738961D01*
X58067113Y-85738243D01*
X58088879Y-85737386D01*
X58104656Y-85736372D01*
X58115138Y-85735181D01*
X58121022Y-85733792D01*
X58122618Y-85732870D01*
X58125731Y-85724766D01*
X58128174Y-85708876D01*
X58129905Y-85687556D01*
X58130882Y-85663161D01*
X58131062Y-85638047D01*
X58130402Y-85614569D01*
X58128860Y-85595083D01*
X58126394Y-85581943D01*
X58125390Y-85579440D01*
X58118760Y-85566740D01*
X57630603Y-85565444D01*
X57548950Y-85565238D01*
X57476857Y-85565083D01*
X57413722Y-85564989D01*
X57358946Y-85564965D01*
X57311927Y-85565019D01*
X57272066Y-85565160D01*
X57238761Y-85565396D01*
X57211413Y-85565737D01*
X57189420Y-85566190D01*
X57172182Y-85566764D01*
X57159099Y-85567469D01*
X57149569Y-85568312D01*
X57142993Y-85569303D01*
X57138770Y-85570449D01*
X57136299Y-85571760D01*
X57135453Y-85572575D01*
X57132457Y-85579137D01*
X57130379Y-85591281D01*
X57129106Y-85610315D01*
X57128525Y-85637547D01*
X57128460Y-85654290D01*
X57128570Y-85683259D01*
X57128570Y-85683259D01*
G37*
X57128570Y-85683259D02*
X57129040Y-85703765D01*
X57130077Y-85717501D01*
X57131889Y-85726162D01*
X57134683Y-85731443D01*
X57138320Y-85734789D01*
X57143238Y-85737041D01*
X57151834Y-85738795D01*
X57165203Y-85740106D01*
X57184443Y-85741027D01*
X57210650Y-85741614D01*
X57244922Y-85741919D01*
X57284015Y-85742000D01*
X57419848Y-85742000D01*
X57406986Y-85773654D01*
X57392007Y-85819004D01*
X57383023Y-85867564D01*
X57379593Y-85921895D01*
X57379534Y-85933397D01*
X57381881Y-85980258D01*
X57389013Y-86019550D01*
X57401557Y-86052975D01*
X57420143Y-86082234D01*
X57443818Y-86107584D01*
X57475848Y-86130938D01*
X57516711Y-86150011D01*
X57557102Y-86162576D01*
X57565689Y-86164535D01*
X57575529Y-86166180D01*
X57587536Y-86167536D01*
X57602628Y-86168632D01*
X57621720Y-86169493D01*
X57645728Y-86170147D01*
X57675568Y-86170620D01*
X57712157Y-86170939D01*
X57756410Y-86171131D01*
X57809244Y-86171223D01*
X57853371Y-86171242D01*
X57914220Y-86171198D01*
X57965628Y-86171045D01*
X58008310Y-86170767D01*
X58042984Y-86170344D01*
X58070368Y-86169761D01*
X58091179Y-86168999D01*
X58106134Y-86168041D01*
X58115950Y-86166869D01*
X58121345Y-86165466D01*
X58122611Y-86164670D01*
X58125804Y-86157178D01*
X58128225Y-86141439D01*
X58129946Y-86116781D01*
X58130888Y-86089457D01*
X58131379Y-86060119D01*
X58131098Y-86039120D01*
X58129906Y-86024656D01*
X58127661Y-86014926D01*
X58124589Y-86008673D01*
X58116621Y-85996511D01*
X57856220Y-85994985D01*
X57797107Y-85994608D01*
X57747298Y-85994204D01*
X57705938Y-85993746D01*
X57672172Y-85993202D01*
X57645143Y-85992543D01*
X57623996Y-85991738D01*
X57607875Y-85990758D01*
X57595926Y-85989573D01*
X57587292Y-85988153D01*
X57581117Y-85986466D01*
X57578040Y-85985224D01*
X57556715Y-85972048D01*
X57542468Y-85954541D01*
X57533661Y-85930427D01*
X57531707Y-85920845D01*
X57529792Y-85888677D01*
X57533825Y-85851588D01*
X57543289Y-85812497D01*
X57557663Y-85774331D01*
X57572205Y-85742259D01*
X57844111Y-85740859D01*
X57906251Y-85740491D01*
X57958926Y-85740066D01*
X58002831Y-85739562D01*
X58038662Y-85738961D01*
X58067113Y-85738243D01*
X58088879Y-85737386D01*
X58104656Y-85736372D01*
X58115138Y-85735181D01*
X58121022Y-85733792D01*
X58122618Y-85732870D01*
X58125731Y-85724766D01*
X58128174Y-85708876D01*
X58129905Y-85687556D01*
X58130882Y-85663161D01*
X58131062Y-85638047D01*
X58130402Y-85614569D01*
X58128860Y-85595083D01*
X58126394Y-85581943D01*
X58125390Y-85579440D01*
X58118760Y-85566740D01*
X57630603Y-85565444D01*
X57548950Y-85565238D01*
X57476857Y-85565083D01*
X57413722Y-85564989D01*
X57358946Y-85564965D01*
X57311927Y-85565019D01*
X57272066Y-85565160D01*
X57238761Y-85565396D01*
X57211413Y-85565737D01*
X57189420Y-85566190D01*
X57172182Y-85566764D01*
X57159099Y-85567469D01*
X57149569Y-85568312D01*
X57142993Y-85569303D01*
X57138770Y-85570449D01*
X57136299Y-85571760D01*
X57135453Y-85572575D01*
X57132457Y-85579137D01*
X57130379Y-85591281D01*
X57129106Y-85610315D01*
X57128525Y-85637547D01*
X57128460Y-85654290D01*
X57128570Y-85683259D01*
G36*
X57392041Y-86701618D02*
X57399173Y-86740910D01*
X57411717Y-86774335D01*
X57430303Y-86803594D01*
X57453978Y-86828944D01*
X57486008Y-86852298D01*
X57526871Y-86871371D01*
X57567262Y-86883936D01*
X57575849Y-86885895D01*
X57585689Y-86887540D01*
X57597696Y-86888896D01*
X57612788Y-86889992D01*
X57631880Y-86890853D01*
X57655888Y-86891507D01*
X57685728Y-86891980D01*
X57722317Y-86892299D01*
X57766570Y-86892491D01*
X57819404Y-86892583D01*
X57863531Y-86892602D01*
X57924380Y-86892558D01*
X57975788Y-86892405D01*
X58018470Y-86892127D01*
X58053144Y-86891704D01*
X58080528Y-86891121D01*
X58101339Y-86890359D01*
X58116294Y-86889401D01*
X58126110Y-86888229D01*
X58131505Y-86886826D01*
X58132771Y-86886030D01*
X58135964Y-86878538D01*
X58138385Y-86862799D01*
X58140106Y-86838141D01*
X58141048Y-86810817D01*
X58141539Y-86781479D01*
X58141258Y-86760480D01*
X58140066Y-86746016D01*
X58137821Y-86736286D01*
X58134749Y-86730033D01*
X58126781Y-86717871D01*
X57866380Y-86716345D01*
X57807267Y-86715968D01*
X57757458Y-86715564D01*
X57716098Y-86715106D01*
X57682332Y-86714562D01*
X57655303Y-86713903D01*
X57634156Y-86713098D01*
X57618035Y-86712118D01*
X57606086Y-86710933D01*
X57597452Y-86709513D01*
X57591277Y-86707826D01*
X57588200Y-86706584D01*
X57566875Y-86693408D01*
X57552628Y-86675901D01*
X57543821Y-86651787D01*
X57541867Y-86642205D01*
X57539952Y-86610037D01*
X57543985Y-86572948D01*
X57553449Y-86533857D01*
X57567823Y-86495691D01*
X57582365Y-86463619D01*
X57854271Y-86462219D01*
X57916411Y-86461851D01*
X57969086Y-86461426D01*
X58012991Y-86460922D01*
X58048822Y-86460321D01*
X58077273Y-86459603D01*
X58099039Y-86458746D01*
X58114816Y-86457732D01*
X58125298Y-86456541D01*
X58131182Y-86455152D01*
X58132778Y-86454230D01*
X58135891Y-86446126D01*
X58138334Y-86430236D01*
X58140065Y-86408916D01*
X58141042Y-86384521D01*
X58141222Y-86359407D01*
X58140562Y-86335929D01*
X58139020Y-86316443D01*
X58136554Y-86303303D01*
X58135550Y-86300800D01*
X58128920Y-86288100D01*
X57766171Y-86286795D01*
X57693897Y-86286570D01*
X57631189Y-86286453D01*
X57577455Y-86286455D01*
X57532103Y-86286582D01*
X57494539Y-86286844D01*
X57464172Y-86287248D01*
X57440407Y-86287802D01*
X57422652Y-86288515D01*
X57410315Y-86289395D01*
X57402802Y-86290450D01*
X57399522Y-86291689D01*
X57399368Y-86291875D01*
X57397936Y-86299060D01*
X57396796Y-86314178D01*
X57395962Y-86335006D01*
X57395451Y-86359321D01*
X57395277Y-86384898D01*
X57395457Y-86409516D01*
X57396004Y-86430951D01*
X57396935Y-86446980D01*
X57398243Y-86455324D01*
X57405436Y-86461514D01*
X57415667Y-86463360D01*
X57430008Y-86463360D01*
X57417146Y-86495014D01*
X57402167Y-86540364D01*
X57393183Y-86588924D01*
X57389753Y-86643255D01*
X57389694Y-86654757D01*
X57392041Y-86701618D01*
X57392041Y-86701618D01*
G37*
X57392041Y-86701618D02*
X57399173Y-86740910D01*
X57411717Y-86774335D01*
X57430303Y-86803594D01*
X57453978Y-86828944D01*
X57486008Y-86852298D01*
X57526871Y-86871371D01*
X57567262Y-86883936D01*
X57575849Y-86885895D01*
X57585689Y-86887540D01*
X57597696Y-86888896D01*
X57612788Y-86889992D01*
X57631880Y-86890853D01*
X57655888Y-86891507D01*
X57685728Y-86891980D01*
X57722317Y-86892299D01*
X57766570Y-86892491D01*
X57819404Y-86892583D01*
X57863531Y-86892602D01*
X57924380Y-86892558D01*
X57975788Y-86892405D01*
X58018470Y-86892127D01*
X58053144Y-86891704D01*
X58080528Y-86891121D01*
X58101339Y-86890359D01*
X58116294Y-86889401D01*
X58126110Y-86888229D01*
X58131505Y-86886826D01*
X58132771Y-86886030D01*
X58135964Y-86878538D01*
X58138385Y-86862799D01*
X58140106Y-86838141D01*
X58141048Y-86810817D01*
X58141539Y-86781479D01*
X58141258Y-86760480D01*
X58140066Y-86746016D01*
X58137821Y-86736286D01*
X58134749Y-86730033D01*
X58126781Y-86717871D01*
X57866380Y-86716345D01*
X57807267Y-86715968D01*
X57757458Y-86715564D01*
X57716098Y-86715106D01*
X57682332Y-86714562D01*
X57655303Y-86713903D01*
X57634156Y-86713098D01*
X57618035Y-86712118D01*
X57606086Y-86710933D01*
X57597452Y-86709513D01*
X57591277Y-86707826D01*
X57588200Y-86706584D01*
X57566875Y-86693408D01*
X57552628Y-86675901D01*
X57543821Y-86651787D01*
X57541867Y-86642205D01*
X57539952Y-86610037D01*
X57543985Y-86572948D01*
X57553449Y-86533857D01*
X57567823Y-86495691D01*
X57582365Y-86463619D01*
X57854271Y-86462219D01*
X57916411Y-86461851D01*
X57969086Y-86461426D01*
X58012991Y-86460922D01*
X58048822Y-86460321D01*
X58077273Y-86459603D01*
X58099039Y-86458746D01*
X58114816Y-86457732D01*
X58125298Y-86456541D01*
X58131182Y-86455152D01*
X58132778Y-86454230D01*
X58135891Y-86446126D01*
X58138334Y-86430236D01*
X58140065Y-86408916D01*
X58141042Y-86384521D01*
X58141222Y-86359407D01*
X58140562Y-86335929D01*
X58139020Y-86316443D01*
X58136554Y-86303303D01*
X58135550Y-86300800D01*
X58128920Y-86288100D01*
X57766171Y-86286795D01*
X57693897Y-86286570D01*
X57631189Y-86286453D01*
X57577455Y-86286455D01*
X57532103Y-86286582D01*
X57494539Y-86286844D01*
X57464172Y-86287248D01*
X57440407Y-86287802D01*
X57422652Y-86288515D01*
X57410315Y-86289395D01*
X57402802Y-86290450D01*
X57399522Y-86291689D01*
X57399368Y-86291875D01*
X57397936Y-86299060D01*
X57396796Y-86314178D01*
X57395962Y-86335006D01*
X57395451Y-86359321D01*
X57395277Y-86384898D01*
X57395457Y-86409516D01*
X57396004Y-86430951D01*
X57396935Y-86446980D01*
X57398243Y-86455324D01*
X57405436Y-86461514D01*
X57415667Y-86463360D01*
X57430008Y-86463360D01*
X57417146Y-86495014D01*
X57402167Y-86540364D01*
X57393183Y-86588924D01*
X57389753Y-86643255D01*
X57389694Y-86654757D01*
X57392041Y-86701618D01*
G36*
X57406291Y-87116430D02*
X57407762Y-87137006D01*
X57410128Y-87151556D01*
X57412228Y-87156780D01*
X57413923Y-87158772D01*
X57416333Y-87160489D01*
X57420185Y-87161956D01*
X57426209Y-87163197D01*
X57435130Y-87164236D01*
X57447678Y-87165097D01*
X57464580Y-87165804D01*
X57486563Y-87166381D01*
X57514356Y-87166853D01*
X57548686Y-87167243D01*
X57590281Y-87167576D01*
X57639868Y-87167876D01*
X57698177Y-87168168D01*
X57764318Y-87168467D01*
X57844548Y-87168742D01*
X57914678Y-87168808D01*
X57974766Y-87168667D01*
X58024873Y-87168316D01*
X58065055Y-87167755D01*
X58095372Y-87166985D01*
X58115881Y-87166003D01*
X58126642Y-87164810D01*
X58127365Y-87164629D01*
X58136508Y-87161403D01*
X58143054Y-87156826D01*
X58147437Y-87149314D01*
X58150090Y-87137285D01*
X58151448Y-87119156D01*
X58151946Y-87093344D01*
X58152010Y-87074792D01*
X58151839Y-87047904D01*
X58151077Y-87029146D01*
X58149461Y-87016496D01*
X58146724Y-87007930D01*
X58142602Y-87001424D01*
X58142368Y-87001132D01*
X58132656Y-86989140D01*
X57776861Y-86989140D01*
X57705562Y-86989173D01*
X57643802Y-86989280D01*
X57590960Y-86989474D01*
X57546416Y-86989763D01*
X57509549Y-86990161D01*
X57479739Y-86990679D01*
X57456364Y-86991327D01*
X57438805Y-86992117D01*
X57426440Y-86993060D01*
X57418648Y-86994167D01*
X57414810Y-86995451D01*
X57414463Y-86995729D01*
X57411238Y-87003972D01*
X57408715Y-87020043D01*
X57406927Y-87041633D01*
X57405905Y-87066434D01*
X57405683Y-87092136D01*
X57406291Y-87116430D01*
X57406291Y-87116430D01*
G37*
X57406291Y-87116430D02*
X57407762Y-87137006D01*
X57410128Y-87151556D01*
X57412228Y-87156780D01*
X57413923Y-87158772D01*
X57416333Y-87160489D01*
X57420185Y-87161956D01*
X57426209Y-87163197D01*
X57435130Y-87164236D01*
X57447678Y-87165097D01*
X57464580Y-87165804D01*
X57486563Y-87166381D01*
X57514356Y-87166853D01*
X57548686Y-87167243D01*
X57590281Y-87167576D01*
X57639868Y-87167876D01*
X57698177Y-87168168D01*
X57764318Y-87168467D01*
X57844548Y-87168742D01*
X57914678Y-87168808D01*
X57974766Y-87168667D01*
X58024873Y-87168316D01*
X58065055Y-87167755D01*
X58095372Y-87166985D01*
X58115881Y-87166003D01*
X58126642Y-87164810D01*
X58127365Y-87164629D01*
X58136508Y-87161403D01*
X58143054Y-87156826D01*
X58147437Y-87149314D01*
X58150090Y-87137285D01*
X58151448Y-87119156D01*
X58151946Y-87093344D01*
X58152010Y-87074792D01*
X58151839Y-87047904D01*
X58151077Y-87029146D01*
X58149461Y-87016496D01*
X58146724Y-87007930D01*
X58142602Y-87001424D01*
X58142368Y-87001132D01*
X58132656Y-86989140D01*
X57776861Y-86989140D01*
X57705562Y-86989173D01*
X57643802Y-86989280D01*
X57590960Y-86989474D01*
X57546416Y-86989763D01*
X57509549Y-86990161D01*
X57479739Y-86990679D01*
X57456364Y-86991327D01*
X57438805Y-86992117D01*
X57426440Y-86993060D01*
X57418648Y-86994167D01*
X57414810Y-86995451D01*
X57414463Y-86995729D01*
X57411238Y-87003972D01*
X57408715Y-87020043D01*
X57406927Y-87041633D01*
X57405905Y-87066434D01*
X57405683Y-87092136D01*
X57406291Y-87116430D01*
G36*
X57393312Y-87644200D02*
X57402679Y-87705458D01*
X57418529Y-87763648D01*
X57427089Y-87787347D01*
X57436140Y-87809141D01*
X57444418Y-87826137D01*
X57449092Y-87833647D01*
X57461944Y-87850497D01*
X57526342Y-87849078D01*
X57590740Y-87847660D01*
X57590123Y-87832420D01*
X57588557Y-87821656D01*
X57584751Y-87803649D01*
X57579278Y-87780916D01*
X57572778Y-87756220D01*
X57565787Y-87729740D01*
X57561028Y-87708202D01*
X57558062Y-87688224D01*
X57556449Y-87666424D01*
X57555751Y-87639422D01*
X57555614Y-87624140D01*
X57555592Y-87594967D01*
X57556111Y-87573724D01*
X57557433Y-87558182D01*
X57559818Y-87546114D01*
X57563524Y-87535292D01*
X57566882Y-87527620D01*
X57584023Y-87498493D01*
X57606410Y-87475111D01*
X57634923Y-87457025D01*
X57670439Y-87443788D01*
X57713838Y-87434954D01*
X57757710Y-87430565D01*
X57803162Y-87429750D01*
X57848356Y-87432812D01*
X57890188Y-87439398D01*
X57925554Y-87449155D01*
X57927522Y-87449878D01*
X57957983Y-87465912D01*
X57985654Y-87489095D01*
X58007600Y-87516705D01*
X58015643Y-87531614D01*
X58020664Y-87543726D01*
X58024028Y-87555356D01*
X58026033Y-87568914D01*
X58026976Y-87586813D01*
X58027156Y-87611462D01*
X58027078Y-87624140D01*
X58026506Y-87654493D01*
X58025012Y-87678548D01*
X58022073Y-87700159D01*
X58017166Y-87723181D01*
X58009860Y-87751140D01*
X58003298Y-87776386D01*
X57997852Y-87799718D01*
X57994098Y-87818497D01*
X57992622Y-87829880D01*
X57992060Y-87847660D01*
X58054363Y-87849086D01*
X58080622Y-87849581D01*
X58098737Y-87849457D01*
X58110722Y-87848434D01*
X58118587Y-87846231D01*
X58124344Y-87842568D01*
X58128432Y-87838749D01*
X58137770Y-87825533D01*
X58148231Y-87804174D01*
X58159077Y-87776517D01*
X58169571Y-87744408D01*
X58177157Y-87716982D01*
X58185800Y-87670675D01*
X58189873Y-87620106D01*
X58189166Y-87569989D01*
X58185294Y-87535057D01*
X58171134Y-87474619D01*
X58149528Y-87421090D01*
X58120479Y-87374472D01*
X58083987Y-87334768D01*
X58047342Y-87306605D01*
X58000221Y-87281264D01*
X57946156Y-87261820D01*
X57886649Y-87248517D01*
X57823199Y-87241603D01*
X57757308Y-87241322D01*
X57690475Y-87247921D01*
X57689800Y-87248023D01*
X57636665Y-87258426D01*
X57591082Y-87272713D01*
X57550858Y-87291886D01*
X57513802Y-87316946D01*
X57485450Y-87341449D01*
X57453330Y-87378546D01*
X57427676Y-87422493D01*
X57408669Y-87472162D01*
X57396486Y-87526422D01*
X57391308Y-87584145D01*
X57393312Y-87644200D01*
X57393312Y-87644200D01*
G37*
X57393312Y-87644200D02*
X57402679Y-87705458D01*
X57418529Y-87763648D01*
X57427089Y-87787347D01*
X57436140Y-87809141D01*
X57444418Y-87826137D01*
X57449092Y-87833647D01*
X57461944Y-87850497D01*
X57526342Y-87849078D01*
X57590740Y-87847660D01*
X57590123Y-87832420D01*
X57588557Y-87821656D01*
X57584751Y-87803649D01*
X57579278Y-87780916D01*
X57572778Y-87756220D01*
X57565787Y-87729740D01*
X57561028Y-87708202D01*
X57558062Y-87688224D01*
X57556449Y-87666424D01*
X57555751Y-87639422D01*
X57555614Y-87624140D01*
X57555592Y-87594967D01*
X57556111Y-87573724D01*
X57557433Y-87558182D01*
X57559818Y-87546114D01*
X57563524Y-87535292D01*
X57566882Y-87527620D01*
X57584023Y-87498493D01*
X57606410Y-87475111D01*
X57634923Y-87457025D01*
X57670439Y-87443788D01*
X57713838Y-87434954D01*
X57757710Y-87430565D01*
X57803162Y-87429750D01*
X57848356Y-87432812D01*
X57890188Y-87439398D01*
X57925554Y-87449155D01*
X57927522Y-87449878D01*
X57957983Y-87465912D01*
X57985654Y-87489095D01*
X58007600Y-87516705D01*
X58015643Y-87531614D01*
X58020664Y-87543726D01*
X58024028Y-87555356D01*
X58026033Y-87568914D01*
X58026976Y-87586813D01*
X58027156Y-87611462D01*
X58027078Y-87624140D01*
X58026506Y-87654493D01*
X58025012Y-87678548D01*
X58022073Y-87700159D01*
X58017166Y-87723181D01*
X58009860Y-87751140D01*
X58003298Y-87776386D01*
X57997852Y-87799718D01*
X57994098Y-87818497D01*
X57992622Y-87829880D01*
X57992060Y-87847660D01*
X58054363Y-87849086D01*
X58080622Y-87849581D01*
X58098737Y-87849457D01*
X58110722Y-87848434D01*
X58118587Y-87846231D01*
X58124344Y-87842568D01*
X58128432Y-87838749D01*
X58137770Y-87825533D01*
X58148231Y-87804174D01*
X58159077Y-87776517D01*
X58169571Y-87744408D01*
X58177157Y-87716982D01*
X58185800Y-87670675D01*
X58189873Y-87620106D01*
X58189166Y-87569989D01*
X58185294Y-87535057D01*
X58171134Y-87474619D01*
X58149528Y-87421090D01*
X58120479Y-87374472D01*
X58083987Y-87334768D01*
X58047342Y-87306605D01*
X58000221Y-87281264D01*
X57946156Y-87261820D01*
X57886649Y-87248517D01*
X57823199Y-87241603D01*
X57757308Y-87241322D01*
X57690475Y-87247921D01*
X57689800Y-87248023D01*
X57636665Y-87258426D01*
X57591082Y-87272713D01*
X57550858Y-87291886D01*
X57513802Y-87316946D01*
X57485450Y-87341449D01*
X57453330Y-87378546D01*
X57427676Y-87422493D01*
X57408669Y-87472162D01*
X57396486Y-87526422D01*
X57391308Y-87584145D01*
X57393312Y-87644200D01*
G36*
X58258021Y-88117778D02*
X58276899Y-88115172D01*
X58293600Y-88111798D01*
X58301201Y-88109560D01*
X58307745Y-88106583D01*
X58311723Y-88102249D01*
X58313773Y-88094286D01*
X58314532Y-88080422D01*
X58314640Y-88061689D01*
X58314105Y-88038540D01*
X58312366Y-88024161D01*
X58309221Y-88017210D01*
X58307813Y-88016307D01*
X58299477Y-88015989D01*
X58284823Y-88017684D01*
X58267336Y-88020741D01*
X58250504Y-88024510D01*
X58237814Y-88028340D01*
X58234165Y-88030041D01*
X58230978Y-88037219D01*
X58228971Y-88053411D01*
X58228280Y-88077283D01*
X58228280Y-88120887D01*
X58258021Y-88117778D01*
X58258021Y-88117778D01*
G37*
X58258021Y-88117778D02*
X58276899Y-88115172D01*
X58293600Y-88111798D01*
X58301201Y-88109560D01*
X58307745Y-88106583D01*
X58311723Y-88102249D01*
X58313773Y-88094286D01*
X58314532Y-88080422D01*
X58314640Y-88061689D01*
X58314105Y-88038540D01*
X58312366Y-88024161D01*
X58309221Y-88017210D01*
X58307813Y-88016307D01*
X58299477Y-88015989D01*
X58284823Y-88017684D01*
X58267336Y-88020741D01*
X58250504Y-88024510D01*
X58237814Y-88028340D01*
X58234165Y-88030041D01*
X58230978Y-88037219D01*
X58228971Y-88053411D01*
X58228280Y-88077283D01*
X58228280Y-88120887D01*
X58258021Y-88117778D01*
G36*
X58237610Y-87211596D02*
X58237798Y-87217169D01*
X58239204Y-87222513D01*
X58244109Y-87224840D01*
X58254952Y-87224675D01*
X58266914Y-87223412D01*
X58288660Y-87220394D01*
X58302540Y-87216133D01*
X58310317Y-87208556D01*
X58313756Y-87195588D01*
X58314619Y-87175157D01*
X58314640Y-87167304D01*
X58313983Y-87143229D01*
X58311947Y-87128541D01*
X58308433Y-87122547D01*
X58308290Y-87122489D01*
X58300212Y-87122048D01*
X58285558Y-87123265D01*
X58270190Y-87125452D01*
X58251150Y-87129494D01*
X58240943Y-87133976D01*
X58238211Y-87138697D01*
X58237814Y-87157097D01*
X58237570Y-87177615D01*
X58237496Y-87196898D01*
X58237610Y-87211596D01*
X58237610Y-87211596D01*
G37*
X58237610Y-87211596D02*
X58237798Y-87217169D01*
X58239204Y-87222513D01*
X58244109Y-87224840D01*
X58254952Y-87224675D01*
X58266914Y-87223412D01*
X58288660Y-87220394D01*
X58302540Y-87216133D01*
X58310317Y-87208556D01*
X58313756Y-87195588D01*
X58314619Y-87175157D01*
X58314640Y-87167304D01*
X58313983Y-87143229D01*
X58311947Y-87128541D01*
X58308433Y-87122547D01*
X58308290Y-87122489D01*
X58300212Y-87122048D01*
X58285558Y-87123265D01*
X58270190Y-87125452D01*
X58251150Y-87129494D01*
X58240943Y-87133976D01*
X58238211Y-87138697D01*
X58237814Y-87157097D01*
X58237570Y-87177615D01*
X58237496Y-87196898D01*
X58237610Y-87211596D01*
G36*
X58361048Y-88070601D02*
X58363535Y-88084533D01*
X58368450Y-88091756D01*
X58376426Y-88093959D01*
X58377413Y-88093968D01*
X58384879Y-88093097D01*
X58401099Y-88090655D01*
X58424823Y-88086849D01*
X58454801Y-88081884D01*
X58489783Y-88075968D01*
X58528520Y-88069306D01*
X58558057Y-88064160D01*
X58605724Y-88055723D01*
X58644268Y-88048682D01*
X58674602Y-88042836D01*
X58697636Y-88037984D01*
X58714282Y-88033924D01*
X58725450Y-88030455D01*
X58732052Y-88027376D01*
X58734587Y-88025160D01*
X58738810Y-88013665D01*
X58740915Y-87996303D01*
X58740889Y-87977107D01*
X58738719Y-87960107D01*
X58734835Y-87949898D01*
X58732606Y-87947605D01*
X58729088Y-87946065D01*
X58723268Y-87945400D01*
X58714133Y-87945734D01*
X58700670Y-87947189D01*
X58681867Y-87949889D01*
X58656710Y-87953957D01*
X58624186Y-87959514D01*
X58583282Y-87966685D01*
X58554441Y-87971787D01*
X58513751Y-87978988D01*
X58476323Y-87985591D01*
X58443310Y-87991395D01*
X58415866Y-87996197D01*
X58395146Y-87999797D01*
X58382304Y-88001991D01*
X58378448Y-88002600D01*
X58373626Y-88005737D01*
X58368342Y-88010582D01*
X58362781Y-88021855D01*
X58360456Y-88041763D01*
X58360360Y-88048267D01*
X58361048Y-88070601D01*
X58361048Y-88070601D01*
G37*
X58361048Y-88070601D02*
X58363535Y-88084533D01*
X58368450Y-88091756D01*
X58376426Y-88093959D01*
X58377413Y-88093968D01*
X58384879Y-88093097D01*
X58401099Y-88090655D01*
X58424823Y-88086849D01*
X58454801Y-88081884D01*
X58489783Y-88075968D01*
X58528520Y-88069306D01*
X58558057Y-88064160D01*
X58605724Y-88055723D01*
X58644268Y-88048682D01*
X58674602Y-88042836D01*
X58697636Y-88037984D01*
X58714282Y-88033924D01*
X58725450Y-88030455D01*
X58732052Y-88027376D01*
X58734587Y-88025160D01*
X58738810Y-88013665D01*
X58740915Y-87996303D01*
X58740889Y-87977107D01*
X58738719Y-87960107D01*
X58734835Y-87949898D01*
X58732606Y-87947605D01*
X58729088Y-87946065D01*
X58723268Y-87945400D01*
X58714133Y-87945734D01*
X58700670Y-87947189D01*
X58681867Y-87949889D01*
X58656710Y-87953957D01*
X58624186Y-87959514D01*
X58583282Y-87966685D01*
X58554441Y-87971787D01*
X58513751Y-87978988D01*
X58476323Y-87985591D01*
X58443310Y-87991395D01*
X58415866Y-87996197D01*
X58395146Y-87999797D01*
X58382304Y-88001991D01*
X58378448Y-88002600D01*
X58373626Y-88005737D01*
X58368342Y-88010582D01*
X58362781Y-88021855D01*
X58360456Y-88041763D01*
X58360360Y-88048267D01*
X58361048Y-88070601D01*
G36*
X58359362Y-87468564D02*
X58362054Y-87493183D01*
X58364982Y-87506574D01*
X58377783Y-87534105D01*
X58398016Y-87554932D01*
X58425241Y-87568773D01*
X58459014Y-87575346D01*
X58473239Y-87575880D01*
X58484553Y-87575004D01*
X58504105Y-87572552D01*
X58530142Y-87568782D01*
X58560907Y-87563954D01*
X58594648Y-87558329D01*
X58611959Y-87555322D01*
X58653253Y-87547840D01*
X58685246Y-87541554D01*
X58708706Y-87536282D01*
X58724398Y-87531845D01*
X58733088Y-87528062D01*
X58735010Y-87526411D01*
X58738480Y-87516550D01*
X58740555Y-87500367D01*
X58741158Y-87481615D01*
X58740215Y-87464047D01*
X58737650Y-87451414D01*
X58736567Y-87449171D01*
X58733904Y-87447102D01*
X58728398Y-87446091D01*
X58718921Y-87446260D01*
X58704348Y-87447735D01*
X58683549Y-87450639D01*
X58655400Y-87455095D01*
X58618772Y-87461229D01*
X58604081Y-87463736D01*
X58562444Y-87470792D01*
X58529591Y-87476043D01*
X58504305Y-87479476D01*
X58485369Y-87481075D01*
X58471566Y-87480824D01*
X58461679Y-87478708D01*
X58454491Y-87474710D01*
X58448784Y-87468817D01*
X58443788Y-87461694D01*
X58439197Y-87452042D01*
X58437091Y-87439318D01*
X58437127Y-87420639D01*
X58437682Y-87410574D01*
X58439258Y-87391823D01*
X58441178Y-87377268D01*
X58443064Y-87369674D01*
X58443324Y-87369301D01*
X58448972Y-87367623D01*
X58463331Y-87364472D01*
X58485100Y-87360104D01*
X58512978Y-87354770D01*
X58545665Y-87348724D01*
X58581858Y-87342221D01*
X58587592Y-87341207D01*
X58632859Y-87333061D01*
X58668818Y-87326218D01*
X58696216Y-87320511D01*
X58715799Y-87315771D01*
X58728311Y-87311830D01*
X58734500Y-87308520D01*
X58735010Y-87307965D01*
X58738489Y-87298087D01*
X58740562Y-87281889D01*
X58741153Y-87263122D01*
X58740191Y-87245539D01*
X58737602Y-87232889D01*
X58736520Y-87230654D01*
X58734072Y-87228844D01*
X58728904Y-87227946D01*
X58720050Y-87228087D01*
X58706547Y-87229388D01*
X58687432Y-87231975D01*
X58661740Y-87235972D01*
X58628508Y-87241502D01*
X58586771Y-87248689D01*
X58560263Y-87253319D01*
X58508360Y-87262566D01*
X58466007Y-87270452D01*
X58432701Y-87277087D01*
X58407939Y-87282576D01*
X58391218Y-87287028D01*
X58382034Y-87290549D01*
X58380341Y-87291738D01*
X58374108Y-87303064D01*
X58368708Y-87322467D01*
X58364289Y-87347888D01*
X58360997Y-87377268D01*
X58358981Y-87408547D01*
X58358387Y-87439665D01*
X58359362Y-87468564D01*
X58359362Y-87468564D01*
G37*
X58359362Y-87468564D02*
X58362054Y-87493183D01*
X58364982Y-87506574D01*
X58377783Y-87534105D01*
X58398016Y-87554932D01*
X58425241Y-87568773D01*
X58459014Y-87575346D01*
X58473239Y-87575880D01*
X58484553Y-87575004D01*
X58504105Y-87572552D01*
X58530142Y-87568782D01*
X58560907Y-87563954D01*
X58594648Y-87558329D01*
X58611959Y-87555322D01*
X58653253Y-87547840D01*
X58685246Y-87541554D01*
X58708706Y-87536282D01*
X58724398Y-87531845D01*
X58733088Y-87528062D01*
X58735010Y-87526411D01*
X58738480Y-87516550D01*
X58740555Y-87500367D01*
X58741158Y-87481615D01*
X58740215Y-87464047D01*
X58737650Y-87451414D01*
X58736567Y-87449171D01*
X58733904Y-87447102D01*
X58728398Y-87446091D01*
X58718921Y-87446260D01*
X58704348Y-87447735D01*
X58683549Y-87450639D01*
X58655400Y-87455095D01*
X58618772Y-87461229D01*
X58604081Y-87463736D01*
X58562444Y-87470792D01*
X58529591Y-87476043D01*
X58504305Y-87479476D01*
X58485369Y-87481075D01*
X58471566Y-87480824D01*
X58461679Y-87478708D01*
X58454491Y-87474710D01*
X58448784Y-87468817D01*
X58443788Y-87461694D01*
X58439197Y-87452042D01*
X58437091Y-87439318D01*
X58437127Y-87420639D01*
X58437682Y-87410574D01*
X58439258Y-87391823D01*
X58441178Y-87377268D01*
X58443064Y-87369674D01*
X58443324Y-87369301D01*
X58448972Y-87367623D01*
X58463331Y-87364472D01*
X58485100Y-87360104D01*
X58512978Y-87354770D01*
X58545665Y-87348724D01*
X58581858Y-87342221D01*
X58587592Y-87341207D01*
X58632859Y-87333061D01*
X58668818Y-87326218D01*
X58696216Y-87320511D01*
X58715799Y-87315771D01*
X58728311Y-87311830D01*
X58734500Y-87308520D01*
X58735010Y-87307965D01*
X58738489Y-87298087D01*
X58740562Y-87281889D01*
X58741153Y-87263122D01*
X58740191Y-87245539D01*
X58737602Y-87232889D01*
X58736520Y-87230654D01*
X58734072Y-87228844D01*
X58728904Y-87227946D01*
X58720050Y-87228087D01*
X58706547Y-87229388D01*
X58687432Y-87231975D01*
X58661740Y-87235972D01*
X58628508Y-87241502D01*
X58586771Y-87248689D01*
X58560263Y-87253319D01*
X58508360Y-87262566D01*
X58466007Y-87270452D01*
X58432701Y-87277087D01*
X58407939Y-87282576D01*
X58391218Y-87287028D01*
X58382034Y-87290549D01*
X58380341Y-87291738D01*
X58374108Y-87303064D01*
X58368708Y-87322467D01*
X58364289Y-87347888D01*
X58360997Y-87377268D01*
X58358981Y-87408547D01*
X58358387Y-87439665D01*
X58359362Y-87468564D01*
G36*
X58361047Y-87147233D02*
X58361416Y-87158038D01*
X58362348Y-87177861D01*
X58363802Y-87189712D01*
X58366536Y-87195775D01*
X58371309Y-87198234D01*
X58375614Y-87198906D01*
X58383198Y-87198381D01*
X58399148Y-87196283D01*
X58422069Y-87192853D01*
X58450564Y-87188334D01*
X58483239Y-87182969D01*
X58518699Y-87177000D01*
X58555547Y-87170669D01*
X58592389Y-87164219D01*
X58627829Y-87157892D01*
X58660472Y-87151931D01*
X58688922Y-87146577D01*
X58711783Y-87142075D01*
X58727662Y-87138665D01*
X58735161Y-87136591D01*
X58735517Y-87136375D01*
X58738337Y-87128484D01*
X58739982Y-87113880D01*
X58740457Y-87095941D01*
X58739768Y-87078045D01*
X58737919Y-87063571D01*
X58735399Y-87056427D01*
X58733111Y-87054129D01*
X58729553Y-87052582D01*
X58723707Y-87051910D01*
X58714553Y-87052233D01*
X58701074Y-87053675D01*
X58682252Y-87056356D01*
X58657067Y-87060399D01*
X58624502Y-87065926D01*
X58583538Y-87073058D01*
X58555940Y-87077907D01*
X58514858Y-87085224D01*
X58476596Y-87092208D01*
X58442399Y-87098619D01*
X58413515Y-87104215D01*
X58391188Y-87108758D01*
X58376665Y-87112006D01*
X58371576Y-87113477D01*
X58365723Y-87116822D01*
X58362382Y-87121967D01*
X58361005Y-87131306D01*
X58361047Y-87147233D01*
X58361047Y-87147233D01*
G37*
X58361047Y-87147233D02*
X58361416Y-87158038D01*
X58362348Y-87177861D01*
X58363802Y-87189712D01*
X58366536Y-87195775D01*
X58371309Y-87198234D01*
X58375614Y-87198906D01*
X58383198Y-87198381D01*
X58399148Y-87196283D01*
X58422069Y-87192853D01*
X58450564Y-87188334D01*
X58483239Y-87182969D01*
X58518699Y-87177000D01*
X58555547Y-87170669D01*
X58592389Y-87164219D01*
X58627829Y-87157892D01*
X58660472Y-87151931D01*
X58688922Y-87146577D01*
X58711783Y-87142075D01*
X58727662Y-87138665D01*
X58735161Y-87136591D01*
X58735517Y-87136375D01*
X58738337Y-87128484D01*
X58739982Y-87113880D01*
X58740457Y-87095941D01*
X58739768Y-87078045D01*
X58737919Y-87063571D01*
X58735399Y-87056427D01*
X58733111Y-87054129D01*
X58729553Y-87052582D01*
X58723707Y-87051910D01*
X58714553Y-87052233D01*
X58701074Y-87053675D01*
X58682252Y-87056356D01*
X58657067Y-87060399D01*
X58624502Y-87065926D01*
X58583538Y-87073058D01*
X58555940Y-87077907D01*
X58514858Y-87085224D01*
X58476596Y-87092208D01*
X58442399Y-87098619D01*
X58413515Y-87104215D01*
X58391188Y-87108758D01*
X58376665Y-87112006D01*
X58371576Y-87113477D01*
X58365723Y-87116822D01*
X58362382Y-87121967D01*
X58361005Y-87131306D01*
X58361047Y-87147233D01*
G36*
X58358959Y-88729116D02*
X58361790Y-88756313D01*
X58364370Y-88767610D01*
X58376695Y-88792442D01*
X58397360Y-88814252D01*
X58424635Y-88831375D01*
X58435117Y-88835836D01*
X58451681Y-88841409D01*
X58466932Y-88844418D01*
X58484585Y-88845280D01*
X58508358Y-88844416D01*
X58510220Y-88844309D01*
X58532536Y-88842508D01*
X58552474Y-88840009D01*
X58566747Y-88837255D01*
X58569910Y-88836269D01*
X58583880Y-88830891D01*
X58583880Y-88719549D01*
X58583959Y-88682658D01*
X58584255Y-88654685D01*
X58584856Y-88634385D01*
X58585848Y-88620517D01*
X58587319Y-88611837D01*
X58589356Y-88607104D01*
X58591915Y-88605123D01*
X58611779Y-88602502D01*
X58631668Y-88608154D01*
X58648505Y-88620675D01*
X58657940Y-88635234D01*
X58663611Y-88656624D01*
X58664576Y-88683366D01*
X58660822Y-88716901D01*
X58657003Y-88737483D01*
X58652731Y-88758538D01*
X58648948Y-88777531D01*
X58646385Y-88790791D01*
X58646152Y-88792050D01*
X58643457Y-88806801D01*
X58671656Y-88803487D01*
X58688632Y-88801163D01*
X58702035Y-88798745D01*
X58707043Y-88797414D01*
X58713096Y-88790728D01*
X58720092Y-88776236D01*
X58727284Y-88756155D01*
X58733927Y-88732697D01*
X58739273Y-88708077D01*
X58741227Y-88696020D01*
X58744194Y-88673298D01*
X58745447Y-88656798D01*
X58744967Y-88642721D01*
X58742737Y-88627271D01*
X58740859Y-88617324D01*
X58729715Y-88581801D01*
X58711586Y-88553650D01*
X58686372Y-88532772D01*
X58653975Y-88519068D01*
X58638365Y-88515458D01*
X58623329Y-88513324D01*
X58608002Y-88512852D01*
X58589715Y-88514190D01*
X58565798Y-88517487D01*
X58547403Y-88520505D01*
X58511380Y-88528237D01*
X58511380Y-88619926D01*
X58514799Y-88621012D01*
X58515957Y-88627089D01*
X58516710Y-88641266D01*
X58516999Y-88661490D01*
X58516765Y-88685708D01*
X58516714Y-88688121D01*
X58515300Y-88751900D01*
X58496555Y-88753458D01*
X58472637Y-88751292D01*
X58454226Y-88741140D01*
X58442272Y-88724096D01*
X58437723Y-88701253D01*
X58438702Y-88686743D01*
X58446087Y-88664296D01*
X58458339Y-88648830D01*
X58471550Y-88638098D01*
X58486622Y-88628802D01*
X58500813Y-88622294D01*
X58511380Y-88619926D01*
X58511380Y-88528237D01*
X58497302Y-88531259D01*
X58456217Y-88545232D01*
X58423371Y-88562951D01*
X58397983Y-88584942D01*
X58379274Y-88611729D01*
X58366921Y-88642289D01*
X58361607Y-88668045D01*
X58358925Y-88698340D01*
X58358959Y-88729116D01*
X58358959Y-88729116D01*
G37*
X58358959Y-88729116D02*
X58361790Y-88756313D01*
X58364370Y-88767610D01*
X58376695Y-88792442D01*
X58397360Y-88814252D01*
X58424635Y-88831375D01*
X58435117Y-88835836D01*
X58451681Y-88841409D01*
X58466932Y-88844418D01*
X58484585Y-88845280D01*
X58508358Y-88844416D01*
X58510220Y-88844309D01*
X58532536Y-88842508D01*
X58552474Y-88840009D01*
X58566747Y-88837255D01*
X58569910Y-88836269D01*
X58583880Y-88830891D01*
X58583880Y-88719549D01*
X58583959Y-88682658D01*
X58584255Y-88654685D01*
X58584856Y-88634385D01*
X58585848Y-88620517D01*
X58587319Y-88611837D01*
X58589356Y-88607104D01*
X58591915Y-88605123D01*
X58611779Y-88602502D01*
X58631668Y-88608154D01*
X58648505Y-88620675D01*
X58657940Y-88635234D01*
X58663611Y-88656624D01*
X58664576Y-88683366D01*
X58660822Y-88716901D01*
X58657003Y-88737483D01*
X58652731Y-88758538D01*
X58648948Y-88777531D01*
X58646385Y-88790791D01*
X58646152Y-88792050D01*
X58643457Y-88806801D01*
X58671656Y-88803487D01*
X58688632Y-88801163D01*
X58702035Y-88798745D01*
X58707043Y-88797414D01*
X58713096Y-88790728D01*
X58720092Y-88776236D01*
X58727284Y-88756155D01*
X58733927Y-88732697D01*
X58739273Y-88708077D01*
X58741227Y-88696020D01*
X58744194Y-88673298D01*
X58745447Y-88656798D01*
X58744967Y-88642721D01*
X58742737Y-88627271D01*
X58740859Y-88617324D01*
X58729715Y-88581801D01*
X58711586Y-88553650D01*
X58686372Y-88532772D01*
X58653975Y-88519068D01*
X58638365Y-88515458D01*
X58623329Y-88513324D01*
X58608002Y-88512852D01*
X58589715Y-88514190D01*
X58565798Y-88517487D01*
X58547403Y-88520505D01*
X58511380Y-88528237D01*
X58511380Y-88619926D01*
X58514799Y-88621012D01*
X58515957Y-88627089D01*
X58516710Y-88641266D01*
X58516999Y-88661490D01*
X58516765Y-88685708D01*
X58516714Y-88688121D01*
X58515300Y-88751900D01*
X58496555Y-88753458D01*
X58472637Y-88751292D01*
X58454226Y-88741140D01*
X58442272Y-88724096D01*
X58437723Y-88701253D01*
X58438702Y-88686743D01*
X58446087Y-88664296D01*
X58458339Y-88648830D01*
X58471550Y-88638098D01*
X58486622Y-88628802D01*
X58500813Y-88622294D01*
X58511380Y-88619926D01*
X58511380Y-88528237D01*
X58497302Y-88531259D01*
X58456217Y-88545232D01*
X58423371Y-88562951D01*
X58397983Y-88584942D01*
X58379274Y-88611729D01*
X58366921Y-88642289D01*
X58361607Y-88668045D01*
X58358925Y-88698340D01*
X58358959Y-88729116D01*
G36*
X58229384Y-88478351D02*
X58232798Y-88491969D01*
X58239318Y-88498786D01*
X58248240Y-88500440D01*
X58258415Y-88499544D01*
X58276789Y-88497006D01*
X58302160Y-88493046D01*
X58333326Y-88487887D01*
X58369084Y-88481752D01*
X58408231Y-88474861D01*
X58449564Y-88467437D01*
X58491881Y-88459701D01*
X58533979Y-88451877D01*
X58574656Y-88444185D01*
X58612708Y-88436847D01*
X58646933Y-88430086D01*
X58676129Y-88424124D01*
X58699092Y-88419182D01*
X58714620Y-88415483D01*
X58721511Y-88413248D01*
X58721721Y-88413059D01*
X58726099Y-88401733D01*
X58730834Y-88381948D01*
X58735598Y-88355380D01*
X58740063Y-88323707D01*
X58741408Y-88312480D01*
X58744061Y-88287752D01*
X58745347Y-88270050D01*
X58745329Y-88256336D01*
X58744065Y-88243577D01*
X58742930Y-88236280D01*
X58732902Y-88199796D01*
X58716432Y-88170499D01*
X58693894Y-88148881D01*
X58665879Y-88135495D01*
X58639777Y-88130899D01*
X58632722Y-88130716D01*
X58632722Y-88221533D01*
X58641729Y-88223081D01*
X58647963Y-88226616D01*
X58653284Y-88231883D01*
X58661957Y-88244618D01*
X58666453Y-88256600D01*
X58667293Y-88268674D01*
X58667010Y-88285449D01*
X58665850Y-88303642D01*
X58664058Y-88319968D01*
X58661881Y-88331144D01*
X58660665Y-88333846D01*
X58655098Y-88335603D01*
X58641315Y-88338722D01*
X58621116Y-88342872D01*
X58596303Y-88347720D01*
X58568677Y-88352936D01*
X58540040Y-88358188D01*
X58512192Y-88363144D01*
X58486935Y-88367473D01*
X58466071Y-88370844D01*
X58451400Y-88372925D01*
X58445506Y-88373440D01*
X58440643Y-88370506D01*
X58437129Y-88360643D01*
X58434404Y-88342257D01*
X58434339Y-88341651D01*
X58433661Y-88311583D01*
X58439052Y-88286678D01*
X58451110Y-88266497D01*
X58470434Y-88250601D01*
X58497624Y-88238553D01*
X58533277Y-88229913D01*
X58577993Y-88224243D01*
X58596580Y-88222835D01*
X58618489Y-88221582D01*
X58632722Y-88221533D01*
X58632722Y-88130716D01*
X58606641Y-88130036D01*
X58568798Y-88132695D01*
X58528575Y-88138664D01*
X58488302Y-88147731D01*
X58468532Y-88153467D01*
X58433271Y-88169573D01*
X58404093Y-88193323D01*
X58381448Y-88223907D01*
X58365784Y-88260515D01*
X58357548Y-88302335D01*
X58357191Y-88348559D01*
X58357640Y-88353752D01*
X58358926Y-88373298D01*
X58358049Y-88384671D01*
X58354844Y-88389662D01*
X58354254Y-88389933D01*
X58346773Y-88391779D01*
X58331625Y-88394818D01*
X58311168Y-88398595D01*
X58292497Y-88401854D01*
X58266081Y-88406687D01*
X58248111Y-88411486D01*
X58236969Y-88417623D01*
X58231041Y-88426471D01*
X58228708Y-88439402D01*
X58228349Y-88456320D01*
X58229384Y-88478351D01*
X58229384Y-88478351D01*
G37*
X58229384Y-88478351D02*
X58232798Y-88491969D01*
X58239318Y-88498786D01*
X58248240Y-88500440D01*
X58258415Y-88499544D01*
X58276789Y-88497006D01*
X58302160Y-88493046D01*
X58333326Y-88487887D01*
X58369084Y-88481752D01*
X58408231Y-88474861D01*
X58449564Y-88467437D01*
X58491881Y-88459701D01*
X58533979Y-88451877D01*
X58574656Y-88444185D01*
X58612708Y-88436847D01*
X58646933Y-88430086D01*
X58676129Y-88424124D01*
X58699092Y-88419182D01*
X58714620Y-88415483D01*
X58721511Y-88413248D01*
X58721721Y-88413059D01*
X58726099Y-88401733D01*
X58730834Y-88381948D01*
X58735598Y-88355380D01*
X58740063Y-88323707D01*
X58741408Y-88312480D01*
X58744061Y-88287752D01*
X58745347Y-88270050D01*
X58745329Y-88256336D01*
X58744065Y-88243577D01*
X58742930Y-88236280D01*
X58732902Y-88199796D01*
X58716432Y-88170499D01*
X58693894Y-88148881D01*
X58665879Y-88135495D01*
X58639777Y-88130899D01*
X58632722Y-88130716D01*
X58632722Y-88221533D01*
X58641729Y-88223081D01*
X58647963Y-88226616D01*
X58653284Y-88231883D01*
X58661957Y-88244618D01*
X58666453Y-88256600D01*
X58667293Y-88268674D01*
X58667010Y-88285449D01*
X58665850Y-88303642D01*
X58664058Y-88319968D01*
X58661881Y-88331144D01*
X58660665Y-88333846D01*
X58655098Y-88335603D01*
X58641315Y-88338722D01*
X58621116Y-88342872D01*
X58596303Y-88347720D01*
X58568677Y-88352936D01*
X58540040Y-88358188D01*
X58512192Y-88363144D01*
X58486935Y-88367473D01*
X58466071Y-88370844D01*
X58451400Y-88372925D01*
X58445506Y-88373440D01*
X58440643Y-88370506D01*
X58437129Y-88360643D01*
X58434404Y-88342257D01*
X58434339Y-88341651D01*
X58433661Y-88311583D01*
X58439052Y-88286678D01*
X58451110Y-88266497D01*
X58470434Y-88250601D01*
X58497624Y-88238553D01*
X58533277Y-88229913D01*
X58577993Y-88224243D01*
X58596580Y-88222835D01*
X58618489Y-88221582D01*
X58632722Y-88221533D01*
X58632722Y-88130716D01*
X58606641Y-88130036D01*
X58568798Y-88132695D01*
X58528575Y-88138664D01*
X58488302Y-88147731D01*
X58468532Y-88153467D01*
X58433271Y-88169573D01*
X58404093Y-88193323D01*
X58381448Y-88223907D01*
X58365784Y-88260515D01*
X58357548Y-88302335D01*
X58357191Y-88348559D01*
X58357640Y-88353752D01*
X58358926Y-88373298D01*
X58358049Y-88384671D01*
X58354844Y-88389662D01*
X58354254Y-88389933D01*
X58346773Y-88391779D01*
X58331625Y-88394818D01*
X58311168Y-88398595D01*
X58292497Y-88401854D01*
X58266081Y-88406687D01*
X58248111Y-88411486D01*
X58236969Y-88417623D01*
X58231041Y-88426471D01*
X58228708Y-88439402D01*
X58228349Y-88456320D01*
X58229384Y-88478351D01*
G36*
X58359339Y-87826567D02*
X58365609Y-87860459D01*
X58372513Y-87887293D01*
X58379746Y-87906153D01*
X58387001Y-87916122D01*
X58389661Y-87917380D01*
X58400484Y-87917541D01*
X58415950Y-87915547D01*
X58431971Y-87912194D01*
X58444462Y-87908274D01*
X58448629Y-87905921D01*
X58449713Y-87899156D01*
X58448219Y-87885166D01*
X58444429Y-87866473D01*
X58444080Y-87865031D01*
X58438808Y-87838252D01*
X58435728Y-87811309D01*
X58434897Y-87786575D01*
X58436368Y-87766419D01*
X58440198Y-87753212D01*
X58441422Y-87751402D01*
X58452052Y-87745242D01*
X58461399Y-87744533D01*
X58468365Y-87747134D01*
X58476806Y-87754173D01*
X58487783Y-87766820D01*
X58502357Y-87786245D01*
X58513479Y-87801940D01*
X58533737Y-87830190D01*
X58550180Y-87850967D01*
X58564254Y-87865491D01*
X58577407Y-87874979D01*
X58591086Y-87880650D01*
X58606740Y-87883722D01*
X58611263Y-87884240D01*
X58646984Y-87883714D01*
X58677973Y-87874632D01*
X58703488Y-87857449D01*
X58722791Y-87832624D01*
X58732732Y-87809304D01*
X58741524Y-87768379D01*
X58744040Y-87724877D01*
X58741354Y-87692555D01*
X58736795Y-87670642D01*
X58730408Y-87647799D01*
X58727454Y-87639215D01*
X58717987Y-87613980D01*
X58688674Y-87614592D01*
X58671813Y-87615783D01*
X58658956Y-87618215D01*
X58654121Y-87620446D01*
X58652047Y-87628153D01*
X58653587Y-87644025D01*
X58657443Y-87663013D01*
X58662406Y-87689863D01*
X58665320Y-87716797D01*
X58666133Y-87741474D01*
X58664794Y-87761552D01*
X58661252Y-87774689D01*
X58659935Y-87776714D01*
X58645547Y-87789101D01*
X58631366Y-87791334D01*
X58622656Y-87787610D01*
X58615450Y-87780670D01*
X58604124Y-87767203D01*
X58590210Y-87749126D01*
X58575239Y-87728356D01*
X58574683Y-87727559D01*
X58559592Y-87706561D01*
X58545397Y-87688025D01*
X58533669Y-87673926D01*
X58525982Y-87666243D01*
X58525853Y-87666150D01*
X58501110Y-87654018D01*
X58472111Y-87648618D01*
X58442266Y-87650017D01*
X58414988Y-87658281D01*
X58405182Y-87663772D01*
X58387465Y-87681066D01*
X58373237Y-87706072D01*
X58363067Y-87736772D01*
X58357523Y-87771146D01*
X58357174Y-87807175D01*
X58359339Y-87826567D01*
X58359339Y-87826567D01*
G37*
X58359339Y-87826567D02*
X58365609Y-87860459D01*
X58372513Y-87887293D01*
X58379746Y-87906153D01*
X58387001Y-87916122D01*
X58389661Y-87917380D01*
X58400484Y-87917541D01*
X58415950Y-87915547D01*
X58431971Y-87912194D01*
X58444462Y-87908274D01*
X58448629Y-87905921D01*
X58449713Y-87899156D01*
X58448219Y-87885166D01*
X58444429Y-87866473D01*
X58444080Y-87865031D01*
X58438808Y-87838252D01*
X58435728Y-87811309D01*
X58434897Y-87786575D01*
X58436368Y-87766419D01*
X58440198Y-87753212D01*
X58441422Y-87751402D01*
X58452052Y-87745242D01*
X58461399Y-87744533D01*
X58468365Y-87747134D01*
X58476806Y-87754173D01*
X58487783Y-87766820D01*
X58502357Y-87786245D01*
X58513479Y-87801940D01*
X58533737Y-87830190D01*
X58550180Y-87850967D01*
X58564254Y-87865491D01*
X58577407Y-87874979D01*
X58591086Y-87880650D01*
X58606740Y-87883722D01*
X58611263Y-87884240D01*
X58646984Y-87883714D01*
X58677973Y-87874632D01*
X58703488Y-87857449D01*
X58722791Y-87832624D01*
X58732732Y-87809304D01*
X58741524Y-87768379D01*
X58744040Y-87724877D01*
X58741354Y-87692555D01*
X58736795Y-87670642D01*
X58730408Y-87647799D01*
X58727454Y-87639215D01*
X58717987Y-87613980D01*
X58688674Y-87614592D01*
X58671813Y-87615783D01*
X58658956Y-87618215D01*
X58654121Y-87620446D01*
X58652047Y-87628153D01*
X58653587Y-87644025D01*
X58657443Y-87663013D01*
X58662406Y-87689863D01*
X58665320Y-87716797D01*
X58666133Y-87741474D01*
X58664794Y-87761552D01*
X58661252Y-87774689D01*
X58659935Y-87776714D01*
X58645547Y-87789101D01*
X58631366Y-87791334D01*
X58622656Y-87787610D01*
X58615450Y-87780670D01*
X58604124Y-87767203D01*
X58590210Y-87749126D01*
X58575239Y-87728356D01*
X58574683Y-87727559D01*
X58559592Y-87706561D01*
X58545397Y-87688025D01*
X58533669Y-87673926D01*
X58525982Y-87666243D01*
X58525853Y-87666150D01*
X58501110Y-87654018D01*
X58472111Y-87648618D01*
X58442266Y-87650017D01*
X58414988Y-87658281D01*
X58405182Y-87663772D01*
X58387465Y-87681066D01*
X58373237Y-87706072D01*
X58363067Y-87736772D01*
X58357523Y-87771146D01*
X58357174Y-87807175D01*
X58359339Y-87826567D01*
G04 #@! TO.C,JP1*
D10*
X71823333Y-107972380D02*
X71823333Y-108686666D01*
X71870952Y-108829523D01*
X71966190Y-108924761D01*
X72109047Y-108972380D01*
X72204285Y-108972380D01*
X71347142Y-108972380D02*
X71347142Y-107972380D01*
X70966190Y-107972380D01*
X70870952Y-108020000D01*
X70823333Y-108067619D01*
X70775714Y-108162857D01*
X70775714Y-108305714D01*
X70823333Y-108400952D01*
X70870952Y-108448571D01*
X70966190Y-108496190D01*
X71347142Y-108496190D01*
X69823333Y-108972380D02*
X70394761Y-108972380D01*
X70109047Y-108972380D02*
X70109047Y-107972380D01*
X70204285Y-108115238D01*
X70299523Y-108210476D01*
X70394761Y-108258095D01*
G04 #@! TO.C,R17*
X77742857Y-102202380D02*
X78076190Y-101726190D01*
X78314285Y-102202380D02*
X78314285Y-101202380D01*
X77933333Y-101202380D01*
X77838095Y-101250000D01*
X77790476Y-101297619D01*
X77742857Y-101392857D01*
X77742857Y-101535714D01*
X77790476Y-101630952D01*
X77838095Y-101678571D01*
X77933333Y-101726190D01*
X78314285Y-101726190D01*
X76790476Y-102202380D02*
X77361904Y-102202380D01*
X77076190Y-102202380D02*
X77076190Y-101202380D01*
X77171428Y-101345238D01*
X77266666Y-101440476D01*
X77361904Y-101488095D01*
X76457142Y-101202380D02*
X75790476Y-101202380D01*
X76219047Y-102202380D01*
G04 #@! TO.C,C1*
X86866666Y-88957142D02*
X86914285Y-89004761D01*
X87057142Y-89052380D01*
X87152380Y-89052380D01*
X87295238Y-89004761D01*
X87390476Y-88909523D01*
X87438095Y-88814285D01*
X87485714Y-88623809D01*
X87485714Y-88480952D01*
X87438095Y-88290476D01*
X87390476Y-88195238D01*
X87295238Y-88100000D01*
X87152380Y-88052380D01*
X87057142Y-88052380D01*
X86914285Y-88100000D01*
X86866666Y-88147619D01*
X85914285Y-89052380D02*
X86485714Y-89052380D01*
X86200000Y-89052380D02*
X86200000Y-88052380D01*
X86295238Y-88195238D01*
X86390476Y-88290476D01*
X86485714Y-88338095D01*
G04 #@! TO.C,C3*
X94966666Y-91957142D02*
X95014285Y-92004761D01*
X95157142Y-92052380D01*
X95252380Y-92052380D01*
X95395238Y-92004761D01*
X95490476Y-91909523D01*
X95538095Y-91814285D01*
X95585714Y-91623809D01*
X95585714Y-91480952D01*
X95538095Y-91290476D01*
X95490476Y-91195238D01*
X95395238Y-91100000D01*
X95252380Y-91052380D01*
X95157142Y-91052380D01*
X95014285Y-91100000D01*
X94966666Y-91147619D01*
X94633333Y-91052380D02*
X94014285Y-91052380D01*
X94347619Y-91433333D01*
X94204761Y-91433333D01*
X94109523Y-91480952D01*
X94061904Y-91528571D01*
X94014285Y-91623809D01*
X94014285Y-91861904D01*
X94061904Y-91957142D01*
X94109523Y-92004761D01*
X94204761Y-92052380D01*
X94490476Y-92052380D01*
X94585714Y-92004761D01*
X94633333Y-91957142D01*
G04 #@! TO.C,C4*
X72036666Y-72377142D02*
X72084285Y-72424761D01*
X72227142Y-72472380D01*
X72322380Y-72472380D01*
X72465238Y-72424761D01*
X72560476Y-72329523D01*
X72608095Y-72234285D01*
X72655714Y-72043809D01*
X72655714Y-71900952D01*
X72608095Y-71710476D01*
X72560476Y-71615238D01*
X72465238Y-71520000D01*
X72322380Y-71472380D01*
X72227142Y-71472380D01*
X72084285Y-71520000D01*
X72036666Y-71567619D01*
X71179523Y-71805714D02*
X71179523Y-72472380D01*
X71417619Y-71424761D02*
X71655714Y-72139047D01*
X71036666Y-72139047D01*
G04 #@! TO.C,C9*
X101766666Y-83657142D02*
X101814285Y-83704761D01*
X101957142Y-83752380D01*
X102052380Y-83752380D01*
X102195238Y-83704761D01*
X102290476Y-83609523D01*
X102338095Y-83514285D01*
X102385714Y-83323809D01*
X102385714Y-83180952D01*
X102338095Y-82990476D01*
X102290476Y-82895238D01*
X102195238Y-82800000D01*
X102052380Y-82752380D01*
X101957142Y-82752380D01*
X101814285Y-82800000D01*
X101766666Y-82847619D01*
X101290476Y-83752380D02*
X101100000Y-83752380D01*
X101004761Y-83704761D01*
X100957142Y-83657142D01*
X100861904Y-83514285D01*
X100814285Y-83323809D01*
X100814285Y-82942857D01*
X100861904Y-82847619D01*
X100909523Y-82800000D01*
X101004761Y-82752380D01*
X101195238Y-82752380D01*
X101290476Y-82800000D01*
X101338095Y-82847619D01*
X101385714Y-82942857D01*
X101385714Y-83180952D01*
X101338095Y-83276190D01*
X101290476Y-83323809D01*
X101195238Y-83371428D01*
X101004761Y-83371428D01*
X100909523Y-83323809D01*
X100861904Y-83276190D01*
X100814285Y-83180952D01*
G04 #@! TO.C,C10*
X64742857Y-97257142D02*
X64790476Y-97304761D01*
X64933333Y-97352380D01*
X65028571Y-97352380D01*
X65171428Y-97304761D01*
X65266666Y-97209523D01*
X65314285Y-97114285D01*
X65361904Y-96923809D01*
X65361904Y-96780952D01*
X65314285Y-96590476D01*
X65266666Y-96495238D01*
X65171428Y-96400000D01*
X65028571Y-96352380D01*
X64933333Y-96352380D01*
X64790476Y-96400000D01*
X64742857Y-96447619D01*
X63790476Y-97352380D02*
X64361904Y-97352380D01*
X64076190Y-97352380D02*
X64076190Y-96352380D01*
X64171428Y-96495238D01*
X64266666Y-96590476D01*
X64361904Y-96638095D01*
X63171428Y-96352380D02*
X63076190Y-96352380D01*
X62980952Y-96400000D01*
X62933333Y-96447619D01*
X62885714Y-96542857D01*
X62838095Y-96733333D01*
X62838095Y-96971428D01*
X62885714Y-97161904D01*
X62933333Y-97257142D01*
X62980952Y-97304761D01*
X63076190Y-97352380D01*
X63171428Y-97352380D01*
X63266666Y-97304761D01*
X63314285Y-97257142D01*
X63361904Y-97161904D01*
X63409523Y-96971428D01*
X63409523Y-96733333D01*
X63361904Y-96542857D01*
X63314285Y-96447619D01*
X63266666Y-96400000D01*
X63171428Y-96352380D01*
G04 #@! TO.C,C11*
X66892857Y-74607142D02*
X66940476Y-74654761D01*
X67083333Y-74702380D01*
X67178571Y-74702380D01*
X67321428Y-74654761D01*
X67416666Y-74559523D01*
X67464285Y-74464285D01*
X67511904Y-74273809D01*
X67511904Y-74130952D01*
X67464285Y-73940476D01*
X67416666Y-73845238D01*
X67321428Y-73750000D01*
X67178571Y-73702380D01*
X67083333Y-73702380D01*
X66940476Y-73750000D01*
X66892857Y-73797619D01*
X65940476Y-74702380D02*
X66511904Y-74702380D01*
X66226190Y-74702380D02*
X66226190Y-73702380D01*
X66321428Y-73845238D01*
X66416666Y-73940476D01*
X66511904Y-73988095D01*
X64988095Y-74702380D02*
X65559523Y-74702380D01*
X65273809Y-74702380D02*
X65273809Y-73702380D01*
X65369047Y-73845238D01*
X65464285Y-73940476D01*
X65559523Y-73988095D01*
G04 #@! TO.C,C12*
X81042857Y-92257142D02*
X81090476Y-92304761D01*
X81233333Y-92352380D01*
X81328571Y-92352380D01*
X81471428Y-92304761D01*
X81566666Y-92209523D01*
X81614285Y-92114285D01*
X81661904Y-91923809D01*
X81661904Y-91780952D01*
X81614285Y-91590476D01*
X81566666Y-91495238D01*
X81471428Y-91400000D01*
X81328571Y-91352380D01*
X81233333Y-91352380D01*
X81090476Y-91400000D01*
X81042857Y-91447619D01*
X80090476Y-92352380D02*
X80661904Y-92352380D01*
X80376190Y-92352380D02*
X80376190Y-91352380D01*
X80471428Y-91495238D01*
X80566666Y-91590476D01*
X80661904Y-91638095D01*
X79709523Y-91447619D02*
X79661904Y-91400000D01*
X79566666Y-91352380D01*
X79328571Y-91352380D01*
X79233333Y-91400000D01*
X79185714Y-91447619D01*
X79138095Y-91542857D01*
X79138095Y-91638095D01*
X79185714Y-91780952D01*
X79757142Y-92352380D01*
X79138095Y-92352380D01*
G04 #@! TO.C,C13*
X61877857Y-95192142D02*
X61925476Y-95239761D01*
X62068333Y-95287380D01*
X62163571Y-95287380D01*
X62306428Y-95239761D01*
X62401666Y-95144523D01*
X62449285Y-95049285D01*
X62496904Y-94858809D01*
X62496904Y-94715952D01*
X62449285Y-94525476D01*
X62401666Y-94430238D01*
X62306428Y-94335000D01*
X62163571Y-94287380D01*
X62068333Y-94287380D01*
X61925476Y-94335000D01*
X61877857Y-94382619D01*
X60925476Y-95287380D02*
X61496904Y-95287380D01*
X61211190Y-95287380D02*
X61211190Y-94287380D01*
X61306428Y-94430238D01*
X61401666Y-94525476D01*
X61496904Y-94573095D01*
X60592142Y-94287380D02*
X59973095Y-94287380D01*
X60306428Y-94668333D01*
X60163571Y-94668333D01*
X60068333Y-94715952D01*
X60020714Y-94763571D01*
X59973095Y-94858809D01*
X59973095Y-95096904D01*
X60020714Y-95192142D01*
X60068333Y-95239761D01*
X60163571Y-95287380D01*
X60449285Y-95287380D01*
X60544523Y-95239761D01*
X60592142Y-95192142D01*
G04 #@! TO.C,C14*
X53642857Y-102387142D02*
X53690476Y-102434761D01*
X53833333Y-102482380D01*
X53928571Y-102482380D01*
X54071428Y-102434761D01*
X54166666Y-102339523D01*
X54214285Y-102244285D01*
X54261904Y-102053809D01*
X54261904Y-101910952D01*
X54214285Y-101720476D01*
X54166666Y-101625238D01*
X54071428Y-101530000D01*
X53928571Y-101482380D01*
X53833333Y-101482380D01*
X53690476Y-101530000D01*
X53642857Y-101577619D01*
X52690476Y-102482380D02*
X53261904Y-102482380D01*
X52976190Y-102482380D02*
X52976190Y-101482380D01*
X53071428Y-101625238D01*
X53166666Y-101720476D01*
X53261904Y-101768095D01*
X51833333Y-101815714D02*
X51833333Y-102482380D01*
X52071428Y-101434761D02*
X52309523Y-102149047D01*
X51690476Y-102149047D01*
G04 #@! TO.C,C15*
X92942857Y-90557142D02*
X92990476Y-90604761D01*
X93133333Y-90652380D01*
X93228571Y-90652380D01*
X93371428Y-90604761D01*
X93466666Y-90509523D01*
X93514285Y-90414285D01*
X93561904Y-90223809D01*
X93561904Y-90080952D01*
X93514285Y-89890476D01*
X93466666Y-89795238D01*
X93371428Y-89700000D01*
X93228571Y-89652380D01*
X93133333Y-89652380D01*
X92990476Y-89700000D01*
X92942857Y-89747619D01*
X91990476Y-90652380D02*
X92561904Y-90652380D01*
X92276190Y-90652380D02*
X92276190Y-89652380D01*
X92371428Y-89795238D01*
X92466666Y-89890476D01*
X92561904Y-89938095D01*
X91085714Y-89652380D02*
X91561904Y-89652380D01*
X91609523Y-90128571D01*
X91561904Y-90080952D01*
X91466666Y-90033333D01*
X91228571Y-90033333D01*
X91133333Y-90080952D01*
X91085714Y-90128571D01*
X91038095Y-90223809D01*
X91038095Y-90461904D01*
X91085714Y-90557142D01*
X91133333Y-90604761D01*
X91228571Y-90652380D01*
X91466666Y-90652380D01*
X91561904Y-90604761D01*
X91609523Y-90557142D01*
G04 #@! TO.C,C17*
X89442857Y-94457142D02*
X89490476Y-94504761D01*
X89633333Y-94552380D01*
X89728571Y-94552380D01*
X89871428Y-94504761D01*
X89966666Y-94409523D01*
X90014285Y-94314285D01*
X90061904Y-94123809D01*
X90061904Y-93980952D01*
X90014285Y-93790476D01*
X89966666Y-93695238D01*
X89871428Y-93600000D01*
X89728571Y-93552380D01*
X89633333Y-93552380D01*
X89490476Y-93600000D01*
X89442857Y-93647619D01*
X88490476Y-94552380D02*
X89061904Y-94552380D01*
X88776190Y-94552380D02*
X88776190Y-93552380D01*
X88871428Y-93695238D01*
X88966666Y-93790476D01*
X89061904Y-93838095D01*
X88157142Y-93552380D02*
X87490476Y-93552380D01*
X87919047Y-94552380D01*
G04 #@! TO.C,C18*
X61642857Y-108287142D02*
X61690476Y-108334761D01*
X61833333Y-108382380D01*
X61928571Y-108382380D01*
X62071428Y-108334761D01*
X62166666Y-108239523D01*
X62214285Y-108144285D01*
X62261904Y-107953809D01*
X62261904Y-107810952D01*
X62214285Y-107620476D01*
X62166666Y-107525238D01*
X62071428Y-107430000D01*
X61928571Y-107382380D01*
X61833333Y-107382380D01*
X61690476Y-107430000D01*
X61642857Y-107477619D01*
X60690476Y-108382380D02*
X61261904Y-108382380D01*
X60976190Y-108382380D02*
X60976190Y-107382380D01*
X61071428Y-107525238D01*
X61166666Y-107620476D01*
X61261904Y-107668095D01*
X60119047Y-107810952D02*
X60214285Y-107763333D01*
X60261904Y-107715714D01*
X60309523Y-107620476D01*
X60309523Y-107572857D01*
X60261904Y-107477619D01*
X60214285Y-107430000D01*
X60119047Y-107382380D01*
X59928571Y-107382380D01*
X59833333Y-107430000D01*
X59785714Y-107477619D01*
X59738095Y-107572857D01*
X59738095Y-107620476D01*
X59785714Y-107715714D01*
X59833333Y-107763333D01*
X59928571Y-107810952D01*
X60119047Y-107810952D01*
X60214285Y-107858571D01*
X60261904Y-107906190D01*
X60309523Y-108001428D01*
X60309523Y-108191904D01*
X60261904Y-108287142D01*
X60214285Y-108334761D01*
X60119047Y-108382380D01*
X59928571Y-108382380D01*
X59833333Y-108334761D01*
X59785714Y-108287142D01*
X59738095Y-108191904D01*
X59738095Y-108001428D01*
X59785714Y-107906190D01*
X59833333Y-107858571D01*
X59928571Y-107810952D01*
G04 #@! TO.C,C20*
X45357142Y-90607142D02*
X45404761Y-90559523D01*
X45452380Y-90416666D01*
X45452380Y-90321428D01*
X45404761Y-90178571D01*
X45309523Y-90083333D01*
X45214285Y-90035714D01*
X45023809Y-89988095D01*
X44880952Y-89988095D01*
X44690476Y-90035714D01*
X44595238Y-90083333D01*
X44500000Y-90178571D01*
X44452380Y-90321428D01*
X44452380Y-90416666D01*
X44500000Y-90559523D01*
X44547619Y-90607142D01*
X44547619Y-90988095D02*
X44500000Y-91035714D01*
X44452380Y-91130952D01*
X44452380Y-91369047D01*
X44500000Y-91464285D01*
X44547619Y-91511904D01*
X44642857Y-91559523D01*
X44738095Y-91559523D01*
X44880952Y-91511904D01*
X45452380Y-90940476D01*
X45452380Y-91559523D01*
X44452380Y-92178571D02*
X44452380Y-92273809D01*
X44500000Y-92369047D01*
X44547619Y-92416666D01*
X44642857Y-92464285D01*
X44833333Y-92511904D01*
X45071428Y-92511904D01*
X45261904Y-92464285D01*
X45357142Y-92416666D01*
X45404761Y-92369047D01*
X45452380Y-92273809D01*
X45452380Y-92178571D01*
X45404761Y-92083333D01*
X45357142Y-92035714D01*
X45261904Y-91988095D01*
X45071428Y-91940476D01*
X44833333Y-91940476D01*
X44642857Y-91988095D01*
X44547619Y-92035714D01*
X44500000Y-92083333D01*
X44452380Y-92178571D01*
G04 #@! TO.C,C23*
X65142857Y-77357142D02*
X65190476Y-77404761D01*
X65333333Y-77452380D01*
X65428571Y-77452380D01*
X65571428Y-77404761D01*
X65666666Y-77309523D01*
X65714285Y-77214285D01*
X65761904Y-77023809D01*
X65761904Y-76880952D01*
X65714285Y-76690476D01*
X65666666Y-76595238D01*
X65571428Y-76500000D01*
X65428571Y-76452380D01*
X65333333Y-76452380D01*
X65190476Y-76500000D01*
X65142857Y-76547619D01*
X64761904Y-76547619D02*
X64714285Y-76500000D01*
X64619047Y-76452380D01*
X64380952Y-76452380D01*
X64285714Y-76500000D01*
X64238095Y-76547619D01*
X64190476Y-76642857D01*
X64190476Y-76738095D01*
X64238095Y-76880952D01*
X64809523Y-77452380D01*
X64190476Y-77452380D01*
X63857142Y-76452380D02*
X63238095Y-76452380D01*
X63571428Y-76833333D01*
X63428571Y-76833333D01*
X63333333Y-76880952D01*
X63285714Y-76928571D01*
X63238095Y-77023809D01*
X63238095Y-77261904D01*
X63285714Y-77357142D01*
X63333333Y-77404761D01*
X63428571Y-77452380D01*
X63714285Y-77452380D01*
X63809523Y-77404761D01*
X63857142Y-77357142D01*
G04 #@! TO.C,D1*
X99438095Y-95852380D02*
X99438095Y-94852380D01*
X99200000Y-94852380D01*
X99057142Y-94900000D01*
X98961904Y-94995238D01*
X98914285Y-95090476D01*
X98866666Y-95280952D01*
X98866666Y-95423809D01*
X98914285Y-95614285D01*
X98961904Y-95709523D01*
X99057142Y-95804761D01*
X99200000Y-95852380D01*
X99438095Y-95852380D01*
X97914285Y-95852380D02*
X98485714Y-95852380D01*
X98200000Y-95852380D02*
X98200000Y-94852380D01*
X98295238Y-94995238D01*
X98390476Y-95090476D01*
X98485714Y-95138095D01*
G04 #@! TO.C,D4*
X88518095Y-87662380D02*
X88518095Y-86662380D01*
X88280000Y-86662380D01*
X88137142Y-86710000D01*
X88041904Y-86805238D01*
X87994285Y-86900476D01*
X87946666Y-87090952D01*
X87946666Y-87233809D01*
X87994285Y-87424285D01*
X88041904Y-87519523D01*
X88137142Y-87614761D01*
X88280000Y-87662380D01*
X88518095Y-87662380D01*
X87089523Y-86995714D02*
X87089523Y-87662380D01*
X87327619Y-86614761D02*
X87565714Y-87329047D01*
X86946666Y-87329047D01*
G04 #@! TO.C,IC1*
X69726190Y-99952380D02*
X69726190Y-98952380D01*
X68678571Y-99857142D02*
X68726190Y-99904761D01*
X68869047Y-99952380D01*
X68964285Y-99952380D01*
X69107142Y-99904761D01*
X69202380Y-99809523D01*
X69250000Y-99714285D01*
X69297619Y-99523809D01*
X69297619Y-99380952D01*
X69250000Y-99190476D01*
X69202380Y-99095238D01*
X69107142Y-99000000D01*
X68964285Y-98952380D01*
X68869047Y-98952380D01*
X68726190Y-99000000D01*
X68678571Y-99047619D01*
X67726190Y-99952380D02*
X68297619Y-99952380D01*
X68011904Y-99952380D02*
X68011904Y-98952380D01*
X68107142Y-99095238D01*
X68202380Y-99190476D01*
X68297619Y-99238095D01*
G04 #@! TO.C,Q2*
X65895238Y-87247619D02*
X65990476Y-87200000D01*
X66085714Y-87104761D01*
X66228571Y-86961904D01*
X66323809Y-86914285D01*
X66419047Y-86914285D01*
X66371428Y-87152380D02*
X66466666Y-87104761D01*
X66561904Y-87009523D01*
X66609523Y-86819047D01*
X66609523Y-86485714D01*
X66561904Y-86295238D01*
X66466666Y-86200000D01*
X66371428Y-86152380D01*
X66180952Y-86152380D01*
X66085714Y-86200000D01*
X65990476Y-86295238D01*
X65942857Y-86485714D01*
X65942857Y-86819047D01*
X65990476Y-87009523D01*
X66085714Y-87104761D01*
X66180952Y-87152380D01*
X66371428Y-87152380D01*
X65561904Y-86247619D02*
X65514285Y-86200000D01*
X65419047Y-86152380D01*
X65180952Y-86152380D01*
X65085714Y-86200000D01*
X65038095Y-86247619D01*
X64990476Y-86342857D01*
X64990476Y-86438095D01*
X65038095Y-86580952D01*
X65609523Y-87152380D01*
X64990476Y-87152380D01*
G04 #@! TO.C,Q3*
X61495238Y-83597619D02*
X61590476Y-83550000D01*
X61685714Y-83454761D01*
X61828571Y-83311904D01*
X61923809Y-83264285D01*
X62019047Y-83264285D01*
X61971428Y-83502380D02*
X62066666Y-83454761D01*
X62161904Y-83359523D01*
X62209523Y-83169047D01*
X62209523Y-82835714D01*
X62161904Y-82645238D01*
X62066666Y-82550000D01*
X61971428Y-82502380D01*
X61780952Y-82502380D01*
X61685714Y-82550000D01*
X61590476Y-82645238D01*
X61542857Y-82835714D01*
X61542857Y-83169047D01*
X61590476Y-83359523D01*
X61685714Y-83454761D01*
X61780952Y-83502380D01*
X61971428Y-83502380D01*
X61209523Y-82502380D02*
X60590476Y-82502380D01*
X60923809Y-82883333D01*
X60780952Y-82883333D01*
X60685714Y-82930952D01*
X60638095Y-82978571D01*
X60590476Y-83073809D01*
X60590476Y-83311904D01*
X60638095Y-83407142D01*
X60685714Y-83454761D01*
X60780952Y-83502380D01*
X61066666Y-83502380D01*
X61161904Y-83454761D01*
X61209523Y-83407142D01*
G04 #@! TO.C,Q6*
X46047619Y-96654761D02*
X46000000Y-96559523D01*
X45904761Y-96464285D01*
X45761904Y-96321428D01*
X45714285Y-96226190D01*
X45714285Y-96130952D01*
X45952380Y-96178571D02*
X45904761Y-96083333D01*
X45809523Y-95988095D01*
X45619047Y-95940476D01*
X45285714Y-95940476D01*
X45095238Y-95988095D01*
X45000000Y-96083333D01*
X44952380Y-96178571D01*
X44952380Y-96369047D01*
X45000000Y-96464285D01*
X45095238Y-96559523D01*
X45285714Y-96607142D01*
X45619047Y-96607142D01*
X45809523Y-96559523D01*
X45904761Y-96464285D01*
X45952380Y-96369047D01*
X45952380Y-96178571D01*
X44952380Y-97464285D02*
X44952380Y-97273809D01*
X45000000Y-97178571D01*
X45047619Y-97130952D01*
X45190476Y-97035714D01*
X45380952Y-96988095D01*
X45761904Y-96988095D01*
X45857142Y-97035714D01*
X45904761Y-97083333D01*
X45952380Y-97178571D01*
X45952380Y-97369047D01*
X45904761Y-97464285D01*
X45857142Y-97511904D01*
X45761904Y-97559523D01*
X45523809Y-97559523D01*
X45428571Y-97511904D01*
X45380952Y-97464285D01*
X45333333Y-97369047D01*
X45333333Y-97178571D01*
X45380952Y-97083333D01*
X45428571Y-97035714D01*
X45523809Y-96988095D01*
G04 #@! TO.C,Q7*
X44797619Y-83154761D02*
X44750000Y-83059523D01*
X44654761Y-82964285D01*
X44511904Y-82821428D01*
X44464285Y-82726190D01*
X44464285Y-82630952D01*
X44702380Y-82678571D02*
X44654761Y-82583333D01*
X44559523Y-82488095D01*
X44369047Y-82440476D01*
X44035714Y-82440476D01*
X43845238Y-82488095D01*
X43750000Y-82583333D01*
X43702380Y-82678571D01*
X43702380Y-82869047D01*
X43750000Y-82964285D01*
X43845238Y-83059523D01*
X44035714Y-83107142D01*
X44369047Y-83107142D01*
X44559523Y-83059523D01*
X44654761Y-82964285D01*
X44702380Y-82869047D01*
X44702380Y-82678571D01*
X43702380Y-83440476D02*
X43702380Y-84107142D01*
X44702380Y-83678571D01*
G04 #@! TO.C,Q8*
X66045238Y-107622619D02*
X66140476Y-107575000D01*
X66235714Y-107479761D01*
X66378571Y-107336904D01*
X66473809Y-107289285D01*
X66569047Y-107289285D01*
X66521428Y-107527380D02*
X66616666Y-107479761D01*
X66711904Y-107384523D01*
X66759523Y-107194047D01*
X66759523Y-106860714D01*
X66711904Y-106670238D01*
X66616666Y-106575000D01*
X66521428Y-106527380D01*
X66330952Y-106527380D01*
X66235714Y-106575000D01*
X66140476Y-106670238D01*
X66092857Y-106860714D01*
X66092857Y-107194047D01*
X66140476Y-107384523D01*
X66235714Y-107479761D01*
X66330952Y-107527380D01*
X66521428Y-107527380D01*
X65521428Y-106955952D02*
X65616666Y-106908333D01*
X65664285Y-106860714D01*
X65711904Y-106765476D01*
X65711904Y-106717857D01*
X65664285Y-106622619D01*
X65616666Y-106575000D01*
X65521428Y-106527380D01*
X65330952Y-106527380D01*
X65235714Y-106575000D01*
X65188095Y-106622619D01*
X65140476Y-106717857D01*
X65140476Y-106765476D01*
X65188095Y-106860714D01*
X65235714Y-106908333D01*
X65330952Y-106955952D01*
X65521428Y-106955952D01*
X65616666Y-107003571D01*
X65664285Y-107051190D01*
X65711904Y-107146428D01*
X65711904Y-107336904D01*
X65664285Y-107432142D01*
X65616666Y-107479761D01*
X65521428Y-107527380D01*
X65330952Y-107527380D01*
X65235714Y-107479761D01*
X65188095Y-107432142D01*
X65140476Y-107336904D01*
X65140476Y-107146428D01*
X65188095Y-107051190D01*
X65235714Y-107003571D01*
X65330952Y-106955952D01*
G04 #@! TO.C,Q9*
X56795238Y-107422619D02*
X56890476Y-107375000D01*
X56985714Y-107279761D01*
X57128571Y-107136904D01*
X57223809Y-107089285D01*
X57319047Y-107089285D01*
X57271428Y-107327380D02*
X57366666Y-107279761D01*
X57461904Y-107184523D01*
X57509523Y-106994047D01*
X57509523Y-106660714D01*
X57461904Y-106470238D01*
X57366666Y-106375000D01*
X57271428Y-106327380D01*
X57080952Y-106327380D01*
X56985714Y-106375000D01*
X56890476Y-106470238D01*
X56842857Y-106660714D01*
X56842857Y-106994047D01*
X56890476Y-107184523D01*
X56985714Y-107279761D01*
X57080952Y-107327380D01*
X57271428Y-107327380D01*
X56366666Y-107327380D02*
X56176190Y-107327380D01*
X56080952Y-107279761D01*
X56033333Y-107232142D01*
X55938095Y-107089285D01*
X55890476Y-106898809D01*
X55890476Y-106517857D01*
X55938095Y-106422619D01*
X55985714Y-106375000D01*
X56080952Y-106327380D01*
X56271428Y-106327380D01*
X56366666Y-106375000D01*
X56414285Y-106422619D01*
X56461904Y-106517857D01*
X56461904Y-106755952D01*
X56414285Y-106851190D01*
X56366666Y-106898809D01*
X56271428Y-106946428D01*
X56080952Y-106946428D01*
X55985714Y-106898809D01*
X55938095Y-106851190D01*
X55890476Y-106755952D01*
G04 #@! TO.C,R1*
X91366666Y-96652380D02*
X91700000Y-96176190D01*
X91938095Y-96652380D02*
X91938095Y-95652380D01*
X91557142Y-95652380D01*
X91461904Y-95700000D01*
X91414285Y-95747619D01*
X91366666Y-95842857D01*
X91366666Y-95985714D01*
X91414285Y-96080952D01*
X91461904Y-96128571D01*
X91557142Y-96176190D01*
X91938095Y-96176190D01*
X90414285Y-96652380D02*
X90985714Y-96652380D01*
X90700000Y-96652380D02*
X90700000Y-95652380D01*
X90795238Y-95795238D01*
X90890476Y-95890476D01*
X90985714Y-95938095D01*
G04 #@! TO.C,R3*
X97266666Y-90752380D02*
X97600000Y-90276190D01*
X97838095Y-90752380D02*
X97838095Y-89752380D01*
X97457142Y-89752380D01*
X97361904Y-89800000D01*
X97314285Y-89847619D01*
X97266666Y-89942857D01*
X97266666Y-90085714D01*
X97314285Y-90180952D01*
X97361904Y-90228571D01*
X97457142Y-90276190D01*
X97838095Y-90276190D01*
X96933333Y-89752380D02*
X96314285Y-89752380D01*
X96647619Y-90133333D01*
X96504761Y-90133333D01*
X96409523Y-90180952D01*
X96361904Y-90228571D01*
X96314285Y-90323809D01*
X96314285Y-90561904D01*
X96361904Y-90657142D01*
X96409523Y-90704761D01*
X96504761Y-90752380D01*
X96790476Y-90752380D01*
X96885714Y-90704761D01*
X96933333Y-90657142D01*
G04 #@! TO.C,R4*
X95066666Y-90652380D02*
X95400000Y-90176190D01*
X95638095Y-90652380D02*
X95638095Y-89652380D01*
X95257142Y-89652380D01*
X95161904Y-89700000D01*
X95114285Y-89747619D01*
X95066666Y-89842857D01*
X95066666Y-89985714D01*
X95114285Y-90080952D01*
X95161904Y-90128571D01*
X95257142Y-90176190D01*
X95638095Y-90176190D01*
X94209523Y-89985714D02*
X94209523Y-90652380D01*
X94447619Y-89604761D02*
X94685714Y-90319047D01*
X94066666Y-90319047D01*
G04 #@! TO.C,R5*
X65166666Y-84352380D02*
X65500000Y-83876190D01*
X65738095Y-84352380D02*
X65738095Y-83352380D01*
X65357142Y-83352380D01*
X65261904Y-83400000D01*
X65214285Y-83447619D01*
X65166666Y-83542857D01*
X65166666Y-83685714D01*
X65214285Y-83780952D01*
X65261904Y-83828571D01*
X65357142Y-83876190D01*
X65738095Y-83876190D01*
X64261904Y-83352380D02*
X64738095Y-83352380D01*
X64785714Y-83828571D01*
X64738095Y-83780952D01*
X64642857Y-83733333D01*
X64404761Y-83733333D01*
X64309523Y-83780952D01*
X64261904Y-83828571D01*
X64214285Y-83923809D01*
X64214285Y-84161904D01*
X64261904Y-84257142D01*
X64309523Y-84304761D01*
X64404761Y-84352380D01*
X64642857Y-84352380D01*
X64738095Y-84304761D01*
X64785714Y-84257142D01*
G04 #@! TO.C,R6*
X71566666Y-85402380D02*
X71900000Y-84926190D01*
X72138095Y-85402380D02*
X72138095Y-84402380D01*
X71757142Y-84402380D01*
X71661904Y-84450000D01*
X71614285Y-84497619D01*
X71566666Y-84592857D01*
X71566666Y-84735714D01*
X71614285Y-84830952D01*
X71661904Y-84878571D01*
X71757142Y-84926190D01*
X72138095Y-84926190D01*
X70709523Y-84402380D02*
X70900000Y-84402380D01*
X70995238Y-84450000D01*
X71042857Y-84497619D01*
X71138095Y-84640476D01*
X71185714Y-84830952D01*
X71185714Y-85211904D01*
X71138095Y-85307142D01*
X71090476Y-85354761D01*
X70995238Y-85402380D01*
X70804761Y-85402380D01*
X70709523Y-85354761D01*
X70661904Y-85307142D01*
X70614285Y-85211904D01*
X70614285Y-84973809D01*
X70661904Y-84878571D01*
X70709523Y-84830952D01*
X70804761Y-84783333D01*
X70995238Y-84783333D01*
X71090476Y-84830952D01*
X71138095Y-84878571D01*
X71185714Y-84973809D01*
G04 #@! TO.C,R7*
X62466666Y-92302380D02*
X62800000Y-91826190D01*
X63038095Y-92302380D02*
X63038095Y-91302380D01*
X62657142Y-91302380D01*
X62561904Y-91350000D01*
X62514285Y-91397619D01*
X62466666Y-91492857D01*
X62466666Y-91635714D01*
X62514285Y-91730952D01*
X62561904Y-91778571D01*
X62657142Y-91826190D01*
X63038095Y-91826190D01*
X62133333Y-91302380D02*
X61466666Y-91302380D01*
X61895238Y-92302380D01*
G04 #@! TO.C,R12*
X61102857Y-93752380D02*
X61436190Y-93276190D01*
X61674285Y-93752380D02*
X61674285Y-92752380D01*
X61293333Y-92752380D01*
X61198095Y-92800000D01*
X61150476Y-92847619D01*
X61102857Y-92942857D01*
X61102857Y-93085714D01*
X61150476Y-93180952D01*
X61198095Y-93228571D01*
X61293333Y-93276190D01*
X61674285Y-93276190D01*
X60150476Y-93752380D02*
X60721904Y-93752380D01*
X60436190Y-93752380D02*
X60436190Y-92752380D01*
X60531428Y-92895238D01*
X60626666Y-92990476D01*
X60721904Y-93038095D01*
X59769523Y-92847619D02*
X59721904Y-92800000D01*
X59626666Y-92752380D01*
X59388571Y-92752380D01*
X59293333Y-92800000D01*
X59245714Y-92847619D01*
X59198095Y-92942857D01*
X59198095Y-93038095D01*
X59245714Y-93180952D01*
X59817142Y-93752380D01*
X59198095Y-93752380D01*
G04 #@! TO.C,R13*
X76642857Y-75202380D02*
X76976190Y-74726190D01*
X77214285Y-75202380D02*
X77214285Y-74202380D01*
X76833333Y-74202380D01*
X76738095Y-74250000D01*
X76690476Y-74297619D01*
X76642857Y-74392857D01*
X76642857Y-74535714D01*
X76690476Y-74630952D01*
X76738095Y-74678571D01*
X76833333Y-74726190D01*
X77214285Y-74726190D01*
X75690476Y-75202380D02*
X76261904Y-75202380D01*
X75976190Y-75202380D02*
X75976190Y-74202380D01*
X76071428Y-74345238D01*
X76166666Y-74440476D01*
X76261904Y-74488095D01*
X75357142Y-74202380D02*
X74738095Y-74202380D01*
X75071428Y-74583333D01*
X74928571Y-74583333D01*
X74833333Y-74630952D01*
X74785714Y-74678571D01*
X74738095Y-74773809D01*
X74738095Y-75011904D01*
X74785714Y-75107142D01*
X74833333Y-75154761D01*
X74928571Y-75202380D01*
X75214285Y-75202380D01*
X75309523Y-75154761D01*
X75357142Y-75107142D01*
G04 #@! TO.C,R16*
X45952380Y-98607142D02*
X45476190Y-98273809D01*
X45952380Y-98035714D02*
X44952380Y-98035714D01*
X44952380Y-98416666D01*
X45000000Y-98511904D01*
X45047619Y-98559523D01*
X45142857Y-98607142D01*
X45285714Y-98607142D01*
X45380952Y-98559523D01*
X45428571Y-98511904D01*
X45476190Y-98416666D01*
X45476190Y-98035714D01*
X45952380Y-99559523D02*
X45952380Y-98988095D01*
X45952380Y-99273809D02*
X44952380Y-99273809D01*
X45095238Y-99178571D01*
X45190476Y-99083333D01*
X45238095Y-98988095D01*
X44952380Y-100416666D02*
X44952380Y-100226190D01*
X45000000Y-100130952D01*
X45047619Y-100083333D01*
X45190476Y-99988095D01*
X45380952Y-99940476D01*
X45761904Y-99940476D01*
X45857142Y-99988095D01*
X45904761Y-100035714D01*
X45952380Y-100130952D01*
X45952380Y-100321428D01*
X45904761Y-100416666D01*
X45857142Y-100464285D01*
X45761904Y-100511904D01*
X45523809Y-100511904D01*
X45428571Y-100464285D01*
X45380952Y-100416666D01*
X45333333Y-100321428D01*
X45333333Y-100130952D01*
X45380952Y-100035714D01*
X45428571Y-99988095D01*
X45523809Y-99940476D01*
G04 #@! TO.C,R19*
X45952380Y-93857142D02*
X45476190Y-93523809D01*
X45952380Y-93285714D02*
X44952380Y-93285714D01*
X44952380Y-93666666D01*
X45000000Y-93761904D01*
X45047619Y-93809523D01*
X45142857Y-93857142D01*
X45285714Y-93857142D01*
X45380952Y-93809523D01*
X45428571Y-93761904D01*
X45476190Y-93666666D01*
X45476190Y-93285714D01*
X45952380Y-94809523D02*
X45952380Y-94238095D01*
X45952380Y-94523809D02*
X44952380Y-94523809D01*
X45095238Y-94428571D01*
X45190476Y-94333333D01*
X45238095Y-94238095D01*
X45952380Y-95285714D02*
X45952380Y-95476190D01*
X45904761Y-95571428D01*
X45857142Y-95619047D01*
X45714285Y-95714285D01*
X45523809Y-95761904D01*
X45142857Y-95761904D01*
X45047619Y-95714285D01*
X45000000Y-95666666D01*
X44952380Y-95571428D01*
X44952380Y-95380952D01*
X45000000Y-95285714D01*
X45047619Y-95238095D01*
X45142857Y-95190476D01*
X45380952Y-95190476D01*
X45476190Y-95238095D01*
X45523809Y-95285714D01*
X45571428Y-95380952D01*
X45571428Y-95571428D01*
X45523809Y-95666666D01*
X45476190Y-95714285D01*
X45380952Y-95761904D01*
G04 #@! TO.C,R20*
X58422857Y-90202380D02*
X58756190Y-89726190D01*
X58994285Y-90202380D02*
X58994285Y-89202380D01*
X58613333Y-89202380D01*
X58518095Y-89250000D01*
X58470476Y-89297619D01*
X58422857Y-89392857D01*
X58422857Y-89535714D01*
X58470476Y-89630952D01*
X58518095Y-89678571D01*
X58613333Y-89726190D01*
X58994285Y-89726190D01*
X58041904Y-89297619D02*
X57994285Y-89250000D01*
X57899047Y-89202380D01*
X57660952Y-89202380D01*
X57565714Y-89250000D01*
X57518095Y-89297619D01*
X57470476Y-89392857D01*
X57470476Y-89488095D01*
X57518095Y-89630952D01*
X58089523Y-90202380D01*
X57470476Y-90202380D01*
X56851428Y-89202380D02*
X56756190Y-89202380D01*
X56660952Y-89250000D01*
X56613333Y-89297619D01*
X56565714Y-89392857D01*
X56518095Y-89583333D01*
X56518095Y-89821428D01*
X56565714Y-90011904D01*
X56613333Y-90107142D01*
X56660952Y-90154761D01*
X56756190Y-90202380D01*
X56851428Y-90202380D01*
X56946666Y-90154761D01*
X56994285Y-90107142D01*
X57041904Y-90011904D01*
X57089523Y-89821428D01*
X57089523Y-89583333D01*
X57041904Y-89392857D01*
X56994285Y-89297619D01*
X56946666Y-89250000D01*
X56851428Y-89202380D01*
G04 #@! TO.C,R22*
X45952380Y-84357142D02*
X45476190Y-84023809D01*
X45952380Y-83785714D02*
X44952380Y-83785714D01*
X44952380Y-84166666D01*
X45000000Y-84261904D01*
X45047619Y-84309523D01*
X45142857Y-84357142D01*
X45285714Y-84357142D01*
X45380952Y-84309523D01*
X45428571Y-84261904D01*
X45476190Y-84166666D01*
X45476190Y-83785714D01*
X45047619Y-84738095D02*
X45000000Y-84785714D01*
X44952380Y-84880952D01*
X44952380Y-85119047D01*
X45000000Y-85214285D01*
X45047619Y-85261904D01*
X45142857Y-85309523D01*
X45238095Y-85309523D01*
X45380952Y-85261904D01*
X45952380Y-84690476D01*
X45952380Y-85309523D01*
X45047619Y-85690476D02*
X45000000Y-85738095D01*
X44952380Y-85833333D01*
X44952380Y-86071428D01*
X45000000Y-86166666D01*
X45047619Y-86214285D01*
X45142857Y-86261904D01*
X45238095Y-86261904D01*
X45380952Y-86214285D01*
X45952380Y-85642857D01*
X45952380Y-86261904D01*
G04 #@! TO.C,R23*
X45952380Y-80607142D02*
X45476190Y-80273809D01*
X45952380Y-80035714D02*
X44952380Y-80035714D01*
X44952380Y-80416666D01*
X45000000Y-80511904D01*
X45047619Y-80559523D01*
X45142857Y-80607142D01*
X45285714Y-80607142D01*
X45380952Y-80559523D01*
X45428571Y-80511904D01*
X45476190Y-80416666D01*
X45476190Y-80035714D01*
X45047619Y-80988095D02*
X45000000Y-81035714D01*
X44952380Y-81130952D01*
X44952380Y-81369047D01*
X45000000Y-81464285D01*
X45047619Y-81511904D01*
X45142857Y-81559523D01*
X45238095Y-81559523D01*
X45380952Y-81511904D01*
X45952380Y-80940476D01*
X45952380Y-81559523D01*
X44952380Y-81892857D02*
X44952380Y-82511904D01*
X45333333Y-82178571D01*
X45333333Y-82321428D01*
X45380952Y-82416666D01*
X45428571Y-82464285D01*
X45523809Y-82511904D01*
X45761904Y-82511904D01*
X45857142Y-82464285D01*
X45904761Y-82416666D01*
X45952380Y-82321428D01*
X45952380Y-82035714D01*
X45904761Y-81940476D01*
X45857142Y-81892857D01*
G04 #@! TO.C,R24*
X59967857Y-102727380D02*
X60301190Y-102251190D01*
X60539285Y-102727380D02*
X60539285Y-101727380D01*
X60158333Y-101727380D01*
X60063095Y-101775000D01*
X60015476Y-101822619D01*
X59967857Y-101917857D01*
X59967857Y-102060714D01*
X60015476Y-102155952D01*
X60063095Y-102203571D01*
X60158333Y-102251190D01*
X60539285Y-102251190D01*
X59586904Y-101822619D02*
X59539285Y-101775000D01*
X59444047Y-101727380D01*
X59205952Y-101727380D01*
X59110714Y-101775000D01*
X59063095Y-101822619D01*
X59015476Y-101917857D01*
X59015476Y-102013095D01*
X59063095Y-102155952D01*
X59634523Y-102727380D01*
X59015476Y-102727380D01*
X58158333Y-102060714D02*
X58158333Y-102727380D01*
X58396428Y-101679761D02*
X58634523Y-102394047D01*
X58015476Y-102394047D01*
G04 #@! TO.C,R25*
X53942857Y-80022380D02*
X54276190Y-79546190D01*
X54514285Y-80022380D02*
X54514285Y-79022380D01*
X54133333Y-79022380D01*
X54038095Y-79070000D01*
X53990476Y-79117619D01*
X53942857Y-79212857D01*
X53942857Y-79355714D01*
X53990476Y-79450952D01*
X54038095Y-79498571D01*
X54133333Y-79546190D01*
X54514285Y-79546190D01*
X53561904Y-79117619D02*
X53514285Y-79070000D01*
X53419047Y-79022380D01*
X53180952Y-79022380D01*
X53085714Y-79070000D01*
X53038095Y-79117619D01*
X52990476Y-79212857D01*
X52990476Y-79308095D01*
X53038095Y-79450952D01*
X53609523Y-80022380D01*
X52990476Y-80022380D01*
X52085714Y-79022380D02*
X52561904Y-79022380D01*
X52609523Y-79498571D01*
X52561904Y-79450952D01*
X52466666Y-79403333D01*
X52228571Y-79403333D01*
X52133333Y-79450952D01*
X52085714Y-79498571D01*
X52038095Y-79593809D01*
X52038095Y-79831904D01*
X52085714Y-79927142D01*
X52133333Y-79974761D01*
X52228571Y-80022380D01*
X52466666Y-80022380D01*
X52561904Y-79974761D01*
X52609523Y-79927142D01*
G04 #@! TO.C,R26*
X60992857Y-104027380D02*
X61326190Y-103551190D01*
X61564285Y-104027380D02*
X61564285Y-103027380D01*
X61183333Y-103027380D01*
X61088095Y-103075000D01*
X61040476Y-103122619D01*
X60992857Y-103217857D01*
X60992857Y-103360714D01*
X61040476Y-103455952D01*
X61088095Y-103503571D01*
X61183333Y-103551190D01*
X61564285Y-103551190D01*
X60611904Y-103122619D02*
X60564285Y-103075000D01*
X60469047Y-103027380D01*
X60230952Y-103027380D01*
X60135714Y-103075000D01*
X60088095Y-103122619D01*
X60040476Y-103217857D01*
X60040476Y-103313095D01*
X60088095Y-103455952D01*
X60659523Y-104027380D01*
X60040476Y-104027380D01*
X59183333Y-103027380D02*
X59373809Y-103027380D01*
X59469047Y-103075000D01*
X59516666Y-103122619D01*
X59611904Y-103265476D01*
X59659523Y-103455952D01*
X59659523Y-103836904D01*
X59611904Y-103932142D01*
X59564285Y-103979761D01*
X59469047Y-104027380D01*
X59278571Y-104027380D01*
X59183333Y-103979761D01*
X59135714Y-103932142D01*
X59088095Y-103836904D01*
X59088095Y-103598809D01*
X59135714Y-103503571D01*
X59183333Y-103455952D01*
X59278571Y-103408333D01*
X59469047Y-103408333D01*
X59564285Y-103455952D01*
X59611904Y-103503571D01*
X59659523Y-103598809D01*
G04 #@! TO.C,R27*
X69392857Y-78032380D02*
X69726190Y-77556190D01*
X69964285Y-78032380D02*
X69964285Y-77032380D01*
X69583333Y-77032380D01*
X69488095Y-77080000D01*
X69440476Y-77127619D01*
X69392857Y-77222857D01*
X69392857Y-77365714D01*
X69440476Y-77460952D01*
X69488095Y-77508571D01*
X69583333Y-77556190D01*
X69964285Y-77556190D01*
X69011904Y-77127619D02*
X68964285Y-77080000D01*
X68869047Y-77032380D01*
X68630952Y-77032380D01*
X68535714Y-77080000D01*
X68488095Y-77127619D01*
X68440476Y-77222857D01*
X68440476Y-77318095D01*
X68488095Y-77460952D01*
X69059523Y-78032380D01*
X68440476Y-78032380D01*
X68107142Y-77032380D02*
X67440476Y-77032380D01*
X67869047Y-78032380D01*
G04 #@! TO.C,R29*
X55042857Y-106202380D02*
X55376190Y-105726190D01*
X55614285Y-106202380D02*
X55614285Y-105202380D01*
X55233333Y-105202380D01*
X55138095Y-105250000D01*
X55090476Y-105297619D01*
X55042857Y-105392857D01*
X55042857Y-105535714D01*
X55090476Y-105630952D01*
X55138095Y-105678571D01*
X55233333Y-105726190D01*
X55614285Y-105726190D01*
X54661904Y-105297619D02*
X54614285Y-105250000D01*
X54519047Y-105202380D01*
X54280952Y-105202380D01*
X54185714Y-105250000D01*
X54138095Y-105297619D01*
X54090476Y-105392857D01*
X54090476Y-105488095D01*
X54138095Y-105630952D01*
X54709523Y-106202380D01*
X54090476Y-106202380D01*
X53614285Y-106202380D02*
X53423809Y-106202380D01*
X53328571Y-106154761D01*
X53280952Y-106107142D01*
X53185714Y-105964285D01*
X53138095Y-105773809D01*
X53138095Y-105392857D01*
X53185714Y-105297619D01*
X53233333Y-105250000D01*
X53328571Y-105202380D01*
X53519047Y-105202380D01*
X53614285Y-105250000D01*
X53661904Y-105297619D01*
X53709523Y-105392857D01*
X53709523Y-105630952D01*
X53661904Y-105726190D01*
X53614285Y-105773809D01*
X53519047Y-105821428D01*
X53328571Y-105821428D01*
X53233333Y-105773809D01*
X53185714Y-105726190D01*
X53138095Y-105630952D01*
G04 #@! TO.C,R31*
X53142857Y-98622380D02*
X53476190Y-98146190D01*
X53714285Y-98622380D02*
X53714285Y-97622380D01*
X53333333Y-97622380D01*
X53238095Y-97670000D01*
X53190476Y-97717619D01*
X53142857Y-97812857D01*
X53142857Y-97955714D01*
X53190476Y-98050952D01*
X53238095Y-98098571D01*
X53333333Y-98146190D01*
X53714285Y-98146190D01*
X52809523Y-97622380D02*
X52190476Y-97622380D01*
X52523809Y-98003333D01*
X52380952Y-98003333D01*
X52285714Y-98050952D01*
X52238095Y-98098571D01*
X52190476Y-98193809D01*
X52190476Y-98431904D01*
X52238095Y-98527142D01*
X52285714Y-98574761D01*
X52380952Y-98622380D01*
X52666666Y-98622380D01*
X52761904Y-98574761D01*
X52809523Y-98527142D01*
X51238095Y-98622380D02*
X51809523Y-98622380D01*
X51523809Y-98622380D02*
X51523809Y-97622380D01*
X51619047Y-97765238D01*
X51714285Y-97860476D01*
X51809523Y-97908095D01*
G04 #@! TO.C,R32*
X53032380Y-92857142D02*
X52556190Y-92523809D01*
X53032380Y-92285714D02*
X52032380Y-92285714D01*
X52032380Y-92666666D01*
X52080000Y-92761904D01*
X52127619Y-92809523D01*
X52222857Y-92857142D01*
X52365714Y-92857142D01*
X52460952Y-92809523D01*
X52508571Y-92761904D01*
X52556190Y-92666666D01*
X52556190Y-92285714D01*
X52032380Y-93190476D02*
X52032380Y-93809523D01*
X52413333Y-93476190D01*
X52413333Y-93619047D01*
X52460952Y-93714285D01*
X52508571Y-93761904D01*
X52603809Y-93809523D01*
X52841904Y-93809523D01*
X52937142Y-93761904D01*
X52984761Y-93714285D01*
X53032380Y-93619047D01*
X53032380Y-93333333D01*
X52984761Y-93238095D01*
X52937142Y-93190476D01*
X52127619Y-94190476D02*
X52080000Y-94238095D01*
X52032380Y-94333333D01*
X52032380Y-94571428D01*
X52080000Y-94666666D01*
X52127619Y-94714285D01*
X52222857Y-94761904D01*
X52318095Y-94761904D01*
X52460952Y-94714285D01*
X53032380Y-94142857D01*
X53032380Y-94761904D01*
G04 #@! TO.C,SW3*
X82993333Y-82544761D02*
X82850476Y-82592380D01*
X82612380Y-82592380D01*
X82517142Y-82544761D01*
X82469523Y-82497142D01*
X82421904Y-82401904D01*
X82421904Y-82306666D01*
X82469523Y-82211428D01*
X82517142Y-82163809D01*
X82612380Y-82116190D01*
X82802857Y-82068571D01*
X82898095Y-82020952D01*
X82945714Y-81973333D01*
X82993333Y-81878095D01*
X82993333Y-81782857D01*
X82945714Y-81687619D01*
X82898095Y-81640000D01*
X82802857Y-81592380D01*
X82564761Y-81592380D01*
X82421904Y-81640000D01*
X82088571Y-81592380D02*
X81850476Y-82592380D01*
X81660000Y-81878095D01*
X81469523Y-82592380D01*
X81231428Y-81592380D01*
X80945714Y-81592380D02*
X80326666Y-81592380D01*
X80660000Y-81973333D01*
X80517142Y-81973333D01*
X80421904Y-82020952D01*
X80374285Y-82068571D01*
X80326666Y-82163809D01*
X80326666Y-82401904D01*
X80374285Y-82497142D01*
X80421904Y-82544761D01*
X80517142Y-82592380D01*
X80802857Y-82592380D01*
X80898095Y-82544761D01*
X80945714Y-82497142D01*
G04 #@! TO.C,U1*
X84561904Y-85052380D02*
X84561904Y-85861904D01*
X84514285Y-85957142D01*
X84466666Y-86004761D01*
X84371428Y-86052380D01*
X84180952Y-86052380D01*
X84085714Y-86004761D01*
X84038095Y-85957142D01*
X83990476Y-85861904D01*
X83990476Y-85052380D01*
X82990476Y-86052380D02*
X83561904Y-86052380D01*
X83276190Y-86052380D02*
X83276190Y-85052380D01*
X83371428Y-85195238D01*
X83466666Y-85290476D01*
X83561904Y-85338095D01*
G04 #@! TO.C,U3*
X92761904Y-84152380D02*
X92761904Y-84961904D01*
X92714285Y-85057142D01*
X92666666Y-85104761D01*
X92571428Y-85152380D01*
X92380952Y-85152380D01*
X92285714Y-85104761D01*
X92238095Y-85057142D01*
X92190476Y-84961904D01*
X92190476Y-84152380D01*
X91809523Y-84152380D02*
X91190476Y-84152380D01*
X91523809Y-84533333D01*
X91380952Y-84533333D01*
X91285714Y-84580952D01*
X91238095Y-84628571D01*
X91190476Y-84723809D01*
X91190476Y-84961904D01*
X91238095Y-85057142D01*
X91285714Y-85104761D01*
X91380952Y-85152380D01*
X91666666Y-85152380D01*
X91761904Y-85104761D01*
X91809523Y-85057142D01*
G04 #@! TO.C,U4*
X76861904Y-84552380D02*
X76861904Y-85361904D01*
X76814285Y-85457142D01*
X76766666Y-85504761D01*
X76671428Y-85552380D01*
X76480952Y-85552380D01*
X76385714Y-85504761D01*
X76338095Y-85457142D01*
X76290476Y-85361904D01*
X76290476Y-84552380D01*
X75385714Y-84885714D02*
X75385714Y-85552380D01*
X75623809Y-84504761D02*
X75861904Y-85219047D01*
X75242857Y-85219047D01*
G04 #@! TO.C,U5*
X69461904Y-92952380D02*
X69461904Y-93761904D01*
X69414285Y-93857142D01*
X69366666Y-93904761D01*
X69271428Y-93952380D01*
X69080952Y-93952380D01*
X68985714Y-93904761D01*
X68938095Y-93857142D01*
X68890476Y-93761904D01*
X68890476Y-92952380D01*
X67938095Y-92952380D02*
X68414285Y-92952380D01*
X68461904Y-93428571D01*
X68414285Y-93380952D01*
X68319047Y-93333333D01*
X68080952Y-93333333D01*
X67985714Y-93380952D01*
X67938095Y-93428571D01*
X67890476Y-93523809D01*
X67890476Y-93761904D01*
X67938095Y-93857142D01*
X67985714Y-93904761D01*
X68080952Y-93952380D01*
X68319047Y-93952380D01*
X68414285Y-93904761D01*
X68461904Y-93857142D01*
G04 #@! TO.C,U6*
X87761904Y-97952380D02*
X87761904Y-98761904D01*
X87714285Y-98857142D01*
X87666666Y-98904761D01*
X87571428Y-98952380D01*
X87380952Y-98952380D01*
X87285714Y-98904761D01*
X87238095Y-98857142D01*
X87190476Y-98761904D01*
X87190476Y-97952380D01*
X86285714Y-97952380D02*
X86476190Y-97952380D01*
X86571428Y-98000000D01*
X86619047Y-98047619D01*
X86714285Y-98190476D01*
X86761904Y-98380952D01*
X86761904Y-98761904D01*
X86714285Y-98857142D01*
X86666666Y-98904761D01*
X86571428Y-98952380D01*
X86380952Y-98952380D01*
X86285714Y-98904761D01*
X86238095Y-98857142D01*
X86190476Y-98761904D01*
X86190476Y-98523809D01*
X86238095Y-98428571D01*
X86285714Y-98380952D01*
X86380952Y-98333333D01*
X86571428Y-98333333D01*
X86666666Y-98380952D01*
X86714285Y-98428571D01*
X86761904Y-98523809D01*
G04 #@! TO.C,U7*
X78411904Y-107862380D02*
X78411904Y-108671904D01*
X78364285Y-108767142D01*
X78316666Y-108814761D01*
X78221428Y-108862380D01*
X78030952Y-108862380D01*
X77935714Y-108814761D01*
X77888095Y-108767142D01*
X77840476Y-108671904D01*
X77840476Y-107862380D01*
X77459523Y-107862380D02*
X76792857Y-107862380D01*
X77221428Y-108862380D01*
G04 #@! TD*
M02*
