G04 #@! TF.GenerationSoftware,KiCad,Pcbnew,(5.0.2)-1*
G04 #@! TF.CreationDate,2020-01-20T23:46:43+09:00*
G04 #@! TF.ProjectId,schematic,73636865-6d61-4746-9963-2e6b69636164,rev?*
G04 #@! TF.SameCoordinates,Original*
G04 #@! TF.FileFunction,Legend,Bot*
G04 #@! TF.FilePolarity,Positive*
%FSLAX46Y46*%
G04 Gerber Fmt 4.6, Leading zero omitted, Abs format (unit mm)*
G04 Created by KiCad (PCBNEW (5.0.2)-1) date 2020/01/20 23:46:43*
%MOMM*%
%LPD*%
G01*
G04 APERTURE LIST*
%ADD10C,0.100000*%
%ADD11C,0.150000*%
%ADD12C,0.120000*%
G04 APERTURE END LIST*
D10*
X31000000Y-70500000D02*
G75*
G03X31000000Y-70500000I-500000J0D01*
G01*
X35750000Y-34750000D02*
G75*
G03X35750000Y-34750000I-500000J0D01*
G01*
X28750000Y-34500000D02*
G75*
G03X28750000Y-34500000I-500000J0D01*
G01*
D11*
X64428571Y-70702380D02*
X64904761Y-70702380D01*
X64952380Y-71178571D01*
X64904761Y-71130952D01*
X64809523Y-71083333D01*
X64571428Y-71083333D01*
X64476190Y-71130952D01*
X64428571Y-71178571D01*
X64380952Y-71273809D01*
X64380952Y-71511904D01*
X64428571Y-71607142D01*
X64476190Y-71654761D01*
X64571428Y-71702380D01*
X64809523Y-71702380D01*
X64904761Y-71654761D01*
X64952380Y-71607142D01*
X62666666Y-71702380D02*
X63238095Y-71702380D01*
X62952380Y-71702380D02*
X62952380Y-70702380D01*
X63047619Y-70845238D01*
X63142857Y-70940476D01*
X63238095Y-70988095D01*
X62095238Y-71130952D02*
X62190476Y-71083333D01*
X62238095Y-71035714D01*
X62285714Y-70940476D01*
X62285714Y-70892857D01*
X62238095Y-70797619D01*
X62190476Y-70750000D01*
X62095238Y-70702380D01*
X61904761Y-70702380D01*
X61809523Y-70750000D01*
X61761904Y-70797619D01*
X61714285Y-70892857D01*
X61714285Y-70940476D01*
X61761904Y-71035714D01*
X61809523Y-71083333D01*
X61904761Y-71130952D01*
X62095238Y-71130952D01*
X62190476Y-71178571D01*
X62238095Y-71226190D01*
X62285714Y-71321428D01*
X62285714Y-71511904D01*
X62238095Y-71607142D01*
X62190476Y-71654761D01*
X62095238Y-71702380D01*
X61904761Y-71702380D01*
X61809523Y-71654761D01*
X61761904Y-71607142D01*
X61714285Y-71511904D01*
X61714285Y-71321428D01*
X61761904Y-71226190D01*
X61809523Y-71178571D01*
X61904761Y-71130952D01*
X60000000Y-71702380D02*
X60571428Y-71702380D01*
X60285714Y-71702380D02*
X60285714Y-70702380D01*
X60380952Y-70845238D01*
X60476190Y-70940476D01*
X60571428Y-70988095D01*
X59523809Y-71702380D02*
X59333333Y-71702380D01*
X59238095Y-71654761D01*
X59190476Y-71607142D01*
X59095238Y-71464285D01*
X59047619Y-71273809D01*
X59047619Y-70892857D01*
X59095238Y-70797619D01*
X59142857Y-70750000D01*
X59238095Y-70702380D01*
X59428571Y-70702380D01*
X59523809Y-70750000D01*
X59571428Y-70797619D01*
X59619047Y-70892857D01*
X59619047Y-71130952D01*
X59571428Y-71226190D01*
X59523809Y-71273809D01*
X59428571Y-71321428D01*
X59238095Y-71321428D01*
X59142857Y-71273809D01*
X59095238Y-71226190D01*
X59047619Y-71130952D01*
X69726190Y-68154761D02*
X69583333Y-68202380D01*
X69345238Y-68202380D01*
X69250000Y-68154761D01*
X69202380Y-68107142D01*
X69154761Y-68011904D01*
X69154761Y-67916666D01*
X69202380Y-67821428D01*
X69250000Y-67773809D01*
X69345238Y-67726190D01*
X69535714Y-67678571D01*
X69630952Y-67630952D01*
X69678571Y-67583333D01*
X69726190Y-67488095D01*
X69726190Y-67392857D01*
X69678571Y-67297619D01*
X69630952Y-67250000D01*
X69535714Y-67202380D01*
X69297619Y-67202380D01*
X69154761Y-67250000D01*
X68726190Y-68202380D02*
X68726190Y-67202380D01*
X68488095Y-67202380D01*
X68345238Y-67250000D01*
X68250000Y-67345238D01*
X68202380Y-67440476D01*
X68154761Y-67630952D01*
X68154761Y-67773809D01*
X68202380Y-67964285D01*
X68250000Y-68059523D01*
X68345238Y-68154761D01*
X68488095Y-68202380D01*
X68726190Y-68202380D01*
X67773809Y-67916666D02*
X67297619Y-67916666D01*
X67869047Y-68202380D02*
X67535714Y-67202380D01*
X67202380Y-68202380D01*
X66154761Y-68154761D02*
X66011904Y-68202380D01*
X65773809Y-68202380D01*
X65678571Y-68154761D01*
X65630952Y-68107142D01*
X65583333Y-68011904D01*
X65583333Y-67916666D01*
X65630952Y-67821428D01*
X65678571Y-67773809D01*
X65773809Y-67726190D01*
X65964285Y-67678571D01*
X66059523Y-67630952D01*
X66107142Y-67583333D01*
X66154761Y-67488095D01*
X66154761Y-67392857D01*
X66107142Y-67297619D01*
X66059523Y-67250000D01*
X65964285Y-67202380D01*
X65726190Y-67202380D01*
X65583333Y-67250000D01*
X64583333Y-68107142D02*
X64630952Y-68154761D01*
X64773809Y-68202380D01*
X64869047Y-68202380D01*
X65011904Y-68154761D01*
X65107142Y-68059523D01*
X65154761Y-67964285D01*
X65202380Y-67773809D01*
X65202380Y-67630952D01*
X65154761Y-67440476D01*
X65107142Y-67345238D01*
X65011904Y-67250000D01*
X64869047Y-67202380D01*
X64773809Y-67202380D01*
X64630952Y-67250000D01*
X64583333Y-67297619D01*
X63678571Y-68202380D02*
X64154761Y-68202380D01*
X64154761Y-67202380D01*
X62678571Y-67202380D02*
X62059523Y-67202380D01*
X62392857Y-67583333D01*
X62250000Y-67583333D01*
X62154761Y-67630952D01*
X62107142Y-67678571D01*
X62059523Y-67773809D01*
X62059523Y-68011904D01*
X62107142Y-68107142D01*
X62154761Y-68154761D01*
X62250000Y-68202380D01*
X62535714Y-68202380D01*
X62630952Y-68154761D01*
X62678571Y-68107142D01*
X61630952Y-68107142D02*
X61583333Y-68154761D01*
X61630952Y-68202380D01*
X61678571Y-68154761D01*
X61630952Y-68107142D01*
X61630952Y-68202380D01*
X61250000Y-67202380D02*
X60630952Y-67202380D01*
X60964285Y-67583333D01*
X60821428Y-67583333D01*
X60726190Y-67630952D01*
X60678571Y-67678571D01*
X60630952Y-67773809D01*
X60630952Y-68011904D01*
X60678571Y-68107142D01*
X60726190Y-68154761D01*
X60821428Y-68202380D01*
X61107142Y-68202380D01*
X61202380Y-68154761D01*
X61250000Y-68107142D01*
X60345238Y-67202380D02*
X60011904Y-68202380D01*
X59678571Y-67202380D01*
X58583333Y-67821428D02*
X57821428Y-67821428D01*
X57988095Y-32952380D02*
X57988095Y-31952380D01*
X57607142Y-31952380D01*
X57511904Y-32000000D01*
X57464285Y-32047619D01*
X57416666Y-32142857D01*
X57416666Y-32285714D01*
X57464285Y-32380952D01*
X57511904Y-32428571D01*
X57607142Y-32476190D01*
X57988095Y-32476190D01*
X56797619Y-31952380D02*
X56702380Y-31952380D01*
X56607142Y-32000000D01*
X56559523Y-32047619D01*
X56511904Y-32142857D01*
X56464285Y-32333333D01*
X56464285Y-32571428D01*
X56511904Y-32761904D01*
X56559523Y-32857142D01*
X56607142Y-32904761D01*
X56702380Y-32952380D01*
X56797619Y-32952380D01*
X56892857Y-32904761D01*
X56940476Y-32857142D01*
X56988095Y-32761904D01*
X57035714Y-32571428D01*
X57035714Y-32333333D01*
X56988095Y-32142857D01*
X56940476Y-32047619D01*
X56892857Y-32000000D01*
X56797619Y-31952380D01*
X57976190Y-30702380D02*
X57976190Y-29702380D01*
X57595238Y-29702380D01*
X57500000Y-29750000D01*
X57452380Y-29797619D01*
X57404761Y-29892857D01*
X57404761Y-30035714D01*
X57452380Y-30130952D01*
X57500000Y-30178571D01*
X57595238Y-30226190D01*
X57976190Y-30226190D01*
X56452380Y-30702380D02*
X57023809Y-30702380D01*
X56738095Y-30702380D02*
X56738095Y-29702380D01*
X56833333Y-29845238D01*
X56928571Y-29940476D01*
X57023809Y-29988095D01*
X56023809Y-30321428D02*
X55261904Y-30321428D01*
X55642857Y-30702380D02*
X55642857Y-29940476D01*
X54785714Y-30321428D02*
X54023809Y-30321428D01*
X66166666Y-63357142D02*
X66214285Y-63404761D01*
X66357142Y-63452380D01*
X66452380Y-63452380D01*
X66595238Y-63404761D01*
X66690476Y-63309523D01*
X66738095Y-63214285D01*
X66785714Y-63023809D01*
X66785714Y-62880952D01*
X66738095Y-62690476D01*
X66690476Y-62595238D01*
X66595238Y-62500000D01*
X66452380Y-62452380D01*
X66357142Y-62452380D01*
X66214285Y-62500000D01*
X66166666Y-62547619D01*
X65404761Y-62928571D02*
X65261904Y-62976190D01*
X65214285Y-63023809D01*
X65166666Y-63119047D01*
X65166666Y-63261904D01*
X65214285Y-63357142D01*
X65261904Y-63404761D01*
X65357142Y-63452380D01*
X65738095Y-63452380D01*
X65738095Y-62452380D01*
X65404761Y-62452380D01*
X65309523Y-62500000D01*
X65261904Y-62547619D01*
X65214285Y-62642857D01*
X65214285Y-62738095D01*
X65261904Y-62833333D01*
X65309523Y-62880952D01*
X65404761Y-62928571D01*
X65738095Y-62928571D01*
X64738095Y-62452380D02*
X64738095Y-63261904D01*
X64690476Y-63357142D01*
X64642857Y-63404761D01*
X64547619Y-63452380D01*
X64357142Y-63452380D01*
X64261904Y-63404761D01*
X64214285Y-63357142D01*
X64166666Y-63261904D01*
X64166666Y-62452380D01*
X63738095Y-63404761D02*
X63595238Y-63452380D01*
X63357142Y-63452380D01*
X63261904Y-63404761D01*
X63214285Y-63357142D01*
X63166666Y-63261904D01*
X63166666Y-63166666D01*
X63214285Y-63071428D01*
X63261904Y-63023809D01*
X63357142Y-62976190D01*
X63547619Y-62928571D01*
X63642857Y-62880952D01*
X63690476Y-62833333D01*
X63738095Y-62738095D01*
X63738095Y-62642857D01*
X63690476Y-62547619D01*
X63642857Y-62500000D01*
X63547619Y-62452380D01*
X63309523Y-62452380D01*
X63166666Y-62500000D01*
X62785714Y-62547619D02*
X62738095Y-62500000D01*
X62642857Y-62452380D01*
X62404761Y-62452380D01*
X62309523Y-62500000D01*
X62261904Y-62547619D01*
X62214285Y-62642857D01*
X62214285Y-62738095D01*
X62261904Y-62880952D01*
X62833333Y-63452380D01*
X62214285Y-63452380D01*
X60166666Y-60607142D02*
X60214285Y-60654761D01*
X60357142Y-60702380D01*
X60452380Y-60702380D01*
X60595238Y-60654761D01*
X60690476Y-60559523D01*
X60738095Y-60464285D01*
X60785714Y-60273809D01*
X60785714Y-60130952D01*
X60738095Y-59940476D01*
X60690476Y-59845238D01*
X60595238Y-59750000D01*
X60452380Y-59702380D01*
X60357142Y-59702380D01*
X60214285Y-59750000D01*
X60166666Y-59797619D01*
X59404761Y-60178571D02*
X59261904Y-60226190D01*
X59214285Y-60273809D01*
X59166666Y-60369047D01*
X59166666Y-60511904D01*
X59214285Y-60607142D01*
X59261904Y-60654761D01*
X59357142Y-60702380D01*
X59738095Y-60702380D01*
X59738095Y-59702380D01*
X59404761Y-59702380D01*
X59309523Y-59750000D01*
X59261904Y-59797619D01*
X59214285Y-59892857D01*
X59214285Y-59988095D01*
X59261904Y-60083333D01*
X59309523Y-60130952D01*
X59404761Y-60178571D01*
X59738095Y-60178571D01*
X58738095Y-59702380D02*
X58738095Y-60511904D01*
X58690476Y-60607142D01*
X58642857Y-60654761D01*
X58547619Y-60702380D01*
X58357142Y-60702380D01*
X58261904Y-60654761D01*
X58214285Y-60607142D01*
X58166666Y-60511904D01*
X58166666Y-59702380D01*
X57738095Y-60654761D02*
X57595238Y-60702380D01*
X57357142Y-60702380D01*
X57261904Y-60654761D01*
X57214285Y-60607142D01*
X57166666Y-60511904D01*
X57166666Y-60416666D01*
X57214285Y-60321428D01*
X57261904Y-60273809D01*
X57357142Y-60226190D01*
X57547619Y-60178571D01*
X57642857Y-60130952D01*
X57690476Y-60083333D01*
X57738095Y-59988095D01*
X57738095Y-59892857D01*
X57690476Y-59797619D01*
X57642857Y-59750000D01*
X57547619Y-59702380D01*
X57309523Y-59702380D01*
X57166666Y-59750000D01*
X56214285Y-60702380D02*
X56785714Y-60702380D01*
X56500000Y-60702380D02*
X56500000Y-59702380D01*
X56595238Y-59845238D01*
X56690476Y-59940476D01*
X56785714Y-59988095D01*
D10*
X62250000Y-60250000D02*
X62250000Y-60750000D01*
X62000000Y-60500000D02*
X62500000Y-60500000D01*
X66000000Y-34250000D02*
X66000000Y-35250000D01*
X65250000Y-34250000D02*
X66000000Y-34750000D01*
X65250000Y-35250000D02*
X66000000Y-34750000D01*
X65250000Y-34250000D02*
X65250000Y-35250000D01*
X41750000Y-28750000D02*
X41500000Y-28750000D01*
X42000000Y-29750000D02*
X41750000Y-29750000D01*
X41750000Y-28750000D02*
X41750000Y-29750000D01*
X41750000Y-29250000D02*
X42500000Y-28750000D01*
X42500000Y-29750000D02*
X41750000Y-29250000D01*
X42500000Y-28750000D02*
X42500000Y-29750000D01*
D12*
G04 #@! TO.C,C4*
X28401267Y-58590000D02*
X28058733Y-58590000D01*
X28401267Y-57570000D02*
X28058733Y-57570000D01*
G04 #@! TO.C,C5*
X27671267Y-47590000D02*
X27328733Y-47590000D01*
X27671267Y-46570000D02*
X27328733Y-46570000D01*
G04 #@! TO.C,C15*
X63171267Y-76200000D02*
X62828733Y-76200000D01*
X63171267Y-77220000D02*
X62828733Y-77220000D01*
G04 #@! TO.C,D2*
X39920000Y-32190000D02*
X39920000Y-30190000D01*
X39920000Y-30190000D02*
X43770000Y-30190000D01*
X39920000Y-32190000D02*
X43770000Y-32190000D01*
G04 #@! TO.C,D4*
X62435000Y-34115000D02*
X64895000Y-34115000D01*
X64895000Y-34115000D02*
X64895000Y-35585000D01*
X64895000Y-35585000D02*
X62435000Y-35585000D01*
D11*
G04 #@! TO.C,D5*
X60760000Y-61340000D02*
X60760000Y-62340000D01*
X61960000Y-61340000D02*
X61960000Y-62340000D01*
X61760000Y-61840000D02*
X61660000Y-61840000D01*
D12*
G04 #@! TO.C,J1*
X73570000Y-34555000D02*
X73570000Y-35305000D01*
X73570000Y-35305000D02*
X74170000Y-35305000D01*
X73270000Y-35305000D02*
X71120000Y-35305000D01*
X79420000Y-35305000D02*
X79420000Y-31755000D01*
X71120000Y-31755000D02*
X74020000Y-31755000D01*
X71120000Y-35305000D02*
X71120000Y-31755000D01*
X79420000Y-31755000D02*
X76520000Y-31755000D01*
X77270000Y-35305000D02*
X79420000Y-35305000D01*
G04 #@! TO.C,J2*
X66080000Y-33910000D02*
X66080000Y-31310000D01*
X66080000Y-33910000D02*
X58340000Y-33910000D01*
X58340000Y-33910000D02*
X58340000Y-28710000D01*
X63480000Y-28710000D02*
X58340000Y-28710000D01*
X63480000Y-31310000D02*
X63480000Y-28710000D01*
X66080000Y-31310000D02*
X63480000Y-31310000D01*
X66080000Y-28710000D02*
X64750000Y-28710000D01*
X66080000Y-30040000D02*
X66080000Y-28710000D01*
G04 #@! TO.C,J3*
X63410000Y-71050000D02*
X63410000Y-68390000D01*
X63410000Y-71050000D02*
X58270000Y-71050000D01*
X58270000Y-71050000D02*
X58270000Y-68390000D01*
X63410000Y-68390000D02*
X58270000Y-68390000D01*
X66010000Y-68390000D02*
X64680000Y-68390000D01*
X66010000Y-69720000D02*
X66010000Y-68390000D01*
G04 #@! TO.C,J4*
X71290000Y-67160000D02*
X71290000Y-69820000D01*
X71290000Y-67160000D02*
X78970000Y-67160000D01*
X78970000Y-67160000D02*
X78970000Y-69820000D01*
X71290000Y-69820000D02*
X78970000Y-69820000D01*
X68690000Y-69820000D02*
X70020000Y-69820000D01*
X68690000Y-68490000D02*
X68690000Y-69820000D01*
G04 #@! TO.C,J6*
X60070000Y-75630000D02*
X60070000Y-72970000D01*
X70290000Y-75630000D02*
X60070000Y-75630000D01*
X70290000Y-72970000D02*
X60070000Y-72970000D01*
X70290000Y-75630000D02*
X70290000Y-72970000D01*
X71560000Y-75630000D02*
X72890000Y-75630000D01*
X72890000Y-75630000D02*
X72890000Y-74300000D01*
G04 #@! TO.C,J7*
X58040000Y-67130000D02*
X58040000Y-64470000D01*
X65720000Y-67130000D02*
X58040000Y-67130000D01*
X65720000Y-64470000D02*
X58040000Y-64470000D01*
X65720000Y-67130000D02*
X65720000Y-64470000D01*
X66990000Y-67130000D02*
X68320000Y-67130000D01*
X68320000Y-67130000D02*
X68320000Y-65800000D01*
G04 #@! TO.C,J8*
X76720000Y-31120000D02*
X76720000Y-28460000D01*
X76720000Y-31120000D02*
X66500000Y-31120000D01*
X66500000Y-31120000D02*
X66500000Y-28460000D01*
X76720000Y-28460000D02*
X66500000Y-28460000D01*
X79320000Y-28460000D02*
X77990000Y-28460000D01*
X79320000Y-29790000D02*
X79320000Y-28460000D01*
D11*
G04 #@! TO.C,L1*
X34100000Y-53500000D02*
X37100000Y-53500000D01*
X37100000Y-56700000D02*
X37100000Y-53500000D01*
X37100000Y-56700000D02*
X34100000Y-56700000D01*
X34100000Y-53500000D02*
X34100000Y-56700000D01*
G04 #@! TO.C,L2*
X34200000Y-42800000D02*
X34200000Y-46000000D01*
X37200000Y-46000000D02*
X34200000Y-46000000D01*
X37200000Y-46000000D02*
X37200000Y-42800000D01*
X34200000Y-42800000D02*
X37200000Y-42800000D01*
D12*
G04 #@! TO.C,Q3*
X37160000Y-31710000D02*
X37160000Y-30780000D01*
X37160000Y-28550000D02*
X37160000Y-29480000D01*
X37160000Y-28550000D02*
X39320000Y-28550000D01*
X37160000Y-31710000D02*
X38620000Y-31710000D01*
G04 #@! TO.C,Q4*
X66930000Y-78300000D02*
X68090000Y-78300000D01*
X66930000Y-76380000D02*
X68340000Y-76380000D01*
X66930000Y-76380000D02*
X66930000Y-76690000D01*
X66930000Y-78300000D02*
X66930000Y-77990000D01*
G04 #@! TO.C,R7*
X35772064Y-36040000D02*
X34567936Y-36040000D01*
X35772064Y-37860000D02*
X34567936Y-37860000D01*
G04 #@! TO.C,SW1*
X64140000Y-39100000D02*
X59740000Y-39100000D01*
X59740000Y-39100000D02*
X59740000Y-38980000D01*
X59740000Y-37970000D02*
X59740000Y-36830000D01*
X59740000Y-35820000D02*
X59740000Y-35700000D01*
X59740000Y-35700000D02*
X64140000Y-35700000D01*
X64140000Y-35700000D02*
X64140000Y-35820000D01*
X64140000Y-36830000D02*
X64140000Y-37970000D01*
X64140000Y-38980000D02*
X64140000Y-39100000D01*
G04 #@! TO.C,SW2*
X73500000Y-61450000D02*
X73500000Y-61330000D01*
X73500000Y-63600000D02*
X73500000Y-62460000D01*
X73500000Y-64730000D02*
X73500000Y-64610000D01*
X77900000Y-64730000D02*
X73500000Y-64730000D01*
X77900000Y-64610000D02*
X77900000Y-64730000D01*
X77900000Y-62460000D02*
X77900000Y-63600000D01*
X77900000Y-61330000D02*
X77900000Y-61450000D01*
X73500000Y-61330000D02*
X77900000Y-61330000D01*
G04 #@! TO.C,U3*
X37130000Y-32210000D02*
X38930000Y-32210000D01*
X38930000Y-35430000D02*
X36480000Y-35430000D01*
G04 #@! TO.C,U6*
X32350000Y-35140000D02*
X32350000Y-36940000D01*
X29130000Y-36940000D02*
X29130000Y-33990000D01*
G04 #@! TO.C,Q8*
X42930000Y-69890000D02*
X42930000Y-68430000D01*
X39770000Y-69890000D02*
X39770000Y-67730000D01*
X39770000Y-69890000D02*
X40700000Y-69890000D01*
X42930000Y-69890000D02*
X42000000Y-69890000D01*
D11*
G04 #@! TO.C,IC1*
X33105000Y-70725000D02*
X33105000Y-70575000D01*
X36355000Y-70725000D02*
X36355000Y-70477500D01*
X36355000Y-67475000D02*
X36355000Y-67722500D01*
X33105000Y-67475000D02*
X33105000Y-67722500D01*
X33105000Y-70725000D02*
X36355000Y-70725000D01*
X33105000Y-67475000D02*
X36355000Y-67475000D01*
X33105000Y-70575000D02*
X32180000Y-70575000D01*
D12*
G04 #@! TO.C,J5*
X68775000Y-38740000D02*
X68775000Y-37937530D01*
X68775000Y-37322470D02*
X68775000Y-36520000D01*
X73790000Y-38740000D02*
X68775000Y-38740000D01*
X73790000Y-36520000D02*
X68775000Y-36520000D01*
X73790000Y-38740000D02*
X73790000Y-38193471D01*
X73790000Y-37066529D02*
X73790000Y-36520000D01*
X74550000Y-38740000D02*
X75310000Y-38740000D01*
X75310000Y-38740000D02*
X75310000Y-37630000D01*
G04 #@! TO.C,U7*
X78900000Y-40880000D02*
X79680000Y-40880000D01*
X79680000Y-40880000D02*
X79680000Y-41880000D01*
X78900000Y-59120000D02*
X79680000Y-59120000D01*
X79680000Y-59120000D02*
X79680000Y-58120000D01*
X53935000Y-40880000D02*
X53935000Y-59120000D01*
X53935000Y-59120000D02*
X60355000Y-59120000D01*
X53935000Y-40880000D02*
X60355000Y-40880000D01*
X60355000Y-40880000D02*
X60355000Y-40500000D01*
G04 #@! TO.C,C4*
D11*
X28426666Y-59967142D02*
X28474285Y-60014761D01*
X28617142Y-60062380D01*
X28712380Y-60062380D01*
X28855238Y-60014761D01*
X28950476Y-59919523D01*
X28998095Y-59824285D01*
X29045714Y-59633809D01*
X29045714Y-59490952D01*
X28998095Y-59300476D01*
X28950476Y-59205238D01*
X28855238Y-59110000D01*
X28712380Y-59062380D01*
X28617142Y-59062380D01*
X28474285Y-59110000D01*
X28426666Y-59157619D01*
X27569523Y-59395714D02*
X27569523Y-60062380D01*
X27807619Y-59014761D02*
X28045714Y-59729047D01*
X27426666Y-59729047D01*
G04 #@! TO.C,C5*
X27666666Y-48857142D02*
X27714285Y-48904761D01*
X27857142Y-48952380D01*
X27952380Y-48952380D01*
X28095238Y-48904761D01*
X28190476Y-48809523D01*
X28238095Y-48714285D01*
X28285714Y-48523809D01*
X28285714Y-48380952D01*
X28238095Y-48190476D01*
X28190476Y-48095238D01*
X28095238Y-48000000D01*
X27952380Y-47952380D01*
X27857142Y-47952380D01*
X27714285Y-48000000D01*
X27666666Y-48047619D01*
X26761904Y-47952380D02*
X27238095Y-47952380D01*
X27285714Y-48428571D01*
X27238095Y-48380952D01*
X27142857Y-48333333D01*
X26904761Y-48333333D01*
X26809523Y-48380952D01*
X26761904Y-48428571D01*
X26714285Y-48523809D01*
X26714285Y-48761904D01*
X26761904Y-48857142D01*
X26809523Y-48904761D01*
X26904761Y-48952380D01*
X27142857Y-48952380D01*
X27238095Y-48904761D01*
X27285714Y-48857142D01*
G04 #@! TO.C,C6*
X30316666Y-30317142D02*
X30364285Y-30364761D01*
X30507142Y-30412380D01*
X30602380Y-30412380D01*
X30745238Y-30364761D01*
X30840476Y-30269523D01*
X30888095Y-30174285D01*
X30935714Y-29983809D01*
X30935714Y-29840952D01*
X30888095Y-29650476D01*
X30840476Y-29555238D01*
X30745238Y-29460000D01*
X30602380Y-29412380D01*
X30507142Y-29412380D01*
X30364285Y-29460000D01*
X30316666Y-29507619D01*
X29459523Y-29412380D02*
X29650000Y-29412380D01*
X29745238Y-29460000D01*
X29792857Y-29507619D01*
X29888095Y-29650476D01*
X29935714Y-29840952D01*
X29935714Y-30221904D01*
X29888095Y-30317142D01*
X29840476Y-30364761D01*
X29745238Y-30412380D01*
X29554761Y-30412380D01*
X29459523Y-30364761D01*
X29411904Y-30317142D01*
X29364285Y-30221904D01*
X29364285Y-29983809D01*
X29411904Y-29888571D01*
X29459523Y-29840952D01*
X29554761Y-29793333D01*
X29745238Y-29793333D01*
X29840476Y-29840952D01*
X29888095Y-29888571D01*
X29935714Y-29983809D01*
G04 #@! TO.C,C15*
X65622857Y-78407142D02*
X65670476Y-78454761D01*
X65813333Y-78502380D01*
X65908571Y-78502380D01*
X66051428Y-78454761D01*
X66146666Y-78359523D01*
X66194285Y-78264285D01*
X66241904Y-78073809D01*
X66241904Y-77930952D01*
X66194285Y-77740476D01*
X66146666Y-77645238D01*
X66051428Y-77550000D01*
X65908571Y-77502380D01*
X65813333Y-77502380D01*
X65670476Y-77550000D01*
X65622857Y-77597619D01*
X64670476Y-78502380D02*
X65241904Y-78502380D01*
X64956190Y-78502380D02*
X64956190Y-77502380D01*
X65051428Y-77645238D01*
X65146666Y-77740476D01*
X65241904Y-77788095D01*
X63765714Y-77502380D02*
X64241904Y-77502380D01*
X64289523Y-77978571D01*
X64241904Y-77930952D01*
X64146666Y-77883333D01*
X63908571Y-77883333D01*
X63813333Y-77930952D01*
X63765714Y-77978571D01*
X63718095Y-78073809D01*
X63718095Y-78311904D01*
X63765714Y-78407142D01*
X63813333Y-78454761D01*
X63908571Y-78502380D01*
X64146666Y-78502380D01*
X64241904Y-78454761D01*
X64289523Y-78407142D01*
G04 #@! TO.C,D2*
X42731095Y-33547380D02*
X42731095Y-32547380D01*
X42493000Y-32547380D01*
X42350142Y-32595000D01*
X42254904Y-32690238D01*
X42207285Y-32785476D01*
X42159666Y-32975952D01*
X42159666Y-33118809D01*
X42207285Y-33309285D01*
X42254904Y-33404523D01*
X42350142Y-33499761D01*
X42493000Y-33547380D01*
X42731095Y-33547380D01*
X41778714Y-32642619D02*
X41731095Y-32595000D01*
X41635857Y-32547380D01*
X41397761Y-32547380D01*
X41302523Y-32595000D01*
X41254904Y-32642619D01*
X41207285Y-32737857D01*
X41207285Y-32833095D01*
X41254904Y-32975952D01*
X41826333Y-33547380D01*
X41207285Y-33547380D01*
G04 #@! TO.C,D4*
X61338095Y-35352380D02*
X61338095Y-34352380D01*
X61100000Y-34352380D01*
X60957142Y-34400000D01*
X60861904Y-34495238D01*
X60814285Y-34590476D01*
X60766666Y-34780952D01*
X60766666Y-34923809D01*
X60814285Y-35114285D01*
X60861904Y-35209523D01*
X60957142Y-35304761D01*
X61100000Y-35352380D01*
X61338095Y-35352380D01*
X59909523Y-34685714D02*
X59909523Y-35352380D01*
X60147619Y-34304761D02*
X60385714Y-35019047D01*
X59766666Y-35019047D01*
G04 #@! TO.C,D5*
X60228095Y-62382380D02*
X60228095Y-61382380D01*
X59990000Y-61382380D01*
X59847142Y-61430000D01*
X59751904Y-61525238D01*
X59704285Y-61620476D01*
X59656666Y-61810952D01*
X59656666Y-61953809D01*
X59704285Y-62144285D01*
X59751904Y-62239523D01*
X59847142Y-62334761D01*
X59990000Y-62382380D01*
X60228095Y-62382380D01*
X58751904Y-61382380D02*
X59228095Y-61382380D01*
X59275714Y-61858571D01*
X59228095Y-61810952D01*
X59132857Y-61763333D01*
X58894761Y-61763333D01*
X58799523Y-61810952D01*
X58751904Y-61858571D01*
X58704285Y-61953809D01*
X58704285Y-62191904D01*
X58751904Y-62287142D01*
X58799523Y-62334761D01*
X58894761Y-62382380D01*
X59132857Y-62382380D01*
X59228095Y-62334761D01*
X59275714Y-62287142D01*
G04 #@! TO.C,J1*
X78483333Y-32262380D02*
X78483333Y-32976666D01*
X78530952Y-33119523D01*
X78626190Y-33214761D01*
X78769047Y-33262380D01*
X78864285Y-33262380D01*
X77483333Y-33262380D02*
X78054761Y-33262380D01*
X77769047Y-33262380D02*
X77769047Y-32262380D01*
X77864285Y-32405238D01*
X77959523Y-32500476D01*
X78054761Y-32548095D01*
G04 #@! TO.C,J2*
X67523333Y-32922380D02*
X67523333Y-33636666D01*
X67570952Y-33779523D01*
X67666190Y-33874761D01*
X67809047Y-33922380D01*
X67904285Y-33922380D01*
X67094761Y-33017619D02*
X67047142Y-32970000D01*
X66951904Y-32922380D01*
X66713809Y-32922380D01*
X66618571Y-32970000D01*
X66570952Y-33017619D01*
X66523333Y-33112857D01*
X66523333Y-33208095D01*
X66570952Y-33350952D01*
X67142380Y-33922380D01*
X66523333Y-33922380D01*
G04 #@! TO.C,J3*
X57583333Y-69202380D02*
X57583333Y-69916666D01*
X57630952Y-70059523D01*
X57726190Y-70154761D01*
X57869047Y-70202380D01*
X57964285Y-70202380D01*
X57202380Y-69202380D02*
X56583333Y-69202380D01*
X56916666Y-69583333D01*
X56773809Y-69583333D01*
X56678571Y-69630952D01*
X56630952Y-69678571D01*
X56583333Y-69773809D01*
X56583333Y-70011904D01*
X56630952Y-70107142D01*
X56678571Y-70154761D01*
X56773809Y-70202380D01*
X57059523Y-70202380D01*
X57154761Y-70154761D01*
X57202380Y-70107142D01*
G04 #@! TO.C,J4*
X74263333Y-70012380D02*
X74263333Y-70726666D01*
X74310952Y-70869523D01*
X74406190Y-70964761D01*
X74549047Y-71012380D01*
X74644285Y-71012380D01*
X73358571Y-70345714D02*
X73358571Y-71012380D01*
X73596666Y-69964761D02*
X73834761Y-70679047D01*
X73215714Y-70679047D01*
G04 #@! TO.C,J6*
X59473333Y-73042380D02*
X59473333Y-73756666D01*
X59520952Y-73899523D01*
X59616190Y-73994761D01*
X59759047Y-74042380D01*
X59854285Y-74042380D01*
X58568571Y-73042380D02*
X58759047Y-73042380D01*
X58854285Y-73090000D01*
X58901904Y-73137619D01*
X58997142Y-73280476D01*
X59044761Y-73470952D01*
X59044761Y-73851904D01*
X58997142Y-73947142D01*
X58949523Y-73994761D01*
X58854285Y-74042380D01*
X58663809Y-74042380D01*
X58568571Y-73994761D01*
X58520952Y-73947142D01*
X58473333Y-73851904D01*
X58473333Y-73613809D01*
X58520952Y-73518571D01*
X58568571Y-73470952D01*
X58663809Y-73423333D01*
X58854285Y-73423333D01*
X58949523Y-73470952D01*
X58997142Y-73518571D01*
X59044761Y-73613809D01*
G04 #@! TO.C,J7*
X57333333Y-65452380D02*
X57333333Y-66166666D01*
X57380952Y-66309523D01*
X57476190Y-66404761D01*
X57619047Y-66452380D01*
X57714285Y-66452380D01*
X56952380Y-65452380D02*
X56285714Y-65452380D01*
X56714285Y-66452380D01*
G04 #@! TO.C,J8*
X68083333Y-31382380D02*
X68083333Y-32096666D01*
X68130952Y-32239523D01*
X68226190Y-32334761D01*
X68369047Y-32382380D01*
X68464285Y-32382380D01*
X67464285Y-31810952D02*
X67559523Y-31763333D01*
X67607142Y-31715714D01*
X67654761Y-31620476D01*
X67654761Y-31572857D01*
X67607142Y-31477619D01*
X67559523Y-31430000D01*
X67464285Y-31382380D01*
X67273809Y-31382380D01*
X67178571Y-31430000D01*
X67130952Y-31477619D01*
X67083333Y-31572857D01*
X67083333Y-31620476D01*
X67130952Y-31715714D01*
X67178571Y-31763333D01*
X67273809Y-31810952D01*
X67464285Y-31810952D01*
X67559523Y-31858571D01*
X67607142Y-31906190D01*
X67654761Y-32001428D01*
X67654761Y-32191904D01*
X67607142Y-32287142D01*
X67559523Y-32334761D01*
X67464285Y-32382380D01*
X67273809Y-32382380D01*
X67178571Y-32334761D01*
X67130952Y-32287142D01*
X67083333Y-32191904D01*
X67083333Y-32001428D01*
X67130952Y-31906190D01*
X67178571Y-31858571D01*
X67273809Y-31810952D01*
G04 #@! TO.C,L1*
X35746666Y-59122380D02*
X36222857Y-59122380D01*
X36222857Y-58122380D01*
X34889523Y-59122380D02*
X35460952Y-59122380D01*
X35175238Y-59122380D02*
X35175238Y-58122380D01*
X35270476Y-58265238D01*
X35365714Y-58360476D01*
X35460952Y-58408095D01*
G04 #@! TO.C,L2*
X35906666Y-48542380D02*
X36382857Y-48542380D01*
X36382857Y-47542380D01*
X35620952Y-47637619D02*
X35573333Y-47590000D01*
X35478095Y-47542380D01*
X35240000Y-47542380D01*
X35144761Y-47590000D01*
X35097142Y-47637619D01*
X35049523Y-47732857D01*
X35049523Y-47828095D01*
X35097142Y-47970952D01*
X35668571Y-48542380D01*
X35049523Y-48542380D01*
G04 #@! TO.C,Q3*
X35265238Y-30907619D02*
X35360476Y-30860000D01*
X35455714Y-30764761D01*
X35598571Y-30621904D01*
X35693809Y-30574285D01*
X35789047Y-30574285D01*
X35741428Y-30812380D02*
X35836666Y-30764761D01*
X35931904Y-30669523D01*
X35979523Y-30479047D01*
X35979523Y-30145714D01*
X35931904Y-29955238D01*
X35836666Y-29860000D01*
X35741428Y-29812380D01*
X35550952Y-29812380D01*
X35455714Y-29860000D01*
X35360476Y-29955238D01*
X35312857Y-30145714D01*
X35312857Y-30479047D01*
X35360476Y-30669523D01*
X35455714Y-30764761D01*
X35550952Y-30812380D01*
X35741428Y-30812380D01*
X34979523Y-29812380D02*
X34360476Y-29812380D01*
X34693809Y-30193333D01*
X34550952Y-30193333D01*
X34455714Y-30240952D01*
X34408095Y-30288571D01*
X34360476Y-30383809D01*
X34360476Y-30621904D01*
X34408095Y-30717142D01*
X34455714Y-30764761D01*
X34550952Y-30812380D01*
X34836666Y-30812380D01*
X34931904Y-30764761D01*
X34979523Y-30717142D01*
G04 #@! TO.C,Q4*
X69225238Y-79537619D02*
X69320476Y-79490000D01*
X69415714Y-79394761D01*
X69558571Y-79251904D01*
X69653809Y-79204285D01*
X69749047Y-79204285D01*
X69701428Y-79442380D02*
X69796666Y-79394761D01*
X69891904Y-79299523D01*
X69939523Y-79109047D01*
X69939523Y-78775714D01*
X69891904Y-78585238D01*
X69796666Y-78490000D01*
X69701428Y-78442380D01*
X69510952Y-78442380D01*
X69415714Y-78490000D01*
X69320476Y-78585238D01*
X69272857Y-78775714D01*
X69272857Y-79109047D01*
X69320476Y-79299523D01*
X69415714Y-79394761D01*
X69510952Y-79442380D01*
X69701428Y-79442380D01*
X68415714Y-78775714D02*
X68415714Y-79442380D01*
X68653809Y-78394761D02*
X68891904Y-79109047D01*
X68272857Y-79109047D01*
G04 #@! TO.C,R2*
X29956666Y-32552380D02*
X30290000Y-32076190D01*
X30528095Y-32552380D02*
X30528095Y-31552380D01*
X30147142Y-31552380D01*
X30051904Y-31600000D01*
X30004285Y-31647619D01*
X29956666Y-31742857D01*
X29956666Y-31885714D01*
X30004285Y-31980952D01*
X30051904Y-32028571D01*
X30147142Y-32076190D01*
X30528095Y-32076190D01*
X29575714Y-31647619D02*
X29528095Y-31600000D01*
X29432857Y-31552380D01*
X29194761Y-31552380D01*
X29099523Y-31600000D01*
X29051904Y-31647619D01*
X29004285Y-31742857D01*
X29004285Y-31838095D01*
X29051904Y-31980952D01*
X29623333Y-32552380D01*
X29004285Y-32552380D01*
G04 #@! TO.C,R7*
X38896666Y-38132380D02*
X39230000Y-37656190D01*
X39468095Y-38132380D02*
X39468095Y-37132380D01*
X39087142Y-37132380D01*
X38991904Y-37180000D01*
X38944285Y-37227619D01*
X38896666Y-37322857D01*
X38896666Y-37465714D01*
X38944285Y-37560952D01*
X38991904Y-37608571D01*
X39087142Y-37656190D01*
X39468095Y-37656190D01*
X38563333Y-37132380D02*
X37896666Y-37132380D01*
X38325238Y-38132380D01*
G04 #@! TO.C,R12*
X62962857Y-79312380D02*
X63296190Y-78836190D01*
X63534285Y-79312380D02*
X63534285Y-78312380D01*
X63153333Y-78312380D01*
X63058095Y-78360000D01*
X63010476Y-78407619D01*
X62962857Y-78502857D01*
X62962857Y-78645714D01*
X63010476Y-78740952D01*
X63058095Y-78788571D01*
X63153333Y-78836190D01*
X63534285Y-78836190D01*
X62010476Y-79312380D02*
X62581904Y-79312380D01*
X62296190Y-79312380D02*
X62296190Y-78312380D01*
X62391428Y-78455238D01*
X62486666Y-78550476D01*
X62581904Y-78598095D01*
X61629523Y-78407619D02*
X61581904Y-78360000D01*
X61486666Y-78312380D01*
X61248571Y-78312380D01*
X61153333Y-78360000D01*
X61105714Y-78407619D01*
X61058095Y-78502857D01*
X61058095Y-78598095D01*
X61105714Y-78740952D01*
X61677142Y-79312380D01*
X61058095Y-79312380D01*
G04 #@! TO.C,R17*
X73002857Y-78602380D02*
X73336190Y-78126190D01*
X73574285Y-78602380D02*
X73574285Y-77602380D01*
X73193333Y-77602380D01*
X73098095Y-77650000D01*
X73050476Y-77697619D01*
X73002857Y-77792857D01*
X73002857Y-77935714D01*
X73050476Y-78030952D01*
X73098095Y-78078571D01*
X73193333Y-78126190D01*
X73574285Y-78126190D01*
X72050476Y-78602380D02*
X72621904Y-78602380D01*
X72336190Y-78602380D02*
X72336190Y-77602380D01*
X72431428Y-77745238D01*
X72526666Y-77840476D01*
X72621904Y-77888095D01*
X71717142Y-77602380D02*
X71050476Y-77602380D01*
X71479047Y-78602380D01*
G04 #@! TO.C,R18*
X68372857Y-36322380D02*
X68706190Y-35846190D01*
X68944285Y-36322380D02*
X68944285Y-35322380D01*
X68563333Y-35322380D01*
X68468095Y-35370000D01*
X68420476Y-35417619D01*
X68372857Y-35512857D01*
X68372857Y-35655714D01*
X68420476Y-35750952D01*
X68468095Y-35798571D01*
X68563333Y-35846190D01*
X68944285Y-35846190D01*
X67420476Y-36322380D02*
X67991904Y-36322380D01*
X67706190Y-36322380D02*
X67706190Y-35322380D01*
X67801428Y-35465238D01*
X67896666Y-35560476D01*
X67991904Y-35608095D01*
X66849047Y-35750952D02*
X66944285Y-35703333D01*
X66991904Y-35655714D01*
X67039523Y-35560476D01*
X67039523Y-35512857D01*
X66991904Y-35417619D01*
X66944285Y-35370000D01*
X66849047Y-35322380D01*
X66658571Y-35322380D01*
X66563333Y-35370000D01*
X66515714Y-35417619D01*
X66468095Y-35512857D01*
X66468095Y-35560476D01*
X66515714Y-35655714D01*
X66563333Y-35703333D01*
X66658571Y-35750952D01*
X66849047Y-35750952D01*
X66944285Y-35798571D01*
X66991904Y-35846190D01*
X67039523Y-35941428D01*
X67039523Y-36131904D01*
X66991904Y-36227142D01*
X66944285Y-36274761D01*
X66849047Y-36322380D01*
X66658571Y-36322380D01*
X66563333Y-36274761D01*
X66515714Y-36227142D01*
X66468095Y-36131904D01*
X66468095Y-35941428D01*
X66515714Y-35846190D01*
X66563333Y-35798571D01*
X66658571Y-35750952D01*
G04 #@! TO.C,R19*
X75152857Y-75582380D02*
X75486190Y-75106190D01*
X75724285Y-75582380D02*
X75724285Y-74582380D01*
X75343333Y-74582380D01*
X75248095Y-74630000D01*
X75200476Y-74677619D01*
X75152857Y-74772857D01*
X75152857Y-74915714D01*
X75200476Y-75010952D01*
X75248095Y-75058571D01*
X75343333Y-75106190D01*
X75724285Y-75106190D01*
X74200476Y-75582380D02*
X74771904Y-75582380D01*
X74486190Y-75582380D02*
X74486190Y-74582380D01*
X74581428Y-74725238D01*
X74676666Y-74820476D01*
X74771904Y-74868095D01*
X73724285Y-75582380D02*
X73533809Y-75582380D01*
X73438571Y-75534761D01*
X73390952Y-75487142D01*
X73295714Y-75344285D01*
X73248095Y-75153809D01*
X73248095Y-74772857D01*
X73295714Y-74677619D01*
X73343333Y-74630000D01*
X73438571Y-74582380D01*
X73629047Y-74582380D01*
X73724285Y-74630000D01*
X73771904Y-74677619D01*
X73819523Y-74772857D01*
X73819523Y-75010952D01*
X73771904Y-75106190D01*
X73724285Y-75153809D01*
X73629047Y-75201428D01*
X73438571Y-75201428D01*
X73343333Y-75153809D01*
X73295714Y-75106190D01*
X73248095Y-75010952D01*
G04 #@! TO.C,R24*
X45452857Y-36432380D02*
X45786190Y-35956190D01*
X46024285Y-36432380D02*
X46024285Y-35432380D01*
X45643333Y-35432380D01*
X45548095Y-35480000D01*
X45500476Y-35527619D01*
X45452857Y-35622857D01*
X45452857Y-35765714D01*
X45500476Y-35860952D01*
X45548095Y-35908571D01*
X45643333Y-35956190D01*
X46024285Y-35956190D01*
X45071904Y-35527619D02*
X45024285Y-35480000D01*
X44929047Y-35432380D01*
X44690952Y-35432380D01*
X44595714Y-35480000D01*
X44548095Y-35527619D01*
X44500476Y-35622857D01*
X44500476Y-35718095D01*
X44548095Y-35860952D01*
X45119523Y-36432380D01*
X44500476Y-36432380D01*
X43643333Y-35765714D02*
X43643333Y-36432380D01*
X43881428Y-35384761D02*
X44119523Y-36099047D01*
X43500476Y-36099047D01*
G04 #@! TO.C,R25*
X59122857Y-75722380D02*
X59456190Y-75246190D01*
X59694285Y-75722380D02*
X59694285Y-74722380D01*
X59313333Y-74722380D01*
X59218095Y-74770000D01*
X59170476Y-74817619D01*
X59122857Y-74912857D01*
X59122857Y-75055714D01*
X59170476Y-75150952D01*
X59218095Y-75198571D01*
X59313333Y-75246190D01*
X59694285Y-75246190D01*
X58741904Y-74817619D02*
X58694285Y-74770000D01*
X58599047Y-74722380D01*
X58360952Y-74722380D01*
X58265714Y-74770000D01*
X58218095Y-74817619D01*
X58170476Y-74912857D01*
X58170476Y-75008095D01*
X58218095Y-75150952D01*
X58789523Y-75722380D01*
X58170476Y-75722380D01*
X57265714Y-74722380D02*
X57741904Y-74722380D01*
X57789523Y-75198571D01*
X57741904Y-75150952D01*
X57646666Y-75103333D01*
X57408571Y-75103333D01*
X57313333Y-75150952D01*
X57265714Y-75198571D01*
X57218095Y-75293809D01*
X57218095Y-75531904D01*
X57265714Y-75627142D01*
X57313333Y-75674761D01*
X57408571Y-75722380D01*
X57646666Y-75722380D01*
X57741904Y-75674761D01*
X57789523Y-75627142D01*
G04 #@! TO.C,R26*
X29352857Y-64132380D02*
X29686190Y-63656190D01*
X29924285Y-64132380D02*
X29924285Y-63132380D01*
X29543333Y-63132380D01*
X29448095Y-63180000D01*
X29400476Y-63227619D01*
X29352857Y-63322857D01*
X29352857Y-63465714D01*
X29400476Y-63560952D01*
X29448095Y-63608571D01*
X29543333Y-63656190D01*
X29924285Y-63656190D01*
X28971904Y-63227619D02*
X28924285Y-63180000D01*
X28829047Y-63132380D01*
X28590952Y-63132380D01*
X28495714Y-63180000D01*
X28448095Y-63227619D01*
X28400476Y-63322857D01*
X28400476Y-63418095D01*
X28448095Y-63560952D01*
X29019523Y-64132380D01*
X28400476Y-64132380D01*
X27543333Y-63132380D02*
X27733809Y-63132380D01*
X27829047Y-63180000D01*
X27876666Y-63227619D01*
X27971904Y-63370476D01*
X28019523Y-63560952D01*
X28019523Y-63941904D01*
X27971904Y-64037142D01*
X27924285Y-64084761D01*
X27829047Y-64132380D01*
X27638571Y-64132380D01*
X27543333Y-64084761D01*
X27495714Y-64037142D01*
X27448095Y-63941904D01*
X27448095Y-63703809D01*
X27495714Y-63608571D01*
X27543333Y-63560952D01*
X27638571Y-63513333D01*
X27829047Y-63513333D01*
X27924285Y-63560952D01*
X27971904Y-63608571D01*
X28019523Y-63703809D01*
G04 #@! TO.C,R27*
X31972857Y-59802380D02*
X32306190Y-59326190D01*
X32544285Y-59802380D02*
X32544285Y-58802380D01*
X32163333Y-58802380D01*
X32068095Y-58850000D01*
X32020476Y-58897619D01*
X31972857Y-58992857D01*
X31972857Y-59135714D01*
X32020476Y-59230952D01*
X32068095Y-59278571D01*
X32163333Y-59326190D01*
X32544285Y-59326190D01*
X31591904Y-58897619D02*
X31544285Y-58850000D01*
X31449047Y-58802380D01*
X31210952Y-58802380D01*
X31115714Y-58850000D01*
X31068095Y-58897619D01*
X31020476Y-58992857D01*
X31020476Y-59088095D01*
X31068095Y-59230952D01*
X31639523Y-59802380D01*
X31020476Y-59802380D01*
X30687142Y-58802380D02*
X30020476Y-58802380D01*
X30449047Y-59802380D01*
G04 #@! TO.C,SW1*
X67693333Y-37794761D02*
X67550476Y-37842380D01*
X67312380Y-37842380D01*
X67217142Y-37794761D01*
X67169523Y-37747142D01*
X67121904Y-37651904D01*
X67121904Y-37556666D01*
X67169523Y-37461428D01*
X67217142Y-37413809D01*
X67312380Y-37366190D01*
X67502857Y-37318571D01*
X67598095Y-37270952D01*
X67645714Y-37223333D01*
X67693333Y-37128095D01*
X67693333Y-37032857D01*
X67645714Y-36937619D01*
X67598095Y-36890000D01*
X67502857Y-36842380D01*
X67264761Y-36842380D01*
X67121904Y-36890000D01*
X66788571Y-36842380D02*
X66550476Y-37842380D01*
X66360000Y-37128095D01*
X66169523Y-37842380D01*
X65931428Y-36842380D01*
X65026666Y-37842380D02*
X65598095Y-37842380D01*
X65312380Y-37842380D02*
X65312380Y-36842380D01*
X65407619Y-36985238D01*
X65502857Y-37080476D01*
X65598095Y-37128095D01*
G04 #@! TO.C,SW2*
X77043333Y-63474761D02*
X76900476Y-63522380D01*
X76662380Y-63522380D01*
X76567142Y-63474761D01*
X76519523Y-63427142D01*
X76471904Y-63331904D01*
X76471904Y-63236666D01*
X76519523Y-63141428D01*
X76567142Y-63093809D01*
X76662380Y-63046190D01*
X76852857Y-62998571D01*
X76948095Y-62950952D01*
X76995714Y-62903333D01*
X77043333Y-62808095D01*
X77043333Y-62712857D01*
X76995714Y-62617619D01*
X76948095Y-62570000D01*
X76852857Y-62522380D01*
X76614761Y-62522380D01*
X76471904Y-62570000D01*
X76138571Y-62522380D02*
X75900476Y-63522380D01*
X75710000Y-62808095D01*
X75519523Y-63522380D01*
X75281428Y-62522380D01*
X74948095Y-62617619D02*
X74900476Y-62570000D01*
X74805238Y-62522380D01*
X74567142Y-62522380D01*
X74471904Y-62570000D01*
X74424285Y-62617619D01*
X74376666Y-62712857D01*
X74376666Y-62808095D01*
X74424285Y-62950952D01*
X74995714Y-63522380D01*
X74376666Y-63522380D01*
G04 #@! TO.C,U3*
X41591904Y-34452380D02*
X41591904Y-35261904D01*
X41544285Y-35357142D01*
X41496666Y-35404761D01*
X41401428Y-35452380D01*
X41210952Y-35452380D01*
X41115714Y-35404761D01*
X41068095Y-35357142D01*
X41020476Y-35261904D01*
X41020476Y-34452380D01*
X40639523Y-34452380D02*
X40020476Y-34452380D01*
X40353809Y-34833333D01*
X40210952Y-34833333D01*
X40115714Y-34880952D01*
X40068095Y-34928571D01*
X40020476Y-35023809D01*
X40020476Y-35261904D01*
X40068095Y-35357142D01*
X40115714Y-35404761D01*
X40210952Y-35452380D01*
X40496666Y-35452380D01*
X40591904Y-35404761D01*
X40639523Y-35357142D01*
G04 #@! TO.C,U6*
X28581904Y-37292380D02*
X28581904Y-38101904D01*
X28534285Y-38197142D01*
X28486666Y-38244761D01*
X28391428Y-38292380D01*
X28200952Y-38292380D01*
X28105714Y-38244761D01*
X28058095Y-38197142D01*
X28010476Y-38101904D01*
X28010476Y-37292380D01*
X27105714Y-37292380D02*
X27296190Y-37292380D01*
X27391428Y-37340000D01*
X27439047Y-37387619D01*
X27534285Y-37530476D01*
X27581904Y-37720952D01*
X27581904Y-38101904D01*
X27534285Y-38197142D01*
X27486666Y-38244761D01*
X27391428Y-38292380D01*
X27200952Y-38292380D01*
X27105714Y-38244761D01*
X27058095Y-38197142D01*
X27010476Y-38101904D01*
X27010476Y-37863809D01*
X27058095Y-37768571D01*
X27105714Y-37720952D01*
X27200952Y-37673333D01*
X27391428Y-37673333D01*
X27486666Y-37720952D01*
X27534285Y-37768571D01*
X27581904Y-37863809D01*
G04 #@! TO.C,Q8*
X44225238Y-71057619D02*
X44320476Y-71010000D01*
X44415714Y-70914761D01*
X44558571Y-70771904D01*
X44653809Y-70724285D01*
X44749047Y-70724285D01*
X44701428Y-70962380D02*
X44796666Y-70914761D01*
X44891904Y-70819523D01*
X44939523Y-70629047D01*
X44939523Y-70295714D01*
X44891904Y-70105238D01*
X44796666Y-70010000D01*
X44701428Y-69962380D01*
X44510952Y-69962380D01*
X44415714Y-70010000D01*
X44320476Y-70105238D01*
X44272857Y-70295714D01*
X44272857Y-70629047D01*
X44320476Y-70819523D01*
X44415714Y-70914761D01*
X44510952Y-70962380D01*
X44701428Y-70962380D01*
X43701428Y-70390952D02*
X43796666Y-70343333D01*
X43844285Y-70295714D01*
X43891904Y-70200476D01*
X43891904Y-70152857D01*
X43844285Y-70057619D01*
X43796666Y-70010000D01*
X43701428Y-69962380D01*
X43510952Y-69962380D01*
X43415714Y-70010000D01*
X43368095Y-70057619D01*
X43320476Y-70152857D01*
X43320476Y-70200476D01*
X43368095Y-70295714D01*
X43415714Y-70343333D01*
X43510952Y-70390952D01*
X43701428Y-70390952D01*
X43796666Y-70438571D01*
X43844285Y-70486190D01*
X43891904Y-70581428D01*
X43891904Y-70771904D01*
X43844285Y-70867142D01*
X43796666Y-70914761D01*
X43701428Y-70962380D01*
X43510952Y-70962380D01*
X43415714Y-70914761D01*
X43368095Y-70867142D01*
X43320476Y-70771904D01*
X43320476Y-70581428D01*
X43368095Y-70486190D01*
X43415714Y-70438571D01*
X43510952Y-70390952D01*
G04 #@! TO.C,IC1*
X37006190Y-66872380D02*
X37006190Y-65872380D01*
X35958571Y-66777142D02*
X36006190Y-66824761D01*
X36149047Y-66872380D01*
X36244285Y-66872380D01*
X36387142Y-66824761D01*
X36482380Y-66729523D01*
X36530000Y-66634285D01*
X36577619Y-66443809D01*
X36577619Y-66300952D01*
X36530000Y-66110476D01*
X36482380Y-66015238D01*
X36387142Y-65920000D01*
X36244285Y-65872380D01*
X36149047Y-65872380D01*
X36006190Y-65920000D01*
X35958571Y-65967619D01*
X35006190Y-66872380D02*
X35577619Y-66872380D01*
X35291904Y-66872380D02*
X35291904Y-65872380D01*
X35387142Y-66015238D01*
X35482380Y-66110476D01*
X35577619Y-66158095D01*
G04 #@! TO.C,J5*
X76573333Y-37072380D02*
X76573333Y-37786666D01*
X76620952Y-37929523D01*
X76716190Y-38024761D01*
X76859047Y-38072380D01*
X76954285Y-38072380D01*
X75620952Y-37072380D02*
X76097142Y-37072380D01*
X76144761Y-37548571D01*
X76097142Y-37500952D01*
X76001904Y-37453333D01*
X75763809Y-37453333D01*
X75668571Y-37500952D01*
X75620952Y-37548571D01*
X75573333Y-37643809D01*
X75573333Y-37881904D01*
X75620952Y-37977142D01*
X75668571Y-38024761D01*
X75763809Y-38072380D01*
X76001904Y-38072380D01*
X76097142Y-38024761D01*
X76144761Y-37977142D01*
G04 #@! TO.C,C21*
X34112857Y-62657142D02*
X34160476Y-62704761D01*
X34303333Y-62752380D01*
X34398571Y-62752380D01*
X34541428Y-62704761D01*
X34636666Y-62609523D01*
X34684285Y-62514285D01*
X34731904Y-62323809D01*
X34731904Y-62180952D01*
X34684285Y-61990476D01*
X34636666Y-61895238D01*
X34541428Y-61800000D01*
X34398571Y-61752380D01*
X34303333Y-61752380D01*
X34160476Y-61800000D01*
X34112857Y-61847619D01*
X33731904Y-61847619D02*
X33684285Y-61800000D01*
X33589047Y-61752380D01*
X33350952Y-61752380D01*
X33255714Y-61800000D01*
X33208095Y-61847619D01*
X33160476Y-61942857D01*
X33160476Y-62038095D01*
X33208095Y-62180952D01*
X33779523Y-62752380D01*
X33160476Y-62752380D01*
X32208095Y-62752380D02*
X32779523Y-62752380D01*
X32493809Y-62752380D02*
X32493809Y-61752380D01*
X32589047Y-61895238D01*
X32684285Y-61990476D01*
X32779523Y-62038095D01*
G04 #@! TO.C,U7*
X78991904Y-38842380D02*
X78991904Y-39651904D01*
X78944285Y-39747142D01*
X78896666Y-39794761D01*
X78801428Y-39842380D01*
X78610952Y-39842380D01*
X78515714Y-39794761D01*
X78468095Y-39747142D01*
X78420476Y-39651904D01*
X78420476Y-38842380D01*
X78039523Y-38842380D02*
X77372857Y-38842380D01*
X77801428Y-39842380D01*
G04 #@! TD*
M02*
