G04 #@! TF.GenerationSoftware,KiCad,Pcbnew,(5.0.2)-1*
G04 #@! TF.CreationDate,2020-06-29T20:54:18+09:00*
G04 #@! TF.ProjectId,schematic,73636865-6d61-4746-9963-2e6b69636164,rev?*
G04 #@! TF.SameCoordinates,Original*
G04 #@! TF.FileFunction,Profile,NP*
%FSLAX46Y46*%
G04 Gerber Fmt 4.6, Leading zero omitted, Abs format (unit mm)*
G04 Created by KiCad (PCBNEW (5.0.2)-1) date 2020/06/29 20:54:18*
%MOMM*%
%LPD*%
G01*
G04 APERTURE LIST*
%ADD10C,0.150000*%
G04 APERTURE END LIST*
D10*
X50600000Y-88500000D02*
G75*
G02X49000000Y-88500000I-800000J0D01*
G01*
X49000000Y-91500000D02*
G75*
G02X50600000Y-91500000I800000J0D01*
G01*
X50600000Y-91500000D02*
X50600000Y-100500000D01*
X43000000Y-100000000D02*
X43000000Y-80000000D01*
X49000000Y-91500000D02*
X49000000Y-100000000D01*
X44000000Y-101000000D02*
G75*
G02X43000000Y-100000000I0J1000000D01*
G01*
X48000000Y-101000000D02*
X44000000Y-101000000D01*
X49000000Y-100000000D02*
G75*
G02X48000000Y-101000000I-1000000J0D01*
G01*
X49000000Y-80000000D02*
X49000000Y-88500000D01*
X43000000Y-80000000D02*
G75*
G02X44000000Y-79000000I1000000J0D01*
G01*
X48000000Y-79000000D02*
X44000000Y-79000000D01*
X48000000Y-79000000D02*
G75*
G02X49000000Y-80000000I0J-1000000D01*
G01*
X72500000Y-81000000D02*
X72500000Y-89000000D01*
X72500000Y-91000000D02*
G75*
G02X74000000Y-91000000I750000J0D01*
G01*
X74000000Y-89000000D02*
G75*
G02X72500000Y-89000000I-750000J0D01*
G01*
X74000000Y-82000000D02*
X74000000Y-89000000D01*
X75000000Y-99000000D02*
G75*
G02X74000000Y-98000000I0J1000000D01*
G01*
X104000000Y-98000000D02*
G75*
G02X103000000Y-99000000I-1000000J0D01*
G01*
X103000000Y-81000000D02*
G75*
G02X104000000Y-82000000I0J-1000000D01*
G01*
X74000000Y-82000000D02*
G75*
G02X75000000Y-81000000I1000000J0D01*
G01*
X74000000Y-98000000D02*
X74000000Y-91000000D01*
X103000000Y-99000000D02*
X75000000Y-99000000D01*
X104000000Y-82000000D02*
X104000000Y-98000000D01*
X75000000Y-81000000D02*
X103000000Y-81000000D01*
X73499814Y-100004988D02*
G75*
G02X72500000Y-98900000I186J1004988D01*
G01*
X72500000Y-81000000D02*
G75*
G02X73500000Y-80000000I1000000J0D01*
G01*
X78600000Y-111500000D02*
X78600000Y-100800000D01*
X77800000Y-100000000D02*
G75*
G02X78600000Y-100800000I0J-800000D01*
G01*
X78606226Y-79199648D02*
G75*
G02X77900000Y-80000000I-806226J-352D01*
G01*
X73500000Y-100000000D02*
X77800000Y-100000000D01*
X72500000Y-91000000D02*
X72500000Y-98400000D01*
X77900000Y-80000000D02*
X73500000Y-80000000D01*
X78600000Y-69000000D02*
X78600000Y-79200000D01*
X77600002Y-68000000D02*
G75*
G02X78600002Y-69000000I0J-1000000D01*
G01*
X78600002Y-111000000D02*
G75*
G02X77600002Y-112000000I-1000000J0D01*
G01*
X46600000Y-68000000D02*
X77600002Y-68000000D01*
X77600002Y-112000000D02*
X46600000Y-112000000D01*
X45600000Y-76500000D02*
X45600000Y-69000000D01*
X47600000Y-76500000D02*
G75*
G02X50600000Y-79500000I0J-3000000D01*
G01*
X45600000Y-103500000D02*
X47600000Y-103500000D01*
X47600000Y-76500000D02*
X45600000Y-76500000D01*
X50600000Y-88500000D02*
X50600000Y-79500000D01*
X50600000Y-100500000D02*
G75*
G02X47600000Y-103500000I-3000000J0D01*
G01*
X45600000Y-111000000D02*
X45600000Y-103500000D01*
X45600000Y-69000000D02*
G75*
G02X46600000Y-68000000I1000000J0D01*
G01*
X46600000Y-112000000D02*
G75*
G02X45600000Y-111000000I0J1000000D01*
G01*
M02*
