%TF.GenerationSoftware,KiCad,Pcbnew,(5.1.6)-1*%
%TF.CreationDate,2020-11-04T17:06:36+09:00*%
%TF.ProjectId,schematic,73636865-6d61-4746-9963-2e6b69636164,rev?*%
%TF.SameCoordinates,Original*%
%TF.FileFunction,Profile,NP*%
%FSLAX46Y46*%
G04 Gerber Fmt 4.6, Leading zero omitted, Abs format (unit mm)*
G04 Created by KiCad (PCBNEW (5.1.6)-1) date 2020-11-04 17:06:36*
%MOMM*%
%LPD*%
G01*
G04 APERTURE LIST*
%TA.AperFunction,Profile*%
%ADD10C,0.150000*%
%TD*%
G04 APERTURE END LIST*
D10*
X115000000Y-90000000D02*
X119000000Y-90000000D01*
X114000000Y-71000000D02*
X114000000Y-89000000D01*
X119000000Y-70000000D02*
X115000000Y-70000000D01*
X120000000Y-69000000D02*
G75*
G02*
X119000000Y-70000000I-1000000J0D01*
G01*
X120000000Y-59500001D02*
X120000000Y-69000000D01*
X114000000Y-71000000D02*
G75*
G02*
X115000000Y-70000000I1000000J0D01*
G01*
X115000000Y-90000000D02*
G75*
G02*
X114000000Y-89000000I0J1000000D01*
G01*
X119000000Y-90000000D02*
G75*
G02*
X120000000Y-91000000I0J-1000000D01*
G01*
X70000000Y-85000000D02*
G75*
G02*
X69000000Y-84000000I0J1000000D01*
G01*
X69000000Y-76000000D02*
G75*
G02*
X70000000Y-75000000I1000000J0D01*
G01*
X83000000Y-73000000D02*
G75*
G02*
X84000000Y-74000000I0J-1000000D01*
G01*
X84000000Y-86000000D02*
G75*
G02*
X83000000Y-87000000I-1000000J0D01*
G01*
X87000000Y-81000000D02*
G75*
G02*
X88000000Y-82000000I0J-1000000D01*
G01*
X88000000Y-78000000D02*
G75*
G02*
X87000000Y-79000000I-1000000J0D01*
G01*
X88000000Y-78000000D02*
X88000000Y-64371175D01*
X85000000Y-79000000D02*
G75*
G02*
X84000000Y-78000000I0J1000000D01*
G01*
X84000000Y-82000000D02*
G75*
G02*
X85000000Y-81000000I1000000J0D01*
G01*
X85000000Y-81000000D02*
X87000000Y-81000000D01*
X84000000Y-86000000D02*
X84000000Y-82000000D01*
X84000000Y-78000000D02*
X84000000Y-74000000D01*
X87000000Y-79000000D02*
X85000000Y-79000000D01*
X80000000Y-73000000D02*
X78000000Y-75000000D01*
X83000000Y-73000000D02*
X80000000Y-73000000D01*
X80000000Y-87000000D02*
X83000000Y-87000000D01*
X78000000Y-85000000D02*
X80000000Y-87000000D01*
X69000000Y-84000000D02*
X69000000Y-76000000D01*
X78000000Y-85000000D02*
X70000000Y-85000000D01*
X70000000Y-75000000D02*
X78000000Y-75000000D01*
X86000000Y-64370982D02*
G75*
G02*
X86991465Y-63371212I999999J-193D01*
G01*
X86000000Y-64371175D02*
X85999999Y-67493554D01*
X86999999Y-62201755D02*
G75*
G02*
X85999999Y-61201755I0J1000000D01*
G01*
X86000000Y-98798196D02*
G75*
G02*
X87000049Y-97798245I1000000J-49D01*
G01*
X85999999Y-100499999D02*
X85999999Y-98798245D01*
X86991273Y-96628788D02*
G75*
G02*
X85999999Y-95628825I8727J999963D01*
G01*
X88000000Y-61201806D02*
G75*
G02*
X86999949Y-62201755I-1000000J51D01*
G01*
X88000000Y-61201755D02*
X88000000Y-59500000D01*
X86991273Y-63371213D02*
G75*
G02*
X88000000Y-64371175I8727J-999962D01*
G01*
X86999950Y-97798245D02*
G75*
G02*
X87999969Y-98798226I19J-1000000D01*
G01*
X87999969Y-98798226D02*
X88000000Y-100500000D01*
X87999999Y-95628532D02*
G75*
G02*
X86991565Y-96628789I-1000000J-293D01*
G01*
X119999999Y-100499999D02*
G75*
G02*
X119000000Y-101500000I-1000000J-1D01*
G01*
X88000000Y-59500000D02*
G75*
G02*
X89000000Y-58500000I1000000J0D01*
G01*
X119000000Y-58500001D02*
X89000000Y-58500000D01*
X120000000Y-100500000D02*
X120000000Y-91000000D01*
X119000000Y-58500001D02*
G75*
G02*
X120000000Y-59500001I0J-1000000D01*
G01*
X88000000Y-82000000D02*
X88000000Y-95628825D01*
X89000000Y-101500000D02*
X119000000Y-101500000D01*
X89000000Y-101500000D02*
G75*
G02*
X88000000Y-100500000I0J1000000D01*
G01*
X85999999Y-100499999D02*
G75*
G02*
X84999999Y-101499999I-1000000J0D01*
G01*
X85999999Y-95628825D02*
X85999999Y-92506446D01*
X85416280Y-91597210D02*
G75*
G02*
X85999999Y-92506446I-416281J-909236D01*
G01*
X54935815Y-101500000D02*
G75*
G02*
X53935710Y-100491415I-142J1000000D01*
G01*
X54935673Y-101500000D02*
X84999999Y-101499999D01*
X54004346Y-92495893D02*
X53935710Y-100491415D01*
X54004352Y-92495178D02*
G75*
G02*
X54588550Y-91595002I999958J-9299D01*
G01*
X65160322Y-86762192D02*
G75*
G02*
X65576603Y-86671428I416281J-909236D01*
G01*
X65160844Y-86761954D02*
X54588550Y-91595002D01*
X74423397Y-86671428D02*
X65576603Y-86671428D01*
X74422824Y-86671429D02*
G75*
G02*
X74839156Y-86761954I573J-999999D01*
G01*
X85415759Y-91596972D02*
X74839156Y-86761954D01*
X65577176Y-73328571D02*
G75*
G02*
X65160844Y-73238046I-573J999999D01*
G01*
X74839678Y-73237808D02*
G75*
G02*
X74423397Y-73328572I-416281J909236D01*
G01*
X54587899Y-68404701D02*
G75*
G02*
X54004346Y-67504107I416411J909178D01*
G01*
X85999999Y-67494127D02*
G75*
G02*
X85415759Y-68403028I-1000000J573D01*
G01*
X53935711Y-59508727D02*
G75*
G02*
X54935673Y-58500000I999962J8727D01*
G01*
X84999999Y-58500001D02*
G75*
G02*
X85999999Y-59500001I0J-1000000D01*
G01*
X85415759Y-68403028D02*
X74839156Y-73238046D01*
X85999999Y-59500001D02*
X85999999Y-61201755D01*
X54935673Y-58500000D02*
X84999999Y-58500001D01*
X54004346Y-67504107D02*
X53935710Y-59508585D01*
X65160844Y-73238046D02*
X54588550Y-68404998D01*
X74423397Y-73328572D02*
X65576603Y-73328572D01*
M02*
