G04 #@! TF.GenerationSoftware,KiCad,Pcbnew,(5.0.2)-1*
G04 #@! TF.CreationDate,2020-06-29T20:54:18+09:00*
G04 #@! TF.ProjectId,schematic,73636865-6d61-4746-9963-2e6b69636164,rev?*
G04 #@! TF.SameCoordinates,Original*
G04 #@! TF.FileFunction,Legend,Top*
G04 #@! TF.FilePolarity,Positive*
%FSLAX46Y46*%
G04 Gerber Fmt 4.6, Leading zero omitted, Abs format (unit mm)*
G04 Created by KiCad (PCBNEW (5.0.2)-1) date 2020/06/29 20:54:18*
%MOMM*%
%LPD*%
G01*
G04 APERTURE LIST*
%ADD10C,0.150000*%
%ADD11C,0.120000*%
%ADD12C,0.100000*%
G04 APERTURE END LIST*
D10*
X96750000Y-89000000D02*
X96750000Y-90000000D01*
X96750000Y-89500000D02*
X96000000Y-89000000D01*
X96000000Y-90000000D02*
X96750000Y-89500000D01*
X96000000Y-89000000D02*
X96000000Y-90000000D01*
X48250000Y-81250000D02*
X48250000Y-81750000D01*
X48000000Y-81500000D02*
X48500000Y-81500000D01*
X48250000Y-98250000D02*
X48250000Y-98750000D01*
X48000000Y-98500000D02*
X48500000Y-98500000D01*
X72853553Y-75750000D02*
G75*
G03X72853553Y-75750000I-353553J0D01*
G01*
X62000000Y-100000000D02*
X62000000Y-101000000D01*
X62000000Y-100500000D02*
X61500000Y-100000000D01*
X61500000Y-101000000D02*
X62000000Y-100500000D01*
X61500000Y-100000000D02*
X61500000Y-101000000D01*
X57750000Y-105750000D02*
X58750000Y-105750000D01*
X58250000Y-105750000D02*
X57750000Y-105250000D01*
X58750000Y-105250000D02*
X58250000Y-105750000D01*
X57750000Y-105250000D02*
X58750000Y-105250000D01*
X102750000Y-84500000D02*
X103750000Y-84500000D01*
X103250000Y-86500000D02*
X103250000Y-87500000D01*
X102750000Y-87000000D02*
X103750000Y-87000000D01*
X78300000Y-79400000D02*
X78300000Y-68600000D01*
X78300000Y-79400000D02*
G75*
G02X78000000Y-79700000I-300000J0D01*
G01*
X72200000Y-81000000D02*
G75*
G02X73500000Y-79700000I1300000J0D01*
G01*
X73500000Y-79700000D02*
X78000000Y-79700000D01*
X72200000Y-99000000D02*
X72200000Y-81000000D01*
X73500000Y-100300000D02*
G75*
G02X72200000Y-99000000I0J1300000D01*
G01*
X78000000Y-100300000D02*
X73500000Y-100300000D01*
X78000000Y-100300000D02*
G75*
G02X78300000Y-100600000I0J-300000D01*
G01*
X78300000Y-111400000D02*
G75*
G02X78000000Y-111700000I-300000J0D01*
G01*
X45900000Y-72250000D02*
X78300002Y-72250000D01*
X51000000Y-68300000D02*
X51000000Y-111700000D01*
X45900000Y-107750000D02*
X78300002Y-107750000D01*
X78300002Y-111400000D02*
X78300000Y-100600000D01*
X50900000Y-100500000D02*
G75*
G02X47600000Y-103800000I-3300000J0D01*
G01*
X45900000Y-68600000D02*
G75*
G02X46200000Y-68300000I300000J0D01*
G01*
X78000002Y-68300000D02*
X46200000Y-68300000D01*
X78000002Y-68300000D02*
G75*
G02X78300002Y-68600000I0J-300000D01*
G01*
X45900000Y-75900000D02*
X45900000Y-68600000D01*
X46200000Y-111700000D02*
G75*
G02X45900000Y-111400000I0J300000D01*
G01*
X47600000Y-76200000D02*
X46200000Y-76200000D01*
X50900000Y-100500000D02*
X50900000Y-79500000D01*
X78000002Y-111700000D02*
X46200000Y-111700000D01*
X50600000Y-90000000D02*
X78300002Y-90000000D01*
X45900000Y-104100000D02*
G75*
G02X46200000Y-103800000I300000J0D01*
G01*
X47600000Y-76200000D02*
G75*
G02X50900000Y-79500000I0J-3300000D01*
G01*
X45900000Y-104100000D02*
X45900000Y-111400000D01*
X46200000Y-76200000D02*
G75*
G02X45900000Y-75900000I0J300000D01*
G01*
X47600000Y-103800000D02*
X46200000Y-103800000D01*
D11*
G04 #@! TO.C,J4*
X66260000Y-110350000D02*
X66260000Y-109020000D01*
X66260000Y-109020000D02*
X67590000Y-109020000D01*
X68860000Y-109020000D02*
X76540000Y-109020000D01*
X76540000Y-111680000D02*
X76540000Y-109020000D01*
X68860000Y-111680000D02*
X76540000Y-111680000D01*
X68860000Y-111680000D02*
X68860000Y-109020000D01*
D10*
G04 #@! TO.C,U2*
X53600000Y-70150000D02*
G75*
G03X53600000Y-70150000I-500000J0D01*
G01*
X52600000Y-70650000D02*
X52600000Y-71050000D01*
X52600000Y-73850000D02*
X52600000Y-73450000D01*
X52600000Y-73850000D02*
X52200000Y-73850000D01*
X49400000Y-73850000D02*
X49400000Y-73450000D01*
X49400000Y-73850000D02*
X49800000Y-73850000D01*
X49400000Y-70650000D02*
X49400000Y-71050000D01*
X49400000Y-70650000D02*
X49800000Y-70650000D01*
D11*
G04 #@! TO.C,BT1*
X97490000Y-88760000D02*
X98740000Y-88760000D01*
X97490000Y-87510000D02*
X97490000Y-88760000D01*
X101900000Y-85400000D02*
X101400000Y-85400000D01*
X101400000Y-85300000D02*
X101900000Y-85300000D01*
X101400000Y-85500000D02*
X101400000Y-85300000D01*
X101900000Y-85500000D02*
X101400000Y-85500000D01*
X100400000Y-82340000D02*
X100400000Y-82950000D01*
X99100000Y-82340000D02*
X99100000Y-82950000D01*
X100400000Y-88460000D02*
X100400000Y-87850000D01*
X99100000Y-88460000D02*
X99100000Y-87850000D01*
X98400000Y-84900000D02*
X97790000Y-84900000D01*
X98400000Y-82950000D02*
X98400000Y-84900000D01*
X101900000Y-82950000D02*
X98400000Y-82950000D01*
X101900000Y-87850000D02*
X101900000Y-82950000D01*
X98400000Y-87850000D02*
X101900000Y-87850000D01*
X98400000Y-85900000D02*
X98400000Y-87850000D01*
X97790000Y-85900000D02*
X98400000Y-85900000D01*
X97690000Y-86700000D02*
X97690000Y-87000000D01*
X97590000Y-87000000D02*
X97790000Y-87000000D01*
X97590000Y-86700000D02*
X97590000Y-87000000D01*
X97790000Y-86700000D02*
X97590000Y-86700000D01*
X97790000Y-82340000D02*
X97790000Y-88460000D01*
X102510000Y-82340000D02*
X97790000Y-82340000D01*
X102510000Y-88460000D02*
X102510000Y-82340000D01*
X97790000Y-88460000D02*
X102510000Y-88460000D01*
G04 #@! TO.C,C2*
X74353733Y-73000000D02*
X74696267Y-73000000D01*
X74353733Y-71980000D02*
X74696267Y-71980000D01*
G04 #@! TO.C,C7*
X78510000Y-90971267D02*
X78510000Y-90628733D01*
X77490000Y-90971267D02*
X77490000Y-90628733D01*
G04 #@! TO.C,C16*
X78428733Y-87510000D02*
X78771267Y-87510000D01*
X78428733Y-86490000D02*
X78771267Y-86490000D01*
G04 #@! TO.C,C19*
X77420000Y-96918733D02*
X77420000Y-97261267D01*
X78440000Y-96918733D02*
X78440000Y-97261267D01*
G04 #@! TO.C,C25*
X68410000Y-102221267D02*
X68410000Y-101878733D01*
X67390000Y-102221267D02*
X67390000Y-101878733D01*
G04 #@! TO.C,C26*
X68578733Y-78760000D02*
X68921267Y-78760000D01*
X68578733Y-77740000D02*
X68921267Y-77740000D01*
G04 #@! TO.C,D2*
X97000000Y-88800000D02*
X93150000Y-88800000D01*
X97000000Y-86800000D02*
X93150000Y-86800000D01*
X97000000Y-88800000D02*
X97000000Y-86800000D01*
G04 #@! TO.C,D3*
X44840000Y-83235000D02*
X47300000Y-83235000D01*
X44840000Y-81765000D02*
X44840000Y-83235000D01*
X47300000Y-81765000D02*
X44840000Y-81765000D01*
G04 #@! TO.C,D5*
X44840000Y-98235000D02*
X47300000Y-98235000D01*
X44840000Y-96765000D02*
X44840000Y-98235000D01*
X47300000Y-96765000D02*
X44840000Y-96765000D01*
D10*
G04 #@! TO.C,D6*
X74250000Y-75400000D02*
X74250000Y-75300000D01*
X73750000Y-75600000D02*
X74750000Y-75600000D01*
X73750000Y-74400000D02*
X74750000Y-74400000D01*
D11*
G04 #@! TO.C,D7*
X44840000Y-100235000D02*
X47300000Y-100235000D01*
X44840000Y-98765000D02*
X44840000Y-100235000D01*
X47300000Y-98765000D02*
X44840000Y-98765000D01*
G04 #@! TO.C,D8*
X63610000Y-101115000D02*
X61150000Y-101115000D01*
X63610000Y-102585000D02*
X63610000Y-101115000D01*
X61150000Y-102585000D02*
X63610000Y-102585000D01*
G04 #@! TO.C,D9*
X60245000Y-107150000D02*
X60245000Y-104690000D01*
X58775000Y-107150000D02*
X60245000Y-107150000D01*
X58775000Y-104690000D02*
X58775000Y-107150000D01*
G04 #@! TO.C,D10*
X44840000Y-81235000D02*
X47300000Y-81235000D01*
X44840000Y-79765000D02*
X44840000Y-81235000D01*
X47300000Y-79765000D02*
X44840000Y-79765000D01*
G04 #@! TO.C,F1*
X91590000Y-94013748D02*
X91590000Y-96786252D01*
X95010000Y-94013748D02*
X95010000Y-96786252D01*
G04 #@! TO.C,J1*
X77230000Y-68970000D02*
X77230000Y-70300000D01*
X75900000Y-68970000D02*
X77230000Y-68970000D01*
X74630000Y-68970000D02*
X74630000Y-71630000D01*
X74630000Y-71630000D02*
X69490000Y-71630000D01*
X74630000Y-68970000D02*
X69490000Y-68970000D01*
X69490000Y-68970000D02*
X69490000Y-71630000D01*
G04 #@! TO.C,J2*
X98975000Y-92400000D02*
X98975000Y-90250000D01*
X102525000Y-90250000D02*
X102525000Y-93150000D01*
X98975000Y-98550000D02*
X102525000Y-98550000D01*
X102525000Y-98550000D02*
X102525000Y-95650000D01*
X98975000Y-90250000D02*
X102525000Y-90250000D01*
X98975000Y-96400000D02*
X98975000Y-98550000D01*
X98975000Y-96100000D02*
X98975000Y-95500000D01*
X99725000Y-96100000D02*
X98975000Y-96100000D01*
G04 #@! TO.C,J3*
X46830000Y-110300000D02*
X46830000Y-108970000D01*
X46830000Y-108970000D02*
X48160000Y-108970000D01*
X49430000Y-108970000D02*
X54570000Y-108970000D01*
X54570000Y-111630000D02*
X54570000Y-108970000D01*
X49430000Y-111630000D02*
X54570000Y-111630000D01*
X49430000Y-111630000D02*
X49430000Y-108970000D01*
G04 #@! TO.C,J5*
X55020000Y-111680000D02*
X55020000Y-110350000D01*
X56350000Y-111680000D02*
X55020000Y-111680000D01*
X57620000Y-111680000D02*
X57620000Y-109020000D01*
X57620000Y-109020000D02*
X65300000Y-109020000D01*
X57620000Y-111680000D02*
X65300000Y-111680000D01*
X65300000Y-111680000D02*
X65300000Y-109020000D01*
G04 #@! TO.C,J6*
X48110000Y-93300000D02*
X47000000Y-93300000D01*
X48110000Y-92540000D02*
X48110000Y-93300000D01*
X46436529Y-91780000D02*
X45890000Y-91780000D01*
X48110000Y-91780000D02*
X47563471Y-91780000D01*
X45890000Y-91780000D02*
X45890000Y-86765000D01*
X48110000Y-91780000D02*
X48110000Y-86765000D01*
X46692470Y-86765000D02*
X45890000Y-86765000D01*
X48110000Y-86765000D02*
X47307530Y-86765000D01*
G04 #@! TO.C,J7*
X55470000Y-71630000D02*
X55470000Y-70300000D01*
X56800000Y-71630000D02*
X55470000Y-71630000D01*
X58070000Y-71630000D02*
X58070000Y-68970000D01*
X58070000Y-68970000D02*
X68290000Y-68970000D01*
X58070000Y-71630000D02*
X68290000Y-71630000D01*
X68290000Y-71630000D02*
X68290000Y-68970000D01*
D10*
G04 #@! TO.C,L1*
X85500000Y-87800000D02*
X85500000Y-84800000D01*
X82300000Y-84800000D02*
X85500000Y-84800000D01*
X82300000Y-84800000D02*
X82300000Y-87800000D01*
X85500000Y-87800000D02*
X82300000Y-87800000D01*
G04 #@! TO.C,L2*
X80490000Y-84600000D02*
X80490000Y-81600000D01*
X77290000Y-81600000D02*
X80490000Y-81600000D01*
X77290000Y-81600000D02*
X77290000Y-84600000D01*
X80490000Y-84600000D02*
X77290000Y-84600000D01*
G04 #@! TO.C,L3*
X86100000Y-95000000D02*
X86100000Y-92000000D01*
X82900000Y-92000000D02*
X86100000Y-92000000D01*
X82900000Y-92000000D02*
X82900000Y-95000000D01*
X86100000Y-95000000D02*
X82900000Y-95000000D01*
D11*
G04 #@! TO.C,Q1*
X96680000Y-83940000D02*
X96680000Y-85400000D01*
X93520000Y-83940000D02*
X93520000Y-86100000D01*
X93520000Y-83940000D02*
X94450000Y-83940000D01*
X96680000Y-83940000D02*
X95750000Y-83940000D01*
G04 #@! TO.C,Q4*
X43640000Y-90510000D02*
X43640000Y-89350000D01*
X45560000Y-90510000D02*
X45560000Y-89100000D01*
X45560000Y-90510000D02*
X45250000Y-90510000D01*
X43640000Y-90510000D02*
X43950000Y-90510000D01*
G04 #@! TO.C,Q5*
X90760000Y-88980000D02*
X89300000Y-88980000D01*
X90760000Y-85820000D02*
X88600000Y-85820000D01*
X90760000Y-85820000D02*
X90760000Y-86750000D01*
X90760000Y-88980000D02*
X90760000Y-88050000D01*
G04 #@! TO.C,SW1*
X62050000Y-75950000D02*
X66450000Y-75950000D01*
X66450000Y-75950000D02*
X66450000Y-75830000D01*
X66450000Y-74820000D02*
X66450000Y-73680000D01*
X66450000Y-72670000D02*
X66450000Y-72550000D01*
X66450000Y-72550000D02*
X62050000Y-72550000D01*
X62050000Y-72550000D02*
X62050000Y-72670000D01*
X62050000Y-73680000D02*
X62050000Y-74820000D01*
X62050000Y-75830000D02*
X62050000Y-75950000D01*
G04 #@! TO.C,SW2*
X54700000Y-105950000D02*
X54700000Y-101550000D01*
X54700000Y-101550000D02*
X54580000Y-101550000D01*
X53570000Y-101550000D02*
X52430000Y-101550000D01*
X51420000Y-101550000D02*
X51300000Y-101550000D01*
X51300000Y-101550000D02*
X51300000Y-105950000D01*
X51300000Y-105950000D02*
X51420000Y-105950000D01*
X52430000Y-105950000D02*
X53570000Y-105950000D01*
X54580000Y-105950000D02*
X54700000Y-105950000D01*
G04 #@! TO.C,SW3*
X83330000Y-82700000D02*
X83330000Y-81370000D01*
X83330000Y-81370000D02*
X84660000Y-81370000D01*
X85930000Y-81370000D02*
X91070000Y-81370000D01*
X91070000Y-84030000D02*
X91070000Y-81370000D01*
X85930000Y-84030000D02*
X91070000Y-84030000D01*
X85930000Y-84030000D02*
X85930000Y-81370000D01*
G04 #@! TO.C,U8*
X71945000Y-80880000D02*
X71945000Y-80500000D01*
X78365000Y-80880000D02*
X71945000Y-80880000D01*
X78365000Y-99120000D02*
X71945000Y-99120000D01*
X78365000Y-80880000D02*
X78365000Y-99120000D01*
X52620000Y-99120000D02*
X52620000Y-98120000D01*
X53400000Y-99120000D02*
X52620000Y-99120000D01*
X52620000Y-80880000D02*
X52620000Y-81880000D01*
X53400000Y-80880000D02*
X52620000Y-80880000D01*
G04 #@! TO.C,J8*
X74270000Y-98510000D02*
X76930000Y-98510000D01*
X74270000Y-88290000D02*
X74270000Y-98510000D01*
X76930000Y-88290000D02*
X76930000Y-98510000D01*
X74270000Y-88290000D02*
X76930000Y-88290000D01*
X74270000Y-87020000D02*
X74270000Y-85690000D01*
X74270000Y-85690000D02*
X75600000Y-85690000D01*
G04 #@! TO.C,J9*
X68940000Y-76810000D02*
X71060000Y-76810000D01*
X68940000Y-76750000D02*
X68940000Y-76810000D01*
X71060000Y-76750000D02*
X71060000Y-76810000D01*
X68940000Y-76750000D02*
X71060000Y-76750000D01*
X68940000Y-75750000D02*
X68940000Y-74690000D01*
X68940000Y-74690000D02*
X70000000Y-74690000D01*
G04 #@! TO.C,J10*
X56940000Y-74690000D02*
X58000000Y-74690000D01*
X56940000Y-75750000D02*
X56940000Y-74690000D01*
X56940000Y-76750000D02*
X59060000Y-76750000D01*
X59060000Y-76750000D02*
X59060000Y-76810000D01*
X56940000Y-76750000D02*
X56940000Y-76810000D01*
X56940000Y-76810000D02*
X59060000Y-76810000D01*
G04 #@! TO.C,J11*
X72585000Y-105685000D02*
X72585000Y-103565000D01*
X72525000Y-105685000D02*
X72585000Y-105685000D01*
X72525000Y-103565000D02*
X72585000Y-103565000D01*
X72525000Y-105685000D02*
X72525000Y-103565000D01*
X71525000Y-105685000D02*
X70465000Y-105685000D01*
X70465000Y-105685000D02*
X70465000Y-104625000D01*
G04 #@! TO.C,J12*
X62640000Y-77840000D02*
X63700000Y-77840000D01*
X62640000Y-78900000D02*
X62640000Y-77840000D01*
X62640000Y-79900000D02*
X64760000Y-79900000D01*
X64760000Y-79900000D02*
X64760000Y-79960000D01*
X62640000Y-79900000D02*
X62640000Y-79960000D01*
X62640000Y-79960000D02*
X64760000Y-79960000D01*
G04 #@! TO.C,J13*
X55490000Y-103460000D02*
X57610000Y-103460000D01*
X55490000Y-103400000D02*
X55490000Y-103460000D01*
X57610000Y-103400000D02*
X57610000Y-103460000D01*
X55490000Y-103400000D02*
X57610000Y-103400000D01*
X55490000Y-102400000D02*
X55490000Y-101340000D01*
X55490000Y-101340000D02*
X56550000Y-101340000D01*
G04 #@! TO.C,J14*
X50360000Y-106060000D02*
X50360000Y-103940000D01*
X48300000Y-106060000D02*
X50360000Y-106060000D01*
X48300000Y-103940000D02*
X50360000Y-103940000D01*
X48300000Y-106060000D02*
X48300000Y-103940000D01*
X47300000Y-106060000D02*
X46240000Y-106060000D01*
X46240000Y-106060000D02*
X46240000Y-105000000D01*
G04 #@! TO.C,J15*
X96040000Y-90840000D02*
X97100000Y-90840000D01*
X96040000Y-91900000D02*
X96040000Y-90840000D01*
X96040000Y-92900000D02*
X98160000Y-92900000D01*
X98160000Y-92900000D02*
X98160000Y-94960000D01*
X96040000Y-92900000D02*
X96040000Y-94960000D01*
X96040000Y-94960000D02*
X98160000Y-94960000D01*
G04 #@! TO.C,M1*
X67450000Y-102290000D02*
X64790000Y-102290000D01*
X67450000Y-102290000D02*
X67450000Y-99690000D01*
X67450000Y-99690000D02*
X64790000Y-99690000D01*
X64790000Y-102290000D02*
X64790000Y-99690000D01*
X64790000Y-104890000D02*
X64790000Y-103560000D01*
X66120000Y-104890000D02*
X64790000Y-104890000D01*
G04 #@! TO.C,J4*
D10*
X77096666Y-110362380D02*
X77096666Y-111076666D01*
X77049047Y-111219523D01*
X76953809Y-111314761D01*
X76810952Y-111362380D01*
X76715714Y-111362380D01*
X78001428Y-110695714D02*
X78001428Y-111362380D01*
X77763333Y-110314761D02*
X77525238Y-111029047D01*
X78144285Y-111029047D01*
G04 #@! TO.C,U2*
X53238095Y-73852380D02*
X53238095Y-74661904D01*
X53285714Y-74757142D01*
X53333333Y-74804761D01*
X53428571Y-74852380D01*
X53619047Y-74852380D01*
X53714285Y-74804761D01*
X53761904Y-74757142D01*
X53809523Y-74661904D01*
X53809523Y-73852380D01*
X54238095Y-73947619D02*
X54285714Y-73900000D01*
X54380952Y-73852380D01*
X54619047Y-73852380D01*
X54714285Y-73900000D01*
X54761904Y-73947619D01*
X54809523Y-74042857D01*
X54809523Y-74138095D01*
X54761904Y-74280952D01*
X54190476Y-74852380D01*
X54809523Y-74852380D01*
G04 #@! TO.C,BT1*
X99414285Y-89128571D02*
X99557142Y-89176190D01*
X99604761Y-89223809D01*
X99652380Y-89319047D01*
X99652380Y-89461904D01*
X99604761Y-89557142D01*
X99557142Y-89604761D01*
X99461904Y-89652380D01*
X99080952Y-89652380D01*
X99080952Y-88652380D01*
X99414285Y-88652380D01*
X99509523Y-88700000D01*
X99557142Y-88747619D01*
X99604761Y-88842857D01*
X99604761Y-88938095D01*
X99557142Y-89033333D01*
X99509523Y-89080952D01*
X99414285Y-89128571D01*
X99080952Y-89128571D01*
X99938095Y-88652380D02*
X100509523Y-88652380D01*
X100223809Y-89652380D02*
X100223809Y-88652380D01*
X101366666Y-89652380D02*
X100795238Y-89652380D01*
X101080952Y-89652380D02*
X101080952Y-88652380D01*
X100985714Y-88795238D01*
X100890476Y-88890476D01*
X100795238Y-88938095D01*
G04 #@! TO.C,C2*
X71663333Y-73527142D02*
X71615714Y-73574761D01*
X71472857Y-73622380D01*
X71377619Y-73622380D01*
X71234761Y-73574761D01*
X71139523Y-73479523D01*
X71091904Y-73384285D01*
X71044285Y-73193809D01*
X71044285Y-73050952D01*
X71091904Y-72860476D01*
X71139523Y-72765238D01*
X71234761Y-72670000D01*
X71377619Y-72622380D01*
X71472857Y-72622380D01*
X71615714Y-72670000D01*
X71663333Y-72717619D01*
X72044285Y-72717619D02*
X72091904Y-72670000D01*
X72187142Y-72622380D01*
X72425238Y-72622380D01*
X72520476Y-72670000D01*
X72568095Y-72717619D01*
X72615714Y-72812857D01*
X72615714Y-72908095D01*
X72568095Y-73050952D01*
X71996666Y-73622380D01*
X72615714Y-73622380D01*
G04 #@! TO.C,C5*
X48533333Y-69657142D02*
X48485714Y-69704761D01*
X48342857Y-69752380D01*
X48247619Y-69752380D01*
X48104761Y-69704761D01*
X48009523Y-69609523D01*
X47961904Y-69514285D01*
X47914285Y-69323809D01*
X47914285Y-69180952D01*
X47961904Y-68990476D01*
X48009523Y-68895238D01*
X48104761Y-68800000D01*
X48247619Y-68752380D01*
X48342857Y-68752380D01*
X48485714Y-68800000D01*
X48533333Y-68847619D01*
X49438095Y-68752380D02*
X48961904Y-68752380D01*
X48914285Y-69228571D01*
X48961904Y-69180952D01*
X49057142Y-69133333D01*
X49295238Y-69133333D01*
X49390476Y-69180952D01*
X49438095Y-69228571D01*
X49485714Y-69323809D01*
X49485714Y-69561904D01*
X49438095Y-69657142D01*
X49390476Y-69704761D01*
X49295238Y-69752380D01*
X49057142Y-69752380D01*
X48961904Y-69704761D01*
X48914285Y-69657142D01*
G04 #@! TO.C,C6*
X53233333Y-76357142D02*
X53185714Y-76404761D01*
X53042857Y-76452380D01*
X52947619Y-76452380D01*
X52804761Y-76404761D01*
X52709523Y-76309523D01*
X52661904Y-76214285D01*
X52614285Y-76023809D01*
X52614285Y-75880952D01*
X52661904Y-75690476D01*
X52709523Y-75595238D01*
X52804761Y-75500000D01*
X52947619Y-75452380D01*
X53042857Y-75452380D01*
X53185714Y-75500000D01*
X53233333Y-75547619D01*
X54090476Y-75452380D02*
X53900000Y-75452380D01*
X53804761Y-75500000D01*
X53757142Y-75547619D01*
X53661904Y-75690476D01*
X53614285Y-75880952D01*
X53614285Y-76261904D01*
X53661904Y-76357142D01*
X53709523Y-76404761D01*
X53804761Y-76452380D01*
X53995238Y-76452380D01*
X54090476Y-76404761D01*
X54138095Y-76357142D01*
X54185714Y-76261904D01*
X54185714Y-76023809D01*
X54138095Y-75928571D01*
X54090476Y-75880952D01*
X53995238Y-75833333D01*
X53804761Y-75833333D01*
X53709523Y-75880952D01*
X53661904Y-75928571D01*
X53614285Y-76023809D01*
G04 #@! TO.C,C7*
X79583333Y-91607142D02*
X79535714Y-91654761D01*
X79392857Y-91702380D01*
X79297619Y-91702380D01*
X79154761Y-91654761D01*
X79059523Y-91559523D01*
X79011904Y-91464285D01*
X78964285Y-91273809D01*
X78964285Y-91130952D01*
X79011904Y-90940476D01*
X79059523Y-90845238D01*
X79154761Y-90750000D01*
X79297619Y-90702380D01*
X79392857Y-90702380D01*
X79535714Y-90750000D01*
X79583333Y-90797619D01*
X79916666Y-90702380D02*
X80583333Y-90702380D01*
X80154761Y-91702380D01*
G04 #@! TO.C,C8*
X48533333Y-75357142D02*
X48485714Y-75404761D01*
X48342857Y-75452380D01*
X48247619Y-75452380D01*
X48104761Y-75404761D01*
X48009523Y-75309523D01*
X47961904Y-75214285D01*
X47914285Y-75023809D01*
X47914285Y-74880952D01*
X47961904Y-74690476D01*
X48009523Y-74595238D01*
X48104761Y-74500000D01*
X48247619Y-74452380D01*
X48342857Y-74452380D01*
X48485714Y-74500000D01*
X48533333Y-74547619D01*
X49104761Y-74880952D02*
X49009523Y-74833333D01*
X48961904Y-74785714D01*
X48914285Y-74690476D01*
X48914285Y-74642857D01*
X48961904Y-74547619D01*
X49009523Y-74500000D01*
X49104761Y-74452380D01*
X49295238Y-74452380D01*
X49390476Y-74500000D01*
X49438095Y-74547619D01*
X49485714Y-74642857D01*
X49485714Y-74690476D01*
X49438095Y-74785714D01*
X49390476Y-74833333D01*
X49295238Y-74880952D01*
X49104761Y-74880952D01*
X49009523Y-74928571D01*
X48961904Y-74976190D01*
X48914285Y-75071428D01*
X48914285Y-75261904D01*
X48961904Y-75357142D01*
X49009523Y-75404761D01*
X49104761Y-75452380D01*
X49295238Y-75452380D01*
X49390476Y-75404761D01*
X49438095Y-75357142D01*
X49485714Y-75261904D01*
X49485714Y-75071428D01*
X49438095Y-74976190D01*
X49390476Y-74928571D01*
X49295238Y-74880952D01*
G04 #@! TO.C,C16*
X79357142Y-88857142D02*
X79309523Y-88904761D01*
X79166666Y-88952380D01*
X79071428Y-88952380D01*
X78928571Y-88904761D01*
X78833333Y-88809523D01*
X78785714Y-88714285D01*
X78738095Y-88523809D01*
X78738095Y-88380952D01*
X78785714Y-88190476D01*
X78833333Y-88095238D01*
X78928571Y-88000000D01*
X79071428Y-87952380D01*
X79166666Y-87952380D01*
X79309523Y-88000000D01*
X79357142Y-88047619D01*
X80309523Y-88952380D02*
X79738095Y-88952380D01*
X80023809Y-88952380D02*
X80023809Y-87952380D01*
X79928571Y-88095238D01*
X79833333Y-88190476D01*
X79738095Y-88238095D01*
X81166666Y-87952380D02*
X80976190Y-87952380D01*
X80880952Y-88000000D01*
X80833333Y-88047619D01*
X80738095Y-88190476D01*
X80690476Y-88380952D01*
X80690476Y-88761904D01*
X80738095Y-88857142D01*
X80785714Y-88904761D01*
X80880952Y-88952380D01*
X81071428Y-88952380D01*
X81166666Y-88904761D01*
X81214285Y-88857142D01*
X81261904Y-88761904D01*
X81261904Y-88523809D01*
X81214285Y-88428571D01*
X81166666Y-88380952D01*
X81071428Y-88333333D01*
X80880952Y-88333333D01*
X80785714Y-88380952D01*
X80738095Y-88428571D01*
X80690476Y-88523809D01*
G04 #@! TO.C,C19*
X79477142Y-97517142D02*
X79429523Y-97564761D01*
X79286666Y-97612380D01*
X79191428Y-97612380D01*
X79048571Y-97564761D01*
X78953333Y-97469523D01*
X78905714Y-97374285D01*
X78858095Y-97183809D01*
X78858095Y-97040952D01*
X78905714Y-96850476D01*
X78953333Y-96755238D01*
X79048571Y-96660000D01*
X79191428Y-96612380D01*
X79286666Y-96612380D01*
X79429523Y-96660000D01*
X79477142Y-96707619D01*
X80429523Y-97612380D02*
X79858095Y-97612380D01*
X80143809Y-97612380D02*
X80143809Y-96612380D01*
X80048571Y-96755238D01*
X79953333Y-96850476D01*
X79858095Y-96898095D01*
X80905714Y-97612380D02*
X81096190Y-97612380D01*
X81191428Y-97564761D01*
X81239047Y-97517142D01*
X81334285Y-97374285D01*
X81381904Y-97183809D01*
X81381904Y-96802857D01*
X81334285Y-96707619D01*
X81286666Y-96660000D01*
X81191428Y-96612380D01*
X81000952Y-96612380D01*
X80905714Y-96660000D01*
X80858095Y-96707619D01*
X80810476Y-96802857D01*
X80810476Y-97040952D01*
X80858095Y-97136190D01*
X80905714Y-97183809D01*
X81000952Y-97231428D01*
X81191428Y-97231428D01*
X81286666Y-97183809D01*
X81334285Y-97136190D01*
X81381904Y-97040952D01*
G04 #@! TO.C,C21*
X73527142Y-105007142D02*
X73479523Y-105054761D01*
X73336666Y-105102380D01*
X73241428Y-105102380D01*
X73098571Y-105054761D01*
X73003333Y-104959523D01*
X72955714Y-104864285D01*
X72908095Y-104673809D01*
X72908095Y-104530952D01*
X72955714Y-104340476D01*
X73003333Y-104245238D01*
X73098571Y-104150000D01*
X73241428Y-104102380D01*
X73336666Y-104102380D01*
X73479523Y-104150000D01*
X73527142Y-104197619D01*
X73908095Y-104197619D02*
X73955714Y-104150000D01*
X74050952Y-104102380D01*
X74289047Y-104102380D01*
X74384285Y-104150000D01*
X74431904Y-104197619D01*
X74479523Y-104292857D01*
X74479523Y-104388095D01*
X74431904Y-104530952D01*
X73860476Y-105102380D01*
X74479523Y-105102380D01*
X75431904Y-105102380D02*
X74860476Y-105102380D01*
X75146190Y-105102380D02*
X75146190Y-104102380D01*
X75050952Y-104245238D01*
X74955714Y-104340476D01*
X74860476Y-104388095D01*
G04 #@! TO.C,C22*
X75897142Y-103507142D02*
X75849523Y-103554761D01*
X75706666Y-103602380D01*
X75611428Y-103602380D01*
X75468571Y-103554761D01*
X75373333Y-103459523D01*
X75325714Y-103364285D01*
X75278095Y-103173809D01*
X75278095Y-103030952D01*
X75325714Y-102840476D01*
X75373333Y-102745238D01*
X75468571Y-102650000D01*
X75611428Y-102602380D01*
X75706666Y-102602380D01*
X75849523Y-102650000D01*
X75897142Y-102697619D01*
X76278095Y-102697619D02*
X76325714Y-102650000D01*
X76420952Y-102602380D01*
X76659047Y-102602380D01*
X76754285Y-102650000D01*
X76801904Y-102697619D01*
X76849523Y-102792857D01*
X76849523Y-102888095D01*
X76801904Y-103030952D01*
X76230476Y-103602380D01*
X76849523Y-103602380D01*
X77230476Y-102697619D02*
X77278095Y-102650000D01*
X77373333Y-102602380D01*
X77611428Y-102602380D01*
X77706666Y-102650000D01*
X77754285Y-102697619D01*
X77801904Y-102792857D01*
X77801904Y-102888095D01*
X77754285Y-103030952D01*
X77182857Y-103602380D01*
X77801904Y-103602380D01*
G04 #@! TO.C,C24*
X70427142Y-101897142D02*
X70379523Y-101944761D01*
X70236666Y-101992380D01*
X70141428Y-101992380D01*
X69998571Y-101944761D01*
X69903333Y-101849523D01*
X69855714Y-101754285D01*
X69808095Y-101563809D01*
X69808095Y-101420952D01*
X69855714Y-101230476D01*
X69903333Y-101135238D01*
X69998571Y-101040000D01*
X70141428Y-100992380D01*
X70236666Y-100992380D01*
X70379523Y-101040000D01*
X70427142Y-101087619D01*
X70808095Y-101087619D02*
X70855714Y-101040000D01*
X70950952Y-100992380D01*
X71189047Y-100992380D01*
X71284285Y-101040000D01*
X71331904Y-101087619D01*
X71379523Y-101182857D01*
X71379523Y-101278095D01*
X71331904Y-101420952D01*
X70760476Y-101992380D01*
X71379523Y-101992380D01*
X72236666Y-101325714D02*
X72236666Y-101992380D01*
X71998571Y-100944761D02*
X71760476Y-101659047D01*
X72379523Y-101659047D01*
G04 #@! TO.C,C25*
D12*
X69207857Y-103807857D02*
X69172142Y-103843571D01*
X69065000Y-103879285D01*
X68993571Y-103879285D01*
X68886428Y-103843571D01*
X68815000Y-103772142D01*
X68779285Y-103700714D01*
X68743571Y-103557857D01*
X68743571Y-103450714D01*
X68779285Y-103307857D01*
X68815000Y-103236428D01*
X68886428Y-103165000D01*
X68993571Y-103129285D01*
X69065000Y-103129285D01*
X69172142Y-103165000D01*
X69207857Y-103200714D01*
X69493571Y-103200714D02*
X69529285Y-103165000D01*
X69600714Y-103129285D01*
X69779285Y-103129285D01*
X69850714Y-103165000D01*
X69886428Y-103200714D01*
X69922142Y-103272142D01*
X69922142Y-103343571D01*
X69886428Y-103450714D01*
X69457857Y-103879285D01*
X69922142Y-103879285D01*
X70600714Y-103129285D02*
X70243571Y-103129285D01*
X70207857Y-103486428D01*
X70243571Y-103450714D01*
X70315000Y-103415000D01*
X70493571Y-103415000D01*
X70565000Y-103450714D01*
X70600714Y-103486428D01*
X70636428Y-103557857D01*
X70636428Y-103736428D01*
X70600714Y-103807857D01*
X70565000Y-103843571D01*
X70493571Y-103879285D01*
X70315000Y-103879285D01*
X70243571Y-103843571D01*
X70207857Y-103807857D01*
G04 #@! TO.C,C26*
D10*
X66237142Y-77247142D02*
X66189523Y-77294761D01*
X66046666Y-77342380D01*
X65951428Y-77342380D01*
X65808571Y-77294761D01*
X65713333Y-77199523D01*
X65665714Y-77104285D01*
X65618095Y-76913809D01*
X65618095Y-76770952D01*
X65665714Y-76580476D01*
X65713333Y-76485238D01*
X65808571Y-76390000D01*
X65951428Y-76342380D01*
X66046666Y-76342380D01*
X66189523Y-76390000D01*
X66237142Y-76437619D01*
X66618095Y-76437619D02*
X66665714Y-76390000D01*
X66760952Y-76342380D01*
X66999047Y-76342380D01*
X67094285Y-76390000D01*
X67141904Y-76437619D01*
X67189523Y-76532857D01*
X67189523Y-76628095D01*
X67141904Y-76770952D01*
X66570476Y-77342380D01*
X67189523Y-77342380D01*
X68046666Y-76342380D02*
X67856190Y-76342380D01*
X67760952Y-76390000D01*
X67713333Y-76437619D01*
X67618095Y-76580476D01*
X67570476Y-76770952D01*
X67570476Y-77151904D01*
X67618095Y-77247142D01*
X67665714Y-77294761D01*
X67760952Y-77342380D01*
X67951428Y-77342380D01*
X68046666Y-77294761D01*
X68094285Y-77247142D01*
X68141904Y-77151904D01*
X68141904Y-76913809D01*
X68094285Y-76818571D01*
X68046666Y-76770952D01*
X67951428Y-76723333D01*
X67760952Y-76723333D01*
X67665714Y-76770952D01*
X67618095Y-76818571D01*
X67570476Y-76913809D01*
G04 #@! TO.C,C27*
X72077142Y-79227142D02*
X72029523Y-79274761D01*
X71886666Y-79322380D01*
X71791428Y-79322380D01*
X71648571Y-79274761D01*
X71553333Y-79179523D01*
X71505714Y-79084285D01*
X71458095Y-78893809D01*
X71458095Y-78750952D01*
X71505714Y-78560476D01*
X71553333Y-78465238D01*
X71648571Y-78370000D01*
X71791428Y-78322380D01*
X71886666Y-78322380D01*
X72029523Y-78370000D01*
X72077142Y-78417619D01*
X72458095Y-78417619D02*
X72505714Y-78370000D01*
X72600952Y-78322380D01*
X72839047Y-78322380D01*
X72934285Y-78370000D01*
X72981904Y-78417619D01*
X73029523Y-78512857D01*
X73029523Y-78608095D01*
X72981904Y-78750952D01*
X72410476Y-79322380D01*
X73029523Y-79322380D01*
X73362857Y-78322380D02*
X74029523Y-78322380D01*
X73600952Y-79322380D01*
G04 #@! TO.C,D2*
X94161904Y-90252380D02*
X94161904Y-89252380D01*
X94400000Y-89252380D01*
X94542857Y-89300000D01*
X94638095Y-89395238D01*
X94685714Y-89490476D01*
X94733333Y-89680952D01*
X94733333Y-89823809D01*
X94685714Y-90014285D01*
X94638095Y-90109523D01*
X94542857Y-90204761D01*
X94400000Y-90252380D01*
X94161904Y-90252380D01*
X95114285Y-89347619D02*
X95161904Y-89300000D01*
X95257142Y-89252380D01*
X95495238Y-89252380D01*
X95590476Y-89300000D01*
X95638095Y-89347619D01*
X95685714Y-89442857D01*
X95685714Y-89538095D01*
X95638095Y-89680952D01*
X95066666Y-90252380D01*
X95685714Y-90252380D01*
G04 #@! TO.C,D3*
X44452380Y-83738095D02*
X43452380Y-83738095D01*
X43452380Y-83500000D01*
X43500000Y-83357142D01*
X43595238Y-83261904D01*
X43690476Y-83214285D01*
X43880952Y-83166666D01*
X44023809Y-83166666D01*
X44214285Y-83214285D01*
X44309523Y-83261904D01*
X44404761Y-83357142D01*
X44452380Y-83500000D01*
X44452380Y-83738095D01*
X43452380Y-82833333D02*
X43452380Y-82214285D01*
X43833333Y-82547619D01*
X43833333Y-82404761D01*
X43880952Y-82309523D01*
X43928571Y-82261904D01*
X44023809Y-82214285D01*
X44261904Y-82214285D01*
X44357142Y-82261904D01*
X44404761Y-82309523D01*
X44452380Y-82404761D01*
X44452380Y-82690476D01*
X44404761Y-82785714D01*
X44357142Y-82833333D01*
G04 #@! TO.C,D5*
X44452380Y-98238095D02*
X43452380Y-98238095D01*
X43452380Y-98000000D01*
X43500000Y-97857142D01*
X43595238Y-97761904D01*
X43690476Y-97714285D01*
X43880952Y-97666666D01*
X44023809Y-97666666D01*
X44214285Y-97714285D01*
X44309523Y-97761904D01*
X44404761Y-97857142D01*
X44452380Y-98000000D01*
X44452380Y-98238095D01*
X43452380Y-96761904D02*
X43452380Y-97238095D01*
X43928571Y-97285714D01*
X43880952Y-97238095D01*
X43833333Y-97142857D01*
X43833333Y-96904761D01*
X43880952Y-96809523D01*
X43928571Y-96761904D01*
X44023809Y-96714285D01*
X44261904Y-96714285D01*
X44357142Y-96761904D01*
X44404761Y-96809523D01*
X44452380Y-96904761D01*
X44452380Y-97142857D01*
X44404761Y-97238095D01*
X44357142Y-97285714D01*
G04 #@! TO.C,D6*
X76061904Y-75552380D02*
X76061904Y-74552380D01*
X76300000Y-74552380D01*
X76442857Y-74600000D01*
X76538095Y-74695238D01*
X76585714Y-74790476D01*
X76633333Y-74980952D01*
X76633333Y-75123809D01*
X76585714Y-75314285D01*
X76538095Y-75409523D01*
X76442857Y-75504761D01*
X76300000Y-75552380D01*
X76061904Y-75552380D01*
X77490476Y-74552380D02*
X77300000Y-74552380D01*
X77204761Y-74600000D01*
X77157142Y-74647619D01*
X77061904Y-74790476D01*
X77014285Y-74980952D01*
X77014285Y-75361904D01*
X77061904Y-75457142D01*
X77109523Y-75504761D01*
X77204761Y-75552380D01*
X77395238Y-75552380D01*
X77490476Y-75504761D01*
X77538095Y-75457142D01*
X77585714Y-75361904D01*
X77585714Y-75123809D01*
X77538095Y-75028571D01*
X77490476Y-74980952D01*
X77395238Y-74933333D01*
X77204761Y-74933333D01*
X77109523Y-74980952D01*
X77061904Y-75028571D01*
X77014285Y-75123809D01*
G04 #@! TO.C,D7*
X44452380Y-100238095D02*
X43452380Y-100238095D01*
X43452380Y-100000000D01*
X43500000Y-99857142D01*
X43595238Y-99761904D01*
X43690476Y-99714285D01*
X43880952Y-99666666D01*
X44023809Y-99666666D01*
X44214285Y-99714285D01*
X44309523Y-99761904D01*
X44404761Y-99857142D01*
X44452380Y-100000000D01*
X44452380Y-100238095D01*
X43452380Y-99333333D02*
X43452380Y-98666666D01*
X44452380Y-99095238D01*
G04 #@! TO.C,D8*
X58361904Y-102302380D02*
X58361904Y-101302380D01*
X58600000Y-101302380D01*
X58742857Y-101350000D01*
X58838095Y-101445238D01*
X58885714Y-101540476D01*
X58933333Y-101730952D01*
X58933333Y-101873809D01*
X58885714Y-102064285D01*
X58838095Y-102159523D01*
X58742857Y-102254761D01*
X58600000Y-102302380D01*
X58361904Y-102302380D01*
X59504761Y-101730952D02*
X59409523Y-101683333D01*
X59361904Y-101635714D01*
X59314285Y-101540476D01*
X59314285Y-101492857D01*
X59361904Y-101397619D01*
X59409523Y-101350000D01*
X59504761Y-101302380D01*
X59695238Y-101302380D01*
X59790476Y-101350000D01*
X59838095Y-101397619D01*
X59885714Y-101492857D01*
X59885714Y-101540476D01*
X59838095Y-101635714D01*
X59790476Y-101683333D01*
X59695238Y-101730952D01*
X59504761Y-101730952D01*
X59409523Y-101778571D01*
X59361904Y-101826190D01*
X59314285Y-101921428D01*
X59314285Y-102111904D01*
X59361904Y-102207142D01*
X59409523Y-102254761D01*
X59504761Y-102302380D01*
X59695238Y-102302380D01*
X59790476Y-102254761D01*
X59838095Y-102207142D01*
X59885714Y-102111904D01*
X59885714Y-101921428D01*
X59838095Y-101826190D01*
X59790476Y-101778571D01*
X59695238Y-101730952D01*
G04 #@! TO.C,D9*
X58781904Y-103642380D02*
X58781904Y-102642380D01*
X59020000Y-102642380D01*
X59162857Y-102690000D01*
X59258095Y-102785238D01*
X59305714Y-102880476D01*
X59353333Y-103070952D01*
X59353333Y-103213809D01*
X59305714Y-103404285D01*
X59258095Y-103499523D01*
X59162857Y-103594761D01*
X59020000Y-103642380D01*
X58781904Y-103642380D01*
X59829523Y-103642380D02*
X60020000Y-103642380D01*
X60115238Y-103594761D01*
X60162857Y-103547142D01*
X60258095Y-103404285D01*
X60305714Y-103213809D01*
X60305714Y-102832857D01*
X60258095Y-102737619D01*
X60210476Y-102690000D01*
X60115238Y-102642380D01*
X59924761Y-102642380D01*
X59829523Y-102690000D01*
X59781904Y-102737619D01*
X59734285Y-102832857D01*
X59734285Y-103070952D01*
X59781904Y-103166190D01*
X59829523Y-103213809D01*
X59924761Y-103261428D01*
X60115238Y-103261428D01*
X60210476Y-103213809D01*
X60258095Y-103166190D01*
X60305714Y-103070952D01*
G04 #@! TO.C,D10*
X44452380Y-81714285D02*
X43452380Y-81714285D01*
X43452380Y-81476190D01*
X43500000Y-81333333D01*
X43595238Y-81238095D01*
X43690476Y-81190476D01*
X43880952Y-81142857D01*
X44023809Y-81142857D01*
X44214285Y-81190476D01*
X44309523Y-81238095D01*
X44404761Y-81333333D01*
X44452380Y-81476190D01*
X44452380Y-81714285D01*
X44452380Y-80190476D02*
X44452380Y-80761904D01*
X44452380Y-80476190D02*
X43452380Y-80476190D01*
X43595238Y-80571428D01*
X43690476Y-80666666D01*
X43738095Y-80761904D01*
X43452380Y-79571428D02*
X43452380Y-79476190D01*
X43500000Y-79380952D01*
X43547619Y-79333333D01*
X43642857Y-79285714D01*
X43833333Y-79238095D01*
X44071428Y-79238095D01*
X44261904Y-79285714D01*
X44357142Y-79333333D01*
X44404761Y-79380952D01*
X44452380Y-79476190D01*
X44452380Y-79571428D01*
X44404761Y-79666666D01*
X44357142Y-79714285D01*
X44261904Y-79761904D01*
X44071428Y-79809523D01*
X43833333Y-79809523D01*
X43642857Y-79761904D01*
X43547619Y-79714285D01*
X43500000Y-79666666D01*
X43452380Y-79571428D01*
G04 #@! TO.C,F1*
X92966666Y-95328571D02*
X92633333Y-95328571D01*
X92633333Y-95852380D02*
X92633333Y-94852380D01*
X93109523Y-94852380D01*
X94014285Y-95852380D02*
X93442857Y-95852380D01*
X93728571Y-95852380D02*
X93728571Y-94852380D01*
X93633333Y-94995238D01*
X93538095Y-95090476D01*
X93442857Y-95138095D01*
G04 #@! TO.C,J1*
X76966666Y-72752380D02*
X76966666Y-73466666D01*
X76919047Y-73609523D01*
X76823809Y-73704761D01*
X76680952Y-73752380D01*
X76585714Y-73752380D01*
X77966666Y-73752380D02*
X77395238Y-73752380D01*
X77680952Y-73752380D02*
X77680952Y-72752380D01*
X77585714Y-72895238D01*
X77490476Y-72990476D01*
X77395238Y-73038095D01*
G04 #@! TO.C,J2*
X97366666Y-97552380D02*
X97366666Y-98266666D01*
X97319047Y-98409523D01*
X97223809Y-98504761D01*
X97080952Y-98552380D01*
X96985714Y-98552380D01*
X97795238Y-97647619D02*
X97842857Y-97600000D01*
X97938095Y-97552380D01*
X98176190Y-97552380D01*
X98271428Y-97600000D01*
X98319047Y-97647619D01*
X98366666Y-97742857D01*
X98366666Y-97838095D01*
X98319047Y-97980952D01*
X97747619Y-98552380D01*
X98366666Y-98552380D01*
G04 #@! TO.C,J3*
X48566666Y-107952380D02*
X48566666Y-108666666D01*
X48519047Y-108809523D01*
X48423809Y-108904761D01*
X48280952Y-108952380D01*
X48185714Y-108952380D01*
X48947619Y-107952380D02*
X49566666Y-107952380D01*
X49233333Y-108333333D01*
X49376190Y-108333333D01*
X49471428Y-108380952D01*
X49519047Y-108428571D01*
X49566666Y-108523809D01*
X49566666Y-108761904D01*
X49519047Y-108857142D01*
X49471428Y-108904761D01*
X49376190Y-108952380D01*
X49090476Y-108952380D01*
X48995238Y-108904761D01*
X48947619Y-108857142D01*
G04 #@! TO.C,J5*
X55216666Y-108042380D02*
X55216666Y-108756666D01*
X55169047Y-108899523D01*
X55073809Y-108994761D01*
X54930952Y-109042380D01*
X54835714Y-109042380D01*
X56169047Y-108042380D02*
X55692857Y-108042380D01*
X55645238Y-108518571D01*
X55692857Y-108470952D01*
X55788095Y-108423333D01*
X56026190Y-108423333D01*
X56121428Y-108470952D01*
X56169047Y-108518571D01*
X56216666Y-108613809D01*
X56216666Y-108851904D01*
X56169047Y-108947142D01*
X56121428Y-108994761D01*
X56026190Y-109042380D01*
X55788095Y-109042380D01*
X55692857Y-108994761D01*
X55645238Y-108947142D01*
G04 #@! TO.C,J6*
X44952380Y-93333333D02*
X45666666Y-93333333D01*
X45809523Y-93380952D01*
X45904761Y-93476190D01*
X45952380Y-93619047D01*
X45952380Y-93714285D01*
X44952380Y-92428571D02*
X44952380Y-92619047D01*
X45000000Y-92714285D01*
X45047619Y-92761904D01*
X45190476Y-92857142D01*
X45380952Y-92904761D01*
X45761904Y-92904761D01*
X45857142Y-92857142D01*
X45904761Y-92809523D01*
X45952380Y-92714285D01*
X45952380Y-92523809D01*
X45904761Y-92428571D01*
X45857142Y-92380952D01*
X45761904Y-92333333D01*
X45523809Y-92333333D01*
X45428571Y-92380952D01*
X45380952Y-92428571D01*
X45333333Y-92523809D01*
X45333333Y-92714285D01*
X45380952Y-92809523D01*
X45428571Y-92857142D01*
X45523809Y-92904761D01*
G04 #@! TO.C,J7*
X54366666Y-68752380D02*
X54366666Y-69466666D01*
X54319047Y-69609523D01*
X54223809Y-69704761D01*
X54080952Y-69752380D01*
X53985714Y-69752380D01*
X54747619Y-68752380D02*
X55414285Y-68752380D01*
X54985714Y-69752380D01*
G04 #@! TO.C,L1*
X82633333Y-84352380D02*
X82157142Y-84352380D01*
X82157142Y-83352380D01*
X83490476Y-84352380D02*
X82919047Y-84352380D01*
X83204761Y-84352380D02*
X83204761Y-83352380D01*
X83109523Y-83495238D01*
X83014285Y-83590476D01*
X82919047Y-83638095D01*
G04 #@! TO.C,L2*
X75053333Y-83002380D02*
X74577142Y-83002380D01*
X74577142Y-82002380D01*
X75339047Y-82097619D02*
X75386666Y-82050000D01*
X75481904Y-82002380D01*
X75720000Y-82002380D01*
X75815238Y-82050000D01*
X75862857Y-82097619D01*
X75910476Y-82192857D01*
X75910476Y-82288095D01*
X75862857Y-82430952D01*
X75291428Y-83002380D01*
X75910476Y-83002380D01*
G04 #@! TO.C,L3*
X80233333Y-93152380D02*
X79757142Y-93152380D01*
X79757142Y-92152380D01*
X80471428Y-92152380D02*
X81090476Y-92152380D01*
X80757142Y-92533333D01*
X80900000Y-92533333D01*
X80995238Y-92580952D01*
X81042857Y-92628571D01*
X81090476Y-92723809D01*
X81090476Y-92961904D01*
X81042857Y-93057142D01*
X80995238Y-93104761D01*
X80900000Y-93152380D01*
X80614285Y-93152380D01*
X80519047Y-93104761D01*
X80471428Y-93057142D01*
G04 #@! TO.C,Q1*
X92104761Y-84047619D02*
X92009523Y-84000000D01*
X91914285Y-83904761D01*
X91771428Y-83761904D01*
X91676190Y-83714285D01*
X91580952Y-83714285D01*
X91628571Y-83952380D02*
X91533333Y-83904761D01*
X91438095Y-83809523D01*
X91390476Y-83619047D01*
X91390476Y-83285714D01*
X91438095Y-83095238D01*
X91533333Y-83000000D01*
X91628571Y-82952380D01*
X91819047Y-82952380D01*
X91914285Y-83000000D01*
X92009523Y-83095238D01*
X92057142Y-83285714D01*
X92057142Y-83619047D01*
X92009523Y-83809523D01*
X91914285Y-83904761D01*
X91819047Y-83952380D01*
X91628571Y-83952380D01*
X93009523Y-83952380D02*
X92438095Y-83952380D01*
X92723809Y-83952380D02*
X92723809Y-82952380D01*
X92628571Y-83095238D01*
X92533333Y-83190476D01*
X92438095Y-83238095D01*
G04 #@! TO.C,Q4*
X44547619Y-92595238D02*
X44500000Y-92690476D01*
X44404761Y-92785714D01*
X44261904Y-92928571D01*
X44214285Y-93023809D01*
X44214285Y-93119047D01*
X44452380Y-93071428D02*
X44404761Y-93166666D01*
X44309523Y-93261904D01*
X44119047Y-93309523D01*
X43785714Y-93309523D01*
X43595238Y-93261904D01*
X43500000Y-93166666D01*
X43452380Y-93071428D01*
X43452380Y-92880952D01*
X43500000Y-92785714D01*
X43595238Y-92690476D01*
X43785714Y-92642857D01*
X44119047Y-92642857D01*
X44309523Y-92690476D01*
X44404761Y-92785714D01*
X44452380Y-92880952D01*
X44452380Y-93071428D01*
X43785714Y-91785714D02*
X44452380Y-91785714D01*
X43404761Y-92023809D02*
X44119047Y-92261904D01*
X44119047Y-91642857D01*
G04 #@! TO.C,Q5*
X88014761Y-90447619D02*
X87919523Y-90400000D01*
X87824285Y-90304761D01*
X87681428Y-90161904D01*
X87586190Y-90114285D01*
X87490952Y-90114285D01*
X87538571Y-90352380D02*
X87443333Y-90304761D01*
X87348095Y-90209523D01*
X87300476Y-90019047D01*
X87300476Y-89685714D01*
X87348095Y-89495238D01*
X87443333Y-89400000D01*
X87538571Y-89352380D01*
X87729047Y-89352380D01*
X87824285Y-89400000D01*
X87919523Y-89495238D01*
X87967142Y-89685714D01*
X87967142Y-90019047D01*
X87919523Y-90209523D01*
X87824285Y-90304761D01*
X87729047Y-90352380D01*
X87538571Y-90352380D01*
X88871904Y-89352380D02*
X88395714Y-89352380D01*
X88348095Y-89828571D01*
X88395714Y-89780952D01*
X88490952Y-89733333D01*
X88729047Y-89733333D01*
X88824285Y-89780952D01*
X88871904Y-89828571D01*
X88919523Y-89923809D01*
X88919523Y-90161904D01*
X88871904Y-90257142D01*
X88824285Y-90304761D01*
X88729047Y-90352380D01*
X88490952Y-90352380D01*
X88395714Y-90304761D01*
X88348095Y-90257142D01*
G04 #@! TO.C,R2*
X93533333Y-82352380D02*
X93200000Y-81876190D01*
X92961904Y-82352380D02*
X92961904Y-81352380D01*
X93342857Y-81352380D01*
X93438095Y-81400000D01*
X93485714Y-81447619D01*
X93533333Y-81542857D01*
X93533333Y-81685714D01*
X93485714Y-81780952D01*
X93438095Y-81828571D01*
X93342857Y-81876190D01*
X92961904Y-81876190D01*
X93914285Y-81447619D02*
X93961904Y-81400000D01*
X94057142Y-81352380D01*
X94295238Y-81352380D01*
X94390476Y-81400000D01*
X94438095Y-81447619D01*
X94485714Y-81542857D01*
X94485714Y-81638095D01*
X94438095Y-81780952D01*
X93866666Y-82352380D01*
X94485714Y-82352380D01*
G04 #@! TO.C,R9*
X46452380Y-85666666D02*
X45976190Y-86000000D01*
X46452380Y-86238095D02*
X45452380Y-86238095D01*
X45452380Y-85857142D01*
X45500000Y-85761904D01*
X45547619Y-85714285D01*
X45642857Y-85666666D01*
X45785714Y-85666666D01*
X45880952Y-85714285D01*
X45928571Y-85761904D01*
X45976190Y-85857142D01*
X45976190Y-86238095D01*
X46452380Y-85190476D02*
X46452380Y-85000000D01*
X46404761Y-84904761D01*
X46357142Y-84857142D01*
X46214285Y-84761904D01*
X46023809Y-84714285D01*
X45642857Y-84714285D01*
X45547619Y-84761904D01*
X45500000Y-84809523D01*
X45452380Y-84904761D01*
X45452380Y-85095238D01*
X45500000Y-85190476D01*
X45547619Y-85238095D01*
X45642857Y-85285714D01*
X45880952Y-85285714D01*
X45976190Y-85238095D01*
X46023809Y-85190476D01*
X46071428Y-85095238D01*
X46071428Y-84904761D01*
X46023809Y-84809523D01*
X45976190Y-84761904D01*
X45880952Y-84714285D01*
G04 #@! TO.C,R10*
X90257142Y-85252380D02*
X89923809Y-84776190D01*
X89685714Y-85252380D02*
X89685714Y-84252380D01*
X90066666Y-84252380D01*
X90161904Y-84300000D01*
X90209523Y-84347619D01*
X90257142Y-84442857D01*
X90257142Y-84585714D01*
X90209523Y-84680952D01*
X90161904Y-84728571D01*
X90066666Y-84776190D01*
X89685714Y-84776190D01*
X91209523Y-85252380D02*
X90638095Y-85252380D01*
X90923809Y-85252380D02*
X90923809Y-84252380D01*
X90828571Y-84395238D01*
X90733333Y-84490476D01*
X90638095Y-84538095D01*
X91828571Y-84252380D02*
X91923809Y-84252380D01*
X92019047Y-84300000D01*
X92066666Y-84347619D01*
X92114285Y-84442857D01*
X92161904Y-84633333D01*
X92161904Y-84871428D01*
X92114285Y-85061904D01*
X92066666Y-85157142D01*
X92019047Y-85204761D01*
X91923809Y-85252380D01*
X91828571Y-85252380D01*
X91733333Y-85204761D01*
X91685714Y-85157142D01*
X91638095Y-85061904D01*
X91590476Y-84871428D01*
X91590476Y-84633333D01*
X91638095Y-84442857D01*
X91685714Y-84347619D01*
X91733333Y-84300000D01*
X91828571Y-84252380D01*
G04 #@! TO.C,R11*
X44452380Y-86642857D02*
X43976190Y-86976190D01*
X44452380Y-87214285D02*
X43452380Y-87214285D01*
X43452380Y-86833333D01*
X43500000Y-86738095D01*
X43547619Y-86690476D01*
X43642857Y-86642857D01*
X43785714Y-86642857D01*
X43880952Y-86690476D01*
X43928571Y-86738095D01*
X43976190Y-86833333D01*
X43976190Y-87214285D01*
X44452380Y-85690476D02*
X44452380Y-86261904D01*
X44452380Y-85976190D02*
X43452380Y-85976190D01*
X43595238Y-86071428D01*
X43690476Y-86166666D01*
X43738095Y-86261904D01*
X44452380Y-84738095D02*
X44452380Y-85309523D01*
X44452380Y-85023809D02*
X43452380Y-85023809D01*
X43595238Y-85119047D01*
X43690476Y-85214285D01*
X43738095Y-85309523D01*
G04 #@! TO.C,R14*
X91357142Y-91652380D02*
X91023809Y-91176190D01*
X90785714Y-91652380D02*
X90785714Y-90652380D01*
X91166666Y-90652380D01*
X91261904Y-90700000D01*
X91309523Y-90747619D01*
X91357142Y-90842857D01*
X91357142Y-90985714D01*
X91309523Y-91080952D01*
X91261904Y-91128571D01*
X91166666Y-91176190D01*
X90785714Y-91176190D01*
X92309523Y-91652380D02*
X91738095Y-91652380D01*
X92023809Y-91652380D02*
X92023809Y-90652380D01*
X91928571Y-90795238D01*
X91833333Y-90890476D01*
X91738095Y-90938095D01*
X93166666Y-90985714D02*
X93166666Y-91652380D01*
X92928571Y-90604761D02*
X92690476Y-91319047D01*
X93309523Y-91319047D01*
G04 #@! TO.C,R15*
X44452380Y-95642857D02*
X43976190Y-95976190D01*
X44452380Y-96214285D02*
X43452380Y-96214285D01*
X43452380Y-95833333D01*
X43500000Y-95738095D01*
X43547619Y-95690476D01*
X43642857Y-95642857D01*
X43785714Y-95642857D01*
X43880952Y-95690476D01*
X43928571Y-95738095D01*
X43976190Y-95833333D01*
X43976190Y-96214285D01*
X44452380Y-94690476D02*
X44452380Y-95261904D01*
X44452380Y-94976190D02*
X43452380Y-94976190D01*
X43595238Y-95071428D01*
X43690476Y-95166666D01*
X43738095Y-95261904D01*
X43452380Y-93785714D02*
X43452380Y-94261904D01*
X43928571Y-94309523D01*
X43880952Y-94261904D01*
X43833333Y-94166666D01*
X43833333Y-93928571D01*
X43880952Y-93833333D01*
X43928571Y-93785714D01*
X44023809Y-93738095D01*
X44261904Y-93738095D01*
X44357142Y-93785714D01*
X44404761Y-93833333D01*
X44452380Y-93928571D01*
X44452380Y-94166666D01*
X44404761Y-94261904D01*
X44357142Y-94309523D01*
G04 #@! TO.C,R18*
X67657142Y-107202380D02*
X67323809Y-106726190D01*
X67085714Y-107202380D02*
X67085714Y-106202380D01*
X67466666Y-106202380D01*
X67561904Y-106250000D01*
X67609523Y-106297619D01*
X67657142Y-106392857D01*
X67657142Y-106535714D01*
X67609523Y-106630952D01*
X67561904Y-106678571D01*
X67466666Y-106726190D01*
X67085714Y-106726190D01*
X68609523Y-107202380D02*
X68038095Y-107202380D01*
X68323809Y-107202380D02*
X68323809Y-106202380D01*
X68228571Y-106345238D01*
X68133333Y-106440476D01*
X68038095Y-106488095D01*
X69180952Y-106630952D02*
X69085714Y-106583333D01*
X69038095Y-106535714D01*
X68990476Y-106440476D01*
X68990476Y-106392857D01*
X69038095Y-106297619D01*
X69085714Y-106250000D01*
X69180952Y-106202380D01*
X69371428Y-106202380D01*
X69466666Y-106250000D01*
X69514285Y-106297619D01*
X69561904Y-106392857D01*
X69561904Y-106440476D01*
X69514285Y-106535714D01*
X69466666Y-106583333D01*
X69371428Y-106630952D01*
X69180952Y-106630952D01*
X69085714Y-106678571D01*
X69038095Y-106726190D01*
X68990476Y-106821428D01*
X68990476Y-107011904D01*
X69038095Y-107107142D01*
X69085714Y-107154761D01*
X69180952Y-107202380D01*
X69371428Y-107202380D01*
X69466666Y-107154761D01*
X69514285Y-107107142D01*
X69561904Y-107011904D01*
X69561904Y-106821428D01*
X69514285Y-106726190D01*
X69466666Y-106678571D01*
X69371428Y-106630952D01*
G04 #@! TO.C,R21*
X55767142Y-104682380D02*
X55433809Y-104206190D01*
X55195714Y-104682380D02*
X55195714Y-103682380D01*
X55576666Y-103682380D01*
X55671904Y-103730000D01*
X55719523Y-103777619D01*
X55767142Y-103872857D01*
X55767142Y-104015714D01*
X55719523Y-104110952D01*
X55671904Y-104158571D01*
X55576666Y-104206190D01*
X55195714Y-104206190D01*
X56148095Y-103777619D02*
X56195714Y-103730000D01*
X56290952Y-103682380D01*
X56529047Y-103682380D01*
X56624285Y-103730000D01*
X56671904Y-103777619D01*
X56719523Y-103872857D01*
X56719523Y-103968095D01*
X56671904Y-104110952D01*
X56100476Y-104682380D01*
X56719523Y-104682380D01*
X57671904Y-104682380D02*
X57100476Y-104682380D01*
X57386190Y-104682380D02*
X57386190Y-103682380D01*
X57290952Y-103825238D01*
X57195714Y-103920476D01*
X57100476Y-103968095D01*
G04 #@! TO.C,R28*
X62812142Y-106487380D02*
X62478809Y-106011190D01*
X62240714Y-106487380D02*
X62240714Y-105487380D01*
X62621666Y-105487380D01*
X62716904Y-105535000D01*
X62764523Y-105582619D01*
X62812142Y-105677857D01*
X62812142Y-105820714D01*
X62764523Y-105915952D01*
X62716904Y-105963571D01*
X62621666Y-106011190D01*
X62240714Y-106011190D01*
X63193095Y-105582619D02*
X63240714Y-105535000D01*
X63335952Y-105487380D01*
X63574047Y-105487380D01*
X63669285Y-105535000D01*
X63716904Y-105582619D01*
X63764523Y-105677857D01*
X63764523Y-105773095D01*
X63716904Y-105915952D01*
X63145476Y-106487380D01*
X63764523Y-106487380D01*
X64335952Y-105915952D02*
X64240714Y-105868333D01*
X64193095Y-105820714D01*
X64145476Y-105725476D01*
X64145476Y-105677857D01*
X64193095Y-105582619D01*
X64240714Y-105535000D01*
X64335952Y-105487380D01*
X64526428Y-105487380D01*
X64621666Y-105535000D01*
X64669285Y-105582619D01*
X64716904Y-105677857D01*
X64716904Y-105725476D01*
X64669285Y-105820714D01*
X64621666Y-105868333D01*
X64526428Y-105915952D01*
X64335952Y-105915952D01*
X64240714Y-105963571D01*
X64193095Y-106011190D01*
X64145476Y-106106428D01*
X64145476Y-106296904D01*
X64193095Y-106392142D01*
X64240714Y-106439761D01*
X64335952Y-106487380D01*
X64526428Y-106487380D01*
X64621666Y-106439761D01*
X64669285Y-106392142D01*
X64716904Y-106296904D01*
X64716904Y-106106428D01*
X64669285Y-106011190D01*
X64621666Y-105963571D01*
X64526428Y-105915952D01*
G04 #@! TO.C,R30*
X61857142Y-104562380D02*
X61523809Y-104086190D01*
X61285714Y-104562380D02*
X61285714Y-103562380D01*
X61666666Y-103562380D01*
X61761904Y-103610000D01*
X61809523Y-103657619D01*
X61857142Y-103752857D01*
X61857142Y-103895714D01*
X61809523Y-103990952D01*
X61761904Y-104038571D01*
X61666666Y-104086190D01*
X61285714Y-104086190D01*
X62190476Y-103562380D02*
X62809523Y-103562380D01*
X62476190Y-103943333D01*
X62619047Y-103943333D01*
X62714285Y-103990952D01*
X62761904Y-104038571D01*
X62809523Y-104133809D01*
X62809523Y-104371904D01*
X62761904Y-104467142D01*
X62714285Y-104514761D01*
X62619047Y-104562380D01*
X62333333Y-104562380D01*
X62238095Y-104514761D01*
X62190476Y-104467142D01*
X63428571Y-103562380D02*
X63523809Y-103562380D01*
X63619047Y-103610000D01*
X63666666Y-103657619D01*
X63714285Y-103752857D01*
X63761904Y-103943333D01*
X63761904Y-104181428D01*
X63714285Y-104371904D01*
X63666666Y-104467142D01*
X63619047Y-104514761D01*
X63523809Y-104562380D01*
X63428571Y-104562380D01*
X63333333Y-104514761D01*
X63285714Y-104467142D01*
X63238095Y-104371904D01*
X63190476Y-104181428D01*
X63190476Y-103943333D01*
X63238095Y-103752857D01*
X63285714Y-103657619D01*
X63333333Y-103610000D01*
X63428571Y-103562380D01*
G04 #@! TO.C,SW1*
X62916666Y-74654761D02*
X63059523Y-74702380D01*
X63297619Y-74702380D01*
X63392857Y-74654761D01*
X63440476Y-74607142D01*
X63488095Y-74511904D01*
X63488095Y-74416666D01*
X63440476Y-74321428D01*
X63392857Y-74273809D01*
X63297619Y-74226190D01*
X63107142Y-74178571D01*
X63011904Y-74130952D01*
X62964285Y-74083333D01*
X62916666Y-73988095D01*
X62916666Y-73892857D01*
X62964285Y-73797619D01*
X63011904Y-73750000D01*
X63107142Y-73702380D01*
X63345238Y-73702380D01*
X63488095Y-73750000D01*
X63821428Y-73702380D02*
X64059523Y-74702380D01*
X64250000Y-73988095D01*
X64440476Y-74702380D01*
X64678571Y-73702380D01*
X65583333Y-74702380D02*
X65011904Y-74702380D01*
X65297619Y-74702380D02*
X65297619Y-73702380D01*
X65202380Y-73845238D01*
X65107142Y-73940476D01*
X65011904Y-73988095D01*
G04 #@! TO.C,SW2*
X51716666Y-104304761D02*
X51859523Y-104352380D01*
X52097619Y-104352380D01*
X52192857Y-104304761D01*
X52240476Y-104257142D01*
X52288095Y-104161904D01*
X52288095Y-104066666D01*
X52240476Y-103971428D01*
X52192857Y-103923809D01*
X52097619Y-103876190D01*
X51907142Y-103828571D01*
X51811904Y-103780952D01*
X51764285Y-103733333D01*
X51716666Y-103638095D01*
X51716666Y-103542857D01*
X51764285Y-103447619D01*
X51811904Y-103400000D01*
X51907142Y-103352380D01*
X52145238Y-103352380D01*
X52288095Y-103400000D01*
X52621428Y-103352380D02*
X52859523Y-104352380D01*
X53050000Y-103638095D01*
X53240476Y-104352380D01*
X53478571Y-103352380D01*
X53811904Y-103447619D02*
X53859523Y-103400000D01*
X53954761Y-103352380D01*
X54192857Y-103352380D01*
X54288095Y-103400000D01*
X54335714Y-103447619D01*
X54383333Y-103542857D01*
X54383333Y-103638095D01*
X54335714Y-103780952D01*
X53764285Y-104352380D01*
X54383333Y-104352380D01*
G04 #@! TO.C,U8*
X57788095Y-90702380D02*
X57788095Y-91511904D01*
X57835714Y-91607142D01*
X57883333Y-91654761D01*
X57978571Y-91702380D01*
X58169047Y-91702380D01*
X58264285Y-91654761D01*
X58311904Y-91607142D01*
X58359523Y-91511904D01*
X58359523Y-90702380D01*
X58978571Y-91130952D02*
X58883333Y-91083333D01*
X58835714Y-91035714D01*
X58788095Y-90940476D01*
X58788095Y-90892857D01*
X58835714Y-90797619D01*
X58883333Y-90750000D01*
X58978571Y-90702380D01*
X59169047Y-90702380D01*
X59264285Y-90750000D01*
X59311904Y-90797619D01*
X59359523Y-90892857D01*
X59359523Y-90940476D01*
X59311904Y-91035714D01*
X59264285Y-91083333D01*
X59169047Y-91130952D01*
X58978571Y-91130952D01*
X58883333Y-91178571D01*
X58835714Y-91226190D01*
X58788095Y-91321428D01*
X58788095Y-91511904D01*
X58835714Y-91607142D01*
X58883333Y-91654761D01*
X58978571Y-91702380D01*
X59169047Y-91702380D01*
X59264285Y-91654761D01*
X59311904Y-91607142D01*
X59359523Y-91511904D01*
X59359523Y-91321428D01*
X59311904Y-91226190D01*
X59264285Y-91178571D01*
X59169047Y-91130952D01*
G04 #@! TO.C,J8*
X75566666Y-84352380D02*
X75566666Y-85066666D01*
X75519047Y-85209523D01*
X75423809Y-85304761D01*
X75280952Y-85352380D01*
X75185714Y-85352380D01*
X76185714Y-84780952D02*
X76090476Y-84733333D01*
X76042857Y-84685714D01*
X75995238Y-84590476D01*
X75995238Y-84542857D01*
X76042857Y-84447619D01*
X76090476Y-84400000D01*
X76185714Y-84352380D01*
X76376190Y-84352380D01*
X76471428Y-84400000D01*
X76519047Y-84447619D01*
X76566666Y-84542857D01*
X76566666Y-84590476D01*
X76519047Y-84685714D01*
X76471428Y-84733333D01*
X76376190Y-84780952D01*
X76185714Y-84780952D01*
X76090476Y-84828571D01*
X76042857Y-84876190D01*
X75995238Y-84971428D01*
X75995238Y-85161904D01*
X76042857Y-85257142D01*
X76090476Y-85304761D01*
X76185714Y-85352380D01*
X76376190Y-85352380D01*
X76471428Y-85304761D01*
X76519047Y-85257142D01*
X76566666Y-85161904D01*
X76566666Y-84971428D01*
X76519047Y-84876190D01*
X76471428Y-84828571D01*
X76376190Y-84780952D01*
G04 #@! TO.C,J9*
X69546666Y-73392380D02*
X69546666Y-74106666D01*
X69499047Y-74249523D01*
X69403809Y-74344761D01*
X69260952Y-74392380D01*
X69165714Y-74392380D01*
X70070476Y-74392380D02*
X70260952Y-74392380D01*
X70356190Y-74344761D01*
X70403809Y-74297142D01*
X70499047Y-74154285D01*
X70546666Y-73963809D01*
X70546666Y-73582857D01*
X70499047Y-73487619D01*
X70451428Y-73440000D01*
X70356190Y-73392380D01*
X70165714Y-73392380D01*
X70070476Y-73440000D01*
X70022857Y-73487619D01*
X69975238Y-73582857D01*
X69975238Y-73820952D01*
X70022857Y-73916190D01*
X70070476Y-73963809D01*
X70165714Y-74011428D01*
X70356190Y-74011428D01*
X70451428Y-73963809D01*
X70499047Y-73916190D01*
X70546666Y-73820952D01*
G04 #@! TO.C,J10*
X57190476Y-73142380D02*
X57190476Y-73856666D01*
X57142857Y-73999523D01*
X57047619Y-74094761D01*
X56904761Y-74142380D01*
X56809523Y-74142380D01*
X58190476Y-74142380D02*
X57619047Y-74142380D01*
X57904761Y-74142380D02*
X57904761Y-73142380D01*
X57809523Y-73285238D01*
X57714285Y-73380476D01*
X57619047Y-73428095D01*
X58809523Y-73142380D02*
X58904761Y-73142380D01*
X59000000Y-73190000D01*
X59047619Y-73237619D01*
X59095238Y-73332857D01*
X59142857Y-73523333D01*
X59142857Y-73761428D01*
X59095238Y-73951904D01*
X59047619Y-74047142D01*
X59000000Y-74094761D01*
X58904761Y-74142380D01*
X58809523Y-74142380D01*
X58714285Y-74094761D01*
X58666666Y-74047142D01*
X58619047Y-73951904D01*
X58571428Y-73761428D01*
X58571428Y-73523333D01*
X58619047Y-73332857D01*
X58666666Y-73237619D01*
X58714285Y-73190000D01*
X58809523Y-73142380D01*
G04 #@! TO.C,J11*
X73340476Y-105877380D02*
X73340476Y-106591666D01*
X73292857Y-106734523D01*
X73197619Y-106829761D01*
X73054761Y-106877380D01*
X72959523Y-106877380D01*
X74340476Y-106877380D02*
X73769047Y-106877380D01*
X74054761Y-106877380D02*
X74054761Y-105877380D01*
X73959523Y-106020238D01*
X73864285Y-106115476D01*
X73769047Y-106163095D01*
X75292857Y-106877380D02*
X74721428Y-106877380D01*
X75007142Y-106877380D02*
X75007142Y-105877380D01*
X74911904Y-106020238D01*
X74816666Y-106115476D01*
X74721428Y-106163095D01*
G04 #@! TO.C,J12*
X62990476Y-76552380D02*
X62990476Y-77266666D01*
X62942857Y-77409523D01*
X62847619Y-77504761D01*
X62704761Y-77552380D01*
X62609523Y-77552380D01*
X63990476Y-77552380D02*
X63419047Y-77552380D01*
X63704761Y-77552380D02*
X63704761Y-76552380D01*
X63609523Y-76695238D01*
X63514285Y-76790476D01*
X63419047Y-76838095D01*
X64371428Y-76647619D02*
X64419047Y-76600000D01*
X64514285Y-76552380D01*
X64752380Y-76552380D01*
X64847619Y-76600000D01*
X64895238Y-76647619D01*
X64942857Y-76742857D01*
X64942857Y-76838095D01*
X64895238Y-76980952D01*
X64323809Y-77552380D01*
X64942857Y-77552380D01*
G04 #@! TO.C,J13*
X55740476Y-99792380D02*
X55740476Y-100506666D01*
X55692857Y-100649523D01*
X55597619Y-100744761D01*
X55454761Y-100792380D01*
X55359523Y-100792380D01*
X56740476Y-100792380D02*
X56169047Y-100792380D01*
X56454761Y-100792380D02*
X56454761Y-99792380D01*
X56359523Y-99935238D01*
X56264285Y-100030476D01*
X56169047Y-100078095D01*
X57073809Y-99792380D02*
X57692857Y-99792380D01*
X57359523Y-100173333D01*
X57502380Y-100173333D01*
X57597619Y-100220952D01*
X57645238Y-100268571D01*
X57692857Y-100363809D01*
X57692857Y-100601904D01*
X57645238Y-100697142D01*
X57597619Y-100744761D01*
X57502380Y-100792380D01*
X57216666Y-100792380D01*
X57121428Y-100744761D01*
X57073809Y-100697142D01*
G04 #@! TO.C,J14*
X47490476Y-106302380D02*
X47490476Y-107016666D01*
X47442857Y-107159523D01*
X47347619Y-107254761D01*
X47204761Y-107302380D01*
X47109523Y-107302380D01*
X48490476Y-107302380D02*
X47919047Y-107302380D01*
X48204761Y-107302380D02*
X48204761Y-106302380D01*
X48109523Y-106445238D01*
X48014285Y-106540476D01*
X47919047Y-106588095D01*
X49347619Y-106635714D02*
X49347619Y-107302380D01*
X49109523Y-106254761D02*
X48871428Y-106969047D01*
X49490476Y-106969047D01*
G04 #@! TO.C,J15*
X96190476Y-95452380D02*
X96190476Y-96166666D01*
X96142857Y-96309523D01*
X96047619Y-96404761D01*
X95904761Y-96452380D01*
X95809523Y-96452380D01*
X97190476Y-96452380D02*
X96619047Y-96452380D01*
X96904761Y-96452380D02*
X96904761Y-95452380D01*
X96809523Y-95595238D01*
X96714285Y-95690476D01*
X96619047Y-95738095D01*
X98095238Y-95452380D02*
X97619047Y-95452380D01*
X97571428Y-95928571D01*
X97619047Y-95880952D01*
X97714285Y-95833333D01*
X97952380Y-95833333D01*
X98047619Y-95880952D01*
X98095238Y-95928571D01*
X98142857Y-96023809D01*
X98142857Y-96261904D01*
X98095238Y-96357142D01*
X98047619Y-96404761D01*
X97952380Y-96452380D01*
X97714285Y-96452380D01*
X97619047Y-96404761D01*
X97571428Y-96357142D01*
G04 #@! TO.C,M1*
X62685476Y-100787380D02*
X62685476Y-99787380D01*
X63018809Y-100501666D01*
X63352142Y-99787380D01*
X63352142Y-100787380D01*
X64352142Y-100787380D02*
X63780714Y-100787380D01*
X64066428Y-100787380D02*
X64066428Y-99787380D01*
X63971190Y-99930238D01*
X63875952Y-100025476D01*
X63780714Y-100073095D01*
G04 #@! TD*
M02*
