%TF.GenerationSoftware,KiCad,Pcbnew,(5.1.6)-1*%
%TF.CreationDate,2020-09-30T10:21:45+09:00*%
%TF.ProjectId,schematic,73636865-6d61-4746-9963-2e6b69636164,rev?*%
%TF.SameCoordinates,Original*%
%TF.FileFunction,Legend,Bot*%
%TF.FilePolarity,Positive*%
%FSLAX46Y46*%
G04 Gerber Fmt 4.6, Leading zero omitted, Abs format (unit mm)*
G04 Created by KiCad (PCBNEW (5.1.6)-1) date 2020-09-30 10:21:45*
%MOMM*%
%LPD*%
G01*
G04 APERTURE LIST*
%ADD10C,0.150000*%
%ADD11C,0.120000*%
G04 APERTURE END LIST*
D10*
X101682843Y-63700000D02*
G75*
G03*
X101682843Y-63700000I-282843J0D01*
G01*
X97760555Y-65200000D02*
G75*
G03*
X97760555Y-65200000I-360555J0D01*
G01*
X112360555Y-79100000D02*
G75*
G03*
X112360555Y-79100000I-360555J0D01*
G01*
X112200000Y-94400000D02*
G75*
G03*
X112200000Y-94400000I-400000J0D01*
G01*
X75853553Y-93250000D02*
G75*
G03*
X75853553Y-93250000I-353553J0D01*
G01*
X62750000Y-95250000D02*
X62750000Y-96500000D01*
X62750000Y-95750000D02*
X62000000Y-95250000D01*
X62000000Y-96500000D02*
X62750000Y-95750000D01*
X62000000Y-95250000D02*
X62000000Y-96500000D01*
X74559017Y-66500000D02*
G75*
G03*
X74559017Y-66500000I-559017J0D01*
G01*
D11*
%TO.C,C1*%
X77010000Y-60671267D02*
X77010000Y-60328733D01*
X75990000Y-60671267D02*
X75990000Y-60328733D01*
%TO.C,C2*%
X80271267Y-63210000D02*
X79928733Y-63210000D01*
X80271267Y-62190000D02*
X79928733Y-62190000D01*
%TO.C,C7*%
X78528733Y-66690000D02*
X78871267Y-66690000D01*
X78528733Y-67710000D02*
X78871267Y-67710000D01*
%TO.C,C12*%
X117603733Y-99010000D02*
X117946267Y-99010000D01*
X117603733Y-97990000D02*
X117946267Y-97990000D01*
%TO.C,C16*%
X110571267Y-97510000D02*
X110228733Y-97510000D01*
X110571267Y-96490000D02*
X110228733Y-96490000D01*
%TO.C,C17*%
X90871267Y-67290000D02*
X90528733Y-67290000D01*
X90871267Y-68310000D02*
X90528733Y-68310000D01*
%TO.C,C19*%
X95590000Y-63471267D02*
X95590000Y-63128733D01*
X96610000Y-63471267D02*
X96610000Y-63128733D01*
%TO.C,C20*%
X77010000Y-80271267D02*
X77010000Y-79928733D01*
X75990000Y-80271267D02*
X75990000Y-79928733D01*
%TO.C,C26*%
X112071267Y-71690000D02*
X111728733Y-71690000D01*
X112071267Y-72710000D02*
X111728733Y-72710000D01*
%TO.C,D2*%
X64950000Y-93100000D02*
X61100000Y-93100000D01*
X64950000Y-95100000D02*
X61100000Y-95100000D01*
X64950000Y-93100000D02*
X64950000Y-95100000D01*
%TO.C,Q2*%
X102420000Y-73240000D02*
X103350000Y-73240000D01*
X105580000Y-73240000D02*
X104650000Y-73240000D01*
X105580000Y-73240000D02*
X105580000Y-75400000D01*
X102420000Y-73240000D02*
X102420000Y-74700000D01*
%TO.C,Q3*%
X97440000Y-76680000D02*
X98900000Y-76680000D01*
X97440000Y-73520000D02*
X99600000Y-73520000D01*
X97440000Y-73520000D02*
X97440000Y-74450000D01*
X97440000Y-76680000D02*
X97440000Y-75750000D01*
%TO.C,Q8*%
X112860000Y-66620000D02*
X111400000Y-66620000D01*
X112860000Y-69780000D02*
X110700000Y-69780000D01*
X112860000Y-69780000D02*
X112860000Y-68850000D01*
X112860000Y-66620000D02*
X112860000Y-67550000D01*
%TO.C,R17*%
X67590000Y-65064564D02*
X67590000Y-63860436D01*
X69410000Y-65064564D02*
X69410000Y-63860436D01*
D10*
%TO.C,U1*%
X74450000Y-66125000D02*
X76375000Y-66125000D01*
X75225000Y-62875000D02*
X76375000Y-62875000D01*
D11*
%TO.C,U3*%
X74910000Y-91200000D02*
X74910000Y-93650000D01*
X71690000Y-93000000D02*
X71690000Y-91200000D01*
D10*
%TO.C,U4*%
X112375000Y-95650000D02*
X112375000Y-97575000D01*
X115625000Y-96425000D02*
X115625000Y-97575000D01*
%TO.C,U5*%
X112575000Y-79435000D02*
X113700000Y-79435000D01*
X112575000Y-87275000D02*
X108425000Y-87275000D01*
X112575000Y-78325000D02*
X108425000Y-78325000D01*
X112575000Y-87275000D02*
X112575000Y-86165000D01*
X108425000Y-87275000D02*
X108425000Y-86165000D01*
X108425000Y-78325000D02*
X108425000Y-79435000D01*
X112575000Y-79435000D02*
X112575000Y-78325000D01*
%TO.C,U6*%
X95575000Y-68625000D02*
X94425000Y-68625000D01*
X96350000Y-65375000D02*
X94425000Y-65375000D01*
D11*
%TO.C,U9*%
X105100000Y-64100000D02*
X102100000Y-64100000D01*
X105100000Y-61900000D02*
X102900000Y-61900000D01*
%TO.C,C1*%
D10*
X74666666Y-62357142D02*
X74714285Y-62404761D01*
X74857142Y-62452380D01*
X74952380Y-62452380D01*
X75095238Y-62404761D01*
X75190476Y-62309523D01*
X75238095Y-62214285D01*
X75285714Y-62023809D01*
X75285714Y-61880952D01*
X75238095Y-61690476D01*
X75190476Y-61595238D01*
X75095238Y-61500000D01*
X74952380Y-61452380D01*
X74857142Y-61452380D01*
X74714285Y-61500000D01*
X74666666Y-61547619D01*
X73714285Y-62452380D02*
X74285714Y-62452380D01*
X74000000Y-62452380D02*
X74000000Y-61452380D01*
X74095238Y-61595238D01*
X74190476Y-61690476D01*
X74285714Y-61738095D01*
%TO.C,C2*%
X82966666Y-63057142D02*
X83014285Y-63104761D01*
X83157142Y-63152380D01*
X83252380Y-63152380D01*
X83395238Y-63104761D01*
X83490476Y-63009523D01*
X83538095Y-62914285D01*
X83585714Y-62723809D01*
X83585714Y-62580952D01*
X83538095Y-62390476D01*
X83490476Y-62295238D01*
X83395238Y-62200000D01*
X83252380Y-62152380D01*
X83157142Y-62152380D01*
X83014285Y-62200000D01*
X82966666Y-62247619D01*
X82585714Y-62247619D02*
X82538095Y-62200000D01*
X82442857Y-62152380D01*
X82204761Y-62152380D01*
X82109523Y-62200000D01*
X82061904Y-62247619D01*
X82014285Y-62342857D01*
X82014285Y-62438095D01*
X82061904Y-62580952D01*
X82633333Y-63152380D01*
X82014285Y-63152380D01*
%TO.C,C7*%
X79666666Y-65957142D02*
X79714285Y-66004761D01*
X79857142Y-66052380D01*
X79952380Y-66052380D01*
X80095238Y-66004761D01*
X80190476Y-65909523D01*
X80238095Y-65814285D01*
X80285714Y-65623809D01*
X80285714Y-65480952D01*
X80238095Y-65290476D01*
X80190476Y-65195238D01*
X80095238Y-65100000D01*
X79952380Y-65052380D01*
X79857142Y-65052380D01*
X79714285Y-65100000D01*
X79666666Y-65147619D01*
X79333333Y-65052380D02*
X78666666Y-65052380D01*
X79095238Y-66052380D01*
%TO.C,C9*%
X76066666Y-94857142D02*
X76114285Y-94904761D01*
X76257142Y-94952380D01*
X76352380Y-94952380D01*
X76495238Y-94904761D01*
X76590476Y-94809523D01*
X76638095Y-94714285D01*
X76685714Y-94523809D01*
X76685714Y-94380952D01*
X76638095Y-94190476D01*
X76590476Y-94095238D01*
X76495238Y-94000000D01*
X76352380Y-93952380D01*
X76257142Y-93952380D01*
X76114285Y-94000000D01*
X76066666Y-94047619D01*
X75590476Y-94952380D02*
X75400000Y-94952380D01*
X75304761Y-94904761D01*
X75257142Y-94857142D01*
X75161904Y-94714285D01*
X75114285Y-94523809D01*
X75114285Y-94142857D01*
X75161904Y-94047619D01*
X75209523Y-94000000D01*
X75304761Y-93952380D01*
X75495238Y-93952380D01*
X75590476Y-94000000D01*
X75638095Y-94047619D01*
X75685714Y-94142857D01*
X75685714Y-94380952D01*
X75638095Y-94476190D01*
X75590476Y-94523809D01*
X75495238Y-94571428D01*
X75304761Y-94571428D01*
X75209523Y-94523809D01*
X75161904Y-94476190D01*
X75114285Y-94380952D01*
%TO.C,C10*%
X102842857Y-84757142D02*
X102890476Y-84804761D01*
X103033333Y-84852380D01*
X103128571Y-84852380D01*
X103271428Y-84804761D01*
X103366666Y-84709523D01*
X103414285Y-84614285D01*
X103461904Y-84423809D01*
X103461904Y-84280952D01*
X103414285Y-84090476D01*
X103366666Y-83995238D01*
X103271428Y-83900000D01*
X103128571Y-83852380D01*
X103033333Y-83852380D01*
X102890476Y-83900000D01*
X102842857Y-83947619D01*
X101890476Y-84852380D02*
X102461904Y-84852380D01*
X102176190Y-84852380D02*
X102176190Y-83852380D01*
X102271428Y-83995238D01*
X102366666Y-84090476D01*
X102461904Y-84138095D01*
X101271428Y-83852380D02*
X101176190Y-83852380D01*
X101080952Y-83900000D01*
X101033333Y-83947619D01*
X100985714Y-84042857D01*
X100938095Y-84233333D01*
X100938095Y-84471428D01*
X100985714Y-84661904D01*
X101033333Y-84757142D01*
X101080952Y-84804761D01*
X101176190Y-84852380D01*
X101271428Y-84852380D01*
X101366666Y-84804761D01*
X101414285Y-84757142D01*
X101461904Y-84661904D01*
X101509523Y-84471428D01*
X101509523Y-84233333D01*
X101461904Y-84042857D01*
X101414285Y-83947619D01*
X101366666Y-83900000D01*
X101271428Y-83852380D01*
%TO.C,C12*%
X118417857Y-100287142D02*
X118465476Y-100334761D01*
X118608333Y-100382380D01*
X118703571Y-100382380D01*
X118846428Y-100334761D01*
X118941666Y-100239523D01*
X118989285Y-100144285D01*
X119036904Y-99953809D01*
X119036904Y-99810952D01*
X118989285Y-99620476D01*
X118941666Y-99525238D01*
X118846428Y-99430000D01*
X118703571Y-99382380D01*
X118608333Y-99382380D01*
X118465476Y-99430000D01*
X118417857Y-99477619D01*
X117465476Y-100382380D02*
X118036904Y-100382380D01*
X117751190Y-100382380D02*
X117751190Y-99382380D01*
X117846428Y-99525238D01*
X117941666Y-99620476D01*
X118036904Y-99668095D01*
X117084523Y-99477619D02*
X117036904Y-99430000D01*
X116941666Y-99382380D01*
X116703571Y-99382380D01*
X116608333Y-99430000D01*
X116560714Y-99477619D01*
X116513095Y-99572857D01*
X116513095Y-99668095D01*
X116560714Y-99810952D01*
X117132142Y-100382380D01*
X116513095Y-100382380D01*
%TO.C,C13*%
X102942857Y-83457142D02*
X102990476Y-83504761D01*
X103133333Y-83552380D01*
X103228571Y-83552380D01*
X103371428Y-83504761D01*
X103466666Y-83409523D01*
X103514285Y-83314285D01*
X103561904Y-83123809D01*
X103561904Y-82980952D01*
X103514285Y-82790476D01*
X103466666Y-82695238D01*
X103371428Y-82600000D01*
X103228571Y-82552380D01*
X103133333Y-82552380D01*
X102990476Y-82600000D01*
X102942857Y-82647619D01*
X101990476Y-83552380D02*
X102561904Y-83552380D01*
X102276190Y-83552380D02*
X102276190Y-82552380D01*
X102371428Y-82695238D01*
X102466666Y-82790476D01*
X102561904Y-82838095D01*
X101657142Y-82552380D02*
X101038095Y-82552380D01*
X101371428Y-82933333D01*
X101228571Y-82933333D01*
X101133333Y-82980952D01*
X101085714Y-83028571D01*
X101038095Y-83123809D01*
X101038095Y-83361904D01*
X101085714Y-83457142D01*
X101133333Y-83504761D01*
X101228571Y-83552380D01*
X101514285Y-83552380D01*
X101609523Y-83504761D01*
X101657142Y-83457142D01*
%TO.C,C14*%
X93842857Y-93057142D02*
X93890476Y-93104761D01*
X94033333Y-93152380D01*
X94128571Y-93152380D01*
X94271428Y-93104761D01*
X94366666Y-93009523D01*
X94414285Y-92914285D01*
X94461904Y-92723809D01*
X94461904Y-92580952D01*
X94414285Y-92390476D01*
X94366666Y-92295238D01*
X94271428Y-92200000D01*
X94128571Y-92152380D01*
X94033333Y-92152380D01*
X93890476Y-92200000D01*
X93842857Y-92247619D01*
X92890476Y-93152380D02*
X93461904Y-93152380D01*
X93176190Y-93152380D02*
X93176190Y-92152380D01*
X93271428Y-92295238D01*
X93366666Y-92390476D01*
X93461904Y-92438095D01*
X92033333Y-92485714D02*
X92033333Y-93152380D01*
X92271428Y-92104761D02*
X92509523Y-92819047D01*
X91890476Y-92819047D01*
%TO.C,C15*%
X63592857Y-100007142D02*
X63640476Y-100054761D01*
X63783333Y-100102380D01*
X63878571Y-100102380D01*
X64021428Y-100054761D01*
X64116666Y-99959523D01*
X64164285Y-99864285D01*
X64211904Y-99673809D01*
X64211904Y-99530952D01*
X64164285Y-99340476D01*
X64116666Y-99245238D01*
X64021428Y-99150000D01*
X63878571Y-99102380D01*
X63783333Y-99102380D01*
X63640476Y-99150000D01*
X63592857Y-99197619D01*
X62640476Y-100102380D02*
X63211904Y-100102380D01*
X62926190Y-100102380D02*
X62926190Y-99102380D01*
X63021428Y-99245238D01*
X63116666Y-99340476D01*
X63211904Y-99388095D01*
X61735714Y-99102380D02*
X62211904Y-99102380D01*
X62259523Y-99578571D01*
X62211904Y-99530952D01*
X62116666Y-99483333D01*
X61878571Y-99483333D01*
X61783333Y-99530952D01*
X61735714Y-99578571D01*
X61688095Y-99673809D01*
X61688095Y-99911904D01*
X61735714Y-100007142D01*
X61783333Y-100054761D01*
X61878571Y-100102380D01*
X62116666Y-100102380D01*
X62211904Y-100054761D01*
X62259523Y-100007142D01*
%TO.C,C16*%
X111042857Y-95927142D02*
X111090476Y-95974761D01*
X111233333Y-96022380D01*
X111328571Y-96022380D01*
X111471428Y-95974761D01*
X111566666Y-95879523D01*
X111614285Y-95784285D01*
X111661904Y-95593809D01*
X111661904Y-95450952D01*
X111614285Y-95260476D01*
X111566666Y-95165238D01*
X111471428Y-95070000D01*
X111328571Y-95022380D01*
X111233333Y-95022380D01*
X111090476Y-95070000D01*
X111042857Y-95117619D01*
X110090476Y-96022380D02*
X110661904Y-96022380D01*
X110376190Y-96022380D02*
X110376190Y-95022380D01*
X110471428Y-95165238D01*
X110566666Y-95260476D01*
X110661904Y-95308095D01*
X109233333Y-95022380D02*
X109423809Y-95022380D01*
X109519047Y-95070000D01*
X109566666Y-95117619D01*
X109661904Y-95260476D01*
X109709523Y-95450952D01*
X109709523Y-95831904D01*
X109661904Y-95927142D01*
X109614285Y-95974761D01*
X109519047Y-96022380D01*
X109328571Y-96022380D01*
X109233333Y-95974761D01*
X109185714Y-95927142D01*
X109138095Y-95831904D01*
X109138095Y-95593809D01*
X109185714Y-95498571D01*
X109233333Y-95450952D01*
X109328571Y-95403333D01*
X109519047Y-95403333D01*
X109614285Y-95450952D01*
X109661904Y-95498571D01*
X109709523Y-95593809D01*
%TO.C,C17*%
X91342857Y-66727142D02*
X91390476Y-66774761D01*
X91533333Y-66822380D01*
X91628571Y-66822380D01*
X91771428Y-66774761D01*
X91866666Y-66679523D01*
X91914285Y-66584285D01*
X91961904Y-66393809D01*
X91961904Y-66250952D01*
X91914285Y-66060476D01*
X91866666Y-65965238D01*
X91771428Y-65870000D01*
X91628571Y-65822380D01*
X91533333Y-65822380D01*
X91390476Y-65870000D01*
X91342857Y-65917619D01*
X90390476Y-66822380D02*
X90961904Y-66822380D01*
X90676190Y-66822380D02*
X90676190Y-65822380D01*
X90771428Y-65965238D01*
X90866666Y-66060476D01*
X90961904Y-66108095D01*
X90057142Y-65822380D02*
X89390476Y-65822380D01*
X89819047Y-66822380D01*
%TO.C,C18*%
X65052857Y-70777142D02*
X65100476Y-70824761D01*
X65243333Y-70872380D01*
X65338571Y-70872380D01*
X65481428Y-70824761D01*
X65576666Y-70729523D01*
X65624285Y-70634285D01*
X65671904Y-70443809D01*
X65671904Y-70300952D01*
X65624285Y-70110476D01*
X65576666Y-70015238D01*
X65481428Y-69920000D01*
X65338571Y-69872380D01*
X65243333Y-69872380D01*
X65100476Y-69920000D01*
X65052857Y-69967619D01*
X64100476Y-70872380D02*
X64671904Y-70872380D01*
X64386190Y-70872380D02*
X64386190Y-69872380D01*
X64481428Y-70015238D01*
X64576666Y-70110476D01*
X64671904Y-70158095D01*
X63529047Y-70300952D02*
X63624285Y-70253333D01*
X63671904Y-70205714D01*
X63719523Y-70110476D01*
X63719523Y-70062857D01*
X63671904Y-69967619D01*
X63624285Y-69920000D01*
X63529047Y-69872380D01*
X63338571Y-69872380D01*
X63243333Y-69920000D01*
X63195714Y-69967619D01*
X63148095Y-70062857D01*
X63148095Y-70110476D01*
X63195714Y-70205714D01*
X63243333Y-70253333D01*
X63338571Y-70300952D01*
X63529047Y-70300952D01*
X63624285Y-70348571D01*
X63671904Y-70396190D01*
X63719523Y-70491428D01*
X63719523Y-70681904D01*
X63671904Y-70777142D01*
X63624285Y-70824761D01*
X63529047Y-70872380D01*
X63338571Y-70872380D01*
X63243333Y-70824761D01*
X63195714Y-70777142D01*
X63148095Y-70681904D01*
X63148095Y-70491428D01*
X63195714Y-70396190D01*
X63243333Y-70348571D01*
X63338571Y-70300952D01*
%TO.C,C19*%
X96742857Y-61257142D02*
X96790476Y-61304761D01*
X96933333Y-61352380D01*
X97028571Y-61352380D01*
X97171428Y-61304761D01*
X97266666Y-61209523D01*
X97314285Y-61114285D01*
X97361904Y-60923809D01*
X97361904Y-60780952D01*
X97314285Y-60590476D01*
X97266666Y-60495238D01*
X97171428Y-60400000D01*
X97028571Y-60352380D01*
X96933333Y-60352380D01*
X96790476Y-60400000D01*
X96742857Y-60447619D01*
X95790476Y-61352380D02*
X96361904Y-61352380D01*
X96076190Y-61352380D02*
X96076190Y-60352380D01*
X96171428Y-60495238D01*
X96266666Y-60590476D01*
X96361904Y-60638095D01*
X95314285Y-61352380D02*
X95123809Y-61352380D01*
X95028571Y-61304761D01*
X94980952Y-61257142D01*
X94885714Y-61114285D01*
X94838095Y-60923809D01*
X94838095Y-60542857D01*
X94885714Y-60447619D01*
X94933333Y-60400000D01*
X95028571Y-60352380D01*
X95219047Y-60352380D01*
X95314285Y-60400000D01*
X95361904Y-60447619D01*
X95409523Y-60542857D01*
X95409523Y-60780952D01*
X95361904Y-60876190D01*
X95314285Y-60923809D01*
X95219047Y-60971428D01*
X95028571Y-60971428D01*
X94933333Y-60923809D01*
X94885714Y-60876190D01*
X94838095Y-60780952D01*
%TO.C,C20*%
X75357142Y-79357142D02*
X75404761Y-79309523D01*
X75452380Y-79166666D01*
X75452380Y-79071428D01*
X75404761Y-78928571D01*
X75309523Y-78833333D01*
X75214285Y-78785714D01*
X75023809Y-78738095D01*
X74880952Y-78738095D01*
X74690476Y-78785714D01*
X74595238Y-78833333D01*
X74500000Y-78928571D01*
X74452380Y-79071428D01*
X74452380Y-79166666D01*
X74500000Y-79309523D01*
X74547619Y-79357142D01*
X74547619Y-79738095D02*
X74500000Y-79785714D01*
X74452380Y-79880952D01*
X74452380Y-80119047D01*
X74500000Y-80214285D01*
X74547619Y-80261904D01*
X74642857Y-80309523D01*
X74738095Y-80309523D01*
X74880952Y-80261904D01*
X75452380Y-79690476D01*
X75452380Y-80309523D01*
X74452380Y-80928571D02*
X74452380Y-81023809D01*
X74500000Y-81119047D01*
X74547619Y-81166666D01*
X74642857Y-81214285D01*
X74833333Y-81261904D01*
X75071428Y-81261904D01*
X75261904Y-81214285D01*
X75357142Y-81166666D01*
X75404761Y-81119047D01*
X75452380Y-81023809D01*
X75452380Y-80928571D01*
X75404761Y-80833333D01*
X75357142Y-80785714D01*
X75261904Y-80738095D01*
X75071428Y-80690476D01*
X74833333Y-80690476D01*
X74642857Y-80738095D01*
X74547619Y-80785714D01*
X74500000Y-80833333D01*
X74452380Y-80928571D01*
%TO.C,C21*%
X71592857Y-68907142D02*
X71640476Y-68954761D01*
X71783333Y-69002380D01*
X71878571Y-69002380D01*
X72021428Y-68954761D01*
X72116666Y-68859523D01*
X72164285Y-68764285D01*
X72211904Y-68573809D01*
X72211904Y-68430952D01*
X72164285Y-68240476D01*
X72116666Y-68145238D01*
X72021428Y-68050000D01*
X71878571Y-68002380D01*
X71783333Y-68002380D01*
X71640476Y-68050000D01*
X71592857Y-68097619D01*
X71211904Y-68097619D02*
X71164285Y-68050000D01*
X71069047Y-68002380D01*
X70830952Y-68002380D01*
X70735714Y-68050000D01*
X70688095Y-68097619D01*
X70640476Y-68192857D01*
X70640476Y-68288095D01*
X70688095Y-68430952D01*
X71259523Y-69002380D01*
X70640476Y-69002380D01*
X69688095Y-69002380D02*
X70259523Y-69002380D01*
X69973809Y-69002380D02*
X69973809Y-68002380D01*
X70069047Y-68145238D01*
X70164285Y-68240476D01*
X70259523Y-68288095D01*
%TO.C,C26*%
X109442857Y-72657142D02*
X109490476Y-72704761D01*
X109633333Y-72752380D01*
X109728571Y-72752380D01*
X109871428Y-72704761D01*
X109966666Y-72609523D01*
X110014285Y-72514285D01*
X110061904Y-72323809D01*
X110061904Y-72180952D01*
X110014285Y-71990476D01*
X109966666Y-71895238D01*
X109871428Y-71800000D01*
X109728571Y-71752380D01*
X109633333Y-71752380D01*
X109490476Y-71800000D01*
X109442857Y-71847619D01*
X109061904Y-71847619D02*
X109014285Y-71800000D01*
X108919047Y-71752380D01*
X108680952Y-71752380D01*
X108585714Y-71800000D01*
X108538095Y-71847619D01*
X108490476Y-71942857D01*
X108490476Y-72038095D01*
X108538095Y-72180952D01*
X109109523Y-72752380D01*
X108490476Y-72752380D01*
X107633333Y-71752380D02*
X107823809Y-71752380D01*
X107919047Y-71800000D01*
X107966666Y-71847619D01*
X108061904Y-71990476D01*
X108109523Y-72180952D01*
X108109523Y-72561904D01*
X108061904Y-72657142D01*
X108014285Y-72704761D01*
X107919047Y-72752380D01*
X107728571Y-72752380D01*
X107633333Y-72704761D01*
X107585714Y-72657142D01*
X107538095Y-72561904D01*
X107538095Y-72323809D01*
X107585714Y-72228571D01*
X107633333Y-72180952D01*
X107728571Y-72133333D01*
X107919047Y-72133333D01*
X108014285Y-72180952D01*
X108061904Y-72228571D01*
X108109523Y-72323809D01*
%TO.C,D2*%
X63615095Y-92647380D02*
X63615095Y-91647380D01*
X63377000Y-91647380D01*
X63234142Y-91695000D01*
X63138904Y-91790238D01*
X63091285Y-91885476D01*
X63043666Y-92075952D01*
X63043666Y-92218809D01*
X63091285Y-92409285D01*
X63138904Y-92504523D01*
X63234142Y-92599761D01*
X63377000Y-92647380D01*
X63615095Y-92647380D01*
X62662714Y-91742619D02*
X62615095Y-91695000D01*
X62519857Y-91647380D01*
X62281761Y-91647380D01*
X62186523Y-91695000D01*
X62138904Y-91742619D01*
X62091285Y-91837857D01*
X62091285Y-91933095D01*
X62138904Y-92075952D01*
X62710333Y-92647380D01*
X62091285Y-92647380D01*
%TO.C,Q2*%
X106795238Y-73947619D02*
X106890476Y-73900000D01*
X106985714Y-73804761D01*
X107128571Y-73661904D01*
X107223809Y-73614285D01*
X107319047Y-73614285D01*
X107271428Y-73852380D02*
X107366666Y-73804761D01*
X107461904Y-73709523D01*
X107509523Y-73519047D01*
X107509523Y-73185714D01*
X107461904Y-72995238D01*
X107366666Y-72900000D01*
X107271428Y-72852380D01*
X107080952Y-72852380D01*
X106985714Y-72900000D01*
X106890476Y-72995238D01*
X106842857Y-73185714D01*
X106842857Y-73519047D01*
X106890476Y-73709523D01*
X106985714Y-73804761D01*
X107080952Y-73852380D01*
X107271428Y-73852380D01*
X106461904Y-72947619D02*
X106414285Y-72900000D01*
X106319047Y-72852380D01*
X106080952Y-72852380D01*
X105985714Y-72900000D01*
X105938095Y-72947619D01*
X105890476Y-73042857D01*
X105890476Y-73138095D01*
X105938095Y-73280952D01*
X106509523Y-73852380D01*
X105890476Y-73852380D01*
%TO.C,Q3*%
X101095238Y-74847619D02*
X101190476Y-74800000D01*
X101285714Y-74704761D01*
X101428571Y-74561904D01*
X101523809Y-74514285D01*
X101619047Y-74514285D01*
X101571428Y-74752380D02*
X101666666Y-74704761D01*
X101761904Y-74609523D01*
X101809523Y-74419047D01*
X101809523Y-74085714D01*
X101761904Y-73895238D01*
X101666666Y-73800000D01*
X101571428Y-73752380D01*
X101380952Y-73752380D01*
X101285714Y-73800000D01*
X101190476Y-73895238D01*
X101142857Y-74085714D01*
X101142857Y-74419047D01*
X101190476Y-74609523D01*
X101285714Y-74704761D01*
X101380952Y-74752380D01*
X101571428Y-74752380D01*
X100809523Y-73752380D02*
X100190476Y-73752380D01*
X100523809Y-74133333D01*
X100380952Y-74133333D01*
X100285714Y-74180952D01*
X100238095Y-74228571D01*
X100190476Y-74323809D01*
X100190476Y-74561904D01*
X100238095Y-74657142D01*
X100285714Y-74704761D01*
X100380952Y-74752380D01*
X100666666Y-74752380D01*
X100761904Y-74704761D01*
X100809523Y-74657142D01*
%TO.C,Q8*%
X112195238Y-71247619D02*
X112290476Y-71200000D01*
X112385714Y-71104761D01*
X112528571Y-70961904D01*
X112623809Y-70914285D01*
X112719047Y-70914285D01*
X112671428Y-71152380D02*
X112766666Y-71104761D01*
X112861904Y-71009523D01*
X112909523Y-70819047D01*
X112909523Y-70485714D01*
X112861904Y-70295238D01*
X112766666Y-70200000D01*
X112671428Y-70152380D01*
X112480952Y-70152380D01*
X112385714Y-70200000D01*
X112290476Y-70295238D01*
X112242857Y-70485714D01*
X112242857Y-70819047D01*
X112290476Y-71009523D01*
X112385714Y-71104761D01*
X112480952Y-71152380D01*
X112671428Y-71152380D01*
X111671428Y-70580952D02*
X111766666Y-70533333D01*
X111814285Y-70485714D01*
X111861904Y-70390476D01*
X111861904Y-70342857D01*
X111814285Y-70247619D01*
X111766666Y-70200000D01*
X111671428Y-70152380D01*
X111480952Y-70152380D01*
X111385714Y-70200000D01*
X111338095Y-70247619D01*
X111290476Y-70342857D01*
X111290476Y-70390476D01*
X111338095Y-70485714D01*
X111385714Y-70533333D01*
X111480952Y-70580952D01*
X111671428Y-70580952D01*
X111766666Y-70628571D01*
X111814285Y-70676190D01*
X111861904Y-70771428D01*
X111861904Y-70961904D01*
X111814285Y-71057142D01*
X111766666Y-71104761D01*
X111671428Y-71152380D01*
X111480952Y-71152380D01*
X111385714Y-71104761D01*
X111338095Y-71057142D01*
X111290476Y-70961904D01*
X111290476Y-70771428D01*
X111338095Y-70676190D01*
X111385714Y-70628571D01*
X111480952Y-70580952D01*
%TO.C,R2*%
X75066666Y-88852380D02*
X75400000Y-88376190D01*
X75638095Y-88852380D02*
X75638095Y-87852380D01*
X75257142Y-87852380D01*
X75161904Y-87900000D01*
X75114285Y-87947619D01*
X75066666Y-88042857D01*
X75066666Y-88185714D01*
X75114285Y-88280952D01*
X75161904Y-88328571D01*
X75257142Y-88376190D01*
X75638095Y-88376190D01*
X74685714Y-87947619D02*
X74638095Y-87900000D01*
X74542857Y-87852380D01*
X74304761Y-87852380D01*
X74209523Y-87900000D01*
X74161904Y-87947619D01*
X74114285Y-88042857D01*
X74114285Y-88138095D01*
X74161904Y-88280952D01*
X74733333Y-88852380D01*
X74114285Y-88852380D01*
%TO.C,R3*%
X69416666Y-96752380D02*
X69750000Y-96276190D01*
X69988095Y-96752380D02*
X69988095Y-95752380D01*
X69607142Y-95752380D01*
X69511904Y-95800000D01*
X69464285Y-95847619D01*
X69416666Y-95942857D01*
X69416666Y-96085714D01*
X69464285Y-96180952D01*
X69511904Y-96228571D01*
X69607142Y-96276190D01*
X69988095Y-96276190D01*
X69083333Y-95752380D02*
X68464285Y-95752380D01*
X68797619Y-96133333D01*
X68654761Y-96133333D01*
X68559523Y-96180952D01*
X68511904Y-96228571D01*
X68464285Y-96323809D01*
X68464285Y-96561904D01*
X68511904Y-96657142D01*
X68559523Y-96704761D01*
X68654761Y-96752380D01*
X68940476Y-96752380D01*
X69035714Y-96704761D01*
X69083333Y-96657142D01*
%TO.C,R4*%
X69366666Y-98002380D02*
X69700000Y-97526190D01*
X69938095Y-98002380D02*
X69938095Y-97002380D01*
X69557142Y-97002380D01*
X69461904Y-97050000D01*
X69414285Y-97097619D01*
X69366666Y-97192857D01*
X69366666Y-97335714D01*
X69414285Y-97430952D01*
X69461904Y-97478571D01*
X69557142Y-97526190D01*
X69938095Y-97526190D01*
X68509523Y-97335714D02*
X68509523Y-98002380D01*
X68747619Y-96954761D02*
X68985714Y-97669047D01*
X68366666Y-97669047D01*
%TO.C,R5*%
X99566666Y-78452380D02*
X99900000Y-77976190D01*
X100138095Y-78452380D02*
X100138095Y-77452380D01*
X99757142Y-77452380D01*
X99661904Y-77500000D01*
X99614285Y-77547619D01*
X99566666Y-77642857D01*
X99566666Y-77785714D01*
X99614285Y-77880952D01*
X99661904Y-77928571D01*
X99757142Y-77976190D01*
X100138095Y-77976190D01*
X98661904Y-77452380D02*
X99138095Y-77452380D01*
X99185714Y-77928571D01*
X99138095Y-77880952D01*
X99042857Y-77833333D01*
X98804761Y-77833333D01*
X98709523Y-77880952D01*
X98661904Y-77928571D01*
X98614285Y-78023809D01*
X98614285Y-78261904D01*
X98661904Y-78357142D01*
X98709523Y-78404761D01*
X98804761Y-78452380D01*
X99042857Y-78452380D01*
X99138095Y-78404761D01*
X99185714Y-78357142D01*
%TO.C,R6*%
X104266666Y-76852380D02*
X104600000Y-76376190D01*
X104838095Y-76852380D02*
X104838095Y-75852380D01*
X104457142Y-75852380D01*
X104361904Y-75900000D01*
X104314285Y-75947619D01*
X104266666Y-76042857D01*
X104266666Y-76185714D01*
X104314285Y-76280952D01*
X104361904Y-76328571D01*
X104457142Y-76376190D01*
X104838095Y-76376190D01*
X103409523Y-75852380D02*
X103600000Y-75852380D01*
X103695238Y-75900000D01*
X103742857Y-75947619D01*
X103838095Y-76090476D01*
X103885714Y-76280952D01*
X103885714Y-76661904D01*
X103838095Y-76757142D01*
X103790476Y-76804761D01*
X103695238Y-76852380D01*
X103504761Y-76852380D01*
X103409523Y-76804761D01*
X103361904Y-76757142D01*
X103314285Y-76661904D01*
X103314285Y-76423809D01*
X103361904Y-76328571D01*
X103409523Y-76280952D01*
X103504761Y-76233333D01*
X103695238Y-76233333D01*
X103790476Y-76280952D01*
X103838095Y-76328571D01*
X103885714Y-76423809D01*
%TO.C,R7*%
X108982380Y-68133333D02*
X108506190Y-67800000D01*
X108982380Y-67561904D02*
X107982380Y-67561904D01*
X107982380Y-67942857D01*
X108030000Y-68038095D01*
X108077619Y-68085714D01*
X108172857Y-68133333D01*
X108315714Y-68133333D01*
X108410952Y-68085714D01*
X108458571Y-68038095D01*
X108506190Y-67942857D01*
X108506190Y-67561904D01*
X107982380Y-68466666D02*
X107982380Y-69133333D01*
X108982380Y-68704761D01*
%TO.C,R8*%
X111522380Y-64933333D02*
X111046190Y-64600000D01*
X111522380Y-64361904D02*
X110522380Y-64361904D01*
X110522380Y-64742857D01*
X110570000Y-64838095D01*
X110617619Y-64885714D01*
X110712857Y-64933333D01*
X110855714Y-64933333D01*
X110950952Y-64885714D01*
X110998571Y-64838095D01*
X111046190Y-64742857D01*
X111046190Y-64361904D01*
X110950952Y-65504761D02*
X110903333Y-65409523D01*
X110855714Y-65361904D01*
X110760476Y-65314285D01*
X110712857Y-65314285D01*
X110617619Y-65361904D01*
X110570000Y-65409523D01*
X110522380Y-65504761D01*
X110522380Y-65695238D01*
X110570000Y-65790476D01*
X110617619Y-65838095D01*
X110712857Y-65885714D01*
X110760476Y-65885714D01*
X110855714Y-65838095D01*
X110903333Y-65790476D01*
X110950952Y-65695238D01*
X110950952Y-65504761D01*
X110998571Y-65409523D01*
X111046190Y-65361904D01*
X111141428Y-65314285D01*
X111331904Y-65314285D01*
X111427142Y-65361904D01*
X111474761Y-65409523D01*
X111522380Y-65504761D01*
X111522380Y-65695238D01*
X111474761Y-65790476D01*
X111427142Y-65838095D01*
X111331904Y-65885714D01*
X111141428Y-65885714D01*
X111046190Y-65838095D01*
X110998571Y-65790476D01*
X110950952Y-65695238D01*
%TO.C,R11*%
X79552380Y-79657142D02*
X79076190Y-79323809D01*
X79552380Y-79085714D02*
X78552380Y-79085714D01*
X78552380Y-79466666D01*
X78600000Y-79561904D01*
X78647619Y-79609523D01*
X78742857Y-79657142D01*
X78885714Y-79657142D01*
X78980952Y-79609523D01*
X79028571Y-79561904D01*
X79076190Y-79466666D01*
X79076190Y-79085714D01*
X79552380Y-80609523D02*
X79552380Y-80038095D01*
X79552380Y-80323809D02*
X78552380Y-80323809D01*
X78695238Y-80228571D01*
X78790476Y-80133333D01*
X78838095Y-80038095D01*
X79552380Y-81561904D02*
X79552380Y-80990476D01*
X79552380Y-81276190D02*
X78552380Y-81276190D01*
X78695238Y-81180952D01*
X78790476Y-81085714D01*
X78838095Y-80990476D01*
%TO.C,R12*%
X101142857Y-86152380D02*
X101476190Y-85676190D01*
X101714285Y-86152380D02*
X101714285Y-85152380D01*
X101333333Y-85152380D01*
X101238095Y-85200000D01*
X101190476Y-85247619D01*
X101142857Y-85342857D01*
X101142857Y-85485714D01*
X101190476Y-85580952D01*
X101238095Y-85628571D01*
X101333333Y-85676190D01*
X101714285Y-85676190D01*
X100190476Y-86152380D02*
X100761904Y-86152380D01*
X100476190Y-86152380D02*
X100476190Y-85152380D01*
X100571428Y-85295238D01*
X100666666Y-85390476D01*
X100761904Y-85438095D01*
X99809523Y-85247619D02*
X99761904Y-85200000D01*
X99666666Y-85152380D01*
X99428571Y-85152380D01*
X99333333Y-85200000D01*
X99285714Y-85247619D01*
X99238095Y-85342857D01*
X99238095Y-85438095D01*
X99285714Y-85580952D01*
X99857142Y-86152380D01*
X99238095Y-86152380D01*
%TO.C,R13*%
X92542857Y-81552380D02*
X92876190Y-81076190D01*
X93114285Y-81552380D02*
X93114285Y-80552380D01*
X92733333Y-80552380D01*
X92638095Y-80600000D01*
X92590476Y-80647619D01*
X92542857Y-80742857D01*
X92542857Y-80885714D01*
X92590476Y-80980952D01*
X92638095Y-81028571D01*
X92733333Y-81076190D01*
X93114285Y-81076190D01*
X91590476Y-81552380D02*
X92161904Y-81552380D01*
X91876190Y-81552380D02*
X91876190Y-80552380D01*
X91971428Y-80695238D01*
X92066666Y-80790476D01*
X92161904Y-80838095D01*
X91257142Y-80552380D02*
X90638095Y-80552380D01*
X90971428Y-80933333D01*
X90828571Y-80933333D01*
X90733333Y-80980952D01*
X90685714Y-81028571D01*
X90638095Y-81123809D01*
X90638095Y-81361904D01*
X90685714Y-81457142D01*
X90733333Y-81504761D01*
X90828571Y-81552380D01*
X91114285Y-81552380D01*
X91209523Y-81504761D01*
X91257142Y-81457142D01*
%TO.C,R17*%
X66692857Y-65664880D02*
X67026190Y-65188690D01*
X67264285Y-65664880D02*
X67264285Y-64664880D01*
X66883333Y-64664880D01*
X66788095Y-64712500D01*
X66740476Y-64760119D01*
X66692857Y-64855357D01*
X66692857Y-64998214D01*
X66740476Y-65093452D01*
X66788095Y-65141071D01*
X66883333Y-65188690D01*
X67264285Y-65188690D01*
X65740476Y-65664880D02*
X66311904Y-65664880D01*
X66026190Y-65664880D02*
X66026190Y-64664880D01*
X66121428Y-64807738D01*
X66216666Y-64902976D01*
X66311904Y-64950595D01*
X65407142Y-64664880D02*
X64740476Y-64664880D01*
X65169047Y-65664880D01*
%TO.C,R18*%
X56492857Y-61702380D02*
X56826190Y-61226190D01*
X57064285Y-61702380D02*
X57064285Y-60702380D01*
X56683333Y-60702380D01*
X56588095Y-60750000D01*
X56540476Y-60797619D01*
X56492857Y-60892857D01*
X56492857Y-61035714D01*
X56540476Y-61130952D01*
X56588095Y-61178571D01*
X56683333Y-61226190D01*
X57064285Y-61226190D01*
X55540476Y-61702380D02*
X56111904Y-61702380D01*
X55826190Y-61702380D02*
X55826190Y-60702380D01*
X55921428Y-60845238D01*
X56016666Y-60940476D01*
X56111904Y-60988095D01*
X54969047Y-61130952D02*
X55064285Y-61083333D01*
X55111904Y-61035714D01*
X55159523Y-60940476D01*
X55159523Y-60892857D01*
X55111904Y-60797619D01*
X55064285Y-60750000D01*
X54969047Y-60702380D01*
X54778571Y-60702380D01*
X54683333Y-60750000D01*
X54635714Y-60797619D01*
X54588095Y-60892857D01*
X54588095Y-60940476D01*
X54635714Y-61035714D01*
X54683333Y-61083333D01*
X54778571Y-61130952D01*
X54969047Y-61130952D01*
X55064285Y-61178571D01*
X55111904Y-61226190D01*
X55159523Y-61321428D01*
X55159523Y-61511904D01*
X55111904Y-61607142D01*
X55064285Y-61654761D01*
X54969047Y-61702380D01*
X54778571Y-61702380D01*
X54683333Y-61654761D01*
X54635714Y-61607142D01*
X54588095Y-61511904D01*
X54588095Y-61321428D01*
X54635714Y-61226190D01*
X54683333Y-61178571D01*
X54778571Y-61130952D01*
%TO.C,R19*%
X79852380Y-82757142D02*
X79376190Y-82423809D01*
X79852380Y-82185714D02*
X78852380Y-82185714D01*
X78852380Y-82566666D01*
X78900000Y-82661904D01*
X78947619Y-82709523D01*
X79042857Y-82757142D01*
X79185714Y-82757142D01*
X79280952Y-82709523D01*
X79328571Y-82661904D01*
X79376190Y-82566666D01*
X79376190Y-82185714D01*
X79852380Y-83709523D02*
X79852380Y-83138095D01*
X79852380Y-83423809D02*
X78852380Y-83423809D01*
X78995238Y-83328571D01*
X79090476Y-83233333D01*
X79138095Y-83138095D01*
X79852380Y-84185714D02*
X79852380Y-84376190D01*
X79804761Y-84471428D01*
X79757142Y-84519047D01*
X79614285Y-84614285D01*
X79423809Y-84661904D01*
X79042857Y-84661904D01*
X78947619Y-84614285D01*
X78900000Y-84566666D01*
X78852380Y-84471428D01*
X78852380Y-84280952D01*
X78900000Y-84185714D01*
X78947619Y-84138095D01*
X79042857Y-84090476D01*
X79280952Y-84090476D01*
X79376190Y-84138095D01*
X79423809Y-84185714D01*
X79471428Y-84280952D01*
X79471428Y-84471428D01*
X79423809Y-84566666D01*
X79376190Y-84614285D01*
X79280952Y-84661904D01*
%TO.C,R20*%
X102742857Y-81352380D02*
X103076190Y-80876190D01*
X103314285Y-81352380D02*
X103314285Y-80352380D01*
X102933333Y-80352380D01*
X102838095Y-80400000D01*
X102790476Y-80447619D01*
X102742857Y-80542857D01*
X102742857Y-80685714D01*
X102790476Y-80780952D01*
X102838095Y-80828571D01*
X102933333Y-80876190D01*
X103314285Y-80876190D01*
X102361904Y-80447619D02*
X102314285Y-80400000D01*
X102219047Y-80352380D01*
X101980952Y-80352380D01*
X101885714Y-80400000D01*
X101838095Y-80447619D01*
X101790476Y-80542857D01*
X101790476Y-80638095D01*
X101838095Y-80780952D01*
X102409523Y-81352380D01*
X101790476Y-81352380D01*
X101171428Y-80352380D02*
X101076190Y-80352380D01*
X100980952Y-80400000D01*
X100933333Y-80447619D01*
X100885714Y-80542857D01*
X100838095Y-80733333D01*
X100838095Y-80971428D01*
X100885714Y-81161904D01*
X100933333Y-81257142D01*
X100980952Y-81304761D01*
X101076190Y-81352380D01*
X101171428Y-81352380D01*
X101266666Y-81304761D01*
X101314285Y-81257142D01*
X101361904Y-81161904D01*
X101409523Y-80971428D01*
X101409523Y-80733333D01*
X101361904Y-80542857D01*
X101314285Y-80447619D01*
X101266666Y-80400000D01*
X101171428Y-80352380D01*
%TO.C,R22*%
X79552380Y-76657142D02*
X79076190Y-76323809D01*
X79552380Y-76085714D02*
X78552380Y-76085714D01*
X78552380Y-76466666D01*
X78600000Y-76561904D01*
X78647619Y-76609523D01*
X78742857Y-76657142D01*
X78885714Y-76657142D01*
X78980952Y-76609523D01*
X79028571Y-76561904D01*
X79076190Y-76466666D01*
X79076190Y-76085714D01*
X78647619Y-77038095D02*
X78600000Y-77085714D01*
X78552380Y-77180952D01*
X78552380Y-77419047D01*
X78600000Y-77514285D01*
X78647619Y-77561904D01*
X78742857Y-77609523D01*
X78838095Y-77609523D01*
X78980952Y-77561904D01*
X79552380Y-76990476D01*
X79552380Y-77609523D01*
X78647619Y-77990476D02*
X78600000Y-78038095D01*
X78552380Y-78133333D01*
X78552380Y-78371428D01*
X78600000Y-78466666D01*
X78647619Y-78514285D01*
X78742857Y-78561904D01*
X78838095Y-78561904D01*
X78980952Y-78514285D01*
X79552380Y-77942857D01*
X79552380Y-78561904D01*
%TO.C,R24*%
X99842857Y-65252380D02*
X100176190Y-64776190D01*
X100414285Y-65252380D02*
X100414285Y-64252380D01*
X100033333Y-64252380D01*
X99938095Y-64300000D01*
X99890476Y-64347619D01*
X99842857Y-64442857D01*
X99842857Y-64585714D01*
X99890476Y-64680952D01*
X99938095Y-64728571D01*
X100033333Y-64776190D01*
X100414285Y-64776190D01*
X99461904Y-64347619D02*
X99414285Y-64300000D01*
X99319047Y-64252380D01*
X99080952Y-64252380D01*
X98985714Y-64300000D01*
X98938095Y-64347619D01*
X98890476Y-64442857D01*
X98890476Y-64538095D01*
X98938095Y-64680952D01*
X99509523Y-65252380D01*
X98890476Y-65252380D01*
X98033333Y-64585714D02*
X98033333Y-65252380D01*
X98271428Y-64204761D02*
X98509523Y-64919047D01*
X97890476Y-64919047D01*
%TO.C,R26*%
X100542857Y-67552380D02*
X100876190Y-67076190D01*
X101114285Y-67552380D02*
X101114285Y-66552380D01*
X100733333Y-66552380D01*
X100638095Y-66600000D01*
X100590476Y-66647619D01*
X100542857Y-66742857D01*
X100542857Y-66885714D01*
X100590476Y-66980952D01*
X100638095Y-67028571D01*
X100733333Y-67076190D01*
X101114285Y-67076190D01*
X100161904Y-66647619D02*
X100114285Y-66600000D01*
X100019047Y-66552380D01*
X99780952Y-66552380D01*
X99685714Y-66600000D01*
X99638095Y-66647619D01*
X99590476Y-66742857D01*
X99590476Y-66838095D01*
X99638095Y-66980952D01*
X100209523Y-67552380D01*
X99590476Y-67552380D01*
X98733333Y-66552380D02*
X98923809Y-66552380D01*
X99019047Y-66600000D01*
X99066666Y-66647619D01*
X99161904Y-66790476D01*
X99209523Y-66980952D01*
X99209523Y-67361904D01*
X99161904Y-67457142D01*
X99114285Y-67504761D01*
X99019047Y-67552380D01*
X98828571Y-67552380D01*
X98733333Y-67504761D01*
X98685714Y-67457142D01*
X98638095Y-67361904D01*
X98638095Y-67123809D01*
X98685714Y-67028571D01*
X98733333Y-66980952D01*
X98828571Y-66933333D01*
X99019047Y-66933333D01*
X99114285Y-66980952D01*
X99161904Y-67028571D01*
X99209523Y-67123809D01*
%TO.C,R28*%
X65292857Y-64012380D02*
X65626190Y-63536190D01*
X65864285Y-64012380D02*
X65864285Y-63012380D01*
X65483333Y-63012380D01*
X65388095Y-63060000D01*
X65340476Y-63107619D01*
X65292857Y-63202857D01*
X65292857Y-63345714D01*
X65340476Y-63440952D01*
X65388095Y-63488571D01*
X65483333Y-63536190D01*
X65864285Y-63536190D01*
X64911904Y-63107619D02*
X64864285Y-63060000D01*
X64769047Y-63012380D01*
X64530952Y-63012380D01*
X64435714Y-63060000D01*
X64388095Y-63107619D01*
X64340476Y-63202857D01*
X64340476Y-63298095D01*
X64388095Y-63440952D01*
X64959523Y-64012380D01*
X64340476Y-64012380D01*
X63769047Y-63440952D02*
X63864285Y-63393333D01*
X63911904Y-63345714D01*
X63959523Y-63250476D01*
X63959523Y-63202857D01*
X63911904Y-63107619D01*
X63864285Y-63060000D01*
X63769047Y-63012380D01*
X63578571Y-63012380D01*
X63483333Y-63060000D01*
X63435714Y-63107619D01*
X63388095Y-63202857D01*
X63388095Y-63250476D01*
X63435714Y-63345714D01*
X63483333Y-63393333D01*
X63578571Y-63440952D01*
X63769047Y-63440952D01*
X63864285Y-63488571D01*
X63911904Y-63536190D01*
X63959523Y-63631428D01*
X63959523Y-63821904D01*
X63911904Y-63917142D01*
X63864285Y-63964761D01*
X63769047Y-64012380D01*
X63578571Y-64012380D01*
X63483333Y-63964761D01*
X63435714Y-63917142D01*
X63388095Y-63821904D01*
X63388095Y-63631428D01*
X63435714Y-63536190D01*
X63483333Y-63488571D01*
X63578571Y-63440952D01*
%TO.C,R29*%
X111442857Y-75252380D02*
X111776190Y-74776190D01*
X112014285Y-75252380D02*
X112014285Y-74252380D01*
X111633333Y-74252380D01*
X111538095Y-74300000D01*
X111490476Y-74347619D01*
X111442857Y-74442857D01*
X111442857Y-74585714D01*
X111490476Y-74680952D01*
X111538095Y-74728571D01*
X111633333Y-74776190D01*
X112014285Y-74776190D01*
X111061904Y-74347619D02*
X111014285Y-74300000D01*
X110919047Y-74252380D01*
X110680952Y-74252380D01*
X110585714Y-74300000D01*
X110538095Y-74347619D01*
X110490476Y-74442857D01*
X110490476Y-74538095D01*
X110538095Y-74680952D01*
X111109523Y-75252380D01*
X110490476Y-75252380D01*
X110014285Y-75252380D02*
X109823809Y-75252380D01*
X109728571Y-75204761D01*
X109680952Y-75157142D01*
X109585714Y-75014285D01*
X109538095Y-74823809D01*
X109538095Y-74442857D01*
X109585714Y-74347619D01*
X109633333Y-74300000D01*
X109728571Y-74252380D01*
X109919047Y-74252380D01*
X110014285Y-74300000D01*
X110061904Y-74347619D01*
X110109523Y-74442857D01*
X110109523Y-74680952D01*
X110061904Y-74776190D01*
X110014285Y-74823809D01*
X109919047Y-74871428D01*
X109728571Y-74871428D01*
X109633333Y-74823809D01*
X109585714Y-74776190D01*
X109538095Y-74680952D01*
%TO.C,R30*%
X62392857Y-62952380D02*
X62726190Y-62476190D01*
X62964285Y-62952380D02*
X62964285Y-61952380D01*
X62583333Y-61952380D01*
X62488095Y-62000000D01*
X62440476Y-62047619D01*
X62392857Y-62142857D01*
X62392857Y-62285714D01*
X62440476Y-62380952D01*
X62488095Y-62428571D01*
X62583333Y-62476190D01*
X62964285Y-62476190D01*
X62059523Y-61952380D02*
X61440476Y-61952380D01*
X61773809Y-62333333D01*
X61630952Y-62333333D01*
X61535714Y-62380952D01*
X61488095Y-62428571D01*
X61440476Y-62523809D01*
X61440476Y-62761904D01*
X61488095Y-62857142D01*
X61535714Y-62904761D01*
X61630952Y-62952380D01*
X61916666Y-62952380D01*
X62011904Y-62904761D01*
X62059523Y-62857142D01*
X60821428Y-61952380D02*
X60726190Y-61952380D01*
X60630952Y-62000000D01*
X60583333Y-62047619D01*
X60535714Y-62142857D01*
X60488095Y-62333333D01*
X60488095Y-62571428D01*
X60535714Y-62761904D01*
X60583333Y-62857142D01*
X60630952Y-62904761D01*
X60726190Y-62952380D01*
X60821428Y-62952380D01*
X60916666Y-62904761D01*
X60964285Y-62857142D01*
X61011904Y-62761904D01*
X61059523Y-62571428D01*
X61059523Y-62333333D01*
X61011904Y-62142857D01*
X60964285Y-62047619D01*
X60916666Y-62000000D01*
X60821428Y-61952380D01*
%TO.C,U1*%
X76561904Y-66952380D02*
X76561904Y-67761904D01*
X76514285Y-67857142D01*
X76466666Y-67904761D01*
X76371428Y-67952380D01*
X76180952Y-67952380D01*
X76085714Y-67904761D01*
X76038095Y-67857142D01*
X75990476Y-67761904D01*
X75990476Y-66952380D01*
X74990476Y-67952380D02*
X75561904Y-67952380D01*
X75276190Y-67952380D02*
X75276190Y-66952380D01*
X75371428Y-67095238D01*
X75466666Y-67190476D01*
X75561904Y-67238095D01*
%TO.C,U3*%
X76861904Y-91552380D02*
X76861904Y-92361904D01*
X76814285Y-92457142D01*
X76766666Y-92504761D01*
X76671428Y-92552380D01*
X76480952Y-92552380D01*
X76385714Y-92504761D01*
X76338095Y-92457142D01*
X76290476Y-92361904D01*
X76290476Y-91552380D01*
X75909523Y-91552380D02*
X75290476Y-91552380D01*
X75623809Y-91933333D01*
X75480952Y-91933333D01*
X75385714Y-91980952D01*
X75338095Y-92028571D01*
X75290476Y-92123809D01*
X75290476Y-92361904D01*
X75338095Y-92457142D01*
X75385714Y-92504761D01*
X75480952Y-92552380D01*
X75766666Y-92552380D01*
X75861904Y-92504761D01*
X75909523Y-92457142D01*
%TO.C,U4*%
X117561904Y-96552380D02*
X117561904Y-97361904D01*
X117514285Y-97457142D01*
X117466666Y-97504761D01*
X117371428Y-97552380D01*
X117180952Y-97552380D01*
X117085714Y-97504761D01*
X117038095Y-97457142D01*
X116990476Y-97361904D01*
X116990476Y-96552380D01*
X116085714Y-96885714D02*
X116085714Y-97552380D01*
X116323809Y-96504761D02*
X116561904Y-97219047D01*
X115942857Y-97219047D01*
%TO.C,U5*%
X111061904Y-79552380D02*
X111061904Y-80361904D01*
X111014285Y-80457142D01*
X110966666Y-80504761D01*
X110871428Y-80552380D01*
X110680952Y-80552380D01*
X110585714Y-80504761D01*
X110538095Y-80457142D01*
X110490476Y-80361904D01*
X110490476Y-79552380D01*
X109538095Y-79552380D02*
X110014285Y-79552380D01*
X110061904Y-80028571D01*
X110014285Y-79980952D01*
X109919047Y-79933333D01*
X109680952Y-79933333D01*
X109585714Y-79980952D01*
X109538095Y-80028571D01*
X109490476Y-80123809D01*
X109490476Y-80361904D01*
X109538095Y-80457142D01*
X109585714Y-80504761D01*
X109680952Y-80552380D01*
X109919047Y-80552380D01*
X110014285Y-80504761D01*
X110061904Y-80457142D01*
%TO.C,U6*%
X95761904Y-63902380D02*
X95761904Y-64711904D01*
X95714285Y-64807142D01*
X95666666Y-64854761D01*
X95571428Y-64902380D01*
X95380952Y-64902380D01*
X95285714Y-64854761D01*
X95238095Y-64807142D01*
X95190476Y-64711904D01*
X95190476Y-63902380D01*
X94285714Y-63902380D02*
X94476190Y-63902380D01*
X94571428Y-63950000D01*
X94619047Y-63997619D01*
X94714285Y-64140476D01*
X94761904Y-64330952D01*
X94761904Y-64711904D01*
X94714285Y-64807142D01*
X94666666Y-64854761D01*
X94571428Y-64902380D01*
X94380952Y-64902380D01*
X94285714Y-64854761D01*
X94238095Y-64807142D01*
X94190476Y-64711904D01*
X94190476Y-64473809D01*
X94238095Y-64378571D01*
X94285714Y-64330952D01*
X94380952Y-64283333D01*
X94571428Y-64283333D01*
X94666666Y-64330952D01*
X94714285Y-64378571D01*
X94761904Y-64473809D01*
%TO.C,U9*%
X101461904Y-61552380D02*
X101461904Y-62361904D01*
X101414285Y-62457142D01*
X101366666Y-62504761D01*
X101271428Y-62552380D01*
X101080952Y-62552380D01*
X100985714Y-62504761D01*
X100938095Y-62457142D01*
X100890476Y-62361904D01*
X100890476Y-61552380D01*
X100366666Y-62552380D02*
X100176190Y-62552380D01*
X100080952Y-62504761D01*
X100033333Y-62457142D01*
X99938095Y-62314285D01*
X99890476Y-62123809D01*
X99890476Y-61742857D01*
X99938095Y-61647619D01*
X99985714Y-61600000D01*
X100080952Y-61552380D01*
X100271428Y-61552380D01*
X100366666Y-61600000D01*
X100414285Y-61647619D01*
X100461904Y-61742857D01*
X100461904Y-61980952D01*
X100414285Y-62076190D01*
X100366666Y-62123809D01*
X100271428Y-62171428D01*
X100080952Y-62171428D01*
X99985714Y-62123809D01*
X99938095Y-62076190D01*
X99890476Y-61980952D01*
%TD*%
M02*
