%TF.GenerationSoftware,KiCad,Pcbnew,(5.1.6)-1*%
%TF.CreationDate,2020-11-04T17:06:36+09:00*%
%TF.ProjectId,schematic,73636865-6d61-4746-9963-2e6b69636164,rev?*%
%TF.SameCoordinates,Original*%
%TF.FileFunction,Soldermask,Top*%
%TF.FilePolarity,Negative*%
%FSLAX46Y46*%
G04 Gerber Fmt 4.6, Leading zero omitted, Abs format (unit mm)*
G04 Created by KiCad (PCBNEW (5.1.6)-1) date 2020-11-04 17:06:36*
%MOMM*%
%LPD*%
G01*
G04 APERTURE LIST*
%ADD10C,0.150000*%
%ADD11R,1.700000X1.700000*%
%ADD12O,1.700000X1.700000*%
%ADD13O,1.200000X1.750000*%
%ADD14R,1.100000X1.100000*%
%ADD15R,0.500000X1.750000*%
%ADD16R,1.890000X0.305000*%
%ADD17R,0.890000X0.305000*%
%ADD18R,2.890000X0.305000*%
%ADD19R,1.680000X1.880000*%
%ADD20C,1.500000*%
%ADD21C,0.100000*%
%ADD22R,1.800000X1.900000*%
%ADD23R,1.900000X1.800000*%
%ADD24R,0.900000X0.800000*%
%ADD25R,0.600000X0.500000*%
%ADD26R,2.050000X0.650000*%
%ADD27R,0.650000X2.050000*%
%ADD28O,0.840000X3.000000*%
%ADD29O,3.000000X0.840000*%
%ADD30R,1.560000X0.400000*%
%ADD31R,5.000000X5.000000*%
%ADD32R,0.900000X2.000000*%
%ADD33R,2.000000X0.900000*%
%ADD34C,2.500000*%
%ADD35R,1.350000X2.000000*%
%ADD36R,1.825000X0.700000*%
%ADD37R,2.000000X1.500000*%
%ADD38R,0.400000X1.650000*%
%ADD39O,1.100000X1.500000*%
%ADD40O,1.350000X1.700000*%
%ADD41R,1.430000X2.500000*%
G04 APERTURE END LIST*
D10*
X59700000Y-96000000D02*
X59700000Y-95600000D01*
X59600000Y-96100000D02*
X59700000Y-96000000D01*
X59800000Y-96100000D02*
X59600000Y-96100000D01*
X59800000Y-95600000D02*
X59800000Y-96100000D01*
X59600000Y-95600000D02*
X59800000Y-95600000D01*
X59600000Y-96100000D02*
X59600000Y-95600000D01*
D11*
%TO.C,J5*%
X74000000Y-72000000D03*
D12*
X71460000Y-72000000D03*
X68920000Y-72000000D03*
X66380000Y-72000000D03*
%TD*%
%TO.C,BT1*%
G36*
G01*
X70600000Y-89374999D02*
X70600000Y-90625001D01*
G75*
G02*
X70350001Y-90875000I-249999J0D01*
G01*
X69649999Y-90875000D01*
G75*
G02*
X69400000Y-90625001I0J249999D01*
G01*
X69400000Y-89374999D01*
G75*
G02*
X69649999Y-89125000I249999J0D01*
G01*
X70350001Y-89125000D01*
G75*
G02*
X70600000Y-89374999I0J-249999D01*
G01*
G37*
D13*
X68000000Y-90000000D03*
%TD*%
%TO.C,C3*%
G36*
G01*
X64875000Y-92900000D02*
X62725000Y-92900000D01*
G75*
G02*
X62475000Y-92650000I0J250000D01*
G01*
X62475000Y-91725000D01*
G75*
G02*
X62725000Y-91475000I250000J0D01*
G01*
X64875000Y-91475000D01*
G75*
G02*
X65125000Y-91725000I0J-250000D01*
G01*
X65125000Y-92650000D01*
G75*
G02*
X64875000Y-92900000I-250000J0D01*
G01*
G37*
G36*
G01*
X64875000Y-89925000D02*
X62725000Y-89925000D01*
G75*
G02*
X62475000Y-89675000I0J250000D01*
G01*
X62475000Y-88750000D01*
G75*
G02*
X62725000Y-88500000I250000J0D01*
G01*
X64875000Y-88500000D01*
G75*
G02*
X65125000Y-88750000I0J-250000D01*
G01*
X65125000Y-89675000D01*
G75*
G02*
X64875000Y-89925000I-250000J0D01*
G01*
G37*
%TD*%
%TO.C,C4*%
G36*
G01*
X80590000Y-62860000D02*
X80590000Y-62540000D01*
G75*
G02*
X80750000Y-62380000I160000J0D01*
G01*
X81430000Y-62380000D01*
G75*
G02*
X81590000Y-62540000I0J-160000D01*
G01*
X81590000Y-62860000D01*
G75*
G02*
X81430000Y-63020000I-160000J0D01*
G01*
X80750000Y-63020000D01*
G75*
G02*
X80590000Y-62860000I0J160000D01*
G01*
G37*
G36*
G01*
X79210000Y-62860000D02*
X79210000Y-62540000D01*
G75*
G02*
X79370000Y-62380000I160000J0D01*
G01*
X80050000Y-62380000D01*
G75*
G02*
X80210000Y-62540000I0J-160000D01*
G01*
X80210000Y-62860000D01*
G75*
G02*
X80050000Y-63020000I-160000J0D01*
G01*
X79370000Y-63020000D01*
G75*
G02*
X79210000Y-62860000I0J160000D01*
G01*
G37*
%TD*%
%TO.C,C5*%
G36*
G01*
X90560000Y-59810000D02*
X90240000Y-59810000D01*
G75*
G02*
X90080000Y-59650000I0J160000D01*
G01*
X90080000Y-58970000D01*
G75*
G02*
X90240000Y-58810000I160000J0D01*
G01*
X90560000Y-58810000D01*
G75*
G02*
X90720000Y-58970000I0J-160000D01*
G01*
X90720000Y-59650000D01*
G75*
G02*
X90560000Y-59810000I-160000J0D01*
G01*
G37*
G36*
G01*
X90560000Y-61190000D02*
X90240000Y-61190000D01*
G75*
G02*
X90080000Y-61030000I0J160000D01*
G01*
X90080000Y-60350000D01*
G75*
G02*
X90240000Y-60190000I160000J0D01*
G01*
X90560000Y-60190000D01*
G75*
G02*
X90720000Y-60350000I0J-160000D01*
G01*
X90720000Y-61030000D01*
G75*
G02*
X90560000Y-61190000I-160000J0D01*
G01*
G37*
%TD*%
%TO.C,C6*%
G36*
G01*
X94390000Y-65540000D02*
X94390000Y-65860000D01*
G75*
G02*
X94230000Y-66020000I-160000J0D01*
G01*
X93550000Y-66020000D01*
G75*
G02*
X93390000Y-65860000I0J160000D01*
G01*
X93390000Y-65540000D01*
G75*
G02*
X93550000Y-65380000I160000J0D01*
G01*
X94230000Y-65380000D01*
G75*
G02*
X94390000Y-65540000I0J-160000D01*
G01*
G37*
G36*
G01*
X93010000Y-65540000D02*
X93010000Y-65860000D01*
G75*
G02*
X92850000Y-66020000I-160000J0D01*
G01*
X92170000Y-66020000D01*
G75*
G02*
X92010000Y-65860000I0J160000D01*
G01*
X92010000Y-65540000D01*
G75*
G02*
X92170000Y-65380000I160000J0D01*
G01*
X92850000Y-65380000D01*
G75*
G02*
X93010000Y-65540000I0J-160000D01*
G01*
G37*
%TD*%
%TO.C,C8*%
G36*
G01*
X89310000Y-62440000D02*
X89310000Y-62760000D01*
G75*
G02*
X89150000Y-62920000I-160000J0D01*
G01*
X88470000Y-62920000D01*
G75*
G02*
X88310000Y-62760000I0J160000D01*
G01*
X88310000Y-62440000D01*
G75*
G02*
X88470000Y-62280000I160000J0D01*
G01*
X89150000Y-62280000D01*
G75*
G02*
X89310000Y-62440000I0J-160000D01*
G01*
G37*
G36*
G01*
X90690000Y-62440000D02*
X90690000Y-62760000D01*
G75*
G02*
X90530000Y-62920000I-160000J0D01*
G01*
X89850000Y-62920000D01*
G75*
G02*
X89690000Y-62760000I0J160000D01*
G01*
X89690000Y-62440000D01*
G75*
G02*
X89850000Y-62280000I160000J0D01*
G01*
X90530000Y-62280000D01*
G75*
G02*
X90690000Y-62440000I0J-160000D01*
G01*
G37*
%TD*%
%TO.C,C11*%
G36*
G01*
X112190000Y-63460000D02*
X112190000Y-63140000D01*
G75*
G02*
X112350000Y-62980000I160000J0D01*
G01*
X113030000Y-62980000D01*
G75*
G02*
X113190000Y-63140000I0J-160000D01*
G01*
X113190000Y-63460000D01*
G75*
G02*
X113030000Y-63620000I-160000J0D01*
G01*
X112350000Y-63620000D01*
G75*
G02*
X112190000Y-63460000I0J160000D01*
G01*
G37*
G36*
G01*
X110810000Y-63460000D02*
X110810000Y-63140000D01*
G75*
G02*
X110970000Y-62980000I160000J0D01*
G01*
X111650000Y-62980000D01*
G75*
G02*
X111810000Y-63140000I0J-160000D01*
G01*
X111810000Y-63460000D01*
G75*
G02*
X111650000Y-63620000I-160000J0D01*
G01*
X110970000Y-63620000D01*
G75*
G02*
X110810000Y-63460000I0J160000D01*
G01*
G37*
%TD*%
%TO.C,C22*%
G36*
G01*
X73340000Y-69820000D02*
X73340000Y-70140000D01*
G75*
G02*
X73180000Y-70300000I-160000J0D01*
G01*
X72500000Y-70300000D01*
G75*
G02*
X72340000Y-70140000I0J160000D01*
G01*
X72340000Y-69820000D01*
G75*
G02*
X72500000Y-69660000I160000J0D01*
G01*
X73180000Y-69660000D01*
G75*
G02*
X73340000Y-69820000I0J-160000D01*
G01*
G37*
G36*
G01*
X71960000Y-69820000D02*
X71960000Y-70140000D01*
G75*
G02*
X71800000Y-70300000I-160000J0D01*
G01*
X71120000Y-70300000D01*
G75*
G02*
X70960000Y-70140000I0J160000D01*
G01*
X70960000Y-69820000D01*
G75*
G02*
X71120000Y-69660000I160000J0D01*
G01*
X71800000Y-69660000D01*
G75*
G02*
X71960000Y-69820000I0J-160000D01*
G01*
G37*
%TD*%
%TO.C,C23*%
G36*
G01*
X108810000Y-69440000D02*
X108810000Y-69760000D01*
G75*
G02*
X108650000Y-69920000I-160000J0D01*
G01*
X107970000Y-69920000D01*
G75*
G02*
X107810000Y-69760000I0J160000D01*
G01*
X107810000Y-69440000D01*
G75*
G02*
X107970000Y-69280000I160000J0D01*
G01*
X108650000Y-69280000D01*
G75*
G02*
X108810000Y-69440000I0J-160000D01*
G01*
G37*
G36*
G01*
X110190000Y-69440000D02*
X110190000Y-69760000D01*
G75*
G02*
X110030000Y-69920000I-160000J0D01*
G01*
X109350000Y-69920000D01*
G75*
G02*
X109190000Y-69760000I0J160000D01*
G01*
X109190000Y-69440000D01*
G75*
G02*
X109350000Y-69280000I160000J0D01*
G01*
X110030000Y-69280000D01*
G75*
G02*
X110190000Y-69440000I0J-160000D01*
G01*
G37*
%TD*%
%TO.C,C24*%
G36*
G01*
X65240000Y-62910000D02*
X65560000Y-62910000D01*
G75*
G02*
X65720000Y-63070000I0J-160000D01*
G01*
X65720000Y-63750000D01*
G75*
G02*
X65560000Y-63910000I-160000J0D01*
G01*
X65240000Y-63910000D01*
G75*
G02*
X65080000Y-63750000I0J160000D01*
G01*
X65080000Y-63070000D01*
G75*
G02*
X65240000Y-62910000I160000J0D01*
G01*
G37*
G36*
G01*
X65240000Y-64290000D02*
X65560000Y-64290000D01*
G75*
G02*
X65720000Y-64450000I0J-160000D01*
G01*
X65720000Y-65130000D01*
G75*
G02*
X65560000Y-65290000I-160000J0D01*
G01*
X65240000Y-65290000D01*
G75*
G02*
X65080000Y-65130000I0J160000D01*
G01*
X65080000Y-64450000D01*
G75*
G02*
X65240000Y-64290000I160000J0D01*
G01*
G37*
%TD*%
%TO.C,C25*%
G36*
G01*
X66562500Y-62200000D02*
X67037500Y-62200000D01*
G75*
G02*
X67275000Y-62437500I0J-237500D01*
G01*
X67275000Y-63012500D01*
G75*
G02*
X67037500Y-63250000I-237500J0D01*
G01*
X66562500Y-63250000D01*
G75*
G02*
X66325000Y-63012500I0J237500D01*
G01*
X66325000Y-62437500D01*
G75*
G02*
X66562500Y-62200000I237500J0D01*
G01*
G37*
G36*
G01*
X66562500Y-63950000D02*
X67037500Y-63950000D01*
G75*
G02*
X67275000Y-64187500I0J-237500D01*
G01*
X67275000Y-64762500D01*
G75*
G02*
X67037500Y-65000000I-237500J0D01*
G01*
X66562500Y-65000000D01*
G75*
G02*
X66325000Y-64762500I0J237500D01*
G01*
X66325000Y-64187500D01*
G75*
G02*
X66562500Y-63950000I237500J0D01*
G01*
G37*
%TD*%
%TO.C,C27*%
G36*
G01*
X110610000Y-69660000D02*
X110610000Y-69340000D01*
G75*
G02*
X110770000Y-69180000I160000J0D01*
G01*
X111450000Y-69180000D01*
G75*
G02*
X111610000Y-69340000I0J-160000D01*
G01*
X111610000Y-69660000D01*
G75*
G02*
X111450000Y-69820000I-160000J0D01*
G01*
X110770000Y-69820000D01*
G75*
G02*
X110610000Y-69660000I0J160000D01*
G01*
G37*
G36*
G01*
X111990000Y-69660000D02*
X111990000Y-69340000D01*
G75*
G02*
X112150000Y-69180000I160000J0D01*
G01*
X112830000Y-69180000D01*
G75*
G02*
X112990000Y-69340000I0J-160000D01*
G01*
X112990000Y-69660000D01*
G75*
G02*
X112830000Y-69820000I-160000J0D01*
G01*
X112150000Y-69820000D01*
G75*
G02*
X111990000Y-69660000I0J160000D01*
G01*
G37*
%TD*%
D14*
%TO.C,D1*%
X61250000Y-93800000D03*
X58450000Y-93800000D03*
%TD*%
%TO.C,D3*%
G36*
G01*
X71137500Y-76550000D02*
X70662500Y-76550000D01*
G75*
G02*
X70425000Y-76312500I0J237500D01*
G01*
X70425000Y-75737500D01*
G75*
G02*
X70662500Y-75500000I237500J0D01*
G01*
X71137500Y-75500000D01*
G75*
G02*
X71375000Y-75737500I0J-237500D01*
G01*
X71375000Y-76312500D01*
G75*
G02*
X71137500Y-76550000I-237500J0D01*
G01*
G37*
G36*
G01*
X71137500Y-78300000D02*
X70662500Y-78300000D01*
G75*
G02*
X70425000Y-78062500I0J237500D01*
G01*
X70425000Y-77487500D01*
G75*
G02*
X70662500Y-77250000I237500J0D01*
G01*
X71137500Y-77250000D01*
G75*
G02*
X71375000Y-77487500I0J-237500D01*
G01*
X71375000Y-78062500D01*
G75*
G02*
X71137500Y-78300000I-237500J0D01*
G01*
G37*
%TD*%
%TO.C,D4*%
G36*
G01*
X74000000Y-92412500D02*
X74000000Y-92887500D01*
G75*
G02*
X73762500Y-93125000I-237500J0D01*
G01*
X73187500Y-93125000D01*
G75*
G02*
X72950000Y-92887500I0J237500D01*
G01*
X72950000Y-92412500D01*
G75*
G02*
X73187500Y-92175000I237500J0D01*
G01*
X73762500Y-92175000D01*
G75*
G02*
X74000000Y-92412500I0J-237500D01*
G01*
G37*
G36*
G01*
X75750000Y-92412500D02*
X75750000Y-92887500D01*
G75*
G02*
X75512500Y-93125000I-237500J0D01*
G01*
X74937500Y-93125000D01*
G75*
G02*
X74700000Y-92887500I0J237500D01*
G01*
X74700000Y-92412500D01*
G75*
G02*
X74937500Y-92175000I237500J0D01*
G01*
X75512500Y-92175000D01*
G75*
G02*
X75750000Y-92412500I0J-237500D01*
G01*
G37*
%TD*%
%TO.C,D5*%
G36*
G01*
X70662500Y-81700000D02*
X71137500Y-81700000D01*
G75*
G02*
X71375000Y-81937500I0J-237500D01*
G01*
X71375000Y-82512500D01*
G75*
G02*
X71137500Y-82750000I-237500J0D01*
G01*
X70662500Y-82750000D01*
G75*
G02*
X70425000Y-82512500I0J237500D01*
G01*
X70425000Y-81937500D01*
G75*
G02*
X70662500Y-81700000I237500J0D01*
G01*
G37*
G36*
G01*
X70662500Y-83450000D02*
X71137500Y-83450000D01*
G75*
G02*
X71375000Y-83687500I0J-237500D01*
G01*
X71375000Y-84262500D01*
G75*
G02*
X71137500Y-84500000I-237500J0D01*
G01*
X70662500Y-84500000D01*
G75*
G02*
X70425000Y-84262500I0J237500D01*
G01*
X70425000Y-83687500D01*
G75*
G02*
X70662500Y-83450000I237500J0D01*
G01*
G37*
%TD*%
D15*
%TO.C,D6*%
X89500000Y-76725000D03*
X90500000Y-76725000D03*
X89500000Y-79275000D03*
X90500000Y-79275000D03*
%TD*%
%TO.C,D7*%
G36*
G01*
X74550000Y-83862500D02*
X74550000Y-84337500D01*
G75*
G02*
X74312500Y-84575000I-237500J0D01*
G01*
X73737500Y-84575000D01*
G75*
G02*
X73500000Y-84337500I0J237500D01*
G01*
X73500000Y-83862500D01*
G75*
G02*
X73737500Y-83625000I237500J0D01*
G01*
X74312500Y-83625000D01*
G75*
G02*
X74550000Y-83862500I0J-237500D01*
G01*
G37*
G36*
G01*
X76300000Y-83862500D02*
X76300000Y-84337500D01*
G75*
G02*
X76062500Y-84575000I-237500J0D01*
G01*
X75487500Y-84575000D01*
G75*
G02*
X75250000Y-84337500I0J237500D01*
G01*
X75250000Y-83862500D01*
G75*
G02*
X75487500Y-83625000I237500J0D01*
G01*
X76062500Y-83625000D01*
G75*
G02*
X76300000Y-83862500I0J-237500D01*
G01*
G37*
%TD*%
%TO.C,D8*%
G36*
G01*
X61200000Y-62762500D02*
X61200000Y-63237500D01*
G75*
G02*
X60962500Y-63475000I-237500J0D01*
G01*
X60387500Y-63475000D01*
G75*
G02*
X60150000Y-63237500I0J237500D01*
G01*
X60150000Y-62762500D01*
G75*
G02*
X60387500Y-62525000I237500J0D01*
G01*
X60962500Y-62525000D01*
G75*
G02*
X61200000Y-62762500I0J-237500D01*
G01*
G37*
G36*
G01*
X59450000Y-62762500D02*
X59450000Y-63237500D01*
G75*
G02*
X59212500Y-63475000I-237500J0D01*
G01*
X58637500Y-63475000D01*
G75*
G02*
X58400000Y-63237500I0J237500D01*
G01*
X58400000Y-62762500D01*
G75*
G02*
X58637500Y-62525000I237500J0D01*
G01*
X59212500Y-62525000D01*
G75*
G02*
X59450000Y-62762500I0J-237500D01*
G01*
G37*
%TD*%
%TO.C,D9*%
G36*
G01*
X61300000Y-59837500D02*
X61300000Y-59362500D01*
G75*
G02*
X61537500Y-59125000I237500J0D01*
G01*
X62112500Y-59125000D01*
G75*
G02*
X62350000Y-59362500I0J-237500D01*
G01*
X62350000Y-59837500D01*
G75*
G02*
X62112500Y-60075000I-237500J0D01*
G01*
X61537500Y-60075000D01*
G75*
G02*
X61300000Y-59837500I0J237500D01*
G01*
G37*
G36*
G01*
X63050000Y-59837500D02*
X63050000Y-59362500D01*
G75*
G02*
X63287500Y-59125000I237500J0D01*
G01*
X63862500Y-59125000D01*
G75*
G02*
X64100000Y-59362500I0J-237500D01*
G01*
X64100000Y-59837500D01*
G75*
G02*
X63862500Y-60075000I-237500J0D01*
G01*
X63287500Y-60075000D01*
G75*
G02*
X63050000Y-59837500I0J237500D01*
G01*
G37*
%TD*%
%TO.C,D10*%
G36*
G01*
X76200000Y-75662500D02*
X76200000Y-76137500D01*
G75*
G02*
X75962500Y-76375000I-237500J0D01*
G01*
X75387500Y-76375000D01*
G75*
G02*
X75150000Y-76137500I0J237500D01*
G01*
X75150000Y-75662500D01*
G75*
G02*
X75387500Y-75425000I237500J0D01*
G01*
X75962500Y-75425000D01*
G75*
G02*
X76200000Y-75662500I0J-237500D01*
G01*
G37*
G36*
G01*
X74450000Y-75662500D02*
X74450000Y-76137500D01*
G75*
G02*
X74212500Y-76375000I-237500J0D01*
G01*
X73637500Y-76375000D01*
G75*
G02*
X73400000Y-76137500I0J237500D01*
G01*
X73400000Y-75662500D01*
G75*
G02*
X73637500Y-75425000I237500J0D01*
G01*
X74212500Y-75425000D01*
G75*
G02*
X74450000Y-75662500I0J-237500D01*
G01*
G37*
%TD*%
%TO.C,F1*%
G36*
G01*
X70425000Y-96900000D02*
X70425000Y-94000000D01*
G75*
G02*
X70675000Y-93750000I250000J0D01*
G01*
X71475000Y-93750000D01*
G75*
G02*
X71725000Y-94000000I0J-250000D01*
G01*
X71725000Y-96900000D01*
G75*
G02*
X71475000Y-97150000I-250000J0D01*
G01*
X70675000Y-97150000D01*
G75*
G02*
X70425000Y-96900000I0J250000D01*
G01*
G37*
G36*
G01*
X74875000Y-96900000D02*
X74875000Y-94000000D01*
G75*
G02*
X75125000Y-93750000I250000J0D01*
G01*
X75925000Y-93750000D01*
G75*
G02*
X76175000Y-94000000I0J-250000D01*
G01*
X76175000Y-96900000D01*
G75*
G02*
X75925000Y-97150000I-250000J0D01*
G01*
X75125000Y-97150000D01*
G75*
G02*
X74875000Y-96900000I0J250000D01*
G01*
G37*
%TD*%
D16*
%TO.C,IC1*%
X63305000Y-66900000D03*
D17*
X62805000Y-66400000D03*
D18*
X63805000Y-65900000D03*
D16*
X63305000Y-65400000D03*
D17*
X62805000Y-64900000D03*
X58595000Y-64900000D03*
X58595000Y-65400000D03*
X58595000Y-65900000D03*
X58595000Y-66400000D03*
X58595000Y-66900000D03*
D19*
X60700000Y-65900000D03*
D20*
X60700000Y-65900000D03*
%TD*%
D11*
%TO.C,J1*%
X79000000Y-60100000D03*
D12*
X81540000Y-60100000D03*
X84080000Y-60100000D03*
%TD*%
D11*
%TO.C,J3*%
X72540000Y-99500000D03*
D12*
X70000000Y-99500000D03*
X67460000Y-99500000D03*
%TD*%
D11*
%TO.C,J4*%
X97640000Y-99500000D03*
D12*
X95100000Y-99500000D03*
X92560000Y-99500000D03*
X90020000Y-99500000D03*
%TD*%
%TO.C,J6*%
X108180000Y-93400000D03*
X105640000Y-93400000D03*
X103100000Y-93400000D03*
X100560000Y-93400000D03*
D11*
X98020000Y-93400000D03*
%TD*%
%TO.C,J7*%
X82400000Y-85080000D03*
D12*
X82400000Y-82540000D03*
X82400000Y-80000000D03*
X82400000Y-77460000D03*
X82400000Y-74920000D03*
%TD*%
%TO.C,J8*%
X101360000Y-99500000D03*
X103900000Y-99500000D03*
D11*
X106440000Y-99500000D03*
%TD*%
%TO.C,J9*%
X90000000Y-65000000D03*
%TD*%
%TO.C,J10*%
X56000000Y-65000000D03*
%TD*%
%TO.C,J11*%
X55990000Y-94990000D03*
%TD*%
%TO.C,J12*%
X84000000Y-95000000D03*
%TD*%
%TO.C,J13*%
X118000000Y-95000000D03*
%TD*%
%TO.C,J14*%
X90000000Y-95000000D03*
%TD*%
%TO.C,J17*%
X118000000Y-65000000D03*
%TD*%
%TO.C,J18*%
X84000000Y-65000000D03*
%TD*%
%TO.C,J19*%
X105500000Y-67800000D03*
D12*
X102960000Y-67800000D03*
%TD*%
D21*
%TO.C,JP1*%
G36*
X54625000Y-59500000D02*
G01*
X55775000Y-59500000D01*
X55275000Y-60250000D01*
X55775000Y-61000000D01*
X54625000Y-61000000D01*
X54625000Y-59500000D01*
G37*
G36*
X55575000Y-60250000D02*
G01*
X56075000Y-59500000D01*
X57075000Y-59500000D01*
X57075000Y-61000000D01*
X56075000Y-61000000D01*
X55575000Y-60250000D01*
G37*
%TD*%
D22*
%TO.C,L1*%
X71690000Y-62920000D03*
X71690000Y-66320000D03*
%TD*%
D23*
%TO.C,L2*%
X112300000Y-95000000D03*
X115700000Y-95000000D03*
%TD*%
D22*
%TO.C,L3*%
X98670000Y-68300000D03*
X98670000Y-64900000D03*
%TD*%
D11*
%TO.C,M1*%
X65900000Y-68300000D03*
D12*
X68440000Y-68300000D03*
%TD*%
D24*
%TO.C,Q1*%
X68270000Y-94800000D03*
X66270000Y-95750000D03*
X66270000Y-93850000D03*
%TD*%
D25*
%TO.C,Q4*%
X79850000Y-80500000D03*
X79850000Y-79500000D03*
X78550000Y-80000000D03*
%TD*%
D24*
%TO.C,Q5*%
X79450000Y-94000000D03*
X79450000Y-95900000D03*
X81450000Y-94950000D03*
%TD*%
D25*
%TO.C,Q6*%
X78550000Y-82400000D03*
X79850000Y-81900000D03*
X79850000Y-82900000D03*
%TD*%
%TO.C,Q7*%
X79850000Y-78100000D03*
X79850000Y-77100000D03*
X78550000Y-77600000D03*
%TD*%
%TO.C,R1*%
G36*
G01*
X58780000Y-91860000D02*
X58780000Y-91540000D01*
G75*
G02*
X58940000Y-91380000I160000J0D01*
G01*
X59620000Y-91380000D01*
G75*
G02*
X59780000Y-91540000I0J-160000D01*
G01*
X59780000Y-91860000D01*
G75*
G02*
X59620000Y-92020000I-160000J0D01*
G01*
X58940000Y-92020000D01*
G75*
G02*
X58780000Y-91860000I0J160000D01*
G01*
G37*
G36*
G01*
X57400000Y-91860000D02*
X57400000Y-91540000D01*
G75*
G02*
X57560000Y-91380000I160000J0D01*
G01*
X58240000Y-91380000D01*
G75*
G02*
X58400000Y-91540000I0J-160000D01*
G01*
X58400000Y-91860000D01*
G75*
G02*
X58240000Y-92020000I-160000J0D01*
G01*
X57560000Y-92020000D01*
G75*
G02*
X57400000Y-91860000I0J160000D01*
G01*
G37*
%TD*%
%TO.C,R9*%
G36*
G01*
X74110000Y-78460000D02*
X74110000Y-78140000D01*
G75*
G02*
X74270000Y-77980000I160000J0D01*
G01*
X74950000Y-77980000D01*
G75*
G02*
X75110000Y-78140000I0J-160000D01*
G01*
X75110000Y-78460000D01*
G75*
G02*
X74950000Y-78620000I-160000J0D01*
G01*
X74270000Y-78620000D01*
G75*
G02*
X74110000Y-78460000I0J160000D01*
G01*
G37*
G36*
G01*
X75490000Y-78460000D02*
X75490000Y-78140000D01*
G75*
G02*
X75650000Y-77980000I160000J0D01*
G01*
X76330000Y-77980000D01*
G75*
G02*
X76490000Y-78140000I0J-160000D01*
G01*
X76490000Y-78460000D01*
G75*
G02*
X76330000Y-78620000I-160000J0D01*
G01*
X75650000Y-78620000D01*
G75*
G02*
X75490000Y-78460000I0J160000D01*
G01*
G37*
%TD*%
%TO.C,R10*%
G36*
G01*
X78210000Y-96140000D02*
X77890000Y-96140000D01*
G75*
G02*
X77730000Y-95980000I0J160000D01*
G01*
X77730000Y-95300000D01*
G75*
G02*
X77890000Y-95140000I160000J0D01*
G01*
X78210000Y-95140000D01*
G75*
G02*
X78370000Y-95300000I0J-160000D01*
G01*
X78370000Y-95980000D01*
G75*
G02*
X78210000Y-96140000I-160000J0D01*
G01*
G37*
G36*
G01*
X78210000Y-94760000D02*
X77890000Y-94760000D01*
G75*
G02*
X77730000Y-94600000I0J160000D01*
G01*
X77730000Y-93920000D01*
G75*
G02*
X77890000Y-93760000I160000J0D01*
G01*
X78210000Y-93760000D01*
G75*
G02*
X78370000Y-93920000I0J-160000D01*
G01*
X78370000Y-94600000D01*
G75*
G02*
X78210000Y-94760000I-160000J0D01*
G01*
G37*
%TD*%
%TO.C,R14*%
G36*
G01*
X69960000Y-93010000D02*
X69960000Y-92690000D01*
G75*
G02*
X70120000Y-92530000I160000J0D01*
G01*
X70800000Y-92530000D01*
G75*
G02*
X70960000Y-92690000I0J-160000D01*
G01*
X70960000Y-93010000D01*
G75*
G02*
X70800000Y-93170000I-160000J0D01*
G01*
X70120000Y-93170000D01*
G75*
G02*
X69960000Y-93010000I0J160000D01*
G01*
G37*
G36*
G01*
X71340000Y-93010000D02*
X71340000Y-92690000D01*
G75*
G02*
X71500000Y-92530000I160000J0D01*
G01*
X72180000Y-92530000D01*
G75*
G02*
X72340000Y-92690000I0J-160000D01*
G01*
X72340000Y-93010000D01*
G75*
G02*
X72180000Y-93170000I-160000J0D01*
G01*
X71500000Y-93170000D01*
G75*
G02*
X71340000Y-93010000I0J160000D01*
G01*
G37*
%TD*%
%TO.C,R15*%
G36*
G01*
X74210000Y-82660000D02*
X74210000Y-82340000D01*
G75*
G02*
X74370000Y-82180000I160000J0D01*
G01*
X75050000Y-82180000D01*
G75*
G02*
X75210000Y-82340000I0J-160000D01*
G01*
X75210000Y-82660000D01*
G75*
G02*
X75050000Y-82820000I-160000J0D01*
G01*
X74370000Y-82820000D01*
G75*
G02*
X74210000Y-82660000I0J160000D01*
G01*
G37*
G36*
G01*
X75590000Y-82660000D02*
X75590000Y-82340000D01*
G75*
G02*
X75750000Y-82180000I160000J0D01*
G01*
X76430000Y-82180000D01*
G75*
G02*
X76590000Y-82340000I0J-160000D01*
G01*
X76590000Y-82660000D01*
G75*
G02*
X76430000Y-82820000I-160000J0D01*
G01*
X75750000Y-82820000D01*
G75*
G02*
X75590000Y-82660000I0J160000D01*
G01*
G37*
%TD*%
%TO.C,R16*%
G36*
G01*
X78290000Y-84460000D02*
X78290000Y-84140000D01*
G75*
G02*
X78450000Y-83980000I160000J0D01*
G01*
X79130000Y-83980000D01*
G75*
G02*
X79290000Y-84140000I0J-160000D01*
G01*
X79290000Y-84460000D01*
G75*
G02*
X79130000Y-84620000I-160000J0D01*
G01*
X78450000Y-84620000D01*
G75*
G02*
X78290000Y-84460000I0J160000D01*
G01*
G37*
G36*
G01*
X76910000Y-84460000D02*
X76910000Y-84140000D01*
G75*
G02*
X77070000Y-83980000I160000J0D01*
G01*
X77750000Y-83980000D01*
G75*
G02*
X77910000Y-84140000I0J-160000D01*
G01*
X77910000Y-84460000D01*
G75*
G02*
X77750000Y-84620000I-160000J0D01*
G01*
X77070000Y-84620000D01*
G75*
G02*
X76910000Y-84460000I0J160000D01*
G01*
G37*
%TD*%
%TO.C,R21*%
G36*
G01*
X60590000Y-59340000D02*
X60590000Y-59660000D01*
G75*
G02*
X60430000Y-59820000I-160000J0D01*
G01*
X59750000Y-59820000D01*
G75*
G02*
X59590000Y-59660000I0J160000D01*
G01*
X59590000Y-59340000D01*
G75*
G02*
X59750000Y-59180000I160000J0D01*
G01*
X60430000Y-59180000D01*
G75*
G02*
X60590000Y-59340000I0J-160000D01*
G01*
G37*
G36*
G01*
X59210000Y-59340000D02*
X59210000Y-59660000D01*
G75*
G02*
X59050000Y-59820000I-160000J0D01*
G01*
X58370000Y-59820000D01*
G75*
G02*
X58210000Y-59660000I0J160000D01*
G01*
X58210000Y-59340000D01*
G75*
G02*
X58370000Y-59180000I160000J0D01*
G01*
X59050000Y-59180000D01*
G75*
G02*
X59210000Y-59340000I0J-160000D01*
G01*
G37*
%TD*%
%TO.C,R23*%
G36*
G01*
X76710000Y-75860000D02*
X76710000Y-75540000D01*
G75*
G02*
X76870000Y-75380000I160000J0D01*
G01*
X77550000Y-75380000D01*
G75*
G02*
X77710000Y-75540000I0J-160000D01*
G01*
X77710000Y-75860000D01*
G75*
G02*
X77550000Y-76020000I-160000J0D01*
G01*
X76870000Y-76020000D01*
G75*
G02*
X76710000Y-75860000I0J160000D01*
G01*
G37*
G36*
G01*
X78090000Y-75860000D02*
X78090000Y-75540000D01*
G75*
G02*
X78250000Y-75380000I160000J0D01*
G01*
X78930000Y-75380000D01*
G75*
G02*
X79090000Y-75540000I0J-160000D01*
G01*
X79090000Y-75860000D01*
G75*
G02*
X78930000Y-76020000I-160000J0D01*
G01*
X78250000Y-76020000D01*
G75*
G02*
X78090000Y-75860000I0J160000D01*
G01*
G37*
%TD*%
%TO.C,R25*%
G36*
G01*
X91910000Y-71960000D02*
X91910000Y-71640000D01*
G75*
G02*
X92070000Y-71480000I160000J0D01*
G01*
X92750000Y-71480000D01*
G75*
G02*
X92910000Y-71640000I0J-160000D01*
G01*
X92910000Y-71960000D01*
G75*
G02*
X92750000Y-72120000I-160000J0D01*
G01*
X92070000Y-72120000D01*
G75*
G02*
X91910000Y-71960000I0J160000D01*
G01*
G37*
G36*
G01*
X93290000Y-71960000D02*
X93290000Y-71640000D01*
G75*
G02*
X93450000Y-71480000I160000J0D01*
G01*
X94130000Y-71480000D01*
G75*
G02*
X94290000Y-71640000I0J-160000D01*
G01*
X94290000Y-71960000D01*
G75*
G02*
X94130000Y-72120000I-160000J0D01*
G01*
X93450000Y-72120000D01*
G75*
G02*
X93290000Y-71960000I0J160000D01*
G01*
G37*
%TD*%
%TO.C,R27*%
G36*
G01*
X111990000Y-68240000D02*
X111990000Y-68560000D01*
G75*
G02*
X111830000Y-68720000I-160000J0D01*
G01*
X111150000Y-68720000D01*
G75*
G02*
X110990000Y-68560000I0J160000D01*
G01*
X110990000Y-68240000D01*
G75*
G02*
X111150000Y-68080000I160000J0D01*
G01*
X111830000Y-68080000D01*
G75*
G02*
X111990000Y-68240000I0J-160000D01*
G01*
G37*
G36*
G01*
X110610000Y-68240000D02*
X110610000Y-68560000D01*
G75*
G02*
X110450000Y-68720000I-160000J0D01*
G01*
X109770000Y-68720000D01*
G75*
G02*
X109610000Y-68560000I0J160000D01*
G01*
X109610000Y-68240000D01*
G75*
G02*
X109770000Y-68080000I160000J0D01*
G01*
X110450000Y-68080000D01*
G75*
G02*
X110610000Y-68240000I0J-160000D01*
G01*
G37*
%TD*%
%TO.C,R31*%
G36*
G01*
X90710000Y-85960000D02*
X90710000Y-85640000D01*
G75*
G02*
X90870000Y-85480000I160000J0D01*
G01*
X91550000Y-85480000D01*
G75*
G02*
X91710000Y-85640000I0J-160000D01*
G01*
X91710000Y-85960000D01*
G75*
G02*
X91550000Y-86120000I-160000J0D01*
G01*
X90870000Y-86120000D01*
G75*
G02*
X90710000Y-85960000I0J160000D01*
G01*
G37*
G36*
G01*
X92090000Y-85960000D02*
X92090000Y-85640000D01*
G75*
G02*
X92250000Y-85480000I160000J0D01*
G01*
X92930000Y-85480000D01*
G75*
G02*
X93090000Y-85640000I0J-160000D01*
G01*
X93090000Y-85960000D01*
G75*
G02*
X92930000Y-86120000I-160000J0D01*
G01*
X92250000Y-86120000D01*
G75*
G02*
X92090000Y-85960000I0J160000D01*
G01*
G37*
%TD*%
%TO.C,R32*%
G36*
G01*
X92190000Y-83260000D02*
X92190000Y-82940000D01*
G75*
G02*
X92350000Y-82780000I160000J0D01*
G01*
X93030000Y-82780000D01*
G75*
G02*
X93190000Y-82940000I0J-160000D01*
G01*
X93190000Y-83260000D01*
G75*
G02*
X93030000Y-83420000I-160000J0D01*
G01*
X92350000Y-83420000D01*
G75*
G02*
X92190000Y-83260000I0J160000D01*
G01*
G37*
G36*
G01*
X90810000Y-83260000D02*
X90810000Y-82940000D01*
G75*
G02*
X90970000Y-82780000I160000J0D01*
G01*
X91650000Y-82780000D01*
G75*
G02*
X91810000Y-82940000I0J-160000D01*
G01*
X91810000Y-83260000D01*
G75*
G02*
X91650000Y-83420000I-160000J0D01*
G01*
X90970000Y-83420000D01*
G75*
G02*
X90810000Y-83260000I0J160000D01*
G01*
G37*
%TD*%
D26*
%TO.C,SW1*%
X109425000Y-64925000D03*
X114575000Y-64925000D03*
X109425000Y-67075000D03*
X114575000Y-67075000D03*
%TD*%
D27*
%TO.C,SW2*%
X93575000Y-87625000D03*
X93575000Y-92775000D03*
X91425000Y-87625000D03*
X91425000Y-92775000D03*
%TD*%
D11*
%TO.C,SW3*%
X78460000Y-99000000D03*
D12*
X81000000Y-99000000D03*
X83540000Y-99000000D03*
%TD*%
D28*
%TO.C,U1*%
X75800000Y-64500000D03*
%TD*%
%TO.C,U2*%
G36*
G01*
X94950000Y-59225000D02*
X95050000Y-59225000D01*
G75*
G02*
X95100000Y-59275000I0J-50000D01*
G01*
X95100000Y-60725000D01*
G75*
G02*
X95050000Y-60775000I-50000J0D01*
G01*
X94950000Y-60775000D01*
G75*
G02*
X94900000Y-60725000I0J50000D01*
G01*
X94900000Y-59275000D01*
G75*
G02*
X94950000Y-59225000I50000J0D01*
G01*
G37*
G36*
G01*
X94550000Y-59225000D02*
X94650000Y-59225000D01*
G75*
G02*
X94700000Y-59275000I0J-50000D01*
G01*
X94700000Y-60725000D01*
G75*
G02*
X94650000Y-60775000I-50000J0D01*
G01*
X94550000Y-60775000D01*
G75*
G02*
X94500000Y-60725000I0J50000D01*
G01*
X94500000Y-59275000D01*
G75*
G02*
X94550000Y-59225000I50000J0D01*
G01*
G37*
G36*
G01*
X94150000Y-59225000D02*
X94250000Y-59225000D01*
G75*
G02*
X94300000Y-59275000I0J-50000D01*
G01*
X94300000Y-60725000D01*
G75*
G02*
X94250000Y-60775000I-50000J0D01*
G01*
X94150000Y-60775000D01*
G75*
G02*
X94100000Y-60725000I0J50000D01*
G01*
X94100000Y-59275000D01*
G75*
G02*
X94150000Y-59225000I50000J0D01*
G01*
G37*
G36*
G01*
X93750000Y-59225000D02*
X93850000Y-59225000D01*
G75*
G02*
X93900000Y-59275000I0J-50000D01*
G01*
X93900000Y-60725000D01*
G75*
G02*
X93850000Y-60775000I-50000J0D01*
G01*
X93750000Y-60775000D01*
G75*
G02*
X93700000Y-60725000I0J50000D01*
G01*
X93700000Y-59275000D01*
G75*
G02*
X93750000Y-59225000I50000J0D01*
G01*
G37*
G36*
G01*
X93350000Y-59225000D02*
X93450000Y-59225000D01*
G75*
G02*
X93500000Y-59275000I0J-50000D01*
G01*
X93500000Y-60725000D01*
G75*
G02*
X93450000Y-60775000I-50000J0D01*
G01*
X93350000Y-60775000D01*
G75*
G02*
X93300000Y-60725000I0J50000D01*
G01*
X93300000Y-59275000D01*
G75*
G02*
X93350000Y-59225000I50000J0D01*
G01*
G37*
G36*
G01*
X92950000Y-59225000D02*
X93050000Y-59225000D01*
G75*
G02*
X93100000Y-59275000I0J-50000D01*
G01*
X93100000Y-60725000D01*
G75*
G02*
X93050000Y-60775000I-50000J0D01*
G01*
X92950000Y-60775000D01*
G75*
G02*
X92900000Y-60725000I0J50000D01*
G01*
X92900000Y-59275000D01*
G75*
G02*
X92950000Y-59225000I50000J0D01*
G01*
G37*
G36*
G01*
X91225000Y-61050000D02*
X91225000Y-60950000D01*
G75*
G02*
X91275000Y-60900000I50000J0D01*
G01*
X92725000Y-60900000D01*
G75*
G02*
X92775000Y-60950000I0J-50000D01*
G01*
X92775000Y-61050000D01*
G75*
G02*
X92725000Y-61100000I-50000J0D01*
G01*
X91275000Y-61100000D01*
G75*
G02*
X91225000Y-61050000I0J50000D01*
G01*
G37*
G36*
G01*
X91225000Y-61450000D02*
X91225000Y-61350000D01*
G75*
G02*
X91275000Y-61300000I50000J0D01*
G01*
X92725000Y-61300000D01*
G75*
G02*
X92775000Y-61350000I0J-50000D01*
G01*
X92775000Y-61450000D01*
G75*
G02*
X92725000Y-61500000I-50000J0D01*
G01*
X91275000Y-61500000D01*
G75*
G02*
X91225000Y-61450000I0J50000D01*
G01*
G37*
G36*
G01*
X91225000Y-61850000D02*
X91225000Y-61750000D01*
G75*
G02*
X91275000Y-61700000I50000J0D01*
G01*
X92725000Y-61700000D01*
G75*
G02*
X92775000Y-61750000I0J-50000D01*
G01*
X92775000Y-61850000D01*
G75*
G02*
X92725000Y-61900000I-50000J0D01*
G01*
X91275000Y-61900000D01*
G75*
G02*
X91225000Y-61850000I0J50000D01*
G01*
G37*
G36*
G01*
X91225000Y-62250000D02*
X91225000Y-62150000D01*
G75*
G02*
X91275000Y-62100000I50000J0D01*
G01*
X92725000Y-62100000D01*
G75*
G02*
X92775000Y-62150000I0J-50000D01*
G01*
X92775000Y-62250000D01*
G75*
G02*
X92725000Y-62300000I-50000J0D01*
G01*
X91275000Y-62300000D01*
G75*
G02*
X91225000Y-62250000I0J50000D01*
G01*
G37*
G36*
G01*
X91225000Y-62650000D02*
X91225000Y-62550000D01*
G75*
G02*
X91275000Y-62500000I50000J0D01*
G01*
X92725000Y-62500000D01*
G75*
G02*
X92775000Y-62550000I0J-50000D01*
G01*
X92775000Y-62650000D01*
G75*
G02*
X92725000Y-62700000I-50000J0D01*
G01*
X91275000Y-62700000D01*
G75*
G02*
X91225000Y-62650000I0J50000D01*
G01*
G37*
G36*
G01*
X91225000Y-63050000D02*
X91225000Y-62950000D01*
G75*
G02*
X91275000Y-62900000I50000J0D01*
G01*
X92725000Y-62900000D01*
G75*
G02*
X92775000Y-62950000I0J-50000D01*
G01*
X92775000Y-63050000D01*
G75*
G02*
X92725000Y-63100000I-50000J0D01*
G01*
X91275000Y-63100000D01*
G75*
G02*
X91225000Y-63050000I0J50000D01*
G01*
G37*
G36*
G01*
X92950000Y-63225000D02*
X93050000Y-63225000D01*
G75*
G02*
X93100000Y-63275000I0J-50000D01*
G01*
X93100000Y-64725000D01*
G75*
G02*
X93050000Y-64775000I-50000J0D01*
G01*
X92950000Y-64775000D01*
G75*
G02*
X92900000Y-64725000I0J50000D01*
G01*
X92900000Y-63275000D01*
G75*
G02*
X92950000Y-63225000I50000J0D01*
G01*
G37*
G36*
G01*
X93350000Y-63225000D02*
X93450000Y-63225000D01*
G75*
G02*
X93500000Y-63275000I0J-50000D01*
G01*
X93500000Y-64725000D01*
G75*
G02*
X93450000Y-64775000I-50000J0D01*
G01*
X93350000Y-64775000D01*
G75*
G02*
X93300000Y-64725000I0J50000D01*
G01*
X93300000Y-63275000D01*
G75*
G02*
X93350000Y-63225000I50000J0D01*
G01*
G37*
G36*
G01*
X93750000Y-63225000D02*
X93850000Y-63225000D01*
G75*
G02*
X93900000Y-63275000I0J-50000D01*
G01*
X93900000Y-64725000D01*
G75*
G02*
X93850000Y-64775000I-50000J0D01*
G01*
X93750000Y-64775000D01*
G75*
G02*
X93700000Y-64725000I0J50000D01*
G01*
X93700000Y-63275000D01*
G75*
G02*
X93750000Y-63225000I50000J0D01*
G01*
G37*
G36*
G01*
X94150000Y-63225000D02*
X94250000Y-63225000D01*
G75*
G02*
X94300000Y-63275000I0J-50000D01*
G01*
X94300000Y-64725000D01*
G75*
G02*
X94250000Y-64775000I-50000J0D01*
G01*
X94150000Y-64775000D01*
G75*
G02*
X94100000Y-64725000I0J50000D01*
G01*
X94100000Y-63275000D01*
G75*
G02*
X94150000Y-63225000I50000J0D01*
G01*
G37*
G36*
G01*
X94550000Y-63225000D02*
X94650000Y-63225000D01*
G75*
G02*
X94700000Y-63275000I0J-50000D01*
G01*
X94700000Y-64725000D01*
G75*
G02*
X94650000Y-64775000I-50000J0D01*
G01*
X94550000Y-64775000D01*
G75*
G02*
X94500000Y-64725000I0J50000D01*
G01*
X94500000Y-63275000D01*
G75*
G02*
X94550000Y-63225000I50000J0D01*
G01*
G37*
G36*
G01*
X94950000Y-63225000D02*
X95050000Y-63225000D01*
G75*
G02*
X95100000Y-63275000I0J-50000D01*
G01*
X95100000Y-64725000D01*
G75*
G02*
X95050000Y-64775000I-50000J0D01*
G01*
X94950000Y-64775000D01*
G75*
G02*
X94900000Y-64725000I0J50000D01*
G01*
X94900000Y-63275000D01*
G75*
G02*
X94950000Y-63225000I50000J0D01*
G01*
G37*
G36*
G01*
X95225000Y-63050000D02*
X95225000Y-62950000D01*
G75*
G02*
X95275000Y-62900000I50000J0D01*
G01*
X96725000Y-62900000D01*
G75*
G02*
X96775000Y-62950000I0J-50000D01*
G01*
X96775000Y-63050000D01*
G75*
G02*
X96725000Y-63100000I-50000J0D01*
G01*
X95275000Y-63100000D01*
G75*
G02*
X95225000Y-63050000I0J50000D01*
G01*
G37*
G36*
G01*
X95225000Y-62650000D02*
X95225000Y-62550000D01*
G75*
G02*
X95275000Y-62500000I50000J0D01*
G01*
X96725000Y-62500000D01*
G75*
G02*
X96775000Y-62550000I0J-50000D01*
G01*
X96775000Y-62650000D01*
G75*
G02*
X96725000Y-62700000I-50000J0D01*
G01*
X95275000Y-62700000D01*
G75*
G02*
X95225000Y-62650000I0J50000D01*
G01*
G37*
G36*
G01*
X95225000Y-62250000D02*
X95225000Y-62150000D01*
G75*
G02*
X95275000Y-62100000I50000J0D01*
G01*
X96725000Y-62100000D01*
G75*
G02*
X96775000Y-62150000I0J-50000D01*
G01*
X96775000Y-62250000D01*
G75*
G02*
X96725000Y-62300000I-50000J0D01*
G01*
X95275000Y-62300000D01*
G75*
G02*
X95225000Y-62250000I0J50000D01*
G01*
G37*
G36*
G01*
X95225000Y-61850000D02*
X95225000Y-61750000D01*
G75*
G02*
X95275000Y-61700000I50000J0D01*
G01*
X96725000Y-61700000D01*
G75*
G02*
X96775000Y-61750000I0J-50000D01*
G01*
X96775000Y-61850000D01*
G75*
G02*
X96725000Y-61900000I-50000J0D01*
G01*
X95275000Y-61900000D01*
G75*
G02*
X95225000Y-61850000I0J50000D01*
G01*
G37*
G36*
G01*
X95225000Y-61450000D02*
X95225000Y-61350000D01*
G75*
G02*
X95275000Y-61300000I50000J0D01*
G01*
X96725000Y-61300000D01*
G75*
G02*
X96775000Y-61350000I0J-50000D01*
G01*
X96775000Y-61450000D01*
G75*
G02*
X96725000Y-61500000I-50000J0D01*
G01*
X95275000Y-61500000D01*
G75*
G02*
X95225000Y-61450000I0J50000D01*
G01*
G37*
G36*
G01*
X95225000Y-61050000D02*
X95225000Y-60950000D01*
G75*
G02*
X95275000Y-60900000I50000J0D01*
G01*
X96725000Y-60900000D01*
G75*
G02*
X96775000Y-60950000I0J-50000D01*
G01*
X96775000Y-61050000D01*
G75*
G02*
X96725000Y-61100000I-50000J0D01*
G01*
X95275000Y-61100000D01*
G75*
G02*
X95225000Y-61050000I0J50000D01*
G01*
G37*
%TD*%
D29*
%TO.C,U4*%
X114000000Y-97000000D03*
%TD*%
D28*
%TO.C,U6*%
X95000000Y-67000000D03*
%TD*%
D30*
%TO.C,U7*%
X74500000Y-67370000D03*
X74500000Y-68020000D03*
X74500000Y-68680000D03*
X74500000Y-69330000D03*
X77200000Y-69330000D03*
X77200000Y-68680000D03*
X77200000Y-68020000D03*
X77200000Y-67370000D03*
%TD*%
D31*
%TO.C,U8*%
X105755000Y-79000000D03*
D32*
X113255000Y-71500000D03*
X111985000Y-71500000D03*
X110715000Y-71500000D03*
X109445000Y-71500000D03*
X108175000Y-71500000D03*
X106905000Y-71500000D03*
X105635000Y-71500000D03*
X104365000Y-71500000D03*
X103095000Y-71500000D03*
X101825000Y-71500000D03*
X100555000Y-71500000D03*
X99285000Y-71500000D03*
X98015000Y-71500000D03*
X96745000Y-71500000D03*
D33*
X95745000Y-74285000D03*
X95745000Y-75555000D03*
X95745000Y-76825000D03*
X95745000Y-78095000D03*
X95745000Y-79365000D03*
X95745000Y-80635000D03*
X95745000Y-81905000D03*
X95745000Y-83175000D03*
X95745000Y-84445000D03*
X95745000Y-85715000D03*
D32*
X96745000Y-88500000D03*
X98015000Y-88500000D03*
X99285000Y-88500000D03*
X100555000Y-88500000D03*
X101825000Y-88500000D03*
X103095000Y-88500000D03*
X104365000Y-88500000D03*
X105635000Y-88500000D03*
X106905000Y-88500000D03*
X108175000Y-88500000D03*
X109445000Y-88500000D03*
X110715000Y-88500000D03*
X111985000Y-88500000D03*
X113255000Y-88500000D03*
D34*
X105755000Y-79000000D03*
%TD*%
D12*
%TO.C,J15*%
X66280000Y-60000000D03*
X68820000Y-60000000D03*
X71360000Y-60000000D03*
D11*
X73900000Y-60000000D03*
%TD*%
%TO.C,J16*%
X107900000Y-60000000D03*
D12*
X105360000Y-60000000D03*
X102820000Y-60000000D03*
X100280000Y-60000000D03*
%TD*%
D35*
%TO.C,J2*%
X63735000Y-98845000D03*
X58255000Y-98845000D03*
D36*
X58035000Y-98095000D03*
X63985000Y-98095000D03*
D37*
X58135000Y-96795000D03*
X63885000Y-96775000D03*
D38*
X59685000Y-96895000D03*
X60335000Y-96895000D03*
X60985000Y-96895000D03*
X61635000Y-96895000D03*
X62285000Y-96895000D03*
D39*
X58565000Y-96775000D03*
X63405000Y-96775000D03*
D40*
X58255000Y-99775000D03*
X63715000Y-99775000D03*
D41*
X60025000Y-100045000D03*
X61945000Y-100045000D03*
%TD*%
M02*
