M48
;DRILL file {KiCad (5.0.2)-1} date 2020/06/29 20:54:21
;FORMAT={-:-/ absolute / metric / decimal}
FMAT,2
METRIC,TZ
T1C0.400
T2C0.500
T3C0.650
T4C0.700
T5C0.750
T6C0.800
T7C1.000
T8C1.500
%
G90
G05
T1
X44.01Y-94.69
X44.12Y-98.65
X44.14Y-83.34
X44.37Y-81.19
X44.4Y-85.57
X45.59Y-90.61
X46.262Y-71.964
X46.3Y-73.82
X47.23Y-107.89
X48.76Y-69.66
X48.81Y-75.53
X49.44Y-106.51
X50.87Y-108.48
X51.1Y-90.05
X51.43Y-104.17
X51.77Y-98.53
X52.61Y-77.01
X52.73Y-81.83
X52.96Y-105.5
X52.97Y-107.64
X52.99Y-102.33
X53.24Y-74.39
X53.29Y-69.62
X54.12Y-79.46
X54.24Y-111.34
X54.31Y-76.06
X54.744Y-96.244
X54.99Y-71.27
X54.99Y-83.35
X55.1Y-94.5
X55.35Y-86.03
X55.35Y-89.91
X55.41Y-108.72
X55.52Y-73.3
X55.56Y-78.84
X55.8Y-75.97
X55.82Y-105.88
X55.99Y-92.65
X56.08Y-107.12
X56.174Y-103.916
X56.47Y-88.42
X56.5Y-74.84
X56.624Y-96.249
X57.08Y-108.27
X57.64Y-96.63
X57.69Y-83.47
X57.69Y-87.5
X57.875Y-102.255
X58.049Y-103.642
X58.12Y-78.6
X58.16Y-106.54
X58.44Y-100.4
X58.52Y-94.78
X58.61Y-96.17
X58.67Y-90.27
X58.99Y-103.37
X59.44Y-100.69
X59.74Y-93.11
X59.78Y-87.51
X59.987Y-109.191
X60.327Y-100.228
X60.56Y-95.54
X60.64Y-94.47
X60.7Y-92.18
X60.88Y-106.28
X60.95Y-79.
X61.031Y-103.785
X61.108Y-108.03
X61.16Y-76.64
X61.274Y-100.482
X61.44Y-83.21
X61.77Y-71.95
X61.85Y-94.46
X62.174Y-107.922
X63.07Y-100.7
X63.18Y-74.45
X64.15Y-100.635
X64.24Y-107.29
X64.28Y-106.265
X64.852Y-83.41
X64.86Y-92.43
X65.02Y-72.31
X65.13Y-76.08
X65.23Y-74.45
X65.58Y-107.87
X65.61Y-109.04
X65.679Y-79.579
X66.113Y-106.457
X66.45Y-86.23
X66.67Y-89.09
X66.7Y-79.52
X66.801Y-105.67
X67.117Y-107.42
X67.67Y-96.58
X67.734Y-80.029
X67.76Y-91.49
X67.76Y-93.24
X67.79Y-89.78
X67.8Y-94.51
X68.53Y-83.55
X68.73Y-77.18
X69.07Y-91.83
X69.47Y-93.
X69.51Y-83.84
X69.576Y-89.49
X69.938Y-88.58
X69.94Y-95.19
X70.27Y-101.18
X70.53Y-73.87
X70.54Y-83.46
X70.555Y-103.447
X71.03Y-78.45
X71.4Y-84.71
X71.46Y-77.03
X71.462Y-89.39
X71.495Y-103.172
X71.7Y-99.95
X72.18Y-107.34
X73.02Y-105.11
X73.05Y-104.12
X73.41Y-73.6
X75.133Y-103.056
X76.03Y-74.42
X76.03Y-103.45
X76.45Y-75.305
X76.92Y-107.86
X77.28Y-111.03
X77.31Y-109.76
X77.62Y-105.59
X78.41Y-81.655
X79.41Y-81.655
X83.045Y-84.695
X83.82Y-91.87
X84.61Y-84.81
X84.91Y-91.91
X88.42Y-94.23
X88.52Y-91.37
X88.9Y-97.12
X89.63Y-92.12
X90.11Y-89.18
X90.12Y-86.42
X90.22Y-98.04
X90.49Y-85.02
X90.5Y-96.61
X91.53Y-90.69
X91.64Y-88.9
X91.69Y-91.75
X92.13Y-83.49
X92.85Y-94.61
X92.95Y-91.137
X93.86Y-82.34
X94.11Y-90.69
X95.09Y-90.05
X95.85Y-93.2
X96.24Y-95.5
X97.21Y-90.14
X97.44Y-86.55
X98.26Y-95.9
X99.67Y-88.77
X102.41Y-82.67
X102.81Y-97.16
X102.91Y-89.69
X103.05Y-92.08
T3
X47.Y-87.46
X47.Y-88.73
X47.Y-90.
X47.Y-91.27
X47.Y-92.54
T4
X68.85Y-104.9
T5
X99.6Y-84.4
X99.6Y-86.4
T6
X56.55Y-102.4
X47.3Y-105.
X49.3Y-105.
X63.7Y-78.9
X70.Y-75.75
X71.525Y-104.625
X58.Y-75.75
X97.1Y-91.9
X97.1Y-93.9
T7
X51.Y-72.25
X67.59Y-110.35
X70.13Y-110.35
X72.67Y-110.35
X75.21Y-110.35
X84.66Y-82.7
X87.2Y-82.7
X89.74Y-82.7
X56.8Y-70.3
X59.34Y-70.3
X61.88Y-70.3
X64.42Y-70.3
X66.96Y-70.3
X66.12Y-101.02
X66.12Y-103.56
X48.16Y-110.3
X50.7Y-110.3
X53.24Y-110.3
X70.82Y-70.3
X73.36Y-70.3
X75.9Y-70.3
X75.6Y-87.02
X75.6Y-89.56
X75.6Y-92.1
X75.6Y-94.64
X75.6Y-97.18
X56.35Y-110.35
X58.89Y-110.35
X61.43Y-110.35
X63.97Y-110.35
T8
X63.255Y-89.
T2
X99.725Y-91.95G85X99.725Y-91.25
G05
X99.725Y-97.55G85X99.725Y-96.85
G05
X101.875Y-94.95G85X101.875Y-93.85
G05
X79.65Y-85.2G85X78.15Y-85.2
G05
X84.65Y-88.8G85X83.15Y-88.8
G05
X85.15Y-96.G85X83.65Y-96.
G05
T0
M30
