%TF.GenerationSoftware,KiCad,Pcbnew,(5.1.6)-1*%
%TF.CreationDate,2020-09-30T10:21:44+09:00*%
%TF.ProjectId,schematic,73636865-6d61-4746-9963-2e6b69636164,rev?*%
%TF.SameCoordinates,Original*%
%TF.FileFunction,Legend,Top*%
%TF.FilePolarity,Positive*%
%FSLAX46Y46*%
G04 Gerber Fmt 4.6, Leading zero omitted, Abs format (unit mm)*
G04 Created by KiCad (PCBNEW (5.1.6)-1) date 2020-09-30 10:21:44*
%MOMM*%
%LPD*%
G01*
G04 APERTURE LIST*
%ADD10C,0.150000*%
%ADD11C,0.100000*%
%ADD12C,0.010000*%
%ADD13C,0.120000*%
G04 APERTURE END LIST*
D10*
X74458467Y-65870000D02*
G75*
G03*
X74458467Y-65870000I-488467J0D01*
G01*
D11*
X92228571Y-97289285D02*
X92657142Y-97289285D01*
X92442857Y-98039285D02*
X92442857Y-97289285D01*
X92835714Y-97289285D02*
X93335714Y-98039285D01*
X93335714Y-97289285D02*
X92835714Y-98039285D01*
X91075000Y-98039285D02*
X90825000Y-97682142D01*
X90646428Y-98039285D02*
X90646428Y-97289285D01*
X90932142Y-97289285D01*
X91003571Y-97325000D01*
X91039285Y-97360714D01*
X91075000Y-97432142D01*
X91075000Y-97539285D01*
X91039285Y-97610714D01*
X91003571Y-97646428D01*
X90932142Y-97682142D01*
X90646428Y-97682142D01*
X91325000Y-97289285D02*
X91825000Y-98039285D01*
X91825000Y-97289285D02*
X91325000Y-98039285D01*
D10*
X88500000Y-76000000D02*
X88500000Y-76500000D01*
X88250000Y-76250000D02*
X88750000Y-76250000D01*
X74750000Y-90750000D02*
X74750000Y-91750000D01*
X74750000Y-91250000D02*
X74000000Y-91750000D01*
X74000000Y-90750000D02*
X74750000Y-91250000D01*
X74000000Y-91750000D02*
X74000000Y-90750000D01*
X73000000Y-89750000D02*
X73000000Y-90750000D01*
X72500000Y-90250000D02*
X73500000Y-90250000D01*
X61500000Y-94750000D02*
X61000000Y-94000000D01*
X60500000Y-94750000D02*
X61500000Y-94750000D01*
X61000000Y-94000000D02*
X60500000Y-94750000D01*
X60500000Y-94000000D02*
X61500000Y-94000000D01*
X73250000Y-77750000D02*
X73750000Y-77250000D01*
X73250000Y-76750000D02*
X73250000Y-77750000D01*
X73750000Y-77250000D02*
X73250000Y-76750000D01*
X73750000Y-76750000D02*
X73750000Y-77750000D01*
X73750000Y-82250000D02*
X73750000Y-83250000D01*
X73750000Y-82750000D02*
X73250000Y-82250000D01*
X73250000Y-83250000D02*
X73750000Y-82750000D01*
X73250000Y-82250000D02*
X73250000Y-83250000D01*
X70500000Y-80750000D02*
X71500000Y-80750000D01*
X71000000Y-80750000D02*
X70500000Y-81250000D01*
X71500000Y-81250000D02*
X71000000Y-80750000D01*
X70500000Y-81250000D02*
X71500000Y-81250000D01*
X70500000Y-79250000D02*
X71500000Y-79250000D01*
X71000000Y-79250000D02*
X70500000Y-78750000D01*
X71500000Y-78750000D02*
X71000000Y-79250000D01*
X70500000Y-78750000D02*
X71500000Y-78750000D01*
X62853553Y-68250000D02*
G75*
G03*
X62853553Y-68250000I-353553J0D01*
G01*
X57500000Y-62500000D02*
X57500000Y-63500000D01*
X57500000Y-63000000D02*
X57000000Y-62500000D01*
X57000000Y-63500000D02*
X57500000Y-63000000D01*
X57000000Y-62500000D02*
X57000000Y-63500000D01*
X63750000Y-61500000D02*
X63250000Y-61000000D01*
X63750000Y-60500000D02*
X63750000Y-61500000D01*
X63250000Y-61000000D02*
X63750000Y-60500000D01*
X63250000Y-60500000D02*
X63250000Y-61500000D01*
X71300000Y-60000001D02*
X68760000Y-60000001D01*
X116730000Y-63730000D02*
X116730000Y-66270000D01*
X119270000Y-96269999D02*
X116730000Y-93729999D01*
X104000000Y-99499999D02*
X104000000Y-100769999D01*
X91270000Y-66270000D02*
X88730000Y-63730000D01*
X107810000Y-100769999D02*
X107810000Y-98229999D01*
X101490000Y-58730001D02*
X101490000Y-61270001D01*
X116730000Y-93729999D02*
X116730000Y-96269999D01*
X103260000Y-60000001D02*
G75*
G03*
X103260000Y-60000001I-500000J0D01*
G01*
X119270000Y-93729999D02*
X118000000Y-93729999D01*
X90500000Y-65000000D02*
G75*
G03*
X90500000Y-65000000I-500000J0D01*
G01*
X118500000Y-94999999D02*
G75*
G03*
X118500000Y-94999999I-500000J0D01*
G01*
X88730000Y-66270000D02*
X91270000Y-66270000D01*
X104000000Y-99499999D02*
X104000000Y-98229999D01*
X107040000Y-99499999D02*
G75*
G03*
X107040000Y-99499999I-500000J0D01*
G01*
X91270000Y-63730000D02*
X90000000Y-63730000D01*
X119270000Y-96269999D02*
X119270000Y-93729999D01*
X107810000Y-98229999D02*
X104000000Y-98229999D01*
X90000000Y-63730000D02*
X88730000Y-63730000D01*
X91270000Y-63730000D02*
X88730000Y-66270000D01*
X104000000Y-99499999D02*
X106540000Y-99499999D01*
X105300000Y-58730001D02*
X101490000Y-58730001D01*
X119270000Y-93729999D02*
X116730000Y-96269999D01*
X118000000Y-93729999D02*
X116730000Y-93729999D01*
X104500000Y-99499999D02*
G75*
G03*
X104500000Y-99499999I-500000J0D01*
G01*
X88730000Y-63730000D02*
X88730000Y-66270000D01*
X91270000Y-66270000D02*
X91270000Y-63730000D01*
X106570000Y-61270001D02*
X106570000Y-58730001D01*
X119270000Y-66270000D02*
X116730000Y-63730000D01*
X104030000Y-61270001D02*
X104030000Y-58730001D01*
X119270000Y-63730000D02*
X118000000Y-63730000D01*
X116730000Y-66270000D02*
X119270000Y-66270000D01*
X116730000Y-66270000D02*
X119270000Y-63730000D01*
X106570000Y-58730001D02*
X105300000Y-58730001D01*
X118000000Y-63730000D02*
X116730000Y-63730000D01*
X119270000Y-66270000D02*
X119270000Y-63730000D01*
X91270000Y-96269999D02*
X91270000Y-93729999D01*
X91270000Y-93729999D02*
X90000000Y-93729999D01*
X101960000Y-99499999D02*
G75*
G03*
X101960000Y-99499999I-500000J0D01*
G01*
X104000000Y-99499999D02*
X101460000Y-99499999D01*
X88730000Y-96269999D02*
X91270000Y-96269999D01*
X104000000Y-98229999D02*
X100190000Y-98229999D01*
X88730000Y-93729999D02*
X91270000Y-96269999D01*
X90500000Y-94999999D02*
G75*
G03*
X90500000Y-94999999I-500000J0D01*
G01*
X90000000Y-93729999D02*
X88730000Y-93729999D01*
X105300000Y-60000001D02*
X102760000Y-60000001D01*
X91270000Y-93729999D02*
X88730000Y-96269999D01*
X116730000Y-96269999D02*
X119270000Y-96269999D01*
X100190000Y-100769999D02*
X107810000Y-100769999D01*
X100190000Y-98229999D02*
X100190000Y-100769999D01*
X88730000Y-93729999D02*
X88730000Y-96269999D01*
X101490000Y-61270001D02*
X106570000Y-61270001D01*
X118500000Y-65000000D02*
G75*
G03*
X118500000Y-65000000I-500000J0D01*
G01*
X105800000Y-60000001D02*
G75*
G03*
X105800000Y-60000001I-500000J0D01*
G01*
X57270001Y-93729999D02*
X54730001Y-96269999D01*
X54730000Y-93729999D02*
X57270001Y-96269999D01*
X85270000Y-93729999D02*
X82730000Y-96269999D01*
X85270000Y-96269999D02*
X82730000Y-93729999D01*
X85270000Y-66270000D02*
X82730000Y-63730000D01*
X82730000Y-66270000D02*
X85270000Y-63730000D01*
X57270001Y-66270000D02*
X54730000Y-63730000D01*
X57270001Y-63730000D02*
X54730001Y-66270000D01*
X70000000Y-99499999D02*
X70000000Y-100769999D01*
X70030000Y-61270001D02*
X70030000Y-58730001D01*
X82730000Y-93729999D02*
X82730000Y-96269999D01*
X82730000Y-96269999D02*
X85270000Y-96269999D01*
X54730001Y-96269999D02*
X57270001Y-96269999D01*
X54730000Y-93729999D02*
X54730001Y-96269999D01*
X57270001Y-96269999D02*
X57270001Y-93729999D01*
X84000000Y-93729999D02*
X82730000Y-93729999D01*
X85270000Y-93729999D02*
X84000000Y-93729999D01*
X85270000Y-96269999D02*
X85270000Y-93729999D01*
X56000000Y-93729999D02*
X54730000Y-93729999D01*
X57270001Y-93729999D02*
X56000000Y-93729999D01*
X56500000Y-94999999D02*
G75*
G03*
X56500000Y-94999999I-500000J0D01*
G01*
X84500000Y-94999999D02*
G75*
G03*
X84500000Y-94999999I-500000J0D01*
G01*
X70000000Y-99499999D02*
X67460000Y-99499999D01*
X67960000Y-99499999D02*
G75*
G03*
X67960000Y-99499999I-500000J0D01*
G01*
X70000000Y-99499999D02*
X72539999Y-99499999D01*
X70000000Y-99499999D02*
X70000000Y-98229999D01*
X70499999Y-99499999D02*
G75*
G03*
X70499999Y-99499999I-499999J0D01*
G01*
X73040000Y-99499999D02*
G75*
G03*
X73040000Y-99499999I-500001J0D01*
G01*
X70000000Y-98229999D02*
X73810000Y-98229999D01*
X66190001Y-98229999D02*
X70000000Y-98229999D01*
X66190001Y-100769999D02*
X66190001Y-98229999D01*
X73810000Y-100769999D02*
X66190001Y-100769999D01*
X73810000Y-98229999D02*
X73810000Y-100769999D01*
X57270001Y-63730000D02*
X56000000Y-63730000D01*
X57270001Y-66270000D02*
X57270001Y-63730000D01*
X56000000Y-63730000D02*
X54730000Y-63730000D01*
X54730000Y-63730000D02*
X54730001Y-66270000D01*
X56500000Y-65000000D02*
G75*
G03*
X56500000Y-65000000I-500000J0D01*
G01*
X54730001Y-66270000D02*
X57270001Y-66270000D01*
X85270000Y-63730000D02*
X84000000Y-63730000D01*
X85270000Y-66270000D02*
X85270000Y-63730000D01*
X84000000Y-63730000D02*
X82730000Y-63730000D01*
X82730000Y-63730000D02*
X82730000Y-66270000D01*
X84500000Y-65000000D02*
G75*
G03*
X84500000Y-65000000I-500000J0D01*
G01*
X82730000Y-66270000D02*
X85270000Y-66270000D01*
X71800000Y-60000001D02*
G75*
G03*
X71800000Y-60000001I-500000J0D01*
G01*
X69260000Y-60000001D02*
G75*
G03*
X69260000Y-60000001I-500000J0D01*
G01*
X67490001Y-61270001D02*
X67490000Y-58730001D01*
X72570000Y-61270001D02*
X67490001Y-61270001D01*
X72570000Y-58730001D02*
X72570000Y-61270001D01*
X71299999Y-58730001D02*
X72570000Y-58730001D01*
X67490000Y-58730001D02*
X71299999Y-58730001D01*
D12*
%TO.C,G\u002A\u002A\u002A*%
G36*
X81596567Y-66919339D02*
G01*
X81630459Y-66925609D01*
X81657293Y-66932513D01*
X81676153Y-66939746D01*
X81686122Y-66947001D01*
X81687380Y-66949661D01*
X81687541Y-66960484D01*
X81685547Y-66975950D01*
X81682194Y-66991971D01*
X81678274Y-67004462D01*
X81675921Y-67008629D01*
X81669156Y-67009713D01*
X81655166Y-67008219D01*
X81636473Y-67004429D01*
X81635031Y-67004080D01*
X81608252Y-66998808D01*
X81581309Y-66995728D01*
X81556575Y-66994897D01*
X81536419Y-66996368D01*
X81523212Y-67000198D01*
X81521402Y-67001422D01*
X81515242Y-67012052D01*
X81514533Y-67021399D01*
X81517134Y-67028365D01*
X81524173Y-67036806D01*
X81536820Y-67047783D01*
X81556245Y-67062357D01*
X81571940Y-67073479D01*
X81600190Y-67093737D01*
X81620967Y-67110180D01*
X81635491Y-67124254D01*
X81644979Y-67137407D01*
X81650650Y-67151086D01*
X81653722Y-67166740D01*
X81654240Y-67171263D01*
X81653714Y-67206984D01*
X81644632Y-67237973D01*
X81627449Y-67263488D01*
X81602624Y-67282791D01*
X81579304Y-67292732D01*
X81538379Y-67301524D01*
X81494877Y-67304040D01*
X81462555Y-67301354D01*
X81440642Y-67296795D01*
X81417799Y-67290408D01*
X81409215Y-67287454D01*
X81383980Y-67277987D01*
X81384592Y-67248674D01*
X81385783Y-67231813D01*
X81388215Y-67218956D01*
X81390446Y-67214121D01*
X81398153Y-67212047D01*
X81414025Y-67213587D01*
X81433013Y-67217443D01*
X81459863Y-67222406D01*
X81486797Y-67225320D01*
X81511474Y-67226133D01*
X81531552Y-67224794D01*
X81544689Y-67221252D01*
X81546714Y-67219935D01*
X81559101Y-67205547D01*
X81561334Y-67191366D01*
X81557610Y-67182656D01*
X81550670Y-67175450D01*
X81537203Y-67164124D01*
X81519126Y-67150210D01*
X81498356Y-67135239D01*
X81497559Y-67134683D01*
X81476561Y-67119592D01*
X81458025Y-67105397D01*
X81443926Y-67093669D01*
X81436243Y-67085982D01*
X81436150Y-67085853D01*
X81424018Y-67061110D01*
X81418618Y-67032111D01*
X81420017Y-67002266D01*
X81428281Y-66974988D01*
X81433772Y-66965182D01*
X81451066Y-66947465D01*
X81476072Y-66933237D01*
X81506772Y-66923067D01*
X81541146Y-66917523D01*
X81577175Y-66917174D01*
X81596567Y-66919339D01*
G37*
X81596567Y-66919339D02*
X81630459Y-66925609D01*
X81657293Y-66932513D01*
X81676153Y-66939746D01*
X81686122Y-66947001D01*
X81687380Y-66949661D01*
X81687541Y-66960484D01*
X81685547Y-66975950D01*
X81682194Y-66991971D01*
X81678274Y-67004462D01*
X81675921Y-67008629D01*
X81669156Y-67009713D01*
X81655166Y-67008219D01*
X81636473Y-67004429D01*
X81635031Y-67004080D01*
X81608252Y-66998808D01*
X81581309Y-66995728D01*
X81556575Y-66994897D01*
X81536419Y-66996368D01*
X81523212Y-67000198D01*
X81521402Y-67001422D01*
X81515242Y-67012052D01*
X81514533Y-67021399D01*
X81517134Y-67028365D01*
X81524173Y-67036806D01*
X81536820Y-67047783D01*
X81556245Y-67062357D01*
X81571940Y-67073479D01*
X81600190Y-67093737D01*
X81620967Y-67110180D01*
X81635491Y-67124254D01*
X81644979Y-67137407D01*
X81650650Y-67151086D01*
X81653722Y-67166740D01*
X81654240Y-67171263D01*
X81653714Y-67206984D01*
X81644632Y-67237973D01*
X81627449Y-67263488D01*
X81602624Y-67282791D01*
X81579304Y-67292732D01*
X81538379Y-67301524D01*
X81494877Y-67304040D01*
X81462555Y-67301354D01*
X81440642Y-67296795D01*
X81417799Y-67290408D01*
X81409215Y-67287454D01*
X81383980Y-67277987D01*
X81384592Y-67248674D01*
X81385783Y-67231813D01*
X81388215Y-67218956D01*
X81390446Y-67214121D01*
X81398153Y-67212047D01*
X81414025Y-67213587D01*
X81433013Y-67217443D01*
X81459863Y-67222406D01*
X81486797Y-67225320D01*
X81511474Y-67226133D01*
X81531552Y-67224794D01*
X81544689Y-67221252D01*
X81546714Y-67219935D01*
X81559101Y-67205547D01*
X81561334Y-67191366D01*
X81557610Y-67182656D01*
X81550670Y-67175450D01*
X81537203Y-67164124D01*
X81519126Y-67150210D01*
X81498356Y-67135239D01*
X81497559Y-67134683D01*
X81476561Y-67119592D01*
X81458025Y-67105397D01*
X81443926Y-67093669D01*
X81436243Y-67085982D01*
X81436150Y-67085853D01*
X81424018Y-67061110D01*
X81418618Y-67032111D01*
X81420017Y-67002266D01*
X81428281Y-66974988D01*
X81433772Y-66965182D01*
X81451066Y-66947465D01*
X81476072Y-66933237D01*
X81506772Y-66923067D01*
X81541146Y-66917523D01*
X81577175Y-66917174D01*
X81596567Y-66919339D01*
G36*
X82248351Y-66789384D02*
G01*
X82261969Y-66792798D01*
X82268786Y-66799318D01*
X82270440Y-66808240D01*
X82269544Y-66818415D01*
X82267006Y-66836789D01*
X82263046Y-66862160D01*
X82257887Y-66893326D01*
X82251752Y-66929084D01*
X82244861Y-66968231D01*
X82237437Y-67009564D01*
X82229701Y-67051881D01*
X82221877Y-67093979D01*
X82214185Y-67134656D01*
X82206847Y-67172708D01*
X82200086Y-67206933D01*
X82194124Y-67236129D01*
X82189182Y-67259092D01*
X82185483Y-67274620D01*
X82183248Y-67281511D01*
X82183059Y-67281721D01*
X82171733Y-67286099D01*
X82151948Y-67290834D01*
X82125380Y-67295598D01*
X82093707Y-67300063D01*
X82082480Y-67301408D01*
X82057752Y-67304061D01*
X82040050Y-67305347D01*
X82026336Y-67305329D01*
X82013577Y-67304065D01*
X82006280Y-67302930D01*
X81969796Y-67292902D01*
X81940499Y-67276432D01*
X81918881Y-67253894D01*
X81905495Y-67225879D01*
X81900899Y-67199777D01*
X81900716Y-67192722D01*
X81991533Y-67192722D01*
X81993081Y-67201729D01*
X81996616Y-67207963D01*
X82001883Y-67213284D01*
X82014618Y-67221957D01*
X82026600Y-67226453D01*
X82038674Y-67227293D01*
X82055449Y-67227010D01*
X82073642Y-67225850D01*
X82089968Y-67224058D01*
X82101144Y-67221881D01*
X82103846Y-67220665D01*
X82105603Y-67215098D01*
X82108722Y-67201315D01*
X82112872Y-67181116D01*
X82117720Y-67156303D01*
X82122936Y-67128677D01*
X82128188Y-67100040D01*
X82133144Y-67072192D01*
X82137473Y-67046935D01*
X82140844Y-67026071D01*
X82142925Y-67011400D01*
X82143440Y-67005506D01*
X82140506Y-67000643D01*
X82130643Y-66997129D01*
X82112257Y-66994404D01*
X82111651Y-66994339D01*
X82081583Y-66993661D01*
X82056678Y-66999052D01*
X82036497Y-67011110D01*
X82020601Y-67030434D01*
X82008553Y-67057624D01*
X81999913Y-67093277D01*
X81994243Y-67137993D01*
X81992835Y-67156580D01*
X81991582Y-67178489D01*
X81991533Y-67192722D01*
X81900716Y-67192722D01*
X81900036Y-67166641D01*
X81902695Y-67128798D01*
X81908664Y-67088575D01*
X81917731Y-67048302D01*
X81923467Y-67028532D01*
X81939573Y-66993271D01*
X81963323Y-66964093D01*
X81993907Y-66941448D01*
X82030515Y-66925784D01*
X82072335Y-66917548D01*
X82118559Y-66917191D01*
X82123752Y-66917640D01*
X82143298Y-66918926D01*
X82154671Y-66918049D01*
X82159662Y-66914844D01*
X82159933Y-66914254D01*
X82161779Y-66906773D01*
X82164818Y-66891625D01*
X82168595Y-66871168D01*
X82171854Y-66852497D01*
X82176687Y-66826081D01*
X82181486Y-66808111D01*
X82187623Y-66796969D01*
X82196471Y-66791041D01*
X82209402Y-66788708D01*
X82226320Y-66788349D01*
X82248351Y-66789384D01*
G37*
X82248351Y-66789384D02*
X82261969Y-66792798D01*
X82268786Y-66799318D01*
X82270440Y-66808240D01*
X82269544Y-66818415D01*
X82267006Y-66836789D01*
X82263046Y-66862160D01*
X82257887Y-66893326D01*
X82251752Y-66929084D01*
X82244861Y-66968231D01*
X82237437Y-67009564D01*
X82229701Y-67051881D01*
X82221877Y-67093979D01*
X82214185Y-67134656D01*
X82206847Y-67172708D01*
X82200086Y-67206933D01*
X82194124Y-67236129D01*
X82189182Y-67259092D01*
X82185483Y-67274620D01*
X82183248Y-67281511D01*
X82183059Y-67281721D01*
X82171733Y-67286099D01*
X82151948Y-67290834D01*
X82125380Y-67295598D01*
X82093707Y-67300063D01*
X82082480Y-67301408D01*
X82057752Y-67304061D01*
X82040050Y-67305347D01*
X82026336Y-67305329D01*
X82013577Y-67304065D01*
X82006280Y-67302930D01*
X81969796Y-67292902D01*
X81940499Y-67276432D01*
X81918881Y-67253894D01*
X81905495Y-67225879D01*
X81900899Y-67199777D01*
X81900716Y-67192722D01*
X81991533Y-67192722D01*
X81993081Y-67201729D01*
X81996616Y-67207963D01*
X82001883Y-67213284D01*
X82014618Y-67221957D01*
X82026600Y-67226453D01*
X82038674Y-67227293D01*
X82055449Y-67227010D01*
X82073642Y-67225850D01*
X82089968Y-67224058D01*
X82101144Y-67221881D01*
X82103846Y-67220665D01*
X82105603Y-67215098D01*
X82108722Y-67201315D01*
X82112872Y-67181116D01*
X82117720Y-67156303D01*
X82122936Y-67128677D01*
X82128188Y-67100040D01*
X82133144Y-67072192D01*
X82137473Y-67046935D01*
X82140844Y-67026071D01*
X82142925Y-67011400D01*
X82143440Y-67005506D01*
X82140506Y-67000643D01*
X82130643Y-66997129D01*
X82112257Y-66994404D01*
X82111651Y-66994339D01*
X82081583Y-66993661D01*
X82056678Y-66999052D01*
X82036497Y-67011110D01*
X82020601Y-67030434D01*
X82008553Y-67057624D01*
X81999913Y-67093277D01*
X81994243Y-67137993D01*
X81992835Y-67156580D01*
X81991582Y-67178489D01*
X81991533Y-67192722D01*
X81900716Y-67192722D01*
X81900036Y-67166641D01*
X81902695Y-67128798D01*
X81908664Y-67088575D01*
X81917731Y-67048302D01*
X81923467Y-67028532D01*
X81939573Y-66993271D01*
X81963323Y-66964093D01*
X81993907Y-66941448D01*
X82030515Y-66925784D01*
X82072335Y-66917548D01*
X82118559Y-66917191D01*
X82123752Y-66917640D01*
X82143298Y-66918926D01*
X82154671Y-66918049D01*
X82159662Y-66914844D01*
X82159933Y-66914254D01*
X82161779Y-66906773D01*
X82164818Y-66891625D01*
X82168595Y-66871168D01*
X82171854Y-66852497D01*
X82176687Y-66826081D01*
X82181486Y-66808111D01*
X82187623Y-66796969D01*
X82196471Y-66791041D01*
X82209402Y-66788708D01*
X82226320Y-66788349D01*
X82248351Y-66789384D01*
G36*
X82499116Y-66918959D02*
G01*
X82526313Y-66921790D01*
X82537610Y-66924370D01*
X82562442Y-66936695D01*
X82584252Y-66957360D01*
X82601375Y-66984635D01*
X82605836Y-66995117D01*
X82611409Y-67011681D01*
X82614418Y-67026932D01*
X82615280Y-67044585D01*
X82614416Y-67068358D01*
X82614309Y-67070220D01*
X82612508Y-67092536D01*
X82610009Y-67112474D01*
X82607255Y-67126747D01*
X82606269Y-67129910D01*
X82600891Y-67143880D01*
X82489549Y-67143880D01*
X82452658Y-67143959D01*
X82424685Y-67144255D01*
X82404385Y-67144856D01*
X82390517Y-67145848D01*
X82381837Y-67147319D01*
X82377104Y-67149356D01*
X82375123Y-67151915D01*
X82372502Y-67171779D01*
X82378154Y-67191668D01*
X82390675Y-67208505D01*
X82405234Y-67217940D01*
X82426624Y-67223611D01*
X82453366Y-67224576D01*
X82486901Y-67220822D01*
X82507483Y-67217003D01*
X82528538Y-67212731D01*
X82547531Y-67208948D01*
X82560791Y-67206385D01*
X82562050Y-67206152D01*
X82576801Y-67203457D01*
X82573487Y-67231656D01*
X82571163Y-67248632D01*
X82568745Y-67262035D01*
X82567414Y-67267043D01*
X82560728Y-67273096D01*
X82546236Y-67280092D01*
X82526155Y-67287284D01*
X82502697Y-67293927D01*
X82478077Y-67299273D01*
X82466020Y-67301227D01*
X82443298Y-67304194D01*
X82426798Y-67305447D01*
X82412721Y-67304967D01*
X82397271Y-67302737D01*
X82387324Y-67300859D01*
X82351801Y-67289715D01*
X82323650Y-67271586D01*
X82302772Y-67246372D01*
X82289068Y-67213975D01*
X82285458Y-67198365D01*
X82283324Y-67183329D01*
X82282852Y-67168002D01*
X82284190Y-67149715D01*
X82287487Y-67125798D01*
X82290505Y-67107403D01*
X82298237Y-67071380D01*
X82389926Y-67071380D01*
X82391012Y-67074799D01*
X82397089Y-67075957D01*
X82411266Y-67076710D01*
X82431490Y-67076999D01*
X82455708Y-67076765D01*
X82458121Y-67076714D01*
X82521900Y-67075300D01*
X82523458Y-67056555D01*
X82521292Y-67032637D01*
X82511140Y-67014226D01*
X82494096Y-67002272D01*
X82471253Y-66997723D01*
X82456743Y-66998702D01*
X82434296Y-67006087D01*
X82418830Y-67018339D01*
X82408098Y-67031550D01*
X82398802Y-67046622D01*
X82392294Y-67060813D01*
X82389926Y-67071380D01*
X82298237Y-67071380D01*
X82301259Y-67057302D01*
X82315232Y-67016217D01*
X82332951Y-66983371D01*
X82354942Y-66957983D01*
X82381729Y-66939274D01*
X82412289Y-66926921D01*
X82438045Y-66921607D01*
X82468340Y-66918925D01*
X82499116Y-66918959D01*
G37*
X82499116Y-66918959D02*
X82526313Y-66921790D01*
X82537610Y-66924370D01*
X82562442Y-66936695D01*
X82584252Y-66957360D01*
X82601375Y-66984635D01*
X82605836Y-66995117D01*
X82611409Y-67011681D01*
X82614418Y-67026932D01*
X82615280Y-67044585D01*
X82614416Y-67068358D01*
X82614309Y-67070220D01*
X82612508Y-67092536D01*
X82610009Y-67112474D01*
X82607255Y-67126747D01*
X82606269Y-67129910D01*
X82600891Y-67143880D01*
X82489549Y-67143880D01*
X82452658Y-67143959D01*
X82424685Y-67144255D01*
X82404385Y-67144856D01*
X82390517Y-67145848D01*
X82381837Y-67147319D01*
X82377104Y-67149356D01*
X82375123Y-67151915D01*
X82372502Y-67171779D01*
X82378154Y-67191668D01*
X82390675Y-67208505D01*
X82405234Y-67217940D01*
X82426624Y-67223611D01*
X82453366Y-67224576D01*
X82486901Y-67220822D01*
X82507483Y-67217003D01*
X82528538Y-67212731D01*
X82547531Y-67208948D01*
X82560791Y-67206385D01*
X82562050Y-67206152D01*
X82576801Y-67203457D01*
X82573487Y-67231656D01*
X82571163Y-67248632D01*
X82568745Y-67262035D01*
X82567414Y-67267043D01*
X82560728Y-67273096D01*
X82546236Y-67280092D01*
X82526155Y-67287284D01*
X82502697Y-67293927D01*
X82478077Y-67299273D01*
X82466020Y-67301227D01*
X82443298Y-67304194D01*
X82426798Y-67305447D01*
X82412721Y-67304967D01*
X82397271Y-67302737D01*
X82387324Y-67300859D01*
X82351801Y-67289715D01*
X82323650Y-67271586D01*
X82302772Y-67246372D01*
X82289068Y-67213975D01*
X82285458Y-67198365D01*
X82283324Y-67183329D01*
X82282852Y-67168002D01*
X82284190Y-67149715D01*
X82287487Y-67125798D01*
X82290505Y-67107403D01*
X82298237Y-67071380D01*
X82389926Y-67071380D01*
X82391012Y-67074799D01*
X82397089Y-67075957D01*
X82411266Y-67076710D01*
X82431490Y-67076999D01*
X82455708Y-67076765D01*
X82458121Y-67076714D01*
X82521900Y-67075300D01*
X82523458Y-67056555D01*
X82521292Y-67032637D01*
X82511140Y-67014226D01*
X82494096Y-67002272D01*
X82471253Y-66997723D01*
X82456743Y-66998702D01*
X82434296Y-67006087D01*
X82418830Y-67018339D01*
X82408098Y-67031550D01*
X82398802Y-67046622D01*
X82392294Y-67060813D01*
X82389926Y-67071380D01*
X82298237Y-67071380D01*
X82301259Y-67057302D01*
X82315232Y-67016217D01*
X82332951Y-66983371D01*
X82354942Y-66957983D01*
X82381729Y-66939274D01*
X82412289Y-66926921D01*
X82438045Y-66921607D01*
X82468340Y-66918925D01*
X82499116Y-66918959D01*
G36*
X80917233Y-66921047D02*
G01*
X80928038Y-66921416D01*
X80947861Y-66922348D01*
X80959712Y-66923802D01*
X80965775Y-66926536D01*
X80968234Y-66931309D01*
X80968906Y-66935614D01*
X80968381Y-66943198D01*
X80966283Y-66959148D01*
X80962853Y-66982069D01*
X80958334Y-67010564D01*
X80952969Y-67043239D01*
X80947000Y-67078699D01*
X80940669Y-67115547D01*
X80934219Y-67152389D01*
X80927892Y-67187829D01*
X80921931Y-67220472D01*
X80916577Y-67248922D01*
X80912075Y-67271783D01*
X80908665Y-67287662D01*
X80906591Y-67295161D01*
X80906375Y-67295517D01*
X80898484Y-67298337D01*
X80883880Y-67299982D01*
X80865941Y-67300457D01*
X80848045Y-67299768D01*
X80833571Y-67297919D01*
X80826427Y-67295399D01*
X80824129Y-67293111D01*
X80822582Y-67289553D01*
X80821910Y-67283707D01*
X80822233Y-67274553D01*
X80823675Y-67261074D01*
X80826356Y-67242252D01*
X80830399Y-67217067D01*
X80835926Y-67184502D01*
X80843058Y-67143538D01*
X80847907Y-67115940D01*
X80855224Y-67074858D01*
X80862208Y-67036596D01*
X80868619Y-67002399D01*
X80874215Y-66973515D01*
X80878758Y-66951188D01*
X80882006Y-66936665D01*
X80883477Y-66931576D01*
X80886822Y-66925723D01*
X80891967Y-66922382D01*
X80901306Y-66921005D01*
X80917233Y-66921047D01*
G37*
X80917233Y-66921047D02*
X80928038Y-66921416D01*
X80947861Y-66922348D01*
X80959712Y-66923802D01*
X80965775Y-66926536D01*
X80968234Y-66931309D01*
X80968906Y-66935614D01*
X80968381Y-66943198D01*
X80966283Y-66959148D01*
X80962853Y-66982069D01*
X80958334Y-67010564D01*
X80952969Y-67043239D01*
X80947000Y-67078699D01*
X80940669Y-67115547D01*
X80934219Y-67152389D01*
X80927892Y-67187829D01*
X80921931Y-67220472D01*
X80916577Y-67248922D01*
X80912075Y-67271783D01*
X80908665Y-67287662D01*
X80906591Y-67295161D01*
X80906375Y-67295517D01*
X80898484Y-67298337D01*
X80883880Y-67299982D01*
X80865941Y-67300457D01*
X80848045Y-67299768D01*
X80833571Y-67297919D01*
X80826427Y-67295399D01*
X80824129Y-67293111D01*
X80822582Y-67289553D01*
X80821910Y-67283707D01*
X80822233Y-67274553D01*
X80823675Y-67261074D01*
X80826356Y-67242252D01*
X80830399Y-67217067D01*
X80835926Y-67184502D01*
X80843058Y-67143538D01*
X80847907Y-67115940D01*
X80855224Y-67074858D01*
X80862208Y-67036596D01*
X80868619Y-67002399D01*
X80874215Y-66973515D01*
X80878758Y-66951188D01*
X80882006Y-66936665D01*
X80883477Y-66931576D01*
X80886822Y-66925723D01*
X80891967Y-66922382D01*
X80901306Y-66921005D01*
X80917233Y-66921047D01*
G36*
X81238564Y-66919362D02*
G01*
X81263183Y-66922054D01*
X81276574Y-66924982D01*
X81304105Y-66937783D01*
X81324932Y-66958016D01*
X81338773Y-66985241D01*
X81345346Y-67019014D01*
X81345880Y-67033239D01*
X81345004Y-67044553D01*
X81342552Y-67064105D01*
X81338782Y-67090142D01*
X81333954Y-67120907D01*
X81328329Y-67154648D01*
X81325322Y-67171959D01*
X81317840Y-67213253D01*
X81311554Y-67245246D01*
X81306282Y-67268706D01*
X81301845Y-67284398D01*
X81298062Y-67293088D01*
X81296411Y-67295010D01*
X81286550Y-67298480D01*
X81270367Y-67300555D01*
X81251615Y-67301158D01*
X81234047Y-67300215D01*
X81221414Y-67297650D01*
X81219171Y-67296567D01*
X81217102Y-67293904D01*
X81216091Y-67288398D01*
X81216260Y-67278921D01*
X81217735Y-67264348D01*
X81220639Y-67243549D01*
X81225095Y-67215400D01*
X81231229Y-67178772D01*
X81233736Y-67164081D01*
X81240792Y-67122444D01*
X81246043Y-67089591D01*
X81249476Y-67064305D01*
X81251075Y-67045369D01*
X81250824Y-67031566D01*
X81248708Y-67021679D01*
X81244710Y-67014491D01*
X81238817Y-67008784D01*
X81231694Y-67003788D01*
X81222042Y-66999197D01*
X81209318Y-66997091D01*
X81190639Y-66997127D01*
X81180574Y-66997682D01*
X81161823Y-66999258D01*
X81147268Y-67001178D01*
X81139674Y-67003064D01*
X81139301Y-67003324D01*
X81137623Y-67008972D01*
X81134472Y-67023331D01*
X81130104Y-67045100D01*
X81124770Y-67072978D01*
X81118724Y-67105665D01*
X81112221Y-67141858D01*
X81111207Y-67147592D01*
X81103061Y-67192859D01*
X81096218Y-67228818D01*
X81090511Y-67256216D01*
X81085771Y-67275799D01*
X81081830Y-67288311D01*
X81078520Y-67294500D01*
X81077965Y-67295010D01*
X81068087Y-67298489D01*
X81051889Y-67300562D01*
X81033122Y-67301153D01*
X81015539Y-67300191D01*
X81002889Y-67297602D01*
X81000654Y-67296520D01*
X80998844Y-67294072D01*
X80997946Y-67288904D01*
X80998087Y-67280050D01*
X80999388Y-67266547D01*
X81001975Y-67247432D01*
X81005972Y-67221740D01*
X81011502Y-67188508D01*
X81018689Y-67146771D01*
X81023319Y-67120263D01*
X81032566Y-67068360D01*
X81040452Y-67026007D01*
X81047087Y-66992701D01*
X81052576Y-66967939D01*
X81057028Y-66951218D01*
X81060549Y-66942034D01*
X81061738Y-66940341D01*
X81073064Y-66934108D01*
X81092467Y-66928708D01*
X81117888Y-66924289D01*
X81147268Y-66920997D01*
X81178547Y-66918981D01*
X81209665Y-66918387D01*
X81238564Y-66919362D01*
G37*
X81238564Y-66919362D02*
X81263183Y-66922054D01*
X81276574Y-66924982D01*
X81304105Y-66937783D01*
X81324932Y-66958016D01*
X81338773Y-66985241D01*
X81345346Y-67019014D01*
X81345880Y-67033239D01*
X81345004Y-67044553D01*
X81342552Y-67064105D01*
X81338782Y-67090142D01*
X81333954Y-67120907D01*
X81328329Y-67154648D01*
X81325322Y-67171959D01*
X81317840Y-67213253D01*
X81311554Y-67245246D01*
X81306282Y-67268706D01*
X81301845Y-67284398D01*
X81298062Y-67293088D01*
X81296411Y-67295010D01*
X81286550Y-67298480D01*
X81270367Y-67300555D01*
X81251615Y-67301158D01*
X81234047Y-67300215D01*
X81221414Y-67297650D01*
X81219171Y-67296567D01*
X81217102Y-67293904D01*
X81216091Y-67288398D01*
X81216260Y-67278921D01*
X81217735Y-67264348D01*
X81220639Y-67243549D01*
X81225095Y-67215400D01*
X81231229Y-67178772D01*
X81233736Y-67164081D01*
X81240792Y-67122444D01*
X81246043Y-67089591D01*
X81249476Y-67064305D01*
X81251075Y-67045369D01*
X81250824Y-67031566D01*
X81248708Y-67021679D01*
X81244710Y-67014491D01*
X81238817Y-67008784D01*
X81231694Y-67003788D01*
X81222042Y-66999197D01*
X81209318Y-66997091D01*
X81190639Y-66997127D01*
X81180574Y-66997682D01*
X81161823Y-66999258D01*
X81147268Y-67001178D01*
X81139674Y-67003064D01*
X81139301Y-67003324D01*
X81137623Y-67008972D01*
X81134472Y-67023331D01*
X81130104Y-67045100D01*
X81124770Y-67072978D01*
X81118724Y-67105665D01*
X81112221Y-67141858D01*
X81111207Y-67147592D01*
X81103061Y-67192859D01*
X81096218Y-67228818D01*
X81090511Y-67256216D01*
X81085771Y-67275799D01*
X81081830Y-67288311D01*
X81078520Y-67294500D01*
X81077965Y-67295010D01*
X81068087Y-67298489D01*
X81051889Y-67300562D01*
X81033122Y-67301153D01*
X81015539Y-67300191D01*
X81002889Y-67297602D01*
X81000654Y-67296520D01*
X80998844Y-67294072D01*
X80997946Y-67288904D01*
X80998087Y-67280050D01*
X80999388Y-67266547D01*
X81001975Y-67247432D01*
X81005972Y-67221740D01*
X81011502Y-67188508D01*
X81018689Y-67146771D01*
X81023319Y-67120263D01*
X81032566Y-67068360D01*
X81040452Y-67026007D01*
X81047087Y-66992701D01*
X81052576Y-66967939D01*
X81057028Y-66951218D01*
X81060549Y-66942034D01*
X81061738Y-66940341D01*
X81073064Y-66934108D01*
X81092467Y-66928708D01*
X81117888Y-66924289D01*
X81147268Y-66920997D01*
X81178547Y-66918981D01*
X81209665Y-66918387D01*
X81238564Y-66919362D01*
G36*
X81840601Y-66921048D02*
G01*
X81854533Y-66923535D01*
X81861756Y-66928450D01*
X81863959Y-66936426D01*
X81863968Y-66937413D01*
X81863097Y-66944879D01*
X81860655Y-66961099D01*
X81856849Y-66984823D01*
X81851884Y-67014801D01*
X81845968Y-67049783D01*
X81839306Y-67088520D01*
X81834160Y-67118057D01*
X81825723Y-67165724D01*
X81818682Y-67204268D01*
X81812836Y-67234602D01*
X81807984Y-67257636D01*
X81803924Y-67274282D01*
X81800455Y-67285450D01*
X81797376Y-67292052D01*
X81795160Y-67294587D01*
X81783665Y-67298810D01*
X81766303Y-67300915D01*
X81747107Y-67300889D01*
X81730107Y-67298719D01*
X81719898Y-67294835D01*
X81717605Y-67292606D01*
X81716065Y-67289088D01*
X81715400Y-67283268D01*
X81715734Y-67274133D01*
X81717189Y-67260670D01*
X81719889Y-67241867D01*
X81723957Y-67216710D01*
X81729514Y-67184186D01*
X81736685Y-67143282D01*
X81741787Y-67114441D01*
X81748988Y-67073751D01*
X81755591Y-67036323D01*
X81761395Y-67003310D01*
X81766197Y-66975866D01*
X81769797Y-66955146D01*
X81771991Y-66942304D01*
X81772600Y-66938448D01*
X81775737Y-66933626D01*
X81780582Y-66928342D01*
X81791855Y-66922781D01*
X81811763Y-66920456D01*
X81818267Y-66920360D01*
X81840601Y-66921048D01*
G37*
X81840601Y-66921048D02*
X81854533Y-66923535D01*
X81861756Y-66928450D01*
X81863959Y-66936426D01*
X81863968Y-66937413D01*
X81863097Y-66944879D01*
X81860655Y-66961099D01*
X81856849Y-66984823D01*
X81851884Y-67014801D01*
X81845968Y-67049783D01*
X81839306Y-67088520D01*
X81834160Y-67118057D01*
X81825723Y-67165724D01*
X81818682Y-67204268D01*
X81812836Y-67234602D01*
X81807984Y-67257636D01*
X81803924Y-67274282D01*
X81800455Y-67285450D01*
X81797376Y-67292052D01*
X81795160Y-67294587D01*
X81783665Y-67298810D01*
X81766303Y-67300915D01*
X81747107Y-67300889D01*
X81730107Y-67298719D01*
X81719898Y-67294835D01*
X81717605Y-67292606D01*
X81716065Y-67289088D01*
X81715400Y-67283268D01*
X81715734Y-67274133D01*
X81717189Y-67260670D01*
X81719889Y-67241867D01*
X81723957Y-67216710D01*
X81729514Y-67184186D01*
X81736685Y-67143282D01*
X81741787Y-67114441D01*
X81748988Y-67073751D01*
X81755591Y-67036323D01*
X81761395Y-67003310D01*
X81766197Y-66975866D01*
X81769797Y-66955146D01*
X81771991Y-66942304D01*
X81772600Y-66938448D01*
X81775737Y-66933626D01*
X81780582Y-66928342D01*
X81791855Y-66922781D01*
X81811763Y-66920456D01*
X81818267Y-66920360D01*
X81840601Y-66921048D01*
G36*
X80981596Y-66797610D02*
G01*
X80987169Y-66797798D01*
X80992513Y-66799204D01*
X80994840Y-66804109D01*
X80994675Y-66814952D01*
X80993412Y-66826914D01*
X80990394Y-66848660D01*
X80986133Y-66862540D01*
X80978556Y-66870317D01*
X80965588Y-66873756D01*
X80945157Y-66874619D01*
X80937304Y-66874640D01*
X80913229Y-66873983D01*
X80898541Y-66871947D01*
X80892547Y-66868433D01*
X80892489Y-66868290D01*
X80892048Y-66860212D01*
X80893265Y-66845558D01*
X80895452Y-66830190D01*
X80899494Y-66811150D01*
X80903976Y-66800943D01*
X80908697Y-66798211D01*
X80927097Y-66797814D01*
X80947615Y-66797570D01*
X80966898Y-66797496D01*
X80981596Y-66797610D01*
G37*
X80981596Y-66797610D02*
X80987169Y-66797798D01*
X80992513Y-66799204D01*
X80994840Y-66804109D01*
X80994675Y-66814952D01*
X80993412Y-66826914D01*
X80990394Y-66848660D01*
X80986133Y-66862540D01*
X80978556Y-66870317D01*
X80965588Y-66873756D01*
X80945157Y-66874619D01*
X80937304Y-66874640D01*
X80913229Y-66873983D01*
X80898541Y-66871947D01*
X80892547Y-66868433D01*
X80892489Y-66868290D01*
X80892048Y-66860212D01*
X80893265Y-66845558D01*
X80895452Y-66830190D01*
X80899494Y-66811150D01*
X80903976Y-66800943D01*
X80908697Y-66798211D01*
X80927097Y-66797814D01*
X80947615Y-66797570D01*
X80966898Y-66797496D01*
X80981596Y-66797610D01*
G36*
X81887778Y-66818021D02*
G01*
X81885172Y-66836899D01*
X81881798Y-66853600D01*
X81879560Y-66861201D01*
X81876583Y-66867745D01*
X81872249Y-66871723D01*
X81864286Y-66873773D01*
X81850422Y-66874532D01*
X81831689Y-66874640D01*
X81808540Y-66874105D01*
X81794161Y-66872366D01*
X81787210Y-66869221D01*
X81786307Y-66867813D01*
X81785989Y-66859477D01*
X81787684Y-66844823D01*
X81790741Y-66827336D01*
X81794510Y-66810504D01*
X81798340Y-66797814D01*
X81800041Y-66794165D01*
X81807219Y-66790978D01*
X81823411Y-66788971D01*
X81847283Y-66788280D01*
X81890887Y-66788280D01*
X81887778Y-66818021D01*
G37*
X81887778Y-66818021D02*
X81885172Y-66836899D01*
X81881798Y-66853600D01*
X81879560Y-66861201D01*
X81876583Y-66867745D01*
X81872249Y-66871723D01*
X81864286Y-66873773D01*
X81850422Y-66874532D01*
X81831689Y-66874640D01*
X81808540Y-66874105D01*
X81794161Y-66872366D01*
X81787210Y-66869221D01*
X81786307Y-66867813D01*
X81785989Y-66859477D01*
X81787684Y-66844823D01*
X81790741Y-66827336D01*
X81794510Y-66810504D01*
X81798340Y-66797814D01*
X81800041Y-66794165D01*
X81807219Y-66790978D01*
X81823411Y-66788971D01*
X81847283Y-66788280D01*
X81890887Y-66788280D01*
X81887778Y-66818021D01*
G36*
X81414200Y-65953312D02*
G01*
X81475458Y-65962679D01*
X81533648Y-65978529D01*
X81557347Y-65987089D01*
X81579141Y-65996140D01*
X81596137Y-66004418D01*
X81603647Y-66009092D01*
X81620497Y-66021944D01*
X81619078Y-66086342D01*
X81617660Y-66150740D01*
X81602420Y-66150123D01*
X81591656Y-66148557D01*
X81573649Y-66144751D01*
X81550916Y-66139278D01*
X81526220Y-66132778D01*
X81499740Y-66125787D01*
X81478202Y-66121028D01*
X81458224Y-66118062D01*
X81436424Y-66116449D01*
X81409422Y-66115751D01*
X81394140Y-66115614D01*
X81364967Y-66115592D01*
X81343724Y-66116111D01*
X81328182Y-66117433D01*
X81316114Y-66119818D01*
X81305292Y-66123524D01*
X81297620Y-66126882D01*
X81268493Y-66144023D01*
X81245111Y-66166410D01*
X81227025Y-66194923D01*
X81213788Y-66230439D01*
X81204954Y-66273838D01*
X81200565Y-66317710D01*
X81199750Y-66363162D01*
X81202812Y-66408356D01*
X81209398Y-66450188D01*
X81219155Y-66485554D01*
X81219878Y-66487522D01*
X81235912Y-66517983D01*
X81259095Y-66545654D01*
X81286705Y-66567600D01*
X81301614Y-66575643D01*
X81313726Y-66580664D01*
X81325356Y-66584028D01*
X81338914Y-66586033D01*
X81356813Y-66586976D01*
X81381462Y-66587156D01*
X81394140Y-66587078D01*
X81424493Y-66586506D01*
X81448548Y-66585012D01*
X81470159Y-66582073D01*
X81493181Y-66577166D01*
X81521140Y-66569860D01*
X81546386Y-66563298D01*
X81569718Y-66557852D01*
X81588497Y-66554098D01*
X81599880Y-66552622D01*
X81617660Y-66552060D01*
X81619086Y-66614363D01*
X81619581Y-66640622D01*
X81619457Y-66658737D01*
X81618434Y-66670722D01*
X81616231Y-66678587D01*
X81612568Y-66684344D01*
X81608749Y-66688432D01*
X81595533Y-66697770D01*
X81574174Y-66708231D01*
X81546517Y-66719077D01*
X81514408Y-66729571D01*
X81486982Y-66737157D01*
X81440675Y-66745800D01*
X81390106Y-66749873D01*
X81339989Y-66749166D01*
X81305057Y-66745294D01*
X81244619Y-66731134D01*
X81191090Y-66709528D01*
X81144472Y-66680479D01*
X81104768Y-66643987D01*
X81076605Y-66607342D01*
X81051264Y-66560221D01*
X81031820Y-66506156D01*
X81018517Y-66446649D01*
X81011603Y-66383199D01*
X81011322Y-66317308D01*
X81017921Y-66250475D01*
X81018023Y-66249800D01*
X81028426Y-66196665D01*
X81042713Y-66151082D01*
X81061886Y-66110858D01*
X81086946Y-66073802D01*
X81111449Y-66045450D01*
X81148546Y-66013330D01*
X81192493Y-65987676D01*
X81242162Y-65968669D01*
X81296422Y-65956486D01*
X81354145Y-65951308D01*
X81414200Y-65953312D01*
G37*
X81414200Y-65953312D02*
X81475458Y-65962679D01*
X81533648Y-65978529D01*
X81557347Y-65987089D01*
X81579141Y-65996140D01*
X81596137Y-66004418D01*
X81603647Y-66009092D01*
X81620497Y-66021944D01*
X81619078Y-66086342D01*
X81617660Y-66150740D01*
X81602420Y-66150123D01*
X81591656Y-66148557D01*
X81573649Y-66144751D01*
X81550916Y-66139278D01*
X81526220Y-66132778D01*
X81499740Y-66125787D01*
X81478202Y-66121028D01*
X81458224Y-66118062D01*
X81436424Y-66116449D01*
X81409422Y-66115751D01*
X81394140Y-66115614D01*
X81364967Y-66115592D01*
X81343724Y-66116111D01*
X81328182Y-66117433D01*
X81316114Y-66119818D01*
X81305292Y-66123524D01*
X81297620Y-66126882D01*
X81268493Y-66144023D01*
X81245111Y-66166410D01*
X81227025Y-66194923D01*
X81213788Y-66230439D01*
X81204954Y-66273838D01*
X81200565Y-66317710D01*
X81199750Y-66363162D01*
X81202812Y-66408356D01*
X81209398Y-66450188D01*
X81219155Y-66485554D01*
X81219878Y-66487522D01*
X81235912Y-66517983D01*
X81259095Y-66545654D01*
X81286705Y-66567600D01*
X81301614Y-66575643D01*
X81313726Y-66580664D01*
X81325356Y-66584028D01*
X81338914Y-66586033D01*
X81356813Y-66586976D01*
X81381462Y-66587156D01*
X81394140Y-66587078D01*
X81424493Y-66586506D01*
X81448548Y-66585012D01*
X81470159Y-66582073D01*
X81493181Y-66577166D01*
X81521140Y-66569860D01*
X81546386Y-66563298D01*
X81569718Y-66557852D01*
X81588497Y-66554098D01*
X81599880Y-66552622D01*
X81617660Y-66552060D01*
X81619086Y-66614363D01*
X81619581Y-66640622D01*
X81619457Y-66658737D01*
X81618434Y-66670722D01*
X81616231Y-66678587D01*
X81612568Y-66684344D01*
X81608749Y-66688432D01*
X81595533Y-66697770D01*
X81574174Y-66708231D01*
X81546517Y-66719077D01*
X81514408Y-66729571D01*
X81486982Y-66737157D01*
X81440675Y-66745800D01*
X81390106Y-66749873D01*
X81339989Y-66749166D01*
X81305057Y-66745294D01*
X81244619Y-66731134D01*
X81191090Y-66709528D01*
X81144472Y-66680479D01*
X81104768Y-66643987D01*
X81076605Y-66607342D01*
X81051264Y-66560221D01*
X81031820Y-66506156D01*
X81018517Y-66446649D01*
X81011603Y-66383199D01*
X81011322Y-66317308D01*
X81017921Y-66250475D01*
X81018023Y-66249800D01*
X81028426Y-66196665D01*
X81042713Y-66151082D01*
X81061886Y-66110858D01*
X81086946Y-66073802D01*
X81111449Y-66045450D01*
X81148546Y-66013330D01*
X81192493Y-65987676D01*
X81242162Y-65968669D01*
X81296422Y-65956486D01*
X81354145Y-65951308D01*
X81414200Y-65953312D01*
G36*
X80886430Y-65966291D02*
G01*
X80907006Y-65967762D01*
X80921556Y-65970128D01*
X80926780Y-65972228D01*
X80928772Y-65973923D01*
X80930489Y-65976333D01*
X80931956Y-65980185D01*
X80933197Y-65986209D01*
X80934236Y-65995130D01*
X80935097Y-66007678D01*
X80935804Y-66024580D01*
X80936381Y-66046563D01*
X80936853Y-66074356D01*
X80937243Y-66108686D01*
X80937576Y-66150281D01*
X80937876Y-66199868D01*
X80938168Y-66258177D01*
X80938467Y-66324318D01*
X80938742Y-66404548D01*
X80938808Y-66474678D01*
X80938667Y-66534766D01*
X80938316Y-66584873D01*
X80937755Y-66625055D01*
X80936985Y-66655372D01*
X80936003Y-66675881D01*
X80934810Y-66686642D01*
X80934629Y-66687365D01*
X80931403Y-66696508D01*
X80926826Y-66703054D01*
X80919314Y-66707437D01*
X80907285Y-66710090D01*
X80889156Y-66711448D01*
X80863344Y-66711946D01*
X80844792Y-66712010D01*
X80817904Y-66711839D01*
X80799146Y-66711077D01*
X80786496Y-66709461D01*
X80777930Y-66706724D01*
X80771424Y-66702602D01*
X80771132Y-66702368D01*
X80759140Y-66692656D01*
X80759140Y-66336861D01*
X80759173Y-66265562D01*
X80759280Y-66203802D01*
X80759474Y-66150960D01*
X80759763Y-66106416D01*
X80760161Y-66069549D01*
X80760679Y-66039739D01*
X80761327Y-66016364D01*
X80762117Y-65998805D01*
X80763060Y-65986440D01*
X80764167Y-65978648D01*
X80765451Y-65974810D01*
X80765729Y-65974463D01*
X80773972Y-65971238D01*
X80790043Y-65968715D01*
X80811633Y-65966927D01*
X80836434Y-65965905D01*
X80862136Y-65965683D01*
X80886430Y-65966291D01*
G37*
X80886430Y-65966291D02*
X80907006Y-65967762D01*
X80921556Y-65970128D01*
X80926780Y-65972228D01*
X80928772Y-65973923D01*
X80930489Y-65976333D01*
X80931956Y-65980185D01*
X80933197Y-65986209D01*
X80934236Y-65995130D01*
X80935097Y-66007678D01*
X80935804Y-66024580D01*
X80936381Y-66046563D01*
X80936853Y-66074356D01*
X80937243Y-66108686D01*
X80937576Y-66150281D01*
X80937876Y-66199868D01*
X80938168Y-66258177D01*
X80938467Y-66324318D01*
X80938742Y-66404548D01*
X80938808Y-66474678D01*
X80938667Y-66534766D01*
X80938316Y-66584873D01*
X80937755Y-66625055D01*
X80936985Y-66655372D01*
X80936003Y-66675881D01*
X80934810Y-66686642D01*
X80934629Y-66687365D01*
X80931403Y-66696508D01*
X80926826Y-66703054D01*
X80919314Y-66707437D01*
X80907285Y-66710090D01*
X80889156Y-66711448D01*
X80863344Y-66711946D01*
X80844792Y-66712010D01*
X80817904Y-66711839D01*
X80799146Y-66711077D01*
X80786496Y-66709461D01*
X80777930Y-66706724D01*
X80771424Y-66702602D01*
X80771132Y-66702368D01*
X80759140Y-66692656D01*
X80759140Y-66336861D01*
X80759173Y-66265562D01*
X80759280Y-66203802D01*
X80759474Y-66150960D01*
X80759763Y-66106416D01*
X80760161Y-66069549D01*
X80760679Y-66039739D01*
X80761327Y-66016364D01*
X80762117Y-65998805D01*
X80763060Y-65986440D01*
X80764167Y-65978648D01*
X80765451Y-65974810D01*
X80765729Y-65974463D01*
X80773972Y-65971238D01*
X80790043Y-65968715D01*
X80811633Y-65966927D01*
X80836434Y-65965905D01*
X80862136Y-65965683D01*
X80886430Y-65966291D01*
G36*
X80471618Y-65952041D02*
G01*
X80510910Y-65959173D01*
X80544335Y-65971717D01*
X80573594Y-65990303D01*
X80598944Y-66013978D01*
X80622298Y-66046008D01*
X80641371Y-66086871D01*
X80653936Y-66127262D01*
X80655895Y-66135849D01*
X80657540Y-66145689D01*
X80658896Y-66157696D01*
X80659992Y-66172788D01*
X80660853Y-66191880D01*
X80661507Y-66215888D01*
X80661980Y-66245728D01*
X80662299Y-66282317D01*
X80662491Y-66326570D01*
X80662583Y-66379404D01*
X80662602Y-66423531D01*
X80662558Y-66484380D01*
X80662405Y-66535788D01*
X80662127Y-66578470D01*
X80661704Y-66613144D01*
X80661121Y-66640528D01*
X80660359Y-66661339D01*
X80659401Y-66676294D01*
X80658229Y-66686110D01*
X80656826Y-66691505D01*
X80656030Y-66692771D01*
X80648538Y-66695964D01*
X80632799Y-66698385D01*
X80608141Y-66700106D01*
X80580817Y-66701048D01*
X80551479Y-66701539D01*
X80530480Y-66701258D01*
X80516016Y-66700066D01*
X80506286Y-66697821D01*
X80500033Y-66694749D01*
X80487871Y-66686781D01*
X80486345Y-66426380D01*
X80485968Y-66367267D01*
X80485564Y-66317458D01*
X80485106Y-66276098D01*
X80484562Y-66242332D01*
X80483903Y-66215303D01*
X80483098Y-66194156D01*
X80482118Y-66178035D01*
X80480933Y-66166086D01*
X80479513Y-66157452D01*
X80477826Y-66151277D01*
X80476584Y-66148200D01*
X80463408Y-66126875D01*
X80445901Y-66112628D01*
X80421787Y-66103821D01*
X80412205Y-66101867D01*
X80380037Y-66099952D01*
X80342948Y-66103985D01*
X80303857Y-66113449D01*
X80265691Y-66127823D01*
X80233619Y-66142365D01*
X80232219Y-66414271D01*
X80231851Y-66476411D01*
X80231426Y-66529086D01*
X80230922Y-66572991D01*
X80230321Y-66608822D01*
X80229603Y-66637273D01*
X80228746Y-66659039D01*
X80227732Y-66674816D01*
X80226541Y-66685298D01*
X80225152Y-66691182D01*
X80224230Y-66692778D01*
X80216126Y-66695891D01*
X80200236Y-66698334D01*
X80178916Y-66700065D01*
X80154521Y-66701042D01*
X80129407Y-66701222D01*
X80105929Y-66700562D01*
X80086443Y-66699020D01*
X80073303Y-66696554D01*
X80070800Y-66695550D01*
X80058100Y-66688920D01*
X80056795Y-66326171D01*
X80056570Y-66253897D01*
X80056453Y-66191189D01*
X80056455Y-66137455D01*
X80056582Y-66092103D01*
X80056844Y-66054539D01*
X80057248Y-66024172D01*
X80057802Y-66000407D01*
X80058515Y-65982652D01*
X80059395Y-65970315D01*
X80060450Y-65962802D01*
X80061689Y-65959522D01*
X80061875Y-65959368D01*
X80069060Y-65957936D01*
X80084178Y-65956796D01*
X80105006Y-65955962D01*
X80129321Y-65955451D01*
X80154898Y-65955277D01*
X80179516Y-65955457D01*
X80200951Y-65956004D01*
X80216980Y-65956935D01*
X80225324Y-65958243D01*
X80231514Y-65965436D01*
X80233360Y-65975667D01*
X80233360Y-65990008D01*
X80265014Y-65977146D01*
X80310364Y-65962167D01*
X80358924Y-65953183D01*
X80413255Y-65949753D01*
X80424757Y-65949694D01*
X80471618Y-65952041D01*
G37*
X80471618Y-65952041D02*
X80510910Y-65959173D01*
X80544335Y-65971717D01*
X80573594Y-65990303D01*
X80598944Y-66013978D01*
X80622298Y-66046008D01*
X80641371Y-66086871D01*
X80653936Y-66127262D01*
X80655895Y-66135849D01*
X80657540Y-66145689D01*
X80658896Y-66157696D01*
X80659992Y-66172788D01*
X80660853Y-66191880D01*
X80661507Y-66215888D01*
X80661980Y-66245728D01*
X80662299Y-66282317D01*
X80662491Y-66326570D01*
X80662583Y-66379404D01*
X80662602Y-66423531D01*
X80662558Y-66484380D01*
X80662405Y-66535788D01*
X80662127Y-66578470D01*
X80661704Y-66613144D01*
X80661121Y-66640528D01*
X80660359Y-66661339D01*
X80659401Y-66676294D01*
X80658229Y-66686110D01*
X80656826Y-66691505D01*
X80656030Y-66692771D01*
X80648538Y-66695964D01*
X80632799Y-66698385D01*
X80608141Y-66700106D01*
X80580817Y-66701048D01*
X80551479Y-66701539D01*
X80530480Y-66701258D01*
X80516016Y-66700066D01*
X80506286Y-66697821D01*
X80500033Y-66694749D01*
X80487871Y-66686781D01*
X80486345Y-66426380D01*
X80485968Y-66367267D01*
X80485564Y-66317458D01*
X80485106Y-66276098D01*
X80484562Y-66242332D01*
X80483903Y-66215303D01*
X80483098Y-66194156D01*
X80482118Y-66178035D01*
X80480933Y-66166086D01*
X80479513Y-66157452D01*
X80477826Y-66151277D01*
X80476584Y-66148200D01*
X80463408Y-66126875D01*
X80445901Y-66112628D01*
X80421787Y-66103821D01*
X80412205Y-66101867D01*
X80380037Y-66099952D01*
X80342948Y-66103985D01*
X80303857Y-66113449D01*
X80265691Y-66127823D01*
X80233619Y-66142365D01*
X80232219Y-66414271D01*
X80231851Y-66476411D01*
X80231426Y-66529086D01*
X80230922Y-66572991D01*
X80230321Y-66608822D01*
X80229603Y-66637273D01*
X80228746Y-66659039D01*
X80227732Y-66674816D01*
X80226541Y-66685298D01*
X80225152Y-66691182D01*
X80224230Y-66692778D01*
X80216126Y-66695891D01*
X80200236Y-66698334D01*
X80178916Y-66700065D01*
X80154521Y-66701042D01*
X80129407Y-66701222D01*
X80105929Y-66700562D01*
X80086443Y-66699020D01*
X80073303Y-66696554D01*
X80070800Y-66695550D01*
X80058100Y-66688920D01*
X80056795Y-66326171D01*
X80056570Y-66253897D01*
X80056453Y-66191189D01*
X80056455Y-66137455D01*
X80056582Y-66092103D01*
X80056844Y-66054539D01*
X80057248Y-66024172D01*
X80057802Y-66000407D01*
X80058515Y-65982652D01*
X80059395Y-65970315D01*
X80060450Y-65962802D01*
X80061689Y-65959522D01*
X80061875Y-65959368D01*
X80069060Y-65957936D01*
X80084178Y-65956796D01*
X80105006Y-65955962D01*
X80129321Y-65955451D01*
X80154898Y-65955277D01*
X80179516Y-65955457D01*
X80200951Y-65956004D01*
X80216980Y-65956935D01*
X80225324Y-65958243D01*
X80231514Y-65965436D01*
X80233360Y-65975667D01*
X80233360Y-65990008D01*
X80265014Y-65977146D01*
X80310364Y-65962167D01*
X80358924Y-65953183D01*
X80413255Y-65949753D01*
X80424757Y-65949694D01*
X80471618Y-65952041D01*
G36*
X79453259Y-65688570D02*
G01*
X79473765Y-65689040D01*
X79487501Y-65690077D01*
X79496162Y-65691889D01*
X79501443Y-65694683D01*
X79504789Y-65698320D01*
X79507041Y-65703238D01*
X79508795Y-65711834D01*
X79510106Y-65725203D01*
X79511027Y-65744443D01*
X79511614Y-65770650D01*
X79511919Y-65804922D01*
X79512000Y-65844015D01*
X79512000Y-65979848D01*
X79543654Y-65966986D01*
X79589004Y-65952007D01*
X79637564Y-65943023D01*
X79691895Y-65939593D01*
X79703397Y-65939534D01*
X79750258Y-65941881D01*
X79789550Y-65949013D01*
X79822975Y-65961557D01*
X79852234Y-65980143D01*
X79877584Y-66003818D01*
X79900938Y-66035848D01*
X79920011Y-66076711D01*
X79932576Y-66117102D01*
X79934535Y-66125689D01*
X79936180Y-66135529D01*
X79937536Y-66147536D01*
X79938632Y-66162628D01*
X79939493Y-66181720D01*
X79940147Y-66205728D01*
X79940620Y-66235568D01*
X79940939Y-66272157D01*
X79941131Y-66316410D01*
X79941223Y-66369244D01*
X79941242Y-66413371D01*
X79941198Y-66474220D01*
X79941045Y-66525628D01*
X79940767Y-66568310D01*
X79940344Y-66602984D01*
X79939761Y-66630368D01*
X79938999Y-66651179D01*
X79938041Y-66666134D01*
X79936869Y-66675950D01*
X79935466Y-66681345D01*
X79934670Y-66682611D01*
X79927178Y-66685804D01*
X79911439Y-66688225D01*
X79886781Y-66689946D01*
X79859457Y-66690888D01*
X79830119Y-66691379D01*
X79809120Y-66691098D01*
X79794656Y-66689906D01*
X79784926Y-66687661D01*
X79778673Y-66684589D01*
X79766511Y-66676621D01*
X79764985Y-66416220D01*
X79764608Y-66357107D01*
X79764204Y-66307298D01*
X79763746Y-66265938D01*
X79763202Y-66232172D01*
X79762543Y-66205143D01*
X79761738Y-66183996D01*
X79760758Y-66167875D01*
X79759573Y-66155926D01*
X79758153Y-66147292D01*
X79756466Y-66141117D01*
X79755224Y-66138040D01*
X79742048Y-66116715D01*
X79724541Y-66102468D01*
X79700427Y-66093661D01*
X79690845Y-66091707D01*
X79658677Y-66089792D01*
X79621588Y-66093825D01*
X79582497Y-66103289D01*
X79544331Y-66117663D01*
X79512259Y-66132205D01*
X79510859Y-66404111D01*
X79510491Y-66466251D01*
X79510066Y-66518926D01*
X79509562Y-66562831D01*
X79508961Y-66598662D01*
X79508243Y-66627113D01*
X79507386Y-66648879D01*
X79506372Y-66664656D01*
X79505181Y-66675138D01*
X79503792Y-66681022D01*
X79502870Y-66682618D01*
X79494766Y-66685731D01*
X79478876Y-66688174D01*
X79457556Y-66689905D01*
X79433161Y-66690882D01*
X79408047Y-66691062D01*
X79384569Y-66690402D01*
X79365083Y-66688860D01*
X79351943Y-66686394D01*
X79349440Y-66685390D01*
X79336740Y-66678760D01*
X79335444Y-66190603D01*
X79335238Y-66108950D01*
X79335083Y-66036857D01*
X79334989Y-65973722D01*
X79334965Y-65918946D01*
X79335019Y-65871927D01*
X79335160Y-65832066D01*
X79335396Y-65798761D01*
X79335737Y-65771413D01*
X79336190Y-65749420D01*
X79336764Y-65732182D01*
X79337469Y-65719099D01*
X79338312Y-65709569D01*
X79339303Y-65702993D01*
X79340449Y-65698770D01*
X79341760Y-65696299D01*
X79342575Y-65695453D01*
X79349137Y-65692457D01*
X79361281Y-65690379D01*
X79380315Y-65689106D01*
X79407547Y-65688525D01*
X79424290Y-65688460D01*
X79453259Y-65688570D01*
G37*
X79453259Y-65688570D02*
X79473765Y-65689040D01*
X79487501Y-65690077D01*
X79496162Y-65691889D01*
X79501443Y-65694683D01*
X79504789Y-65698320D01*
X79507041Y-65703238D01*
X79508795Y-65711834D01*
X79510106Y-65725203D01*
X79511027Y-65744443D01*
X79511614Y-65770650D01*
X79511919Y-65804922D01*
X79512000Y-65844015D01*
X79512000Y-65979848D01*
X79543654Y-65966986D01*
X79589004Y-65952007D01*
X79637564Y-65943023D01*
X79691895Y-65939593D01*
X79703397Y-65939534D01*
X79750258Y-65941881D01*
X79789550Y-65949013D01*
X79822975Y-65961557D01*
X79852234Y-65980143D01*
X79877584Y-66003818D01*
X79900938Y-66035848D01*
X79920011Y-66076711D01*
X79932576Y-66117102D01*
X79934535Y-66125689D01*
X79936180Y-66135529D01*
X79937536Y-66147536D01*
X79938632Y-66162628D01*
X79939493Y-66181720D01*
X79940147Y-66205728D01*
X79940620Y-66235568D01*
X79940939Y-66272157D01*
X79941131Y-66316410D01*
X79941223Y-66369244D01*
X79941242Y-66413371D01*
X79941198Y-66474220D01*
X79941045Y-66525628D01*
X79940767Y-66568310D01*
X79940344Y-66602984D01*
X79939761Y-66630368D01*
X79938999Y-66651179D01*
X79938041Y-66666134D01*
X79936869Y-66675950D01*
X79935466Y-66681345D01*
X79934670Y-66682611D01*
X79927178Y-66685804D01*
X79911439Y-66688225D01*
X79886781Y-66689946D01*
X79859457Y-66690888D01*
X79830119Y-66691379D01*
X79809120Y-66691098D01*
X79794656Y-66689906D01*
X79784926Y-66687661D01*
X79778673Y-66684589D01*
X79766511Y-66676621D01*
X79764985Y-66416220D01*
X79764608Y-66357107D01*
X79764204Y-66307298D01*
X79763746Y-66265938D01*
X79763202Y-66232172D01*
X79762543Y-66205143D01*
X79761738Y-66183996D01*
X79760758Y-66167875D01*
X79759573Y-66155926D01*
X79758153Y-66147292D01*
X79756466Y-66141117D01*
X79755224Y-66138040D01*
X79742048Y-66116715D01*
X79724541Y-66102468D01*
X79700427Y-66093661D01*
X79690845Y-66091707D01*
X79658677Y-66089792D01*
X79621588Y-66093825D01*
X79582497Y-66103289D01*
X79544331Y-66117663D01*
X79512259Y-66132205D01*
X79510859Y-66404111D01*
X79510491Y-66466251D01*
X79510066Y-66518926D01*
X79509562Y-66562831D01*
X79508961Y-66598662D01*
X79508243Y-66627113D01*
X79507386Y-66648879D01*
X79506372Y-66664656D01*
X79505181Y-66675138D01*
X79503792Y-66681022D01*
X79502870Y-66682618D01*
X79494766Y-66685731D01*
X79478876Y-66688174D01*
X79457556Y-66689905D01*
X79433161Y-66690882D01*
X79408047Y-66691062D01*
X79384569Y-66690402D01*
X79365083Y-66688860D01*
X79351943Y-66686394D01*
X79349440Y-66685390D01*
X79336740Y-66678760D01*
X79335444Y-66190603D01*
X79335238Y-66108950D01*
X79335083Y-66036857D01*
X79334989Y-65973722D01*
X79334965Y-65918946D01*
X79335019Y-65871927D01*
X79335160Y-65832066D01*
X79335396Y-65798761D01*
X79335737Y-65771413D01*
X79336190Y-65749420D01*
X79336764Y-65732182D01*
X79337469Y-65719099D01*
X79338312Y-65709569D01*
X79339303Y-65702993D01*
X79340449Y-65698770D01*
X79341760Y-65696299D01*
X79342575Y-65695453D01*
X79349137Y-65692457D01*
X79361281Y-65690379D01*
X79380315Y-65689106D01*
X79407547Y-65688525D01*
X79424290Y-65688460D01*
X79453259Y-65688570D01*
G36*
X79001200Y-65887272D02*
G01*
X79062458Y-65896639D01*
X79120648Y-65912489D01*
X79144347Y-65921049D01*
X79166141Y-65930100D01*
X79183137Y-65938378D01*
X79190647Y-65943052D01*
X79207497Y-65955904D01*
X79206078Y-66020302D01*
X79204660Y-66084700D01*
X79189420Y-66084083D01*
X79178656Y-66082517D01*
X79160649Y-66078711D01*
X79137916Y-66073238D01*
X79113220Y-66066738D01*
X79086740Y-66059747D01*
X79065202Y-66054988D01*
X79045224Y-66052022D01*
X79023424Y-66050409D01*
X78996422Y-66049711D01*
X78981140Y-66049574D01*
X78951967Y-66049552D01*
X78930724Y-66050071D01*
X78915182Y-66051393D01*
X78903114Y-66053778D01*
X78892292Y-66057484D01*
X78884620Y-66060842D01*
X78855493Y-66077983D01*
X78832111Y-66100370D01*
X78814025Y-66128883D01*
X78800788Y-66164399D01*
X78791954Y-66207798D01*
X78787565Y-66251670D01*
X78786750Y-66297122D01*
X78789812Y-66342316D01*
X78796398Y-66384148D01*
X78806155Y-66419514D01*
X78806878Y-66421482D01*
X78822912Y-66451943D01*
X78846095Y-66479614D01*
X78873705Y-66501560D01*
X78888614Y-66509603D01*
X78900726Y-66514624D01*
X78912356Y-66517988D01*
X78925914Y-66519993D01*
X78943813Y-66520936D01*
X78968462Y-66521116D01*
X78981140Y-66521038D01*
X79011493Y-66520466D01*
X79035548Y-66518972D01*
X79057159Y-66516033D01*
X79080181Y-66511126D01*
X79108140Y-66503820D01*
X79133386Y-66497258D01*
X79156718Y-66491812D01*
X79175497Y-66488058D01*
X79186880Y-66486582D01*
X79204660Y-66486020D01*
X79206086Y-66548323D01*
X79206581Y-66574582D01*
X79206457Y-66592697D01*
X79205434Y-66604682D01*
X79203231Y-66612547D01*
X79199568Y-66618304D01*
X79195749Y-66622392D01*
X79182533Y-66631730D01*
X79161174Y-66642191D01*
X79133517Y-66653037D01*
X79101408Y-66663531D01*
X79073982Y-66671117D01*
X79027675Y-66679760D01*
X78977106Y-66683833D01*
X78926989Y-66683126D01*
X78892057Y-66679254D01*
X78831619Y-66665094D01*
X78778090Y-66643488D01*
X78731472Y-66614439D01*
X78691768Y-66577947D01*
X78663605Y-66541302D01*
X78638264Y-66494181D01*
X78618820Y-66440116D01*
X78605517Y-66380609D01*
X78598603Y-66317159D01*
X78598322Y-66251268D01*
X78604921Y-66184435D01*
X78605023Y-66183760D01*
X78615426Y-66130625D01*
X78629713Y-66085042D01*
X78648886Y-66044818D01*
X78673946Y-66007762D01*
X78698449Y-65979410D01*
X78735546Y-65947290D01*
X78779493Y-65921636D01*
X78829162Y-65902629D01*
X78883422Y-65890446D01*
X78941145Y-65885268D01*
X79001200Y-65887272D01*
G37*
X79001200Y-65887272D02*
X79062458Y-65896639D01*
X79120648Y-65912489D01*
X79144347Y-65921049D01*
X79166141Y-65930100D01*
X79183137Y-65938378D01*
X79190647Y-65943052D01*
X79207497Y-65955904D01*
X79206078Y-66020302D01*
X79204660Y-66084700D01*
X79189420Y-66084083D01*
X79178656Y-66082517D01*
X79160649Y-66078711D01*
X79137916Y-66073238D01*
X79113220Y-66066738D01*
X79086740Y-66059747D01*
X79065202Y-66054988D01*
X79045224Y-66052022D01*
X79023424Y-66050409D01*
X78996422Y-66049711D01*
X78981140Y-66049574D01*
X78951967Y-66049552D01*
X78930724Y-66050071D01*
X78915182Y-66051393D01*
X78903114Y-66053778D01*
X78892292Y-66057484D01*
X78884620Y-66060842D01*
X78855493Y-66077983D01*
X78832111Y-66100370D01*
X78814025Y-66128883D01*
X78800788Y-66164399D01*
X78791954Y-66207798D01*
X78787565Y-66251670D01*
X78786750Y-66297122D01*
X78789812Y-66342316D01*
X78796398Y-66384148D01*
X78806155Y-66419514D01*
X78806878Y-66421482D01*
X78822912Y-66451943D01*
X78846095Y-66479614D01*
X78873705Y-66501560D01*
X78888614Y-66509603D01*
X78900726Y-66514624D01*
X78912356Y-66517988D01*
X78925914Y-66519993D01*
X78943813Y-66520936D01*
X78968462Y-66521116D01*
X78981140Y-66521038D01*
X79011493Y-66520466D01*
X79035548Y-66518972D01*
X79057159Y-66516033D01*
X79080181Y-66511126D01*
X79108140Y-66503820D01*
X79133386Y-66497258D01*
X79156718Y-66491812D01*
X79175497Y-66488058D01*
X79186880Y-66486582D01*
X79204660Y-66486020D01*
X79206086Y-66548323D01*
X79206581Y-66574582D01*
X79206457Y-66592697D01*
X79205434Y-66604682D01*
X79203231Y-66612547D01*
X79199568Y-66618304D01*
X79195749Y-66622392D01*
X79182533Y-66631730D01*
X79161174Y-66642191D01*
X79133517Y-66653037D01*
X79101408Y-66663531D01*
X79073982Y-66671117D01*
X79027675Y-66679760D01*
X78977106Y-66683833D01*
X78926989Y-66683126D01*
X78892057Y-66679254D01*
X78831619Y-66665094D01*
X78778090Y-66643488D01*
X78731472Y-66614439D01*
X78691768Y-66577947D01*
X78663605Y-66541302D01*
X78638264Y-66494181D01*
X78618820Y-66440116D01*
X78605517Y-66380609D01*
X78598603Y-66317159D01*
X78598322Y-66251268D01*
X78604921Y-66184435D01*
X78605023Y-66183760D01*
X78615426Y-66130625D01*
X78629713Y-66085042D01*
X78648886Y-66044818D01*
X78673946Y-66007762D01*
X78698449Y-65979410D01*
X78735546Y-65947290D01*
X78779493Y-65921636D01*
X78829162Y-65902629D01*
X78883422Y-65890446D01*
X78941145Y-65885268D01*
X79001200Y-65887272D01*
G36*
X77626417Y-65763544D02*
G01*
X77632950Y-65766484D01*
X77637042Y-65771472D01*
X77637301Y-65771946D01*
X77639283Y-65780571D01*
X77640923Y-65797085D01*
X77642065Y-65819215D01*
X77642552Y-65844692D01*
X77642560Y-65848146D01*
X77642560Y-65914520D01*
X77711140Y-65914520D01*
X77743101Y-65914697D01*
X77766305Y-65915973D01*
X77782154Y-65919466D01*
X77792049Y-65926293D01*
X77797393Y-65937570D01*
X77799588Y-65954416D01*
X77800036Y-65977947D01*
X77800040Y-65985351D01*
X77799841Y-66009070D01*
X77798317Y-66026330D01*
X77794073Y-66038157D01*
X77785718Y-66045579D01*
X77771856Y-66049622D01*
X77751096Y-66051312D01*
X77722044Y-66051676D01*
X77710009Y-66051680D01*
X77642560Y-66051680D01*
X77642560Y-66275533D01*
X77642597Y-66331115D01*
X77642752Y-66377431D01*
X77643087Y-66415380D01*
X77643662Y-66445855D01*
X77644540Y-66469754D01*
X77645782Y-66487971D01*
X77647452Y-66501402D01*
X77649610Y-66510943D01*
X77652319Y-66517490D01*
X77655641Y-66521937D01*
X77659637Y-66525182D01*
X77659830Y-66525312D01*
X77666871Y-66526783D01*
X77681840Y-66527995D01*
X77702505Y-66528818D01*
X77725443Y-66529122D01*
X77749989Y-66529584D01*
X77771483Y-66530780D01*
X77787495Y-66532526D01*
X77795293Y-66534458D01*
X77799868Y-66537997D01*
X77802769Y-66544059D01*
X77804363Y-66554704D01*
X77805020Y-66571990D01*
X77805120Y-66589367D01*
X77804578Y-66616578D01*
X77802361Y-66635446D01*
X77797578Y-66647759D01*
X77789342Y-66655305D01*
X77776764Y-66659871D01*
X77769258Y-66661465D01*
X77745593Y-66664713D01*
X77715706Y-66667068D01*
X77683043Y-66668427D01*
X77651051Y-66668688D01*
X77623174Y-66667749D01*
X77607461Y-66666256D01*
X77567519Y-66658397D01*
X77535963Y-66646665D01*
X77511469Y-66630186D01*
X77492717Y-66608088D01*
X77479211Y-66581582D01*
X77476485Y-66574656D01*
X77474203Y-66567947D01*
X77472322Y-66560509D01*
X77470794Y-66551398D01*
X77469574Y-66539669D01*
X77468616Y-66524377D01*
X77467874Y-66504579D01*
X77467302Y-66479328D01*
X77466853Y-66447681D01*
X77466483Y-66408692D01*
X77466145Y-66361418D01*
X77465799Y-66305922D01*
X77465356Y-66249613D01*
X77464757Y-66199061D01*
X77464021Y-66154937D01*
X77463163Y-66117914D01*
X77462201Y-66088664D01*
X77461152Y-66067860D01*
X77460033Y-66056173D01*
X77459393Y-66053875D01*
X77451732Y-66049712D01*
X77437957Y-66045949D01*
X77430414Y-66044668D01*
X77392230Y-66038911D01*
X77363854Y-66033423D01*
X77344941Y-66028124D01*
X77335144Y-66022936D01*
X77335027Y-66022822D01*
X77330656Y-66013204D01*
X77328001Y-65996891D01*
X77327031Y-65976980D01*
X77327717Y-65956567D01*
X77330030Y-65938748D01*
X77333940Y-65926619D01*
X77335972Y-65924032D01*
X77346303Y-65920074D01*
X77366718Y-65916996D01*
X77397176Y-65914801D01*
X77403282Y-65914520D01*
X77462220Y-65911980D01*
X77463652Y-65852106D01*
X77464127Y-65827824D01*
X77465158Y-65810293D01*
X77468175Y-65798127D01*
X77474607Y-65789942D01*
X77485882Y-65784352D01*
X77503431Y-65779973D01*
X77528680Y-65775419D01*
X77545859Y-65772428D01*
X77577163Y-65767094D01*
X77600024Y-65763841D01*
X77615942Y-65762660D01*
X77626417Y-65763544D01*
G37*
X77626417Y-65763544D02*
X77632950Y-65766484D01*
X77637042Y-65771472D01*
X77637301Y-65771946D01*
X77639283Y-65780571D01*
X77640923Y-65797085D01*
X77642065Y-65819215D01*
X77642552Y-65844692D01*
X77642560Y-65848146D01*
X77642560Y-65914520D01*
X77711140Y-65914520D01*
X77743101Y-65914697D01*
X77766305Y-65915973D01*
X77782154Y-65919466D01*
X77792049Y-65926293D01*
X77797393Y-65937570D01*
X77799588Y-65954416D01*
X77800036Y-65977947D01*
X77800040Y-65985351D01*
X77799841Y-66009070D01*
X77798317Y-66026330D01*
X77794073Y-66038157D01*
X77785718Y-66045579D01*
X77771856Y-66049622D01*
X77751096Y-66051312D01*
X77722044Y-66051676D01*
X77710009Y-66051680D01*
X77642560Y-66051680D01*
X77642560Y-66275533D01*
X77642597Y-66331115D01*
X77642752Y-66377431D01*
X77643087Y-66415380D01*
X77643662Y-66445855D01*
X77644540Y-66469754D01*
X77645782Y-66487971D01*
X77647452Y-66501402D01*
X77649610Y-66510943D01*
X77652319Y-66517490D01*
X77655641Y-66521937D01*
X77659637Y-66525182D01*
X77659830Y-66525312D01*
X77666871Y-66526783D01*
X77681840Y-66527995D01*
X77702505Y-66528818D01*
X77725443Y-66529122D01*
X77749989Y-66529584D01*
X77771483Y-66530780D01*
X77787495Y-66532526D01*
X77795293Y-66534458D01*
X77799868Y-66537997D01*
X77802769Y-66544059D01*
X77804363Y-66554704D01*
X77805020Y-66571990D01*
X77805120Y-66589367D01*
X77804578Y-66616578D01*
X77802361Y-66635446D01*
X77797578Y-66647759D01*
X77789342Y-66655305D01*
X77776764Y-66659871D01*
X77769258Y-66661465D01*
X77745593Y-66664713D01*
X77715706Y-66667068D01*
X77683043Y-66668427D01*
X77651051Y-66668688D01*
X77623174Y-66667749D01*
X77607461Y-66666256D01*
X77567519Y-66658397D01*
X77535963Y-66646665D01*
X77511469Y-66630186D01*
X77492717Y-66608088D01*
X77479211Y-66581582D01*
X77476485Y-66574656D01*
X77474203Y-66567947D01*
X77472322Y-66560509D01*
X77470794Y-66551398D01*
X77469574Y-66539669D01*
X77468616Y-66524377D01*
X77467874Y-66504579D01*
X77467302Y-66479328D01*
X77466853Y-66447681D01*
X77466483Y-66408692D01*
X77466145Y-66361418D01*
X77465799Y-66305922D01*
X77465356Y-66249613D01*
X77464757Y-66199061D01*
X77464021Y-66154937D01*
X77463163Y-66117914D01*
X77462201Y-66088664D01*
X77461152Y-66067860D01*
X77460033Y-66056173D01*
X77459393Y-66053875D01*
X77451732Y-66049712D01*
X77437957Y-66045949D01*
X77430414Y-66044668D01*
X77392230Y-66038911D01*
X77363854Y-66033423D01*
X77344941Y-66028124D01*
X77335144Y-66022936D01*
X77335027Y-66022822D01*
X77330656Y-66013204D01*
X77328001Y-65996891D01*
X77327031Y-65976980D01*
X77327717Y-65956567D01*
X77330030Y-65938748D01*
X77333940Y-65926619D01*
X77335972Y-65924032D01*
X77346303Y-65920074D01*
X77366718Y-65916996D01*
X77397176Y-65914801D01*
X77403282Y-65914520D01*
X77462220Y-65911980D01*
X77463652Y-65852106D01*
X77464127Y-65827824D01*
X77465158Y-65810293D01*
X77468175Y-65798127D01*
X77474607Y-65789942D01*
X77485882Y-65784352D01*
X77503431Y-65779973D01*
X77528680Y-65775419D01*
X77545859Y-65772428D01*
X77577163Y-65767094D01*
X77600024Y-65763841D01*
X77615942Y-65762660D01*
X77626417Y-65763544D01*
G36*
X78245979Y-65910890D02*
G01*
X78277530Y-65913772D01*
X78297431Y-65917267D01*
X78348780Y-65934102D01*
X78393864Y-65958927D01*
X78432695Y-65991752D01*
X78465282Y-66032586D01*
X78491636Y-66081441D01*
X78506330Y-66120260D01*
X78510780Y-66135525D01*
X78514086Y-66151170D01*
X78516480Y-66169298D01*
X78518195Y-66192012D01*
X78519465Y-66221417D01*
X78520160Y-66245079D01*
X78520914Y-66277729D01*
X78521151Y-66301742D01*
X78520776Y-66318634D01*
X78519693Y-66329920D01*
X78517804Y-66337115D01*
X78515016Y-66341734D01*
X78513964Y-66342869D01*
X78511146Y-66344945D01*
X78506616Y-66346657D01*
X78499459Y-66348040D01*
X78488756Y-66349129D01*
X78473591Y-66349957D01*
X78453046Y-66350559D01*
X78426204Y-66350970D01*
X78392148Y-66351224D01*
X78349960Y-66351355D01*
X78298723Y-66351398D01*
X78286657Y-66351400D01*
X78067881Y-66351400D01*
X78071234Y-66379933D01*
X78080038Y-66418930D01*
X78096321Y-66452606D01*
X78117272Y-66477611D01*
X78131463Y-66489615D01*
X78145467Y-66498438D01*
X78161181Y-66504543D01*
X78180503Y-66508396D01*
X78205329Y-66510460D01*
X78237556Y-66511198D01*
X78254700Y-66511223D01*
X78285018Y-66510936D01*
X78310189Y-66510018D01*
X78332857Y-66508121D01*
X78355668Y-66504897D01*
X78381270Y-66499998D01*
X78412308Y-66493077D01*
X78436947Y-66487257D01*
X78458269Y-66482272D01*
X78471909Y-66479653D01*
X78480056Y-66479351D01*
X78484896Y-66481313D01*
X78488617Y-66485488D01*
X78489017Y-66486033D01*
X78492128Y-66495375D01*
X78494425Y-66511915D01*
X78495805Y-66532717D01*
X78496166Y-66554844D01*
X78495404Y-66575359D01*
X78493418Y-66591325D01*
X78492791Y-66593996D01*
X78485715Y-66603445D01*
X78470163Y-66614018D01*
X78447669Y-66625099D01*
X78419767Y-66636074D01*
X78387990Y-66646325D01*
X78353873Y-66655238D01*
X78325858Y-66661003D01*
X78296282Y-66665076D01*
X78262497Y-66667769D01*
X78227971Y-66668967D01*
X78196169Y-66668559D01*
X78170557Y-66666431D01*
X78168537Y-66666130D01*
X78107958Y-66652583D01*
X78054788Y-66632096D01*
X78008975Y-66604625D01*
X77970465Y-66570128D01*
X77939208Y-66528560D01*
X77915151Y-66479879D01*
X77903624Y-66445380D01*
X77900267Y-66430290D01*
X77897629Y-66410793D01*
X77895598Y-66385476D01*
X77894064Y-66352931D01*
X77892917Y-66311747D01*
X77892842Y-66308220D01*
X77892401Y-66256280D01*
X77893539Y-66215510D01*
X78069318Y-66215510D01*
X78074170Y-66216511D01*
X78087877Y-66217414D01*
X78109133Y-66218182D01*
X78136635Y-66218780D01*
X78169076Y-66219171D01*
X78205152Y-66219319D01*
X78207150Y-66219320D01*
X78345021Y-66219320D01*
X78342209Y-66192070D01*
X78334403Y-66155908D01*
X78319512Y-66123614D01*
X78298684Y-66096742D01*
X78273073Y-66076848D01*
X78249573Y-66066906D01*
X78219485Y-66062350D01*
X78187149Y-66063829D01*
X78156667Y-66070887D01*
X78137914Y-66079319D01*
X78112511Y-66099817D01*
X78092309Y-66127615D01*
X78078642Y-66160614D01*
X78074634Y-66178680D01*
X78071925Y-66196134D01*
X78070008Y-66209457D01*
X78069318Y-66215510D01*
X77893539Y-66215510D01*
X77893621Y-66212579D01*
X77896785Y-66175290D01*
X77902179Y-66142585D01*
X77910087Y-66112637D01*
X77920794Y-66083618D01*
X77931486Y-66060010D01*
X77957716Y-66017213D01*
X77991660Y-65980563D01*
X78032493Y-65950695D01*
X78079395Y-65928245D01*
X78116543Y-65917012D01*
X78142502Y-65912824D01*
X78175023Y-65910411D01*
X78210662Y-65909768D01*
X78245979Y-65910890D01*
G37*
X78245979Y-65910890D02*
X78277530Y-65913772D01*
X78297431Y-65917267D01*
X78348780Y-65934102D01*
X78393864Y-65958927D01*
X78432695Y-65991752D01*
X78465282Y-66032586D01*
X78491636Y-66081441D01*
X78506330Y-66120260D01*
X78510780Y-66135525D01*
X78514086Y-66151170D01*
X78516480Y-66169298D01*
X78518195Y-66192012D01*
X78519465Y-66221417D01*
X78520160Y-66245079D01*
X78520914Y-66277729D01*
X78521151Y-66301742D01*
X78520776Y-66318634D01*
X78519693Y-66329920D01*
X78517804Y-66337115D01*
X78515016Y-66341734D01*
X78513964Y-66342869D01*
X78511146Y-66344945D01*
X78506616Y-66346657D01*
X78499459Y-66348040D01*
X78488756Y-66349129D01*
X78473591Y-66349957D01*
X78453046Y-66350559D01*
X78426204Y-66350970D01*
X78392148Y-66351224D01*
X78349960Y-66351355D01*
X78298723Y-66351398D01*
X78286657Y-66351400D01*
X78067881Y-66351400D01*
X78071234Y-66379933D01*
X78080038Y-66418930D01*
X78096321Y-66452606D01*
X78117272Y-66477611D01*
X78131463Y-66489615D01*
X78145467Y-66498438D01*
X78161181Y-66504543D01*
X78180503Y-66508396D01*
X78205329Y-66510460D01*
X78237556Y-66511198D01*
X78254700Y-66511223D01*
X78285018Y-66510936D01*
X78310189Y-66510018D01*
X78332857Y-66508121D01*
X78355668Y-66504897D01*
X78381270Y-66499998D01*
X78412308Y-66493077D01*
X78436947Y-66487257D01*
X78458269Y-66482272D01*
X78471909Y-66479653D01*
X78480056Y-66479351D01*
X78484896Y-66481313D01*
X78488617Y-66485488D01*
X78489017Y-66486033D01*
X78492128Y-66495375D01*
X78494425Y-66511915D01*
X78495805Y-66532717D01*
X78496166Y-66554844D01*
X78495404Y-66575359D01*
X78493418Y-66591325D01*
X78492791Y-66593996D01*
X78485715Y-66603445D01*
X78470163Y-66614018D01*
X78447669Y-66625099D01*
X78419767Y-66636074D01*
X78387990Y-66646325D01*
X78353873Y-66655238D01*
X78325858Y-66661003D01*
X78296282Y-66665076D01*
X78262497Y-66667769D01*
X78227971Y-66668967D01*
X78196169Y-66668559D01*
X78170557Y-66666431D01*
X78168537Y-66666130D01*
X78107958Y-66652583D01*
X78054788Y-66632096D01*
X78008975Y-66604625D01*
X77970465Y-66570128D01*
X77939208Y-66528560D01*
X77915151Y-66479879D01*
X77903624Y-66445380D01*
X77900267Y-66430290D01*
X77897629Y-66410793D01*
X77895598Y-66385476D01*
X77894064Y-66352931D01*
X77892917Y-66311747D01*
X77892842Y-66308220D01*
X77892401Y-66256280D01*
X77893539Y-66215510D01*
X78069318Y-66215510D01*
X78074170Y-66216511D01*
X78087877Y-66217414D01*
X78109133Y-66218182D01*
X78136635Y-66218780D01*
X78169076Y-66219171D01*
X78205152Y-66219319D01*
X78207150Y-66219320D01*
X78345021Y-66219320D01*
X78342209Y-66192070D01*
X78334403Y-66155908D01*
X78319512Y-66123614D01*
X78298684Y-66096742D01*
X78273073Y-66076848D01*
X78249573Y-66066906D01*
X78219485Y-66062350D01*
X78187149Y-66063829D01*
X78156667Y-66070887D01*
X78137914Y-66079319D01*
X78112511Y-66099817D01*
X78092309Y-66127615D01*
X78078642Y-66160614D01*
X78074634Y-66178680D01*
X78071925Y-66196134D01*
X78070008Y-66209457D01*
X78069318Y-66215510D01*
X77893539Y-66215510D01*
X77893621Y-66212579D01*
X77896785Y-66175290D01*
X77902179Y-66142585D01*
X77910087Y-66112637D01*
X77920794Y-66083618D01*
X77931486Y-66060010D01*
X77957716Y-66017213D01*
X77991660Y-65980563D01*
X78032493Y-65950695D01*
X78079395Y-65928245D01*
X78116543Y-65917012D01*
X78142502Y-65912824D01*
X78175023Y-65910411D01*
X78210662Y-65909768D01*
X78245979Y-65910890D01*
G36*
X80847503Y-65701160D02*
G01*
X80874664Y-65701519D01*
X80898557Y-65702509D01*
X80917086Y-65703995D01*
X80928154Y-65705842D01*
X80929653Y-65706418D01*
X80933460Y-65709194D01*
X80936137Y-65713850D01*
X80937881Y-65722007D01*
X80938889Y-65735283D01*
X80939356Y-65755295D01*
X80939479Y-65783663D01*
X80939480Y-65787520D01*
X80939384Y-65816948D01*
X80938966Y-65837835D01*
X80938030Y-65851801D01*
X80936380Y-65860462D01*
X80933820Y-65865438D01*
X80930153Y-65868347D01*
X80929653Y-65868621D01*
X80921112Y-65870554D01*
X80904585Y-65872166D01*
X80882245Y-65873314D01*
X80856266Y-65873856D01*
X80849504Y-65873880D01*
X80819280Y-65873630D01*
X80797540Y-65872772D01*
X80782614Y-65871146D01*
X80772837Y-65868589D01*
X80767890Y-65865971D01*
X80763382Y-65862273D01*
X80760265Y-65857408D01*
X80758285Y-65849610D01*
X80757184Y-65837113D01*
X80756708Y-65818151D01*
X80756600Y-65790956D01*
X80756600Y-65788019D01*
X80756596Y-65757060D01*
X80757507Y-65734480D01*
X80760711Y-65718962D01*
X80767589Y-65709186D01*
X80779521Y-65703834D01*
X80797887Y-65701587D01*
X80824068Y-65701126D01*
X80847503Y-65701160D01*
G37*
X80847503Y-65701160D02*
X80874664Y-65701519D01*
X80898557Y-65702509D01*
X80917086Y-65703995D01*
X80928154Y-65705842D01*
X80929653Y-65706418D01*
X80933460Y-65709194D01*
X80936137Y-65713850D01*
X80937881Y-65722007D01*
X80938889Y-65735283D01*
X80939356Y-65755295D01*
X80939479Y-65783663D01*
X80939480Y-65787520D01*
X80939384Y-65816948D01*
X80938966Y-65837835D01*
X80938030Y-65851801D01*
X80936380Y-65860462D01*
X80933820Y-65865438D01*
X80930153Y-65868347D01*
X80929653Y-65868621D01*
X80921112Y-65870554D01*
X80904585Y-65872166D01*
X80882245Y-65873314D01*
X80856266Y-65873856D01*
X80849504Y-65873880D01*
X80819280Y-65873630D01*
X80797540Y-65872772D01*
X80782614Y-65871146D01*
X80772837Y-65868589D01*
X80767890Y-65865971D01*
X80763382Y-65862273D01*
X80760265Y-65857408D01*
X80758285Y-65849610D01*
X80757184Y-65837113D01*
X80756708Y-65818151D01*
X80756600Y-65790956D01*
X80756600Y-65788019D01*
X80756596Y-65757060D01*
X80757507Y-65734480D01*
X80760711Y-65718962D01*
X80767589Y-65709186D01*
X80779521Y-65703834D01*
X80797887Y-65701587D01*
X80824068Y-65701126D01*
X80847503Y-65701160D01*
G36*
X77569009Y-63951789D02*
G01*
X77569275Y-63952134D01*
X77573914Y-63964291D01*
X77575930Y-63982494D01*
X77575413Y-64002996D01*
X77572454Y-64022052D01*
X77567258Y-64035736D01*
X77560335Y-64045861D01*
X77549165Y-64061287D01*
X77535735Y-64079292D01*
X77530228Y-64086536D01*
X77477266Y-64163723D01*
X77432926Y-64245225D01*
X77397608Y-64330113D01*
X77371712Y-64417459D01*
X77358494Y-64485473D01*
X77355126Y-64517824D01*
X77353444Y-64556351D01*
X77353411Y-64597496D01*
X77354991Y-64637700D01*
X77358147Y-64673407D01*
X77360587Y-64690096D01*
X77378237Y-64762673D01*
X77404714Y-64830382D01*
X77439899Y-64893173D01*
X77483677Y-64951000D01*
X77535931Y-65003815D01*
X77596544Y-65051571D01*
X77665399Y-65094220D01*
X77742379Y-65131714D01*
X77827368Y-65164006D01*
X77920248Y-65191048D01*
X78020904Y-65212793D01*
X78129217Y-65229194D01*
X78245072Y-65240202D01*
X78368351Y-65245770D01*
X78498939Y-65245851D01*
X78636717Y-65240398D01*
X78702033Y-65236051D01*
X78829001Y-65223647D01*
X78957847Y-65205440D01*
X79087232Y-65181803D01*
X79215816Y-65153110D01*
X79342259Y-65119737D01*
X79465222Y-65082057D01*
X79583365Y-65040446D01*
X79695347Y-64995277D01*
X79799830Y-64946926D01*
X79872184Y-64908954D01*
X79891550Y-64898328D01*
X79907443Y-64889845D01*
X79917892Y-64884544D01*
X79920952Y-64883280D01*
X79921645Y-64888132D01*
X79922265Y-64901780D01*
X79922786Y-64922858D01*
X79923179Y-64950002D01*
X79923418Y-64981847D01*
X79923480Y-65009444D01*
X79923480Y-65135609D01*
X79866330Y-65163962D01*
X79752762Y-65216195D01*
X79630971Y-65264490D01*
X79502229Y-65308523D01*
X79367810Y-65347971D01*
X79228986Y-65382506D01*
X79087030Y-65411807D01*
X78943215Y-65435546D01*
X78798813Y-65453401D01*
X78696660Y-65462325D01*
X78675877Y-65463423D01*
X78647214Y-65464370D01*
X78612336Y-65465159D01*
X78572906Y-65465782D01*
X78530591Y-65466232D01*
X78487054Y-65466502D01*
X78443960Y-65466584D01*
X78402973Y-65466472D01*
X78365759Y-65466156D01*
X78333982Y-65465632D01*
X78309306Y-65464890D01*
X78295340Y-65464098D01*
X78164916Y-65450304D01*
X78043026Y-65431097D01*
X77929583Y-65406445D01*
X77824502Y-65376316D01*
X77727698Y-65340678D01*
X77639086Y-65299500D01*
X77558580Y-65252749D01*
X77486096Y-65200393D01*
X77421548Y-65142401D01*
X77413472Y-65134175D01*
X77361974Y-65075784D01*
X77319503Y-65015942D01*
X77285245Y-64953050D01*
X77258388Y-64885507D01*
X77238119Y-64811713D01*
X77230552Y-64773933D01*
X77224376Y-64729311D01*
X77220587Y-64679643D01*
X77219216Y-64628086D01*
X77220293Y-64577797D01*
X77223848Y-64531935D01*
X77227925Y-64503622D01*
X77249291Y-64413282D01*
X77280035Y-64326142D01*
X77320262Y-64242017D01*
X77370073Y-64160720D01*
X77429573Y-64082065D01*
X77498864Y-64005863D01*
X77509420Y-63995314D01*
X77530081Y-63975054D01*
X77544833Y-63961164D01*
X77554888Y-63952768D01*
X77561460Y-63948990D01*
X77565763Y-63948956D01*
X77569009Y-63951789D01*
G37*
X77569009Y-63951789D02*
X77569275Y-63952134D01*
X77573914Y-63964291D01*
X77575930Y-63982494D01*
X77575413Y-64002996D01*
X77572454Y-64022052D01*
X77567258Y-64035736D01*
X77560335Y-64045861D01*
X77549165Y-64061287D01*
X77535735Y-64079292D01*
X77530228Y-64086536D01*
X77477266Y-64163723D01*
X77432926Y-64245225D01*
X77397608Y-64330113D01*
X77371712Y-64417459D01*
X77358494Y-64485473D01*
X77355126Y-64517824D01*
X77353444Y-64556351D01*
X77353411Y-64597496D01*
X77354991Y-64637700D01*
X77358147Y-64673407D01*
X77360587Y-64690096D01*
X77378237Y-64762673D01*
X77404714Y-64830382D01*
X77439899Y-64893173D01*
X77483677Y-64951000D01*
X77535931Y-65003815D01*
X77596544Y-65051571D01*
X77665399Y-65094220D01*
X77742379Y-65131714D01*
X77827368Y-65164006D01*
X77920248Y-65191048D01*
X78020904Y-65212793D01*
X78129217Y-65229194D01*
X78245072Y-65240202D01*
X78368351Y-65245770D01*
X78498939Y-65245851D01*
X78636717Y-65240398D01*
X78702033Y-65236051D01*
X78829001Y-65223647D01*
X78957847Y-65205440D01*
X79087232Y-65181803D01*
X79215816Y-65153110D01*
X79342259Y-65119737D01*
X79465222Y-65082057D01*
X79583365Y-65040446D01*
X79695347Y-64995277D01*
X79799830Y-64946926D01*
X79872184Y-64908954D01*
X79891550Y-64898328D01*
X79907443Y-64889845D01*
X79917892Y-64884544D01*
X79920952Y-64883280D01*
X79921645Y-64888132D01*
X79922265Y-64901780D01*
X79922786Y-64922858D01*
X79923179Y-64950002D01*
X79923418Y-64981847D01*
X79923480Y-65009444D01*
X79923480Y-65135609D01*
X79866330Y-65163962D01*
X79752762Y-65216195D01*
X79630971Y-65264490D01*
X79502229Y-65308523D01*
X79367810Y-65347971D01*
X79228986Y-65382506D01*
X79087030Y-65411807D01*
X78943215Y-65435546D01*
X78798813Y-65453401D01*
X78696660Y-65462325D01*
X78675877Y-65463423D01*
X78647214Y-65464370D01*
X78612336Y-65465159D01*
X78572906Y-65465782D01*
X78530591Y-65466232D01*
X78487054Y-65466502D01*
X78443960Y-65466584D01*
X78402973Y-65466472D01*
X78365759Y-65466156D01*
X78333982Y-65465632D01*
X78309306Y-65464890D01*
X78295340Y-65464098D01*
X78164916Y-65450304D01*
X78043026Y-65431097D01*
X77929583Y-65406445D01*
X77824502Y-65376316D01*
X77727698Y-65340678D01*
X77639086Y-65299500D01*
X77558580Y-65252749D01*
X77486096Y-65200393D01*
X77421548Y-65142401D01*
X77413472Y-65134175D01*
X77361974Y-65075784D01*
X77319503Y-65015942D01*
X77285245Y-64953050D01*
X77258388Y-64885507D01*
X77238119Y-64811713D01*
X77230552Y-64773933D01*
X77224376Y-64729311D01*
X77220587Y-64679643D01*
X77219216Y-64628086D01*
X77220293Y-64577797D01*
X77223848Y-64531935D01*
X77227925Y-64503622D01*
X77249291Y-64413282D01*
X77280035Y-64326142D01*
X77320262Y-64242017D01*
X77370073Y-64160720D01*
X77429573Y-64082065D01*
X77498864Y-64005863D01*
X77509420Y-63995314D01*
X77530081Y-63975054D01*
X77544833Y-63961164D01*
X77554888Y-63952768D01*
X77561460Y-63948990D01*
X77565763Y-63948956D01*
X77569009Y-63951789D01*
G36*
X78300099Y-63834370D02*
G01*
X78320605Y-63834840D01*
X78334341Y-63835877D01*
X78343002Y-63837689D01*
X78348283Y-63840483D01*
X78351629Y-63844120D01*
X78353881Y-63849038D01*
X78355635Y-63857634D01*
X78356946Y-63871003D01*
X78357867Y-63890243D01*
X78358454Y-63916450D01*
X78358759Y-63950722D01*
X78358840Y-63989815D01*
X78358840Y-64125648D01*
X78390494Y-64112786D01*
X78435844Y-64097807D01*
X78484404Y-64088823D01*
X78538735Y-64085393D01*
X78550237Y-64085334D01*
X78597430Y-64087843D01*
X78637295Y-64095309D01*
X78671582Y-64108135D01*
X78687548Y-64116909D01*
X78710058Y-64134809D01*
X78732075Y-64159467D01*
X78751054Y-64187689D01*
X78762404Y-64210843D01*
X78775962Y-64244712D01*
X78775554Y-64537104D01*
X78775415Y-64602318D01*
X78775182Y-64657986D01*
X78774842Y-64704725D01*
X78774383Y-64743148D01*
X78773788Y-64773872D01*
X78773046Y-64797509D01*
X78772143Y-64814676D01*
X78771063Y-64825988D01*
X78769795Y-64832058D01*
X78768923Y-64833450D01*
X78761692Y-64834961D01*
X78746469Y-64836219D01*
X78725423Y-64837099D01*
X78700721Y-64837477D01*
X78698492Y-64837482D01*
X78670730Y-64837302D01*
X78651234Y-64836536D01*
X78638117Y-64834962D01*
X78629493Y-64832356D01*
X78623677Y-64828670D01*
X78621305Y-64826476D01*
X78619310Y-64823644D01*
X78617655Y-64819323D01*
X78616301Y-64812663D01*
X78615210Y-64802814D01*
X78614344Y-64788926D01*
X78613666Y-64770150D01*
X78613137Y-64745634D01*
X78612719Y-64714531D01*
X78612374Y-64675989D01*
X78612064Y-64629158D01*
X78611751Y-64573189D01*
X78611685Y-64560700D01*
X78611338Y-64501755D01*
X78610961Y-64452112D01*
X78610524Y-64410913D01*
X78609996Y-64377298D01*
X78609349Y-64350410D01*
X78608553Y-64329389D01*
X78607577Y-64313378D01*
X78606391Y-64301519D01*
X78604967Y-64292952D01*
X78603273Y-64286819D01*
X78602064Y-64283840D01*
X78588888Y-64262515D01*
X78571381Y-64248268D01*
X78547267Y-64239461D01*
X78537685Y-64237507D01*
X78505517Y-64235592D01*
X78468428Y-64239625D01*
X78429337Y-64249089D01*
X78391171Y-64263463D01*
X78359099Y-64278005D01*
X78357699Y-64549911D01*
X78357331Y-64612051D01*
X78356906Y-64664726D01*
X78356402Y-64708631D01*
X78355801Y-64744462D01*
X78355083Y-64772913D01*
X78354226Y-64794679D01*
X78353212Y-64810456D01*
X78352021Y-64820938D01*
X78350632Y-64826822D01*
X78349710Y-64828418D01*
X78341606Y-64831531D01*
X78325716Y-64833974D01*
X78304396Y-64835705D01*
X78280001Y-64836682D01*
X78254887Y-64836862D01*
X78231409Y-64836202D01*
X78211923Y-64834660D01*
X78198783Y-64832194D01*
X78196280Y-64831190D01*
X78183580Y-64824560D01*
X78182284Y-64336403D01*
X78182078Y-64254750D01*
X78181923Y-64182657D01*
X78181829Y-64119522D01*
X78181805Y-64064746D01*
X78181859Y-64017727D01*
X78182000Y-63977866D01*
X78182236Y-63944561D01*
X78182577Y-63917213D01*
X78183030Y-63895220D01*
X78183604Y-63877982D01*
X78184309Y-63864899D01*
X78185152Y-63855369D01*
X78186143Y-63848793D01*
X78187289Y-63844570D01*
X78188600Y-63842099D01*
X78189415Y-63841253D01*
X78195977Y-63838257D01*
X78208121Y-63836179D01*
X78227155Y-63834906D01*
X78254387Y-63834325D01*
X78271130Y-63834260D01*
X78300099Y-63834370D01*
G37*
X78300099Y-63834370D02*
X78320605Y-63834840D01*
X78334341Y-63835877D01*
X78343002Y-63837689D01*
X78348283Y-63840483D01*
X78351629Y-63844120D01*
X78353881Y-63849038D01*
X78355635Y-63857634D01*
X78356946Y-63871003D01*
X78357867Y-63890243D01*
X78358454Y-63916450D01*
X78358759Y-63950722D01*
X78358840Y-63989815D01*
X78358840Y-64125648D01*
X78390494Y-64112786D01*
X78435844Y-64097807D01*
X78484404Y-64088823D01*
X78538735Y-64085393D01*
X78550237Y-64085334D01*
X78597430Y-64087843D01*
X78637295Y-64095309D01*
X78671582Y-64108135D01*
X78687548Y-64116909D01*
X78710058Y-64134809D01*
X78732075Y-64159467D01*
X78751054Y-64187689D01*
X78762404Y-64210843D01*
X78775962Y-64244712D01*
X78775554Y-64537104D01*
X78775415Y-64602318D01*
X78775182Y-64657986D01*
X78774842Y-64704725D01*
X78774383Y-64743148D01*
X78773788Y-64773872D01*
X78773046Y-64797509D01*
X78772143Y-64814676D01*
X78771063Y-64825988D01*
X78769795Y-64832058D01*
X78768923Y-64833450D01*
X78761692Y-64834961D01*
X78746469Y-64836219D01*
X78725423Y-64837099D01*
X78700721Y-64837477D01*
X78698492Y-64837482D01*
X78670730Y-64837302D01*
X78651234Y-64836536D01*
X78638117Y-64834962D01*
X78629493Y-64832356D01*
X78623677Y-64828670D01*
X78621305Y-64826476D01*
X78619310Y-64823644D01*
X78617655Y-64819323D01*
X78616301Y-64812663D01*
X78615210Y-64802814D01*
X78614344Y-64788926D01*
X78613666Y-64770150D01*
X78613137Y-64745634D01*
X78612719Y-64714531D01*
X78612374Y-64675989D01*
X78612064Y-64629158D01*
X78611751Y-64573189D01*
X78611685Y-64560700D01*
X78611338Y-64501755D01*
X78610961Y-64452112D01*
X78610524Y-64410913D01*
X78609996Y-64377298D01*
X78609349Y-64350410D01*
X78608553Y-64329389D01*
X78607577Y-64313378D01*
X78606391Y-64301519D01*
X78604967Y-64292952D01*
X78603273Y-64286819D01*
X78602064Y-64283840D01*
X78588888Y-64262515D01*
X78571381Y-64248268D01*
X78547267Y-64239461D01*
X78537685Y-64237507D01*
X78505517Y-64235592D01*
X78468428Y-64239625D01*
X78429337Y-64249089D01*
X78391171Y-64263463D01*
X78359099Y-64278005D01*
X78357699Y-64549911D01*
X78357331Y-64612051D01*
X78356906Y-64664726D01*
X78356402Y-64708631D01*
X78355801Y-64744462D01*
X78355083Y-64772913D01*
X78354226Y-64794679D01*
X78353212Y-64810456D01*
X78352021Y-64820938D01*
X78350632Y-64826822D01*
X78349710Y-64828418D01*
X78341606Y-64831531D01*
X78325716Y-64833974D01*
X78304396Y-64835705D01*
X78280001Y-64836682D01*
X78254887Y-64836862D01*
X78231409Y-64836202D01*
X78211923Y-64834660D01*
X78198783Y-64832194D01*
X78196280Y-64831190D01*
X78183580Y-64824560D01*
X78182284Y-64336403D01*
X78182078Y-64254750D01*
X78181923Y-64182657D01*
X78181829Y-64119522D01*
X78181805Y-64064746D01*
X78181859Y-64017727D01*
X78182000Y-63977866D01*
X78182236Y-63944561D01*
X78182577Y-63917213D01*
X78183030Y-63895220D01*
X78183604Y-63877982D01*
X78184309Y-63864899D01*
X78185152Y-63855369D01*
X78186143Y-63848793D01*
X78187289Y-63844570D01*
X78188600Y-63842099D01*
X78189415Y-63841253D01*
X78195977Y-63838257D01*
X78208121Y-63836179D01*
X78227155Y-63834906D01*
X78254387Y-63834325D01*
X78271130Y-63834260D01*
X78300099Y-63834370D01*
G36*
X79104697Y-63919504D02*
G01*
X79111230Y-63922444D01*
X79115322Y-63927432D01*
X79115581Y-63927906D01*
X79117563Y-63936531D01*
X79119203Y-63953045D01*
X79120345Y-63975175D01*
X79120832Y-64000652D01*
X79120840Y-64004106D01*
X79120840Y-64070480D01*
X79189420Y-64070480D01*
X79221381Y-64070657D01*
X79244585Y-64071933D01*
X79260434Y-64075426D01*
X79270329Y-64082253D01*
X79275673Y-64093530D01*
X79277868Y-64110376D01*
X79278316Y-64133907D01*
X79278320Y-64141311D01*
X79278121Y-64165030D01*
X79276597Y-64182290D01*
X79272353Y-64194117D01*
X79263998Y-64201539D01*
X79250136Y-64205582D01*
X79229376Y-64207272D01*
X79200324Y-64207636D01*
X79188289Y-64207640D01*
X79120840Y-64207640D01*
X79120840Y-64431493D01*
X79120877Y-64487075D01*
X79121032Y-64533391D01*
X79121367Y-64571340D01*
X79121942Y-64601815D01*
X79122820Y-64625714D01*
X79124062Y-64643931D01*
X79125732Y-64657362D01*
X79127890Y-64666903D01*
X79130599Y-64673450D01*
X79133921Y-64677897D01*
X79137917Y-64681142D01*
X79138110Y-64681272D01*
X79145151Y-64682743D01*
X79160120Y-64683955D01*
X79180785Y-64684778D01*
X79203723Y-64685082D01*
X79228269Y-64685544D01*
X79249763Y-64686740D01*
X79265775Y-64688486D01*
X79273573Y-64690418D01*
X79278148Y-64693957D01*
X79281049Y-64700019D01*
X79282643Y-64710664D01*
X79283300Y-64727950D01*
X79283400Y-64745327D01*
X79282858Y-64772538D01*
X79280641Y-64791406D01*
X79275858Y-64803719D01*
X79267622Y-64811265D01*
X79255044Y-64815831D01*
X79247538Y-64817425D01*
X79223873Y-64820673D01*
X79193986Y-64823028D01*
X79161323Y-64824387D01*
X79129331Y-64824648D01*
X79101454Y-64823709D01*
X79085741Y-64822216D01*
X79045799Y-64814357D01*
X79014243Y-64802625D01*
X78989749Y-64786146D01*
X78970997Y-64764048D01*
X78957491Y-64737542D01*
X78954765Y-64730616D01*
X78952483Y-64723907D01*
X78950602Y-64716469D01*
X78949074Y-64707358D01*
X78947854Y-64695629D01*
X78946896Y-64680337D01*
X78946154Y-64660539D01*
X78945582Y-64635288D01*
X78945133Y-64603641D01*
X78944763Y-64564652D01*
X78944425Y-64517378D01*
X78944079Y-64461882D01*
X78943636Y-64405573D01*
X78943037Y-64355021D01*
X78942301Y-64310897D01*
X78941443Y-64273874D01*
X78940481Y-64244624D01*
X78939432Y-64223820D01*
X78938313Y-64212133D01*
X78937673Y-64209835D01*
X78930012Y-64205672D01*
X78916237Y-64201909D01*
X78908694Y-64200628D01*
X78870510Y-64194871D01*
X78842134Y-64189383D01*
X78823221Y-64184084D01*
X78813424Y-64178896D01*
X78813307Y-64178782D01*
X78808936Y-64169164D01*
X78806281Y-64152851D01*
X78805311Y-64132940D01*
X78805997Y-64112527D01*
X78808310Y-64094708D01*
X78812220Y-64082579D01*
X78814252Y-64079992D01*
X78824583Y-64076034D01*
X78844998Y-64072956D01*
X78875456Y-64070761D01*
X78881562Y-64070480D01*
X78940500Y-64067940D01*
X78941932Y-64008066D01*
X78942407Y-63983784D01*
X78943438Y-63966253D01*
X78946455Y-63954087D01*
X78952887Y-63945902D01*
X78964162Y-63940312D01*
X78981711Y-63935933D01*
X79006960Y-63931379D01*
X79024139Y-63928388D01*
X79055443Y-63923054D01*
X79078304Y-63919801D01*
X79094222Y-63918620D01*
X79104697Y-63919504D01*
G37*
X79104697Y-63919504D02*
X79111230Y-63922444D01*
X79115322Y-63927432D01*
X79115581Y-63927906D01*
X79117563Y-63936531D01*
X79119203Y-63953045D01*
X79120345Y-63975175D01*
X79120832Y-64000652D01*
X79120840Y-64004106D01*
X79120840Y-64070480D01*
X79189420Y-64070480D01*
X79221381Y-64070657D01*
X79244585Y-64071933D01*
X79260434Y-64075426D01*
X79270329Y-64082253D01*
X79275673Y-64093530D01*
X79277868Y-64110376D01*
X79278316Y-64133907D01*
X79278320Y-64141311D01*
X79278121Y-64165030D01*
X79276597Y-64182290D01*
X79272353Y-64194117D01*
X79263998Y-64201539D01*
X79250136Y-64205582D01*
X79229376Y-64207272D01*
X79200324Y-64207636D01*
X79188289Y-64207640D01*
X79120840Y-64207640D01*
X79120840Y-64431493D01*
X79120877Y-64487075D01*
X79121032Y-64533391D01*
X79121367Y-64571340D01*
X79121942Y-64601815D01*
X79122820Y-64625714D01*
X79124062Y-64643931D01*
X79125732Y-64657362D01*
X79127890Y-64666903D01*
X79130599Y-64673450D01*
X79133921Y-64677897D01*
X79137917Y-64681142D01*
X79138110Y-64681272D01*
X79145151Y-64682743D01*
X79160120Y-64683955D01*
X79180785Y-64684778D01*
X79203723Y-64685082D01*
X79228269Y-64685544D01*
X79249763Y-64686740D01*
X79265775Y-64688486D01*
X79273573Y-64690418D01*
X79278148Y-64693957D01*
X79281049Y-64700019D01*
X79282643Y-64710664D01*
X79283300Y-64727950D01*
X79283400Y-64745327D01*
X79282858Y-64772538D01*
X79280641Y-64791406D01*
X79275858Y-64803719D01*
X79267622Y-64811265D01*
X79255044Y-64815831D01*
X79247538Y-64817425D01*
X79223873Y-64820673D01*
X79193986Y-64823028D01*
X79161323Y-64824387D01*
X79129331Y-64824648D01*
X79101454Y-64823709D01*
X79085741Y-64822216D01*
X79045799Y-64814357D01*
X79014243Y-64802625D01*
X78989749Y-64786146D01*
X78970997Y-64764048D01*
X78957491Y-64737542D01*
X78954765Y-64730616D01*
X78952483Y-64723907D01*
X78950602Y-64716469D01*
X78949074Y-64707358D01*
X78947854Y-64695629D01*
X78946896Y-64680337D01*
X78946154Y-64660539D01*
X78945582Y-64635288D01*
X78945133Y-64603641D01*
X78944763Y-64564652D01*
X78944425Y-64517378D01*
X78944079Y-64461882D01*
X78943636Y-64405573D01*
X78943037Y-64355021D01*
X78942301Y-64310897D01*
X78941443Y-64273874D01*
X78940481Y-64244624D01*
X78939432Y-64223820D01*
X78938313Y-64212133D01*
X78937673Y-64209835D01*
X78930012Y-64205672D01*
X78916237Y-64201909D01*
X78908694Y-64200628D01*
X78870510Y-64194871D01*
X78842134Y-64189383D01*
X78823221Y-64184084D01*
X78813424Y-64178896D01*
X78813307Y-64178782D01*
X78808936Y-64169164D01*
X78806281Y-64152851D01*
X78805311Y-64132940D01*
X78805997Y-64112527D01*
X78808310Y-64094708D01*
X78812220Y-64082579D01*
X78814252Y-64079992D01*
X78824583Y-64076034D01*
X78844998Y-64072956D01*
X78875456Y-64070761D01*
X78881562Y-64070480D01*
X78940500Y-64067940D01*
X78941932Y-64008066D01*
X78942407Y-63983784D01*
X78943438Y-63966253D01*
X78946455Y-63954087D01*
X78952887Y-63945902D01*
X78964162Y-63940312D01*
X78981711Y-63935933D01*
X79006960Y-63931379D01*
X79024139Y-63928388D01*
X79055443Y-63923054D01*
X79078304Y-63919801D01*
X79094222Y-63918620D01*
X79104697Y-63919504D01*
G36*
X79660529Y-64055792D02*
G01*
X79699397Y-64058359D01*
X79734842Y-64062599D01*
X79751536Y-64065558D01*
X79784126Y-64073046D01*
X79814465Y-64081589D01*
X79840766Y-64090557D01*
X79861245Y-64099320D01*
X79874115Y-64107246D01*
X79876490Y-64109703D01*
X79879891Y-64120025D01*
X79882019Y-64140023D01*
X79882832Y-64169287D01*
X79882840Y-64172872D01*
X79882658Y-64199132D01*
X79881153Y-64217432D01*
X79876880Y-64228714D01*
X79868396Y-64233916D01*
X79854259Y-64233980D01*
X79833026Y-64229846D01*
X79805777Y-64223091D01*
X79758107Y-64212440D01*
X79713025Y-64205037D01*
X79671568Y-64200872D01*
X79634776Y-64199934D01*
X79603686Y-64202212D01*
X79579336Y-64207696D01*
X79562766Y-64216375D01*
X79555795Y-64225647D01*
X79552662Y-64246204D01*
X79558239Y-64265464D01*
X79565115Y-64274609D01*
X79572733Y-64280560D01*
X79587765Y-64290896D01*
X79608910Y-64304774D01*
X79634870Y-64321354D01*
X79664345Y-64339795D01*
X79693385Y-64357642D01*
X79739373Y-64386110D01*
X79777250Y-64410692D01*
X79807921Y-64432190D01*
X79832289Y-64451401D01*
X79851259Y-64469127D01*
X79865737Y-64486166D01*
X79876625Y-64503318D01*
X79884829Y-64521383D01*
X79887687Y-64529423D01*
X79896200Y-64567758D01*
X79898225Y-64609241D01*
X79893917Y-64650322D01*
X79883425Y-64687451D01*
X79880653Y-64693970D01*
X79859662Y-64728205D01*
X79830291Y-64757867D01*
X79793583Y-64782178D01*
X79750582Y-64800364D01*
X79729699Y-64806283D01*
X79712341Y-64809268D01*
X79688124Y-64811842D01*
X79660347Y-64813819D01*
X79632309Y-64815013D01*
X79607308Y-64815238D01*
X79588643Y-64814308D01*
X79588200Y-64814258D01*
X79544129Y-64808173D01*
X79502909Y-64800473D01*
X79465896Y-64791548D01*
X79434445Y-64781786D01*
X79409911Y-64771576D01*
X79393651Y-64761305D01*
X79389896Y-64757432D01*
X79385242Y-64750028D01*
X79382274Y-64740559D01*
X79380640Y-64726725D01*
X79379987Y-64706228D01*
X79379920Y-64692273D01*
X79380122Y-64666743D01*
X79381709Y-64649121D01*
X79386146Y-64638463D01*
X79394902Y-64633828D01*
X79409443Y-64634272D01*
X79431238Y-64638853D01*
X79454038Y-64644644D01*
X79499021Y-64654789D01*
X79544348Y-64662388D01*
X79587461Y-64667146D01*
X79625796Y-64668767D01*
X79652244Y-64667509D01*
X79672150Y-64664741D01*
X79685572Y-64660680D01*
X79696187Y-64653860D01*
X79703521Y-64647054D01*
X79716772Y-64628423D01*
X79719931Y-64609254D01*
X79713044Y-64589697D01*
X79696155Y-64569903D01*
X79675779Y-64554203D01*
X79662367Y-64545507D01*
X79642122Y-64532735D01*
X79616918Y-64517050D01*
X79588624Y-64499616D01*
X79559115Y-64481599D01*
X79555180Y-64479209D01*
X79508557Y-64449915D01*
X79470509Y-64423488D01*
X79440216Y-64398931D01*
X79416854Y-64375249D01*
X79399602Y-64351446D01*
X79387639Y-64326525D01*
X79380142Y-64299491D01*
X79376290Y-64269348D01*
X79375831Y-64261833D01*
X79377043Y-64214296D01*
X79385970Y-64173283D01*
X79402815Y-64138526D01*
X79427777Y-64109757D01*
X79461056Y-64086707D01*
X79502855Y-64069108D01*
X79524497Y-64062895D01*
X79550223Y-64058451D01*
X79583259Y-64055807D01*
X79620922Y-64054931D01*
X79660529Y-64055792D01*
G37*
X79660529Y-64055792D02*
X79699397Y-64058359D01*
X79734842Y-64062599D01*
X79751536Y-64065558D01*
X79784126Y-64073046D01*
X79814465Y-64081589D01*
X79840766Y-64090557D01*
X79861245Y-64099320D01*
X79874115Y-64107246D01*
X79876490Y-64109703D01*
X79879891Y-64120025D01*
X79882019Y-64140023D01*
X79882832Y-64169287D01*
X79882840Y-64172872D01*
X79882658Y-64199132D01*
X79881153Y-64217432D01*
X79876880Y-64228714D01*
X79868396Y-64233916D01*
X79854259Y-64233980D01*
X79833026Y-64229846D01*
X79805777Y-64223091D01*
X79758107Y-64212440D01*
X79713025Y-64205037D01*
X79671568Y-64200872D01*
X79634776Y-64199934D01*
X79603686Y-64202212D01*
X79579336Y-64207696D01*
X79562766Y-64216375D01*
X79555795Y-64225647D01*
X79552662Y-64246204D01*
X79558239Y-64265464D01*
X79565115Y-64274609D01*
X79572733Y-64280560D01*
X79587765Y-64290896D01*
X79608910Y-64304774D01*
X79634870Y-64321354D01*
X79664345Y-64339795D01*
X79693385Y-64357642D01*
X79739373Y-64386110D01*
X79777250Y-64410692D01*
X79807921Y-64432190D01*
X79832289Y-64451401D01*
X79851259Y-64469127D01*
X79865737Y-64486166D01*
X79876625Y-64503318D01*
X79884829Y-64521383D01*
X79887687Y-64529423D01*
X79896200Y-64567758D01*
X79898225Y-64609241D01*
X79893917Y-64650322D01*
X79883425Y-64687451D01*
X79880653Y-64693970D01*
X79859662Y-64728205D01*
X79830291Y-64757867D01*
X79793583Y-64782178D01*
X79750582Y-64800364D01*
X79729699Y-64806283D01*
X79712341Y-64809268D01*
X79688124Y-64811842D01*
X79660347Y-64813819D01*
X79632309Y-64815013D01*
X79607308Y-64815238D01*
X79588643Y-64814308D01*
X79588200Y-64814258D01*
X79544129Y-64808173D01*
X79502909Y-64800473D01*
X79465896Y-64791548D01*
X79434445Y-64781786D01*
X79409911Y-64771576D01*
X79393651Y-64761305D01*
X79389896Y-64757432D01*
X79385242Y-64750028D01*
X79382274Y-64740559D01*
X79380640Y-64726725D01*
X79379987Y-64706228D01*
X79379920Y-64692273D01*
X79380122Y-64666743D01*
X79381709Y-64649121D01*
X79386146Y-64638463D01*
X79394902Y-64633828D01*
X79409443Y-64634272D01*
X79431238Y-64638853D01*
X79454038Y-64644644D01*
X79499021Y-64654789D01*
X79544348Y-64662388D01*
X79587461Y-64667146D01*
X79625796Y-64668767D01*
X79652244Y-64667509D01*
X79672150Y-64664741D01*
X79685572Y-64660680D01*
X79696187Y-64653860D01*
X79703521Y-64647054D01*
X79716772Y-64628423D01*
X79719931Y-64609254D01*
X79713044Y-64589697D01*
X79696155Y-64569903D01*
X79675779Y-64554203D01*
X79662367Y-64545507D01*
X79642122Y-64532735D01*
X79616918Y-64517050D01*
X79588624Y-64499616D01*
X79559115Y-64481599D01*
X79555180Y-64479209D01*
X79508557Y-64449915D01*
X79470509Y-64423488D01*
X79440216Y-64398931D01*
X79416854Y-64375249D01*
X79399602Y-64351446D01*
X79387639Y-64326525D01*
X79380142Y-64299491D01*
X79376290Y-64269348D01*
X79375831Y-64261833D01*
X79377043Y-64214296D01*
X79385970Y-64173283D01*
X79402815Y-64138526D01*
X79427777Y-64109757D01*
X79461056Y-64086707D01*
X79502855Y-64069108D01*
X79524497Y-64062895D01*
X79550223Y-64058451D01*
X79583259Y-64055807D01*
X79620922Y-64054931D01*
X79660529Y-64055792D01*
G36*
X77892689Y-64035472D02*
G01*
X77931557Y-64038039D01*
X77967002Y-64042279D01*
X77983696Y-64045238D01*
X78016286Y-64052726D01*
X78046625Y-64061269D01*
X78072926Y-64070237D01*
X78093405Y-64079000D01*
X78106275Y-64086926D01*
X78108650Y-64089383D01*
X78112051Y-64099705D01*
X78114179Y-64119703D01*
X78114992Y-64148967D01*
X78115000Y-64152552D01*
X78114818Y-64178812D01*
X78113313Y-64197112D01*
X78109040Y-64208394D01*
X78100556Y-64213596D01*
X78086419Y-64213660D01*
X78065186Y-64209526D01*
X78037937Y-64202771D01*
X77990267Y-64192120D01*
X77945185Y-64184717D01*
X77903728Y-64180552D01*
X77866936Y-64179614D01*
X77835846Y-64181892D01*
X77811496Y-64187376D01*
X77794926Y-64196055D01*
X77787955Y-64205327D01*
X77784822Y-64225884D01*
X77790399Y-64245144D01*
X77797275Y-64254289D01*
X77804893Y-64260240D01*
X77819925Y-64270576D01*
X77841070Y-64284454D01*
X77867030Y-64301034D01*
X77896505Y-64319475D01*
X77925545Y-64337322D01*
X77971533Y-64365790D01*
X78009410Y-64390372D01*
X78040081Y-64411870D01*
X78064449Y-64431081D01*
X78083419Y-64448807D01*
X78097897Y-64465846D01*
X78108785Y-64482998D01*
X78116989Y-64501063D01*
X78119847Y-64509103D01*
X78128360Y-64547438D01*
X78130385Y-64588921D01*
X78126077Y-64630002D01*
X78115585Y-64667131D01*
X78112813Y-64673650D01*
X78091822Y-64707885D01*
X78062451Y-64737547D01*
X78025743Y-64761858D01*
X77982742Y-64780044D01*
X77961859Y-64785963D01*
X77944501Y-64788948D01*
X77920284Y-64791522D01*
X77892507Y-64793499D01*
X77864469Y-64794693D01*
X77839468Y-64794918D01*
X77820803Y-64793988D01*
X77820360Y-64793938D01*
X77776289Y-64787853D01*
X77735069Y-64780153D01*
X77698056Y-64771228D01*
X77666605Y-64761466D01*
X77642071Y-64751256D01*
X77625811Y-64740985D01*
X77622056Y-64737112D01*
X77617402Y-64729708D01*
X77614434Y-64720239D01*
X77612800Y-64706405D01*
X77612147Y-64685908D01*
X77612080Y-64671953D01*
X77612282Y-64646423D01*
X77613869Y-64628801D01*
X77618306Y-64618143D01*
X77627062Y-64613508D01*
X77641603Y-64613952D01*
X77663398Y-64618533D01*
X77686198Y-64624324D01*
X77731181Y-64634469D01*
X77776508Y-64642068D01*
X77819621Y-64646826D01*
X77857956Y-64648447D01*
X77884404Y-64647189D01*
X77904310Y-64644421D01*
X77917732Y-64640360D01*
X77928347Y-64633540D01*
X77935681Y-64626734D01*
X77948932Y-64608103D01*
X77952091Y-64588934D01*
X77945204Y-64569377D01*
X77928315Y-64549583D01*
X77907939Y-64533883D01*
X77894527Y-64525187D01*
X77874282Y-64512415D01*
X77849078Y-64496730D01*
X77820784Y-64479296D01*
X77791275Y-64461279D01*
X77787340Y-64458889D01*
X77740717Y-64429595D01*
X77702669Y-64403168D01*
X77672376Y-64378611D01*
X77649014Y-64354929D01*
X77631762Y-64331126D01*
X77619799Y-64306205D01*
X77612302Y-64279171D01*
X77608450Y-64249028D01*
X77607991Y-64241513D01*
X77609203Y-64193976D01*
X77618130Y-64152963D01*
X77634975Y-64118206D01*
X77659937Y-64089437D01*
X77693216Y-64066387D01*
X77735015Y-64048788D01*
X77756657Y-64042575D01*
X77782383Y-64038131D01*
X77815419Y-64035487D01*
X77853082Y-64034611D01*
X77892689Y-64035472D01*
G37*
X77892689Y-64035472D02*
X77931557Y-64038039D01*
X77967002Y-64042279D01*
X77983696Y-64045238D01*
X78016286Y-64052726D01*
X78046625Y-64061269D01*
X78072926Y-64070237D01*
X78093405Y-64079000D01*
X78106275Y-64086926D01*
X78108650Y-64089383D01*
X78112051Y-64099705D01*
X78114179Y-64119703D01*
X78114992Y-64148967D01*
X78115000Y-64152552D01*
X78114818Y-64178812D01*
X78113313Y-64197112D01*
X78109040Y-64208394D01*
X78100556Y-64213596D01*
X78086419Y-64213660D01*
X78065186Y-64209526D01*
X78037937Y-64202771D01*
X77990267Y-64192120D01*
X77945185Y-64184717D01*
X77903728Y-64180552D01*
X77866936Y-64179614D01*
X77835846Y-64181892D01*
X77811496Y-64187376D01*
X77794926Y-64196055D01*
X77787955Y-64205327D01*
X77784822Y-64225884D01*
X77790399Y-64245144D01*
X77797275Y-64254289D01*
X77804893Y-64260240D01*
X77819925Y-64270576D01*
X77841070Y-64284454D01*
X77867030Y-64301034D01*
X77896505Y-64319475D01*
X77925545Y-64337322D01*
X77971533Y-64365790D01*
X78009410Y-64390372D01*
X78040081Y-64411870D01*
X78064449Y-64431081D01*
X78083419Y-64448807D01*
X78097897Y-64465846D01*
X78108785Y-64482998D01*
X78116989Y-64501063D01*
X78119847Y-64509103D01*
X78128360Y-64547438D01*
X78130385Y-64588921D01*
X78126077Y-64630002D01*
X78115585Y-64667131D01*
X78112813Y-64673650D01*
X78091822Y-64707885D01*
X78062451Y-64737547D01*
X78025743Y-64761858D01*
X77982742Y-64780044D01*
X77961859Y-64785963D01*
X77944501Y-64788948D01*
X77920284Y-64791522D01*
X77892507Y-64793499D01*
X77864469Y-64794693D01*
X77839468Y-64794918D01*
X77820803Y-64793988D01*
X77820360Y-64793938D01*
X77776289Y-64787853D01*
X77735069Y-64780153D01*
X77698056Y-64771228D01*
X77666605Y-64761466D01*
X77642071Y-64751256D01*
X77625811Y-64740985D01*
X77622056Y-64737112D01*
X77617402Y-64729708D01*
X77614434Y-64720239D01*
X77612800Y-64706405D01*
X77612147Y-64685908D01*
X77612080Y-64671953D01*
X77612282Y-64646423D01*
X77613869Y-64628801D01*
X77618306Y-64618143D01*
X77627062Y-64613508D01*
X77641603Y-64613952D01*
X77663398Y-64618533D01*
X77686198Y-64624324D01*
X77731181Y-64634469D01*
X77776508Y-64642068D01*
X77819621Y-64646826D01*
X77857956Y-64648447D01*
X77884404Y-64647189D01*
X77904310Y-64644421D01*
X77917732Y-64640360D01*
X77928347Y-64633540D01*
X77935681Y-64626734D01*
X77948932Y-64608103D01*
X77952091Y-64588934D01*
X77945204Y-64569377D01*
X77928315Y-64549583D01*
X77907939Y-64533883D01*
X77894527Y-64525187D01*
X77874282Y-64512415D01*
X77849078Y-64496730D01*
X77820784Y-64479296D01*
X77791275Y-64461279D01*
X77787340Y-64458889D01*
X77740717Y-64429595D01*
X77702669Y-64403168D01*
X77672376Y-64378611D01*
X77649014Y-64354929D01*
X77631762Y-64331126D01*
X77619799Y-64306205D01*
X77612302Y-64279171D01*
X77608450Y-64249028D01*
X77607991Y-64241513D01*
X77609203Y-64193976D01*
X77618130Y-64152963D01*
X77634975Y-64118206D01*
X77659937Y-64089437D01*
X77693216Y-64066387D01*
X77735015Y-64048788D01*
X77756657Y-64042575D01*
X77782383Y-64038131D01*
X77815419Y-64035487D01*
X77853082Y-64034611D01*
X77892689Y-64035472D01*
G36*
X79463634Y-63324753D02*
G01*
X79586367Y-63335263D01*
X79704002Y-63352715D01*
X79815628Y-63377193D01*
X79852580Y-63387283D01*
X79937317Y-63414022D01*
X80013717Y-63443233D01*
X80083453Y-63475658D01*
X80148201Y-63512037D01*
X80179126Y-63531873D01*
X80246957Y-63582708D01*
X80306132Y-63638650D01*
X80356548Y-63699545D01*
X80398103Y-63765238D01*
X80430694Y-63835574D01*
X80454218Y-63910397D01*
X80465034Y-63964080D01*
X80470859Y-64018880D01*
X80472161Y-64078098D01*
X80469103Y-64138150D01*
X80461849Y-64195455D01*
X80452471Y-64239457D01*
X80425246Y-64323163D01*
X80389068Y-64402163D01*
X80344122Y-64476192D01*
X80290594Y-64544986D01*
X80228668Y-64608281D01*
X80158529Y-64665812D01*
X80149598Y-64672296D01*
X80130679Y-64684914D01*
X80107593Y-64698889D01*
X80082227Y-64713238D01*
X80056471Y-64726977D01*
X80032212Y-64739122D01*
X80011338Y-64748691D01*
X79995739Y-64754698D01*
X79988383Y-64756280D01*
X79985068Y-64755549D01*
X79982677Y-64752415D01*
X79981062Y-64745468D01*
X79980072Y-64733295D01*
X79979560Y-64714485D01*
X79979375Y-64687627D01*
X79979360Y-64670890D01*
X79979641Y-64635154D01*
X79980526Y-64608718D01*
X79982070Y-64590734D01*
X79984332Y-64580358D01*
X79985710Y-64577806D01*
X79992414Y-64571728D01*
X80005379Y-64561532D01*
X80022484Y-64548847D01*
X80034868Y-64540005D01*
X80057042Y-64523241D01*
X80082440Y-64502224D01*
X80107337Y-64480112D01*
X80121612Y-64466524D01*
X80173677Y-64409000D01*
X80217137Y-64348095D01*
X80251849Y-64284498D01*
X80277672Y-64218895D01*
X80294463Y-64151974D01*
X80302080Y-64084424D01*
X80300380Y-64016931D01*
X80289222Y-63950182D01*
X80268464Y-63884867D01*
X80250219Y-63844420D01*
X80222562Y-63795416D01*
X80191207Y-63751463D01*
X80153666Y-63709233D01*
X80135702Y-63691447D01*
X80075897Y-63640880D01*
X80007660Y-63595738D01*
X79931202Y-63556102D01*
X79846728Y-63522049D01*
X79754448Y-63493659D01*
X79654570Y-63471010D01*
X79547300Y-63454180D01*
X79492134Y-63448085D01*
X79426080Y-63443314D01*
X79352545Y-63440784D01*
X79273942Y-63440428D01*
X79192686Y-63442180D01*
X79111190Y-63445975D01*
X79031867Y-63451747D01*
X78957132Y-63459429D01*
X78925260Y-63463545D01*
X78769567Y-63489041D01*
X78615220Y-63522046D01*
X78463630Y-63562143D01*
X78316211Y-63608917D01*
X78174374Y-63661951D01*
X78039533Y-63720829D01*
X78019061Y-63730591D01*
X77992254Y-63743416D01*
X77968546Y-63754547D01*
X77949471Y-63763282D01*
X77936562Y-63768917D01*
X77931431Y-63770760D01*
X77929190Y-63766127D01*
X77927607Y-63754012D01*
X77927039Y-63737906D01*
X77927039Y-63705052D01*
X77974029Y-63677420D01*
X78003529Y-63660858D01*
X78040256Y-63641468D01*
X78082047Y-63620298D01*
X78126738Y-63598398D01*
X78172167Y-63576819D01*
X78216170Y-63556608D01*
X78256583Y-63538817D01*
X78279825Y-63529078D01*
X78407478Y-63480790D01*
X78538225Y-63438707D01*
X78671156Y-63402911D01*
X78805361Y-63373484D01*
X78939929Y-63350508D01*
X79073951Y-63334065D01*
X79206516Y-63324236D01*
X79336713Y-63321105D01*
X79463634Y-63324753D01*
G37*
X79463634Y-63324753D02*
X79586367Y-63335263D01*
X79704002Y-63352715D01*
X79815628Y-63377193D01*
X79852580Y-63387283D01*
X79937317Y-63414022D01*
X80013717Y-63443233D01*
X80083453Y-63475658D01*
X80148201Y-63512037D01*
X80179126Y-63531873D01*
X80246957Y-63582708D01*
X80306132Y-63638650D01*
X80356548Y-63699545D01*
X80398103Y-63765238D01*
X80430694Y-63835574D01*
X80454218Y-63910397D01*
X80465034Y-63964080D01*
X80470859Y-64018880D01*
X80472161Y-64078098D01*
X80469103Y-64138150D01*
X80461849Y-64195455D01*
X80452471Y-64239457D01*
X80425246Y-64323163D01*
X80389068Y-64402163D01*
X80344122Y-64476192D01*
X80290594Y-64544986D01*
X80228668Y-64608281D01*
X80158529Y-64665812D01*
X80149598Y-64672296D01*
X80130679Y-64684914D01*
X80107593Y-64698889D01*
X80082227Y-64713238D01*
X80056471Y-64726977D01*
X80032212Y-64739122D01*
X80011338Y-64748691D01*
X79995739Y-64754698D01*
X79988383Y-64756280D01*
X79985068Y-64755549D01*
X79982677Y-64752415D01*
X79981062Y-64745468D01*
X79980072Y-64733295D01*
X79979560Y-64714485D01*
X79979375Y-64687627D01*
X79979360Y-64670890D01*
X79979641Y-64635154D01*
X79980526Y-64608718D01*
X79982070Y-64590734D01*
X79984332Y-64580358D01*
X79985710Y-64577806D01*
X79992414Y-64571728D01*
X80005379Y-64561532D01*
X80022484Y-64548847D01*
X80034868Y-64540005D01*
X80057042Y-64523241D01*
X80082440Y-64502224D01*
X80107337Y-64480112D01*
X80121612Y-64466524D01*
X80173677Y-64409000D01*
X80217137Y-64348095D01*
X80251849Y-64284498D01*
X80277672Y-64218895D01*
X80294463Y-64151974D01*
X80302080Y-64084424D01*
X80300380Y-64016931D01*
X80289222Y-63950182D01*
X80268464Y-63884867D01*
X80250219Y-63844420D01*
X80222562Y-63795416D01*
X80191207Y-63751463D01*
X80153666Y-63709233D01*
X80135702Y-63691447D01*
X80075897Y-63640880D01*
X80007660Y-63595738D01*
X79931202Y-63556102D01*
X79846728Y-63522049D01*
X79754448Y-63493659D01*
X79654570Y-63471010D01*
X79547300Y-63454180D01*
X79492134Y-63448085D01*
X79426080Y-63443314D01*
X79352545Y-63440784D01*
X79273942Y-63440428D01*
X79192686Y-63442180D01*
X79111190Y-63445975D01*
X79031867Y-63451747D01*
X78957132Y-63459429D01*
X78925260Y-63463545D01*
X78769567Y-63489041D01*
X78615220Y-63522046D01*
X78463630Y-63562143D01*
X78316211Y-63608917D01*
X78174374Y-63661951D01*
X78039533Y-63720829D01*
X78019061Y-63730591D01*
X77992254Y-63743416D01*
X77968546Y-63754547D01*
X77949471Y-63763282D01*
X77936562Y-63768917D01*
X77931431Y-63770760D01*
X77929190Y-63766127D01*
X77927607Y-63754012D01*
X77927039Y-63737906D01*
X77927039Y-63705052D01*
X77974029Y-63677420D01*
X78003529Y-63660858D01*
X78040256Y-63641468D01*
X78082047Y-63620298D01*
X78126738Y-63598398D01*
X78172167Y-63576819D01*
X78216170Y-63556608D01*
X78256583Y-63538817D01*
X78279825Y-63529078D01*
X78407478Y-63480790D01*
X78538225Y-63438707D01*
X78671156Y-63402911D01*
X78805361Y-63373484D01*
X78939929Y-63350508D01*
X79073951Y-63334065D01*
X79206516Y-63324236D01*
X79336713Y-63321105D01*
X79463634Y-63324753D01*
D13*
%TO.C,BT1*%
X72360000Y-92110000D02*
X72360000Y-90860000D01*
X71110000Y-92110000D02*
X72360000Y-92110000D01*
X69000000Y-87700000D02*
X69000000Y-88200000D01*
X68900000Y-88200000D02*
X68900000Y-87700000D01*
X69100000Y-88200000D02*
X68900000Y-88200000D01*
X69100000Y-87700000D02*
X69100000Y-88200000D01*
X65940000Y-89200000D02*
X66550000Y-89200000D01*
X65940000Y-90500000D02*
X66550000Y-90500000D01*
X72060000Y-89200000D02*
X71450000Y-89200000D01*
X72060000Y-90500000D02*
X71450000Y-90500000D01*
X68500000Y-91200000D02*
X68500000Y-91810000D01*
X66550000Y-91200000D02*
X68500000Y-91200000D01*
X66550000Y-87700000D02*
X66550000Y-91200000D01*
X71450000Y-87700000D02*
X66550000Y-87700000D01*
X71450000Y-91200000D02*
X71450000Y-87700000D01*
X69500000Y-91200000D02*
X71450000Y-91200000D01*
X69500000Y-91810000D02*
X69500000Y-91200000D01*
X70300000Y-91910000D02*
X70600000Y-91910000D01*
X70600000Y-92010000D02*
X70600000Y-91810000D01*
X70300000Y-92010000D02*
X70600000Y-92010000D01*
X70300000Y-91810000D02*
X70300000Y-92010000D01*
X65940000Y-91810000D02*
X72060000Y-91810000D01*
X65940000Y-87090000D02*
X65940000Y-91810000D01*
X72060000Y-87090000D02*
X65940000Y-87090000D01*
X72060000Y-91810000D02*
X72060000Y-87090000D01*
%TO.C,C3*%
X65160000Y-91302064D02*
X65160000Y-90097936D01*
X62440000Y-91302064D02*
X62440000Y-90097936D01*
%TO.C,C25*%
X66290000Y-63428733D02*
X66290000Y-63771267D01*
X67310000Y-63428733D02*
X67310000Y-63771267D01*
%TO.C,D1*%
X60200000Y-92400000D02*
X58200000Y-92400000D01*
X58200000Y-92400000D02*
X58200000Y-96250000D01*
X60200000Y-92400000D02*
X60200000Y-96250000D01*
%TO.C,D3*%
X70165000Y-76100000D02*
X70165000Y-78560000D01*
X70165000Y-78560000D02*
X71635000Y-78560000D01*
X71635000Y-78560000D02*
X71635000Y-76100000D01*
%TO.C,D4*%
X73550000Y-93385000D02*
X76010000Y-93385000D01*
X76010000Y-93385000D02*
X76010000Y-91915000D01*
X76010000Y-91915000D02*
X73550000Y-91915000D01*
%TO.C,D5*%
X70165000Y-81440000D02*
X70165000Y-83900000D01*
X71635000Y-81440000D02*
X70165000Y-81440000D01*
X71635000Y-83900000D02*
X71635000Y-81440000D01*
%TO.C,D7*%
X74100000Y-84835000D02*
X76560000Y-84835000D01*
X76560000Y-84835000D02*
X76560000Y-83365000D01*
X76560000Y-83365000D02*
X74100000Y-83365000D01*
%TO.C,D8*%
X61460000Y-62265000D02*
X59000000Y-62265000D01*
X61460000Y-63735000D02*
X61460000Y-62265000D01*
X59000000Y-63735000D02*
X61460000Y-63735000D01*
%TO.C,D9*%
X61040000Y-60335000D02*
X63500000Y-60335000D01*
X61040000Y-58865000D02*
X61040000Y-60335000D01*
X63500000Y-58865000D02*
X61040000Y-58865000D01*
%TO.C,D10*%
X76460000Y-75165000D02*
X74000000Y-75165000D01*
X76460000Y-76635000D02*
X76460000Y-75165000D01*
X74000000Y-76635000D02*
X76460000Y-76635000D01*
%TO.C,F1*%
X71913748Y-97160000D02*
X74686252Y-97160000D01*
X71913748Y-93740000D02*
X74686252Y-93740000D01*
D10*
%TO.C,IC1*%
X62325000Y-67375000D02*
X63250000Y-67375000D01*
X62325000Y-64275000D02*
X59075000Y-64275000D01*
X62325000Y-67525000D02*
X59075000Y-67525000D01*
X62325000Y-64275000D02*
X62325000Y-64522500D01*
X59075000Y-64275000D02*
X59075000Y-64522500D01*
X59075000Y-67525000D02*
X59075000Y-67277500D01*
X62325000Y-67525000D02*
X62325000Y-67375000D01*
D13*
%TO.C,J1*%
X77670000Y-61430000D02*
X77670000Y-60100000D01*
X79000000Y-61430000D02*
X77670000Y-61430000D01*
X80270000Y-61430000D02*
X80270000Y-58770000D01*
X80270000Y-58770000D02*
X85410000Y-58770000D01*
X80270000Y-61430000D02*
X85410000Y-61430000D01*
X85410000Y-61430000D02*
X85410000Y-58770000D01*
%TO.C,J2*%
X62100000Y-97275000D02*
X64250000Y-97275000D01*
X64250000Y-100825000D02*
X61350000Y-100825000D01*
X55950000Y-97275000D02*
X55950000Y-100825000D01*
X55950000Y-100825000D02*
X58850000Y-100825000D01*
X64250000Y-97275000D02*
X64250000Y-100825000D01*
X58100000Y-97275000D02*
X55950000Y-97275000D01*
X58400000Y-97275000D02*
X59000000Y-97275000D01*
X58400000Y-98025000D02*
X58400000Y-97275000D01*
%TO.C,J3*%
X73870000Y-98170000D02*
X73870000Y-99500000D01*
X72540000Y-98170000D02*
X73870000Y-98170000D01*
X71270000Y-98170000D02*
X71270000Y-100830000D01*
X71270000Y-100830000D02*
X66130000Y-100830000D01*
X71270000Y-98170000D02*
X66130000Y-98170000D01*
X66130000Y-98170000D02*
X66130000Y-100830000D01*
%TO.C,J4*%
X98970000Y-99500000D02*
X98970000Y-100830000D01*
X98970000Y-100830000D02*
X97640000Y-100830000D01*
X96370000Y-100830000D02*
X88690000Y-100830000D01*
X88690000Y-98170000D02*
X88690000Y-100830000D01*
X96370000Y-98170000D02*
X88690000Y-98170000D01*
X96370000Y-98170000D02*
X96370000Y-100830000D01*
%TO.C,J5*%
X75330000Y-70670000D02*
X75330000Y-72000000D01*
X74000000Y-70670000D02*
X75330000Y-70670000D01*
X72730000Y-70670000D02*
X72730000Y-73330000D01*
X72730000Y-73330000D02*
X65050000Y-73330000D01*
X72730000Y-70670000D02*
X65050000Y-70670000D01*
X65050000Y-70670000D02*
X65050000Y-73330000D01*
%TO.C,J6*%
X109510000Y-94730000D02*
X109510000Y-92070000D01*
X99290000Y-94730000D02*
X109510000Y-94730000D01*
X99290000Y-92070000D02*
X109510000Y-92070000D01*
X99290000Y-94730000D02*
X99290000Y-92070000D01*
X98020000Y-94730000D02*
X96690000Y-94730000D01*
X96690000Y-94730000D02*
X96690000Y-93400000D01*
%TO.C,J7*%
X83730000Y-86410000D02*
X82400000Y-86410000D01*
X83730000Y-85080000D02*
X83730000Y-86410000D01*
X83730000Y-83810000D02*
X81070000Y-83810000D01*
X81070000Y-83810000D02*
X81070000Y-73590000D01*
X83730000Y-83810000D02*
X83730000Y-73590000D01*
X83730000Y-73590000D02*
X81070000Y-73590000D01*
%TO.C,J8*%
X100030000Y-98170000D02*
X100030000Y-100830000D01*
X105170000Y-98170000D02*
X100030000Y-98170000D01*
X105170000Y-100830000D02*
X100030000Y-100830000D01*
X105170000Y-98170000D02*
X105170000Y-100830000D01*
X106440000Y-98170000D02*
X107770000Y-98170000D01*
X107770000Y-98170000D02*
X107770000Y-99500000D01*
%TO.C,J9*%
X88670000Y-63670000D02*
X90000000Y-63670000D01*
X88670000Y-65000000D02*
X88670000Y-63670000D01*
X88670000Y-66270000D02*
X91330000Y-66270000D01*
X91330000Y-66270000D02*
X91330000Y-66330000D01*
X88670000Y-66270000D02*
X88670000Y-66330000D01*
X88670000Y-66330000D02*
X91330000Y-66330000D01*
%TO.C,J10*%
X54670000Y-66330000D02*
X57330000Y-66330000D01*
X54670000Y-66270000D02*
X54670000Y-66330000D01*
X57330000Y-66270000D02*
X57330000Y-66330000D01*
X54670000Y-66270000D02*
X57330000Y-66270000D01*
X54670000Y-65000000D02*
X54670000Y-63670000D01*
X54670000Y-63670000D02*
X56000000Y-63670000D01*
%TO.C,J11*%
X54670000Y-93670000D02*
X56000000Y-93670000D01*
X54670000Y-95000000D02*
X54670000Y-93670000D01*
X54670000Y-96270000D02*
X57330000Y-96270000D01*
X57330000Y-96270000D02*
X57330000Y-96330000D01*
X54670000Y-96270000D02*
X54670000Y-96330000D01*
X54670000Y-96330000D02*
X57330000Y-96330000D01*
%TO.C,J12*%
X82670000Y-93670000D02*
X84000000Y-93670000D01*
X82670000Y-95000000D02*
X82670000Y-93670000D01*
X82670000Y-96270000D02*
X85330000Y-96270000D01*
X85330000Y-96270000D02*
X85330000Y-96330000D01*
X82670000Y-96270000D02*
X82670000Y-96330000D01*
X82670000Y-96330000D02*
X85330000Y-96330000D01*
%TO.C,J13*%
X116670000Y-96330000D02*
X119330000Y-96330000D01*
X116670000Y-96270000D02*
X116670000Y-96330000D01*
X119330000Y-96270000D02*
X119330000Y-96330000D01*
X116670000Y-96270000D02*
X119330000Y-96270000D01*
X116670000Y-95000000D02*
X116670000Y-93670000D01*
X116670000Y-93670000D02*
X118000000Y-93670000D01*
%TO.C,J14*%
X88670000Y-96330000D02*
X91330000Y-96330000D01*
X88670000Y-96270000D02*
X88670000Y-96330000D01*
X91330000Y-96270000D02*
X91330000Y-96330000D01*
X88670000Y-96270000D02*
X91330000Y-96270000D01*
X88670000Y-95000000D02*
X88670000Y-93670000D01*
X88670000Y-93670000D02*
X90000000Y-93670000D01*
%TO.C,J17*%
X116670000Y-66330000D02*
X119330000Y-66330000D01*
X116670000Y-66270000D02*
X116670000Y-66330000D01*
X119330000Y-66270000D02*
X119330000Y-66330000D01*
X116670000Y-66270000D02*
X119330000Y-66270000D01*
X116670000Y-65000000D02*
X116670000Y-63670000D01*
X116670000Y-63670000D02*
X118000000Y-63670000D01*
%TO.C,J18*%
X82670000Y-63670000D02*
X84000000Y-63670000D01*
X82670000Y-65000000D02*
X82670000Y-63670000D01*
X82670000Y-66270000D02*
X85330000Y-66270000D01*
X85330000Y-66270000D02*
X85330000Y-66330000D01*
X82670000Y-66270000D02*
X82670000Y-66330000D01*
X82670000Y-66330000D02*
X85330000Y-66330000D01*
%TO.C,J19*%
X106830000Y-66470000D02*
X106830000Y-67800000D01*
X105500000Y-66470000D02*
X106830000Y-66470000D01*
X104230000Y-66470000D02*
X104230000Y-69130000D01*
X104230000Y-69130000D02*
X101630000Y-69130000D01*
X104230000Y-66470000D02*
X101630000Y-66470000D01*
X101630000Y-66470000D02*
X101630000Y-69130000D01*
%TO.C,JP1*%
X57250000Y-61250000D02*
X54450000Y-61250000D01*
X54450000Y-61250000D02*
X54450000Y-59250000D01*
X54450000Y-59250000D02*
X57250000Y-59250000D01*
X57250000Y-59250000D02*
X57250000Y-61250000D01*
D10*
%TO.C,L1*%
X73190000Y-63020000D02*
X70190000Y-63020000D01*
X70190000Y-66220000D02*
X70190000Y-63020000D01*
X70190000Y-66220000D02*
X73190000Y-66220000D01*
X73190000Y-63020000D02*
X73190000Y-66220000D01*
%TO.C,L2*%
X115600000Y-96500000D02*
X112400000Y-96500000D01*
X112400000Y-93500000D02*
X112400000Y-96500000D01*
X112400000Y-93500000D02*
X115600000Y-93500000D01*
X115600000Y-96500000D02*
X115600000Y-93500000D01*
%TO.C,L3*%
X97170000Y-68200000D02*
X100170000Y-68200000D01*
X100170000Y-65000000D02*
X100170000Y-68200000D01*
X100170000Y-65000000D02*
X97170000Y-65000000D01*
X97170000Y-68200000D02*
X97170000Y-65000000D01*
D13*
%TO.C,M1*%
X64570000Y-68300000D02*
X64570000Y-66970000D01*
X64570000Y-66970000D02*
X65900000Y-66970000D01*
X67170000Y-66970000D02*
X69770000Y-66970000D01*
X69770000Y-69630000D02*
X69770000Y-66970000D01*
X67170000Y-69630000D02*
X69770000Y-69630000D01*
X67170000Y-69630000D02*
X67170000Y-66970000D01*
%TO.C,Q1*%
X67360000Y-96580000D02*
X67360000Y-95650000D01*
X67360000Y-93420000D02*
X67360000Y-94350000D01*
X67360000Y-93420000D02*
X65200000Y-93420000D01*
X67360000Y-96580000D02*
X65900000Y-96580000D01*
%TO.C,Q4*%
X78690000Y-79040000D02*
X79850000Y-79040000D01*
X78690000Y-80960000D02*
X80100000Y-80960000D01*
X78690000Y-80960000D02*
X78690000Y-80650000D01*
X78690000Y-79040000D02*
X78690000Y-79350000D01*
%TO.C,Q5*%
X81210000Y-96530000D02*
X79750000Y-96530000D01*
X81210000Y-93370000D02*
X79050000Y-93370000D01*
X81210000Y-93370000D02*
X81210000Y-94300000D01*
X81210000Y-96530000D02*
X81210000Y-95600000D01*
%TO.C,Q6*%
X78690000Y-81440000D02*
X78690000Y-81750000D01*
X78690000Y-83360000D02*
X78690000Y-83050000D01*
X78690000Y-83360000D02*
X80100000Y-83360000D01*
X78690000Y-81440000D02*
X79850000Y-81440000D01*
%TO.C,Q7*%
X78690000Y-76640000D02*
X79850000Y-76640000D01*
X78690000Y-78560000D02*
X80100000Y-78560000D01*
X78690000Y-78560000D02*
X78690000Y-78250000D01*
X78690000Y-76640000D02*
X78690000Y-76950000D01*
%TO.C,SW1*%
X109800000Y-67580000D02*
X109800000Y-67700000D01*
X109800000Y-65430000D02*
X109800000Y-66570000D01*
X109800000Y-64300000D02*
X109800000Y-64420000D01*
X114200000Y-64300000D02*
X109800000Y-64300000D01*
X114200000Y-64420000D02*
X114200000Y-64300000D01*
X114200000Y-66570000D02*
X114200000Y-65430000D01*
X114200000Y-67700000D02*
X114200000Y-67580000D01*
X109800000Y-67700000D02*
X114200000Y-67700000D01*
%TO.C,SW2*%
X94200000Y-92400000D02*
X94200000Y-88000000D01*
X94200000Y-88000000D02*
X94080000Y-88000000D01*
X93070000Y-88000000D02*
X91930000Y-88000000D01*
X90920000Y-88000000D02*
X90800000Y-88000000D01*
X90800000Y-88000000D02*
X90800000Y-92400000D01*
X90800000Y-92400000D02*
X90920000Y-92400000D01*
X91930000Y-92400000D02*
X93070000Y-92400000D01*
X94080000Y-92400000D02*
X94200000Y-92400000D01*
%TO.C,SW3*%
X77130000Y-99000000D02*
X77130000Y-97670000D01*
X77130000Y-97670000D02*
X78460000Y-97670000D01*
X79730000Y-97670000D02*
X84870000Y-97670000D01*
X84870000Y-100330000D02*
X84870000Y-97670000D01*
X79730000Y-100330000D02*
X84870000Y-100330000D01*
X79730000Y-100330000D02*
X79730000Y-97670000D01*
D10*
%TO.C,U2*%
X92400000Y-60400000D02*
X92800000Y-60400000D01*
X92400000Y-60400000D02*
X92400000Y-60800000D01*
X92400000Y-63600000D02*
X92800000Y-63600000D01*
X92400000Y-63600000D02*
X92400000Y-63200000D01*
X95600000Y-63600000D02*
X95200000Y-63600000D01*
X95600000Y-63600000D02*
X95600000Y-63200000D01*
X95600000Y-60400000D02*
X95600000Y-60800000D01*
X96600000Y-59900000D02*
G75*
G03*
X96600000Y-59900000I-500000J0D01*
G01*
D13*
%TO.C,U7*%
X76750000Y-66740000D02*
X73800000Y-66740000D01*
X74950000Y-69960000D02*
X76750000Y-69960000D01*
%TO.C,U8*%
X114445000Y-70880000D02*
X114445000Y-70500000D01*
X120865000Y-70880000D02*
X114445000Y-70880000D01*
X120865000Y-89120000D02*
X114445000Y-89120000D01*
X120865000Y-70880000D02*
X120865000Y-89120000D01*
X95120000Y-89120000D02*
X95120000Y-88120000D01*
X95900000Y-89120000D02*
X95120000Y-89120000D01*
X95120000Y-70880000D02*
X95120000Y-71880000D01*
X95900000Y-70880000D02*
X95120000Y-70880000D01*
%TO.C,J15*%
X75230000Y-58670000D02*
X75230000Y-60000000D01*
X73900000Y-58670000D02*
X75230000Y-58670000D01*
X72630000Y-58670000D02*
X72630000Y-61330000D01*
X72630000Y-61330000D02*
X64950000Y-61330000D01*
X72630000Y-58670000D02*
X64950000Y-58670000D01*
X64950000Y-58670000D02*
X64950000Y-61330000D01*
%TO.C,J16*%
X98950000Y-58670000D02*
X98950000Y-61330000D01*
X106630000Y-58670000D02*
X98950000Y-58670000D01*
X106630000Y-61330000D02*
X98950000Y-61330000D01*
X106630000Y-58670000D02*
X106630000Y-61330000D01*
X107900000Y-58670000D02*
X109230000Y-58670000D01*
X109230000Y-58670000D02*
X109230000Y-60000000D01*
%TO.C,BT1*%
D10*
X72614285Y-87428571D02*
X72757142Y-87476190D01*
X72804761Y-87523809D01*
X72852380Y-87619047D01*
X72852380Y-87761904D01*
X72804761Y-87857142D01*
X72757142Y-87904761D01*
X72661904Y-87952380D01*
X72280952Y-87952380D01*
X72280952Y-86952380D01*
X72614285Y-86952380D01*
X72709523Y-87000000D01*
X72757142Y-87047619D01*
X72804761Y-87142857D01*
X72804761Y-87238095D01*
X72757142Y-87333333D01*
X72709523Y-87380952D01*
X72614285Y-87428571D01*
X72280952Y-87428571D01*
X73138095Y-86952380D02*
X73709523Y-86952380D01*
X73423809Y-87952380D02*
X73423809Y-86952380D01*
X74566666Y-87952380D02*
X73995238Y-87952380D01*
X74280952Y-87952380D02*
X74280952Y-86952380D01*
X74185714Y-87095238D01*
X74090476Y-87190476D01*
X73995238Y-87238095D01*
%TO.C,C3*%
X60933333Y-90357142D02*
X60885714Y-90404761D01*
X60742857Y-90452380D01*
X60647619Y-90452380D01*
X60504761Y-90404761D01*
X60409523Y-90309523D01*
X60361904Y-90214285D01*
X60314285Y-90023809D01*
X60314285Y-89880952D01*
X60361904Y-89690476D01*
X60409523Y-89595238D01*
X60504761Y-89500000D01*
X60647619Y-89452380D01*
X60742857Y-89452380D01*
X60885714Y-89500000D01*
X60933333Y-89547619D01*
X61266666Y-89452380D02*
X61885714Y-89452380D01*
X61552380Y-89833333D01*
X61695238Y-89833333D01*
X61790476Y-89880952D01*
X61838095Y-89928571D01*
X61885714Y-90023809D01*
X61885714Y-90261904D01*
X61838095Y-90357142D01*
X61790476Y-90404761D01*
X61695238Y-90452380D01*
X61409523Y-90452380D01*
X61314285Y-90404761D01*
X61266666Y-90357142D01*
%TO.C,C4*%
X77733333Y-63057142D02*
X77685714Y-63104761D01*
X77542857Y-63152380D01*
X77447619Y-63152380D01*
X77304761Y-63104761D01*
X77209523Y-63009523D01*
X77161904Y-62914285D01*
X77114285Y-62723809D01*
X77114285Y-62580952D01*
X77161904Y-62390476D01*
X77209523Y-62295238D01*
X77304761Y-62200000D01*
X77447619Y-62152380D01*
X77542857Y-62152380D01*
X77685714Y-62200000D01*
X77733333Y-62247619D01*
X78590476Y-62485714D02*
X78590476Y-63152380D01*
X78352380Y-62104761D02*
X78114285Y-62819047D01*
X78733333Y-62819047D01*
%TO.C,C5*%
X88833333Y-60257142D02*
X88785714Y-60304761D01*
X88642857Y-60352380D01*
X88547619Y-60352380D01*
X88404761Y-60304761D01*
X88309523Y-60209523D01*
X88261904Y-60114285D01*
X88214285Y-59923809D01*
X88214285Y-59780952D01*
X88261904Y-59590476D01*
X88309523Y-59495238D01*
X88404761Y-59400000D01*
X88547619Y-59352380D01*
X88642857Y-59352380D01*
X88785714Y-59400000D01*
X88833333Y-59447619D01*
X89738095Y-59352380D02*
X89261904Y-59352380D01*
X89214285Y-59828571D01*
X89261904Y-59780952D01*
X89357142Y-59733333D01*
X89595238Y-59733333D01*
X89690476Y-59780952D01*
X89738095Y-59828571D01*
X89785714Y-59923809D01*
X89785714Y-60161904D01*
X89738095Y-60257142D01*
X89690476Y-60304761D01*
X89595238Y-60352380D01*
X89357142Y-60352380D01*
X89261904Y-60304761D01*
X89214285Y-60257142D01*
%TO.C,C6*%
X93033333Y-67227142D02*
X92985714Y-67274761D01*
X92842857Y-67322380D01*
X92747619Y-67322380D01*
X92604761Y-67274761D01*
X92509523Y-67179523D01*
X92461904Y-67084285D01*
X92414285Y-66893809D01*
X92414285Y-66750952D01*
X92461904Y-66560476D01*
X92509523Y-66465238D01*
X92604761Y-66370000D01*
X92747619Y-66322380D01*
X92842857Y-66322380D01*
X92985714Y-66370000D01*
X93033333Y-66417619D01*
X93890476Y-66322380D02*
X93700000Y-66322380D01*
X93604761Y-66370000D01*
X93557142Y-66417619D01*
X93461904Y-66560476D01*
X93414285Y-66750952D01*
X93414285Y-67131904D01*
X93461904Y-67227142D01*
X93509523Y-67274761D01*
X93604761Y-67322380D01*
X93795238Y-67322380D01*
X93890476Y-67274761D01*
X93938095Y-67227142D01*
X93985714Y-67131904D01*
X93985714Y-66893809D01*
X93938095Y-66798571D01*
X93890476Y-66750952D01*
X93795238Y-66703333D01*
X93604761Y-66703333D01*
X93509523Y-66750952D01*
X93461904Y-66798571D01*
X93414285Y-66893809D01*
%TO.C,C8*%
X88833333Y-61957142D02*
X88785714Y-62004761D01*
X88642857Y-62052380D01*
X88547619Y-62052380D01*
X88404761Y-62004761D01*
X88309523Y-61909523D01*
X88261904Y-61814285D01*
X88214285Y-61623809D01*
X88214285Y-61480952D01*
X88261904Y-61290476D01*
X88309523Y-61195238D01*
X88404761Y-61100000D01*
X88547619Y-61052380D01*
X88642857Y-61052380D01*
X88785714Y-61100000D01*
X88833333Y-61147619D01*
X89404761Y-61480952D02*
X89309523Y-61433333D01*
X89261904Y-61385714D01*
X89214285Y-61290476D01*
X89214285Y-61242857D01*
X89261904Y-61147619D01*
X89309523Y-61100000D01*
X89404761Y-61052380D01*
X89595238Y-61052380D01*
X89690476Y-61100000D01*
X89738095Y-61147619D01*
X89785714Y-61242857D01*
X89785714Y-61290476D01*
X89738095Y-61385714D01*
X89690476Y-61433333D01*
X89595238Y-61480952D01*
X89404761Y-61480952D01*
X89309523Y-61528571D01*
X89261904Y-61576190D01*
X89214285Y-61671428D01*
X89214285Y-61861904D01*
X89261904Y-61957142D01*
X89309523Y-62004761D01*
X89404761Y-62052380D01*
X89595238Y-62052380D01*
X89690476Y-62004761D01*
X89738095Y-61957142D01*
X89785714Y-61861904D01*
X89785714Y-61671428D01*
X89738095Y-61576190D01*
X89690476Y-61528571D01*
X89595238Y-61480952D01*
%TO.C,C11*%
X112457142Y-62357142D02*
X112409523Y-62404761D01*
X112266666Y-62452380D01*
X112171428Y-62452380D01*
X112028571Y-62404761D01*
X111933333Y-62309523D01*
X111885714Y-62214285D01*
X111838095Y-62023809D01*
X111838095Y-61880952D01*
X111885714Y-61690476D01*
X111933333Y-61595238D01*
X112028571Y-61500000D01*
X112171428Y-61452380D01*
X112266666Y-61452380D01*
X112409523Y-61500000D01*
X112457142Y-61547619D01*
X113409523Y-62452380D02*
X112838095Y-62452380D01*
X113123809Y-62452380D02*
X113123809Y-61452380D01*
X113028571Y-61595238D01*
X112933333Y-61690476D01*
X112838095Y-61738095D01*
X114361904Y-62452380D02*
X113790476Y-62452380D01*
X114076190Y-62452380D02*
X114076190Y-61452380D01*
X113980952Y-61595238D01*
X113885714Y-61690476D01*
X113790476Y-61738095D01*
%TO.C,C22*%
X70607142Y-69037142D02*
X70559523Y-69084761D01*
X70416666Y-69132380D01*
X70321428Y-69132380D01*
X70178571Y-69084761D01*
X70083333Y-68989523D01*
X70035714Y-68894285D01*
X69988095Y-68703809D01*
X69988095Y-68560952D01*
X70035714Y-68370476D01*
X70083333Y-68275238D01*
X70178571Y-68180000D01*
X70321428Y-68132380D01*
X70416666Y-68132380D01*
X70559523Y-68180000D01*
X70607142Y-68227619D01*
X70988095Y-68227619D02*
X71035714Y-68180000D01*
X71130952Y-68132380D01*
X71369047Y-68132380D01*
X71464285Y-68180000D01*
X71511904Y-68227619D01*
X71559523Y-68322857D01*
X71559523Y-68418095D01*
X71511904Y-68560952D01*
X70940476Y-69132380D01*
X71559523Y-69132380D01*
X71940476Y-68227619D02*
X71988095Y-68180000D01*
X72083333Y-68132380D01*
X72321428Y-68132380D01*
X72416666Y-68180000D01*
X72464285Y-68227619D01*
X72511904Y-68322857D01*
X72511904Y-68418095D01*
X72464285Y-68560952D01*
X71892857Y-69132380D01*
X72511904Y-69132380D01*
%TO.C,C23*%
X105357142Y-69957142D02*
X105309523Y-70004761D01*
X105166666Y-70052380D01*
X105071428Y-70052380D01*
X104928571Y-70004761D01*
X104833333Y-69909523D01*
X104785714Y-69814285D01*
X104738095Y-69623809D01*
X104738095Y-69480952D01*
X104785714Y-69290476D01*
X104833333Y-69195238D01*
X104928571Y-69100000D01*
X105071428Y-69052380D01*
X105166666Y-69052380D01*
X105309523Y-69100000D01*
X105357142Y-69147619D01*
X105738095Y-69147619D02*
X105785714Y-69100000D01*
X105880952Y-69052380D01*
X106119047Y-69052380D01*
X106214285Y-69100000D01*
X106261904Y-69147619D01*
X106309523Y-69242857D01*
X106309523Y-69338095D01*
X106261904Y-69480952D01*
X105690476Y-70052380D01*
X106309523Y-70052380D01*
X106642857Y-69052380D02*
X107261904Y-69052380D01*
X106928571Y-69433333D01*
X107071428Y-69433333D01*
X107166666Y-69480952D01*
X107214285Y-69528571D01*
X107261904Y-69623809D01*
X107261904Y-69861904D01*
X107214285Y-69957142D01*
X107166666Y-70004761D01*
X107071428Y-70052380D01*
X106785714Y-70052380D01*
X106690476Y-70004761D01*
X106642857Y-69957142D01*
%TO.C,C24*%
X63857142Y-62557142D02*
X63809523Y-62604761D01*
X63666666Y-62652380D01*
X63571428Y-62652380D01*
X63428571Y-62604761D01*
X63333333Y-62509523D01*
X63285714Y-62414285D01*
X63238095Y-62223809D01*
X63238095Y-62080952D01*
X63285714Y-61890476D01*
X63333333Y-61795238D01*
X63428571Y-61700000D01*
X63571428Y-61652380D01*
X63666666Y-61652380D01*
X63809523Y-61700000D01*
X63857142Y-61747619D01*
X64238095Y-61747619D02*
X64285714Y-61700000D01*
X64380952Y-61652380D01*
X64619047Y-61652380D01*
X64714285Y-61700000D01*
X64761904Y-61747619D01*
X64809523Y-61842857D01*
X64809523Y-61938095D01*
X64761904Y-62080952D01*
X64190476Y-62652380D01*
X64809523Y-62652380D01*
X65666666Y-61985714D02*
X65666666Y-62652380D01*
X65428571Y-61604761D02*
X65190476Y-62319047D01*
X65809523Y-62319047D01*
%TO.C,C25*%
X68227142Y-62627142D02*
X68179523Y-62674761D01*
X68036666Y-62722380D01*
X67941428Y-62722380D01*
X67798571Y-62674761D01*
X67703333Y-62579523D01*
X67655714Y-62484285D01*
X67608095Y-62293809D01*
X67608095Y-62150952D01*
X67655714Y-61960476D01*
X67703333Y-61865238D01*
X67798571Y-61770000D01*
X67941428Y-61722380D01*
X68036666Y-61722380D01*
X68179523Y-61770000D01*
X68227142Y-61817619D01*
X68608095Y-61817619D02*
X68655714Y-61770000D01*
X68750952Y-61722380D01*
X68989047Y-61722380D01*
X69084285Y-61770000D01*
X69131904Y-61817619D01*
X69179523Y-61912857D01*
X69179523Y-62008095D01*
X69131904Y-62150952D01*
X68560476Y-62722380D01*
X69179523Y-62722380D01*
X70084285Y-61722380D02*
X69608095Y-61722380D01*
X69560476Y-62198571D01*
X69608095Y-62150952D01*
X69703333Y-62103333D01*
X69941428Y-62103333D01*
X70036666Y-62150952D01*
X70084285Y-62198571D01*
X70131904Y-62293809D01*
X70131904Y-62531904D01*
X70084285Y-62627142D01*
X70036666Y-62674761D01*
X69941428Y-62722380D01*
X69703333Y-62722380D01*
X69608095Y-62674761D01*
X69560476Y-62627142D01*
%TO.C,C27*%
X113957142Y-69457142D02*
X113909523Y-69504761D01*
X113766666Y-69552380D01*
X113671428Y-69552380D01*
X113528571Y-69504761D01*
X113433333Y-69409523D01*
X113385714Y-69314285D01*
X113338095Y-69123809D01*
X113338095Y-68980952D01*
X113385714Y-68790476D01*
X113433333Y-68695238D01*
X113528571Y-68600000D01*
X113671428Y-68552380D01*
X113766666Y-68552380D01*
X113909523Y-68600000D01*
X113957142Y-68647619D01*
X114338095Y-68647619D02*
X114385714Y-68600000D01*
X114480952Y-68552380D01*
X114719047Y-68552380D01*
X114814285Y-68600000D01*
X114861904Y-68647619D01*
X114909523Y-68742857D01*
X114909523Y-68838095D01*
X114861904Y-68980952D01*
X114290476Y-69552380D01*
X114909523Y-69552380D01*
X115242857Y-68552380D02*
X115909523Y-68552380D01*
X115480952Y-69552380D01*
%TO.C,D1*%
X60661904Y-96552380D02*
X60661904Y-95552380D01*
X60900000Y-95552380D01*
X61042857Y-95600000D01*
X61138095Y-95695238D01*
X61185714Y-95790476D01*
X61233333Y-95980952D01*
X61233333Y-96123809D01*
X61185714Y-96314285D01*
X61138095Y-96409523D01*
X61042857Y-96504761D01*
X60900000Y-96552380D01*
X60661904Y-96552380D01*
X62185714Y-96552380D02*
X61614285Y-96552380D01*
X61900000Y-96552380D02*
X61900000Y-95552380D01*
X61804761Y-95695238D01*
X61709523Y-95790476D01*
X61614285Y-95838095D01*
%TO.C,D3*%
X72952380Y-79938095D02*
X71952380Y-79938095D01*
X71952380Y-79700000D01*
X72000000Y-79557142D01*
X72095238Y-79461904D01*
X72190476Y-79414285D01*
X72380952Y-79366666D01*
X72523809Y-79366666D01*
X72714285Y-79414285D01*
X72809523Y-79461904D01*
X72904761Y-79557142D01*
X72952380Y-79700000D01*
X72952380Y-79938095D01*
X71952380Y-79033333D02*
X71952380Y-78414285D01*
X72333333Y-78747619D01*
X72333333Y-78604761D01*
X72380952Y-78509523D01*
X72428571Y-78461904D01*
X72523809Y-78414285D01*
X72761904Y-78414285D01*
X72857142Y-78461904D01*
X72904761Y-78509523D01*
X72952380Y-78604761D01*
X72952380Y-78890476D01*
X72904761Y-78985714D01*
X72857142Y-79033333D01*
%TO.C,D4*%
X76461904Y-93002380D02*
X76461904Y-92002380D01*
X76700000Y-92002380D01*
X76842857Y-92050000D01*
X76938095Y-92145238D01*
X76985714Y-92240476D01*
X77033333Y-92430952D01*
X77033333Y-92573809D01*
X76985714Y-92764285D01*
X76938095Y-92859523D01*
X76842857Y-92954761D01*
X76700000Y-93002380D01*
X76461904Y-93002380D01*
X77890476Y-92335714D02*
X77890476Y-93002380D01*
X77652380Y-91954761D02*
X77414285Y-92669047D01*
X78033333Y-92669047D01*
%TO.C,D5*%
X72952380Y-82438095D02*
X71952380Y-82438095D01*
X71952380Y-82200000D01*
X72000000Y-82057142D01*
X72095238Y-81961904D01*
X72190476Y-81914285D01*
X72380952Y-81866666D01*
X72523809Y-81866666D01*
X72714285Y-81914285D01*
X72809523Y-81961904D01*
X72904761Y-82057142D01*
X72952380Y-82200000D01*
X72952380Y-82438095D01*
X71952380Y-80961904D02*
X71952380Y-81438095D01*
X72428571Y-81485714D01*
X72380952Y-81438095D01*
X72333333Y-81342857D01*
X72333333Y-81104761D01*
X72380952Y-81009523D01*
X72428571Y-80961904D01*
X72523809Y-80914285D01*
X72761904Y-80914285D01*
X72857142Y-80961904D01*
X72904761Y-81009523D01*
X72952380Y-81104761D01*
X72952380Y-81342857D01*
X72904761Y-81438095D01*
X72857142Y-81485714D01*
%TO.C,D6*%
X89261904Y-75352380D02*
X89261904Y-74352380D01*
X89500000Y-74352380D01*
X89642857Y-74400000D01*
X89738095Y-74495238D01*
X89785714Y-74590476D01*
X89833333Y-74780952D01*
X89833333Y-74923809D01*
X89785714Y-75114285D01*
X89738095Y-75209523D01*
X89642857Y-75304761D01*
X89500000Y-75352380D01*
X89261904Y-75352380D01*
X90690476Y-74352380D02*
X90500000Y-74352380D01*
X90404761Y-74400000D01*
X90357142Y-74447619D01*
X90261904Y-74590476D01*
X90214285Y-74780952D01*
X90214285Y-75161904D01*
X90261904Y-75257142D01*
X90309523Y-75304761D01*
X90404761Y-75352380D01*
X90595238Y-75352380D01*
X90690476Y-75304761D01*
X90738095Y-75257142D01*
X90785714Y-75161904D01*
X90785714Y-74923809D01*
X90738095Y-74828571D01*
X90690476Y-74780952D01*
X90595238Y-74733333D01*
X90404761Y-74733333D01*
X90309523Y-74780952D01*
X90261904Y-74828571D01*
X90214285Y-74923809D01*
%TO.C,D7*%
X72952380Y-84738095D02*
X71952380Y-84738095D01*
X71952380Y-84500000D01*
X72000000Y-84357142D01*
X72095238Y-84261904D01*
X72190476Y-84214285D01*
X72380952Y-84166666D01*
X72523809Y-84166666D01*
X72714285Y-84214285D01*
X72809523Y-84261904D01*
X72904761Y-84357142D01*
X72952380Y-84500000D01*
X72952380Y-84738095D01*
X71952380Y-83833333D02*
X71952380Y-83166666D01*
X72952380Y-83595238D01*
%TO.C,D8*%
X61761904Y-63752380D02*
X61761904Y-62752380D01*
X62000000Y-62752380D01*
X62142857Y-62800000D01*
X62238095Y-62895238D01*
X62285714Y-62990476D01*
X62333333Y-63180952D01*
X62333333Y-63323809D01*
X62285714Y-63514285D01*
X62238095Y-63609523D01*
X62142857Y-63704761D01*
X62000000Y-63752380D01*
X61761904Y-63752380D01*
X62904761Y-63180952D02*
X62809523Y-63133333D01*
X62761904Y-63085714D01*
X62714285Y-62990476D01*
X62714285Y-62942857D01*
X62761904Y-62847619D01*
X62809523Y-62800000D01*
X62904761Y-62752380D01*
X63095238Y-62752380D01*
X63190476Y-62800000D01*
X63238095Y-62847619D01*
X63285714Y-62942857D01*
X63285714Y-62990476D01*
X63238095Y-63085714D01*
X63190476Y-63133333D01*
X63095238Y-63180952D01*
X62904761Y-63180952D01*
X62809523Y-63228571D01*
X62761904Y-63276190D01*
X62714285Y-63371428D01*
X62714285Y-63561904D01*
X62761904Y-63657142D01*
X62809523Y-63704761D01*
X62904761Y-63752380D01*
X63095238Y-63752380D01*
X63190476Y-63704761D01*
X63238095Y-63657142D01*
X63285714Y-63561904D01*
X63285714Y-63371428D01*
X63238095Y-63276190D01*
X63190476Y-63228571D01*
X63095238Y-63180952D01*
%TO.C,D9*%
X60861904Y-61552380D02*
X60861904Y-60552380D01*
X61100000Y-60552380D01*
X61242857Y-60600000D01*
X61338095Y-60695238D01*
X61385714Y-60790476D01*
X61433333Y-60980952D01*
X61433333Y-61123809D01*
X61385714Y-61314285D01*
X61338095Y-61409523D01*
X61242857Y-61504761D01*
X61100000Y-61552380D01*
X60861904Y-61552380D01*
X61909523Y-61552380D02*
X62100000Y-61552380D01*
X62195238Y-61504761D01*
X62242857Y-61457142D01*
X62338095Y-61314285D01*
X62385714Y-61123809D01*
X62385714Y-60742857D01*
X62338095Y-60647619D01*
X62290476Y-60600000D01*
X62195238Y-60552380D01*
X62004761Y-60552380D01*
X61909523Y-60600000D01*
X61861904Y-60647619D01*
X61814285Y-60742857D01*
X61814285Y-60980952D01*
X61861904Y-61076190D01*
X61909523Y-61123809D01*
X62004761Y-61171428D01*
X62195238Y-61171428D01*
X62290476Y-61123809D01*
X62338095Y-61076190D01*
X62385714Y-60980952D01*
%TO.C,D10*%
X72852380Y-77714285D02*
X71852380Y-77714285D01*
X71852380Y-77476190D01*
X71900000Y-77333333D01*
X71995238Y-77238095D01*
X72090476Y-77190476D01*
X72280952Y-77142857D01*
X72423809Y-77142857D01*
X72614285Y-77190476D01*
X72709523Y-77238095D01*
X72804761Y-77333333D01*
X72852380Y-77476190D01*
X72852380Y-77714285D01*
X72852380Y-76190476D02*
X72852380Y-76761904D01*
X72852380Y-76476190D02*
X71852380Y-76476190D01*
X71995238Y-76571428D01*
X72090476Y-76666666D01*
X72138095Y-76761904D01*
X71852380Y-75571428D02*
X71852380Y-75476190D01*
X71900000Y-75380952D01*
X71947619Y-75333333D01*
X72042857Y-75285714D01*
X72233333Y-75238095D01*
X72471428Y-75238095D01*
X72661904Y-75285714D01*
X72757142Y-75333333D01*
X72804761Y-75380952D01*
X72852380Y-75476190D01*
X72852380Y-75571428D01*
X72804761Y-75666666D01*
X72757142Y-75714285D01*
X72661904Y-75761904D01*
X72471428Y-75809523D01*
X72233333Y-75809523D01*
X72042857Y-75761904D01*
X71947619Y-75714285D01*
X71900000Y-75666666D01*
X71852380Y-75571428D01*
%TO.C,F1*%
X73066666Y-95178571D02*
X72733333Y-95178571D01*
X72733333Y-95702380D02*
X72733333Y-94702380D01*
X73209523Y-94702380D01*
X74114285Y-95702380D02*
X73542857Y-95702380D01*
X73828571Y-95702380D02*
X73828571Y-94702380D01*
X73733333Y-94845238D01*
X73638095Y-94940476D01*
X73542857Y-94988095D01*
%TO.C,IC1*%
X59723809Y-68902380D02*
X59723809Y-67902380D01*
X60771428Y-68807142D02*
X60723809Y-68854761D01*
X60580952Y-68902380D01*
X60485714Y-68902380D01*
X60342857Y-68854761D01*
X60247619Y-68759523D01*
X60200000Y-68664285D01*
X60152380Y-68473809D01*
X60152380Y-68330952D01*
X60200000Y-68140476D01*
X60247619Y-68045238D01*
X60342857Y-67950000D01*
X60485714Y-67902380D01*
X60580952Y-67902380D01*
X60723809Y-67950000D01*
X60771428Y-67997619D01*
X61723809Y-68902380D02*
X61152380Y-68902380D01*
X61438095Y-68902380D02*
X61438095Y-67902380D01*
X61342857Y-68045238D01*
X61247619Y-68140476D01*
X61152380Y-68188095D01*
%TO.C,J1*%
X76766666Y-58852380D02*
X76766666Y-59566666D01*
X76719047Y-59709523D01*
X76623809Y-59804761D01*
X76480952Y-59852380D01*
X76385714Y-59852380D01*
X77766666Y-59852380D02*
X77195238Y-59852380D01*
X77480952Y-59852380D02*
X77480952Y-58852380D01*
X77385714Y-58995238D01*
X77290476Y-59090476D01*
X77195238Y-59138095D01*
%TO.C,J2*%
X54766666Y-99552380D02*
X54766666Y-100266666D01*
X54719047Y-100409523D01*
X54623809Y-100504761D01*
X54480952Y-100552380D01*
X54385714Y-100552380D01*
X55195238Y-99647619D02*
X55242857Y-99600000D01*
X55338095Y-99552380D01*
X55576190Y-99552380D01*
X55671428Y-99600000D01*
X55719047Y-99647619D01*
X55766666Y-99742857D01*
X55766666Y-99838095D01*
X55719047Y-99980952D01*
X55147619Y-100552380D01*
X55766666Y-100552380D01*
%TO.C,J3*%
X75016666Y-98302380D02*
X75016666Y-99016666D01*
X74969047Y-99159523D01*
X74873809Y-99254761D01*
X74730952Y-99302380D01*
X74635714Y-99302380D01*
X75397619Y-98302380D02*
X76016666Y-98302380D01*
X75683333Y-98683333D01*
X75826190Y-98683333D01*
X75921428Y-98730952D01*
X75969047Y-98778571D01*
X76016666Y-98873809D01*
X76016666Y-99111904D01*
X75969047Y-99207142D01*
X75921428Y-99254761D01*
X75826190Y-99302380D01*
X75540476Y-99302380D01*
X75445238Y-99254761D01*
X75397619Y-99207142D01*
%TO.C,J4*%
X97206666Y-97252380D02*
X97206666Y-97966666D01*
X97159047Y-98109523D01*
X97063809Y-98204761D01*
X96920952Y-98252380D01*
X96825714Y-98252380D01*
X98111428Y-97585714D02*
X98111428Y-98252380D01*
X97873333Y-97204761D02*
X97635238Y-97919047D01*
X98254285Y-97919047D01*
%TO.C,J5*%
X76166666Y-70852380D02*
X76166666Y-71566666D01*
X76119047Y-71709523D01*
X76023809Y-71804761D01*
X75880952Y-71852380D01*
X75785714Y-71852380D01*
X77119047Y-70852380D02*
X76642857Y-70852380D01*
X76595238Y-71328571D01*
X76642857Y-71280952D01*
X76738095Y-71233333D01*
X76976190Y-71233333D01*
X77071428Y-71280952D01*
X77119047Y-71328571D01*
X77166666Y-71423809D01*
X77166666Y-71661904D01*
X77119047Y-71757142D01*
X77071428Y-71804761D01*
X76976190Y-71852380D01*
X76738095Y-71852380D01*
X76642857Y-71804761D01*
X76595238Y-71757142D01*
%TO.C,J6*%
X96966666Y-90952380D02*
X96966666Y-91666666D01*
X96919047Y-91809523D01*
X96823809Y-91904761D01*
X96680952Y-91952380D01*
X96585714Y-91952380D01*
X97871428Y-90952380D02*
X97680952Y-90952380D01*
X97585714Y-91000000D01*
X97538095Y-91047619D01*
X97442857Y-91190476D01*
X97395238Y-91380952D01*
X97395238Y-91761904D01*
X97442857Y-91857142D01*
X97490476Y-91904761D01*
X97585714Y-91952380D01*
X97776190Y-91952380D01*
X97871428Y-91904761D01*
X97919047Y-91857142D01*
X97966666Y-91761904D01*
X97966666Y-91523809D01*
X97919047Y-91428571D01*
X97871428Y-91380952D01*
X97776190Y-91333333D01*
X97585714Y-91333333D01*
X97490476Y-91380952D01*
X97442857Y-91428571D01*
X97395238Y-91523809D01*
%TO.C,J7*%
X80352380Y-86533333D02*
X81066666Y-86533333D01*
X81209523Y-86580952D01*
X81304761Y-86676190D01*
X81352380Y-86819047D01*
X81352380Y-86914285D01*
X80352380Y-86152380D02*
X80352380Y-85485714D01*
X81352380Y-85914285D01*
%TO.C,J8*%
X105666666Y-96452380D02*
X105666666Y-97166666D01*
X105619047Y-97309523D01*
X105523809Y-97404761D01*
X105380952Y-97452380D01*
X105285714Y-97452380D01*
X106285714Y-96880952D02*
X106190476Y-96833333D01*
X106142857Y-96785714D01*
X106095238Y-96690476D01*
X106095238Y-96642857D01*
X106142857Y-96547619D01*
X106190476Y-96500000D01*
X106285714Y-96452380D01*
X106476190Y-96452380D01*
X106571428Y-96500000D01*
X106619047Y-96547619D01*
X106666666Y-96642857D01*
X106666666Y-96690476D01*
X106619047Y-96785714D01*
X106571428Y-96833333D01*
X106476190Y-96880952D01*
X106285714Y-96880952D01*
X106190476Y-96928571D01*
X106142857Y-96976190D01*
X106095238Y-97071428D01*
X106095238Y-97261904D01*
X106142857Y-97357142D01*
X106190476Y-97404761D01*
X106285714Y-97452380D01*
X106476190Y-97452380D01*
X106571428Y-97404761D01*
X106619047Y-97357142D01*
X106666666Y-97261904D01*
X106666666Y-97071428D01*
X106619047Y-96976190D01*
X106571428Y-96928571D01*
X106476190Y-96880952D01*
%TO.C,J9*%
X88666666Y-66552380D02*
X88666666Y-67266666D01*
X88619047Y-67409523D01*
X88523809Y-67504761D01*
X88380952Y-67552380D01*
X88285714Y-67552380D01*
X89190476Y-67552380D02*
X89380952Y-67552380D01*
X89476190Y-67504761D01*
X89523809Y-67457142D01*
X89619047Y-67314285D01*
X89666666Y-67123809D01*
X89666666Y-66742857D01*
X89619047Y-66647619D01*
X89571428Y-66600000D01*
X89476190Y-66552380D01*
X89285714Y-66552380D01*
X89190476Y-66600000D01*
X89142857Y-66647619D01*
X89095238Y-66742857D01*
X89095238Y-66980952D01*
X89142857Y-67076190D01*
X89190476Y-67123809D01*
X89285714Y-67171428D01*
X89476190Y-67171428D01*
X89571428Y-67123809D01*
X89619047Y-67076190D01*
X89666666Y-66980952D01*
%TO.C,J10*%
X55790476Y-67152380D02*
X55790476Y-67866666D01*
X55742857Y-68009523D01*
X55647619Y-68104761D01*
X55504761Y-68152380D01*
X55409523Y-68152380D01*
X56790476Y-68152380D02*
X56219047Y-68152380D01*
X56504761Y-68152380D02*
X56504761Y-67152380D01*
X56409523Y-67295238D01*
X56314285Y-67390476D01*
X56219047Y-67438095D01*
X57409523Y-67152380D02*
X57504761Y-67152380D01*
X57600000Y-67200000D01*
X57647619Y-67247619D01*
X57695238Y-67342857D01*
X57742857Y-67533333D01*
X57742857Y-67771428D01*
X57695238Y-67961904D01*
X57647619Y-68057142D01*
X57600000Y-68104761D01*
X57504761Y-68152380D01*
X57409523Y-68152380D01*
X57314285Y-68104761D01*
X57266666Y-68057142D01*
X57219047Y-67961904D01*
X57171428Y-67771428D01*
X57171428Y-67533333D01*
X57219047Y-67342857D01*
X57266666Y-67247619D01*
X57314285Y-67200000D01*
X57409523Y-67152380D01*
%TO.C,J11*%
X55190476Y-92122380D02*
X55190476Y-92836666D01*
X55142857Y-92979523D01*
X55047619Y-93074761D01*
X54904761Y-93122380D01*
X54809523Y-93122380D01*
X56190476Y-93122380D02*
X55619047Y-93122380D01*
X55904761Y-93122380D02*
X55904761Y-92122380D01*
X55809523Y-92265238D01*
X55714285Y-92360476D01*
X55619047Y-92408095D01*
X57142857Y-93122380D02*
X56571428Y-93122380D01*
X56857142Y-93122380D02*
X56857142Y-92122380D01*
X56761904Y-92265238D01*
X56666666Y-92360476D01*
X56571428Y-92408095D01*
%TO.C,J12*%
X83190476Y-92122380D02*
X83190476Y-92836666D01*
X83142857Y-92979523D01*
X83047619Y-93074761D01*
X82904761Y-93122380D01*
X82809523Y-93122380D01*
X84190476Y-93122380D02*
X83619047Y-93122380D01*
X83904761Y-93122380D02*
X83904761Y-92122380D01*
X83809523Y-92265238D01*
X83714285Y-92360476D01*
X83619047Y-92408095D01*
X84571428Y-92217619D02*
X84619047Y-92170000D01*
X84714285Y-92122380D01*
X84952380Y-92122380D01*
X85047619Y-92170000D01*
X85095238Y-92217619D01*
X85142857Y-92312857D01*
X85142857Y-92408095D01*
X85095238Y-92550952D01*
X84523809Y-93122380D01*
X85142857Y-93122380D01*
%TO.C,J13*%
X117190476Y-92122380D02*
X117190476Y-92836666D01*
X117142857Y-92979523D01*
X117047619Y-93074761D01*
X116904761Y-93122380D01*
X116809523Y-93122380D01*
X118190476Y-93122380D02*
X117619047Y-93122380D01*
X117904761Y-93122380D02*
X117904761Y-92122380D01*
X117809523Y-92265238D01*
X117714285Y-92360476D01*
X117619047Y-92408095D01*
X118523809Y-92122380D02*
X119142857Y-92122380D01*
X118809523Y-92503333D01*
X118952380Y-92503333D01*
X119047619Y-92550952D01*
X119095238Y-92598571D01*
X119142857Y-92693809D01*
X119142857Y-92931904D01*
X119095238Y-93027142D01*
X119047619Y-93074761D01*
X118952380Y-93122380D01*
X118666666Y-93122380D01*
X118571428Y-93074761D01*
X118523809Y-93027142D01*
%TO.C,J14*%
X88390476Y-96552380D02*
X88390476Y-97266666D01*
X88342857Y-97409523D01*
X88247619Y-97504761D01*
X88104761Y-97552380D01*
X88009523Y-97552380D01*
X89390476Y-97552380D02*
X88819047Y-97552380D01*
X89104761Y-97552380D02*
X89104761Y-96552380D01*
X89009523Y-96695238D01*
X88914285Y-96790476D01*
X88819047Y-96838095D01*
X90247619Y-96885714D02*
X90247619Y-97552380D01*
X90009523Y-96504761D02*
X89771428Y-97219047D01*
X90390476Y-97219047D01*
%TO.C,J17*%
X117190476Y-62122380D02*
X117190476Y-62836666D01*
X117142857Y-62979523D01*
X117047619Y-63074761D01*
X116904761Y-63122380D01*
X116809523Y-63122380D01*
X118190476Y-63122380D02*
X117619047Y-63122380D01*
X117904761Y-63122380D02*
X117904761Y-62122380D01*
X117809523Y-62265238D01*
X117714285Y-62360476D01*
X117619047Y-62408095D01*
X118523809Y-62122380D02*
X119190476Y-62122380D01*
X118761904Y-63122380D01*
%TO.C,J18*%
X83190476Y-62122380D02*
X83190476Y-62836666D01*
X83142857Y-62979523D01*
X83047619Y-63074761D01*
X82904761Y-63122380D01*
X82809523Y-63122380D01*
X84190476Y-63122380D02*
X83619047Y-63122380D01*
X83904761Y-63122380D02*
X83904761Y-62122380D01*
X83809523Y-62265238D01*
X83714285Y-62360476D01*
X83619047Y-62408095D01*
X84761904Y-62550952D02*
X84666666Y-62503333D01*
X84619047Y-62455714D01*
X84571428Y-62360476D01*
X84571428Y-62312857D01*
X84619047Y-62217619D01*
X84666666Y-62170000D01*
X84761904Y-62122380D01*
X84952380Y-62122380D01*
X85047619Y-62170000D01*
X85095238Y-62217619D01*
X85142857Y-62312857D01*
X85142857Y-62360476D01*
X85095238Y-62455714D01*
X85047619Y-62503333D01*
X84952380Y-62550952D01*
X84761904Y-62550952D01*
X84666666Y-62598571D01*
X84619047Y-62646190D01*
X84571428Y-62741428D01*
X84571428Y-62931904D01*
X84619047Y-63027142D01*
X84666666Y-63074761D01*
X84761904Y-63122380D01*
X84952380Y-63122380D01*
X85047619Y-63074761D01*
X85095238Y-63027142D01*
X85142857Y-62931904D01*
X85142857Y-62741428D01*
X85095238Y-62646190D01*
X85047619Y-62598571D01*
X84952380Y-62550952D01*
%TO.C,J19*%
X104090476Y-65152380D02*
X104090476Y-65866666D01*
X104042857Y-66009523D01*
X103947619Y-66104761D01*
X103804761Y-66152380D01*
X103709523Y-66152380D01*
X105090476Y-66152380D02*
X104519047Y-66152380D01*
X104804761Y-66152380D02*
X104804761Y-65152380D01*
X104709523Y-65295238D01*
X104614285Y-65390476D01*
X104519047Y-65438095D01*
X105566666Y-66152380D02*
X105757142Y-66152380D01*
X105852380Y-66104761D01*
X105900000Y-66057142D01*
X105995238Y-65914285D01*
X106042857Y-65723809D01*
X106042857Y-65342857D01*
X105995238Y-65247619D01*
X105947619Y-65200000D01*
X105852380Y-65152380D01*
X105661904Y-65152380D01*
X105566666Y-65200000D01*
X105519047Y-65247619D01*
X105471428Y-65342857D01*
X105471428Y-65580952D01*
X105519047Y-65676190D01*
X105566666Y-65723809D01*
X105661904Y-65771428D01*
X105852380Y-65771428D01*
X105947619Y-65723809D01*
X105995238Y-65676190D01*
X106042857Y-65580952D01*
%TO.C,JP1*%
X54666666Y-61552380D02*
X54666666Y-62266666D01*
X54619047Y-62409523D01*
X54523809Y-62504761D01*
X54380952Y-62552380D01*
X54285714Y-62552380D01*
X55142857Y-62552380D02*
X55142857Y-61552380D01*
X55523809Y-61552380D01*
X55619047Y-61600000D01*
X55666666Y-61647619D01*
X55714285Y-61742857D01*
X55714285Y-61885714D01*
X55666666Y-61980952D01*
X55619047Y-62028571D01*
X55523809Y-62076190D01*
X55142857Y-62076190D01*
X56666666Y-62552380D02*
X56095238Y-62552380D01*
X56380952Y-62552380D02*
X56380952Y-61552380D01*
X56285714Y-61695238D01*
X56190476Y-61790476D01*
X56095238Y-61838095D01*
%TO.C,L1*%
X68973333Y-65122380D02*
X68497142Y-65122380D01*
X68497142Y-64122380D01*
X69830476Y-65122380D02*
X69259047Y-65122380D01*
X69544761Y-65122380D02*
X69544761Y-64122380D01*
X69449523Y-64265238D01*
X69354285Y-64360476D01*
X69259047Y-64408095D01*
%TO.C,L2*%
X113833333Y-93052380D02*
X113357142Y-93052380D01*
X113357142Y-92052380D01*
X114119047Y-92147619D02*
X114166666Y-92100000D01*
X114261904Y-92052380D01*
X114500000Y-92052380D01*
X114595238Y-92100000D01*
X114642857Y-92147619D01*
X114690476Y-92242857D01*
X114690476Y-92338095D01*
X114642857Y-92480952D01*
X114071428Y-93052380D01*
X114690476Y-93052380D01*
%TO.C,L3*%
X100503333Y-64052380D02*
X100027142Y-64052380D01*
X100027142Y-63052380D01*
X100741428Y-63052380D02*
X101360476Y-63052380D01*
X101027142Y-63433333D01*
X101170000Y-63433333D01*
X101265238Y-63480952D01*
X101312857Y-63528571D01*
X101360476Y-63623809D01*
X101360476Y-63861904D01*
X101312857Y-63957142D01*
X101265238Y-64004761D01*
X101170000Y-64052380D01*
X100884285Y-64052380D01*
X100789047Y-64004761D01*
X100741428Y-63957142D01*
%TO.C,M1*%
X63290476Y-69952380D02*
X63290476Y-68952380D01*
X63623809Y-69666666D01*
X63957142Y-68952380D01*
X63957142Y-69952380D01*
X64957142Y-69952380D02*
X64385714Y-69952380D01*
X64671428Y-69952380D02*
X64671428Y-68952380D01*
X64576190Y-69095238D01*
X64480952Y-69190476D01*
X64385714Y-69238095D01*
%TO.C,Q1*%
X63904761Y-95547619D02*
X63809523Y-95500000D01*
X63714285Y-95404761D01*
X63571428Y-95261904D01*
X63476190Y-95214285D01*
X63380952Y-95214285D01*
X63428571Y-95452380D02*
X63333333Y-95404761D01*
X63238095Y-95309523D01*
X63190476Y-95119047D01*
X63190476Y-94785714D01*
X63238095Y-94595238D01*
X63333333Y-94500000D01*
X63428571Y-94452380D01*
X63619047Y-94452380D01*
X63714285Y-94500000D01*
X63809523Y-94595238D01*
X63857142Y-94785714D01*
X63857142Y-95119047D01*
X63809523Y-95309523D01*
X63714285Y-95404761D01*
X63619047Y-95452380D01*
X63428571Y-95452380D01*
X64809523Y-95452380D02*
X64238095Y-95452380D01*
X64523809Y-95452380D02*
X64523809Y-94452380D01*
X64428571Y-94595238D01*
X64333333Y-94690476D01*
X64238095Y-94738095D01*
%TO.C,Q4*%
X77847619Y-80095238D02*
X77800000Y-80190476D01*
X77704761Y-80285714D01*
X77561904Y-80428571D01*
X77514285Y-80523809D01*
X77514285Y-80619047D01*
X77752380Y-80571428D02*
X77704761Y-80666666D01*
X77609523Y-80761904D01*
X77419047Y-80809523D01*
X77085714Y-80809523D01*
X76895238Y-80761904D01*
X76800000Y-80666666D01*
X76752380Y-80571428D01*
X76752380Y-80380952D01*
X76800000Y-80285714D01*
X76895238Y-80190476D01*
X77085714Y-80142857D01*
X77419047Y-80142857D01*
X77609523Y-80190476D01*
X77704761Y-80285714D01*
X77752380Y-80380952D01*
X77752380Y-80571428D01*
X77085714Y-79285714D02*
X77752380Y-79285714D01*
X76704761Y-79523809D02*
X77419047Y-79761904D01*
X77419047Y-79142857D01*
%TO.C,Q5*%
X80354761Y-92997619D02*
X80259523Y-92950000D01*
X80164285Y-92854761D01*
X80021428Y-92711904D01*
X79926190Y-92664285D01*
X79830952Y-92664285D01*
X79878571Y-92902380D02*
X79783333Y-92854761D01*
X79688095Y-92759523D01*
X79640476Y-92569047D01*
X79640476Y-92235714D01*
X79688095Y-92045238D01*
X79783333Y-91950000D01*
X79878571Y-91902380D01*
X80069047Y-91902380D01*
X80164285Y-91950000D01*
X80259523Y-92045238D01*
X80307142Y-92235714D01*
X80307142Y-92569047D01*
X80259523Y-92759523D01*
X80164285Y-92854761D01*
X80069047Y-92902380D01*
X79878571Y-92902380D01*
X81211904Y-91902380D02*
X80735714Y-91902380D01*
X80688095Y-92378571D01*
X80735714Y-92330952D01*
X80830952Y-92283333D01*
X81069047Y-92283333D01*
X81164285Y-92330952D01*
X81211904Y-92378571D01*
X81259523Y-92473809D01*
X81259523Y-92711904D01*
X81211904Y-92807142D01*
X81164285Y-92854761D01*
X81069047Y-92902380D01*
X80830952Y-92902380D01*
X80735714Y-92854761D01*
X80688095Y-92807142D01*
%TO.C,Q6*%
X77947619Y-82495238D02*
X77900000Y-82590476D01*
X77804761Y-82685714D01*
X77661904Y-82828571D01*
X77614285Y-82923809D01*
X77614285Y-83019047D01*
X77852380Y-82971428D02*
X77804761Y-83066666D01*
X77709523Y-83161904D01*
X77519047Y-83209523D01*
X77185714Y-83209523D01*
X76995238Y-83161904D01*
X76900000Y-83066666D01*
X76852380Y-82971428D01*
X76852380Y-82780952D01*
X76900000Y-82685714D01*
X76995238Y-82590476D01*
X77185714Y-82542857D01*
X77519047Y-82542857D01*
X77709523Y-82590476D01*
X77804761Y-82685714D01*
X77852380Y-82780952D01*
X77852380Y-82971428D01*
X76852380Y-81685714D02*
X76852380Y-81876190D01*
X76900000Y-81971428D01*
X76947619Y-82019047D01*
X77090476Y-82114285D01*
X77280952Y-82161904D01*
X77661904Y-82161904D01*
X77757142Y-82114285D01*
X77804761Y-82066666D01*
X77852380Y-81971428D01*
X77852380Y-81780952D01*
X77804761Y-81685714D01*
X77757142Y-81638095D01*
X77661904Y-81590476D01*
X77423809Y-81590476D01*
X77328571Y-81638095D01*
X77280952Y-81685714D01*
X77233333Y-81780952D01*
X77233333Y-81971428D01*
X77280952Y-82066666D01*
X77328571Y-82114285D01*
X77423809Y-82161904D01*
%TO.C,Q7*%
X77947619Y-77695238D02*
X77900000Y-77790476D01*
X77804761Y-77885714D01*
X77661904Y-78028571D01*
X77614285Y-78123809D01*
X77614285Y-78219047D01*
X77852380Y-78171428D02*
X77804761Y-78266666D01*
X77709523Y-78361904D01*
X77519047Y-78409523D01*
X77185714Y-78409523D01*
X76995238Y-78361904D01*
X76900000Y-78266666D01*
X76852380Y-78171428D01*
X76852380Y-77980952D01*
X76900000Y-77885714D01*
X76995238Y-77790476D01*
X77185714Y-77742857D01*
X77519047Y-77742857D01*
X77709523Y-77790476D01*
X77804761Y-77885714D01*
X77852380Y-77980952D01*
X77852380Y-78171428D01*
X76852380Y-77409523D02*
X76852380Y-76742857D01*
X77852380Y-77171428D01*
%TO.C,R1*%
X60833333Y-92252380D02*
X60500000Y-91776190D01*
X60261904Y-92252380D02*
X60261904Y-91252380D01*
X60642857Y-91252380D01*
X60738095Y-91300000D01*
X60785714Y-91347619D01*
X60833333Y-91442857D01*
X60833333Y-91585714D01*
X60785714Y-91680952D01*
X60738095Y-91728571D01*
X60642857Y-91776190D01*
X60261904Y-91776190D01*
X61785714Y-92252380D02*
X61214285Y-92252380D01*
X61500000Y-92252380D02*
X61500000Y-91252380D01*
X61404761Y-91395238D01*
X61309523Y-91490476D01*
X61214285Y-91538095D01*
%TO.C,R9*%
X76452380Y-79866666D02*
X75976190Y-80200000D01*
X76452380Y-80438095D02*
X75452380Y-80438095D01*
X75452380Y-80057142D01*
X75500000Y-79961904D01*
X75547619Y-79914285D01*
X75642857Y-79866666D01*
X75785714Y-79866666D01*
X75880952Y-79914285D01*
X75928571Y-79961904D01*
X75976190Y-80057142D01*
X75976190Y-80438095D01*
X76452380Y-79390476D02*
X76452380Y-79200000D01*
X76404761Y-79104761D01*
X76357142Y-79057142D01*
X76214285Y-78961904D01*
X76023809Y-78914285D01*
X75642857Y-78914285D01*
X75547619Y-78961904D01*
X75500000Y-79009523D01*
X75452380Y-79104761D01*
X75452380Y-79295238D01*
X75500000Y-79390476D01*
X75547619Y-79438095D01*
X75642857Y-79485714D01*
X75880952Y-79485714D01*
X75976190Y-79438095D01*
X76023809Y-79390476D01*
X76071428Y-79295238D01*
X76071428Y-79104761D01*
X76023809Y-79009523D01*
X75976190Y-78961904D01*
X75880952Y-78914285D01*
%TO.C,R10*%
X75457142Y-96902380D02*
X75123809Y-96426190D01*
X74885714Y-96902380D02*
X74885714Y-95902380D01*
X75266666Y-95902380D01*
X75361904Y-95950000D01*
X75409523Y-95997619D01*
X75457142Y-96092857D01*
X75457142Y-96235714D01*
X75409523Y-96330952D01*
X75361904Y-96378571D01*
X75266666Y-96426190D01*
X74885714Y-96426190D01*
X76409523Y-96902380D02*
X75838095Y-96902380D01*
X76123809Y-96902380D02*
X76123809Y-95902380D01*
X76028571Y-96045238D01*
X75933333Y-96140476D01*
X75838095Y-96188095D01*
X77028571Y-95902380D02*
X77123809Y-95902380D01*
X77219047Y-95950000D01*
X77266666Y-95997619D01*
X77314285Y-96092857D01*
X77361904Y-96283333D01*
X77361904Y-96521428D01*
X77314285Y-96711904D01*
X77266666Y-96807142D01*
X77219047Y-96854761D01*
X77123809Y-96902380D01*
X77028571Y-96902380D01*
X76933333Y-96854761D01*
X76885714Y-96807142D01*
X76838095Y-96711904D01*
X76790476Y-96521428D01*
X76790476Y-96283333D01*
X76838095Y-96092857D01*
X76885714Y-95997619D01*
X76933333Y-95950000D01*
X77028571Y-95902380D01*
%TO.C,R14*%
X67707142Y-93052380D02*
X67373809Y-92576190D01*
X67135714Y-93052380D02*
X67135714Y-92052380D01*
X67516666Y-92052380D01*
X67611904Y-92100000D01*
X67659523Y-92147619D01*
X67707142Y-92242857D01*
X67707142Y-92385714D01*
X67659523Y-92480952D01*
X67611904Y-92528571D01*
X67516666Y-92576190D01*
X67135714Y-92576190D01*
X68659523Y-93052380D02*
X68088095Y-93052380D01*
X68373809Y-93052380D02*
X68373809Y-92052380D01*
X68278571Y-92195238D01*
X68183333Y-92290476D01*
X68088095Y-92338095D01*
X69516666Y-92385714D02*
X69516666Y-93052380D01*
X69278571Y-92004761D02*
X69040476Y-92719047D01*
X69659523Y-92719047D01*
%TO.C,R15*%
X75152380Y-81142857D02*
X74676190Y-81476190D01*
X75152380Y-81714285D02*
X74152380Y-81714285D01*
X74152380Y-81333333D01*
X74200000Y-81238095D01*
X74247619Y-81190476D01*
X74342857Y-81142857D01*
X74485714Y-81142857D01*
X74580952Y-81190476D01*
X74628571Y-81238095D01*
X74676190Y-81333333D01*
X74676190Y-81714285D01*
X75152380Y-80190476D02*
X75152380Y-80761904D01*
X75152380Y-80476190D02*
X74152380Y-80476190D01*
X74295238Y-80571428D01*
X74390476Y-80666666D01*
X74438095Y-80761904D01*
X74152380Y-79285714D02*
X74152380Y-79761904D01*
X74628571Y-79809523D01*
X74580952Y-79761904D01*
X74533333Y-79666666D01*
X74533333Y-79428571D01*
X74580952Y-79333333D01*
X74628571Y-79285714D01*
X74723809Y-79238095D01*
X74961904Y-79238095D01*
X75057142Y-79285714D01*
X75104761Y-79333333D01*
X75152380Y-79428571D01*
X75152380Y-79666666D01*
X75104761Y-79761904D01*
X75057142Y-79809523D01*
%TO.C,R16*%
X80152380Y-85442857D02*
X79676190Y-85776190D01*
X80152380Y-86014285D02*
X79152380Y-86014285D01*
X79152380Y-85633333D01*
X79200000Y-85538095D01*
X79247619Y-85490476D01*
X79342857Y-85442857D01*
X79485714Y-85442857D01*
X79580952Y-85490476D01*
X79628571Y-85538095D01*
X79676190Y-85633333D01*
X79676190Y-86014285D01*
X80152380Y-84490476D02*
X80152380Y-85061904D01*
X80152380Y-84776190D02*
X79152380Y-84776190D01*
X79295238Y-84871428D01*
X79390476Y-84966666D01*
X79438095Y-85061904D01*
X79152380Y-83633333D02*
X79152380Y-83823809D01*
X79200000Y-83919047D01*
X79247619Y-83966666D01*
X79390476Y-84061904D01*
X79580952Y-84109523D01*
X79961904Y-84109523D01*
X80057142Y-84061904D01*
X80104761Y-84014285D01*
X80152380Y-83919047D01*
X80152380Y-83728571D01*
X80104761Y-83633333D01*
X80057142Y-83585714D01*
X79961904Y-83538095D01*
X79723809Y-83538095D01*
X79628571Y-83585714D01*
X79580952Y-83633333D01*
X79533333Y-83728571D01*
X79533333Y-83919047D01*
X79580952Y-84014285D01*
X79628571Y-84061904D01*
X79723809Y-84109523D01*
%TO.C,R21*%
X58457142Y-61352380D02*
X58123809Y-60876190D01*
X57885714Y-61352380D02*
X57885714Y-60352380D01*
X58266666Y-60352380D01*
X58361904Y-60400000D01*
X58409523Y-60447619D01*
X58457142Y-60542857D01*
X58457142Y-60685714D01*
X58409523Y-60780952D01*
X58361904Y-60828571D01*
X58266666Y-60876190D01*
X57885714Y-60876190D01*
X58838095Y-60447619D02*
X58885714Y-60400000D01*
X58980952Y-60352380D01*
X59219047Y-60352380D01*
X59314285Y-60400000D01*
X59361904Y-60447619D01*
X59409523Y-60542857D01*
X59409523Y-60638095D01*
X59361904Y-60780952D01*
X58790476Y-61352380D01*
X59409523Y-61352380D01*
X60361904Y-61352380D02*
X59790476Y-61352380D01*
X60076190Y-61352380D02*
X60076190Y-60352380D01*
X59980952Y-60495238D01*
X59885714Y-60590476D01*
X59790476Y-60638095D01*
%TO.C,R23*%
X80552380Y-75442857D02*
X80076190Y-75776190D01*
X80552380Y-76014285D02*
X79552380Y-76014285D01*
X79552380Y-75633333D01*
X79600000Y-75538095D01*
X79647619Y-75490476D01*
X79742857Y-75442857D01*
X79885714Y-75442857D01*
X79980952Y-75490476D01*
X80028571Y-75538095D01*
X80076190Y-75633333D01*
X80076190Y-76014285D01*
X79647619Y-75061904D02*
X79600000Y-75014285D01*
X79552380Y-74919047D01*
X79552380Y-74680952D01*
X79600000Y-74585714D01*
X79647619Y-74538095D01*
X79742857Y-74490476D01*
X79838095Y-74490476D01*
X79980952Y-74538095D01*
X80552380Y-75109523D01*
X80552380Y-74490476D01*
X79552380Y-74157142D02*
X79552380Y-73538095D01*
X79933333Y-73871428D01*
X79933333Y-73728571D01*
X79980952Y-73633333D01*
X80028571Y-73585714D01*
X80123809Y-73538095D01*
X80361904Y-73538095D01*
X80457142Y-73585714D01*
X80504761Y-73633333D01*
X80552380Y-73728571D01*
X80552380Y-74014285D01*
X80504761Y-74109523D01*
X80457142Y-74157142D01*
%TO.C,R25*%
X89757142Y-72452380D02*
X89423809Y-71976190D01*
X89185714Y-72452380D02*
X89185714Y-71452380D01*
X89566666Y-71452380D01*
X89661904Y-71500000D01*
X89709523Y-71547619D01*
X89757142Y-71642857D01*
X89757142Y-71785714D01*
X89709523Y-71880952D01*
X89661904Y-71928571D01*
X89566666Y-71976190D01*
X89185714Y-71976190D01*
X90138095Y-71547619D02*
X90185714Y-71500000D01*
X90280952Y-71452380D01*
X90519047Y-71452380D01*
X90614285Y-71500000D01*
X90661904Y-71547619D01*
X90709523Y-71642857D01*
X90709523Y-71738095D01*
X90661904Y-71880952D01*
X90090476Y-72452380D01*
X90709523Y-72452380D01*
X91614285Y-71452380D02*
X91138095Y-71452380D01*
X91090476Y-71928571D01*
X91138095Y-71880952D01*
X91233333Y-71833333D01*
X91471428Y-71833333D01*
X91566666Y-71880952D01*
X91614285Y-71928571D01*
X91661904Y-72023809D01*
X91661904Y-72261904D01*
X91614285Y-72357142D01*
X91566666Y-72404761D01*
X91471428Y-72452380D01*
X91233333Y-72452380D01*
X91138095Y-72404761D01*
X91090476Y-72357142D01*
%TO.C,R27*%
X107557142Y-68752380D02*
X107223809Y-68276190D01*
X106985714Y-68752380D02*
X106985714Y-67752380D01*
X107366666Y-67752380D01*
X107461904Y-67800000D01*
X107509523Y-67847619D01*
X107557142Y-67942857D01*
X107557142Y-68085714D01*
X107509523Y-68180952D01*
X107461904Y-68228571D01*
X107366666Y-68276190D01*
X106985714Y-68276190D01*
X107938095Y-67847619D02*
X107985714Y-67800000D01*
X108080952Y-67752380D01*
X108319047Y-67752380D01*
X108414285Y-67800000D01*
X108461904Y-67847619D01*
X108509523Y-67942857D01*
X108509523Y-68038095D01*
X108461904Y-68180952D01*
X107890476Y-68752380D01*
X108509523Y-68752380D01*
X108842857Y-67752380D02*
X109509523Y-67752380D01*
X109080952Y-68752380D01*
%TO.C,R31*%
X91257142Y-85082380D02*
X90923809Y-84606190D01*
X90685714Y-85082380D02*
X90685714Y-84082380D01*
X91066666Y-84082380D01*
X91161904Y-84130000D01*
X91209523Y-84177619D01*
X91257142Y-84272857D01*
X91257142Y-84415714D01*
X91209523Y-84510952D01*
X91161904Y-84558571D01*
X91066666Y-84606190D01*
X90685714Y-84606190D01*
X91590476Y-84082380D02*
X92209523Y-84082380D01*
X91876190Y-84463333D01*
X92019047Y-84463333D01*
X92114285Y-84510952D01*
X92161904Y-84558571D01*
X92209523Y-84653809D01*
X92209523Y-84891904D01*
X92161904Y-84987142D01*
X92114285Y-85034761D01*
X92019047Y-85082380D01*
X91733333Y-85082380D01*
X91638095Y-85034761D01*
X91590476Y-84987142D01*
X93161904Y-85082380D02*
X92590476Y-85082380D01*
X92876190Y-85082380D02*
X92876190Y-84082380D01*
X92780952Y-84225238D01*
X92685714Y-84320476D01*
X92590476Y-84368095D01*
%TO.C,R32*%
X91357142Y-82382380D02*
X91023809Y-81906190D01*
X90785714Y-82382380D02*
X90785714Y-81382380D01*
X91166666Y-81382380D01*
X91261904Y-81430000D01*
X91309523Y-81477619D01*
X91357142Y-81572857D01*
X91357142Y-81715714D01*
X91309523Y-81810952D01*
X91261904Y-81858571D01*
X91166666Y-81906190D01*
X90785714Y-81906190D01*
X91690476Y-81382380D02*
X92309523Y-81382380D01*
X91976190Y-81763333D01*
X92119047Y-81763333D01*
X92214285Y-81810952D01*
X92261904Y-81858571D01*
X92309523Y-81953809D01*
X92309523Y-82191904D01*
X92261904Y-82287142D01*
X92214285Y-82334761D01*
X92119047Y-82382380D01*
X91833333Y-82382380D01*
X91738095Y-82334761D01*
X91690476Y-82287142D01*
X92690476Y-81477619D02*
X92738095Y-81430000D01*
X92833333Y-81382380D01*
X93071428Y-81382380D01*
X93166666Y-81430000D01*
X93214285Y-81477619D01*
X93261904Y-81572857D01*
X93261904Y-81668095D01*
X93214285Y-81810952D01*
X92642857Y-82382380D01*
X93261904Y-82382380D01*
%TO.C,SW1*%
X110766666Y-66404761D02*
X110909523Y-66452380D01*
X111147619Y-66452380D01*
X111242857Y-66404761D01*
X111290476Y-66357142D01*
X111338095Y-66261904D01*
X111338095Y-66166666D01*
X111290476Y-66071428D01*
X111242857Y-66023809D01*
X111147619Y-65976190D01*
X110957142Y-65928571D01*
X110861904Y-65880952D01*
X110814285Y-65833333D01*
X110766666Y-65738095D01*
X110766666Y-65642857D01*
X110814285Y-65547619D01*
X110861904Y-65500000D01*
X110957142Y-65452380D01*
X111195238Y-65452380D01*
X111338095Y-65500000D01*
X111671428Y-65452380D02*
X111909523Y-66452380D01*
X112100000Y-65738095D01*
X112290476Y-66452380D01*
X112528571Y-65452380D01*
X113433333Y-66452380D02*
X112861904Y-66452380D01*
X113147619Y-66452380D02*
X113147619Y-65452380D01*
X113052380Y-65595238D01*
X112957142Y-65690476D01*
X112861904Y-65738095D01*
%TO.C,SW2*%
X91166666Y-90604761D02*
X91309523Y-90652380D01*
X91547619Y-90652380D01*
X91642857Y-90604761D01*
X91690476Y-90557142D01*
X91738095Y-90461904D01*
X91738095Y-90366666D01*
X91690476Y-90271428D01*
X91642857Y-90223809D01*
X91547619Y-90176190D01*
X91357142Y-90128571D01*
X91261904Y-90080952D01*
X91214285Y-90033333D01*
X91166666Y-89938095D01*
X91166666Y-89842857D01*
X91214285Y-89747619D01*
X91261904Y-89700000D01*
X91357142Y-89652380D01*
X91595238Y-89652380D01*
X91738095Y-89700000D01*
X92071428Y-89652380D02*
X92309523Y-90652380D01*
X92500000Y-89938095D01*
X92690476Y-90652380D01*
X92928571Y-89652380D01*
X93261904Y-89747619D02*
X93309523Y-89700000D01*
X93404761Y-89652380D01*
X93642857Y-89652380D01*
X93738095Y-89700000D01*
X93785714Y-89747619D01*
X93833333Y-89842857D01*
X93833333Y-89938095D01*
X93785714Y-90080952D01*
X93214285Y-90652380D01*
X93833333Y-90652380D01*
%TO.C,SW3*%
X74666666Y-101204761D02*
X74809523Y-101252380D01*
X75047619Y-101252380D01*
X75142857Y-101204761D01*
X75190476Y-101157142D01*
X75238095Y-101061904D01*
X75238095Y-100966666D01*
X75190476Y-100871428D01*
X75142857Y-100823809D01*
X75047619Y-100776190D01*
X74857142Y-100728571D01*
X74761904Y-100680952D01*
X74714285Y-100633333D01*
X74666666Y-100538095D01*
X74666666Y-100442857D01*
X74714285Y-100347619D01*
X74761904Y-100300000D01*
X74857142Y-100252380D01*
X75095238Y-100252380D01*
X75238095Y-100300000D01*
X75571428Y-100252380D02*
X75809523Y-101252380D01*
X76000000Y-100538095D01*
X76190476Y-101252380D01*
X76428571Y-100252380D01*
X76714285Y-100252380D02*
X77333333Y-100252380D01*
X77000000Y-100633333D01*
X77142857Y-100633333D01*
X77238095Y-100680952D01*
X77285714Y-100728571D01*
X77333333Y-100823809D01*
X77333333Y-101061904D01*
X77285714Y-101157142D01*
X77238095Y-101204761D01*
X77142857Y-101252380D01*
X76857142Y-101252380D01*
X76761904Y-101204761D01*
X76714285Y-101157142D01*
%TO.C,U2*%
X90738095Y-58952380D02*
X90738095Y-59761904D01*
X90785714Y-59857142D01*
X90833333Y-59904761D01*
X90928571Y-59952380D01*
X91119047Y-59952380D01*
X91214285Y-59904761D01*
X91261904Y-59857142D01*
X91309523Y-59761904D01*
X91309523Y-58952380D01*
X91738095Y-59047619D02*
X91785714Y-59000000D01*
X91880952Y-58952380D01*
X92119047Y-58952380D01*
X92214285Y-59000000D01*
X92261904Y-59047619D01*
X92309523Y-59142857D01*
X92309523Y-59238095D01*
X92261904Y-59380952D01*
X91690476Y-59952380D01*
X92309523Y-59952380D01*
%TO.C,U7*%
X78438095Y-68652380D02*
X78438095Y-69461904D01*
X78485714Y-69557142D01*
X78533333Y-69604761D01*
X78628571Y-69652380D01*
X78819047Y-69652380D01*
X78914285Y-69604761D01*
X78961904Y-69557142D01*
X79009523Y-69461904D01*
X79009523Y-68652380D01*
X79390476Y-68652380D02*
X80057142Y-68652380D01*
X79628571Y-69652380D01*
%TO.C,U8*%
X100038095Y-79152380D02*
X100038095Y-79961904D01*
X100085714Y-80057142D01*
X100133333Y-80104761D01*
X100228571Y-80152380D01*
X100419047Y-80152380D01*
X100514285Y-80104761D01*
X100561904Y-80057142D01*
X100609523Y-79961904D01*
X100609523Y-79152380D01*
X101228571Y-79580952D02*
X101133333Y-79533333D01*
X101085714Y-79485714D01*
X101038095Y-79390476D01*
X101038095Y-79342857D01*
X101085714Y-79247619D01*
X101133333Y-79200000D01*
X101228571Y-79152380D01*
X101419047Y-79152380D01*
X101514285Y-79200000D01*
X101561904Y-79247619D01*
X101609523Y-79342857D01*
X101609523Y-79390476D01*
X101561904Y-79485714D01*
X101514285Y-79533333D01*
X101419047Y-79580952D01*
X101228571Y-79580952D01*
X101133333Y-79628571D01*
X101085714Y-79676190D01*
X101038095Y-79771428D01*
X101038095Y-79961904D01*
X101085714Y-80057142D01*
X101133333Y-80104761D01*
X101228571Y-80152380D01*
X101419047Y-80152380D01*
X101514285Y-80104761D01*
X101561904Y-80057142D01*
X101609523Y-79961904D01*
X101609523Y-79771428D01*
X101561904Y-79676190D01*
X101514285Y-79628571D01*
X101419047Y-79580952D01*
%TO.C,J15*%
X75290476Y-60252380D02*
X75290476Y-60966666D01*
X75242857Y-61109523D01*
X75147619Y-61204761D01*
X75004761Y-61252380D01*
X74909523Y-61252380D01*
X76290476Y-61252380D02*
X75719047Y-61252380D01*
X76004761Y-61252380D02*
X76004761Y-60252380D01*
X75909523Y-60395238D01*
X75814285Y-60490476D01*
X75719047Y-60538095D01*
X77195238Y-60252380D02*
X76719047Y-60252380D01*
X76671428Y-60728571D01*
X76719047Y-60680952D01*
X76814285Y-60633333D01*
X77052380Y-60633333D01*
X77147619Y-60680952D01*
X77195238Y-60728571D01*
X77242857Y-60823809D01*
X77242857Y-61061904D01*
X77195238Y-61157142D01*
X77147619Y-61204761D01*
X77052380Y-61252380D01*
X76814285Y-61252380D01*
X76719047Y-61204761D01*
X76671428Y-61157142D01*
%TO.C,J16*%
X109490476Y-60452380D02*
X109490476Y-61166666D01*
X109442857Y-61309523D01*
X109347619Y-61404761D01*
X109204761Y-61452380D01*
X109109523Y-61452380D01*
X110490476Y-61452380D02*
X109919047Y-61452380D01*
X110204761Y-61452380D02*
X110204761Y-60452380D01*
X110109523Y-60595238D01*
X110014285Y-60690476D01*
X109919047Y-60738095D01*
X111347619Y-60452380D02*
X111157142Y-60452380D01*
X111061904Y-60500000D01*
X111014285Y-60547619D01*
X110919047Y-60690476D01*
X110871428Y-60880952D01*
X110871428Y-61261904D01*
X110919047Y-61357142D01*
X110966666Y-61404761D01*
X111061904Y-61452380D01*
X111252380Y-61452380D01*
X111347619Y-61404761D01*
X111395238Y-61357142D01*
X111442857Y-61261904D01*
X111442857Y-61023809D01*
X111395238Y-60928571D01*
X111347619Y-60880952D01*
X111252380Y-60833333D01*
X111061904Y-60833333D01*
X110966666Y-60880952D01*
X110919047Y-60928571D01*
X110871428Y-61023809D01*
%TD*%
M02*
