%TF.GenerationSoftware,KiCad,Pcbnew,(5.1.6)-1*%
%TF.CreationDate,2020-09-30T10:21:45+09:00*%
%TF.ProjectId,schematic,73636865-6d61-4746-9963-2e6b69636164,rev?*%
%TF.SameCoordinates,Original*%
%TF.FileFunction,Soldermask,Bot*%
%TF.FilePolarity,Negative*%
%FSLAX46Y46*%
G04 Gerber Fmt 4.6, Leading zero omitted, Abs format (unit mm)*
G04 Created by KiCad (PCBNEW (5.1.6)-1) date 2020-09-30 10:21:45*
%MOMM*%
%LPD*%
G01*
G04 APERTURE LIST*
%ADD10O,1.200000X1.750000*%
%ADD11R,1.100000X1.100000*%
%ADD12C,1.500000*%
%ADD13R,1.700000X1.700000*%
%ADD14O,1.700000X1.700000*%
%ADD15O,1.800000X1.100000*%
%ADD16O,2.200000X1.100000*%
%ADD17R,0.800000X0.900000*%
%ADD18R,0.900000X0.800000*%
%ADD19R,1.500000X0.250000*%
%ADD20R,0.840000X3.000000*%
%ADD21O,0.840000X3.000000*%
%ADD22C,0.100000*%
%ADD23R,0.650000X1.060000*%
%ADD24R,0.250000X1.500000*%
%ADD25R,3.000000X0.840000*%
%ADD26O,3.000000X0.840000*%
%ADD27R,1.200000X0.400000*%
%ADD28C,2.500000*%
%ADD29R,0.800000X0.300000*%
G04 APERTURE END LIST*
%TO.C,BT1*%
G36*
G01*
X70600000Y-89374999D02*
X70600000Y-90625001D01*
G75*
G02*
X70350001Y-90875000I-249999J0D01*
G01*
X69649999Y-90875000D01*
G75*
G02*
X69400000Y-90625001I0J249999D01*
G01*
X69400000Y-89374999D01*
G75*
G02*
X69649999Y-89125000I249999J0D01*
G01*
X70350001Y-89125000D01*
G75*
G02*
X70600000Y-89374999I0J-249999D01*
G01*
G37*
D10*
X68000000Y-90000000D03*
%TD*%
%TO.C,C1*%
G36*
G01*
X76737500Y-60150000D02*
X76262500Y-60150000D01*
G75*
G02*
X76025000Y-59912500I0J237500D01*
G01*
X76025000Y-59337500D01*
G75*
G02*
X76262500Y-59100000I237500J0D01*
G01*
X76737500Y-59100000D01*
G75*
G02*
X76975000Y-59337500I0J-237500D01*
G01*
X76975000Y-59912500D01*
G75*
G02*
X76737500Y-60150000I-237500J0D01*
G01*
G37*
G36*
G01*
X76737500Y-61900000D02*
X76262500Y-61900000D01*
G75*
G02*
X76025000Y-61662500I0J237500D01*
G01*
X76025000Y-61087500D01*
G75*
G02*
X76262500Y-60850000I237500J0D01*
G01*
X76737500Y-60850000D01*
G75*
G02*
X76975000Y-61087500I0J-237500D01*
G01*
X76975000Y-61662500D01*
G75*
G02*
X76737500Y-61900000I-237500J0D01*
G01*
G37*
%TD*%
%TO.C,C2*%
G36*
G01*
X81500000Y-62462500D02*
X81500000Y-62937500D01*
G75*
G02*
X81262500Y-63175000I-237500J0D01*
G01*
X80687500Y-63175000D01*
G75*
G02*
X80450000Y-62937500I0J237500D01*
G01*
X80450000Y-62462500D01*
G75*
G02*
X80687500Y-62225000I237500J0D01*
G01*
X81262500Y-62225000D01*
G75*
G02*
X81500000Y-62462500I0J-237500D01*
G01*
G37*
G36*
G01*
X79750000Y-62462500D02*
X79750000Y-62937500D01*
G75*
G02*
X79512500Y-63175000I-237500J0D01*
G01*
X78937500Y-63175000D01*
G75*
G02*
X78700000Y-62937500I0J237500D01*
G01*
X78700000Y-62462500D01*
G75*
G02*
X78937500Y-62225000I237500J0D01*
G01*
X79512500Y-62225000D01*
G75*
G02*
X79750000Y-62462500I0J-237500D01*
G01*
G37*
%TD*%
%TO.C,C7*%
G36*
G01*
X77300000Y-67437500D02*
X77300000Y-66962500D01*
G75*
G02*
X77537500Y-66725000I237500J0D01*
G01*
X78112500Y-66725000D01*
G75*
G02*
X78350000Y-66962500I0J-237500D01*
G01*
X78350000Y-67437500D01*
G75*
G02*
X78112500Y-67675000I-237500J0D01*
G01*
X77537500Y-67675000D01*
G75*
G02*
X77300000Y-67437500I0J237500D01*
G01*
G37*
G36*
G01*
X79050000Y-67437500D02*
X79050000Y-66962500D01*
G75*
G02*
X79287500Y-66725000I237500J0D01*
G01*
X79862500Y-66725000D01*
G75*
G02*
X80100000Y-66962500I0J-237500D01*
G01*
X80100000Y-67437500D01*
G75*
G02*
X79862500Y-67675000I-237500J0D01*
G01*
X79287500Y-67675000D01*
G75*
G02*
X79050000Y-67437500I0J237500D01*
G01*
G37*
%TD*%
%TO.C,C9*%
G36*
G01*
X73190000Y-94660000D02*
X73190000Y-94340000D01*
G75*
G02*
X73350000Y-94180000I160000J0D01*
G01*
X74030000Y-94180000D01*
G75*
G02*
X74190000Y-94340000I0J-160000D01*
G01*
X74190000Y-94660000D01*
G75*
G02*
X74030000Y-94820000I-160000J0D01*
G01*
X73350000Y-94820000D01*
G75*
G02*
X73190000Y-94660000I0J160000D01*
G01*
G37*
G36*
G01*
X71810000Y-94660000D02*
X71810000Y-94340000D01*
G75*
G02*
X71970000Y-94180000I160000J0D01*
G01*
X72650000Y-94180000D01*
G75*
G02*
X72810000Y-94340000I0J-160000D01*
G01*
X72810000Y-94660000D01*
G75*
G02*
X72650000Y-94820000I-160000J0D01*
G01*
X71970000Y-94820000D01*
G75*
G02*
X71810000Y-94660000I0J160000D01*
G01*
G37*
%TD*%
%TO.C,C10*%
G36*
G01*
X106190000Y-84140000D02*
X106190000Y-84460000D01*
G75*
G02*
X106030000Y-84620000I-160000J0D01*
G01*
X105350000Y-84620000D01*
G75*
G02*
X105190000Y-84460000I0J160000D01*
G01*
X105190000Y-84140000D01*
G75*
G02*
X105350000Y-83980000I160000J0D01*
G01*
X106030000Y-83980000D01*
G75*
G02*
X106190000Y-84140000I0J-160000D01*
G01*
G37*
G36*
G01*
X104810000Y-84140000D02*
X104810000Y-84460000D01*
G75*
G02*
X104650000Y-84620000I-160000J0D01*
G01*
X103970000Y-84620000D01*
G75*
G02*
X103810000Y-84460000I0J160000D01*
G01*
X103810000Y-84140000D01*
G75*
G02*
X103970000Y-83980000I160000J0D01*
G01*
X104650000Y-83980000D01*
G75*
G02*
X104810000Y-84140000I0J-160000D01*
G01*
G37*
%TD*%
%TO.C,C12*%
G36*
G01*
X118125000Y-98737500D02*
X118125000Y-98262500D01*
G75*
G02*
X118362500Y-98025000I237500J0D01*
G01*
X118937500Y-98025000D01*
G75*
G02*
X119175000Y-98262500I0J-237500D01*
G01*
X119175000Y-98737500D01*
G75*
G02*
X118937500Y-98975000I-237500J0D01*
G01*
X118362500Y-98975000D01*
G75*
G02*
X118125000Y-98737500I0J237500D01*
G01*
G37*
G36*
G01*
X116375000Y-98737500D02*
X116375000Y-98262500D01*
G75*
G02*
X116612500Y-98025000I237500J0D01*
G01*
X117187500Y-98025000D01*
G75*
G02*
X117425000Y-98262500I0J-237500D01*
G01*
X117425000Y-98737500D01*
G75*
G02*
X117187500Y-98975000I-237500J0D01*
G01*
X116612500Y-98975000D01*
G75*
G02*
X116375000Y-98737500I0J237500D01*
G01*
G37*
%TD*%
%TO.C,C13*%
G36*
G01*
X106190000Y-83040000D02*
X106190000Y-83360000D01*
G75*
G02*
X106030000Y-83520000I-160000J0D01*
G01*
X105350000Y-83520000D01*
G75*
G02*
X105190000Y-83360000I0J160000D01*
G01*
X105190000Y-83040000D01*
G75*
G02*
X105350000Y-82880000I160000J0D01*
G01*
X106030000Y-82880000D01*
G75*
G02*
X106190000Y-83040000I0J-160000D01*
G01*
G37*
G36*
G01*
X104810000Y-83040000D02*
X104810000Y-83360000D01*
G75*
G02*
X104650000Y-83520000I-160000J0D01*
G01*
X103970000Y-83520000D01*
G75*
G02*
X103810000Y-83360000I0J160000D01*
G01*
X103810000Y-83040000D01*
G75*
G02*
X103970000Y-82880000I160000J0D01*
G01*
X104650000Y-82880000D01*
G75*
G02*
X104810000Y-83040000I0J-160000D01*
G01*
G37*
%TD*%
%TO.C,C14*%
G36*
G01*
X95040000Y-91710000D02*
X95360000Y-91710000D01*
G75*
G02*
X95520000Y-91870000I0J-160000D01*
G01*
X95520000Y-92550000D01*
G75*
G02*
X95360000Y-92710000I-160000J0D01*
G01*
X95040000Y-92710000D01*
G75*
G02*
X94880000Y-92550000I0J160000D01*
G01*
X94880000Y-91870000D01*
G75*
G02*
X95040000Y-91710000I160000J0D01*
G01*
G37*
G36*
G01*
X95040000Y-93090000D02*
X95360000Y-93090000D01*
G75*
G02*
X95520000Y-93250000I0J-160000D01*
G01*
X95520000Y-93930000D01*
G75*
G02*
X95360000Y-94090000I-160000J0D01*
G01*
X95040000Y-94090000D01*
G75*
G02*
X94880000Y-93930000I0J160000D01*
G01*
X94880000Y-93250000D01*
G75*
G02*
X95040000Y-93090000I160000J0D01*
G01*
G37*
%TD*%
%TO.C,C15*%
G36*
G01*
X65110000Y-98310000D02*
X64790000Y-98310000D01*
G75*
G02*
X64630000Y-98150000I0J160000D01*
G01*
X64630000Y-97470000D01*
G75*
G02*
X64790000Y-97310000I160000J0D01*
G01*
X65110000Y-97310000D01*
G75*
G02*
X65270000Y-97470000I0J-160000D01*
G01*
X65270000Y-98150000D01*
G75*
G02*
X65110000Y-98310000I-160000J0D01*
G01*
G37*
G36*
G01*
X65110000Y-99690000D02*
X64790000Y-99690000D01*
G75*
G02*
X64630000Y-99530000I0J160000D01*
G01*
X64630000Y-98850000D01*
G75*
G02*
X64790000Y-98690000I160000J0D01*
G01*
X65110000Y-98690000D01*
G75*
G02*
X65270000Y-98850000I0J-160000D01*
G01*
X65270000Y-99530000D01*
G75*
G02*
X65110000Y-99690000I-160000J0D01*
G01*
G37*
%TD*%
%TO.C,C16*%
G36*
G01*
X111800000Y-96762500D02*
X111800000Y-97237500D01*
G75*
G02*
X111562500Y-97475000I-237500J0D01*
G01*
X110987500Y-97475000D01*
G75*
G02*
X110750000Y-97237500I0J237500D01*
G01*
X110750000Y-96762500D01*
G75*
G02*
X110987500Y-96525000I237500J0D01*
G01*
X111562500Y-96525000D01*
G75*
G02*
X111800000Y-96762500I0J-237500D01*
G01*
G37*
G36*
G01*
X110050000Y-96762500D02*
X110050000Y-97237500D01*
G75*
G02*
X109812500Y-97475000I-237500J0D01*
G01*
X109237500Y-97475000D01*
G75*
G02*
X109000000Y-97237500I0J237500D01*
G01*
X109000000Y-96762500D01*
G75*
G02*
X109237500Y-96525000I237500J0D01*
G01*
X109812500Y-96525000D01*
G75*
G02*
X110050000Y-96762500I0J-237500D01*
G01*
G37*
%TD*%
%TO.C,C17*%
G36*
G01*
X90350000Y-67562500D02*
X90350000Y-68037500D01*
G75*
G02*
X90112500Y-68275000I-237500J0D01*
G01*
X89537500Y-68275000D01*
G75*
G02*
X89300000Y-68037500I0J237500D01*
G01*
X89300000Y-67562500D01*
G75*
G02*
X89537500Y-67325000I237500J0D01*
G01*
X90112500Y-67325000D01*
G75*
G02*
X90350000Y-67562500I0J-237500D01*
G01*
G37*
G36*
G01*
X92100000Y-67562500D02*
X92100000Y-68037500D01*
G75*
G02*
X91862500Y-68275000I-237500J0D01*
G01*
X91287500Y-68275000D01*
G75*
G02*
X91050000Y-68037500I0J237500D01*
G01*
X91050000Y-67562500D01*
G75*
G02*
X91287500Y-67325000I237500J0D01*
G01*
X91862500Y-67325000D01*
G75*
G02*
X92100000Y-67562500I0J-237500D01*
G01*
G37*
%TD*%
%TO.C,C18*%
G36*
G01*
X67220000Y-70260000D02*
X67220000Y-70580000D01*
G75*
G02*
X67060000Y-70740000I-160000J0D01*
G01*
X66380000Y-70740000D01*
G75*
G02*
X66220000Y-70580000I0J160000D01*
G01*
X66220000Y-70260000D01*
G75*
G02*
X66380000Y-70100000I160000J0D01*
G01*
X67060000Y-70100000D01*
G75*
G02*
X67220000Y-70260000I0J-160000D01*
G01*
G37*
G36*
G01*
X68600000Y-70260000D02*
X68600000Y-70580000D01*
G75*
G02*
X68440000Y-70740000I-160000J0D01*
G01*
X67760000Y-70740000D01*
G75*
G02*
X67600000Y-70580000I0J160000D01*
G01*
X67600000Y-70260000D01*
G75*
G02*
X67760000Y-70100000I160000J0D01*
G01*
X68440000Y-70100000D01*
G75*
G02*
X68600000Y-70260000I0J-160000D01*
G01*
G37*
%TD*%
%TO.C,C19*%
G36*
G01*
X96337500Y-64700000D02*
X95862500Y-64700000D01*
G75*
G02*
X95625000Y-64462500I0J237500D01*
G01*
X95625000Y-63887500D01*
G75*
G02*
X95862500Y-63650000I237500J0D01*
G01*
X96337500Y-63650000D01*
G75*
G02*
X96575000Y-63887500I0J-237500D01*
G01*
X96575000Y-64462500D01*
G75*
G02*
X96337500Y-64700000I-237500J0D01*
G01*
G37*
G36*
G01*
X96337500Y-62950000D02*
X95862500Y-62950000D01*
G75*
G02*
X95625000Y-62712500I0J237500D01*
G01*
X95625000Y-62137500D01*
G75*
G02*
X95862500Y-61900000I237500J0D01*
G01*
X96337500Y-61900000D01*
G75*
G02*
X96575000Y-62137500I0J-237500D01*
G01*
X96575000Y-62712500D01*
G75*
G02*
X96337500Y-62950000I-237500J0D01*
G01*
G37*
%TD*%
%TO.C,C20*%
G36*
G01*
X76737500Y-79750000D02*
X76262500Y-79750000D01*
G75*
G02*
X76025000Y-79512500I0J237500D01*
G01*
X76025000Y-78937500D01*
G75*
G02*
X76262500Y-78700000I237500J0D01*
G01*
X76737500Y-78700000D01*
G75*
G02*
X76975000Y-78937500I0J-237500D01*
G01*
X76975000Y-79512500D01*
G75*
G02*
X76737500Y-79750000I-237500J0D01*
G01*
G37*
G36*
G01*
X76737500Y-81500000D02*
X76262500Y-81500000D01*
G75*
G02*
X76025000Y-81262500I0J237500D01*
G01*
X76025000Y-80687500D01*
G75*
G02*
X76262500Y-80450000I237500J0D01*
G01*
X76737500Y-80450000D01*
G75*
G02*
X76975000Y-80687500I0J-237500D01*
G01*
X76975000Y-81262500D01*
G75*
G02*
X76737500Y-81500000I-237500J0D01*
G01*
G37*
%TD*%
%TO.C,C21*%
G36*
G01*
X70190000Y-66540000D02*
X70510000Y-66540000D01*
G75*
G02*
X70670000Y-66700000I0J-160000D01*
G01*
X70670000Y-67380000D01*
G75*
G02*
X70510000Y-67540000I-160000J0D01*
G01*
X70190000Y-67540000D01*
G75*
G02*
X70030000Y-67380000I0J160000D01*
G01*
X70030000Y-66700000D01*
G75*
G02*
X70190000Y-66540000I160000J0D01*
G01*
G37*
G36*
G01*
X70190000Y-65160000D02*
X70510000Y-65160000D01*
G75*
G02*
X70670000Y-65320000I0J-160000D01*
G01*
X70670000Y-66000000D01*
G75*
G02*
X70510000Y-66160000I-160000J0D01*
G01*
X70190000Y-66160000D01*
G75*
G02*
X70030000Y-66000000I0J160000D01*
G01*
X70030000Y-65320000D01*
G75*
G02*
X70190000Y-65160000I160000J0D01*
G01*
G37*
%TD*%
%TO.C,C26*%
G36*
G01*
X111550000Y-71962500D02*
X111550000Y-72437500D01*
G75*
G02*
X111312500Y-72675000I-237500J0D01*
G01*
X110737500Y-72675000D01*
G75*
G02*
X110500000Y-72437500I0J237500D01*
G01*
X110500000Y-71962500D01*
G75*
G02*
X110737500Y-71725000I237500J0D01*
G01*
X111312500Y-71725000D01*
G75*
G02*
X111550000Y-71962500I0J-237500D01*
G01*
G37*
G36*
G01*
X113300000Y-71962500D02*
X113300000Y-72437500D01*
G75*
G02*
X113062500Y-72675000I-237500J0D01*
G01*
X112487500Y-72675000D01*
G75*
G02*
X112250000Y-72437500I0J237500D01*
G01*
X112250000Y-71962500D01*
G75*
G02*
X112487500Y-71725000I237500J0D01*
G01*
X113062500Y-71725000D01*
G75*
G02*
X113300000Y-71962500I0J-237500D01*
G01*
G37*
%TD*%
D11*
%TO.C,D2*%
X64150000Y-94100000D03*
X61350000Y-94100000D03*
%TD*%
D12*
%TO.C,IC1*%
X60700000Y-65900000D03*
%TD*%
D13*
%TO.C,J1*%
X79000000Y-60100000D03*
D14*
X81540000Y-60100000D03*
X84080000Y-60100000D03*
%TD*%
D15*
%TO.C,J2*%
X57300000Y-98025000D03*
X62900000Y-98025000D03*
D16*
X60100000Y-100175000D03*
%TD*%
D13*
%TO.C,J3*%
X72540000Y-99500000D03*
D14*
X70000000Y-99500000D03*
X67460000Y-99500000D03*
%TD*%
D13*
%TO.C,J4*%
X97640000Y-99500000D03*
D14*
X95100000Y-99500000D03*
X92560000Y-99500000D03*
X90020000Y-99500000D03*
%TD*%
D13*
%TO.C,J5*%
X74000000Y-72000000D03*
D14*
X71460000Y-72000000D03*
X68920000Y-72000000D03*
X66380000Y-72000000D03*
%TD*%
%TO.C,J6*%
X108180000Y-93400000D03*
X105640000Y-93400000D03*
X103100000Y-93400000D03*
X100560000Y-93400000D03*
D13*
X98020000Y-93400000D03*
%TD*%
%TO.C,J7*%
X82400000Y-85080000D03*
D14*
X82400000Y-82540000D03*
X82400000Y-80000000D03*
X82400000Y-77460000D03*
X82400000Y-74920000D03*
%TD*%
%TO.C,J8*%
X101360000Y-99500000D03*
X103900000Y-99500000D03*
D13*
X106440000Y-99500000D03*
%TD*%
%TO.C,J9*%
X90000000Y-65000000D03*
%TD*%
%TO.C,J10*%
X56000000Y-65000000D03*
%TD*%
%TO.C,J11*%
X56000000Y-95000000D03*
%TD*%
%TO.C,J12*%
X84000000Y-95000000D03*
%TD*%
%TO.C,J13*%
X118000000Y-95000000D03*
%TD*%
%TO.C,J14*%
X90000000Y-95000000D03*
%TD*%
%TO.C,J17*%
X118000000Y-65000000D03*
%TD*%
%TO.C,J18*%
X84000000Y-65000000D03*
%TD*%
%TO.C,J19*%
X105500000Y-67800000D03*
D14*
X102960000Y-67800000D03*
%TD*%
D13*
%TO.C,M1*%
X65900000Y-68300000D03*
D14*
X68440000Y-68300000D03*
%TD*%
D17*
%TO.C,Q2*%
X104000000Y-73000000D03*
X103050000Y-75000000D03*
X104950000Y-75000000D03*
%TD*%
D18*
%TO.C,Q3*%
X99200000Y-74150000D03*
X99200000Y-76050000D03*
X97200000Y-75100000D03*
%TD*%
%TO.C,Q8*%
X111100000Y-69150000D03*
X111100000Y-67250000D03*
X113100000Y-68200000D03*
%TD*%
%TO.C,R2*%
G36*
G01*
X75190000Y-89760000D02*
X75190000Y-89440000D01*
G75*
G02*
X75350000Y-89280000I160000J0D01*
G01*
X76030000Y-89280000D01*
G75*
G02*
X76190000Y-89440000I0J-160000D01*
G01*
X76190000Y-89760000D01*
G75*
G02*
X76030000Y-89920000I-160000J0D01*
G01*
X75350000Y-89920000D01*
G75*
G02*
X75190000Y-89760000I0J160000D01*
G01*
G37*
G36*
G01*
X73810000Y-89760000D02*
X73810000Y-89440000D01*
G75*
G02*
X73970000Y-89280000I160000J0D01*
G01*
X74650000Y-89280000D01*
G75*
G02*
X74810000Y-89440000I0J-160000D01*
G01*
X74810000Y-89760000D01*
G75*
G02*
X74650000Y-89920000I-160000J0D01*
G01*
X73970000Y-89920000D01*
G75*
G02*
X73810000Y-89760000I0J160000D01*
G01*
G37*
%TD*%
%TO.C,R3*%
G36*
G01*
X65610000Y-96560000D02*
X65610000Y-96240000D01*
G75*
G02*
X65770000Y-96080000I160000J0D01*
G01*
X66450000Y-96080000D01*
G75*
G02*
X66610000Y-96240000I0J-160000D01*
G01*
X66610000Y-96560000D01*
G75*
G02*
X66450000Y-96720000I-160000J0D01*
G01*
X65770000Y-96720000D01*
G75*
G02*
X65610000Y-96560000I0J160000D01*
G01*
G37*
G36*
G01*
X66990000Y-96560000D02*
X66990000Y-96240000D01*
G75*
G02*
X67150000Y-96080000I160000J0D01*
G01*
X67830000Y-96080000D01*
G75*
G02*
X67990000Y-96240000I0J-160000D01*
G01*
X67990000Y-96560000D01*
G75*
G02*
X67830000Y-96720000I-160000J0D01*
G01*
X67150000Y-96720000D01*
G75*
G02*
X66990000Y-96560000I0J160000D01*
G01*
G37*
%TD*%
%TO.C,R4*%
G36*
G01*
X66610000Y-97340000D02*
X66610000Y-97660000D01*
G75*
G02*
X66450000Y-97820000I-160000J0D01*
G01*
X65770000Y-97820000D01*
G75*
G02*
X65610000Y-97660000I0J160000D01*
G01*
X65610000Y-97340000D01*
G75*
G02*
X65770000Y-97180000I160000J0D01*
G01*
X66450000Y-97180000D01*
G75*
G02*
X66610000Y-97340000I0J-160000D01*
G01*
G37*
G36*
G01*
X67990000Y-97340000D02*
X67990000Y-97660000D01*
G75*
G02*
X67830000Y-97820000I-160000J0D01*
G01*
X67150000Y-97820000D01*
G75*
G02*
X66990000Y-97660000I0J160000D01*
G01*
X66990000Y-97340000D01*
G75*
G02*
X67150000Y-97180000I160000J0D01*
G01*
X67830000Y-97180000D01*
G75*
G02*
X67990000Y-97340000I0J-160000D01*
G01*
G37*
%TD*%
%TO.C,R5*%
G36*
G01*
X102890000Y-77440000D02*
X102890000Y-77760000D01*
G75*
G02*
X102730000Y-77920000I-160000J0D01*
G01*
X102050000Y-77920000D01*
G75*
G02*
X101890000Y-77760000I0J160000D01*
G01*
X101890000Y-77440000D01*
G75*
G02*
X102050000Y-77280000I160000J0D01*
G01*
X102730000Y-77280000D01*
G75*
G02*
X102890000Y-77440000I0J-160000D01*
G01*
G37*
G36*
G01*
X101510000Y-77440000D02*
X101510000Y-77760000D01*
G75*
G02*
X101350000Y-77920000I-160000J0D01*
G01*
X100670000Y-77920000D01*
G75*
G02*
X100510000Y-77760000I0J160000D01*
G01*
X100510000Y-77440000D01*
G75*
G02*
X100670000Y-77280000I160000J0D01*
G01*
X101350000Y-77280000D01*
G75*
G02*
X101510000Y-77440000I0J-160000D01*
G01*
G37*
%TD*%
%TO.C,R6*%
G36*
G01*
X101790000Y-76560000D02*
X101790000Y-76240000D01*
G75*
G02*
X101950000Y-76080000I160000J0D01*
G01*
X102630000Y-76080000D01*
G75*
G02*
X102790000Y-76240000I0J-160000D01*
G01*
X102790000Y-76560000D01*
G75*
G02*
X102630000Y-76720000I-160000J0D01*
G01*
X101950000Y-76720000D01*
G75*
G02*
X101790000Y-76560000I0J160000D01*
G01*
G37*
G36*
G01*
X100410000Y-76560000D02*
X100410000Y-76240000D01*
G75*
G02*
X100570000Y-76080000I160000J0D01*
G01*
X101250000Y-76080000D01*
G75*
G02*
X101410000Y-76240000I0J-160000D01*
G01*
X101410000Y-76560000D01*
G75*
G02*
X101250000Y-76720000I-160000J0D01*
G01*
X100570000Y-76720000D01*
G75*
G02*
X100410000Y-76560000I0J160000D01*
G01*
G37*
%TD*%
%TO.C,R7*%
G36*
G01*
X109540000Y-68490000D02*
X109860000Y-68490000D01*
G75*
G02*
X110020000Y-68650000I0J-160000D01*
G01*
X110020000Y-69330000D01*
G75*
G02*
X109860000Y-69490000I-160000J0D01*
G01*
X109540000Y-69490000D01*
G75*
G02*
X109380000Y-69330000I0J160000D01*
G01*
X109380000Y-68650000D01*
G75*
G02*
X109540000Y-68490000I160000J0D01*
G01*
G37*
G36*
G01*
X109540000Y-67110000D02*
X109860000Y-67110000D01*
G75*
G02*
X110020000Y-67270000I0J-160000D01*
G01*
X110020000Y-67950000D01*
G75*
G02*
X109860000Y-68110000I-160000J0D01*
G01*
X109540000Y-68110000D01*
G75*
G02*
X109380000Y-67950000I0J160000D01*
G01*
X109380000Y-67270000D01*
G75*
G02*
X109540000Y-67110000I160000J0D01*
G01*
G37*
%TD*%
%TO.C,R8*%
G36*
G01*
X110060000Y-66290000D02*
X109740000Y-66290000D01*
G75*
G02*
X109580000Y-66130000I0J160000D01*
G01*
X109580000Y-65450000D01*
G75*
G02*
X109740000Y-65290000I160000J0D01*
G01*
X110060000Y-65290000D01*
G75*
G02*
X110220000Y-65450000I0J-160000D01*
G01*
X110220000Y-66130000D01*
G75*
G02*
X110060000Y-66290000I-160000J0D01*
G01*
G37*
G36*
G01*
X110060000Y-64910000D02*
X109740000Y-64910000D01*
G75*
G02*
X109580000Y-64750000I0J160000D01*
G01*
X109580000Y-64070000D01*
G75*
G02*
X109740000Y-63910000I160000J0D01*
G01*
X110060000Y-63910000D01*
G75*
G02*
X110220000Y-64070000I0J-160000D01*
G01*
X110220000Y-64750000D01*
G75*
G02*
X110060000Y-64910000I-160000J0D01*
G01*
G37*
%TD*%
%TO.C,R11*%
G36*
G01*
X80660000Y-80110000D02*
X80340000Y-80110000D01*
G75*
G02*
X80180000Y-79950000I0J160000D01*
G01*
X80180000Y-79270000D01*
G75*
G02*
X80340000Y-79110000I160000J0D01*
G01*
X80660000Y-79110000D01*
G75*
G02*
X80820000Y-79270000I0J-160000D01*
G01*
X80820000Y-79950000D01*
G75*
G02*
X80660000Y-80110000I-160000J0D01*
G01*
G37*
G36*
G01*
X80660000Y-81490000D02*
X80340000Y-81490000D01*
G75*
G02*
X80180000Y-81330000I0J160000D01*
G01*
X80180000Y-80650000D01*
G75*
G02*
X80340000Y-80490000I160000J0D01*
G01*
X80660000Y-80490000D01*
G75*
G02*
X80820000Y-80650000I0J-160000D01*
G01*
X80820000Y-81330000D01*
G75*
G02*
X80660000Y-81490000I-160000J0D01*
G01*
G37*
%TD*%
%TO.C,R12*%
G36*
G01*
X103610000Y-85340000D02*
X103610000Y-85660000D01*
G75*
G02*
X103450000Y-85820000I-160000J0D01*
G01*
X102770000Y-85820000D01*
G75*
G02*
X102610000Y-85660000I0J160000D01*
G01*
X102610000Y-85340000D01*
G75*
G02*
X102770000Y-85180000I160000J0D01*
G01*
X103450000Y-85180000D01*
G75*
G02*
X103610000Y-85340000I0J-160000D01*
G01*
G37*
G36*
G01*
X104990000Y-85340000D02*
X104990000Y-85660000D01*
G75*
G02*
X104830000Y-85820000I-160000J0D01*
G01*
X104150000Y-85820000D01*
G75*
G02*
X103990000Y-85660000I0J160000D01*
G01*
X103990000Y-85340000D01*
G75*
G02*
X104150000Y-85180000I160000J0D01*
G01*
X104830000Y-85180000D01*
G75*
G02*
X104990000Y-85340000I0J-160000D01*
G01*
G37*
%TD*%
%TO.C,R13*%
G36*
G01*
X91860000Y-78610000D02*
X91540000Y-78610000D01*
G75*
G02*
X91380000Y-78450000I0J160000D01*
G01*
X91380000Y-77770000D01*
G75*
G02*
X91540000Y-77610000I160000J0D01*
G01*
X91860000Y-77610000D01*
G75*
G02*
X92020000Y-77770000I0J-160000D01*
G01*
X92020000Y-78450000D01*
G75*
G02*
X91860000Y-78610000I-160000J0D01*
G01*
G37*
G36*
G01*
X91860000Y-79990000D02*
X91540000Y-79990000D01*
G75*
G02*
X91380000Y-79830000I0J160000D01*
G01*
X91380000Y-79150000D01*
G75*
G02*
X91540000Y-78990000I160000J0D01*
G01*
X91860000Y-78990000D01*
G75*
G02*
X92020000Y-79150000I0J-160000D01*
G01*
X92020000Y-79830000D01*
G75*
G02*
X91860000Y-79990000I-160000J0D01*
G01*
G37*
%TD*%
%TO.C,R17*%
G36*
G01*
X69125000Y-66662500D02*
X67875000Y-66662500D01*
G75*
G02*
X67625000Y-66412500I0J250000D01*
G01*
X67625000Y-65487500D01*
G75*
G02*
X67875000Y-65237500I250000J0D01*
G01*
X69125000Y-65237500D01*
G75*
G02*
X69375000Y-65487500I0J-250000D01*
G01*
X69375000Y-66412500D01*
G75*
G02*
X69125000Y-66662500I-250000J0D01*
G01*
G37*
G36*
G01*
X69125000Y-63687500D02*
X67875000Y-63687500D01*
G75*
G02*
X67625000Y-63437500I0J250000D01*
G01*
X67625000Y-62512500D01*
G75*
G02*
X67875000Y-62262500I250000J0D01*
G01*
X69125000Y-62262500D01*
G75*
G02*
X69375000Y-62512500I0J-250000D01*
G01*
X69375000Y-63437500D01*
G75*
G02*
X69125000Y-63687500I-250000J0D01*
G01*
G37*
%TD*%
%TO.C,R18*%
G36*
G01*
X60040000Y-61090000D02*
X60040000Y-61410000D01*
G75*
G02*
X59880000Y-61570000I-160000J0D01*
G01*
X59200000Y-61570000D01*
G75*
G02*
X59040000Y-61410000I0J160000D01*
G01*
X59040000Y-61090000D01*
G75*
G02*
X59200000Y-60930000I160000J0D01*
G01*
X59880000Y-60930000D01*
G75*
G02*
X60040000Y-61090000I0J-160000D01*
G01*
G37*
G36*
G01*
X58660000Y-61090000D02*
X58660000Y-61410000D01*
G75*
G02*
X58500000Y-61570000I-160000J0D01*
G01*
X57820000Y-61570000D01*
G75*
G02*
X57660000Y-61410000I0J160000D01*
G01*
X57660000Y-61090000D01*
G75*
G02*
X57820000Y-60930000I160000J0D01*
G01*
X58500000Y-60930000D01*
G75*
G02*
X58660000Y-61090000I0J-160000D01*
G01*
G37*
%TD*%
%TO.C,R19*%
G36*
G01*
X80660000Y-83210000D02*
X80340000Y-83210000D01*
G75*
G02*
X80180000Y-83050000I0J160000D01*
G01*
X80180000Y-82370000D01*
G75*
G02*
X80340000Y-82210000I160000J0D01*
G01*
X80660000Y-82210000D01*
G75*
G02*
X80820000Y-82370000I0J-160000D01*
G01*
X80820000Y-83050000D01*
G75*
G02*
X80660000Y-83210000I-160000J0D01*
G01*
G37*
G36*
G01*
X80660000Y-84590000D02*
X80340000Y-84590000D01*
G75*
G02*
X80180000Y-84430000I0J160000D01*
G01*
X80180000Y-83750000D01*
G75*
G02*
X80340000Y-83590000I160000J0D01*
G01*
X80660000Y-83590000D01*
G75*
G02*
X80820000Y-83750000I0J-160000D01*
G01*
X80820000Y-84430000D01*
G75*
G02*
X80660000Y-84590000I-160000J0D01*
G01*
G37*
%TD*%
%TO.C,R20*%
G36*
G01*
X106190000Y-80740000D02*
X106190000Y-81060000D01*
G75*
G02*
X106030000Y-81220000I-160000J0D01*
G01*
X105350000Y-81220000D01*
G75*
G02*
X105190000Y-81060000I0J160000D01*
G01*
X105190000Y-80740000D01*
G75*
G02*
X105350000Y-80580000I160000J0D01*
G01*
X106030000Y-80580000D01*
G75*
G02*
X106190000Y-80740000I0J-160000D01*
G01*
G37*
G36*
G01*
X104810000Y-80740000D02*
X104810000Y-81060000D01*
G75*
G02*
X104650000Y-81220000I-160000J0D01*
G01*
X103970000Y-81220000D01*
G75*
G02*
X103810000Y-81060000I0J160000D01*
G01*
X103810000Y-80740000D01*
G75*
G02*
X103970000Y-80580000I160000J0D01*
G01*
X104650000Y-80580000D01*
G75*
G02*
X104810000Y-80740000I0J-160000D01*
G01*
G37*
%TD*%
%TO.C,R22*%
G36*
G01*
X80660000Y-77110000D02*
X80340000Y-77110000D01*
G75*
G02*
X80180000Y-76950000I0J160000D01*
G01*
X80180000Y-76270000D01*
G75*
G02*
X80340000Y-76110000I160000J0D01*
G01*
X80660000Y-76110000D01*
G75*
G02*
X80820000Y-76270000I0J-160000D01*
G01*
X80820000Y-76950000D01*
G75*
G02*
X80660000Y-77110000I-160000J0D01*
G01*
G37*
G36*
G01*
X80660000Y-78490000D02*
X80340000Y-78490000D01*
G75*
G02*
X80180000Y-78330000I0J160000D01*
G01*
X80180000Y-77650000D01*
G75*
G02*
X80340000Y-77490000I160000J0D01*
G01*
X80660000Y-77490000D01*
G75*
G02*
X80820000Y-77650000I0J-160000D01*
G01*
X80820000Y-78330000D01*
G75*
G02*
X80660000Y-78490000I-160000J0D01*
G01*
G37*
%TD*%
%TO.C,R24*%
G36*
G01*
X101990000Y-64960000D02*
X101990000Y-64640000D01*
G75*
G02*
X102150000Y-64480000I160000J0D01*
G01*
X102830000Y-64480000D01*
G75*
G02*
X102990000Y-64640000I0J-160000D01*
G01*
X102990000Y-64960000D01*
G75*
G02*
X102830000Y-65120000I-160000J0D01*
G01*
X102150000Y-65120000D01*
G75*
G02*
X101990000Y-64960000I0J160000D01*
G01*
G37*
G36*
G01*
X100610000Y-64960000D02*
X100610000Y-64640000D01*
G75*
G02*
X100770000Y-64480000I160000J0D01*
G01*
X101450000Y-64480000D01*
G75*
G02*
X101610000Y-64640000I0J-160000D01*
G01*
X101610000Y-64960000D01*
G75*
G02*
X101450000Y-65120000I-160000J0D01*
G01*
X100770000Y-65120000D01*
G75*
G02*
X100610000Y-64960000I0J160000D01*
G01*
G37*
%TD*%
%TO.C,R26*%
G36*
G01*
X102290000Y-65740000D02*
X102290000Y-66060000D01*
G75*
G02*
X102130000Y-66220000I-160000J0D01*
G01*
X101450000Y-66220000D01*
G75*
G02*
X101290000Y-66060000I0J160000D01*
G01*
X101290000Y-65740000D01*
G75*
G02*
X101450000Y-65580000I160000J0D01*
G01*
X102130000Y-65580000D01*
G75*
G02*
X102290000Y-65740000I0J-160000D01*
G01*
G37*
G36*
G01*
X100910000Y-65740000D02*
X100910000Y-66060000D01*
G75*
G02*
X100750000Y-66220000I-160000J0D01*
G01*
X100070000Y-66220000D01*
G75*
G02*
X99910000Y-66060000I0J160000D01*
G01*
X99910000Y-65740000D01*
G75*
G02*
X100070000Y-65580000I160000J0D01*
G01*
X100750000Y-65580000D01*
G75*
G02*
X100910000Y-65740000I0J-160000D01*
G01*
G37*
%TD*%
%TO.C,R28*%
G36*
G01*
X66390000Y-61560000D02*
X66710000Y-61560000D01*
G75*
G02*
X66870000Y-61720000I0J-160000D01*
G01*
X66870000Y-62400000D01*
G75*
G02*
X66710000Y-62560000I-160000J0D01*
G01*
X66390000Y-62560000D01*
G75*
G02*
X66230000Y-62400000I0J160000D01*
G01*
X66230000Y-61720000D01*
G75*
G02*
X66390000Y-61560000I160000J0D01*
G01*
G37*
G36*
G01*
X66390000Y-62940000D02*
X66710000Y-62940000D01*
G75*
G02*
X66870000Y-63100000I0J-160000D01*
G01*
X66870000Y-63780000D01*
G75*
G02*
X66710000Y-63940000I-160000J0D01*
G01*
X66390000Y-63940000D01*
G75*
G02*
X66230000Y-63780000I0J160000D01*
G01*
X66230000Y-63100000D01*
G75*
G02*
X66390000Y-62940000I160000J0D01*
G01*
G37*
%TD*%
%TO.C,R29*%
G36*
G01*
X107710000Y-74640000D02*
X107710000Y-74960000D01*
G75*
G02*
X107550000Y-75120000I-160000J0D01*
G01*
X106870000Y-75120000D01*
G75*
G02*
X106710000Y-74960000I0J160000D01*
G01*
X106710000Y-74640000D01*
G75*
G02*
X106870000Y-74480000I160000J0D01*
G01*
X107550000Y-74480000D01*
G75*
G02*
X107710000Y-74640000I0J-160000D01*
G01*
G37*
G36*
G01*
X109090000Y-74640000D02*
X109090000Y-74960000D01*
G75*
G02*
X108930000Y-75120000I-160000J0D01*
G01*
X108250000Y-75120000D01*
G75*
G02*
X108090000Y-74960000I0J160000D01*
G01*
X108090000Y-74640000D01*
G75*
G02*
X108250000Y-74480000I160000J0D01*
G01*
X108930000Y-74480000D01*
G75*
G02*
X109090000Y-74640000I0J-160000D01*
G01*
G37*
%TD*%
%TO.C,R30*%
G36*
G01*
X63210000Y-62010000D02*
X63210000Y-61690000D01*
G75*
G02*
X63370000Y-61530000I160000J0D01*
G01*
X64050000Y-61530000D01*
G75*
G02*
X64210000Y-61690000I0J-160000D01*
G01*
X64210000Y-62010000D01*
G75*
G02*
X64050000Y-62170000I-160000J0D01*
G01*
X63370000Y-62170000D01*
G75*
G02*
X63210000Y-62010000I0J160000D01*
G01*
G37*
G36*
G01*
X64590000Y-62010000D02*
X64590000Y-61690000D01*
G75*
G02*
X64750000Y-61530000I160000J0D01*
G01*
X65430000Y-61530000D01*
G75*
G02*
X65590000Y-61690000I0J-160000D01*
G01*
X65590000Y-62010000D01*
G75*
G02*
X65430000Y-62170000I-160000J0D01*
G01*
X64750000Y-62170000D01*
G75*
G02*
X64590000Y-62010000I0J160000D01*
G01*
G37*
%TD*%
D13*
%TO.C,SW3*%
X78460000Y-99000000D03*
D14*
X81000000Y-99000000D03*
X83540000Y-99000000D03*
%TD*%
D19*
%TO.C,U1*%
X74350000Y-65500000D03*
X74350000Y-65000000D03*
X74350000Y-64500000D03*
X74350000Y-64000000D03*
X74350000Y-63500000D03*
X77250000Y-63500000D03*
X77250000Y-64000000D03*
X77250000Y-64500000D03*
X77250000Y-65000000D03*
X77250000Y-65500000D03*
D20*
X75800000Y-64500000D03*
D21*
X75800000Y-64500000D03*
D22*
G36*
X73260225Y-63175145D02*
G01*
X73260826Y-63175145D01*
X73261621Y-63175223D01*
X73268657Y-63175616D01*
X73279519Y-63177297D01*
X73290165Y-63180030D01*
X73300493Y-63183789D01*
X73310405Y-63188538D01*
X73319807Y-63194232D01*
X73327518Y-63200000D01*
X73356900Y-63200000D01*
X73606900Y-63375000D01*
X73956900Y-63375000D01*
X73956900Y-63625000D01*
X73256900Y-63625000D01*
X73256900Y-63624866D01*
X73251403Y-63624866D01*
X73240426Y-63624329D01*
X73238857Y-63624241D01*
X73234166Y-63623715D01*
X73229484Y-63623256D01*
X73218611Y-63621650D01*
X73217058Y-63621409D01*
X73212430Y-63620425D01*
X73207833Y-63619515D01*
X73197177Y-63616858D01*
X73197167Y-63616856D01*
X73197156Y-63616853D01*
X73195647Y-63616466D01*
X73191130Y-63615033D01*
X73186645Y-63613679D01*
X73176291Y-63609992D01*
X73174814Y-63609455D01*
X73170472Y-63607594D01*
X73166140Y-63605809D01*
X73156194Y-63601130D01*
X73156187Y-63601127D01*
X73156183Y-63601125D01*
X73156178Y-63601122D01*
X73154777Y-63600451D01*
X73150661Y-63598189D01*
X73146479Y-63595965D01*
X73137038Y-63590337D01*
X73135694Y-63589523D01*
X73131793Y-63586852D01*
X73127876Y-63584249D01*
X73119030Y-63577726D01*
X73117772Y-63576785D01*
X73114149Y-63573744D01*
X73110523Y-63570787D01*
X73102362Y-63563440D01*
X73102353Y-63563432D01*
X73102343Y-63563422D01*
X73101194Y-63562374D01*
X73097855Y-63558965D01*
X73094554Y-63555687D01*
X73087142Y-63547570D01*
X73086090Y-63546402D01*
X73083119Y-63542707D01*
X73080135Y-63539100D01*
X73073553Y-63530302D01*
X73073548Y-63530296D01*
X73073540Y-63530283D01*
X73072619Y-63529035D01*
X73070044Y-63525101D01*
X73067402Y-63521183D01*
X73061709Y-63511783D01*
X73060905Y-63510433D01*
X73058703Y-63506221D01*
X73056488Y-63502125D01*
X73051738Y-63492214D01*
X73051069Y-63490792D01*
X73049308Y-63486435D01*
X73047473Y-63482069D01*
X73043714Y-63471740D01*
X73043187Y-63470260D01*
X73041853Y-63465726D01*
X73040464Y-63461240D01*
X73037731Y-63450595D01*
X73037351Y-63449070D01*
X73036456Y-63444379D01*
X73035523Y-63439836D01*
X73033841Y-63428975D01*
X73033612Y-63427420D01*
X73033185Y-63422734D01*
X73032691Y-63418033D01*
X73032078Y-63407059D01*
X73032001Y-63405490D01*
X73032035Y-63400743D01*
X73032002Y-63396076D01*
X73032462Y-63385095D01*
X73032538Y-63383526D01*
X73033031Y-63378837D01*
X73033458Y-63374143D01*
X73034988Y-63363259D01*
X73035218Y-63361705D01*
X73036163Y-63357103D01*
X73037046Y-63352471D01*
X73039630Y-63341788D01*
X73040010Y-63340264D01*
X73041410Y-63335742D01*
X73042736Y-63331237D01*
X73046350Y-63320857D01*
X73046878Y-63319377D01*
X73048694Y-63315056D01*
X73050465Y-63310673D01*
X73055075Y-63300695D01*
X73055744Y-63299274D01*
X73057991Y-63295118D01*
X73060170Y-63290949D01*
X73065732Y-63281469D01*
X73066536Y-63280120D01*
X73069191Y-63276183D01*
X73071748Y-63272276D01*
X73078208Y-63263384D01*
X73078213Y-63263376D01*
X73078224Y-63263363D01*
X73079140Y-63262119D01*
X73082153Y-63258476D01*
X73085101Y-63254811D01*
X73092399Y-63246592D01*
X73093450Y-63245424D01*
X73096813Y-63242085D01*
X73100081Y-63238747D01*
X73108145Y-63231279D01*
X73108151Y-63231273D01*
X73108158Y-63231267D01*
X73109305Y-63230219D01*
X73112966Y-63227233D01*
X73116571Y-63224208D01*
X73125326Y-63217563D01*
X73126584Y-63216622D01*
X73130540Y-63213994D01*
X73134389Y-63211358D01*
X73143751Y-63205598D01*
X73143752Y-63205597D01*
X73143757Y-63205594D01*
X73143764Y-63205590D01*
X73145095Y-63204784D01*
X73149234Y-63202583D01*
X73153389Y-63200299D01*
X73163258Y-63195487D01*
X73163265Y-63195483D01*
X73163274Y-63195479D01*
X73164684Y-63194803D01*
X73169033Y-63193011D01*
X73173367Y-63191153D01*
X73183668Y-63187322D01*
X73185144Y-63186785D01*
X73189668Y-63185419D01*
X73194143Y-63183999D01*
X73204770Y-63181191D01*
X73206292Y-63180800D01*
X73210966Y-63179874D01*
X73215527Y-63178905D01*
X73226372Y-63177149D01*
X73226375Y-63177148D01*
X73226379Y-63177148D01*
X73227929Y-63176907D01*
X73232642Y-63176445D01*
X73237297Y-63175923D01*
X73248267Y-63175233D01*
X73249835Y-63175145D01*
X73252200Y-63175145D01*
X73254541Y-63175014D01*
X73256112Y-63175003D01*
X73257683Y-63175003D01*
X73260225Y-63175145D01*
G37*
G36*
X74000000Y-65625000D02*
G01*
X73600000Y-65625000D01*
X73400000Y-65800000D01*
X73370500Y-65800000D01*
X73366759Y-65803051D01*
X73357604Y-65809134D01*
X73347900Y-65814294D01*
X73337737Y-65818481D01*
X73327215Y-65821658D01*
X73316433Y-65823793D01*
X73305495Y-65824866D01*
X73294503Y-65824866D01*
X73283526Y-65824329D01*
X73281957Y-65824241D01*
X73277266Y-65823715D01*
X73272584Y-65823256D01*
X73261711Y-65821650D01*
X73260158Y-65821409D01*
X73255530Y-65820425D01*
X73250933Y-65819515D01*
X73240277Y-65816858D01*
X73240267Y-65816856D01*
X73240256Y-65816853D01*
X73238747Y-65816466D01*
X73234230Y-65815033D01*
X73229745Y-65813679D01*
X73219391Y-65809992D01*
X73217914Y-65809455D01*
X73213572Y-65807594D01*
X73209240Y-65805809D01*
X73199294Y-65801130D01*
X73199287Y-65801127D01*
X73199283Y-65801125D01*
X73199278Y-65801122D01*
X73197877Y-65800451D01*
X73193761Y-65798189D01*
X73189579Y-65795965D01*
X73180138Y-65790337D01*
X73178794Y-65789523D01*
X73174893Y-65786852D01*
X73170976Y-65784249D01*
X73162130Y-65777726D01*
X73160872Y-65776785D01*
X73157249Y-65773744D01*
X73153623Y-65770787D01*
X73145462Y-65763440D01*
X73145453Y-65763432D01*
X73145443Y-65763422D01*
X73144294Y-65762374D01*
X73140955Y-65758965D01*
X73137654Y-65755687D01*
X73130242Y-65747570D01*
X73129190Y-65746402D01*
X73126219Y-65742707D01*
X73123235Y-65739100D01*
X73116653Y-65730302D01*
X73116648Y-65730296D01*
X73116640Y-65730283D01*
X73115719Y-65729035D01*
X73113144Y-65725101D01*
X73110502Y-65721183D01*
X73104809Y-65711783D01*
X73104005Y-65710433D01*
X73101803Y-65706221D01*
X73099588Y-65702125D01*
X73094838Y-65692214D01*
X73094169Y-65690792D01*
X73092408Y-65686435D01*
X73090573Y-65682069D01*
X73086814Y-65671740D01*
X73086287Y-65670260D01*
X73084953Y-65665726D01*
X73083564Y-65661240D01*
X73080831Y-65650595D01*
X73080451Y-65649070D01*
X73079556Y-65644379D01*
X73078623Y-65639836D01*
X73076941Y-65628975D01*
X73076712Y-65627420D01*
X73076285Y-65622734D01*
X73075791Y-65618033D01*
X73075178Y-65607059D01*
X73075101Y-65605490D01*
X73075135Y-65600743D01*
X73075102Y-65596076D01*
X73075562Y-65585095D01*
X73075638Y-65583526D01*
X73076131Y-65578837D01*
X73076558Y-65574143D01*
X73078088Y-65563259D01*
X73078318Y-65561705D01*
X73079263Y-65557103D01*
X73080146Y-65552471D01*
X73082730Y-65541788D01*
X73083110Y-65540264D01*
X73084510Y-65535742D01*
X73085836Y-65531237D01*
X73089450Y-65520857D01*
X73089978Y-65519377D01*
X73091794Y-65515056D01*
X73093565Y-65510673D01*
X73098175Y-65500695D01*
X73098844Y-65499274D01*
X73101091Y-65495118D01*
X73103270Y-65490949D01*
X73108832Y-65481469D01*
X73109636Y-65480120D01*
X73112291Y-65476183D01*
X73114848Y-65472276D01*
X73121308Y-65463384D01*
X73121313Y-65463376D01*
X73121324Y-65463363D01*
X73122240Y-65462119D01*
X73125253Y-65458476D01*
X73128201Y-65454811D01*
X73135499Y-65446592D01*
X73136550Y-65445424D01*
X73139913Y-65442085D01*
X73143181Y-65438747D01*
X73151245Y-65431279D01*
X73151251Y-65431273D01*
X73151258Y-65431267D01*
X73152405Y-65430219D01*
X73156066Y-65427233D01*
X73159671Y-65424208D01*
X73168426Y-65417563D01*
X73169684Y-65416622D01*
X73173640Y-65413994D01*
X73177489Y-65411358D01*
X73186851Y-65405598D01*
X73186852Y-65405597D01*
X73186857Y-65405594D01*
X73186864Y-65405590D01*
X73188195Y-65404784D01*
X73192334Y-65402583D01*
X73196489Y-65400299D01*
X73206358Y-65395487D01*
X73206365Y-65395483D01*
X73206374Y-65395479D01*
X73207784Y-65394803D01*
X73212133Y-65393011D01*
X73216467Y-65391153D01*
X73226768Y-65387322D01*
X73228244Y-65386785D01*
X73232768Y-65385419D01*
X73237243Y-65383999D01*
X73247870Y-65381191D01*
X73249392Y-65380800D01*
X73254066Y-65379874D01*
X73258627Y-65378905D01*
X73269472Y-65377149D01*
X73269475Y-65377148D01*
X73269479Y-65377148D01*
X73271029Y-65376907D01*
X73275742Y-65376445D01*
X73280397Y-65375923D01*
X73291367Y-65375233D01*
X73292935Y-65375145D01*
X73295300Y-65375145D01*
X73297641Y-65375014D01*
X73299212Y-65375003D01*
X73300000Y-65375003D01*
X73300000Y-65375000D01*
X74000000Y-65375000D01*
X74000000Y-65625000D01*
G37*
G36*
X78000000Y-65625000D02*
G01*
X77600000Y-65625000D01*
X77400000Y-65800000D01*
X77370500Y-65800000D01*
X77366759Y-65803051D01*
X77357604Y-65809134D01*
X77347900Y-65814294D01*
X77337737Y-65818481D01*
X77327215Y-65821658D01*
X77316433Y-65823793D01*
X77305495Y-65824866D01*
X77294503Y-65824866D01*
X77283526Y-65824329D01*
X77281957Y-65824241D01*
X77277266Y-65823715D01*
X77272584Y-65823256D01*
X77261711Y-65821650D01*
X77260158Y-65821409D01*
X77255530Y-65820425D01*
X77250933Y-65819515D01*
X77240277Y-65816858D01*
X77240267Y-65816856D01*
X77240256Y-65816853D01*
X77238747Y-65816466D01*
X77234230Y-65815033D01*
X77229745Y-65813679D01*
X77219391Y-65809992D01*
X77217914Y-65809455D01*
X77213572Y-65807594D01*
X77209240Y-65805809D01*
X77199294Y-65801130D01*
X77199287Y-65801127D01*
X77199283Y-65801125D01*
X77199278Y-65801122D01*
X77197877Y-65800451D01*
X77193761Y-65798189D01*
X77189579Y-65795965D01*
X77180138Y-65790337D01*
X77178794Y-65789523D01*
X77174893Y-65786852D01*
X77170976Y-65784249D01*
X77162130Y-65777726D01*
X77160872Y-65776785D01*
X77157249Y-65773744D01*
X77153623Y-65770787D01*
X77145462Y-65763440D01*
X77145453Y-65763432D01*
X77145443Y-65763422D01*
X77144294Y-65762374D01*
X77140955Y-65758965D01*
X77137654Y-65755687D01*
X77130242Y-65747570D01*
X77129190Y-65746402D01*
X77126219Y-65742707D01*
X77123235Y-65739100D01*
X77116653Y-65730302D01*
X77116648Y-65730296D01*
X77116640Y-65730283D01*
X77115719Y-65729035D01*
X77113144Y-65725101D01*
X77110502Y-65721183D01*
X77104809Y-65711783D01*
X77104005Y-65710433D01*
X77101803Y-65706221D01*
X77099588Y-65702125D01*
X77094838Y-65692214D01*
X77094169Y-65690792D01*
X77092408Y-65686435D01*
X77090573Y-65682069D01*
X77086814Y-65671740D01*
X77086287Y-65670260D01*
X77084953Y-65665726D01*
X77083564Y-65661240D01*
X77080831Y-65650595D01*
X77080451Y-65649070D01*
X77079556Y-65644379D01*
X77078623Y-65639836D01*
X77076941Y-65628975D01*
X77076712Y-65627420D01*
X77076285Y-65622734D01*
X77075791Y-65618033D01*
X77075178Y-65607059D01*
X77075101Y-65605490D01*
X77075135Y-65600743D01*
X77075102Y-65596076D01*
X77075562Y-65585095D01*
X77075638Y-65583526D01*
X77076131Y-65578837D01*
X77076558Y-65574143D01*
X77078088Y-65563259D01*
X77078318Y-65561705D01*
X77079263Y-65557103D01*
X77080146Y-65552471D01*
X77082730Y-65541788D01*
X77083110Y-65540264D01*
X77084510Y-65535742D01*
X77085836Y-65531237D01*
X77089450Y-65520857D01*
X77089978Y-65519377D01*
X77091794Y-65515056D01*
X77093565Y-65510673D01*
X77098175Y-65500695D01*
X77098844Y-65499274D01*
X77101091Y-65495118D01*
X77103270Y-65490949D01*
X77108832Y-65481469D01*
X77109636Y-65480120D01*
X77112291Y-65476183D01*
X77114848Y-65472276D01*
X77121308Y-65463384D01*
X77121313Y-65463376D01*
X77121324Y-65463363D01*
X77122240Y-65462119D01*
X77125253Y-65458476D01*
X77128201Y-65454811D01*
X77135499Y-65446592D01*
X77136550Y-65445424D01*
X77139913Y-65442085D01*
X77143181Y-65438747D01*
X77151245Y-65431279D01*
X77151251Y-65431273D01*
X77151258Y-65431267D01*
X77152405Y-65430219D01*
X77156066Y-65427233D01*
X77159671Y-65424208D01*
X77168426Y-65417563D01*
X77169684Y-65416622D01*
X77173640Y-65413994D01*
X77177489Y-65411358D01*
X77186851Y-65405598D01*
X77186852Y-65405597D01*
X77186857Y-65405594D01*
X77186864Y-65405590D01*
X77188195Y-65404784D01*
X77192334Y-65402583D01*
X77196489Y-65400299D01*
X77206358Y-65395487D01*
X77206365Y-65395483D01*
X77206374Y-65395479D01*
X77207784Y-65394803D01*
X77212133Y-65393011D01*
X77216467Y-65391153D01*
X77226768Y-65387322D01*
X77228244Y-65386785D01*
X77232768Y-65385419D01*
X77237243Y-65383999D01*
X77247870Y-65381191D01*
X77249392Y-65380800D01*
X77254066Y-65379874D01*
X77258627Y-65378905D01*
X77269472Y-65377149D01*
X77269475Y-65377148D01*
X77269479Y-65377148D01*
X77271029Y-65376907D01*
X77275742Y-65376445D01*
X77280397Y-65375923D01*
X77291367Y-65375233D01*
X77292935Y-65375145D01*
X77295300Y-65375145D01*
X77297641Y-65375014D01*
X77299212Y-65375003D01*
X77300000Y-65375003D01*
X77300000Y-65375000D01*
X78000000Y-65375000D01*
X78000000Y-65625000D01*
G37*
%TD*%
D23*
%TO.C,U3*%
X74250000Y-93200000D03*
X73300000Y-93200000D03*
X72350000Y-93200000D03*
X72350000Y-91000000D03*
X74250000Y-91000000D03*
%TD*%
D24*
%TO.C,U4*%
X113000000Y-95550000D03*
X113500000Y-95550000D03*
X114000000Y-95550000D03*
X114500000Y-95550000D03*
X115000000Y-95550000D03*
X115000000Y-98450000D03*
X114500000Y-98450000D03*
X114000000Y-98450000D03*
X113500000Y-98450000D03*
X113000000Y-98450000D03*
D25*
X114000000Y-97000000D03*
D26*
X114000000Y-97000000D03*
D22*
G36*
X115324855Y-94460225D02*
G01*
X115324855Y-94460826D01*
X115324777Y-94461621D01*
X115324384Y-94468657D01*
X115322703Y-94479519D01*
X115319970Y-94490165D01*
X115316211Y-94500493D01*
X115311462Y-94510405D01*
X115305768Y-94519807D01*
X115300000Y-94527518D01*
X115300000Y-94556900D01*
X115125000Y-94806900D01*
X115125000Y-95156900D01*
X114875000Y-95156900D01*
X114875000Y-94456900D01*
X114875134Y-94456900D01*
X114875134Y-94451403D01*
X114875671Y-94440426D01*
X114875759Y-94438857D01*
X114876285Y-94434166D01*
X114876744Y-94429484D01*
X114878350Y-94418611D01*
X114878591Y-94417058D01*
X114879575Y-94412430D01*
X114880485Y-94407833D01*
X114883142Y-94397177D01*
X114883144Y-94397167D01*
X114883147Y-94397156D01*
X114883534Y-94395647D01*
X114884967Y-94391130D01*
X114886321Y-94386645D01*
X114890008Y-94376291D01*
X114890545Y-94374814D01*
X114892406Y-94370472D01*
X114894191Y-94366140D01*
X114898870Y-94356194D01*
X114898873Y-94356187D01*
X114898875Y-94356183D01*
X114898878Y-94356178D01*
X114899549Y-94354777D01*
X114901811Y-94350661D01*
X114904035Y-94346479D01*
X114909663Y-94337038D01*
X114910477Y-94335694D01*
X114913148Y-94331793D01*
X114915751Y-94327876D01*
X114922274Y-94319030D01*
X114923215Y-94317772D01*
X114926256Y-94314149D01*
X114929213Y-94310523D01*
X114936560Y-94302362D01*
X114936568Y-94302353D01*
X114936578Y-94302343D01*
X114937626Y-94301194D01*
X114941035Y-94297855D01*
X114944313Y-94294554D01*
X114952430Y-94287142D01*
X114953598Y-94286090D01*
X114957293Y-94283119D01*
X114960900Y-94280135D01*
X114969698Y-94273553D01*
X114969704Y-94273548D01*
X114969717Y-94273540D01*
X114970965Y-94272619D01*
X114974899Y-94270044D01*
X114978817Y-94267402D01*
X114988217Y-94261709D01*
X114989567Y-94260905D01*
X114993779Y-94258703D01*
X114997875Y-94256488D01*
X115007786Y-94251738D01*
X115009208Y-94251069D01*
X115013565Y-94249308D01*
X115017931Y-94247473D01*
X115028260Y-94243714D01*
X115029740Y-94243187D01*
X115034274Y-94241853D01*
X115038760Y-94240464D01*
X115049405Y-94237731D01*
X115050930Y-94237351D01*
X115055621Y-94236456D01*
X115060164Y-94235523D01*
X115071025Y-94233841D01*
X115072580Y-94233612D01*
X115077266Y-94233185D01*
X115081967Y-94232691D01*
X115092941Y-94232078D01*
X115094510Y-94232001D01*
X115099257Y-94232035D01*
X115103924Y-94232002D01*
X115114905Y-94232462D01*
X115116474Y-94232538D01*
X115121163Y-94233031D01*
X115125857Y-94233458D01*
X115136741Y-94234988D01*
X115138295Y-94235218D01*
X115142897Y-94236163D01*
X115147529Y-94237046D01*
X115158212Y-94239630D01*
X115159736Y-94240010D01*
X115164258Y-94241410D01*
X115168763Y-94242736D01*
X115179143Y-94246350D01*
X115180623Y-94246878D01*
X115184944Y-94248694D01*
X115189327Y-94250465D01*
X115199305Y-94255075D01*
X115200726Y-94255744D01*
X115204882Y-94257991D01*
X115209051Y-94260170D01*
X115218531Y-94265732D01*
X115219880Y-94266536D01*
X115223817Y-94269191D01*
X115227724Y-94271748D01*
X115236616Y-94278208D01*
X115236624Y-94278213D01*
X115236637Y-94278224D01*
X115237881Y-94279140D01*
X115241524Y-94282153D01*
X115245189Y-94285101D01*
X115253408Y-94292399D01*
X115254576Y-94293450D01*
X115257915Y-94296813D01*
X115261253Y-94300081D01*
X115268721Y-94308145D01*
X115268727Y-94308151D01*
X115268733Y-94308158D01*
X115269781Y-94309305D01*
X115272767Y-94312966D01*
X115275792Y-94316571D01*
X115282437Y-94325326D01*
X115283378Y-94326584D01*
X115286006Y-94330540D01*
X115288642Y-94334389D01*
X115294402Y-94343751D01*
X115294403Y-94343752D01*
X115294406Y-94343757D01*
X115294410Y-94343764D01*
X115295216Y-94345095D01*
X115297417Y-94349234D01*
X115299701Y-94353389D01*
X115304513Y-94363258D01*
X115304517Y-94363265D01*
X115304521Y-94363274D01*
X115305197Y-94364684D01*
X115306989Y-94369033D01*
X115308847Y-94373367D01*
X115312678Y-94383668D01*
X115313215Y-94385144D01*
X115314581Y-94389668D01*
X115316001Y-94394143D01*
X115318809Y-94404770D01*
X115319200Y-94406292D01*
X115320126Y-94410966D01*
X115321095Y-94415527D01*
X115322851Y-94426372D01*
X115322852Y-94426375D01*
X115322852Y-94426379D01*
X115323093Y-94427929D01*
X115323555Y-94432642D01*
X115324077Y-94437297D01*
X115324767Y-94448267D01*
X115324855Y-94449835D01*
X115324855Y-94452200D01*
X115324986Y-94454541D01*
X115324997Y-94456112D01*
X115324997Y-94457683D01*
X115324855Y-94460225D01*
G37*
G36*
X112875000Y-95200000D02*
G01*
X112875000Y-94800000D01*
X112700000Y-94600000D01*
X112700000Y-94570500D01*
X112696949Y-94566759D01*
X112690866Y-94557604D01*
X112685706Y-94547900D01*
X112681519Y-94537737D01*
X112678342Y-94527215D01*
X112676207Y-94516433D01*
X112675134Y-94505495D01*
X112675134Y-94494503D01*
X112675671Y-94483526D01*
X112675759Y-94481957D01*
X112676285Y-94477266D01*
X112676744Y-94472584D01*
X112678350Y-94461711D01*
X112678591Y-94460158D01*
X112679575Y-94455530D01*
X112680485Y-94450933D01*
X112683142Y-94440277D01*
X112683144Y-94440267D01*
X112683147Y-94440256D01*
X112683534Y-94438747D01*
X112684967Y-94434230D01*
X112686321Y-94429745D01*
X112690008Y-94419391D01*
X112690545Y-94417914D01*
X112692406Y-94413572D01*
X112694191Y-94409240D01*
X112698870Y-94399294D01*
X112698873Y-94399287D01*
X112698875Y-94399283D01*
X112698878Y-94399278D01*
X112699549Y-94397877D01*
X112701811Y-94393761D01*
X112704035Y-94389579D01*
X112709663Y-94380138D01*
X112710477Y-94378794D01*
X112713148Y-94374893D01*
X112715751Y-94370976D01*
X112722274Y-94362130D01*
X112723215Y-94360872D01*
X112726256Y-94357249D01*
X112729213Y-94353623D01*
X112736560Y-94345462D01*
X112736568Y-94345453D01*
X112736578Y-94345443D01*
X112737626Y-94344294D01*
X112741035Y-94340955D01*
X112744313Y-94337654D01*
X112752430Y-94330242D01*
X112753598Y-94329190D01*
X112757293Y-94326219D01*
X112760900Y-94323235D01*
X112769698Y-94316653D01*
X112769704Y-94316648D01*
X112769717Y-94316640D01*
X112770965Y-94315719D01*
X112774899Y-94313144D01*
X112778817Y-94310502D01*
X112788217Y-94304809D01*
X112789567Y-94304005D01*
X112793779Y-94301803D01*
X112797875Y-94299588D01*
X112807786Y-94294838D01*
X112809208Y-94294169D01*
X112813565Y-94292408D01*
X112817931Y-94290573D01*
X112828260Y-94286814D01*
X112829740Y-94286287D01*
X112834274Y-94284953D01*
X112838760Y-94283564D01*
X112849405Y-94280831D01*
X112850930Y-94280451D01*
X112855621Y-94279556D01*
X112860164Y-94278623D01*
X112871025Y-94276941D01*
X112872580Y-94276712D01*
X112877266Y-94276285D01*
X112881967Y-94275791D01*
X112892941Y-94275178D01*
X112894510Y-94275101D01*
X112899257Y-94275135D01*
X112903924Y-94275102D01*
X112914905Y-94275562D01*
X112916474Y-94275638D01*
X112921163Y-94276131D01*
X112925857Y-94276558D01*
X112936741Y-94278088D01*
X112938295Y-94278318D01*
X112942897Y-94279263D01*
X112947529Y-94280146D01*
X112958212Y-94282730D01*
X112959736Y-94283110D01*
X112964258Y-94284510D01*
X112968763Y-94285836D01*
X112979143Y-94289450D01*
X112980623Y-94289978D01*
X112984944Y-94291794D01*
X112989327Y-94293565D01*
X112999305Y-94298175D01*
X113000726Y-94298844D01*
X113004882Y-94301091D01*
X113009051Y-94303270D01*
X113018531Y-94308832D01*
X113019880Y-94309636D01*
X113023817Y-94312291D01*
X113027724Y-94314848D01*
X113036616Y-94321308D01*
X113036624Y-94321313D01*
X113036637Y-94321324D01*
X113037881Y-94322240D01*
X113041524Y-94325253D01*
X113045189Y-94328201D01*
X113053408Y-94335499D01*
X113054576Y-94336550D01*
X113057915Y-94339913D01*
X113061253Y-94343181D01*
X113068721Y-94351245D01*
X113068727Y-94351251D01*
X113068733Y-94351258D01*
X113069781Y-94352405D01*
X113072767Y-94356066D01*
X113075792Y-94359671D01*
X113082437Y-94368426D01*
X113083378Y-94369684D01*
X113086006Y-94373640D01*
X113088642Y-94377489D01*
X113094402Y-94386851D01*
X113094403Y-94386852D01*
X113094406Y-94386857D01*
X113094410Y-94386864D01*
X113095216Y-94388195D01*
X113097417Y-94392334D01*
X113099701Y-94396489D01*
X113104513Y-94406358D01*
X113104517Y-94406365D01*
X113104521Y-94406374D01*
X113105197Y-94407784D01*
X113106989Y-94412133D01*
X113108847Y-94416467D01*
X113112678Y-94426768D01*
X113113215Y-94428244D01*
X113114581Y-94432768D01*
X113116001Y-94437243D01*
X113118809Y-94447870D01*
X113119200Y-94449392D01*
X113120126Y-94454066D01*
X113121095Y-94458627D01*
X113122851Y-94469472D01*
X113122852Y-94469475D01*
X113122852Y-94469479D01*
X113123093Y-94471029D01*
X113123555Y-94475742D01*
X113124077Y-94480397D01*
X113124767Y-94491367D01*
X113124855Y-94492935D01*
X113124855Y-94495300D01*
X113124986Y-94497641D01*
X113124997Y-94499212D01*
X113124997Y-94500000D01*
X113125000Y-94500000D01*
X113125000Y-95200000D01*
X112875000Y-95200000D01*
G37*
G36*
X112875000Y-99200000D02*
G01*
X112875000Y-98800000D01*
X112700000Y-98600000D01*
X112700000Y-98570500D01*
X112696949Y-98566759D01*
X112690866Y-98557604D01*
X112685706Y-98547900D01*
X112681519Y-98537737D01*
X112678342Y-98527215D01*
X112676207Y-98516433D01*
X112675134Y-98505495D01*
X112675134Y-98494503D01*
X112675671Y-98483526D01*
X112675759Y-98481957D01*
X112676285Y-98477266D01*
X112676744Y-98472584D01*
X112678350Y-98461711D01*
X112678591Y-98460158D01*
X112679575Y-98455530D01*
X112680485Y-98450933D01*
X112683142Y-98440277D01*
X112683144Y-98440267D01*
X112683147Y-98440256D01*
X112683534Y-98438747D01*
X112684967Y-98434230D01*
X112686321Y-98429745D01*
X112690008Y-98419391D01*
X112690545Y-98417914D01*
X112692406Y-98413572D01*
X112694191Y-98409240D01*
X112698870Y-98399294D01*
X112698873Y-98399287D01*
X112698875Y-98399283D01*
X112698878Y-98399278D01*
X112699549Y-98397877D01*
X112701811Y-98393761D01*
X112704035Y-98389579D01*
X112709663Y-98380138D01*
X112710477Y-98378794D01*
X112713148Y-98374893D01*
X112715751Y-98370976D01*
X112722274Y-98362130D01*
X112723215Y-98360872D01*
X112726256Y-98357249D01*
X112729213Y-98353623D01*
X112736560Y-98345462D01*
X112736568Y-98345453D01*
X112736578Y-98345443D01*
X112737626Y-98344294D01*
X112741035Y-98340955D01*
X112744313Y-98337654D01*
X112752430Y-98330242D01*
X112753598Y-98329190D01*
X112757293Y-98326219D01*
X112760900Y-98323235D01*
X112769698Y-98316653D01*
X112769704Y-98316648D01*
X112769717Y-98316640D01*
X112770965Y-98315719D01*
X112774899Y-98313144D01*
X112778817Y-98310502D01*
X112788217Y-98304809D01*
X112789567Y-98304005D01*
X112793779Y-98301803D01*
X112797875Y-98299588D01*
X112807786Y-98294838D01*
X112809208Y-98294169D01*
X112813565Y-98292408D01*
X112817931Y-98290573D01*
X112828260Y-98286814D01*
X112829740Y-98286287D01*
X112834274Y-98284953D01*
X112838760Y-98283564D01*
X112849405Y-98280831D01*
X112850930Y-98280451D01*
X112855621Y-98279556D01*
X112860164Y-98278623D01*
X112871025Y-98276941D01*
X112872580Y-98276712D01*
X112877266Y-98276285D01*
X112881967Y-98275791D01*
X112892941Y-98275178D01*
X112894510Y-98275101D01*
X112899257Y-98275135D01*
X112903924Y-98275102D01*
X112914905Y-98275562D01*
X112916474Y-98275638D01*
X112921163Y-98276131D01*
X112925857Y-98276558D01*
X112936741Y-98278088D01*
X112938295Y-98278318D01*
X112942897Y-98279263D01*
X112947529Y-98280146D01*
X112958212Y-98282730D01*
X112959736Y-98283110D01*
X112964258Y-98284510D01*
X112968763Y-98285836D01*
X112979143Y-98289450D01*
X112980623Y-98289978D01*
X112984944Y-98291794D01*
X112989327Y-98293565D01*
X112999305Y-98298175D01*
X113000726Y-98298844D01*
X113004882Y-98301091D01*
X113009051Y-98303270D01*
X113018531Y-98308832D01*
X113019880Y-98309636D01*
X113023817Y-98312291D01*
X113027724Y-98314848D01*
X113036616Y-98321308D01*
X113036624Y-98321313D01*
X113036637Y-98321324D01*
X113037881Y-98322240D01*
X113041524Y-98325253D01*
X113045189Y-98328201D01*
X113053408Y-98335499D01*
X113054576Y-98336550D01*
X113057915Y-98339913D01*
X113061253Y-98343181D01*
X113068721Y-98351245D01*
X113068727Y-98351251D01*
X113068733Y-98351258D01*
X113069781Y-98352405D01*
X113072767Y-98356066D01*
X113075792Y-98359671D01*
X113082437Y-98368426D01*
X113083378Y-98369684D01*
X113086006Y-98373640D01*
X113088642Y-98377489D01*
X113094402Y-98386851D01*
X113094403Y-98386852D01*
X113094406Y-98386857D01*
X113094410Y-98386864D01*
X113095216Y-98388195D01*
X113097417Y-98392334D01*
X113099701Y-98396489D01*
X113104513Y-98406358D01*
X113104517Y-98406365D01*
X113104521Y-98406374D01*
X113105197Y-98407784D01*
X113106989Y-98412133D01*
X113108847Y-98416467D01*
X113112678Y-98426768D01*
X113113215Y-98428244D01*
X113114581Y-98432768D01*
X113116001Y-98437243D01*
X113118809Y-98447870D01*
X113119200Y-98449392D01*
X113120126Y-98454066D01*
X113121095Y-98458627D01*
X113122851Y-98469472D01*
X113122852Y-98469475D01*
X113122852Y-98469479D01*
X113123093Y-98471029D01*
X113123555Y-98475742D01*
X113124077Y-98480397D01*
X113124767Y-98491367D01*
X113124855Y-98492935D01*
X113124855Y-98495300D01*
X113124986Y-98497641D01*
X113124997Y-98499212D01*
X113124997Y-98500000D01*
X113125000Y-98500000D01*
X113125000Y-99200000D01*
X112875000Y-99200000D01*
G37*
%TD*%
D27*
%TO.C,U5*%
X113100000Y-79942500D03*
X113100000Y-80577500D03*
X113100000Y-81212500D03*
X113100000Y-81847500D03*
X113100000Y-82482500D03*
X113100000Y-83117500D03*
X113100000Y-83752500D03*
X113100000Y-84387500D03*
X113100000Y-85022500D03*
X113100000Y-85657500D03*
X107900000Y-85657500D03*
X107900000Y-85022500D03*
X107900000Y-84387500D03*
X107900000Y-83752500D03*
X107900000Y-83117500D03*
X107900000Y-82482500D03*
X107900000Y-81847500D03*
X107900000Y-81212500D03*
X107900000Y-80577500D03*
X107900000Y-79942500D03*
%TD*%
D22*
%TO.C,U6*%
G36*
X92800000Y-65875000D02*
G01*
X93200000Y-65875000D01*
X93400000Y-65700000D01*
X93429500Y-65700000D01*
X93433241Y-65696949D01*
X93442396Y-65690866D01*
X93452100Y-65685706D01*
X93462263Y-65681519D01*
X93472785Y-65678342D01*
X93483567Y-65676207D01*
X93494505Y-65675134D01*
X93505497Y-65675134D01*
X93516474Y-65675671D01*
X93518043Y-65675759D01*
X93522734Y-65676285D01*
X93527416Y-65676744D01*
X93538289Y-65678350D01*
X93539842Y-65678591D01*
X93544470Y-65679575D01*
X93549067Y-65680485D01*
X93559723Y-65683142D01*
X93559733Y-65683144D01*
X93559744Y-65683147D01*
X93561253Y-65683534D01*
X93565770Y-65684967D01*
X93570255Y-65686321D01*
X93580609Y-65690008D01*
X93582086Y-65690545D01*
X93586428Y-65692406D01*
X93590760Y-65694191D01*
X93600706Y-65698870D01*
X93600713Y-65698873D01*
X93600717Y-65698875D01*
X93600722Y-65698878D01*
X93602123Y-65699549D01*
X93606239Y-65701811D01*
X93610421Y-65704035D01*
X93619862Y-65709663D01*
X93621206Y-65710477D01*
X93625107Y-65713148D01*
X93629024Y-65715751D01*
X93637870Y-65722274D01*
X93639128Y-65723215D01*
X93642751Y-65726256D01*
X93646377Y-65729213D01*
X93654538Y-65736560D01*
X93654547Y-65736568D01*
X93654557Y-65736578D01*
X93655706Y-65737626D01*
X93659045Y-65741035D01*
X93662346Y-65744313D01*
X93669758Y-65752430D01*
X93670810Y-65753598D01*
X93673781Y-65757293D01*
X93676765Y-65760900D01*
X93683347Y-65769698D01*
X93683352Y-65769704D01*
X93683360Y-65769717D01*
X93684281Y-65770965D01*
X93686856Y-65774899D01*
X93689498Y-65778817D01*
X93695191Y-65788217D01*
X93695995Y-65789567D01*
X93698197Y-65793779D01*
X93700412Y-65797875D01*
X93705162Y-65807786D01*
X93705831Y-65809208D01*
X93707592Y-65813565D01*
X93709427Y-65817931D01*
X93713186Y-65828260D01*
X93713713Y-65829740D01*
X93715047Y-65834274D01*
X93716436Y-65838760D01*
X93719169Y-65849405D01*
X93719549Y-65850930D01*
X93720444Y-65855621D01*
X93721377Y-65860164D01*
X93723059Y-65871025D01*
X93723288Y-65872580D01*
X93723715Y-65877266D01*
X93724209Y-65881967D01*
X93724822Y-65892941D01*
X93724899Y-65894510D01*
X93724865Y-65899257D01*
X93724898Y-65903924D01*
X93724438Y-65914905D01*
X93724362Y-65916474D01*
X93723869Y-65921163D01*
X93723442Y-65925857D01*
X93721912Y-65936741D01*
X93721682Y-65938295D01*
X93720737Y-65942897D01*
X93719854Y-65947529D01*
X93717270Y-65958212D01*
X93716890Y-65959736D01*
X93715490Y-65964258D01*
X93714164Y-65968763D01*
X93710550Y-65979143D01*
X93710022Y-65980623D01*
X93708206Y-65984944D01*
X93706435Y-65989327D01*
X93701825Y-65999305D01*
X93701156Y-66000726D01*
X93698909Y-66004882D01*
X93696730Y-66009051D01*
X93691168Y-66018531D01*
X93690364Y-66019880D01*
X93687709Y-66023817D01*
X93685152Y-66027724D01*
X93678692Y-66036616D01*
X93678687Y-66036624D01*
X93678676Y-66036637D01*
X93677760Y-66037881D01*
X93674747Y-66041524D01*
X93671799Y-66045189D01*
X93664501Y-66053408D01*
X93663450Y-66054576D01*
X93660087Y-66057915D01*
X93656819Y-66061253D01*
X93648755Y-66068721D01*
X93648749Y-66068727D01*
X93648742Y-66068733D01*
X93647595Y-66069781D01*
X93643934Y-66072767D01*
X93640329Y-66075792D01*
X93631574Y-66082437D01*
X93630316Y-66083378D01*
X93626360Y-66086006D01*
X93622511Y-66088642D01*
X93613149Y-66094402D01*
X93613148Y-66094403D01*
X93613143Y-66094406D01*
X93613136Y-66094410D01*
X93611805Y-66095216D01*
X93607666Y-66097417D01*
X93603511Y-66099701D01*
X93593642Y-66104513D01*
X93593635Y-66104517D01*
X93593626Y-66104521D01*
X93592216Y-66105197D01*
X93587867Y-66106989D01*
X93583533Y-66108847D01*
X93573232Y-66112678D01*
X93571756Y-66113215D01*
X93567232Y-66114581D01*
X93562757Y-66116001D01*
X93552130Y-66118809D01*
X93550608Y-66119200D01*
X93545934Y-66120126D01*
X93541373Y-66121095D01*
X93530528Y-66122851D01*
X93530525Y-66122852D01*
X93530521Y-66122852D01*
X93528971Y-66123093D01*
X93524258Y-66123555D01*
X93519603Y-66124077D01*
X93508633Y-66124767D01*
X93507065Y-66124855D01*
X93504700Y-66124855D01*
X93502359Y-66124986D01*
X93500788Y-66124997D01*
X93500000Y-66124997D01*
X93500000Y-66125000D01*
X92800000Y-66125000D01*
X92800000Y-65875000D01*
G37*
G36*
X96800000Y-65875000D02*
G01*
X97200000Y-65875000D01*
X97400000Y-65700000D01*
X97429500Y-65700000D01*
X97433241Y-65696949D01*
X97442396Y-65690866D01*
X97452100Y-65685706D01*
X97462263Y-65681519D01*
X97472785Y-65678342D01*
X97483567Y-65676207D01*
X97494505Y-65675134D01*
X97505497Y-65675134D01*
X97516474Y-65675671D01*
X97518043Y-65675759D01*
X97522734Y-65676285D01*
X97527416Y-65676744D01*
X97538289Y-65678350D01*
X97539842Y-65678591D01*
X97544470Y-65679575D01*
X97549067Y-65680485D01*
X97559723Y-65683142D01*
X97559733Y-65683144D01*
X97559744Y-65683147D01*
X97561253Y-65683534D01*
X97565770Y-65684967D01*
X97570255Y-65686321D01*
X97580609Y-65690008D01*
X97582086Y-65690545D01*
X97586428Y-65692406D01*
X97590760Y-65694191D01*
X97600706Y-65698870D01*
X97600713Y-65698873D01*
X97600717Y-65698875D01*
X97600722Y-65698878D01*
X97602123Y-65699549D01*
X97606239Y-65701811D01*
X97610421Y-65704035D01*
X97619862Y-65709663D01*
X97621206Y-65710477D01*
X97625107Y-65713148D01*
X97629024Y-65715751D01*
X97637870Y-65722274D01*
X97639128Y-65723215D01*
X97642751Y-65726256D01*
X97646377Y-65729213D01*
X97654538Y-65736560D01*
X97654547Y-65736568D01*
X97654557Y-65736578D01*
X97655706Y-65737626D01*
X97659045Y-65741035D01*
X97662346Y-65744313D01*
X97669758Y-65752430D01*
X97670810Y-65753598D01*
X97673781Y-65757293D01*
X97676765Y-65760900D01*
X97683347Y-65769698D01*
X97683352Y-65769704D01*
X97683360Y-65769717D01*
X97684281Y-65770965D01*
X97686856Y-65774899D01*
X97689498Y-65778817D01*
X97695191Y-65788217D01*
X97695995Y-65789567D01*
X97698197Y-65793779D01*
X97700412Y-65797875D01*
X97705162Y-65807786D01*
X97705831Y-65809208D01*
X97707592Y-65813565D01*
X97709427Y-65817931D01*
X97713186Y-65828260D01*
X97713713Y-65829740D01*
X97715047Y-65834274D01*
X97716436Y-65838760D01*
X97719169Y-65849405D01*
X97719549Y-65850930D01*
X97720444Y-65855621D01*
X97721377Y-65860164D01*
X97723059Y-65871025D01*
X97723288Y-65872580D01*
X97723715Y-65877266D01*
X97724209Y-65881967D01*
X97724822Y-65892941D01*
X97724899Y-65894510D01*
X97724865Y-65899257D01*
X97724898Y-65903924D01*
X97724438Y-65914905D01*
X97724362Y-65916474D01*
X97723869Y-65921163D01*
X97723442Y-65925857D01*
X97721912Y-65936741D01*
X97721682Y-65938295D01*
X97720737Y-65942897D01*
X97719854Y-65947529D01*
X97717270Y-65958212D01*
X97716890Y-65959736D01*
X97715490Y-65964258D01*
X97714164Y-65968763D01*
X97710550Y-65979143D01*
X97710022Y-65980623D01*
X97708206Y-65984944D01*
X97706435Y-65989327D01*
X97701825Y-65999305D01*
X97701156Y-66000726D01*
X97698909Y-66004882D01*
X97696730Y-66009051D01*
X97691168Y-66018531D01*
X97690364Y-66019880D01*
X97687709Y-66023817D01*
X97685152Y-66027724D01*
X97678692Y-66036616D01*
X97678687Y-66036624D01*
X97678676Y-66036637D01*
X97677760Y-66037881D01*
X97674747Y-66041524D01*
X97671799Y-66045189D01*
X97664501Y-66053408D01*
X97663450Y-66054576D01*
X97660087Y-66057915D01*
X97656819Y-66061253D01*
X97648755Y-66068721D01*
X97648749Y-66068727D01*
X97648742Y-66068733D01*
X97647595Y-66069781D01*
X97643934Y-66072767D01*
X97640329Y-66075792D01*
X97631574Y-66082437D01*
X97630316Y-66083378D01*
X97626360Y-66086006D01*
X97622511Y-66088642D01*
X97613149Y-66094402D01*
X97613148Y-66094403D01*
X97613143Y-66094406D01*
X97613136Y-66094410D01*
X97611805Y-66095216D01*
X97607666Y-66097417D01*
X97603511Y-66099701D01*
X97593642Y-66104513D01*
X97593635Y-66104517D01*
X97593626Y-66104521D01*
X97592216Y-66105197D01*
X97587867Y-66106989D01*
X97583533Y-66108847D01*
X97573232Y-66112678D01*
X97571756Y-66113215D01*
X97567232Y-66114581D01*
X97562757Y-66116001D01*
X97552130Y-66118809D01*
X97550608Y-66119200D01*
X97545934Y-66120126D01*
X97541373Y-66121095D01*
X97530528Y-66122851D01*
X97530525Y-66122852D01*
X97530521Y-66122852D01*
X97528971Y-66123093D01*
X97524258Y-66123555D01*
X97519603Y-66124077D01*
X97508633Y-66124767D01*
X97507065Y-66124855D01*
X97504700Y-66124855D01*
X97502359Y-66124986D01*
X97500788Y-66124997D01*
X97500000Y-66124997D01*
X97500000Y-66125000D01*
X96800000Y-66125000D01*
X96800000Y-65875000D01*
G37*
G36*
X97539775Y-68324855D02*
G01*
X97539174Y-68324855D01*
X97538379Y-68324777D01*
X97531343Y-68324384D01*
X97520481Y-68322703D01*
X97509835Y-68319970D01*
X97499507Y-68316211D01*
X97489595Y-68311462D01*
X97480193Y-68305768D01*
X97472482Y-68300000D01*
X97443100Y-68300000D01*
X97193100Y-68125000D01*
X96843100Y-68125000D01*
X96843100Y-67875000D01*
X97543100Y-67875000D01*
X97543100Y-67875134D01*
X97548597Y-67875134D01*
X97559574Y-67875671D01*
X97561143Y-67875759D01*
X97565834Y-67876285D01*
X97570516Y-67876744D01*
X97581389Y-67878350D01*
X97582942Y-67878591D01*
X97587570Y-67879575D01*
X97592167Y-67880485D01*
X97602823Y-67883142D01*
X97602833Y-67883144D01*
X97602844Y-67883147D01*
X97604353Y-67883534D01*
X97608870Y-67884967D01*
X97613355Y-67886321D01*
X97623709Y-67890008D01*
X97625186Y-67890545D01*
X97629528Y-67892406D01*
X97633860Y-67894191D01*
X97643806Y-67898870D01*
X97643813Y-67898873D01*
X97643817Y-67898875D01*
X97643822Y-67898878D01*
X97645223Y-67899549D01*
X97649339Y-67901811D01*
X97653521Y-67904035D01*
X97662962Y-67909663D01*
X97664306Y-67910477D01*
X97668207Y-67913148D01*
X97672124Y-67915751D01*
X97680970Y-67922274D01*
X97682228Y-67923215D01*
X97685851Y-67926256D01*
X97689477Y-67929213D01*
X97697638Y-67936560D01*
X97697647Y-67936568D01*
X97697657Y-67936578D01*
X97698806Y-67937626D01*
X97702145Y-67941035D01*
X97705446Y-67944313D01*
X97712858Y-67952430D01*
X97713910Y-67953598D01*
X97716881Y-67957293D01*
X97719865Y-67960900D01*
X97726447Y-67969698D01*
X97726452Y-67969704D01*
X97726460Y-67969717D01*
X97727381Y-67970965D01*
X97729956Y-67974899D01*
X97732598Y-67978817D01*
X97738291Y-67988217D01*
X97739095Y-67989567D01*
X97741297Y-67993779D01*
X97743512Y-67997875D01*
X97748262Y-68007786D01*
X97748931Y-68009208D01*
X97750692Y-68013565D01*
X97752527Y-68017931D01*
X97756286Y-68028260D01*
X97756813Y-68029740D01*
X97758147Y-68034274D01*
X97759536Y-68038760D01*
X97762269Y-68049405D01*
X97762649Y-68050930D01*
X97763544Y-68055621D01*
X97764477Y-68060164D01*
X97766159Y-68071025D01*
X97766388Y-68072580D01*
X97766815Y-68077266D01*
X97767309Y-68081967D01*
X97767922Y-68092941D01*
X97767999Y-68094510D01*
X97767965Y-68099257D01*
X97767998Y-68103924D01*
X97767538Y-68114905D01*
X97767462Y-68116474D01*
X97766969Y-68121163D01*
X97766542Y-68125857D01*
X97765012Y-68136741D01*
X97764782Y-68138295D01*
X97763837Y-68142897D01*
X97762954Y-68147529D01*
X97760370Y-68158212D01*
X97759990Y-68159736D01*
X97758590Y-68164258D01*
X97757264Y-68168763D01*
X97753650Y-68179143D01*
X97753122Y-68180623D01*
X97751306Y-68184944D01*
X97749535Y-68189327D01*
X97744925Y-68199305D01*
X97744256Y-68200726D01*
X97742009Y-68204882D01*
X97739830Y-68209051D01*
X97734268Y-68218531D01*
X97733464Y-68219880D01*
X97730809Y-68223817D01*
X97728252Y-68227724D01*
X97721792Y-68236616D01*
X97721787Y-68236624D01*
X97721776Y-68236637D01*
X97720860Y-68237881D01*
X97717847Y-68241524D01*
X97714899Y-68245189D01*
X97707601Y-68253408D01*
X97706550Y-68254576D01*
X97703187Y-68257915D01*
X97699919Y-68261253D01*
X97691855Y-68268721D01*
X97691849Y-68268727D01*
X97691842Y-68268733D01*
X97690695Y-68269781D01*
X97687034Y-68272767D01*
X97683429Y-68275792D01*
X97674674Y-68282437D01*
X97673416Y-68283378D01*
X97669460Y-68286006D01*
X97665611Y-68288642D01*
X97656249Y-68294402D01*
X97656248Y-68294403D01*
X97656243Y-68294406D01*
X97656236Y-68294410D01*
X97654905Y-68295216D01*
X97650766Y-68297417D01*
X97646611Y-68299701D01*
X97636742Y-68304513D01*
X97636735Y-68304517D01*
X97636726Y-68304521D01*
X97635316Y-68305197D01*
X97630967Y-68306989D01*
X97626633Y-68308847D01*
X97616332Y-68312678D01*
X97614856Y-68313215D01*
X97610332Y-68314581D01*
X97605857Y-68316001D01*
X97595230Y-68318809D01*
X97593708Y-68319200D01*
X97589034Y-68320126D01*
X97584473Y-68321095D01*
X97573628Y-68322851D01*
X97573625Y-68322852D01*
X97573621Y-68322852D01*
X97572071Y-68323093D01*
X97567358Y-68323555D01*
X97562703Y-68324077D01*
X97551733Y-68324767D01*
X97550165Y-68324855D01*
X97547800Y-68324855D01*
X97545459Y-68324986D01*
X97543888Y-68324997D01*
X97542317Y-68324997D01*
X97539775Y-68324855D01*
G37*
D21*
X95000000Y-67000000D03*
D20*
X95000000Y-67000000D03*
D19*
X93550000Y-66000000D03*
X93550000Y-66500000D03*
X93550000Y-67000000D03*
X93550000Y-67500000D03*
X93550000Y-68000000D03*
X96450000Y-68000000D03*
X96450000Y-67500000D03*
X96450000Y-67000000D03*
X96450000Y-66500000D03*
X96450000Y-66000000D03*
%TD*%
D28*
%TO.C,U8*%
X105755000Y-79000000D03*
%TD*%
D29*
%TO.C,U9*%
X102450000Y-63750000D03*
X102450000Y-63250000D03*
X102450000Y-62750000D03*
X102450000Y-62250000D03*
X105550000Y-62250000D03*
X105550000Y-62750000D03*
X105550000Y-63250000D03*
X105550000Y-63750000D03*
%TD*%
D14*
%TO.C,J15*%
X66280000Y-60000000D03*
X68820000Y-60000000D03*
X71360000Y-60000000D03*
D13*
X73900000Y-60000000D03*
%TD*%
%TO.C,J16*%
X107900000Y-60000000D03*
D14*
X105360000Y-60000000D03*
X102820000Y-60000000D03*
X100280000Y-60000000D03*
%TD*%
M02*
