%TF.GenerationSoftware,KiCad,Pcbnew,(5.1.6)-1*%
%TF.CreationDate,2020-11-04T17:06:36+09:00*%
%TF.ProjectId,schematic,73636865-6d61-4746-9963-2e6b69636164,rev?*%
%TF.SameCoordinates,Original*%
%TF.FileFunction,Legend,Top*%
%TF.FilePolarity,Positive*%
%FSLAX46Y46*%
G04 Gerber Fmt 4.6, Leading zero omitted, Abs format (unit mm)*
G04 Created by KiCad (PCBNEW (5.1.6)-1) date 2020-11-04 17:06:36*
%MOMM*%
%LPD*%
G01*
G04 APERTURE LIST*
%ADD10C,0.150000*%
%ADD11C,0.100000*%
%ADD12C,0.120000*%
G04 APERTURE END LIST*
D10*
X74458467Y-65870000D02*
G75*
G03*
X74458467Y-65870000I-488467J0D01*
G01*
D11*
X92228571Y-97289285D02*
X92657142Y-97289285D01*
X92442857Y-98039285D02*
X92442857Y-97289285D01*
X92835714Y-97289285D02*
X93335714Y-98039285D01*
X93335714Y-97289285D02*
X92835714Y-98039285D01*
X91075000Y-98039285D02*
X90825000Y-97682142D01*
X90646428Y-98039285D02*
X90646428Y-97289285D01*
X90932142Y-97289285D01*
X91003571Y-97325000D01*
X91039285Y-97360714D01*
X91075000Y-97432142D01*
X91075000Y-97539285D01*
X91039285Y-97610714D01*
X91003571Y-97646428D01*
X90932142Y-97682142D01*
X90646428Y-97682142D01*
X91325000Y-97289285D02*
X91825000Y-98039285D01*
X91825000Y-97289285D02*
X91325000Y-98039285D01*
D10*
X88500000Y-76000000D02*
X88500000Y-76500000D01*
X88250000Y-76250000D02*
X88750000Y-76250000D01*
X74750000Y-90750000D02*
X74750000Y-91750000D01*
X74750000Y-91250000D02*
X74000000Y-91750000D01*
X74000000Y-90750000D02*
X74750000Y-91250000D01*
X74000000Y-91750000D02*
X74000000Y-90750000D01*
X73000000Y-89750000D02*
X73000000Y-90750000D01*
X72500000Y-90250000D02*
X73500000Y-90250000D01*
X61710000Y-91600000D02*
X60960000Y-92100000D01*
X61710000Y-92600000D02*
X61710000Y-91600000D01*
X60960000Y-92100000D02*
X61710000Y-92600000D01*
X60960000Y-92600000D02*
X60960000Y-91600000D01*
X73250000Y-77750000D02*
X73750000Y-77250000D01*
X73250000Y-76750000D02*
X73250000Y-77750000D01*
X73750000Y-77250000D02*
X73250000Y-76750000D01*
X73750000Y-76750000D02*
X73750000Y-77750000D01*
X73750000Y-82250000D02*
X73750000Y-83250000D01*
X73750000Y-82750000D02*
X73250000Y-82250000D01*
X73250000Y-83250000D02*
X73750000Y-82750000D01*
X73250000Y-82250000D02*
X73250000Y-83250000D01*
X70500000Y-80750000D02*
X71500000Y-80750000D01*
X71000000Y-80750000D02*
X70500000Y-81250000D01*
X71500000Y-81250000D02*
X71000000Y-80750000D01*
X70500000Y-81250000D02*
X71500000Y-81250000D01*
X70500000Y-79250000D02*
X71500000Y-79250000D01*
X71000000Y-79250000D02*
X70500000Y-78750000D01*
X71500000Y-78750000D02*
X71000000Y-79250000D01*
X70500000Y-78750000D02*
X71500000Y-78750000D01*
X62853553Y-68250000D02*
G75*
G03*
X62853553Y-68250000I-353553J0D01*
G01*
X57500000Y-62500000D02*
X57500000Y-63500000D01*
X57500000Y-63000000D02*
X57000000Y-62500000D01*
X57000000Y-63500000D02*
X57500000Y-63000000D01*
X57000000Y-62500000D02*
X57000000Y-63500000D01*
X63750000Y-61500000D02*
X63250000Y-61000000D01*
X63750000Y-60500000D02*
X63750000Y-61500000D01*
X63250000Y-61000000D02*
X63750000Y-60500000D01*
X63250000Y-60500000D02*
X63250000Y-61500000D01*
X71300000Y-60000001D02*
X68760000Y-60000001D01*
X116730000Y-63730000D02*
X116730000Y-66270000D01*
X119270000Y-96269999D02*
X116730000Y-93729999D01*
X104000000Y-99499999D02*
X104000000Y-100769999D01*
X91270000Y-66270000D02*
X88730000Y-63730000D01*
X107810000Y-100769999D02*
X107810000Y-98229999D01*
X101490000Y-58730001D02*
X101490000Y-61270001D01*
X116730000Y-93729999D02*
X116730000Y-96269999D01*
X103260000Y-60000001D02*
G75*
G03*
X103260000Y-60000001I-500000J0D01*
G01*
X119270000Y-93729999D02*
X118000000Y-93729999D01*
X90500000Y-65000000D02*
G75*
G03*
X90500000Y-65000000I-500000J0D01*
G01*
X118500000Y-94999999D02*
G75*
G03*
X118500000Y-94999999I-500000J0D01*
G01*
X88730000Y-66270000D02*
X91270000Y-66270000D01*
X104000000Y-99499999D02*
X104000000Y-98229999D01*
X107040000Y-99499999D02*
G75*
G03*
X107040000Y-99499999I-500000J0D01*
G01*
X91270000Y-63730000D02*
X90000000Y-63730000D01*
X119270000Y-96269999D02*
X119270000Y-93729999D01*
X107810000Y-98229999D02*
X104000000Y-98229999D01*
X90000000Y-63730000D02*
X88730000Y-63730000D01*
X91270000Y-63730000D02*
X88730000Y-66270000D01*
X104000000Y-99499999D02*
X106540000Y-99499999D01*
X105300000Y-58730001D02*
X101490000Y-58730001D01*
X119270000Y-93729999D02*
X116730000Y-96269999D01*
X118000000Y-93729999D02*
X116730000Y-93729999D01*
X104500000Y-99499999D02*
G75*
G03*
X104500000Y-99499999I-500000J0D01*
G01*
X88730000Y-63730000D02*
X88730000Y-66270000D01*
X91270000Y-66270000D02*
X91270000Y-63730000D01*
X106570000Y-61270001D02*
X106570000Y-58730001D01*
X119270000Y-66270000D02*
X116730000Y-63730000D01*
X104030000Y-61270001D02*
X104030000Y-58730001D01*
X119270000Y-63730000D02*
X118000000Y-63730000D01*
X116730000Y-66270000D02*
X119270000Y-66270000D01*
X116730000Y-66270000D02*
X119270000Y-63730000D01*
X106570000Y-58730001D02*
X105300000Y-58730001D01*
X118000000Y-63730000D02*
X116730000Y-63730000D01*
X119270000Y-66270000D02*
X119270000Y-63730000D01*
X91270000Y-96269999D02*
X91270000Y-93729999D01*
X91270000Y-93729999D02*
X90000000Y-93729999D01*
X101960000Y-99499999D02*
G75*
G03*
X101960000Y-99499999I-500000J0D01*
G01*
X104000000Y-99499999D02*
X101460000Y-99499999D01*
X88730000Y-96269999D02*
X91270000Y-96269999D01*
X104000000Y-98229999D02*
X100190000Y-98229999D01*
X88730000Y-93729999D02*
X91270000Y-96269999D01*
X90500000Y-94999999D02*
G75*
G03*
X90500000Y-94999999I-500000J0D01*
G01*
X90000000Y-93729999D02*
X88730000Y-93729999D01*
X105300000Y-60000001D02*
X102760000Y-60000001D01*
X91270000Y-93729999D02*
X88730000Y-96269999D01*
X116730000Y-96269999D02*
X119270000Y-96269999D01*
X100190000Y-100769999D02*
X107810000Y-100769999D01*
X100190000Y-98229999D02*
X100190000Y-100769999D01*
X88730000Y-93729999D02*
X88730000Y-96269999D01*
X101490000Y-61270001D02*
X106570000Y-61270001D01*
X118500000Y-65000000D02*
G75*
G03*
X118500000Y-65000000I-500000J0D01*
G01*
X105800000Y-60000001D02*
G75*
G03*
X105800000Y-60000001I-500000J0D01*
G01*
X57270001Y-93729999D02*
X54730001Y-96269999D01*
X54730000Y-93729999D02*
X57270001Y-96269999D01*
X85270000Y-93729999D02*
X82730000Y-96269999D01*
X85270000Y-96269999D02*
X82730000Y-93729999D01*
X85270000Y-66270000D02*
X82730000Y-63730000D01*
X82730000Y-66270000D02*
X85270000Y-63730000D01*
X57270001Y-66270000D02*
X54730000Y-63730000D01*
X57270001Y-63730000D02*
X54730001Y-66270000D01*
X70000000Y-99499999D02*
X70000000Y-100769999D01*
X70030000Y-61270001D02*
X70030000Y-58730001D01*
X82730000Y-93729999D02*
X82730000Y-96269999D01*
X82730000Y-96269999D02*
X85270000Y-96269999D01*
X54730001Y-96269999D02*
X57270001Y-96269999D01*
X54730000Y-93729999D02*
X54730001Y-96269999D01*
X57270001Y-96269999D02*
X57270001Y-93729999D01*
X84000000Y-93729999D02*
X82730000Y-93729999D01*
X85270000Y-93729999D02*
X84000000Y-93729999D01*
X85270000Y-96269999D02*
X85270000Y-93729999D01*
X56000000Y-93729999D02*
X54730000Y-93729999D01*
X57270001Y-93729999D02*
X56000000Y-93729999D01*
X56500000Y-94999999D02*
G75*
G03*
X56500000Y-94999999I-500000J0D01*
G01*
X84500000Y-94999999D02*
G75*
G03*
X84500000Y-94999999I-500000J0D01*
G01*
X70000000Y-99499999D02*
X67460000Y-99499999D01*
X67960000Y-99499999D02*
G75*
G03*
X67960000Y-99499999I-500000J0D01*
G01*
X70000000Y-99499999D02*
X72539999Y-99499999D01*
X70000000Y-99499999D02*
X70000000Y-98229999D01*
X70499999Y-99499999D02*
G75*
G03*
X70499999Y-99499999I-499999J0D01*
G01*
X73040000Y-99499999D02*
G75*
G03*
X73040000Y-99499999I-500001J0D01*
G01*
X70000000Y-98229999D02*
X73810000Y-98229999D01*
X66190001Y-98229999D02*
X70000000Y-98229999D01*
X66190001Y-100769999D02*
X66190001Y-98229999D01*
X73810000Y-100769999D02*
X66190001Y-100769999D01*
X73810000Y-98229999D02*
X73810000Y-100769999D01*
X57270001Y-63730000D02*
X56000000Y-63730000D01*
X57270001Y-66270000D02*
X57270001Y-63730000D01*
X56000000Y-63730000D02*
X54730000Y-63730000D01*
X54730000Y-63730000D02*
X54730001Y-66270000D01*
X56500000Y-65000000D02*
G75*
G03*
X56500000Y-65000000I-500000J0D01*
G01*
X54730001Y-66270000D02*
X57270001Y-66270000D01*
X85270000Y-63730000D02*
X84000000Y-63730000D01*
X85270000Y-66270000D02*
X85270000Y-63730000D01*
X84000000Y-63730000D02*
X82730000Y-63730000D01*
X82730000Y-63730000D02*
X82730000Y-66270000D01*
X84500000Y-65000000D02*
G75*
G03*
X84500000Y-65000000I-500000J0D01*
G01*
X82730000Y-66270000D02*
X85270000Y-66270000D01*
X71800000Y-60000001D02*
G75*
G03*
X71800000Y-60000001I-500000J0D01*
G01*
X69260000Y-60000001D02*
G75*
G03*
X69260000Y-60000001I-500000J0D01*
G01*
X67490001Y-61270001D02*
X67490000Y-58730001D01*
X72570000Y-61270001D02*
X67490001Y-61270001D01*
X72570000Y-58730001D02*
X72570000Y-61270001D01*
X71299999Y-58730001D02*
X72570000Y-58730001D01*
X67490000Y-58730001D02*
X71299999Y-58730001D01*
D12*
%TO.C,J5*%
X75330000Y-70670000D02*
X75330000Y-72000000D01*
X74000000Y-70670000D02*
X75330000Y-70670000D01*
X72730000Y-70670000D02*
X72730000Y-73330000D01*
X72730000Y-73330000D02*
X65050000Y-73330000D01*
X72730000Y-70670000D02*
X65050000Y-70670000D01*
X65050000Y-70670000D02*
X65050000Y-73330000D01*
%TO.C,BT1*%
X72360000Y-92110000D02*
X72360000Y-90860000D01*
X71110000Y-92110000D02*
X72360000Y-92110000D01*
X69000000Y-87700000D02*
X69000000Y-88200000D01*
X68900000Y-88200000D02*
X68900000Y-87700000D01*
X69100000Y-88200000D02*
X68900000Y-88200000D01*
X69100000Y-87700000D02*
X69100000Y-88200000D01*
X65940000Y-89200000D02*
X66550000Y-89200000D01*
X65940000Y-90500000D02*
X66550000Y-90500000D01*
X72060000Y-89200000D02*
X71450000Y-89200000D01*
X72060000Y-90500000D02*
X71450000Y-90500000D01*
X68500000Y-91200000D02*
X68500000Y-91810000D01*
X66550000Y-91200000D02*
X68500000Y-91200000D01*
X66550000Y-87700000D02*
X66550000Y-91200000D01*
X71450000Y-87700000D02*
X66550000Y-87700000D01*
X71450000Y-91200000D02*
X71450000Y-87700000D01*
X69500000Y-91200000D02*
X71450000Y-91200000D01*
X69500000Y-91810000D02*
X69500000Y-91200000D01*
X70300000Y-91910000D02*
X70600000Y-91910000D01*
X70600000Y-92010000D02*
X70600000Y-91810000D01*
X70300000Y-92010000D02*
X70600000Y-92010000D01*
X70300000Y-91810000D02*
X70300000Y-92010000D01*
X65940000Y-91810000D02*
X72060000Y-91810000D01*
X65940000Y-87090000D02*
X65940000Y-91810000D01*
X72060000Y-87090000D02*
X65940000Y-87090000D01*
X72060000Y-91810000D02*
X72060000Y-87090000D01*
%TO.C,C3*%
X65160000Y-91302064D02*
X65160000Y-90097936D01*
X62440000Y-91302064D02*
X62440000Y-90097936D01*
%TO.C,C25*%
X66290000Y-63428733D02*
X66290000Y-63771267D01*
X67310000Y-63428733D02*
X67310000Y-63771267D01*
%TO.C,D1*%
X57650000Y-92800000D02*
X57650000Y-94800000D01*
X57650000Y-94800000D02*
X61500000Y-94800000D01*
X57650000Y-92800000D02*
X61500000Y-92800000D01*
%TO.C,D3*%
X70165000Y-76100000D02*
X70165000Y-78560000D01*
X70165000Y-78560000D02*
X71635000Y-78560000D01*
X71635000Y-78560000D02*
X71635000Y-76100000D01*
%TO.C,D4*%
X73550000Y-93385000D02*
X76010000Y-93385000D01*
X76010000Y-93385000D02*
X76010000Y-91915000D01*
X76010000Y-91915000D02*
X73550000Y-91915000D01*
%TO.C,D5*%
X70165000Y-81440000D02*
X70165000Y-83900000D01*
X71635000Y-81440000D02*
X70165000Y-81440000D01*
X71635000Y-83900000D02*
X71635000Y-81440000D01*
%TO.C,D7*%
X74100000Y-84835000D02*
X76560000Y-84835000D01*
X76560000Y-84835000D02*
X76560000Y-83365000D01*
X76560000Y-83365000D02*
X74100000Y-83365000D01*
%TO.C,D8*%
X61460000Y-62265000D02*
X59000000Y-62265000D01*
X61460000Y-63735000D02*
X61460000Y-62265000D01*
X59000000Y-63735000D02*
X61460000Y-63735000D01*
%TO.C,D9*%
X61040000Y-60335000D02*
X63500000Y-60335000D01*
X61040000Y-58865000D02*
X61040000Y-60335000D01*
X63500000Y-58865000D02*
X61040000Y-58865000D01*
%TO.C,D10*%
X76460000Y-75165000D02*
X74000000Y-75165000D01*
X76460000Y-76635000D02*
X76460000Y-75165000D01*
X74000000Y-76635000D02*
X76460000Y-76635000D01*
%TO.C,F1*%
X71913748Y-97160000D02*
X74686252Y-97160000D01*
X71913748Y-93740000D02*
X74686252Y-93740000D01*
D10*
%TO.C,IC1*%
X62325000Y-67375000D02*
X63250000Y-67375000D01*
X62325000Y-64275000D02*
X59075000Y-64275000D01*
X62325000Y-67525000D02*
X59075000Y-67525000D01*
X62325000Y-64275000D02*
X62325000Y-64522500D01*
X59075000Y-64275000D02*
X59075000Y-64522500D01*
X59075000Y-67525000D02*
X59075000Y-67277500D01*
X62325000Y-67525000D02*
X62325000Y-67375000D01*
D12*
%TO.C,J1*%
X77670000Y-61430000D02*
X77670000Y-60100000D01*
X79000000Y-61430000D02*
X77670000Y-61430000D01*
X80270000Y-61430000D02*
X80270000Y-58770000D01*
X80270000Y-58770000D02*
X85410000Y-58770000D01*
X80270000Y-61430000D02*
X85410000Y-61430000D01*
X85410000Y-61430000D02*
X85410000Y-58770000D01*
%TO.C,J3*%
X73870000Y-98170000D02*
X73870000Y-99500000D01*
X72540000Y-98170000D02*
X73870000Y-98170000D01*
X71270000Y-98170000D02*
X71270000Y-100830000D01*
X71270000Y-100830000D02*
X66130000Y-100830000D01*
X71270000Y-98170000D02*
X66130000Y-98170000D01*
X66130000Y-98170000D02*
X66130000Y-100830000D01*
%TO.C,J4*%
X98970000Y-99500000D02*
X98970000Y-100830000D01*
X98970000Y-100830000D02*
X97640000Y-100830000D01*
X96370000Y-100830000D02*
X88690000Y-100830000D01*
X88690000Y-98170000D02*
X88690000Y-100830000D01*
X96370000Y-98170000D02*
X88690000Y-98170000D01*
X96370000Y-98170000D02*
X96370000Y-100830000D01*
%TO.C,J6*%
X109510000Y-94730000D02*
X109510000Y-92070000D01*
X99290000Y-94730000D02*
X109510000Y-94730000D01*
X99290000Y-92070000D02*
X109510000Y-92070000D01*
X99290000Y-94730000D02*
X99290000Y-92070000D01*
X98020000Y-94730000D02*
X96690000Y-94730000D01*
X96690000Y-94730000D02*
X96690000Y-93400000D01*
%TO.C,J7*%
X83730000Y-86410000D02*
X82400000Y-86410000D01*
X83730000Y-85080000D02*
X83730000Y-86410000D01*
X83730000Y-83810000D02*
X81070000Y-83810000D01*
X81070000Y-83810000D02*
X81070000Y-73590000D01*
X83730000Y-83810000D02*
X83730000Y-73590000D01*
X83730000Y-73590000D02*
X81070000Y-73590000D01*
%TO.C,J8*%
X100030000Y-98170000D02*
X100030000Y-100830000D01*
X105170000Y-98170000D02*
X100030000Y-98170000D01*
X105170000Y-100830000D02*
X100030000Y-100830000D01*
X105170000Y-98170000D02*
X105170000Y-100830000D01*
X106440000Y-98170000D02*
X107770000Y-98170000D01*
X107770000Y-98170000D02*
X107770000Y-99500000D01*
%TO.C,J9*%
X88670000Y-63670000D02*
X90000000Y-63670000D01*
X88670000Y-65000000D02*
X88670000Y-63670000D01*
X88670000Y-66270000D02*
X91330000Y-66270000D01*
X91330000Y-66270000D02*
X91330000Y-66330000D01*
X88670000Y-66270000D02*
X88670000Y-66330000D01*
X88670000Y-66330000D02*
X91330000Y-66330000D01*
%TO.C,J10*%
X54670000Y-66330000D02*
X57330000Y-66330000D01*
X54670000Y-66270000D02*
X54670000Y-66330000D01*
X57330000Y-66270000D02*
X57330000Y-66330000D01*
X54670000Y-66270000D02*
X57330000Y-66270000D01*
X54670000Y-65000000D02*
X54670000Y-63670000D01*
X54670000Y-63670000D02*
X56000000Y-63670000D01*
%TO.C,J11*%
X54660000Y-93660000D02*
X55990000Y-93660000D01*
X54660000Y-94990000D02*
X54660000Y-93660000D01*
X54660000Y-96260000D02*
X57320000Y-96260000D01*
X57320000Y-96260000D02*
X57320000Y-96320000D01*
X54660000Y-96260000D02*
X54660000Y-96320000D01*
X54660000Y-96320000D02*
X57320000Y-96320000D01*
%TO.C,J12*%
X82670000Y-93670000D02*
X84000000Y-93670000D01*
X82670000Y-95000000D02*
X82670000Y-93670000D01*
X82670000Y-96270000D02*
X85330000Y-96270000D01*
X85330000Y-96270000D02*
X85330000Y-96330000D01*
X82670000Y-96270000D02*
X82670000Y-96330000D01*
X82670000Y-96330000D02*
X85330000Y-96330000D01*
%TO.C,J13*%
X116670000Y-96330000D02*
X119330000Y-96330000D01*
X116670000Y-96270000D02*
X116670000Y-96330000D01*
X119330000Y-96270000D02*
X119330000Y-96330000D01*
X116670000Y-96270000D02*
X119330000Y-96270000D01*
X116670000Y-95000000D02*
X116670000Y-93670000D01*
X116670000Y-93670000D02*
X118000000Y-93670000D01*
%TO.C,J14*%
X88670000Y-96330000D02*
X91330000Y-96330000D01*
X88670000Y-96270000D02*
X88670000Y-96330000D01*
X91330000Y-96270000D02*
X91330000Y-96330000D01*
X88670000Y-96270000D02*
X91330000Y-96270000D01*
X88670000Y-95000000D02*
X88670000Y-93670000D01*
X88670000Y-93670000D02*
X90000000Y-93670000D01*
%TO.C,J17*%
X116670000Y-66330000D02*
X119330000Y-66330000D01*
X116670000Y-66270000D02*
X116670000Y-66330000D01*
X119330000Y-66270000D02*
X119330000Y-66330000D01*
X116670000Y-66270000D02*
X119330000Y-66270000D01*
X116670000Y-65000000D02*
X116670000Y-63670000D01*
X116670000Y-63670000D02*
X118000000Y-63670000D01*
%TO.C,J18*%
X82670000Y-63670000D02*
X84000000Y-63670000D01*
X82670000Y-65000000D02*
X82670000Y-63670000D01*
X82670000Y-66270000D02*
X85330000Y-66270000D01*
X85330000Y-66270000D02*
X85330000Y-66330000D01*
X82670000Y-66270000D02*
X82670000Y-66330000D01*
X82670000Y-66330000D02*
X85330000Y-66330000D01*
%TO.C,J19*%
X106830000Y-66470000D02*
X106830000Y-67800000D01*
X105500000Y-66470000D02*
X106830000Y-66470000D01*
X104230000Y-66470000D02*
X104230000Y-69130000D01*
X104230000Y-69130000D02*
X101630000Y-69130000D01*
X104230000Y-66470000D02*
X101630000Y-66470000D01*
X101630000Y-66470000D02*
X101630000Y-69130000D01*
%TO.C,JP1*%
X57250000Y-61250000D02*
X54450000Y-61250000D01*
X54450000Y-61250000D02*
X54450000Y-59250000D01*
X54450000Y-59250000D02*
X57250000Y-59250000D01*
X57250000Y-59250000D02*
X57250000Y-61250000D01*
D10*
%TO.C,L1*%
X73190000Y-63020000D02*
X70190000Y-63020000D01*
X70190000Y-66220000D02*
X70190000Y-63020000D01*
X70190000Y-66220000D02*
X73190000Y-66220000D01*
X73190000Y-63020000D02*
X73190000Y-66220000D01*
%TO.C,L2*%
X115600000Y-96500000D02*
X112400000Y-96500000D01*
X112400000Y-93500000D02*
X112400000Y-96500000D01*
X112400000Y-93500000D02*
X115600000Y-93500000D01*
X115600000Y-96500000D02*
X115600000Y-93500000D01*
%TO.C,L3*%
X97170000Y-68200000D02*
X100170000Y-68200000D01*
X100170000Y-65000000D02*
X100170000Y-68200000D01*
X100170000Y-65000000D02*
X97170000Y-65000000D01*
X97170000Y-68200000D02*
X97170000Y-65000000D01*
D12*
%TO.C,M1*%
X64570000Y-68300000D02*
X64570000Y-66970000D01*
X64570000Y-66970000D02*
X65900000Y-66970000D01*
X67170000Y-66970000D02*
X69770000Y-66970000D01*
X69770000Y-69630000D02*
X69770000Y-66970000D01*
X67170000Y-69630000D02*
X69770000Y-69630000D01*
X67170000Y-69630000D02*
X67170000Y-66970000D01*
%TO.C,Q1*%
X68030000Y-96380000D02*
X68030000Y-95450000D01*
X68030000Y-93220000D02*
X68030000Y-94150000D01*
X68030000Y-93220000D02*
X65870000Y-93220000D01*
X68030000Y-96380000D02*
X66570000Y-96380000D01*
%TO.C,Q4*%
X78690000Y-79040000D02*
X79850000Y-79040000D01*
X78690000Y-80960000D02*
X80100000Y-80960000D01*
X78690000Y-80960000D02*
X78690000Y-80650000D01*
X78690000Y-79040000D02*
X78690000Y-79350000D01*
%TO.C,Q5*%
X81210000Y-96530000D02*
X79750000Y-96530000D01*
X81210000Y-93370000D02*
X79050000Y-93370000D01*
X81210000Y-93370000D02*
X81210000Y-94300000D01*
X81210000Y-96530000D02*
X81210000Y-95600000D01*
%TO.C,Q6*%
X78690000Y-81440000D02*
X78690000Y-81750000D01*
X78690000Y-83360000D02*
X78690000Y-83050000D01*
X78690000Y-83360000D02*
X80100000Y-83360000D01*
X78690000Y-81440000D02*
X79850000Y-81440000D01*
%TO.C,Q7*%
X78690000Y-76640000D02*
X79850000Y-76640000D01*
X78690000Y-78560000D02*
X80100000Y-78560000D01*
X78690000Y-78560000D02*
X78690000Y-78250000D01*
X78690000Y-76640000D02*
X78690000Y-76950000D01*
%TO.C,SW1*%
X109800000Y-67580000D02*
X109800000Y-67700000D01*
X109800000Y-65430000D02*
X109800000Y-66570000D01*
X109800000Y-64300000D02*
X109800000Y-64420000D01*
X114200000Y-64300000D02*
X109800000Y-64300000D01*
X114200000Y-64420000D02*
X114200000Y-64300000D01*
X114200000Y-66570000D02*
X114200000Y-65430000D01*
X114200000Y-67700000D02*
X114200000Y-67580000D01*
X109800000Y-67700000D02*
X114200000Y-67700000D01*
%TO.C,SW2*%
X94200000Y-92400000D02*
X94200000Y-88000000D01*
X94200000Y-88000000D02*
X94080000Y-88000000D01*
X93070000Y-88000000D02*
X91930000Y-88000000D01*
X90920000Y-88000000D02*
X90800000Y-88000000D01*
X90800000Y-88000000D02*
X90800000Y-92400000D01*
X90800000Y-92400000D02*
X90920000Y-92400000D01*
X91930000Y-92400000D02*
X93070000Y-92400000D01*
X94080000Y-92400000D02*
X94200000Y-92400000D01*
%TO.C,SW3*%
X77130000Y-99000000D02*
X77130000Y-97670000D01*
X77130000Y-97670000D02*
X78460000Y-97670000D01*
X79730000Y-97670000D02*
X84870000Y-97670000D01*
X84870000Y-100330000D02*
X84870000Y-97670000D01*
X79730000Y-100330000D02*
X84870000Y-100330000D01*
X79730000Y-100330000D02*
X79730000Y-97670000D01*
D10*
%TO.C,U2*%
X92400000Y-60400000D02*
X92800000Y-60400000D01*
X92400000Y-60400000D02*
X92400000Y-60800000D01*
X92400000Y-63600000D02*
X92800000Y-63600000D01*
X92400000Y-63600000D02*
X92400000Y-63200000D01*
X95600000Y-63600000D02*
X95200000Y-63600000D01*
X95600000Y-63600000D02*
X95600000Y-63200000D01*
X95600000Y-60400000D02*
X95600000Y-60800000D01*
X96600000Y-59900000D02*
G75*
G03*
X96600000Y-59900000I-500000J0D01*
G01*
D12*
%TO.C,U7*%
X76750000Y-66740000D02*
X73800000Y-66740000D01*
X74950000Y-69960000D02*
X76750000Y-69960000D01*
%TO.C,U8*%
X114445000Y-70880000D02*
X114445000Y-70500000D01*
X120865000Y-70880000D02*
X114445000Y-70880000D01*
X120865000Y-89120000D02*
X114445000Y-89120000D01*
X120865000Y-70880000D02*
X120865000Y-89120000D01*
X95120000Y-89120000D02*
X95120000Y-88120000D01*
X95900000Y-89120000D02*
X95120000Y-89120000D01*
X95120000Y-70880000D02*
X95120000Y-71880000D01*
X95900000Y-70880000D02*
X95120000Y-70880000D01*
%TO.C,J15*%
X75230000Y-58670000D02*
X75230000Y-60000000D01*
X73900000Y-58670000D02*
X75230000Y-58670000D01*
X72630000Y-58670000D02*
X72630000Y-61330000D01*
X72630000Y-61330000D02*
X64950000Y-61330000D01*
X72630000Y-58670000D02*
X64950000Y-58670000D01*
X64950000Y-58670000D02*
X64950000Y-61330000D01*
%TO.C,J16*%
X98950000Y-58670000D02*
X98950000Y-61330000D01*
X106630000Y-58670000D02*
X98950000Y-58670000D01*
X106630000Y-61330000D02*
X98950000Y-61330000D01*
X106630000Y-58670000D02*
X106630000Y-61330000D01*
X107900000Y-58670000D02*
X109230000Y-58670000D01*
X109230000Y-58670000D02*
X109230000Y-60000000D01*
%TO.C,J2*%
X59685000Y-95795000D02*
X59285000Y-95345000D01*
X59285000Y-95345000D02*
X60085000Y-95345000D01*
X60085000Y-95345000D02*
X59685000Y-95795000D01*
X64835000Y-101395000D02*
X64835000Y-98595000D01*
X64835000Y-98595000D02*
X65135000Y-98595000D01*
X65135000Y-98595000D02*
X65135000Y-97045000D01*
X57135000Y-101395000D02*
X57135000Y-98595000D01*
X56835000Y-98595000D02*
X57135000Y-98595000D01*
X56835000Y-98595000D02*
X56835000Y-97045000D01*
%TO.C,J5*%
D10*
X76166666Y-70852380D02*
X76166666Y-71566666D01*
X76119047Y-71709523D01*
X76023809Y-71804761D01*
X75880952Y-71852380D01*
X75785714Y-71852380D01*
X77119047Y-70852380D02*
X76642857Y-70852380D01*
X76595238Y-71328571D01*
X76642857Y-71280952D01*
X76738095Y-71233333D01*
X76976190Y-71233333D01*
X77071428Y-71280952D01*
X77119047Y-71328571D01*
X77166666Y-71423809D01*
X77166666Y-71661904D01*
X77119047Y-71757142D01*
X77071428Y-71804761D01*
X76976190Y-71852380D01*
X76738095Y-71852380D01*
X76642857Y-71804761D01*
X76595238Y-71757142D01*
%TO.C,BT1*%
X72614285Y-87428571D02*
X72757142Y-87476190D01*
X72804761Y-87523809D01*
X72852380Y-87619047D01*
X72852380Y-87761904D01*
X72804761Y-87857142D01*
X72757142Y-87904761D01*
X72661904Y-87952380D01*
X72280952Y-87952380D01*
X72280952Y-86952380D01*
X72614285Y-86952380D01*
X72709523Y-87000000D01*
X72757142Y-87047619D01*
X72804761Y-87142857D01*
X72804761Y-87238095D01*
X72757142Y-87333333D01*
X72709523Y-87380952D01*
X72614285Y-87428571D01*
X72280952Y-87428571D01*
X73138095Y-86952380D02*
X73709523Y-86952380D01*
X73423809Y-87952380D02*
X73423809Y-86952380D01*
X74566666Y-87952380D02*
X73995238Y-87952380D01*
X74280952Y-87952380D02*
X74280952Y-86952380D01*
X74185714Y-87095238D01*
X74090476Y-87190476D01*
X73995238Y-87238095D01*
%TO.C,C3*%
X61233333Y-90707142D02*
X61185714Y-90754761D01*
X61042857Y-90802380D01*
X60947619Y-90802380D01*
X60804761Y-90754761D01*
X60709523Y-90659523D01*
X60661904Y-90564285D01*
X60614285Y-90373809D01*
X60614285Y-90230952D01*
X60661904Y-90040476D01*
X60709523Y-89945238D01*
X60804761Y-89850000D01*
X60947619Y-89802380D01*
X61042857Y-89802380D01*
X61185714Y-89850000D01*
X61233333Y-89897619D01*
X61566666Y-89802380D02*
X62185714Y-89802380D01*
X61852380Y-90183333D01*
X61995238Y-90183333D01*
X62090476Y-90230952D01*
X62138095Y-90278571D01*
X62185714Y-90373809D01*
X62185714Y-90611904D01*
X62138095Y-90707142D01*
X62090476Y-90754761D01*
X61995238Y-90802380D01*
X61709523Y-90802380D01*
X61614285Y-90754761D01*
X61566666Y-90707142D01*
%TO.C,C4*%
X77733333Y-63057142D02*
X77685714Y-63104761D01*
X77542857Y-63152380D01*
X77447619Y-63152380D01*
X77304761Y-63104761D01*
X77209523Y-63009523D01*
X77161904Y-62914285D01*
X77114285Y-62723809D01*
X77114285Y-62580952D01*
X77161904Y-62390476D01*
X77209523Y-62295238D01*
X77304761Y-62200000D01*
X77447619Y-62152380D01*
X77542857Y-62152380D01*
X77685714Y-62200000D01*
X77733333Y-62247619D01*
X78590476Y-62485714D02*
X78590476Y-63152380D01*
X78352380Y-62104761D02*
X78114285Y-62819047D01*
X78733333Y-62819047D01*
%TO.C,C5*%
X88833333Y-60257142D02*
X88785714Y-60304761D01*
X88642857Y-60352380D01*
X88547619Y-60352380D01*
X88404761Y-60304761D01*
X88309523Y-60209523D01*
X88261904Y-60114285D01*
X88214285Y-59923809D01*
X88214285Y-59780952D01*
X88261904Y-59590476D01*
X88309523Y-59495238D01*
X88404761Y-59400000D01*
X88547619Y-59352380D01*
X88642857Y-59352380D01*
X88785714Y-59400000D01*
X88833333Y-59447619D01*
X89738095Y-59352380D02*
X89261904Y-59352380D01*
X89214285Y-59828571D01*
X89261904Y-59780952D01*
X89357142Y-59733333D01*
X89595238Y-59733333D01*
X89690476Y-59780952D01*
X89738095Y-59828571D01*
X89785714Y-59923809D01*
X89785714Y-60161904D01*
X89738095Y-60257142D01*
X89690476Y-60304761D01*
X89595238Y-60352380D01*
X89357142Y-60352380D01*
X89261904Y-60304761D01*
X89214285Y-60257142D01*
%TO.C,C6*%
X93033333Y-67227142D02*
X92985714Y-67274761D01*
X92842857Y-67322380D01*
X92747619Y-67322380D01*
X92604761Y-67274761D01*
X92509523Y-67179523D01*
X92461904Y-67084285D01*
X92414285Y-66893809D01*
X92414285Y-66750952D01*
X92461904Y-66560476D01*
X92509523Y-66465238D01*
X92604761Y-66370000D01*
X92747619Y-66322380D01*
X92842857Y-66322380D01*
X92985714Y-66370000D01*
X93033333Y-66417619D01*
X93890476Y-66322380D02*
X93700000Y-66322380D01*
X93604761Y-66370000D01*
X93557142Y-66417619D01*
X93461904Y-66560476D01*
X93414285Y-66750952D01*
X93414285Y-67131904D01*
X93461904Y-67227142D01*
X93509523Y-67274761D01*
X93604761Y-67322380D01*
X93795238Y-67322380D01*
X93890476Y-67274761D01*
X93938095Y-67227142D01*
X93985714Y-67131904D01*
X93985714Y-66893809D01*
X93938095Y-66798571D01*
X93890476Y-66750952D01*
X93795238Y-66703333D01*
X93604761Y-66703333D01*
X93509523Y-66750952D01*
X93461904Y-66798571D01*
X93414285Y-66893809D01*
%TO.C,C8*%
X88833333Y-61957142D02*
X88785714Y-62004761D01*
X88642857Y-62052380D01*
X88547619Y-62052380D01*
X88404761Y-62004761D01*
X88309523Y-61909523D01*
X88261904Y-61814285D01*
X88214285Y-61623809D01*
X88214285Y-61480952D01*
X88261904Y-61290476D01*
X88309523Y-61195238D01*
X88404761Y-61100000D01*
X88547619Y-61052380D01*
X88642857Y-61052380D01*
X88785714Y-61100000D01*
X88833333Y-61147619D01*
X89404761Y-61480952D02*
X89309523Y-61433333D01*
X89261904Y-61385714D01*
X89214285Y-61290476D01*
X89214285Y-61242857D01*
X89261904Y-61147619D01*
X89309523Y-61100000D01*
X89404761Y-61052380D01*
X89595238Y-61052380D01*
X89690476Y-61100000D01*
X89738095Y-61147619D01*
X89785714Y-61242857D01*
X89785714Y-61290476D01*
X89738095Y-61385714D01*
X89690476Y-61433333D01*
X89595238Y-61480952D01*
X89404761Y-61480952D01*
X89309523Y-61528571D01*
X89261904Y-61576190D01*
X89214285Y-61671428D01*
X89214285Y-61861904D01*
X89261904Y-61957142D01*
X89309523Y-62004761D01*
X89404761Y-62052380D01*
X89595238Y-62052380D01*
X89690476Y-62004761D01*
X89738095Y-61957142D01*
X89785714Y-61861904D01*
X89785714Y-61671428D01*
X89738095Y-61576190D01*
X89690476Y-61528571D01*
X89595238Y-61480952D01*
%TO.C,C11*%
X112457142Y-62357142D02*
X112409523Y-62404761D01*
X112266666Y-62452380D01*
X112171428Y-62452380D01*
X112028571Y-62404761D01*
X111933333Y-62309523D01*
X111885714Y-62214285D01*
X111838095Y-62023809D01*
X111838095Y-61880952D01*
X111885714Y-61690476D01*
X111933333Y-61595238D01*
X112028571Y-61500000D01*
X112171428Y-61452380D01*
X112266666Y-61452380D01*
X112409523Y-61500000D01*
X112457142Y-61547619D01*
X113409523Y-62452380D02*
X112838095Y-62452380D01*
X113123809Y-62452380D02*
X113123809Y-61452380D01*
X113028571Y-61595238D01*
X112933333Y-61690476D01*
X112838095Y-61738095D01*
X114361904Y-62452380D02*
X113790476Y-62452380D01*
X114076190Y-62452380D02*
X114076190Y-61452380D01*
X113980952Y-61595238D01*
X113885714Y-61690476D01*
X113790476Y-61738095D01*
%TO.C,C22*%
X70607142Y-69037142D02*
X70559523Y-69084761D01*
X70416666Y-69132380D01*
X70321428Y-69132380D01*
X70178571Y-69084761D01*
X70083333Y-68989523D01*
X70035714Y-68894285D01*
X69988095Y-68703809D01*
X69988095Y-68560952D01*
X70035714Y-68370476D01*
X70083333Y-68275238D01*
X70178571Y-68180000D01*
X70321428Y-68132380D01*
X70416666Y-68132380D01*
X70559523Y-68180000D01*
X70607142Y-68227619D01*
X70988095Y-68227619D02*
X71035714Y-68180000D01*
X71130952Y-68132380D01*
X71369047Y-68132380D01*
X71464285Y-68180000D01*
X71511904Y-68227619D01*
X71559523Y-68322857D01*
X71559523Y-68418095D01*
X71511904Y-68560952D01*
X70940476Y-69132380D01*
X71559523Y-69132380D01*
X71940476Y-68227619D02*
X71988095Y-68180000D01*
X72083333Y-68132380D01*
X72321428Y-68132380D01*
X72416666Y-68180000D01*
X72464285Y-68227619D01*
X72511904Y-68322857D01*
X72511904Y-68418095D01*
X72464285Y-68560952D01*
X71892857Y-69132380D01*
X72511904Y-69132380D01*
%TO.C,C23*%
X105357142Y-69957142D02*
X105309523Y-70004761D01*
X105166666Y-70052380D01*
X105071428Y-70052380D01*
X104928571Y-70004761D01*
X104833333Y-69909523D01*
X104785714Y-69814285D01*
X104738095Y-69623809D01*
X104738095Y-69480952D01*
X104785714Y-69290476D01*
X104833333Y-69195238D01*
X104928571Y-69100000D01*
X105071428Y-69052380D01*
X105166666Y-69052380D01*
X105309523Y-69100000D01*
X105357142Y-69147619D01*
X105738095Y-69147619D02*
X105785714Y-69100000D01*
X105880952Y-69052380D01*
X106119047Y-69052380D01*
X106214285Y-69100000D01*
X106261904Y-69147619D01*
X106309523Y-69242857D01*
X106309523Y-69338095D01*
X106261904Y-69480952D01*
X105690476Y-70052380D01*
X106309523Y-70052380D01*
X106642857Y-69052380D02*
X107261904Y-69052380D01*
X106928571Y-69433333D01*
X107071428Y-69433333D01*
X107166666Y-69480952D01*
X107214285Y-69528571D01*
X107261904Y-69623809D01*
X107261904Y-69861904D01*
X107214285Y-69957142D01*
X107166666Y-70004761D01*
X107071428Y-70052380D01*
X106785714Y-70052380D01*
X106690476Y-70004761D01*
X106642857Y-69957142D01*
%TO.C,C24*%
X63857142Y-62557142D02*
X63809523Y-62604761D01*
X63666666Y-62652380D01*
X63571428Y-62652380D01*
X63428571Y-62604761D01*
X63333333Y-62509523D01*
X63285714Y-62414285D01*
X63238095Y-62223809D01*
X63238095Y-62080952D01*
X63285714Y-61890476D01*
X63333333Y-61795238D01*
X63428571Y-61700000D01*
X63571428Y-61652380D01*
X63666666Y-61652380D01*
X63809523Y-61700000D01*
X63857142Y-61747619D01*
X64238095Y-61747619D02*
X64285714Y-61700000D01*
X64380952Y-61652380D01*
X64619047Y-61652380D01*
X64714285Y-61700000D01*
X64761904Y-61747619D01*
X64809523Y-61842857D01*
X64809523Y-61938095D01*
X64761904Y-62080952D01*
X64190476Y-62652380D01*
X64809523Y-62652380D01*
X65666666Y-61985714D02*
X65666666Y-62652380D01*
X65428571Y-61604761D02*
X65190476Y-62319047D01*
X65809523Y-62319047D01*
%TO.C,C25*%
X68227142Y-62627142D02*
X68179523Y-62674761D01*
X68036666Y-62722380D01*
X67941428Y-62722380D01*
X67798571Y-62674761D01*
X67703333Y-62579523D01*
X67655714Y-62484285D01*
X67608095Y-62293809D01*
X67608095Y-62150952D01*
X67655714Y-61960476D01*
X67703333Y-61865238D01*
X67798571Y-61770000D01*
X67941428Y-61722380D01*
X68036666Y-61722380D01*
X68179523Y-61770000D01*
X68227142Y-61817619D01*
X68608095Y-61817619D02*
X68655714Y-61770000D01*
X68750952Y-61722380D01*
X68989047Y-61722380D01*
X69084285Y-61770000D01*
X69131904Y-61817619D01*
X69179523Y-61912857D01*
X69179523Y-62008095D01*
X69131904Y-62150952D01*
X68560476Y-62722380D01*
X69179523Y-62722380D01*
X70084285Y-61722380D02*
X69608095Y-61722380D01*
X69560476Y-62198571D01*
X69608095Y-62150952D01*
X69703333Y-62103333D01*
X69941428Y-62103333D01*
X70036666Y-62150952D01*
X70084285Y-62198571D01*
X70131904Y-62293809D01*
X70131904Y-62531904D01*
X70084285Y-62627142D01*
X70036666Y-62674761D01*
X69941428Y-62722380D01*
X69703333Y-62722380D01*
X69608095Y-62674761D01*
X69560476Y-62627142D01*
%TO.C,C27*%
X113957142Y-69457142D02*
X113909523Y-69504761D01*
X113766666Y-69552380D01*
X113671428Y-69552380D01*
X113528571Y-69504761D01*
X113433333Y-69409523D01*
X113385714Y-69314285D01*
X113338095Y-69123809D01*
X113338095Y-68980952D01*
X113385714Y-68790476D01*
X113433333Y-68695238D01*
X113528571Y-68600000D01*
X113671428Y-68552380D01*
X113766666Y-68552380D01*
X113909523Y-68600000D01*
X113957142Y-68647619D01*
X114338095Y-68647619D02*
X114385714Y-68600000D01*
X114480952Y-68552380D01*
X114719047Y-68552380D01*
X114814285Y-68600000D01*
X114861904Y-68647619D01*
X114909523Y-68742857D01*
X114909523Y-68838095D01*
X114861904Y-68980952D01*
X114290476Y-69552380D01*
X114909523Y-69552380D01*
X115242857Y-68552380D02*
X115909523Y-68552380D01*
X115480952Y-69552380D01*
%TO.C,D1*%
X62681904Y-94272380D02*
X62681904Y-93272380D01*
X62920000Y-93272380D01*
X63062857Y-93320000D01*
X63158095Y-93415238D01*
X63205714Y-93510476D01*
X63253333Y-93700952D01*
X63253333Y-93843809D01*
X63205714Y-94034285D01*
X63158095Y-94129523D01*
X63062857Y-94224761D01*
X62920000Y-94272380D01*
X62681904Y-94272380D01*
X64205714Y-94272380D02*
X63634285Y-94272380D01*
X63920000Y-94272380D02*
X63920000Y-93272380D01*
X63824761Y-93415238D01*
X63729523Y-93510476D01*
X63634285Y-93558095D01*
%TO.C,D3*%
X72952380Y-79938095D02*
X71952380Y-79938095D01*
X71952380Y-79700000D01*
X72000000Y-79557142D01*
X72095238Y-79461904D01*
X72190476Y-79414285D01*
X72380952Y-79366666D01*
X72523809Y-79366666D01*
X72714285Y-79414285D01*
X72809523Y-79461904D01*
X72904761Y-79557142D01*
X72952380Y-79700000D01*
X72952380Y-79938095D01*
X71952380Y-79033333D02*
X71952380Y-78414285D01*
X72333333Y-78747619D01*
X72333333Y-78604761D01*
X72380952Y-78509523D01*
X72428571Y-78461904D01*
X72523809Y-78414285D01*
X72761904Y-78414285D01*
X72857142Y-78461904D01*
X72904761Y-78509523D01*
X72952380Y-78604761D01*
X72952380Y-78890476D01*
X72904761Y-78985714D01*
X72857142Y-79033333D01*
%TO.C,D4*%
X76461904Y-93002380D02*
X76461904Y-92002380D01*
X76700000Y-92002380D01*
X76842857Y-92050000D01*
X76938095Y-92145238D01*
X76985714Y-92240476D01*
X77033333Y-92430952D01*
X77033333Y-92573809D01*
X76985714Y-92764285D01*
X76938095Y-92859523D01*
X76842857Y-92954761D01*
X76700000Y-93002380D01*
X76461904Y-93002380D01*
X77890476Y-92335714D02*
X77890476Y-93002380D01*
X77652380Y-91954761D02*
X77414285Y-92669047D01*
X78033333Y-92669047D01*
%TO.C,D5*%
X72952380Y-82438095D02*
X71952380Y-82438095D01*
X71952380Y-82200000D01*
X72000000Y-82057142D01*
X72095238Y-81961904D01*
X72190476Y-81914285D01*
X72380952Y-81866666D01*
X72523809Y-81866666D01*
X72714285Y-81914285D01*
X72809523Y-81961904D01*
X72904761Y-82057142D01*
X72952380Y-82200000D01*
X72952380Y-82438095D01*
X71952380Y-80961904D02*
X71952380Y-81438095D01*
X72428571Y-81485714D01*
X72380952Y-81438095D01*
X72333333Y-81342857D01*
X72333333Y-81104761D01*
X72380952Y-81009523D01*
X72428571Y-80961904D01*
X72523809Y-80914285D01*
X72761904Y-80914285D01*
X72857142Y-80961904D01*
X72904761Y-81009523D01*
X72952380Y-81104761D01*
X72952380Y-81342857D01*
X72904761Y-81438095D01*
X72857142Y-81485714D01*
%TO.C,D6*%
X89261904Y-75352380D02*
X89261904Y-74352380D01*
X89500000Y-74352380D01*
X89642857Y-74400000D01*
X89738095Y-74495238D01*
X89785714Y-74590476D01*
X89833333Y-74780952D01*
X89833333Y-74923809D01*
X89785714Y-75114285D01*
X89738095Y-75209523D01*
X89642857Y-75304761D01*
X89500000Y-75352380D01*
X89261904Y-75352380D01*
X90690476Y-74352380D02*
X90500000Y-74352380D01*
X90404761Y-74400000D01*
X90357142Y-74447619D01*
X90261904Y-74590476D01*
X90214285Y-74780952D01*
X90214285Y-75161904D01*
X90261904Y-75257142D01*
X90309523Y-75304761D01*
X90404761Y-75352380D01*
X90595238Y-75352380D01*
X90690476Y-75304761D01*
X90738095Y-75257142D01*
X90785714Y-75161904D01*
X90785714Y-74923809D01*
X90738095Y-74828571D01*
X90690476Y-74780952D01*
X90595238Y-74733333D01*
X90404761Y-74733333D01*
X90309523Y-74780952D01*
X90261904Y-74828571D01*
X90214285Y-74923809D01*
%TO.C,D7*%
X72952380Y-84738095D02*
X71952380Y-84738095D01*
X71952380Y-84500000D01*
X72000000Y-84357142D01*
X72095238Y-84261904D01*
X72190476Y-84214285D01*
X72380952Y-84166666D01*
X72523809Y-84166666D01*
X72714285Y-84214285D01*
X72809523Y-84261904D01*
X72904761Y-84357142D01*
X72952380Y-84500000D01*
X72952380Y-84738095D01*
X71952380Y-83833333D02*
X71952380Y-83166666D01*
X72952380Y-83595238D01*
%TO.C,D8*%
X61761904Y-63752380D02*
X61761904Y-62752380D01*
X62000000Y-62752380D01*
X62142857Y-62800000D01*
X62238095Y-62895238D01*
X62285714Y-62990476D01*
X62333333Y-63180952D01*
X62333333Y-63323809D01*
X62285714Y-63514285D01*
X62238095Y-63609523D01*
X62142857Y-63704761D01*
X62000000Y-63752380D01*
X61761904Y-63752380D01*
X62904761Y-63180952D02*
X62809523Y-63133333D01*
X62761904Y-63085714D01*
X62714285Y-62990476D01*
X62714285Y-62942857D01*
X62761904Y-62847619D01*
X62809523Y-62800000D01*
X62904761Y-62752380D01*
X63095238Y-62752380D01*
X63190476Y-62800000D01*
X63238095Y-62847619D01*
X63285714Y-62942857D01*
X63285714Y-62990476D01*
X63238095Y-63085714D01*
X63190476Y-63133333D01*
X63095238Y-63180952D01*
X62904761Y-63180952D01*
X62809523Y-63228571D01*
X62761904Y-63276190D01*
X62714285Y-63371428D01*
X62714285Y-63561904D01*
X62761904Y-63657142D01*
X62809523Y-63704761D01*
X62904761Y-63752380D01*
X63095238Y-63752380D01*
X63190476Y-63704761D01*
X63238095Y-63657142D01*
X63285714Y-63561904D01*
X63285714Y-63371428D01*
X63238095Y-63276190D01*
X63190476Y-63228571D01*
X63095238Y-63180952D01*
%TO.C,D9*%
X60861904Y-61552380D02*
X60861904Y-60552380D01*
X61100000Y-60552380D01*
X61242857Y-60600000D01*
X61338095Y-60695238D01*
X61385714Y-60790476D01*
X61433333Y-60980952D01*
X61433333Y-61123809D01*
X61385714Y-61314285D01*
X61338095Y-61409523D01*
X61242857Y-61504761D01*
X61100000Y-61552380D01*
X60861904Y-61552380D01*
X61909523Y-61552380D02*
X62100000Y-61552380D01*
X62195238Y-61504761D01*
X62242857Y-61457142D01*
X62338095Y-61314285D01*
X62385714Y-61123809D01*
X62385714Y-60742857D01*
X62338095Y-60647619D01*
X62290476Y-60600000D01*
X62195238Y-60552380D01*
X62004761Y-60552380D01*
X61909523Y-60600000D01*
X61861904Y-60647619D01*
X61814285Y-60742857D01*
X61814285Y-60980952D01*
X61861904Y-61076190D01*
X61909523Y-61123809D01*
X62004761Y-61171428D01*
X62195238Y-61171428D01*
X62290476Y-61123809D01*
X62338095Y-61076190D01*
X62385714Y-60980952D01*
%TO.C,D10*%
X72852380Y-77714285D02*
X71852380Y-77714285D01*
X71852380Y-77476190D01*
X71900000Y-77333333D01*
X71995238Y-77238095D01*
X72090476Y-77190476D01*
X72280952Y-77142857D01*
X72423809Y-77142857D01*
X72614285Y-77190476D01*
X72709523Y-77238095D01*
X72804761Y-77333333D01*
X72852380Y-77476190D01*
X72852380Y-77714285D01*
X72852380Y-76190476D02*
X72852380Y-76761904D01*
X72852380Y-76476190D02*
X71852380Y-76476190D01*
X71995238Y-76571428D01*
X72090476Y-76666666D01*
X72138095Y-76761904D01*
X71852380Y-75571428D02*
X71852380Y-75476190D01*
X71900000Y-75380952D01*
X71947619Y-75333333D01*
X72042857Y-75285714D01*
X72233333Y-75238095D01*
X72471428Y-75238095D01*
X72661904Y-75285714D01*
X72757142Y-75333333D01*
X72804761Y-75380952D01*
X72852380Y-75476190D01*
X72852380Y-75571428D01*
X72804761Y-75666666D01*
X72757142Y-75714285D01*
X72661904Y-75761904D01*
X72471428Y-75809523D01*
X72233333Y-75809523D01*
X72042857Y-75761904D01*
X71947619Y-75714285D01*
X71900000Y-75666666D01*
X71852380Y-75571428D01*
%TO.C,F1*%
X73066666Y-95178571D02*
X72733333Y-95178571D01*
X72733333Y-95702380D02*
X72733333Y-94702380D01*
X73209523Y-94702380D01*
X74114285Y-95702380D02*
X73542857Y-95702380D01*
X73828571Y-95702380D02*
X73828571Y-94702380D01*
X73733333Y-94845238D01*
X73638095Y-94940476D01*
X73542857Y-94988095D01*
%TO.C,IC1*%
X59723809Y-68902380D02*
X59723809Y-67902380D01*
X60771428Y-68807142D02*
X60723809Y-68854761D01*
X60580952Y-68902380D01*
X60485714Y-68902380D01*
X60342857Y-68854761D01*
X60247619Y-68759523D01*
X60200000Y-68664285D01*
X60152380Y-68473809D01*
X60152380Y-68330952D01*
X60200000Y-68140476D01*
X60247619Y-68045238D01*
X60342857Y-67950000D01*
X60485714Y-67902380D01*
X60580952Y-67902380D01*
X60723809Y-67950000D01*
X60771428Y-67997619D01*
X61723809Y-68902380D02*
X61152380Y-68902380D01*
X61438095Y-68902380D02*
X61438095Y-67902380D01*
X61342857Y-68045238D01*
X61247619Y-68140476D01*
X61152380Y-68188095D01*
%TO.C,J1*%
X76766666Y-58852380D02*
X76766666Y-59566666D01*
X76719047Y-59709523D01*
X76623809Y-59804761D01*
X76480952Y-59852380D01*
X76385714Y-59852380D01*
X77766666Y-59852380D02*
X77195238Y-59852380D01*
X77480952Y-59852380D02*
X77480952Y-58852380D01*
X77385714Y-58995238D01*
X77290476Y-59090476D01*
X77195238Y-59138095D01*
%TO.C,J3*%
X75016666Y-98302380D02*
X75016666Y-99016666D01*
X74969047Y-99159523D01*
X74873809Y-99254761D01*
X74730952Y-99302380D01*
X74635714Y-99302380D01*
X75397619Y-98302380D02*
X76016666Y-98302380D01*
X75683333Y-98683333D01*
X75826190Y-98683333D01*
X75921428Y-98730952D01*
X75969047Y-98778571D01*
X76016666Y-98873809D01*
X76016666Y-99111904D01*
X75969047Y-99207142D01*
X75921428Y-99254761D01*
X75826190Y-99302380D01*
X75540476Y-99302380D01*
X75445238Y-99254761D01*
X75397619Y-99207142D01*
%TO.C,J4*%
X97206666Y-97252380D02*
X97206666Y-97966666D01*
X97159047Y-98109523D01*
X97063809Y-98204761D01*
X96920952Y-98252380D01*
X96825714Y-98252380D01*
X98111428Y-97585714D02*
X98111428Y-98252380D01*
X97873333Y-97204761D02*
X97635238Y-97919047D01*
X98254285Y-97919047D01*
%TO.C,J6*%
X96966666Y-90952380D02*
X96966666Y-91666666D01*
X96919047Y-91809523D01*
X96823809Y-91904761D01*
X96680952Y-91952380D01*
X96585714Y-91952380D01*
X97871428Y-90952380D02*
X97680952Y-90952380D01*
X97585714Y-91000000D01*
X97538095Y-91047619D01*
X97442857Y-91190476D01*
X97395238Y-91380952D01*
X97395238Y-91761904D01*
X97442857Y-91857142D01*
X97490476Y-91904761D01*
X97585714Y-91952380D01*
X97776190Y-91952380D01*
X97871428Y-91904761D01*
X97919047Y-91857142D01*
X97966666Y-91761904D01*
X97966666Y-91523809D01*
X97919047Y-91428571D01*
X97871428Y-91380952D01*
X97776190Y-91333333D01*
X97585714Y-91333333D01*
X97490476Y-91380952D01*
X97442857Y-91428571D01*
X97395238Y-91523809D01*
%TO.C,J7*%
X80352380Y-86533333D02*
X81066666Y-86533333D01*
X81209523Y-86580952D01*
X81304761Y-86676190D01*
X81352380Y-86819047D01*
X81352380Y-86914285D01*
X80352380Y-86152380D02*
X80352380Y-85485714D01*
X81352380Y-85914285D01*
%TO.C,J8*%
X105666666Y-96452380D02*
X105666666Y-97166666D01*
X105619047Y-97309523D01*
X105523809Y-97404761D01*
X105380952Y-97452380D01*
X105285714Y-97452380D01*
X106285714Y-96880952D02*
X106190476Y-96833333D01*
X106142857Y-96785714D01*
X106095238Y-96690476D01*
X106095238Y-96642857D01*
X106142857Y-96547619D01*
X106190476Y-96500000D01*
X106285714Y-96452380D01*
X106476190Y-96452380D01*
X106571428Y-96500000D01*
X106619047Y-96547619D01*
X106666666Y-96642857D01*
X106666666Y-96690476D01*
X106619047Y-96785714D01*
X106571428Y-96833333D01*
X106476190Y-96880952D01*
X106285714Y-96880952D01*
X106190476Y-96928571D01*
X106142857Y-96976190D01*
X106095238Y-97071428D01*
X106095238Y-97261904D01*
X106142857Y-97357142D01*
X106190476Y-97404761D01*
X106285714Y-97452380D01*
X106476190Y-97452380D01*
X106571428Y-97404761D01*
X106619047Y-97357142D01*
X106666666Y-97261904D01*
X106666666Y-97071428D01*
X106619047Y-96976190D01*
X106571428Y-96928571D01*
X106476190Y-96880952D01*
%TO.C,J9*%
X88666666Y-66552380D02*
X88666666Y-67266666D01*
X88619047Y-67409523D01*
X88523809Y-67504761D01*
X88380952Y-67552380D01*
X88285714Y-67552380D01*
X89190476Y-67552380D02*
X89380952Y-67552380D01*
X89476190Y-67504761D01*
X89523809Y-67457142D01*
X89619047Y-67314285D01*
X89666666Y-67123809D01*
X89666666Y-66742857D01*
X89619047Y-66647619D01*
X89571428Y-66600000D01*
X89476190Y-66552380D01*
X89285714Y-66552380D01*
X89190476Y-66600000D01*
X89142857Y-66647619D01*
X89095238Y-66742857D01*
X89095238Y-66980952D01*
X89142857Y-67076190D01*
X89190476Y-67123809D01*
X89285714Y-67171428D01*
X89476190Y-67171428D01*
X89571428Y-67123809D01*
X89619047Y-67076190D01*
X89666666Y-66980952D01*
%TO.C,J10*%
X55790476Y-67152380D02*
X55790476Y-67866666D01*
X55742857Y-68009523D01*
X55647619Y-68104761D01*
X55504761Y-68152380D01*
X55409523Y-68152380D01*
X56790476Y-68152380D02*
X56219047Y-68152380D01*
X56504761Y-68152380D02*
X56504761Y-67152380D01*
X56409523Y-67295238D01*
X56314285Y-67390476D01*
X56219047Y-67438095D01*
X57409523Y-67152380D02*
X57504761Y-67152380D01*
X57600000Y-67200000D01*
X57647619Y-67247619D01*
X57695238Y-67342857D01*
X57742857Y-67533333D01*
X57742857Y-67771428D01*
X57695238Y-67961904D01*
X57647619Y-68057142D01*
X57600000Y-68104761D01*
X57504761Y-68152380D01*
X57409523Y-68152380D01*
X57314285Y-68104761D01*
X57266666Y-68057142D01*
X57219047Y-67961904D01*
X57171428Y-67771428D01*
X57171428Y-67533333D01*
X57219047Y-67342857D01*
X57266666Y-67247619D01*
X57314285Y-67200000D01*
X57409523Y-67152380D01*
%TO.C,J11*%
X55180476Y-92112380D02*
X55180476Y-92826666D01*
X55132857Y-92969523D01*
X55037619Y-93064761D01*
X54894761Y-93112380D01*
X54799523Y-93112380D01*
X56180476Y-93112380D02*
X55609047Y-93112380D01*
X55894761Y-93112380D02*
X55894761Y-92112380D01*
X55799523Y-92255238D01*
X55704285Y-92350476D01*
X55609047Y-92398095D01*
X57132857Y-93112380D02*
X56561428Y-93112380D01*
X56847142Y-93112380D02*
X56847142Y-92112380D01*
X56751904Y-92255238D01*
X56656666Y-92350476D01*
X56561428Y-92398095D01*
%TO.C,J12*%
X83190476Y-92122380D02*
X83190476Y-92836666D01*
X83142857Y-92979523D01*
X83047619Y-93074761D01*
X82904761Y-93122380D01*
X82809523Y-93122380D01*
X84190476Y-93122380D02*
X83619047Y-93122380D01*
X83904761Y-93122380D02*
X83904761Y-92122380D01*
X83809523Y-92265238D01*
X83714285Y-92360476D01*
X83619047Y-92408095D01*
X84571428Y-92217619D02*
X84619047Y-92170000D01*
X84714285Y-92122380D01*
X84952380Y-92122380D01*
X85047619Y-92170000D01*
X85095238Y-92217619D01*
X85142857Y-92312857D01*
X85142857Y-92408095D01*
X85095238Y-92550952D01*
X84523809Y-93122380D01*
X85142857Y-93122380D01*
%TO.C,J13*%
X117190476Y-92122380D02*
X117190476Y-92836666D01*
X117142857Y-92979523D01*
X117047619Y-93074761D01*
X116904761Y-93122380D01*
X116809523Y-93122380D01*
X118190476Y-93122380D02*
X117619047Y-93122380D01*
X117904761Y-93122380D02*
X117904761Y-92122380D01*
X117809523Y-92265238D01*
X117714285Y-92360476D01*
X117619047Y-92408095D01*
X118523809Y-92122380D02*
X119142857Y-92122380D01*
X118809523Y-92503333D01*
X118952380Y-92503333D01*
X119047619Y-92550952D01*
X119095238Y-92598571D01*
X119142857Y-92693809D01*
X119142857Y-92931904D01*
X119095238Y-93027142D01*
X119047619Y-93074761D01*
X118952380Y-93122380D01*
X118666666Y-93122380D01*
X118571428Y-93074761D01*
X118523809Y-93027142D01*
%TO.C,J14*%
X88390476Y-96552380D02*
X88390476Y-97266666D01*
X88342857Y-97409523D01*
X88247619Y-97504761D01*
X88104761Y-97552380D01*
X88009523Y-97552380D01*
X89390476Y-97552380D02*
X88819047Y-97552380D01*
X89104761Y-97552380D02*
X89104761Y-96552380D01*
X89009523Y-96695238D01*
X88914285Y-96790476D01*
X88819047Y-96838095D01*
X90247619Y-96885714D02*
X90247619Y-97552380D01*
X90009523Y-96504761D02*
X89771428Y-97219047D01*
X90390476Y-97219047D01*
%TO.C,J17*%
X117190476Y-62122380D02*
X117190476Y-62836666D01*
X117142857Y-62979523D01*
X117047619Y-63074761D01*
X116904761Y-63122380D01*
X116809523Y-63122380D01*
X118190476Y-63122380D02*
X117619047Y-63122380D01*
X117904761Y-63122380D02*
X117904761Y-62122380D01*
X117809523Y-62265238D01*
X117714285Y-62360476D01*
X117619047Y-62408095D01*
X118523809Y-62122380D02*
X119190476Y-62122380D01*
X118761904Y-63122380D01*
%TO.C,J18*%
X83190476Y-62122380D02*
X83190476Y-62836666D01*
X83142857Y-62979523D01*
X83047619Y-63074761D01*
X82904761Y-63122380D01*
X82809523Y-63122380D01*
X84190476Y-63122380D02*
X83619047Y-63122380D01*
X83904761Y-63122380D02*
X83904761Y-62122380D01*
X83809523Y-62265238D01*
X83714285Y-62360476D01*
X83619047Y-62408095D01*
X84761904Y-62550952D02*
X84666666Y-62503333D01*
X84619047Y-62455714D01*
X84571428Y-62360476D01*
X84571428Y-62312857D01*
X84619047Y-62217619D01*
X84666666Y-62170000D01*
X84761904Y-62122380D01*
X84952380Y-62122380D01*
X85047619Y-62170000D01*
X85095238Y-62217619D01*
X85142857Y-62312857D01*
X85142857Y-62360476D01*
X85095238Y-62455714D01*
X85047619Y-62503333D01*
X84952380Y-62550952D01*
X84761904Y-62550952D01*
X84666666Y-62598571D01*
X84619047Y-62646190D01*
X84571428Y-62741428D01*
X84571428Y-62931904D01*
X84619047Y-63027142D01*
X84666666Y-63074761D01*
X84761904Y-63122380D01*
X84952380Y-63122380D01*
X85047619Y-63074761D01*
X85095238Y-63027142D01*
X85142857Y-62931904D01*
X85142857Y-62741428D01*
X85095238Y-62646190D01*
X85047619Y-62598571D01*
X84952380Y-62550952D01*
%TO.C,J19*%
X104090476Y-65152380D02*
X104090476Y-65866666D01*
X104042857Y-66009523D01*
X103947619Y-66104761D01*
X103804761Y-66152380D01*
X103709523Y-66152380D01*
X105090476Y-66152380D02*
X104519047Y-66152380D01*
X104804761Y-66152380D02*
X104804761Y-65152380D01*
X104709523Y-65295238D01*
X104614285Y-65390476D01*
X104519047Y-65438095D01*
X105566666Y-66152380D02*
X105757142Y-66152380D01*
X105852380Y-66104761D01*
X105900000Y-66057142D01*
X105995238Y-65914285D01*
X106042857Y-65723809D01*
X106042857Y-65342857D01*
X105995238Y-65247619D01*
X105947619Y-65200000D01*
X105852380Y-65152380D01*
X105661904Y-65152380D01*
X105566666Y-65200000D01*
X105519047Y-65247619D01*
X105471428Y-65342857D01*
X105471428Y-65580952D01*
X105519047Y-65676190D01*
X105566666Y-65723809D01*
X105661904Y-65771428D01*
X105852380Y-65771428D01*
X105947619Y-65723809D01*
X105995238Y-65676190D01*
X106042857Y-65580952D01*
%TO.C,JP1*%
X54666666Y-61552380D02*
X54666666Y-62266666D01*
X54619047Y-62409523D01*
X54523809Y-62504761D01*
X54380952Y-62552380D01*
X54285714Y-62552380D01*
X55142857Y-62552380D02*
X55142857Y-61552380D01*
X55523809Y-61552380D01*
X55619047Y-61600000D01*
X55666666Y-61647619D01*
X55714285Y-61742857D01*
X55714285Y-61885714D01*
X55666666Y-61980952D01*
X55619047Y-62028571D01*
X55523809Y-62076190D01*
X55142857Y-62076190D01*
X56666666Y-62552380D02*
X56095238Y-62552380D01*
X56380952Y-62552380D02*
X56380952Y-61552380D01*
X56285714Y-61695238D01*
X56190476Y-61790476D01*
X56095238Y-61838095D01*
%TO.C,L1*%
X68973333Y-65122380D02*
X68497142Y-65122380D01*
X68497142Y-64122380D01*
X69830476Y-65122380D02*
X69259047Y-65122380D01*
X69544761Y-65122380D02*
X69544761Y-64122380D01*
X69449523Y-64265238D01*
X69354285Y-64360476D01*
X69259047Y-64408095D01*
%TO.C,L2*%
X113833333Y-93052380D02*
X113357142Y-93052380D01*
X113357142Y-92052380D01*
X114119047Y-92147619D02*
X114166666Y-92100000D01*
X114261904Y-92052380D01*
X114500000Y-92052380D01*
X114595238Y-92100000D01*
X114642857Y-92147619D01*
X114690476Y-92242857D01*
X114690476Y-92338095D01*
X114642857Y-92480952D01*
X114071428Y-93052380D01*
X114690476Y-93052380D01*
%TO.C,L3*%
X98893333Y-63382380D02*
X98417142Y-63382380D01*
X98417142Y-62382380D01*
X99131428Y-62382380D02*
X99750476Y-62382380D01*
X99417142Y-62763333D01*
X99560000Y-62763333D01*
X99655238Y-62810952D01*
X99702857Y-62858571D01*
X99750476Y-62953809D01*
X99750476Y-63191904D01*
X99702857Y-63287142D01*
X99655238Y-63334761D01*
X99560000Y-63382380D01*
X99274285Y-63382380D01*
X99179047Y-63334761D01*
X99131428Y-63287142D01*
%TO.C,M1*%
X63290476Y-69952380D02*
X63290476Y-68952380D01*
X63623809Y-69666666D01*
X63957142Y-68952380D01*
X63957142Y-69952380D01*
X64957142Y-69952380D02*
X64385714Y-69952380D01*
X64671428Y-69952380D02*
X64671428Y-68952380D01*
X64576190Y-69095238D01*
X64480952Y-69190476D01*
X64385714Y-69238095D01*
%TO.C,Q1*%
X64534761Y-95707619D02*
X64439523Y-95660000D01*
X64344285Y-95564761D01*
X64201428Y-95421904D01*
X64106190Y-95374285D01*
X64010952Y-95374285D01*
X64058571Y-95612380D02*
X63963333Y-95564761D01*
X63868095Y-95469523D01*
X63820476Y-95279047D01*
X63820476Y-94945714D01*
X63868095Y-94755238D01*
X63963333Y-94660000D01*
X64058571Y-94612380D01*
X64249047Y-94612380D01*
X64344285Y-94660000D01*
X64439523Y-94755238D01*
X64487142Y-94945714D01*
X64487142Y-95279047D01*
X64439523Y-95469523D01*
X64344285Y-95564761D01*
X64249047Y-95612380D01*
X64058571Y-95612380D01*
X65439523Y-95612380D02*
X64868095Y-95612380D01*
X65153809Y-95612380D02*
X65153809Y-94612380D01*
X65058571Y-94755238D01*
X64963333Y-94850476D01*
X64868095Y-94898095D01*
%TO.C,Q4*%
X77847619Y-80095238D02*
X77800000Y-80190476D01*
X77704761Y-80285714D01*
X77561904Y-80428571D01*
X77514285Y-80523809D01*
X77514285Y-80619047D01*
X77752380Y-80571428D02*
X77704761Y-80666666D01*
X77609523Y-80761904D01*
X77419047Y-80809523D01*
X77085714Y-80809523D01*
X76895238Y-80761904D01*
X76800000Y-80666666D01*
X76752380Y-80571428D01*
X76752380Y-80380952D01*
X76800000Y-80285714D01*
X76895238Y-80190476D01*
X77085714Y-80142857D01*
X77419047Y-80142857D01*
X77609523Y-80190476D01*
X77704761Y-80285714D01*
X77752380Y-80380952D01*
X77752380Y-80571428D01*
X77085714Y-79285714D02*
X77752380Y-79285714D01*
X76704761Y-79523809D02*
X77419047Y-79761904D01*
X77419047Y-79142857D01*
%TO.C,Q5*%
X80354761Y-92997619D02*
X80259523Y-92950000D01*
X80164285Y-92854761D01*
X80021428Y-92711904D01*
X79926190Y-92664285D01*
X79830952Y-92664285D01*
X79878571Y-92902380D02*
X79783333Y-92854761D01*
X79688095Y-92759523D01*
X79640476Y-92569047D01*
X79640476Y-92235714D01*
X79688095Y-92045238D01*
X79783333Y-91950000D01*
X79878571Y-91902380D01*
X80069047Y-91902380D01*
X80164285Y-91950000D01*
X80259523Y-92045238D01*
X80307142Y-92235714D01*
X80307142Y-92569047D01*
X80259523Y-92759523D01*
X80164285Y-92854761D01*
X80069047Y-92902380D01*
X79878571Y-92902380D01*
X81211904Y-91902380D02*
X80735714Y-91902380D01*
X80688095Y-92378571D01*
X80735714Y-92330952D01*
X80830952Y-92283333D01*
X81069047Y-92283333D01*
X81164285Y-92330952D01*
X81211904Y-92378571D01*
X81259523Y-92473809D01*
X81259523Y-92711904D01*
X81211904Y-92807142D01*
X81164285Y-92854761D01*
X81069047Y-92902380D01*
X80830952Y-92902380D01*
X80735714Y-92854761D01*
X80688095Y-92807142D01*
%TO.C,Q6*%
X77947619Y-82495238D02*
X77900000Y-82590476D01*
X77804761Y-82685714D01*
X77661904Y-82828571D01*
X77614285Y-82923809D01*
X77614285Y-83019047D01*
X77852380Y-82971428D02*
X77804761Y-83066666D01*
X77709523Y-83161904D01*
X77519047Y-83209523D01*
X77185714Y-83209523D01*
X76995238Y-83161904D01*
X76900000Y-83066666D01*
X76852380Y-82971428D01*
X76852380Y-82780952D01*
X76900000Y-82685714D01*
X76995238Y-82590476D01*
X77185714Y-82542857D01*
X77519047Y-82542857D01*
X77709523Y-82590476D01*
X77804761Y-82685714D01*
X77852380Y-82780952D01*
X77852380Y-82971428D01*
X76852380Y-81685714D02*
X76852380Y-81876190D01*
X76900000Y-81971428D01*
X76947619Y-82019047D01*
X77090476Y-82114285D01*
X77280952Y-82161904D01*
X77661904Y-82161904D01*
X77757142Y-82114285D01*
X77804761Y-82066666D01*
X77852380Y-81971428D01*
X77852380Y-81780952D01*
X77804761Y-81685714D01*
X77757142Y-81638095D01*
X77661904Y-81590476D01*
X77423809Y-81590476D01*
X77328571Y-81638095D01*
X77280952Y-81685714D01*
X77233333Y-81780952D01*
X77233333Y-81971428D01*
X77280952Y-82066666D01*
X77328571Y-82114285D01*
X77423809Y-82161904D01*
%TO.C,Q7*%
X77947619Y-77695238D02*
X77900000Y-77790476D01*
X77804761Y-77885714D01*
X77661904Y-78028571D01*
X77614285Y-78123809D01*
X77614285Y-78219047D01*
X77852380Y-78171428D02*
X77804761Y-78266666D01*
X77709523Y-78361904D01*
X77519047Y-78409523D01*
X77185714Y-78409523D01*
X76995238Y-78361904D01*
X76900000Y-78266666D01*
X76852380Y-78171428D01*
X76852380Y-77980952D01*
X76900000Y-77885714D01*
X76995238Y-77790476D01*
X77185714Y-77742857D01*
X77519047Y-77742857D01*
X77709523Y-77790476D01*
X77804761Y-77885714D01*
X77852380Y-77980952D01*
X77852380Y-78171428D01*
X76852380Y-77409523D02*
X76852380Y-76742857D01*
X77852380Y-77171428D01*
%TO.C,R1*%
X59423333Y-91002380D02*
X59090000Y-90526190D01*
X58851904Y-91002380D02*
X58851904Y-90002380D01*
X59232857Y-90002380D01*
X59328095Y-90050000D01*
X59375714Y-90097619D01*
X59423333Y-90192857D01*
X59423333Y-90335714D01*
X59375714Y-90430952D01*
X59328095Y-90478571D01*
X59232857Y-90526190D01*
X58851904Y-90526190D01*
X60375714Y-91002380D02*
X59804285Y-91002380D01*
X60090000Y-91002380D02*
X60090000Y-90002380D01*
X59994761Y-90145238D01*
X59899523Y-90240476D01*
X59804285Y-90288095D01*
%TO.C,R9*%
X76452380Y-79866666D02*
X75976190Y-80200000D01*
X76452380Y-80438095D02*
X75452380Y-80438095D01*
X75452380Y-80057142D01*
X75500000Y-79961904D01*
X75547619Y-79914285D01*
X75642857Y-79866666D01*
X75785714Y-79866666D01*
X75880952Y-79914285D01*
X75928571Y-79961904D01*
X75976190Y-80057142D01*
X75976190Y-80438095D01*
X76452380Y-79390476D02*
X76452380Y-79200000D01*
X76404761Y-79104761D01*
X76357142Y-79057142D01*
X76214285Y-78961904D01*
X76023809Y-78914285D01*
X75642857Y-78914285D01*
X75547619Y-78961904D01*
X75500000Y-79009523D01*
X75452380Y-79104761D01*
X75452380Y-79295238D01*
X75500000Y-79390476D01*
X75547619Y-79438095D01*
X75642857Y-79485714D01*
X75880952Y-79485714D01*
X75976190Y-79438095D01*
X76023809Y-79390476D01*
X76071428Y-79295238D01*
X76071428Y-79104761D01*
X76023809Y-79009523D01*
X75976190Y-78961904D01*
X75880952Y-78914285D01*
%TO.C,R10*%
X75457142Y-96902380D02*
X75123809Y-96426190D01*
X74885714Y-96902380D02*
X74885714Y-95902380D01*
X75266666Y-95902380D01*
X75361904Y-95950000D01*
X75409523Y-95997619D01*
X75457142Y-96092857D01*
X75457142Y-96235714D01*
X75409523Y-96330952D01*
X75361904Y-96378571D01*
X75266666Y-96426190D01*
X74885714Y-96426190D01*
X76409523Y-96902380D02*
X75838095Y-96902380D01*
X76123809Y-96902380D02*
X76123809Y-95902380D01*
X76028571Y-96045238D01*
X75933333Y-96140476D01*
X75838095Y-96188095D01*
X77028571Y-95902380D02*
X77123809Y-95902380D01*
X77219047Y-95950000D01*
X77266666Y-95997619D01*
X77314285Y-96092857D01*
X77361904Y-96283333D01*
X77361904Y-96521428D01*
X77314285Y-96711904D01*
X77266666Y-96807142D01*
X77219047Y-96854761D01*
X77123809Y-96902380D01*
X77028571Y-96902380D01*
X76933333Y-96854761D01*
X76885714Y-96807142D01*
X76838095Y-96711904D01*
X76790476Y-96521428D01*
X76790476Y-96283333D01*
X76838095Y-96092857D01*
X76885714Y-95997619D01*
X76933333Y-95950000D01*
X77028571Y-95902380D01*
%TO.C,R14*%
X67707142Y-93052380D02*
X67373809Y-92576190D01*
X67135714Y-93052380D02*
X67135714Y-92052380D01*
X67516666Y-92052380D01*
X67611904Y-92100000D01*
X67659523Y-92147619D01*
X67707142Y-92242857D01*
X67707142Y-92385714D01*
X67659523Y-92480952D01*
X67611904Y-92528571D01*
X67516666Y-92576190D01*
X67135714Y-92576190D01*
X68659523Y-93052380D02*
X68088095Y-93052380D01*
X68373809Y-93052380D02*
X68373809Y-92052380D01*
X68278571Y-92195238D01*
X68183333Y-92290476D01*
X68088095Y-92338095D01*
X69516666Y-92385714D02*
X69516666Y-93052380D01*
X69278571Y-92004761D02*
X69040476Y-92719047D01*
X69659523Y-92719047D01*
%TO.C,R15*%
X75152380Y-81142857D02*
X74676190Y-81476190D01*
X75152380Y-81714285D02*
X74152380Y-81714285D01*
X74152380Y-81333333D01*
X74200000Y-81238095D01*
X74247619Y-81190476D01*
X74342857Y-81142857D01*
X74485714Y-81142857D01*
X74580952Y-81190476D01*
X74628571Y-81238095D01*
X74676190Y-81333333D01*
X74676190Y-81714285D01*
X75152380Y-80190476D02*
X75152380Y-80761904D01*
X75152380Y-80476190D02*
X74152380Y-80476190D01*
X74295238Y-80571428D01*
X74390476Y-80666666D01*
X74438095Y-80761904D01*
X74152380Y-79285714D02*
X74152380Y-79761904D01*
X74628571Y-79809523D01*
X74580952Y-79761904D01*
X74533333Y-79666666D01*
X74533333Y-79428571D01*
X74580952Y-79333333D01*
X74628571Y-79285714D01*
X74723809Y-79238095D01*
X74961904Y-79238095D01*
X75057142Y-79285714D01*
X75104761Y-79333333D01*
X75152380Y-79428571D01*
X75152380Y-79666666D01*
X75104761Y-79761904D01*
X75057142Y-79809523D01*
%TO.C,R16*%
X80152380Y-85442857D02*
X79676190Y-85776190D01*
X80152380Y-86014285D02*
X79152380Y-86014285D01*
X79152380Y-85633333D01*
X79200000Y-85538095D01*
X79247619Y-85490476D01*
X79342857Y-85442857D01*
X79485714Y-85442857D01*
X79580952Y-85490476D01*
X79628571Y-85538095D01*
X79676190Y-85633333D01*
X79676190Y-86014285D01*
X80152380Y-84490476D02*
X80152380Y-85061904D01*
X80152380Y-84776190D02*
X79152380Y-84776190D01*
X79295238Y-84871428D01*
X79390476Y-84966666D01*
X79438095Y-85061904D01*
X79152380Y-83633333D02*
X79152380Y-83823809D01*
X79200000Y-83919047D01*
X79247619Y-83966666D01*
X79390476Y-84061904D01*
X79580952Y-84109523D01*
X79961904Y-84109523D01*
X80057142Y-84061904D01*
X80104761Y-84014285D01*
X80152380Y-83919047D01*
X80152380Y-83728571D01*
X80104761Y-83633333D01*
X80057142Y-83585714D01*
X79961904Y-83538095D01*
X79723809Y-83538095D01*
X79628571Y-83585714D01*
X79580952Y-83633333D01*
X79533333Y-83728571D01*
X79533333Y-83919047D01*
X79580952Y-84014285D01*
X79628571Y-84061904D01*
X79723809Y-84109523D01*
%TO.C,R21*%
X58457142Y-61352380D02*
X58123809Y-60876190D01*
X57885714Y-61352380D02*
X57885714Y-60352380D01*
X58266666Y-60352380D01*
X58361904Y-60400000D01*
X58409523Y-60447619D01*
X58457142Y-60542857D01*
X58457142Y-60685714D01*
X58409523Y-60780952D01*
X58361904Y-60828571D01*
X58266666Y-60876190D01*
X57885714Y-60876190D01*
X58838095Y-60447619D02*
X58885714Y-60400000D01*
X58980952Y-60352380D01*
X59219047Y-60352380D01*
X59314285Y-60400000D01*
X59361904Y-60447619D01*
X59409523Y-60542857D01*
X59409523Y-60638095D01*
X59361904Y-60780952D01*
X58790476Y-61352380D01*
X59409523Y-61352380D01*
X60361904Y-61352380D02*
X59790476Y-61352380D01*
X60076190Y-61352380D02*
X60076190Y-60352380D01*
X59980952Y-60495238D01*
X59885714Y-60590476D01*
X59790476Y-60638095D01*
%TO.C,R23*%
X80552380Y-75442857D02*
X80076190Y-75776190D01*
X80552380Y-76014285D02*
X79552380Y-76014285D01*
X79552380Y-75633333D01*
X79600000Y-75538095D01*
X79647619Y-75490476D01*
X79742857Y-75442857D01*
X79885714Y-75442857D01*
X79980952Y-75490476D01*
X80028571Y-75538095D01*
X80076190Y-75633333D01*
X80076190Y-76014285D01*
X79647619Y-75061904D02*
X79600000Y-75014285D01*
X79552380Y-74919047D01*
X79552380Y-74680952D01*
X79600000Y-74585714D01*
X79647619Y-74538095D01*
X79742857Y-74490476D01*
X79838095Y-74490476D01*
X79980952Y-74538095D01*
X80552380Y-75109523D01*
X80552380Y-74490476D01*
X79552380Y-74157142D02*
X79552380Y-73538095D01*
X79933333Y-73871428D01*
X79933333Y-73728571D01*
X79980952Y-73633333D01*
X80028571Y-73585714D01*
X80123809Y-73538095D01*
X80361904Y-73538095D01*
X80457142Y-73585714D01*
X80504761Y-73633333D01*
X80552380Y-73728571D01*
X80552380Y-74014285D01*
X80504761Y-74109523D01*
X80457142Y-74157142D01*
%TO.C,R25*%
X89757142Y-72452380D02*
X89423809Y-71976190D01*
X89185714Y-72452380D02*
X89185714Y-71452380D01*
X89566666Y-71452380D01*
X89661904Y-71500000D01*
X89709523Y-71547619D01*
X89757142Y-71642857D01*
X89757142Y-71785714D01*
X89709523Y-71880952D01*
X89661904Y-71928571D01*
X89566666Y-71976190D01*
X89185714Y-71976190D01*
X90138095Y-71547619D02*
X90185714Y-71500000D01*
X90280952Y-71452380D01*
X90519047Y-71452380D01*
X90614285Y-71500000D01*
X90661904Y-71547619D01*
X90709523Y-71642857D01*
X90709523Y-71738095D01*
X90661904Y-71880952D01*
X90090476Y-72452380D01*
X90709523Y-72452380D01*
X91614285Y-71452380D02*
X91138095Y-71452380D01*
X91090476Y-71928571D01*
X91138095Y-71880952D01*
X91233333Y-71833333D01*
X91471428Y-71833333D01*
X91566666Y-71880952D01*
X91614285Y-71928571D01*
X91661904Y-72023809D01*
X91661904Y-72261904D01*
X91614285Y-72357142D01*
X91566666Y-72404761D01*
X91471428Y-72452380D01*
X91233333Y-72452380D01*
X91138095Y-72404761D01*
X91090476Y-72357142D01*
%TO.C,R27*%
X107557142Y-68752380D02*
X107223809Y-68276190D01*
X106985714Y-68752380D02*
X106985714Y-67752380D01*
X107366666Y-67752380D01*
X107461904Y-67800000D01*
X107509523Y-67847619D01*
X107557142Y-67942857D01*
X107557142Y-68085714D01*
X107509523Y-68180952D01*
X107461904Y-68228571D01*
X107366666Y-68276190D01*
X106985714Y-68276190D01*
X107938095Y-67847619D02*
X107985714Y-67800000D01*
X108080952Y-67752380D01*
X108319047Y-67752380D01*
X108414285Y-67800000D01*
X108461904Y-67847619D01*
X108509523Y-67942857D01*
X108509523Y-68038095D01*
X108461904Y-68180952D01*
X107890476Y-68752380D01*
X108509523Y-68752380D01*
X108842857Y-67752380D02*
X109509523Y-67752380D01*
X109080952Y-68752380D01*
%TO.C,R31*%
X91257142Y-85082380D02*
X90923809Y-84606190D01*
X90685714Y-85082380D02*
X90685714Y-84082380D01*
X91066666Y-84082380D01*
X91161904Y-84130000D01*
X91209523Y-84177619D01*
X91257142Y-84272857D01*
X91257142Y-84415714D01*
X91209523Y-84510952D01*
X91161904Y-84558571D01*
X91066666Y-84606190D01*
X90685714Y-84606190D01*
X91590476Y-84082380D02*
X92209523Y-84082380D01*
X91876190Y-84463333D01*
X92019047Y-84463333D01*
X92114285Y-84510952D01*
X92161904Y-84558571D01*
X92209523Y-84653809D01*
X92209523Y-84891904D01*
X92161904Y-84987142D01*
X92114285Y-85034761D01*
X92019047Y-85082380D01*
X91733333Y-85082380D01*
X91638095Y-85034761D01*
X91590476Y-84987142D01*
X93161904Y-85082380D02*
X92590476Y-85082380D01*
X92876190Y-85082380D02*
X92876190Y-84082380D01*
X92780952Y-84225238D01*
X92685714Y-84320476D01*
X92590476Y-84368095D01*
%TO.C,R32*%
X91357142Y-82382380D02*
X91023809Y-81906190D01*
X90785714Y-82382380D02*
X90785714Y-81382380D01*
X91166666Y-81382380D01*
X91261904Y-81430000D01*
X91309523Y-81477619D01*
X91357142Y-81572857D01*
X91357142Y-81715714D01*
X91309523Y-81810952D01*
X91261904Y-81858571D01*
X91166666Y-81906190D01*
X90785714Y-81906190D01*
X91690476Y-81382380D02*
X92309523Y-81382380D01*
X91976190Y-81763333D01*
X92119047Y-81763333D01*
X92214285Y-81810952D01*
X92261904Y-81858571D01*
X92309523Y-81953809D01*
X92309523Y-82191904D01*
X92261904Y-82287142D01*
X92214285Y-82334761D01*
X92119047Y-82382380D01*
X91833333Y-82382380D01*
X91738095Y-82334761D01*
X91690476Y-82287142D01*
X92690476Y-81477619D02*
X92738095Y-81430000D01*
X92833333Y-81382380D01*
X93071428Y-81382380D01*
X93166666Y-81430000D01*
X93214285Y-81477619D01*
X93261904Y-81572857D01*
X93261904Y-81668095D01*
X93214285Y-81810952D01*
X92642857Y-82382380D01*
X93261904Y-82382380D01*
%TO.C,SW1*%
X110766666Y-66404761D02*
X110909523Y-66452380D01*
X111147619Y-66452380D01*
X111242857Y-66404761D01*
X111290476Y-66357142D01*
X111338095Y-66261904D01*
X111338095Y-66166666D01*
X111290476Y-66071428D01*
X111242857Y-66023809D01*
X111147619Y-65976190D01*
X110957142Y-65928571D01*
X110861904Y-65880952D01*
X110814285Y-65833333D01*
X110766666Y-65738095D01*
X110766666Y-65642857D01*
X110814285Y-65547619D01*
X110861904Y-65500000D01*
X110957142Y-65452380D01*
X111195238Y-65452380D01*
X111338095Y-65500000D01*
X111671428Y-65452380D02*
X111909523Y-66452380D01*
X112100000Y-65738095D01*
X112290476Y-66452380D01*
X112528571Y-65452380D01*
X113433333Y-66452380D02*
X112861904Y-66452380D01*
X113147619Y-66452380D02*
X113147619Y-65452380D01*
X113052380Y-65595238D01*
X112957142Y-65690476D01*
X112861904Y-65738095D01*
%TO.C,SW2*%
X91166666Y-90604761D02*
X91309523Y-90652380D01*
X91547619Y-90652380D01*
X91642857Y-90604761D01*
X91690476Y-90557142D01*
X91738095Y-90461904D01*
X91738095Y-90366666D01*
X91690476Y-90271428D01*
X91642857Y-90223809D01*
X91547619Y-90176190D01*
X91357142Y-90128571D01*
X91261904Y-90080952D01*
X91214285Y-90033333D01*
X91166666Y-89938095D01*
X91166666Y-89842857D01*
X91214285Y-89747619D01*
X91261904Y-89700000D01*
X91357142Y-89652380D01*
X91595238Y-89652380D01*
X91738095Y-89700000D01*
X92071428Y-89652380D02*
X92309523Y-90652380D01*
X92500000Y-89938095D01*
X92690476Y-90652380D01*
X92928571Y-89652380D01*
X93261904Y-89747619D02*
X93309523Y-89700000D01*
X93404761Y-89652380D01*
X93642857Y-89652380D01*
X93738095Y-89700000D01*
X93785714Y-89747619D01*
X93833333Y-89842857D01*
X93833333Y-89938095D01*
X93785714Y-90080952D01*
X93214285Y-90652380D01*
X93833333Y-90652380D01*
%TO.C,SW3*%
X74666666Y-101204761D02*
X74809523Y-101252380D01*
X75047619Y-101252380D01*
X75142857Y-101204761D01*
X75190476Y-101157142D01*
X75238095Y-101061904D01*
X75238095Y-100966666D01*
X75190476Y-100871428D01*
X75142857Y-100823809D01*
X75047619Y-100776190D01*
X74857142Y-100728571D01*
X74761904Y-100680952D01*
X74714285Y-100633333D01*
X74666666Y-100538095D01*
X74666666Y-100442857D01*
X74714285Y-100347619D01*
X74761904Y-100300000D01*
X74857142Y-100252380D01*
X75095238Y-100252380D01*
X75238095Y-100300000D01*
X75571428Y-100252380D02*
X75809523Y-101252380D01*
X76000000Y-100538095D01*
X76190476Y-101252380D01*
X76428571Y-100252380D01*
X76714285Y-100252380D02*
X77333333Y-100252380D01*
X77000000Y-100633333D01*
X77142857Y-100633333D01*
X77238095Y-100680952D01*
X77285714Y-100728571D01*
X77333333Y-100823809D01*
X77333333Y-101061904D01*
X77285714Y-101157142D01*
X77238095Y-101204761D01*
X77142857Y-101252380D01*
X76857142Y-101252380D01*
X76761904Y-101204761D01*
X76714285Y-101157142D01*
%TO.C,U2*%
X90738095Y-58952380D02*
X90738095Y-59761904D01*
X90785714Y-59857142D01*
X90833333Y-59904761D01*
X90928571Y-59952380D01*
X91119047Y-59952380D01*
X91214285Y-59904761D01*
X91261904Y-59857142D01*
X91309523Y-59761904D01*
X91309523Y-58952380D01*
X91738095Y-59047619D02*
X91785714Y-59000000D01*
X91880952Y-58952380D01*
X92119047Y-58952380D01*
X92214285Y-59000000D01*
X92261904Y-59047619D01*
X92309523Y-59142857D01*
X92309523Y-59238095D01*
X92261904Y-59380952D01*
X91690476Y-59952380D01*
X92309523Y-59952380D01*
%TO.C,U7*%
X78438095Y-68652380D02*
X78438095Y-69461904D01*
X78485714Y-69557142D01*
X78533333Y-69604761D01*
X78628571Y-69652380D01*
X78819047Y-69652380D01*
X78914285Y-69604761D01*
X78961904Y-69557142D01*
X79009523Y-69461904D01*
X79009523Y-68652380D01*
X79390476Y-68652380D02*
X80057142Y-68652380D01*
X79628571Y-69652380D01*
%TO.C,U8*%
X100038095Y-79152380D02*
X100038095Y-79961904D01*
X100085714Y-80057142D01*
X100133333Y-80104761D01*
X100228571Y-80152380D01*
X100419047Y-80152380D01*
X100514285Y-80104761D01*
X100561904Y-80057142D01*
X100609523Y-79961904D01*
X100609523Y-79152380D01*
X101228571Y-79580952D02*
X101133333Y-79533333D01*
X101085714Y-79485714D01*
X101038095Y-79390476D01*
X101038095Y-79342857D01*
X101085714Y-79247619D01*
X101133333Y-79200000D01*
X101228571Y-79152380D01*
X101419047Y-79152380D01*
X101514285Y-79200000D01*
X101561904Y-79247619D01*
X101609523Y-79342857D01*
X101609523Y-79390476D01*
X101561904Y-79485714D01*
X101514285Y-79533333D01*
X101419047Y-79580952D01*
X101228571Y-79580952D01*
X101133333Y-79628571D01*
X101085714Y-79676190D01*
X101038095Y-79771428D01*
X101038095Y-79961904D01*
X101085714Y-80057142D01*
X101133333Y-80104761D01*
X101228571Y-80152380D01*
X101419047Y-80152380D01*
X101514285Y-80104761D01*
X101561904Y-80057142D01*
X101609523Y-79961904D01*
X101609523Y-79771428D01*
X101561904Y-79676190D01*
X101514285Y-79628571D01*
X101419047Y-79580952D01*
%TO.C,J15*%
X75290476Y-60252380D02*
X75290476Y-60966666D01*
X75242857Y-61109523D01*
X75147619Y-61204761D01*
X75004761Y-61252380D01*
X74909523Y-61252380D01*
X76290476Y-61252380D02*
X75719047Y-61252380D01*
X76004761Y-61252380D02*
X76004761Y-60252380D01*
X75909523Y-60395238D01*
X75814285Y-60490476D01*
X75719047Y-60538095D01*
X77195238Y-60252380D02*
X76719047Y-60252380D01*
X76671428Y-60728571D01*
X76719047Y-60680952D01*
X76814285Y-60633333D01*
X77052380Y-60633333D01*
X77147619Y-60680952D01*
X77195238Y-60728571D01*
X77242857Y-60823809D01*
X77242857Y-61061904D01*
X77195238Y-61157142D01*
X77147619Y-61204761D01*
X77052380Y-61252380D01*
X76814285Y-61252380D01*
X76719047Y-61204761D01*
X76671428Y-61157142D01*
%TO.C,J16*%
X109490476Y-60452380D02*
X109490476Y-61166666D01*
X109442857Y-61309523D01*
X109347619Y-61404761D01*
X109204761Y-61452380D01*
X109109523Y-61452380D01*
X110490476Y-61452380D02*
X109919047Y-61452380D01*
X110204761Y-61452380D02*
X110204761Y-60452380D01*
X110109523Y-60595238D01*
X110014285Y-60690476D01*
X109919047Y-60738095D01*
X111347619Y-60452380D02*
X111157142Y-60452380D01*
X111061904Y-60500000D01*
X111014285Y-60547619D01*
X110919047Y-60690476D01*
X110871428Y-60880952D01*
X110871428Y-61261904D01*
X110919047Y-61357142D01*
X110966666Y-61404761D01*
X111061904Y-61452380D01*
X111252380Y-61452380D01*
X111347619Y-61404761D01*
X111395238Y-61357142D01*
X111442857Y-61261904D01*
X111442857Y-61023809D01*
X111395238Y-60928571D01*
X111347619Y-60880952D01*
X111252380Y-60833333D01*
X111061904Y-60833333D01*
X110966666Y-60880952D01*
X110919047Y-60928571D01*
X110871428Y-61023809D01*
%TO.C,J2*%
X55656666Y-99852380D02*
X55656666Y-100566666D01*
X55609047Y-100709523D01*
X55513809Y-100804761D01*
X55370952Y-100852380D01*
X55275714Y-100852380D01*
X56085238Y-99947619D02*
X56132857Y-99900000D01*
X56228095Y-99852380D01*
X56466190Y-99852380D01*
X56561428Y-99900000D01*
X56609047Y-99947619D01*
X56656666Y-100042857D01*
X56656666Y-100138095D01*
X56609047Y-100280952D01*
X56037619Y-100852380D01*
X56656666Y-100852380D01*
%TD*%
M02*
