G04 #@! TF.GenerationSoftware,KiCad,Pcbnew,(5.0.2)-1*
G04 #@! TF.CreationDate,2020-06-29T20:54:18+09:00*
G04 #@! TF.ProjectId,schematic,73636865-6d61-4746-9963-2e6b69636164,rev?*
G04 #@! TF.SameCoordinates,Original*
G04 #@! TF.FileFunction,Soldermask,Top*
G04 #@! TF.FilePolarity,Negative*
%FSLAX46Y46*%
G04 Gerber Fmt 4.6, Leading zero omitted, Abs format (unit mm)*
G04 Created by KiCad (PCBNEW (5.0.2)-1) date 2020/06/29 20:54:18*
%MOMM*%
%LPD*%
G01*
G04 APERTURE LIST*
%ADD10C,0.100000*%
G04 APERTURE END LIST*
D10*
X98680000Y-95710000D02*
X99180000Y-95710000D01*
X98560000Y-95610000D02*
X98720000Y-95610000D01*
X98690000Y-95780000D02*
X98560000Y-95610000D01*
X99200000Y-95780000D02*
X98690000Y-95780000D01*
X99200000Y-95610000D02*
X99200000Y-95780000D01*
X98650000Y-95610000D02*
X99200000Y-95610000D01*
G36*
X57200000Y-111200000D02*
X55500000Y-111200000D01*
X55500000Y-109500000D01*
X57200000Y-109500000D01*
X57200000Y-111200000D01*
X57200000Y-111200000D01*
G37*
G36*
X72836630Y-109512299D02*
X72996855Y-109560903D01*
X73144520Y-109639831D01*
X73273949Y-109746051D01*
X73380169Y-109875480D01*
X73459097Y-110023145D01*
X73507701Y-110183370D01*
X73524112Y-110350000D01*
X73507701Y-110516630D01*
X73459097Y-110676855D01*
X73380169Y-110824520D01*
X73273949Y-110953949D01*
X73144520Y-111060169D01*
X72996855Y-111139097D01*
X72836630Y-111187701D01*
X72711752Y-111200000D01*
X72628248Y-111200000D01*
X72503370Y-111187701D01*
X72343145Y-111139097D01*
X72195480Y-111060169D01*
X72066051Y-110953949D01*
X71959831Y-110824520D01*
X71880903Y-110676855D01*
X71832299Y-110516630D01*
X71815888Y-110350000D01*
X71832299Y-110183370D01*
X71880903Y-110023145D01*
X71959831Y-109875480D01*
X72066051Y-109746051D01*
X72195480Y-109639831D01*
X72343145Y-109560903D01*
X72503370Y-109512299D01*
X72628248Y-109500000D01*
X72711752Y-109500000D01*
X72836630Y-109512299D01*
X72836630Y-109512299D01*
G37*
G36*
X75376630Y-109512299D02*
X75536855Y-109560903D01*
X75684520Y-109639831D01*
X75813949Y-109746051D01*
X75920169Y-109875480D01*
X75999097Y-110023145D01*
X76047701Y-110183370D01*
X76064112Y-110350000D01*
X76047701Y-110516630D01*
X75999097Y-110676855D01*
X75920169Y-110824520D01*
X75813949Y-110953949D01*
X75684520Y-111060169D01*
X75536855Y-111139097D01*
X75376630Y-111187701D01*
X75251752Y-111200000D01*
X75168248Y-111200000D01*
X75043370Y-111187701D01*
X74883145Y-111139097D01*
X74735480Y-111060169D01*
X74606051Y-110953949D01*
X74499831Y-110824520D01*
X74420903Y-110676855D01*
X74372299Y-110516630D01*
X74355888Y-110350000D01*
X74372299Y-110183370D01*
X74420903Y-110023145D01*
X74499831Y-109875480D01*
X74606051Y-109746051D01*
X74735480Y-109639831D01*
X74883145Y-109560903D01*
X75043370Y-109512299D01*
X75168248Y-109500000D01*
X75251752Y-109500000D01*
X75376630Y-109512299D01*
X75376630Y-109512299D01*
G37*
G36*
X70296630Y-109512299D02*
X70456855Y-109560903D01*
X70604520Y-109639831D01*
X70733949Y-109746051D01*
X70840169Y-109875480D01*
X70919097Y-110023145D01*
X70967701Y-110183370D01*
X70984112Y-110350000D01*
X70967701Y-110516630D01*
X70919097Y-110676855D01*
X70840169Y-110824520D01*
X70733949Y-110953949D01*
X70604520Y-111060169D01*
X70456855Y-111139097D01*
X70296630Y-111187701D01*
X70171752Y-111200000D01*
X70088248Y-111200000D01*
X69963370Y-111187701D01*
X69803145Y-111139097D01*
X69655480Y-111060169D01*
X69526051Y-110953949D01*
X69419831Y-110824520D01*
X69340903Y-110676855D01*
X69292299Y-110516630D01*
X69275888Y-110350000D01*
X69292299Y-110183370D01*
X69340903Y-110023145D01*
X69419831Y-109875480D01*
X69526051Y-109746051D01*
X69655480Y-109639831D01*
X69803145Y-109560903D01*
X69963370Y-109512299D01*
X70088248Y-109500000D01*
X70171752Y-109500000D01*
X70296630Y-109512299D01*
X70296630Y-109512299D01*
G37*
G36*
X68440000Y-111200000D02*
X66740000Y-111200000D01*
X66740000Y-109500000D01*
X68440000Y-109500000D01*
X68440000Y-111200000D01*
X68440000Y-111200000D01*
G37*
G36*
X61596630Y-109512299D02*
X61756855Y-109560903D01*
X61904520Y-109639831D01*
X62033949Y-109746051D01*
X62140169Y-109875480D01*
X62219097Y-110023145D01*
X62267701Y-110183370D01*
X62284112Y-110350000D01*
X62267701Y-110516630D01*
X62219097Y-110676855D01*
X62140169Y-110824520D01*
X62033949Y-110953949D01*
X61904520Y-111060169D01*
X61756855Y-111139097D01*
X61596630Y-111187701D01*
X61471752Y-111200000D01*
X61388248Y-111200000D01*
X61263370Y-111187701D01*
X61103145Y-111139097D01*
X60955480Y-111060169D01*
X60826051Y-110953949D01*
X60719831Y-110824520D01*
X60640903Y-110676855D01*
X60592299Y-110516630D01*
X60575888Y-110350000D01*
X60592299Y-110183370D01*
X60640903Y-110023145D01*
X60719831Y-109875480D01*
X60826051Y-109746051D01*
X60955480Y-109639831D01*
X61103145Y-109560903D01*
X61263370Y-109512299D01*
X61388248Y-109500000D01*
X61471752Y-109500000D01*
X61596630Y-109512299D01*
X61596630Y-109512299D01*
G37*
G36*
X64136630Y-109512299D02*
X64296855Y-109560903D01*
X64444520Y-109639831D01*
X64573949Y-109746051D01*
X64680169Y-109875480D01*
X64759097Y-110023145D01*
X64807701Y-110183370D01*
X64824112Y-110350000D01*
X64807701Y-110516630D01*
X64759097Y-110676855D01*
X64680169Y-110824520D01*
X64573949Y-110953949D01*
X64444520Y-111060169D01*
X64296855Y-111139097D01*
X64136630Y-111187701D01*
X64011752Y-111200000D01*
X63928248Y-111200000D01*
X63803370Y-111187701D01*
X63643145Y-111139097D01*
X63495480Y-111060169D01*
X63366051Y-110953949D01*
X63259831Y-110824520D01*
X63180903Y-110676855D01*
X63132299Y-110516630D01*
X63115888Y-110350000D01*
X63132299Y-110183370D01*
X63180903Y-110023145D01*
X63259831Y-109875480D01*
X63366051Y-109746051D01*
X63495480Y-109639831D01*
X63643145Y-109560903D01*
X63803370Y-109512299D01*
X63928248Y-109500000D01*
X64011752Y-109500000D01*
X64136630Y-109512299D01*
X64136630Y-109512299D01*
G37*
G36*
X59056630Y-109512299D02*
X59216855Y-109560903D01*
X59364520Y-109639831D01*
X59493949Y-109746051D01*
X59600169Y-109875480D01*
X59679097Y-110023145D01*
X59727701Y-110183370D01*
X59744112Y-110350000D01*
X59727701Y-110516630D01*
X59679097Y-110676855D01*
X59600169Y-110824520D01*
X59493949Y-110953949D01*
X59364520Y-111060169D01*
X59216855Y-111139097D01*
X59056630Y-111187701D01*
X58931752Y-111200000D01*
X58848248Y-111200000D01*
X58723370Y-111187701D01*
X58563145Y-111139097D01*
X58415480Y-111060169D01*
X58286051Y-110953949D01*
X58179831Y-110824520D01*
X58100903Y-110676855D01*
X58052299Y-110516630D01*
X58035888Y-110350000D01*
X58052299Y-110183370D01*
X58100903Y-110023145D01*
X58179831Y-109875480D01*
X58286051Y-109746051D01*
X58415480Y-109639831D01*
X58563145Y-109560903D01*
X58723370Y-109512299D01*
X58848248Y-109500000D01*
X58931752Y-109500000D01*
X59056630Y-109512299D01*
X59056630Y-109512299D01*
G37*
G36*
X49010000Y-111150000D02*
X47310000Y-111150000D01*
X47310000Y-109450000D01*
X49010000Y-109450000D01*
X49010000Y-111150000D01*
X49010000Y-111150000D01*
G37*
G36*
X53406630Y-109462299D02*
X53566855Y-109510903D01*
X53714520Y-109589831D01*
X53843949Y-109696051D01*
X53950169Y-109825480D01*
X54029097Y-109973145D01*
X54077701Y-110133370D01*
X54094112Y-110300000D01*
X54077701Y-110466630D01*
X54029097Y-110626855D01*
X53950169Y-110774520D01*
X53843949Y-110903949D01*
X53714520Y-111010169D01*
X53566855Y-111089097D01*
X53406630Y-111137701D01*
X53281752Y-111150000D01*
X53198248Y-111150000D01*
X53073370Y-111137701D01*
X52913145Y-111089097D01*
X52765480Y-111010169D01*
X52636051Y-110903949D01*
X52529831Y-110774520D01*
X52450903Y-110626855D01*
X52402299Y-110466630D01*
X52385888Y-110300000D01*
X52402299Y-110133370D01*
X52450903Y-109973145D01*
X52529831Y-109825480D01*
X52636051Y-109696051D01*
X52765480Y-109589831D01*
X52913145Y-109510903D01*
X53073370Y-109462299D01*
X53198248Y-109450000D01*
X53281752Y-109450000D01*
X53406630Y-109462299D01*
X53406630Y-109462299D01*
G37*
G36*
X50866630Y-109462299D02*
X51026855Y-109510903D01*
X51174520Y-109589831D01*
X51303949Y-109696051D01*
X51410169Y-109825480D01*
X51489097Y-109973145D01*
X51537701Y-110133370D01*
X51554112Y-110300000D01*
X51537701Y-110466630D01*
X51489097Y-110626855D01*
X51410169Y-110774520D01*
X51303949Y-110903949D01*
X51174520Y-111010169D01*
X51026855Y-111089097D01*
X50866630Y-111137701D01*
X50741752Y-111150000D01*
X50658248Y-111150000D01*
X50533370Y-111137701D01*
X50373145Y-111089097D01*
X50225480Y-111010169D01*
X50096051Y-110903949D01*
X49989831Y-110774520D01*
X49910903Y-110626855D01*
X49862299Y-110466630D01*
X49845888Y-110300000D01*
X49862299Y-110133370D01*
X49910903Y-109973145D01*
X49989831Y-109825480D01*
X50096051Y-109696051D01*
X50225480Y-109589831D01*
X50373145Y-109510903D01*
X50533370Y-109462299D01*
X50658248Y-109450000D01*
X50741752Y-109450000D01*
X50866630Y-109462299D01*
X50866630Y-109462299D01*
G37*
G36*
X70441403Y-106842466D02*
X70459579Y-106847980D01*
X70476333Y-106856936D01*
X70491015Y-106868985D01*
X70503064Y-106883667D01*
X70512020Y-106900421D01*
X70517534Y-106918597D01*
X70520000Y-106943638D01*
X70520000Y-107736362D01*
X70517534Y-107761403D01*
X70512020Y-107779579D01*
X70503064Y-107796333D01*
X70491015Y-107811015D01*
X70476333Y-107823064D01*
X70459579Y-107832020D01*
X70441403Y-107837534D01*
X70416362Y-107840000D01*
X69983638Y-107840000D01*
X69958597Y-107837534D01*
X69940421Y-107832020D01*
X69923667Y-107823064D01*
X69908985Y-107811015D01*
X69896936Y-107796333D01*
X69887980Y-107779579D01*
X69882466Y-107761403D01*
X69880000Y-107736362D01*
X69880000Y-106943638D01*
X69882466Y-106918597D01*
X69887980Y-106900421D01*
X69896936Y-106883667D01*
X69908985Y-106868985D01*
X69923667Y-106856936D01*
X69940421Y-106847980D01*
X69958597Y-106842466D01*
X69983638Y-106840000D01*
X70416362Y-106840000D01*
X70441403Y-106842466D01*
X70441403Y-106842466D01*
G37*
G36*
X57341403Y-106492466D02*
X57359579Y-106497980D01*
X57376333Y-106506936D01*
X57391015Y-106518985D01*
X57403064Y-106533667D01*
X57412020Y-106550421D01*
X57417534Y-106568597D01*
X57420000Y-106593638D01*
X57420000Y-107386362D01*
X57417534Y-107411403D01*
X57412020Y-107429579D01*
X57403064Y-107446333D01*
X57391015Y-107461015D01*
X57376333Y-107473064D01*
X57359579Y-107482020D01*
X57341403Y-107487534D01*
X57316362Y-107490000D01*
X56883638Y-107490000D01*
X56858597Y-107487534D01*
X56840421Y-107482020D01*
X56823667Y-107473064D01*
X56808985Y-107461015D01*
X56796936Y-107446333D01*
X56787980Y-107429579D01*
X56782466Y-107411403D01*
X56780000Y-107386362D01*
X56780000Y-106593638D01*
X56782466Y-106568597D01*
X56787980Y-106550421D01*
X56796936Y-106533667D01*
X56808985Y-106518985D01*
X56823667Y-106506936D01*
X56840421Y-106497980D01*
X56858597Y-106492466D01*
X56883638Y-106490000D01*
X57316362Y-106490000D01*
X57341403Y-106492466D01*
X57341403Y-106492466D01*
G37*
G36*
X54400000Y-107350000D02*
X53750000Y-107350000D01*
X53750000Y-105300000D01*
X54400000Y-105300000D01*
X54400000Y-107350000D01*
X54400000Y-107350000D01*
G37*
G36*
X52250000Y-107350000D02*
X51600000Y-107350000D01*
X51600000Y-105300000D01*
X52250000Y-105300000D01*
X52250000Y-107350000D01*
X52250000Y-107350000D01*
G37*
G36*
X61866403Y-106342466D02*
X61884579Y-106347980D01*
X61901333Y-106356936D01*
X61916015Y-106368985D01*
X61928064Y-106383667D01*
X61937020Y-106400421D01*
X61942534Y-106418597D01*
X61945000Y-106443638D01*
X61945000Y-107236362D01*
X61942534Y-107261403D01*
X61937020Y-107279579D01*
X61928064Y-107296333D01*
X61916015Y-107311015D01*
X61901333Y-107323064D01*
X61884579Y-107332020D01*
X61866403Y-107337534D01*
X61841362Y-107340000D01*
X61408638Y-107340000D01*
X61383597Y-107337534D01*
X61365421Y-107332020D01*
X61348667Y-107323064D01*
X61333985Y-107311015D01*
X61321936Y-107296333D01*
X61312980Y-107279579D01*
X61307466Y-107261403D01*
X61305000Y-107236362D01*
X61305000Y-106443638D01*
X61307466Y-106418597D01*
X61312980Y-106400421D01*
X61321936Y-106383667D01*
X61333985Y-106368985D01*
X61348667Y-106356936D01*
X61365421Y-106347980D01*
X61383597Y-106342466D01*
X61408638Y-106340000D01*
X61841362Y-106340000D01*
X61866403Y-106342466D01*
X61866403Y-106342466D01*
G37*
G36*
X65561403Y-106222466D02*
X65579579Y-106227980D01*
X65596333Y-106236936D01*
X65611015Y-106248985D01*
X65623064Y-106263667D01*
X65632020Y-106280421D01*
X65637534Y-106298597D01*
X65640000Y-106323638D01*
X65640000Y-107116362D01*
X65637534Y-107141403D01*
X65632020Y-107159579D01*
X65623064Y-107176333D01*
X65611015Y-107191015D01*
X65596333Y-107203064D01*
X65579579Y-107212020D01*
X65561403Y-107217534D01*
X65536362Y-107220000D01*
X65103638Y-107220000D01*
X65078597Y-107217534D01*
X65060421Y-107212020D01*
X65043667Y-107203064D01*
X65028985Y-107191015D01*
X65016936Y-107176333D01*
X65007980Y-107159579D01*
X65002466Y-107141403D01*
X65000000Y-107116362D01*
X65000000Y-106323638D01*
X65002466Y-106298597D01*
X65007980Y-106280421D01*
X65016936Y-106263667D01*
X65028985Y-106248985D01*
X65043667Y-106236936D01*
X65060421Y-106227980D01*
X65078597Y-106222466D01*
X65103638Y-106220000D01*
X65536362Y-106220000D01*
X65561403Y-106222466D01*
X65561403Y-106222466D01*
G37*
G36*
X59844024Y-105843955D02*
X59876736Y-105853879D01*
X59906890Y-105869997D01*
X59933316Y-105891684D01*
X59955003Y-105918110D01*
X59971121Y-105948264D01*
X59981045Y-105980976D01*
X59985000Y-106021138D01*
X59985000Y-106708862D01*
X59981045Y-106749024D01*
X59971121Y-106781736D01*
X59955003Y-106811890D01*
X59933316Y-106838316D01*
X59906890Y-106860003D01*
X59876736Y-106876121D01*
X59844024Y-106886045D01*
X59803862Y-106890000D01*
X59216138Y-106890000D01*
X59175976Y-106886045D01*
X59143264Y-106876121D01*
X59113110Y-106860003D01*
X59086684Y-106838316D01*
X59064997Y-106811890D01*
X59048879Y-106781736D01*
X59038955Y-106749024D01*
X59035000Y-106708862D01*
X59035000Y-106021138D01*
X59038955Y-105980976D01*
X59048879Y-105948264D01*
X59064997Y-105918110D01*
X59086684Y-105891684D01*
X59113110Y-105869997D01*
X59143264Y-105853879D01*
X59175976Y-105843955D01*
X59216138Y-105840000D01*
X59803862Y-105840000D01*
X59844024Y-105843955D01*
X59844024Y-105843955D01*
G37*
G36*
X70441403Y-105462466D02*
X70459579Y-105467980D01*
X70476333Y-105476936D01*
X70491015Y-105488985D01*
X70503064Y-105503667D01*
X70512020Y-105520421D01*
X70517534Y-105538597D01*
X70520000Y-105563638D01*
X70520000Y-106356362D01*
X70517534Y-106381403D01*
X70512020Y-106399579D01*
X70503064Y-106416333D01*
X70491015Y-106431015D01*
X70476333Y-106443064D01*
X70459579Y-106452020D01*
X70441403Y-106457534D01*
X70416362Y-106460000D01*
X69983638Y-106460000D01*
X69958597Y-106457534D01*
X69940421Y-106452020D01*
X69923667Y-106443064D01*
X69908985Y-106431015D01*
X69896936Y-106416333D01*
X69887980Y-106399579D01*
X69882466Y-106381403D01*
X69880000Y-106356362D01*
X69880000Y-105563638D01*
X69882466Y-105538597D01*
X69887980Y-105520421D01*
X69896936Y-105503667D01*
X69908985Y-105488985D01*
X69923667Y-105476936D01*
X69940421Y-105467980D01*
X69958597Y-105462466D01*
X69983638Y-105460000D01*
X70416362Y-105460000D01*
X70441403Y-105462466D01*
X70441403Y-105462466D01*
G37*
G36*
X76916403Y-105367466D02*
X76934579Y-105372980D01*
X76951333Y-105381936D01*
X76966015Y-105393985D01*
X76978064Y-105408667D01*
X76987020Y-105425421D01*
X76992534Y-105443597D01*
X76995000Y-105468638D01*
X76995000Y-106261362D01*
X76992534Y-106286403D01*
X76987020Y-106304579D01*
X76978064Y-106321333D01*
X76966015Y-106336015D01*
X76951333Y-106348064D01*
X76934579Y-106357020D01*
X76916403Y-106362534D01*
X76891362Y-106365000D01*
X76458638Y-106365000D01*
X76433597Y-106362534D01*
X76415421Y-106357020D01*
X76398667Y-106348064D01*
X76383985Y-106336015D01*
X76371936Y-106321333D01*
X76362980Y-106304579D01*
X76357466Y-106286403D01*
X76355000Y-106261362D01*
X76355000Y-105468638D01*
X76357466Y-105443597D01*
X76362980Y-105425421D01*
X76371936Y-105408667D01*
X76383985Y-105393985D01*
X76398667Y-105381936D01*
X76415421Y-105372980D01*
X76433597Y-105367466D01*
X76458638Y-105365000D01*
X76891362Y-105365000D01*
X76916403Y-105367466D01*
X76916403Y-105367466D01*
G37*
G36*
X57341403Y-105112466D02*
X57359579Y-105117980D01*
X57376333Y-105126936D01*
X57391015Y-105138985D01*
X57403064Y-105153667D01*
X57412020Y-105170421D01*
X57417534Y-105188597D01*
X57420000Y-105213638D01*
X57420000Y-106006362D01*
X57417534Y-106031403D01*
X57412020Y-106049579D01*
X57403064Y-106066333D01*
X57391015Y-106081015D01*
X57376333Y-106093064D01*
X57359579Y-106102020D01*
X57341403Y-106107534D01*
X57316362Y-106110000D01*
X56883638Y-106110000D01*
X56858597Y-106107534D01*
X56840421Y-106102020D01*
X56823667Y-106093064D01*
X56808985Y-106081015D01*
X56796936Y-106066333D01*
X56787980Y-106049579D01*
X56782466Y-106031403D01*
X56780000Y-106006362D01*
X56780000Y-105213638D01*
X56782466Y-105188597D01*
X56787980Y-105170421D01*
X56796936Y-105153667D01*
X56808985Y-105138985D01*
X56823667Y-105126936D01*
X56840421Y-105117980D01*
X56858597Y-105112466D01*
X56883638Y-105110000D01*
X57316362Y-105110000D01*
X57341403Y-105112466D01*
X57341403Y-105112466D01*
G37*
G36*
X61866403Y-104962466D02*
X61884579Y-104967980D01*
X61901333Y-104976936D01*
X61916015Y-104988985D01*
X61928064Y-105003667D01*
X61937020Y-105020421D01*
X61942534Y-105038597D01*
X61945000Y-105063638D01*
X61945000Y-105856362D01*
X61942534Y-105881403D01*
X61937020Y-105899579D01*
X61928064Y-105916333D01*
X61916015Y-105931015D01*
X61901333Y-105943064D01*
X61884579Y-105952020D01*
X61866403Y-105957534D01*
X61841362Y-105960000D01*
X61408638Y-105960000D01*
X61383597Y-105957534D01*
X61365421Y-105952020D01*
X61348667Y-105943064D01*
X61333985Y-105931015D01*
X61321936Y-105916333D01*
X61312980Y-105899579D01*
X61307466Y-105881403D01*
X61305000Y-105856362D01*
X61305000Y-105063638D01*
X61307466Y-105038597D01*
X61312980Y-105020421D01*
X61321936Y-105003667D01*
X61333985Y-104988985D01*
X61348667Y-104976936D01*
X61365421Y-104967980D01*
X61383597Y-104962466D01*
X61408638Y-104960000D01*
X61841362Y-104960000D01*
X61866403Y-104962466D01*
X61866403Y-104962466D01*
G37*
G36*
X65561403Y-104842466D02*
X65579579Y-104847980D01*
X65596333Y-104856936D01*
X65611015Y-104868985D01*
X65623064Y-104883667D01*
X65632020Y-104900421D01*
X65637534Y-104918597D01*
X65640000Y-104943638D01*
X65640000Y-105736362D01*
X65637534Y-105761403D01*
X65632020Y-105779579D01*
X65623064Y-105796333D01*
X65611015Y-105811015D01*
X65596333Y-105823064D01*
X65579579Y-105832020D01*
X65561403Y-105837534D01*
X65536362Y-105840000D01*
X65103638Y-105840000D01*
X65078597Y-105837534D01*
X65060421Y-105832020D01*
X65043667Y-105823064D01*
X65028985Y-105811015D01*
X65016936Y-105796333D01*
X65007980Y-105779579D01*
X65002466Y-105761403D01*
X65000000Y-105736362D01*
X65000000Y-104943638D01*
X65002466Y-104918597D01*
X65007980Y-104900421D01*
X65016936Y-104883667D01*
X65028985Y-104868985D01*
X65043667Y-104856936D01*
X65060421Y-104847980D01*
X65078597Y-104842466D01*
X65103638Y-104840000D01*
X65536362Y-104840000D01*
X65561403Y-104842466D01*
X65561403Y-104842466D01*
G37*
G36*
X49432323Y-104334767D02*
X49559561Y-104373364D01*
X49676824Y-104436042D01*
X49779606Y-104520394D01*
X49863958Y-104623176D01*
X49926636Y-104740439D01*
X49965233Y-104867677D01*
X49978266Y-105000000D01*
X49965233Y-105132323D01*
X49926636Y-105259561D01*
X49863958Y-105376824D01*
X49779606Y-105479606D01*
X49676824Y-105563958D01*
X49559561Y-105626636D01*
X49432323Y-105665233D01*
X49333159Y-105675000D01*
X49266841Y-105675000D01*
X49167677Y-105665233D01*
X49040439Y-105626636D01*
X48923176Y-105563958D01*
X48820394Y-105479606D01*
X48736042Y-105376824D01*
X48673364Y-105259561D01*
X48634767Y-105132323D01*
X48621734Y-105000000D01*
X48634767Y-104867677D01*
X48673364Y-104740439D01*
X48736042Y-104623176D01*
X48820394Y-104520394D01*
X48923176Y-104436042D01*
X49040439Y-104373364D01*
X49167677Y-104334767D01*
X49266841Y-104325000D01*
X49333159Y-104325000D01*
X49432323Y-104334767D01*
X49432323Y-104334767D01*
G37*
G36*
X47975000Y-105675000D02*
X46625000Y-105675000D01*
X46625000Y-104325000D01*
X47975000Y-104325000D01*
X47975000Y-105675000D01*
X47975000Y-105675000D01*
G37*
G36*
X68996318Y-104164411D02*
X69068767Y-104178822D01*
X69125303Y-104202240D01*
X69205257Y-104235358D01*
X69328100Y-104317439D01*
X69432561Y-104421900D01*
X69514642Y-104544743D01*
X69571178Y-104681234D01*
X69600000Y-104826130D01*
X69600000Y-104973870D01*
X69597786Y-104985000D01*
X69571178Y-105118767D01*
X69565563Y-105132323D01*
X69514642Y-105255257D01*
X69432561Y-105378100D01*
X69328100Y-105482561D01*
X69205257Y-105564642D01*
X69125303Y-105597760D01*
X69068767Y-105621178D01*
X68996318Y-105635589D01*
X68923870Y-105650000D01*
X68776130Y-105650000D01*
X68703682Y-105635589D01*
X68631233Y-105621178D01*
X68574697Y-105597760D01*
X68494743Y-105564642D01*
X68371900Y-105482561D01*
X68267439Y-105378100D01*
X68185358Y-105255257D01*
X68134437Y-105132323D01*
X68128822Y-105118767D01*
X68102214Y-104985000D01*
X68100000Y-104973870D01*
X68100000Y-104826130D01*
X68128822Y-104681234D01*
X68185358Y-104544743D01*
X68267439Y-104421900D01*
X68371900Y-104317439D01*
X68494743Y-104235358D01*
X68574697Y-104202240D01*
X68631233Y-104178822D01*
X68703682Y-104164411D01*
X68776130Y-104150000D01*
X68923870Y-104150000D01*
X68996318Y-104164411D01*
X68996318Y-104164411D01*
G37*
G36*
X72200000Y-105300000D02*
X70850000Y-105300000D01*
X70850000Y-103950000D01*
X72200000Y-103950000D01*
X72200000Y-105300000D01*
X72200000Y-105300000D01*
G37*
G36*
X59844024Y-104093955D02*
X59876736Y-104103879D01*
X59906890Y-104119997D01*
X59933316Y-104141684D01*
X59955003Y-104168110D01*
X59971121Y-104198264D01*
X59981045Y-104230976D01*
X59985000Y-104271138D01*
X59985000Y-104958862D01*
X59981045Y-104999024D01*
X59971121Y-105031736D01*
X59955003Y-105061890D01*
X59933316Y-105088316D01*
X59906890Y-105110003D01*
X59876736Y-105126121D01*
X59844024Y-105136045D01*
X59803862Y-105140000D01*
X59216138Y-105140000D01*
X59175976Y-105136045D01*
X59143264Y-105126121D01*
X59113110Y-105110003D01*
X59086684Y-105088316D01*
X59064997Y-105061890D01*
X59048879Y-105031736D01*
X59038955Y-104999024D01*
X59035000Y-104958862D01*
X59035000Y-104271138D01*
X59038955Y-104230976D01*
X59048879Y-104198264D01*
X59064997Y-104168110D01*
X59086684Y-104141684D01*
X59113110Y-104119997D01*
X59143264Y-104103879D01*
X59175976Y-104093955D01*
X59216138Y-104090000D01*
X59803862Y-104090000D01*
X59844024Y-104093955D01*
X59844024Y-104093955D01*
G37*
G36*
X76916403Y-103987466D02*
X76934579Y-103992980D01*
X76951333Y-104001936D01*
X76966015Y-104013985D01*
X76978064Y-104028667D01*
X76987020Y-104045421D01*
X76992534Y-104063597D01*
X76995000Y-104088638D01*
X76995000Y-104881362D01*
X76992534Y-104906403D01*
X76987020Y-104924579D01*
X76978064Y-104941333D01*
X76966015Y-104956015D01*
X76951333Y-104968064D01*
X76934579Y-104977020D01*
X76916403Y-104982534D01*
X76891362Y-104985000D01*
X76458638Y-104985000D01*
X76433597Y-104982534D01*
X76415421Y-104977020D01*
X76398667Y-104968064D01*
X76383985Y-104956015D01*
X76371936Y-104941333D01*
X76362980Y-104924579D01*
X76357466Y-104906403D01*
X76355000Y-104881362D01*
X76355000Y-104088638D01*
X76357466Y-104063597D01*
X76362980Y-104045421D01*
X76371936Y-104028667D01*
X76383985Y-104013985D01*
X76398667Y-104001936D01*
X76415421Y-103992980D01*
X76433597Y-103987466D01*
X76458638Y-103985000D01*
X76891362Y-103985000D01*
X76916403Y-103987466D01*
X76916403Y-103987466D01*
G37*
G36*
X66970000Y-104410000D02*
X65270000Y-104410000D01*
X65270000Y-102710000D01*
X66970000Y-102710000D01*
X66970000Y-104410000D01*
X66970000Y-104410000D01*
G37*
G36*
X72961403Y-102952466D02*
X72979579Y-102957980D01*
X72996333Y-102966936D01*
X73011015Y-102978985D01*
X73023064Y-102993667D01*
X73032020Y-103010421D01*
X73037534Y-103028597D01*
X73040000Y-103053638D01*
X73040000Y-103486362D01*
X73037534Y-103511403D01*
X73032020Y-103529579D01*
X73023064Y-103546333D01*
X73011015Y-103561015D01*
X72996333Y-103573064D01*
X72979579Y-103582020D01*
X72961403Y-103587534D01*
X72936362Y-103590000D01*
X72143638Y-103590000D01*
X72118597Y-103587534D01*
X72100421Y-103582020D01*
X72083667Y-103573064D01*
X72068985Y-103561015D01*
X72056936Y-103546333D01*
X72047980Y-103529579D01*
X72042466Y-103511403D01*
X72040000Y-103486362D01*
X72040000Y-103053638D01*
X72042466Y-103028597D01*
X72047980Y-103010421D01*
X72056936Y-102993667D01*
X72068985Y-102978985D01*
X72083667Y-102966936D01*
X72100421Y-102957980D01*
X72118597Y-102952466D01*
X72143638Y-102950000D01*
X72936362Y-102950000D01*
X72961403Y-102952466D01*
X72961403Y-102952466D01*
G37*
G36*
X74341403Y-102952466D02*
X74359579Y-102957980D01*
X74376333Y-102966936D01*
X74391015Y-102978985D01*
X74403064Y-102993667D01*
X74412020Y-103010421D01*
X74417534Y-103028597D01*
X74420000Y-103053638D01*
X74420000Y-103486362D01*
X74417534Y-103511403D01*
X74412020Y-103529579D01*
X74403064Y-103546333D01*
X74391015Y-103561015D01*
X74376333Y-103573064D01*
X74359579Y-103582020D01*
X74341403Y-103587534D01*
X74316362Y-103590000D01*
X73523638Y-103590000D01*
X73498597Y-103587534D01*
X73480421Y-103582020D01*
X73463667Y-103573064D01*
X73448985Y-103561015D01*
X73436936Y-103546333D01*
X73427980Y-103529579D01*
X73422466Y-103511403D01*
X73420000Y-103486362D01*
X73420000Y-103053638D01*
X73422466Y-103028597D01*
X73427980Y-103010421D01*
X73436936Y-102993667D01*
X73448985Y-102978985D01*
X73463667Y-102966936D01*
X73480421Y-102957980D01*
X73498597Y-102952466D01*
X73523638Y-102950000D01*
X74316362Y-102950000D01*
X74341403Y-102952466D01*
X74341403Y-102952466D01*
G37*
G36*
X68234024Y-102403955D02*
X68266736Y-102413879D01*
X68296890Y-102429997D01*
X68323316Y-102451684D01*
X68345003Y-102478110D01*
X68361121Y-102508264D01*
X68371045Y-102540976D01*
X68375000Y-102581138D01*
X68375000Y-103268862D01*
X68371045Y-103309024D01*
X68361121Y-103341736D01*
X68345003Y-103371890D01*
X68323316Y-103398316D01*
X68296890Y-103420003D01*
X68266736Y-103436121D01*
X68234024Y-103446045D01*
X68193862Y-103450000D01*
X67606138Y-103450000D01*
X67565976Y-103446045D01*
X67533264Y-103436121D01*
X67503110Y-103420003D01*
X67476684Y-103398316D01*
X67454997Y-103371890D01*
X67438879Y-103341736D01*
X67428955Y-103309024D01*
X67425000Y-103268862D01*
X67425000Y-102581138D01*
X67428955Y-102540976D01*
X67438879Y-102508264D01*
X67454997Y-102478110D01*
X67476684Y-102451684D01*
X67503110Y-102429997D01*
X67533264Y-102413879D01*
X67565976Y-102403955D01*
X67606138Y-102400000D01*
X68193862Y-102400000D01*
X68234024Y-102403955D01*
X68234024Y-102403955D01*
G37*
G36*
X57225000Y-103075000D02*
X55875000Y-103075000D01*
X55875000Y-101725000D01*
X57225000Y-101725000D01*
X57225000Y-103075000D01*
X57225000Y-103075000D01*
G37*
G36*
X69416403Y-101992466D02*
X69434579Y-101997980D01*
X69451333Y-102006936D01*
X69466015Y-102018985D01*
X69478064Y-102033667D01*
X69487020Y-102050421D01*
X69492534Y-102068597D01*
X69495000Y-102093638D01*
X69495000Y-102886362D01*
X69492534Y-102911403D01*
X69487020Y-102929579D01*
X69478064Y-102946333D01*
X69466015Y-102961015D01*
X69451333Y-102973064D01*
X69434579Y-102982020D01*
X69416403Y-102987534D01*
X69391362Y-102990000D01*
X68958638Y-102990000D01*
X68933597Y-102987534D01*
X68915421Y-102982020D01*
X68898667Y-102973064D01*
X68883985Y-102961015D01*
X68871936Y-102946333D01*
X68862980Y-102929579D01*
X68857466Y-102911403D01*
X68855000Y-102886362D01*
X68855000Y-102093638D01*
X68857466Y-102068597D01*
X68862980Y-102050421D01*
X68871936Y-102033667D01*
X68883985Y-102018985D01*
X68898667Y-102006936D01*
X68915421Y-101997980D01*
X68933597Y-101992466D01*
X68958638Y-101990000D01*
X69391362Y-101990000D01*
X69416403Y-101992466D01*
X69416403Y-101992466D01*
G37*
G36*
X63209024Y-101378955D02*
X63241736Y-101388879D01*
X63271890Y-101404997D01*
X63298316Y-101426684D01*
X63320003Y-101453110D01*
X63336121Y-101483264D01*
X63346045Y-101515976D01*
X63350000Y-101556138D01*
X63350000Y-102143862D01*
X63346045Y-102184024D01*
X63336121Y-102216736D01*
X63320003Y-102246890D01*
X63298316Y-102273316D01*
X63271890Y-102295003D01*
X63241736Y-102311121D01*
X63209024Y-102321045D01*
X63168862Y-102325000D01*
X62481138Y-102325000D01*
X62440976Y-102321045D01*
X62408264Y-102311121D01*
X62378110Y-102295003D01*
X62351684Y-102273316D01*
X62329997Y-102246890D01*
X62313879Y-102216736D01*
X62303955Y-102184024D01*
X62300000Y-102143862D01*
X62300000Y-101556138D01*
X62303955Y-101515976D01*
X62313879Y-101483264D01*
X62329997Y-101453110D01*
X62351684Y-101426684D01*
X62378110Y-101404997D01*
X62408264Y-101388879D01*
X62440976Y-101378955D01*
X62481138Y-101375000D01*
X63168862Y-101375000D01*
X63209024Y-101378955D01*
X63209024Y-101378955D01*
G37*
G36*
X61459024Y-101378955D02*
X61491736Y-101388879D01*
X61521890Y-101404997D01*
X61548316Y-101426684D01*
X61570003Y-101453110D01*
X61586121Y-101483264D01*
X61596045Y-101515976D01*
X61600000Y-101556138D01*
X61600000Y-102143862D01*
X61596045Y-102184024D01*
X61586121Y-102216736D01*
X61570003Y-102246890D01*
X61548316Y-102273316D01*
X61521890Y-102295003D01*
X61491736Y-102311121D01*
X61459024Y-102321045D01*
X61418862Y-102325000D01*
X60731138Y-102325000D01*
X60690976Y-102321045D01*
X60658264Y-102311121D01*
X60628110Y-102295003D01*
X60601684Y-102273316D01*
X60579997Y-102246890D01*
X60563879Y-102216736D01*
X60553955Y-102184024D01*
X60550000Y-102143862D01*
X60550000Y-101556138D01*
X60553955Y-101515976D01*
X60563879Y-101483264D01*
X60579997Y-101453110D01*
X60601684Y-101426684D01*
X60628110Y-101404997D01*
X60658264Y-101388879D01*
X60690976Y-101378955D01*
X60731138Y-101375000D01*
X61418862Y-101375000D01*
X61459024Y-101378955D01*
X61459024Y-101378955D01*
G37*
G36*
X54400000Y-102200000D02*
X53750000Y-102200000D01*
X53750000Y-100150000D01*
X54400000Y-100150000D01*
X54400000Y-102200000D01*
X54400000Y-102200000D01*
G37*
G36*
X52250000Y-102200000D02*
X51600000Y-102200000D01*
X51600000Y-100150000D01*
X52250000Y-100150000D01*
X52250000Y-102200000D01*
X52250000Y-102200000D01*
G37*
G36*
X66286630Y-100182299D02*
X66446855Y-100230903D01*
X66594520Y-100309831D01*
X66723949Y-100416051D01*
X66830169Y-100545480D01*
X66909097Y-100693145D01*
X66957701Y-100853370D01*
X66974112Y-101020000D01*
X66957701Y-101186630D01*
X66909097Y-101346855D01*
X66830169Y-101494520D01*
X66723949Y-101623949D01*
X66594520Y-101730169D01*
X66446855Y-101809097D01*
X66286630Y-101857701D01*
X66161752Y-101870000D01*
X66078248Y-101870000D01*
X65953370Y-101857701D01*
X65793145Y-101809097D01*
X65645480Y-101730169D01*
X65516051Y-101623949D01*
X65409831Y-101494520D01*
X65330903Y-101346855D01*
X65282299Y-101186630D01*
X65265888Y-101020000D01*
X65282299Y-100853370D01*
X65330903Y-100693145D01*
X65409831Y-100545480D01*
X65516051Y-100416051D01*
X65645480Y-100309831D01*
X65793145Y-100230903D01*
X65953370Y-100182299D01*
X66078248Y-100170000D01*
X66161752Y-100170000D01*
X66286630Y-100182299D01*
X66286630Y-100182299D01*
G37*
G36*
X68234024Y-100653955D02*
X68266736Y-100663879D01*
X68296890Y-100679997D01*
X68323316Y-100701684D01*
X68345003Y-100728110D01*
X68361121Y-100758264D01*
X68371045Y-100790976D01*
X68375000Y-100831138D01*
X68375000Y-101518862D01*
X68371045Y-101559024D01*
X68361121Y-101591736D01*
X68345003Y-101621890D01*
X68323316Y-101648316D01*
X68296890Y-101670003D01*
X68266736Y-101686121D01*
X68234024Y-101696045D01*
X68193862Y-101700000D01*
X67606138Y-101700000D01*
X67565976Y-101696045D01*
X67533264Y-101686121D01*
X67503110Y-101670003D01*
X67476684Y-101648316D01*
X67454997Y-101621890D01*
X67438879Y-101591736D01*
X67428955Y-101559024D01*
X67425000Y-101518862D01*
X67425000Y-100831138D01*
X67428955Y-100790976D01*
X67438879Y-100758264D01*
X67454997Y-100728110D01*
X67476684Y-100701684D01*
X67503110Y-100679997D01*
X67533264Y-100663879D01*
X67565976Y-100653955D01*
X67606138Y-100650000D01*
X68193862Y-100650000D01*
X68234024Y-100653955D01*
X68234024Y-100653955D01*
G37*
G36*
X69416403Y-100612466D02*
X69434579Y-100617980D01*
X69451333Y-100626936D01*
X69466015Y-100638985D01*
X69478064Y-100653667D01*
X69487020Y-100670421D01*
X69492534Y-100688597D01*
X69495000Y-100713638D01*
X69495000Y-101506362D01*
X69492534Y-101531403D01*
X69487020Y-101549579D01*
X69478064Y-101566333D01*
X69466015Y-101581015D01*
X69451333Y-101593064D01*
X69434579Y-101602020D01*
X69416403Y-101607534D01*
X69391362Y-101610000D01*
X68958638Y-101610000D01*
X68933597Y-101607534D01*
X68915421Y-101602020D01*
X68898667Y-101593064D01*
X68883985Y-101581015D01*
X68871936Y-101566333D01*
X68862980Y-101549579D01*
X68857466Y-101531403D01*
X68855000Y-101506362D01*
X68855000Y-100713638D01*
X68857466Y-100688597D01*
X68862980Y-100670421D01*
X68871936Y-100653667D01*
X68883985Y-100638985D01*
X68898667Y-100626936D01*
X68915421Y-100617980D01*
X68933597Y-100612466D01*
X68958638Y-100610000D01*
X69391362Y-100610000D01*
X69416403Y-100612466D01*
X69416403Y-100612466D01*
G37*
G36*
X46009024Y-99028955D02*
X46041736Y-99038879D01*
X46071890Y-99054997D01*
X46098316Y-99076684D01*
X46120003Y-99103110D01*
X46136121Y-99133264D01*
X46146045Y-99165976D01*
X46150000Y-99206138D01*
X46150000Y-99793862D01*
X46146045Y-99834024D01*
X46136121Y-99866736D01*
X46120003Y-99896890D01*
X46098316Y-99923316D01*
X46071890Y-99945003D01*
X46041736Y-99961121D01*
X46009024Y-99971045D01*
X45968862Y-99975000D01*
X45281138Y-99975000D01*
X45240976Y-99971045D01*
X45208264Y-99961121D01*
X45178110Y-99945003D01*
X45151684Y-99923316D01*
X45129997Y-99896890D01*
X45113879Y-99866736D01*
X45103955Y-99834024D01*
X45100000Y-99793862D01*
X45100000Y-99206138D01*
X45103955Y-99165976D01*
X45113879Y-99133264D01*
X45129997Y-99103110D01*
X45151684Y-99076684D01*
X45178110Y-99054997D01*
X45208264Y-99038879D01*
X45240976Y-99028955D01*
X45281138Y-99025000D01*
X45968862Y-99025000D01*
X46009024Y-99028955D01*
X46009024Y-99028955D01*
G37*
G36*
X47759024Y-99028955D02*
X47791736Y-99038879D01*
X47821890Y-99054997D01*
X47848316Y-99076684D01*
X47870003Y-99103110D01*
X47886121Y-99133264D01*
X47896045Y-99165976D01*
X47900000Y-99206138D01*
X47900000Y-99793862D01*
X47896045Y-99834024D01*
X47886121Y-99866736D01*
X47870003Y-99896890D01*
X47848316Y-99923316D01*
X47821890Y-99945003D01*
X47791736Y-99961121D01*
X47759024Y-99971045D01*
X47718862Y-99975000D01*
X47031138Y-99975000D01*
X46990976Y-99971045D01*
X46958264Y-99961121D01*
X46928110Y-99945003D01*
X46901684Y-99923316D01*
X46879997Y-99896890D01*
X46863879Y-99866736D01*
X46853955Y-99834024D01*
X46850000Y-99793862D01*
X46850000Y-99206138D01*
X46853955Y-99165976D01*
X46863879Y-99133264D01*
X46879997Y-99103110D01*
X46901684Y-99076684D01*
X46928110Y-99054997D01*
X46958264Y-99038879D01*
X46990976Y-99028955D01*
X47031138Y-99025000D01*
X47718862Y-99025000D01*
X47759024Y-99028955D01*
X47759024Y-99028955D01*
G37*
G36*
X55965000Y-99500000D02*
X55065000Y-99500000D01*
X55065000Y-97500000D01*
X55965000Y-97500000D01*
X55965000Y-99500000D01*
X55965000Y-99500000D01*
G37*
G36*
X57235000Y-99500000D02*
X56335000Y-99500000D01*
X56335000Y-97500000D01*
X57235000Y-97500000D01*
X57235000Y-99500000D01*
X57235000Y-99500000D01*
G37*
G36*
X58505000Y-99500000D02*
X57605000Y-99500000D01*
X57605000Y-97500000D01*
X58505000Y-97500000D01*
X58505000Y-99500000D01*
X58505000Y-99500000D01*
G37*
G36*
X54695000Y-99500000D02*
X53795000Y-99500000D01*
X53795000Y-97500000D01*
X54695000Y-97500000D01*
X54695000Y-99500000D01*
X54695000Y-99500000D01*
G37*
G36*
X59775000Y-99500000D02*
X58875000Y-99500000D01*
X58875000Y-97500000D01*
X59775000Y-97500000D01*
X59775000Y-99500000D01*
X59775000Y-99500000D01*
G37*
G36*
X61045000Y-99500000D02*
X60145000Y-99500000D01*
X60145000Y-97500000D01*
X61045000Y-97500000D01*
X61045000Y-99500000D01*
X61045000Y-99500000D01*
G37*
G36*
X62315000Y-99500000D02*
X61415000Y-99500000D01*
X61415000Y-97500000D01*
X62315000Y-97500000D01*
X62315000Y-99500000D01*
X62315000Y-99500000D01*
G37*
G36*
X66125000Y-99500000D02*
X65225000Y-99500000D01*
X65225000Y-97500000D01*
X66125000Y-97500000D01*
X66125000Y-99500000D01*
X66125000Y-99500000D01*
G37*
G36*
X64855000Y-99500000D02*
X63955000Y-99500000D01*
X63955000Y-97500000D01*
X64855000Y-97500000D01*
X64855000Y-99500000D01*
X64855000Y-99500000D01*
G37*
G36*
X63585000Y-99500000D02*
X62685000Y-99500000D01*
X62685000Y-97500000D01*
X63585000Y-97500000D01*
X63585000Y-99500000D01*
X63585000Y-99500000D01*
G37*
G36*
X68665000Y-99500000D02*
X67765000Y-99500000D01*
X67765000Y-97500000D01*
X68665000Y-97500000D01*
X68665000Y-99500000D01*
X68665000Y-99500000D01*
G37*
G36*
X71205000Y-99500000D02*
X70305000Y-99500000D01*
X70305000Y-97500000D01*
X71205000Y-97500000D01*
X71205000Y-99500000D01*
X71205000Y-99500000D01*
G37*
G36*
X67395000Y-99500000D02*
X66495000Y-99500000D01*
X66495000Y-97500000D01*
X67395000Y-97500000D01*
X67395000Y-99500000D01*
X67395000Y-99500000D01*
G37*
G36*
X69935000Y-99500000D02*
X69035000Y-99500000D01*
X69035000Y-97500000D01*
X69935000Y-97500000D01*
X69935000Y-99500000D01*
X69935000Y-99500000D01*
G37*
G36*
X78264024Y-97443955D02*
X78296736Y-97453879D01*
X78326890Y-97469997D01*
X78353316Y-97491684D01*
X78375003Y-97518110D01*
X78391121Y-97548264D01*
X78401045Y-97580976D01*
X78405000Y-97621138D01*
X78405000Y-98308862D01*
X78401045Y-98349024D01*
X78391121Y-98381736D01*
X78375003Y-98411890D01*
X78353316Y-98438316D01*
X78326890Y-98460003D01*
X78296736Y-98476121D01*
X78264024Y-98486045D01*
X78223862Y-98490000D01*
X77636138Y-98490000D01*
X77595976Y-98486045D01*
X77563264Y-98476121D01*
X77533110Y-98460003D01*
X77506684Y-98438316D01*
X77484997Y-98411890D01*
X77468879Y-98381736D01*
X77458955Y-98349024D01*
X77455000Y-98308862D01*
X77455000Y-97621138D01*
X77458955Y-97580976D01*
X77468879Y-97548264D01*
X77484997Y-97518110D01*
X77506684Y-97491684D01*
X77533110Y-97469997D01*
X77563264Y-97453879D01*
X77595976Y-97443955D01*
X77636138Y-97440000D01*
X78223862Y-97440000D01*
X78264024Y-97443955D01*
X78264024Y-97443955D01*
G37*
G36*
X94860570Y-96978918D02*
X94892922Y-96988733D01*
X94922744Y-97004672D01*
X94948879Y-97026121D01*
X94970328Y-97052256D01*
X94986267Y-97082078D01*
X94996082Y-97114430D01*
X95000000Y-97154215D01*
X95000000Y-98095785D01*
X94996082Y-98135570D01*
X94986267Y-98167922D01*
X94970328Y-98197744D01*
X94948879Y-98223879D01*
X94922744Y-98245328D01*
X94892922Y-98261267D01*
X94860570Y-98271082D01*
X94820785Y-98275000D01*
X91779215Y-98275000D01*
X91739430Y-98271082D01*
X91707078Y-98261267D01*
X91677256Y-98245328D01*
X91651121Y-98223879D01*
X91629672Y-98197744D01*
X91613733Y-98167922D01*
X91603918Y-98135570D01*
X91600000Y-98095785D01*
X91600000Y-97154215D01*
X91603918Y-97114430D01*
X91613733Y-97082078D01*
X91629672Y-97052256D01*
X91651121Y-97026121D01*
X91677256Y-97004672D01*
X91707078Y-96988733D01*
X91739430Y-96978918D01*
X91779215Y-96975000D01*
X94820785Y-96975000D01*
X94860570Y-96978918D01*
X94860570Y-96978918D01*
G37*
G36*
X99832818Y-96307958D02*
X99909517Y-96331225D01*
X99936497Y-96339409D01*
X100032038Y-96390476D01*
X100032041Y-96390478D01*
X100032042Y-96390479D01*
X100115790Y-96459210D01*
X100124507Y-96469832D01*
X100184522Y-96542958D01*
X100235591Y-96638502D01*
X100242686Y-96661890D01*
X100267042Y-96742181D01*
X100275000Y-96822982D01*
X100275000Y-97577018D01*
X100267042Y-97657819D01*
X100243775Y-97734518D01*
X100235591Y-97761498D01*
X100184524Y-97857039D01*
X100115790Y-97940790D01*
X100032039Y-98009524D01*
X99936498Y-98060591D01*
X99909518Y-98068775D01*
X99832819Y-98092042D01*
X99760940Y-98099121D01*
X99725001Y-98102661D01*
X99725000Y-98102661D01*
X99617182Y-98092042D01*
X99540483Y-98068775D01*
X99513503Y-98060591D01*
X99417962Y-98009524D01*
X99334211Y-97940790D01*
X99265477Y-97857039D01*
X99214408Y-97761494D01*
X99182958Y-97657820D01*
X99175000Y-97577019D01*
X99175000Y-96822982D01*
X99182958Y-96742184D01*
X99182958Y-96742182D01*
X99214408Y-96638507D01*
X99214409Y-96638503D01*
X99265476Y-96542962D01*
X99265479Y-96542958D01*
X99334210Y-96459210D01*
X99381987Y-96420000D01*
X99417958Y-96390478D01*
X99513502Y-96339409D01*
X99540482Y-96331225D01*
X99617181Y-96307958D01*
X99689060Y-96300879D01*
X99724999Y-96297339D01*
X99725000Y-96297339D01*
X99832818Y-96307958D01*
X99832818Y-96307958D01*
G37*
G36*
X75766630Y-96342299D02*
X75926855Y-96390903D01*
X76074520Y-96469831D01*
X76203949Y-96576051D01*
X76310169Y-96705480D01*
X76389097Y-96853145D01*
X76437701Y-97013370D01*
X76454112Y-97180000D01*
X76437701Y-97346630D01*
X76389097Y-97506855D01*
X76310169Y-97654520D01*
X76203949Y-97783949D01*
X76074520Y-97890169D01*
X75926855Y-97969097D01*
X75766630Y-98017701D01*
X75641752Y-98030000D01*
X75558248Y-98030000D01*
X75433370Y-98017701D01*
X75273145Y-97969097D01*
X75125480Y-97890169D01*
X74996051Y-97783949D01*
X74889831Y-97654520D01*
X74810903Y-97506855D01*
X74762299Y-97346630D01*
X74745888Y-97180000D01*
X74762299Y-97013370D01*
X74810903Y-96853145D01*
X74889831Y-96705480D01*
X74996051Y-96576051D01*
X75125480Y-96469831D01*
X75273145Y-96390903D01*
X75433370Y-96342299D01*
X75558248Y-96330000D01*
X75641752Y-96330000D01*
X75766630Y-96342299D01*
X75766630Y-96342299D01*
G37*
G36*
X46009024Y-97028955D02*
X46041736Y-97038879D01*
X46071890Y-97054997D01*
X46098316Y-97076684D01*
X46120003Y-97103110D01*
X46136121Y-97133264D01*
X46146045Y-97165976D01*
X46150000Y-97206138D01*
X46150000Y-97793862D01*
X46146045Y-97834024D01*
X46136121Y-97866736D01*
X46120003Y-97896890D01*
X46098316Y-97923316D01*
X46071890Y-97945003D01*
X46041736Y-97961121D01*
X46009024Y-97971045D01*
X45968862Y-97975000D01*
X45281138Y-97975000D01*
X45240976Y-97971045D01*
X45208264Y-97961121D01*
X45178110Y-97945003D01*
X45151684Y-97923316D01*
X45129997Y-97896890D01*
X45113879Y-97866736D01*
X45103955Y-97834024D01*
X45100000Y-97793862D01*
X45100000Y-97206138D01*
X45103955Y-97165976D01*
X45113879Y-97133264D01*
X45129997Y-97103110D01*
X45151684Y-97076684D01*
X45178110Y-97054997D01*
X45208264Y-97038879D01*
X45240976Y-97028955D01*
X45281138Y-97025000D01*
X45968862Y-97025000D01*
X46009024Y-97028955D01*
X46009024Y-97028955D01*
G37*
G36*
X47759024Y-97028955D02*
X47791736Y-97038879D01*
X47821890Y-97054997D01*
X47848316Y-97076684D01*
X47870003Y-97103110D01*
X47886121Y-97133264D01*
X47896045Y-97165976D01*
X47900000Y-97206138D01*
X47900000Y-97793862D01*
X47896045Y-97834024D01*
X47886121Y-97866736D01*
X47870003Y-97896890D01*
X47848316Y-97923316D01*
X47821890Y-97945003D01*
X47791736Y-97961121D01*
X47759024Y-97971045D01*
X47718862Y-97975000D01*
X47031138Y-97975000D01*
X46990976Y-97971045D01*
X46958264Y-97961121D01*
X46928110Y-97945003D01*
X46901684Y-97923316D01*
X46879997Y-97896890D01*
X46863879Y-97866736D01*
X46853955Y-97834024D01*
X46850000Y-97793862D01*
X46850000Y-97206138D01*
X46853955Y-97165976D01*
X46863879Y-97133264D01*
X46879997Y-97103110D01*
X46901684Y-97076684D01*
X46928110Y-97054997D01*
X46958264Y-97038879D01*
X46990976Y-97028955D01*
X47031138Y-97025000D01*
X47718862Y-97025000D01*
X47759024Y-97028955D01*
X47759024Y-97028955D01*
G37*
G36*
X78264024Y-95693955D02*
X78296736Y-95703879D01*
X78326890Y-95719997D01*
X78353316Y-95741684D01*
X78375003Y-95768110D01*
X78391121Y-95798264D01*
X78401045Y-95830976D01*
X78405000Y-95871138D01*
X78405000Y-96558862D01*
X78401045Y-96599024D01*
X78391121Y-96631736D01*
X78375003Y-96661890D01*
X78353316Y-96688316D01*
X78326890Y-96710003D01*
X78296736Y-96726121D01*
X78264024Y-96736045D01*
X78223862Y-96740000D01*
X77636138Y-96740000D01*
X77595976Y-96736045D01*
X77563264Y-96726121D01*
X77533110Y-96710003D01*
X77506684Y-96688316D01*
X77484997Y-96661890D01*
X77468879Y-96631736D01*
X77458955Y-96599024D01*
X77455000Y-96558862D01*
X77455000Y-95871138D01*
X77458955Y-95830976D01*
X77468879Y-95798264D01*
X77484997Y-95768110D01*
X77506684Y-95741684D01*
X77533110Y-95719997D01*
X77563264Y-95703879D01*
X77595976Y-95693955D01*
X77636138Y-95690000D01*
X78223862Y-95690000D01*
X78264024Y-95693955D01*
X78264024Y-95693955D01*
G37*
G36*
X85531483Y-95583038D02*
X85562334Y-95586077D01*
X85601919Y-95598085D01*
X85641506Y-95610093D01*
X85714470Y-95649094D01*
X85778422Y-95701578D01*
X85830906Y-95765530D01*
X85869907Y-95838494D01*
X85869907Y-95838495D01*
X85893923Y-95917666D01*
X85902032Y-96000000D01*
X85893923Y-96082333D01*
X85869907Y-96161506D01*
X85830906Y-96234470D01*
X85778422Y-96298422D01*
X85714470Y-96350906D01*
X85641506Y-96389907D01*
X85601919Y-96401915D01*
X85562334Y-96413923D01*
X85531483Y-96416962D01*
X85500633Y-96420000D01*
X83299367Y-96420000D01*
X83268517Y-96416962D01*
X83237666Y-96413923D01*
X83198081Y-96401915D01*
X83158494Y-96389907D01*
X83085530Y-96350906D01*
X83021578Y-96298422D01*
X82969094Y-96234470D01*
X82930093Y-96161506D01*
X82906077Y-96082333D01*
X82897968Y-96000000D01*
X82906077Y-95917666D01*
X82930093Y-95838495D01*
X82930093Y-95838494D01*
X82969094Y-95765530D01*
X83021578Y-95701578D01*
X83085530Y-95649094D01*
X83158494Y-95610093D01*
X83198081Y-95598085D01*
X83237666Y-95586077D01*
X83268517Y-95583038D01*
X83299367Y-95580000D01*
X85500633Y-95580000D01*
X85531483Y-95583038D01*
X85531483Y-95583038D01*
G37*
G36*
X46231403Y-95682466D02*
X46249579Y-95687980D01*
X46266333Y-95696936D01*
X46281015Y-95708985D01*
X46293064Y-95723667D01*
X46302020Y-95740421D01*
X46307534Y-95758597D01*
X46310000Y-95783638D01*
X46310000Y-96216362D01*
X46307534Y-96241403D01*
X46302020Y-96259579D01*
X46293064Y-96276333D01*
X46281015Y-96291015D01*
X46266333Y-96303064D01*
X46249579Y-96312020D01*
X46231403Y-96317534D01*
X46206362Y-96320000D01*
X45413638Y-96320000D01*
X45388597Y-96317534D01*
X45370421Y-96312020D01*
X45353667Y-96303064D01*
X45338985Y-96291015D01*
X45326936Y-96276333D01*
X45317980Y-96259579D01*
X45312466Y-96241403D01*
X45310000Y-96216362D01*
X45310000Y-95783638D01*
X45312466Y-95758597D01*
X45317980Y-95740421D01*
X45326936Y-95723667D01*
X45338985Y-95708985D01*
X45353667Y-95696936D01*
X45370421Y-95687980D01*
X45388597Y-95682466D01*
X45413638Y-95680000D01*
X46206362Y-95680000D01*
X46231403Y-95682466D01*
X46231403Y-95682466D01*
G37*
G36*
X47611403Y-95682466D02*
X47629579Y-95687980D01*
X47646333Y-95696936D01*
X47661015Y-95708985D01*
X47673064Y-95723667D01*
X47682020Y-95740421D01*
X47687534Y-95758597D01*
X47690000Y-95783638D01*
X47690000Y-96216362D01*
X47687534Y-96241403D01*
X47682020Y-96259579D01*
X47673064Y-96276333D01*
X47661015Y-96291015D01*
X47646333Y-96303064D01*
X47629579Y-96312020D01*
X47611403Y-96317534D01*
X47586362Y-96320000D01*
X46793638Y-96320000D01*
X46768597Y-96317534D01*
X46750421Y-96312020D01*
X46733667Y-96303064D01*
X46718985Y-96291015D01*
X46706936Y-96276333D01*
X46697980Y-96259579D01*
X46692466Y-96241403D01*
X46690000Y-96216362D01*
X46690000Y-95783638D01*
X46692466Y-95758597D01*
X46697980Y-95740421D01*
X46706936Y-95723667D01*
X46718985Y-95708985D01*
X46733667Y-95696936D01*
X46750421Y-95687980D01*
X46768597Y-95682466D01*
X46793638Y-95680000D01*
X47586362Y-95680000D01*
X47611403Y-95682466D01*
X47611403Y-95682466D01*
G37*
G36*
X54245000Y-96165000D02*
X52245000Y-96165000D01*
X52245000Y-95265000D01*
X54245000Y-95265000D01*
X54245000Y-96165000D01*
X54245000Y-96165000D01*
G37*
G36*
X100725000Y-95925000D02*
X99225000Y-95925000D01*
X99225000Y-92875000D01*
X100725000Y-92875000D01*
X100725000Y-95925000D01*
X100725000Y-95925000D01*
G37*
G36*
X101982818Y-93307958D02*
X102059517Y-93331225D01*
X102086497Y-93339409D01*
X102182038Y-93390476D01*
X102182041Y-93390478D01*
X102182042Y-93390479D01*
X102265790Y-93459210D01*
X102265792Y-93459213D01*
X102334522Y-93542958D01*
X102385591Y-93638502D01*
X102387800Y-93645785D01*
X102417042Y-93742181D01*
X102425000Y-93822982D01*
X102425000Y-94977018D01*
X102417042Y-95057819D01*
X102393775Y-95134518D01*
X102385591Y-95161498D01*
X102334524Y-95257039D01*
X102265790Y-95340790D01*
X102182039Y-95409524D01*
X102086498Y-95460591D01*
X102059518Y-95468775D01*
X101982819Y-95492042D01*
X101910940Y-95499121D01*
X101875001Y-95502661D01*
X101875000Y-95502661D01*
X101767182Y-95492042D01*
X101690483Y-95468775D01*
X101663503Y-95460591D01*
X101567962Y-95409524D01*
X101484211Y-95340790D01*
X101415477Y-95257039D01*
X101364410Y-95161498D01*
X101356226Y-95134518D01*
X101332959Y-95057819D01*
X101325001Y-94977018D01*
X101325000Y-93822983D01*
X101332958Y-93742182D01*
X101363822Y-93640439D01*
X101364409Y-93638503D01*
X101415476Y-93542962D01*
X101430217Y-93525000D01*
X101484210Y-93459210D01*
X101510679Y-93437487D01*
X101567958Y-93390478D01*
X101663502Y-93339409D01*
X101690482Y-93331225D01*
X101767181Y-93307958D01*
X101839060Y-93300879D01*
X101874999Y-93297339D01*
X101875000Y-93297339D01*
X101982818Y-93307958D01*
X101982818Y-93307958D01*
G37*
G36*
X75766630Y-93802299D02*
X75926855Y-93850903D01*
X76074520Y-93929831D01*
X76203949Y-94036051D01*
X76310169Y-94165480D01*
X76389097Y-94313145D01*
X76437701Y-94473370D01*
X76454112Y-94640000D01*
X76437701Y-94806630D01*
X76389097Y-94966855D01*
X76310169Y-95114520D01*
X76203949Y-95243949D01*
X76074520Y-95350169D01*
X75926855Y-95429097D01*
X75766630Y-95477701D01*
X75641752Y-95490000D01*
X75558248Y-95490000D01*
X75433370Y-95477701D01*
X75273145Y-95429097D01*
X75125480Y-95350169D01*
X74996051Y-95243949D01*
X74889831Y-95114520D01*
X74810903Y-94966855D01*
X74762299Y-94806630D01*
X74745888Y-94640000D01*
X74762299Y-94473370D01*
X74810903Y-94313145D01*
X74889831Y-94165480D01*
X74996051Y-94036051D01*
X75125480Y-93929831D01*
X75273145Y-93850903D01*
X75433370Y-93802299D01*
X75558248Y-93790000D01*
X75641752Y-93790000D01*
X75766630Y-93802299D01*
X75766630Y-93802299D01*
G37*
G36*
X54245000Y-94895000D02*
X52245000Y-94895000D01*
X52245000Y-93995000D01*
X54245000Y-93995000D01*
X54245000Y-94895000D01*
X54245000Y-94895000D01*
G37*
G36*
X97232323Y-93234767D02*
X97359561Y-93273364D01*
X97476824Y-93336042D01*
X97579606Y-93420394D01*
X97663958Y-93523176D01*
X97726636Y-93640439D01*
X97765233Y-93767677D01*
X97778266Y-93900000D01*
X97765233Y-94032323D01*
X97726636Y-94159561D01*
X97663958Y-94276824D01*
X97579606Y-94379606D01*
X97476824Y-94463958D01*
X97359561Y-94526636D01*
X97232323Y-94565233D01*
X97133159Y-94575000D01*
X97066841Y-94575000D01*
X96967677Y-94565233D01*
X96840439Y-94526636D01*
X96723176Y-94463958D01*
X96620394Y-94379606D01*
X96536042Y-94276824D01*
X96473364Y-94159561D01*
X96434767Y-94032323D01*
X96421734Y-93900000D01*
X96434767Y-93767677D01*
X96473364Y-93640439D01*
X96536042Y-93523176D01*
X96620394Y-93420394D01*
X96723176Y-93336042D01*
X96840439Y-93273364D01*
X96967677Y-93234767D01*
X97066841Y-93225000D01*
X97133159Y-93225000D01*
X97232323Y-93234767D01*
X97232323Y-93234767D01*
G37*
G36*
X87150000Y-94400000D02*
X85250000Y-94400000D01*
X85250000Y-92600000D01*
X87150000Y-92600000D01*
X87150000Y-94400000D01*
X87150000Y-94400000D01*
G37*
G36*
X83750000Y-94400000D02*
X81850000Y-94400000D01*
X81850000Y-92600000D01*
X83750000Y-92600000D01*
X83750000Y-94400000D01*
X83750000Y-94400000D01*
G37*
G36*
X94860570Y-92528918D02*
X94892922Y-92538733D01*
X94922744Y-92554672D01*
X94948879Y-92576121D01*
X94970328Y-92602256D01*
X94986267Y-92632078D01*
X94996082Y-92664430D01*
X95000000Y-92704215D01*
X95000000Y-93645785D01*
X94996082Y-93685570D01*
X94986267Y-93717922D01*
X94970328Y-93747744D01*
X94948879Y-93773879D01*
X94922744Y-93795328D01*
X94892922Y-93811267D01*
X94860570Y-93821082D01*
X94820785Y-93825000D01*
X91779215Y-93825000D01*
X91739430Y-93821082D01*
X91707078Y-93811267D01*
X91677256Y-93795328D01*
X91651121Y-93773879D01*
X91629672Y-93747744D01*
X91613733Y-93717922D01*
X91603918Y-93685570D01*
X91600000Y-93645785D01*
X91600000Y-92704215D01*
X91603918Y-92664430D01*
X91613733Y-92632078D01*
X91629672Y-92602256D01*
X91651121Y-92576121D01*
X91677256Y-92554672D01*
X91707078Y-92538733D01*
X91739430Y-92528918D01*
X91779215Y-92525000D01*
X94820785Y-92525000D01*
X94860570Y-92528918D01*
X94860570Y-92528918D01*
G37*
G36*
X54245000Y-93625000D02*
X52245000Y-93625000D01*
X52245000Y-92725000D01*
X54245000Y-92725000D01*
X54245000Y-93625000D01*
X54245000Y-93625000D01*
G37*
G36*
X47500000Y-93040000D02*
X46500000Y-93040000D01*
X46500000Y-92040000D01*
X47500000Y-92040000D01*
X47500000Y-93040000D01*
X47500000Y-93040000D01*
G37*
G36*
X75766630Y-91262299D02*
X75926855Y-91310903D01*
X76074520Y-91389831D01*
X76203949Y-91496051D01*
X76310169Y-91625480D01*
X76389097Y-91773145D01*
X76437701Y-91933370D01*
X76454112Y-92100000D01*
X76437701Y-92266630D01*
X76389097Y-92426855D01*
X76310169Y-92574520D01*
X76203949Y-92703949D01*
X76074520Y-92810169D01*
X75926855Y-92889097D01*
X75766630Y-92937701D01*
X75641752Y-92950000D01*
X75558248Y-92950000D01*
X75433370Y-92937701D01*
X75273145Y-92889097D01*
X75125480Y-92810169D01*
X74996051Y-92703949D01*
X74889831Y-92574520D01*
X74810903Y-92426855D01*
X74762299Y-92266630D01*
X74745888Y-92100000D01*
X74762299Y-91933370D01*
X74810903Y-91773145D01*
X74889831Y-91625480D01*
X74996051Y-91496051D01*
X75125480Y-91389831D01*
X75273145Y-91310903D01*
X75433370Y-91262299D01*
X75558248Y-91250000D01*
X75641752Y-91250000D01*
X75766630Y-91262299D01*
X75766630Y-91262299D01*
G37*
G36*
X97775000Y-92575000D02*
X96425000Y-92575000D01*
X96425000Y-91225000D01*
X97775000Y-91225000D01*
X97775000Y-92575000D01*
X97775000Y-92575000D01*
G37*
G36*
X99832818Y-90707958D02*
X99909517Y-90731225D01*
X99936497Y-90739409D01*
X100032038Y-90790476D01*
X100032041Y-90790478D01*
X100032042Y-90790479D01*
X100115790Y-90859210D01*
X100115792Y-90859213D01*
X100184522Y-90942958D01*
X100235591Y-91038502D01*
X100243775Y-91065482D01*
X100267042Y-91142181D01*
X100275000Y-91222982D01*
X100275000Y-91977018D01*
X100267042Y-92057819D01*
X100254246Y-92100000D01*
X100235591Y-92161498D01*
X100184524Y-92257039D01*
X100115790Y-92340790D01*
X100032039Y-92409524D01*
X99936498Y-92460591D01*
X99909518Y-92468775D01*
X99832819Y-92492042D01*
X99760940Y-92499121D01*
X99725001Y-92502661D01*
X99725000Y-92502661D01*
X99617182Y-92492042D01*
X99540483Y-92468775D01*
X99513503Y-92460591D01*
X99417962Y-92409524D01*
X99334211Y-92340790D01*
X99265477Y-92257039D01*
X99214408Y-92161494D01*
X99182958Y-92057820D01*
X99175000Y-91977019D01*
X99175000Y-91222982D01*
X99180023Y-91171983D01*
X99182958Y-91142182D01*
X99214408Y-91038507D01*
X99214409Y-91038503D01*
X99265476Y-90942962D01*
X99265479Y-90942958D01*
X99334210Y-90859210D01*
X99360679Y-90837487D01*
X99417958Y-90790478D01*
X99513502Y-90739409D01*
X99540482Y-90731225D01*
X99617181Y-90707958D01*
X99689060Y-90700879D01*
X99724999Y-90697339D01*
X99725000Y-90697339D01*
X99832818Y-90707958D01*
X99832818Y-90707958D01*
G37*
G36*
X54245000Y-92355000D02*
X52245000Y-92355000D01*
X52245000Y-91455000D01*
X54245000Y-91455000D01*
X54245000Y-92355000D01*
X54245000Y-92355000D01*
G37*
G36*
X78334024Y-91153955D02*
X78366736Y-91163879D01*
X78396890Y-91179997D01*
X78423316Y-91201684D01*
X78445003Y-91228110D01*
X78461121Y-91258264D01*
X78471045Y-91290976D01*
X78475000Y-91331138D01*
X78475000Y-92018862D01*
X78471045Y-92059024D01*
X78461121Y-92091736D01*
X78445003Y-92121890D01*
X78423316Y-92148316D01*
X78396890Y-92170003D01*
X78366736Y-92186121D01*
X78334024Y-92196045D01*
X78293862Y-92200000D01*
X77706138Y-92200000D01*
X77665976Y-92196045D01*
X77633264Y-92186121D01*
X77603110Y-92170003D01*
X77576684Y-92148316D01*
X77554997Y-92121890D01*
X77538879Y-92091736D01*
X77528955Y-92059024D01*
X77525000Y-92018862D01*
X77525000Y-91331138D01*
X77528955Y-91290976D01*
X77538879Y-91258264D01*
X77554997Y-91228110D01*
X77576684Y-91201684D01*
X77603110Y-91179997D01*
X77633264Y-91163879D01*
X77665976Y-91153955D01*
X77706138Y-91150000D01*
X78293862Y-91150000D01*
X78334024Y-91153955D01*
X78334024Y-91153955D01*
G37*
G36*
X47098015Y-90777234D02*
X47192268Y-90805825D01*
X47238697Y-90830643D01*
X47279129Y-90852254D01*
X47355264Y-90914736D01*
X47417745Y-90990870D01*
X47464175Y-91077732D01*
X47492766Y-91171985D01*
X47502419Y-91270000D01*
X47492766Y-91368015D01*
X47464175Y-91462268D01*
X47444006Y-91500000D01*
X47417746Y-91549129D01*
X47355264Y-91625264D01*
X47279129Y-91687746D01*
X47238697Y-91709357D01*
X47192268Y-91734175D01*
X47098015Y-91762766D01*
X47024564Y-91770000D01*
X46975436Y-91770000D01*
X46901985Y-91762766D01*
X46807732Y-91734175D01*
X46761303Y-91709357D01*
X46720871Y-91687746D01*
X46644736Y-91625264D01*
X46582254Y-91549129D01*
X46555994Y-91500000D01*
X46535825Y-91462268D01*
X46507234Y-91368015D01*
X46497581Y-91270000D01*
X46507234Y-91171985D01*
X46535825Y-91077732D01*
X46582255Y-90990870D01*
X46644736Y-90914736D01*
X46720871Y-90852254D01*
X46761303Y-90830643D01*
X46807732Y-90805825D01*
X46901985Y-90777234D01*
X46975436Y-90770000D01*
X47024564Y-90770000D01*
X47098015Y-90777234D01*
X47098015Y-90777234D01*
G37*
G36*
X65755000Y-91500000D02*
X60755000Y-91500000D01*
X60755000Y-86500000D01*
X65755000Y-86500000D01*
X65755000Y-91500000D01*
X65755000Y-91500000D01*
G37*
G36*
X54245000Y-91085000D02*
X52245000Y-91085000D01*
X52245000Y-90185000D01*
X54245000Y-90185000D01*
X54245000Y-91085000D01*
X54245000Y-91085000D01*
G37*
G36*
X44850000Y-90950000D02*
X44350000Y-90950000D01*
X44350000Y-90350000D01*
X44850000Y-90350000D01*
X44850000Y-90950000D01*
X44850000Y-90950000D01*
G37*
G36*
X47098015Y-89507234D02*
X47192268Y-89535825D01*
X47212450Y-89546613D01*
X47279129Y-89582254D01*
X47355264Y-89644736D01*
X47417746Y-89720871D01*
X47420824Y-89726630D01*
X47464175Y-89807732D01*
X47492766Y-89901985D01*
X47502419Y-90000000D01*
X47492766Y-90098015D01*
X47464175Y-90192268D01*
X47453360Y-90212500D01*
X47417746Y-90279129D01*
X47355264Y-90355264D01*
X47279129Y-90417746D01*
X47244752Y-90436121D01*
X47192268Y-90464175D01*
X47098015Y-90492766D01*
X47024564Y-90500000D01*
X46975436Y-90500000D01*
X46901985Y-90492766D01*
X46807732Y-90464175D01*
X46755248Y-90436121D01*
X46720871Y-90417746D01*
X46644736Y-90355264D01*
X46582254Y-90279129D01*
X46546640Y-90212500D01*
X46535825Y-90192268D01*
X46507234Y-90098015D01*
X46497581Y-90000000D01*
X46507234Y-89901985D01*
X46535825Y-89807732D01*
X46579176Y-89726630D01*
X46582254Y-89720871D01*
X46644736Y-89644736D01*
X46720871Y-89582254D01*
X46787550Y-89546613D01*
X46807732Y-89535825D01*
X46901985Y-89507234D01*
X46975436Y-89500000D01*
X47024564Y-89500000D01*
X47098015Y-89507234D01*
X47098015Y-89507234D01*
G37*
G36*
X78334024Y-89403955D02*
X78366736Y-89413879D01*
X78396890Y-89429997D01*
X78423316Y-89451684D01*
X78445003Y-89478110D01*
X78461121Y-89508264D01*
X78471045Y-89540976D01*
X78475000Y-89581138D01*
X78475000Y-90268862D01*
X78471045Y-90309024D01*
X78461121Y-90341736D01*
X78445003Y-90371890D01*
X78423316Y-90398316D01*
X78396890Y-90420003D01*
X78366736Y-90436121D01*
X78334024Y-90446045D01*
X78293862Y-90450000D01*
X77706138Y-90450000D01*
X77665976Y-90446045D01*
X77633264Y-90436121D01*
X77603110Y-90420003D01*
X77576684Y-90398316D01*
X77554997Y-90371890D01*
X77538879Y-90341736D01*
X77528955Y-90309024D01*
X77525000Y-90268862D01*
X77525000Y-89581138D01*
X77528955Y-89540976D01*
X77538879Y-89508264D01*
X77554997Y-89478110D01*
X77576684Y-89451684D01*
X77603110Y-89429997D01*
X77633264Y-89413879D01*
X77665976Y-89403955D01*
X77706138Y-89400000D01*
X78293862Y-89400000D01*
X78334024Y-89403955D01*
X78334024Y-89403955D01*
G37*
G36*
X75766630Y-88722299D02*
X75926855Y-88770903D01*
X76074520Y-88849831D01*
X76203949Y-88956051D01*
X76310169Y-89085480D01*
X76389097Y-89233145D01*
X76437701Y-89393370D01*
X76454112Y-89560000D01*
X76437701Y-89726630D01*
X76389097Y-89886855D01*
X76310169Y-90034520D01*
X76203949Y-90163949D01*
X76074520Y-90270169D01*
X75926855Y-90349097D01*
X75766630Y-90397701D01*
X75641752Y-90410000D01*
X75558248Y-90410000D01*
X75433370Y-90397701D01*
X75273145Y-90349097D01*
X75125480Y-90270169D01*
X74996051Y-90163949D01*
X74889831Y-90034520D01*
X74810903Y-89886855D01*
X74762299Y-89726630D01*
X74745888Y-89560000D01*
X74762299Y-89393370D01*
X74810903Y-89233145D01*
X74889831Y-89085480D01*
X74996051Y-88956051D01*
X75125480Y-88849831D01*
X75273145Y-88770903D01*
X75433370Y-88722299D01*
X75558248Y-88710000D01*
X75641752Y-88710000D01*
X75766630Y-88722299D01*
X75766630Y-88722299D01*
G37*
G36*
X92331403Y-89382466D02*
X92349579Y-89387980D01*
X92366333Y-89396936D01*
X92381015Y-89408985D01*
X92393064Y-89423667D01*
X92402020Y-89440421D01*
X92407534Y-89458597D01*
X92410000Y-89483638D01*
X92410000Y-89916362D01*
X92407534Y-89941403D01*
X92402020Y-89959579D01*
X92393064Y-89976333D01*
X92381015Y-89991015D01*
X92366333Y-90003064D01*
X92349579Y-90012020D01*
X92331403Y-90017534D01*
X92306362Y-90020000D01*
X91513638Y-90020000D01*
X91488597Y-90017534D01*
X91470421Y-90012020D01*
X91453667Y-90003064D01*
X91438985Y-89991015D01*
X91426936Y-89976333D01*
X91417980Y-89959579D01*
X91412466Y-89941403D01*
X91410000Y-89916362D01*
X91410000Y-89483638D01*
X91412466Y-89458597D01*
X91417980Y-89440421D01*
X91426936Y-89423667D01*
X91438985Y-89408985D01*
X91453667Y-89396936D01*
X91470421Y-89387980D01*
X91488597Y-89382466D01*
X91513638Y-89380000D01*
X92306362Y-89380000D01*
X92331403Y-89382466D01*
X92331403Y-89382466D01*
G37*
G36*
X93711403Y-89382466D02*
X93729579Y-89387980D01*
X93746333Y-89396936D01*
X93761015Y-89408985D01*
X93773064Y-89423667D01*
X93782020Y-89440421D01*
X93787534Y-89458597D01*
X93790000Y-89483638D01*
X93790000Y-89916362D01*
X93787534Y-89941403D01*
X93782020Y-89959579D01*
X93773064Y-89976333D01*
X93761015Y-89991015D01*
X93746333Y-90003064D01*
X93729579Y-90012020D01*
X93711403Y-90017534D01*
X93686362Y-90020000D01*
X92893638Y-90020000D01*
X92868597Y-90017534D01*
X92850421Y-90012020D01*
X92833667Y-90003064D01*
X92818985Y-89991015D01*
X92806936Y-89976333D01*
X92797980Y-89959579D01*
X92792466Y-89941403D01*
X92790000Y-89916362D01*
X92790000Y-89483638D01*
X92792466Y-89458597D01*
X92797980Y-89440421D01*
X92806936Y-89423667D01*
X92818985Y-89408985D01*
X92833667Y-89396936D01*
X92850421Y-89387980D01*
X92868597Y-89382466D01*
X92893638Y-89380000D01*
X93686362Y-89380000D01*
X93711403Y-89382466D01*
X93711403Y-89382466D01*
G37*
G36*
X54245000Y-89815000D02*
X52245000Y-89815000D01*
X52245000Y-88915000D01*
X54245000Y-88915000D01*
X54245000Y-89815000D01*
X54245000Y-89815000D01*
G37*
G36*
X45350000Y-89650000D02*
X44850000Y-89650000D01*
X44850000Y-89050000D01*
X45350000Y-89050000D01*
X45350000Y-89650000D01*
X45350000Y-89650000D01*
G37*
G36*
X44350000Y-89650000D02*
X43850000Y-89650000D01*
X43850000Y-89050000D01*
X44350000Y-89050000D01*
X44350000Y-89650000D01*
X44350000Y-89650000D01*
G37*
G36*
X47098015Y-88237234D02*
X47192268Y-88265825D01*
X47238697Y-88290643D01*
X47279129Y-88312254D01*
X47355264Y-88374736D01*
X47416288Y-88449094D01*
X47417745Y-88450870D01*
X47464175Y-88537732D01*
X47492766Y-88631985D01*
X47502419Y-88730000D01*
X47492766Y-88828015D01*
X47464175Y-88922268D01*
X47443202Y-88961505D01*
X47417746Y-89009129D01*
X47355264Y-89085264D01*
X47279129Y-89147746D01*
X47238697Y-89169357D01*
X47192268Y-89194175D01*
X47098015Y-89222766D01*
X47024564Y-89230000D01*
X46975436Y-89230000D01*
X46901985Y-89222766D01*
X46807732Y-89194175D01*
X46761303Y-89169357D01*
X46720871Y-89147746D01*
X46644736Y-89085264D01*
X46582254Y-89009129D01*
X46556798Y-88961505D01*
X46535825Y-88922268D01*
X46507234Y-88828015D01*
X46497581Y-88730000D01*
X46507234Y-88631985D01*
X46535825Y-88537732D01*
X46582255Y-88450870D01*
X46583713Y-88449094D01*
X46644736Y-88374736D01*
X46720871Y-88312254D01*
X46761303Y-88290643D01*
X46807732Y-88265825D01*
X46901985Y-88237234D01*
X46975436Y-88230000D01*
X47024564Y-88230000D01*
X47098015Y-88237234D01*
X47098015Y-88237234D01*
G37*
G36*
X85031483Y-88383038D02*
X85062334Y-88386077D01*
X85141506Y-88410093D01*
X85214470Y-88449094D01*
X85278422Y-88501578D01*
X85330906Y-88565530D01*
X85369907Y-88638494D01*
X85369907Y-88638495D01*
X85393923Y-88717666D01*
X85402032Y-88800000D01*
X85394460Y-88876886D01*
X85393923Y-88882333D01*
X85369907Y-88961506D01*
X85330906Y-89034470D01*
X85278422Y-89098422D01*
X85214470Y-89150906D01*
X85141506Y-89189907D01*
X85062334Y-89213923D01*
X85031483Y-89216962D01*
X85000633Y-89220000D01*
X82799367Y-89220000D01*
X82768517Y-89216962D01*
X82737666Y-89213923D01*
X82658494Y-89189907D01*
X82585530Y-89150906D01*
X82521578Y-89098422D01*
X82469094Y-89034470D01*
X82430093Y-88961506D01*
X82406077Y-88882333D01*
X82405541Y-88876886D01*
X82397968Y-88800000D01*
X82406077Y-88717666D01*
X82430093Y-88638495D01*
X82430093Y-88638494D01*
X82469094Y-88565530D01*
X82521578Y-88501578D01*
X82585530Y-88449094D01*
X82658494Y-88410093D01*
X82737666Y-88386077D01*
X82768517Y-88383038D01*
X82799367Y-88380000D01*
X85000633Y-88380000D01*
X85031483Y-88383038D01*
X85031483Y-88383038D01*
G37*
G36*
X89450000Y-88750000D02*
X88550000Y-88750000D01*
X88550000Y-87950000D01*
X89450000Y-87950000D01*
X89450000Y-88750000D01*
X89450000Y-88750000D01*
G37*
G36*
X54245000Y-88545000D02*
X52245000Y-88545000D01*
X52245000Y-87645000D01*
X54245000Y-87645000D01*
X54245000Y-88545000D01*
X54245000Y-88545000D01*
G37*
G36*
X96750000Y-88350000D02*
X95650000Y-88350000D01*
X95650000Y-87250000D01*
X96750000Y-87250000D01*
X96750000Y-88350000D01*
X96750000Y-88350000D01*
G37*
G36*
X93950000Y-88350000D02*
X92850000Y-88350000D01*
X92850000Y-87250000D01*
X93950000Y-87250000D01*
X93950000Y-88350000D01*
X93950000Y-88350000D01*
G37*
G36*
X44231403Y-87682466D02*
X44249579Y-87687980D01*
X44266333Y-87696936D01*
X44281015Y-87708985D01*
X44293064Y-87723667D01*
X44302020Y-87740421D01*
X44307534Y-87758597D01*
X44310000Y-87783638D01*
X44310000Y-88216362D01*
X44307534Y-88241403D01*
X44302020Y-88259579D01*
X44293064Y-88276333D01*
X44281015Y-88291015D01*
X44266333Y-88303064D01*
X44249579Y-88312020D01*
X44231403Y-88317534D01*
X44206362Y-88320000D01*
X43413638Y-88320000D01*
X43388597Y-88317534D01*
X43370421Y-88312020D01*
X43353667Y-88303064D01*
X43338985Y-88291015D01*
X43326936Y-88276333D01*
X43317980Y-88259579D01*
X43312466Y-88241403D01*
X43310000Y-88216362D01*
X43310000Y-87783638D01*
X43312466Y-87758597D01*
X43317980Y-87740421D01*
X43326936Y-87723667D01*
X43338985Y-87708985D01*
X43353667Y-87696936D01*
X43370421Y-87687980D01*
X43388597Y-87682466D01*
X43413638Y-87680000D01*
X44206362Y-87680000D01*
X44231403Y-87682466D01*
X44231403Y-87682466D01*
G37*
G36*
X45611403Y-87682466D02*
X45629579Y-87687980D01*
X45646333Y-87696936D01*
X45661015Y-87708985D01*
X45673064Y-87723667D01*
X45682020Y-87740421D01*
X45687534Y-87758597D01*
X45690000Y-87783638D01*
X45690000Y-88216362D01*
X45687534Y-88241403D01*
X45682020Y-88259579D01*
X45673064Y-88276333D01*
X45661015Y-88291015D01*
X45646333Y-88303064D01*
X45629579Y-88312020D01*
X45611403Y-88317534D01*
X45586362Y-88320000D01*
X44793638Y-88320000D01*
X44768597Y-88317534D01*
X44750421Y-88312020D01*
X44733667Y-88303064D01*
X44718985Y-88291015D01*
X44706936Y-88276333D01*
X44697980Y-88259579D01*
X44692466Y-88241403D01*
X44690000Y-88216362D01*
X44690000Y-87783638D01*
X44692466Y-87758597D01*
X44697980Y-87740421D01*
X44706936Y-87723667D01*
X44718985Y-87708985D01*
X44733667Y-87696936D01*
X44750421Y-87687980D01*
X44768597Y-87682466D01*
X44793638Y-87680000D01*
X45586362Y-87680000D01*
X45611403Y-87682466D01*
X45611403Y-87682466D01*
G37*
G36*
X47098015Y-86967234D02*
X47192268Y-86995825D01*
X47238697Y-87020643D01*
X47279129Y-87042254D01*
X47355264Y-87104736D01*
X47417746Y-87180871D01*
X47439357Y-87221303D01*
X47464175Y-87267732D01*
X47492766Y-87361985D01*
X47502419Y-87460000D01*
X47492766Y-87558015D01*
X47464175Y-87652268D01*
X47440299Y-87696936D01*
X47417746Y-87739129D01*
X47355264Y-87815264D01*
X47279129Y-87877746D01*
X47251966Y-87892265D01*
X47192268Y-87924175D01*
X47098015Y-87952766D01*
X47024564Y-87960000D01*
X46975436Y-87960000D01*
X46901985Y-87952766D01*
X46807732Y-87924175D01*
X46748034Y-87892265D01*
X46720871Y-87877746D01*
X46644736Y-87815264D01*
X46582254Y-87739129D01*
X46559701Y-87696936D01*
X46535825Y-87652268D01*
X46507234Y-87558015D01*
X46497581Y-87460000D01*
X46507234Y-87361985D01*
X46535825Y-87267732D01*
X46560643Y-87221303D01*
X46582254Y-87180871D01*
X46644736Y-87104736D01*
X46720871Y-87042254D01*
X46761303Y-87020643D01*
X46807732Y-86995825D01*
X46901985Y-86967234D01*
X46975436Y-86960000D01*
X47024564Y-86960000D01*
X47098015Y-86967234D01*
X47098015Y-86967234D01*
G37*
G36*
X76450000Y-87870000D02*
X74750000Y-87870000D01*
X74750000Y-86170000D01*
X76450000Y-86170000D01*
X76450000Y-87870000D01*
X76450000Y-87870000D01*
G37*
G36*
X91450000Y-87800000D02*
X90550000Y-87800000D01*
X90550000Y-87000000D01*
X91450000Y-87000000D01*
X91450000Y-87800000D01*
X91450000Y-87800000D01*
G37*
G36*
X78109024Y-86528955D02*
X78141736Y-86538879D01*
X78171890Y-86554997D01*
X78198316Y-86576684D01*
X78220003Y-86603110D01*
X78236121Y-86633264D01*
X78246045Y-86665976D01*
X78250000Y-86706138D01*
X78250000Y-87293862D01*
X78246045Y-87334024D01*
X78236121Y-87366736D01*
X78220003Y-87396890D01*
X78198316Y-87423316D01*
X78171890Y-87445003D01*
X78141736Y-87461121D01*
X78109024Y-87471045D01*
X78068862Y-87475000D01*
X77381138Y-87475000D01*
X77340976Y-87471045D01*
X77308264Y-87461121D01*
X77278110Y-87445003D01*
X77251684Y-87423316D01*
X77229997Y-87396890D01*
X77213879Y-87366736D01*
X77203955Y-87334024D01*
X77200000Y-87293862D01*
X77200000Y-86706138D01*
X77203955Y-86665976D01*
X77213879Y-86633264D01*
X77229997Y-86603110D01*
X77251684Y-86576684D01*
X77278110Y-86554997D01*
X77308264Y-86538879D01*
X77340976Y-86528955D01*
X77381138Y-86525000D01*
X78068862Y-86525000D01*
X78109024Y-86528955D01*
X78109024Y-86528955D01*
G37*
G36*
X79859024Y-86528955D02*
X79891736Y-86538879D01*
X79921890Y-86554997D01*
X79948316Y-86576684D01*
X79970003Y-86603110D01*
X79986121Y-86633264D01*
X79996045Y-86665976D01*
X80000000Y-86706138D01*
X80000000Y-87293862D01*
X79996045Y-87334024D01*
X79986121Y-87366736D01*
X79970003Y-87396890D01*
X79948316Y-87423316D01*
X79921890Y-87445003D01*
X79891736Y-87461121D01*
X79859024Y-87471045D01*
X79818862Y-87475000D01*
X79131138Y-87475000D01*
X79090976Y-87471045D01*
X79058264Y-87461121D01*
X79028110Y-87445003D01*
X79001684Y-87423316D01*
X78979997Y-87396890D01*
X78963879Y-87366736D01*
X78953955Y-87334024D01*
X78950000Y-87293862D01*
X78950000Y-86706138D01*
X78953955Y-86665976D01*
X78963879Y-86633264D01*
X78979997Y-86603110D01*
X79001684Y-86576684D01*
X79028110Y-86554997D01*
X79058264Y-86538879D01*
X79090976Y-86528955D01*
X79131138Y-86525000D01*
X79818862Y-86525000D01*
X79859024Y-86528955D01*
X79859024Y-86528955D01*
G37*
G36*
X54245000Y-87275000D02*
X52245000Y-87275000D01*
X52245000Y-86375000D01*
X54245000Y-86375000D01*
X54245000Y-87275000D01*
X54245000Y-87275000D01*
G37*
G36*
X86550000Y-87200000D02*
X84650000Y-87200000D01*
X84650000Y-85400000D01*
X86550000Y-85400000D01*
X86550000Y-87200000D01*
X86550000Y-87200000D01*
G37*
G36*
X83150000Y-87200000D02*
X81250000Y-87200000D01*
X81250000Y-85400000D01*
X83150000Y-85400000D01*
X83150000Y-87200000D01*
X83150000Y-87200000D01*
G37*
G36*
X100332346Y-85803995D02*
X100365454Y-85814039D01*
X100395961Y-85830345D01*
X100422706Y-85852294D01*
X100444655Y-85879039D01*
X100460961Y-85909546D01*
X100471005Y-85942654D01*
X100475000Y-85983220D01*
X100475000Y-86816780D01*
X100471005Y-86857346D01*
X100460961Y-86890454D01*
X100444655Y-86920961D01*
X100422706Y-86947706D01*
X100395961Y-86969655D01*
X100365454Y-86985961D01*
X100332346Y-86996005D01*
X100291780Y-87000000D01*
X98908220Y-87000000D01*
X98867654Y-86996005D01*
X98834546Y-86985961D01*
X98804039Y-86969655D01*
X98777294Y-86947706D01*
X98755345Y-86920961D01*
X98739039Y-86890454D01*
X98728995Y-86857346D01*
X98725000Y-86816780D01*
X98725000Y-85983220D01*
X98728995Y-85942654D01*
X98739039Y-85909546D01*
X98755345Y-85879039D01*
X98777294Y-85852294D01*
X98804039Y-85830345D01*
X98834546Y-85814039D01*
X98867654Y-85803995D01*
X98908220Y-85800000D01*
X100291780Y-85800000D01*
X100332346Y-85803995D01*
X100332346Y-85803995D01*
G37*
G36*
X89450000Y-86850000D02*
X88550000Y-86850000D01*
X88550000Y-86050000D01*
X89450000Y-86050000D01*
X89450000Y-86850000D01*
X89450000Y-86850000D01*
G37*
G36*
X96450000Y-86150000D02*
X95650000Y-86150000D01*
X95650000Y-85250000D01*
X96450000Y-85250000D01*
X96450000Y-86150000D01*
X96450000Y-86150000D01*
G37*
G36*
X94550000Y-86150000D02*
X93750000Y-86150000D01*
X93750000Y-85250000D01*
X94550000Y-85250000D01*
X94550000Y-86150000D01*
X94550000Y-86150000D01*
G37*
G36*
X54245000Y-86005000D02*
X52245000Y-86005000D01*
X52245000Y-85105000D01*
X54245000Y-85105000D01*
X54245000Y-86005000D01*
X54245000Y-86005000D01*
G37*
G36*
X80031483Y-84783038D02*
X80062334Y-84786077D01*
X80101919Y-84798085D01*
X80141506Y-84810093D01*
X80214470Y-84849094D01*
X80278422Y-84901578D01*
X80330906Y-84965530D01*
X80369907Y-85038494D01*
X80369907Y-85038495D01*
X80393923Y-85117666D01*
X80402032Y-85200000D01*
X80393923Y-85282334D01*
X80390677Y-85293035D01*
X80369907Y-85361506D01*
X80330906Y-85434470D01*
X80278422Y-85498422D01*
X80214470Y-85550906D01*
X80141506Y-85589907D01*
X80062334Y-85613923D01*
X80031483Y-85616962D01*
X80000633Y-85620000D01*
X77799367Y-85620000D01*
X77768517Y-85616962D01*
X77737666Y-85613923D01*
X77658494Y-85589907D01*
X77585530Y-85550906D01*
X77521578Y-85498422D01*
X77469094Y-85434470D01*
X77430093Y-85361506D01*
X77409323Y-85293035D01*
X77406077Y-85282334D01*
X77397968Y-85200000D01*
X77406077Y-85117666D01*
X77430093Y-85038495D01*
X77430093Y-85038494D01*
X77469094Y-84965530D01*
X77521578Y-84901578D01*
X77585530Y-84849094D01*
X77658494Y-84810093D01*
X77698081Y-84798085D01*
X77737666Y-84786077D01*
X77768517Y-84783038D01*
X77799367Y-84780000D01*
X80000633Y-84780000D01*
X80031483Y-84783038D01*
X80031483Y-84783038D01*
G37*
G36*
X89311403Y-84682466D02*
X89329579Y-84687980D01*
X89346333Y-84696936D01*
X89361015Y-84708985D01*
X89373064Y-84723667D01*
X89382020Y-84740421D01*
X89387534Y-84758597D01*
X89390000Y-84783638D01*
X89390000Y-85216362D01*
X89387534Y-85241403D01*
X89382020Y-85259579D01*
X89373064Y-85276333D01*
X89361015Y-85291015D01*
X89346333Y-85303064D01*
X89329579Y-85312020D01*
X89311403Y-85317534D01*
X89286362Y-85320000D01*
X88493638Y-85320000D01*
X88468597Y-85317534D01*
X88450421Y-85312020D01*
X88433667Y-85303064D01*
X88418985Y-85291015D01*
X88406936Y-85276333D01*
X88397980Y-85259579D01*
X88392466Y-85241403D01*
X88390000Y-85216362D01*
X88390000Y-84783638D01*
X88392466Y-84758597D01*
X88397980Y-84740421D01*
X88406936Y-84723667D01*
X88418985Y-84708985D01*
X88433667Y-84696936D01*
X88450421Y-84687980D01*
X88468597Y-84682466D01*
X88493638Y-84680000D01*
X89286362Y-84680000D01*
X89311403Y-84682466D01*
X89311403Y-84682466D01*
G37*
G36*
X87931403Y-84682466D02*
X87949579Y-84687980D01*
X87966333Y-84696936D01*
X87981015Y-84708985D01*
X87993064Y-84723667D01*
X88002020Y-84740421D01*
X88007534Y-84758597D01*
X88010000Y-84783638D01*
X88010000Y-85216362D01*
X88007534Y-85241403D01*
X88002020Y-85259579D01*
X87993064Y-85276333D01*
X87981015Y-85291015D01*
X87966333Y-85303064D01*
X87949579Y-85312020D01*
X87931403Y-85317534D01*
X87906362Y-85320000D01*
X87113638Y-85320000D01*
X87088597Y-85317534D01*
X87070421Y-85312020D01*
X87053667Y-85303064D01*
X87038985Y-85291015D01*
X87026936Y-85276333D01*
X87017980Y-85259579D01*
X87012466Y-85241403D01*
X87010000Y-85216362D01*
X87010000Y-84783638D01*
X87012466Y-84758597D01*
X87017980Y-84740421D01*
X87026936Y-84723667D01*
X87038985Y-84708985D01*
X87053667Y-84696936D01*
X87070421Y-84687980D01*
X87088597Y-84682466D01*
X87113638Y-84680000D01*
X87906362Y-84680000D01*
X87931403Y-84682466D01*
X87931403Y-84682466D01*
G37*
G36*
X99992621Y-83808682D02*
X100105721Y-83842990D01*
X100209955Y-83898704D01*
X100301317Y-83973683D01*
X100376296Y-84065045D01*
X100432010Y-84169279D01*
X100466318Y-84282379D01*
X100477903Y-84400000D01*
X100466318Y-84517621D01*
X100432010Y-84630721D01*
X100376296Y-84734955D01*
X100301317Y-84826317D01*
X100209955Y-84901296D01*
X100105721Y-84957010D01*
X99992621Y-84991318D01*
X99904474Y-85000000D01*
X99295526Y-85000000D01*
X99207379Y-84991318D01*
X99094279Y-84957010D01*
X98990045Y-84901296D01*
X98898683Y-84826317D01*
X98823704Y-84734955D01*
X98767990Y-84630721D01*
X98733682Y-84517621D01*
X98722097Y-84400000D01*
X98733682Y-84282379D01*
X98767990Y-84169279D01*
X98823704Y-84065045D01*
X98898683Y-83973683D01*
X98990045Y-83898704D01*
X99094279Y-83842990D01*
X99207379Y-83808682D01*
X99295526Y-83800000D01*
X99904474Y-83800000D01*
X99992621Y-83808682D01*
X99992621Y-83808682D01*
G37*
G36*
X54245000Y-84735000D02*
X52245000Y-84735000D01*
X52245000Y-83835000D01*
X54245000Y-83835000D01*
X54245000Y-84735000D01*
X54245000Y-84735000D01*
G37*
G36*
X46231403Y-83682466D02*
X46249579Y-83687980D01*
X46266333Y-83696936D01*
X46281015Y-83708985D01*
X46293064Y-83723667D01*
X46302020Y-83740421D01*
X46307534Y-83758597D01*
X46310000Y-83783638D01*
X46310000Y-84216362D01*
X46307534Y-84241403D01*
X46302020Y-84259579D01*
X46293064Y-84276333D01*
X46281015Y-84291015D01*
X46266333Y-84303064D01*
X46249579Y-84312020D01*
X46231403Y-84317534D01*
X46206362Y-84320000D01*
X45413638Y-84320000D01*
X45388597Y-84317534D01*
X45370421Y-84312020D01*
X45353667Y-84303064D01*
X45338985Y-84291015D01*
X45326936Y-84276333D01*
X45317980Y-84259579D01*
X45312466Y-84241403D01*
X45310000Y-84216362D01*
X45310000Y-83783638D01*
X45312466Y-83758597D01*
X45317980Y-83740421D01*
X45326936Y-83723667D01*
X45338985Y-83708985D01*
X45353667Y-83696936D01*
X45370421Y-83687980D01*
X45388597Y-83682466D01*
X45413638Y-83680000D01*
X46206362Y-83680000D01*
X46231403Y-83682466D01*
X46231403Y-83682466D01*
G37*
G36*
X47611403Y-83682466D02*
X47629579Y-83687980D01*
X47646333Y-83696936D01*
X47661015Y-83708985D01*
X47673064Y-83723667D01*
X47682020Y-83740421D01*
X47687534Y-83758597D01*
X47690000Y-83783638D01*
X47690000Y-84216362D01*
X47687534Y-84241403D01*
X47682020Y-84259579D01*
X47673064Y-84276333D01*
X47661015Y-84291015D01*
X47646333Y-84303064D01*
X47629579Y-84312020D01*
X47611403Y-84317534D01*
X47586362Y-84320000D01*
X46793638Y-84320000D01*
X46768597Y-84317534D01*
X46750421Y-84312020D01*
X46733667Y-84303064D01*
X46718985Y-84291015D01*
X46706936Y-84276333D01*
X46697980Y-84259579D01*
X46692466Y-84241403D01*
X46690000Y-84216362D01*
X46690000Y-83783638D01*
X46692466Y-83758597D01*
X46697980Y-83740421D01*
X46706936Y-83723667D01*
X46718985Y-83708985D01*
X46733667Y-83696936D01*
X46750421Y-83687980D01*
X46768597Y-83682466D01*
X46793638Y-83680000D01*
X47586362Y-83680000D01*
X47611403Y-83682466D01*
X47611403Y-83682466D01*
G37*
G36*
X95500000Y-84150000D02*
X94700000Y-84150000D01*
X94700000Y-83250000D01*
X95500000Y-83250000D01*
X95500000Y-84150000D01*
X95500000Y-84150000D01*
G37*
G36*
X81540000Y-84000000D02*
X79640000Y-84000000D01*
X79640000Y-82200000D01*
X81540000Y-82200000D01*
X81540000Y-84000000D01*
X81540000Y-84000000D01*
G37*
G36*
X78140000Y-84000000D02*
X76240000Y-84000000D01*
X76240000Y-82200000D01*
X78140000Y-82200000D01*
X78140000Y-84000000D01*
X78140000Y-84000000D01*
G37*
G36*
X87366630Y-81862299D02*
X87526855Y-81910903D01*
X87674520Y-81989831D01*
X87803949Y-82096051D01*
X87910169Y-82225480D01*
X87989097Y-82373145D01*
X88037701Y-82533370D01*
X88054112Y-82700000D01*
X88037701Y-82866630D01*
X87989097Y-83026855D01*
X87910169Y-83174520D01*
X87803949Y-83303949D01*
X87674520Y-83410169D01*
X87526855Y-83489097D01*
X87366630Y-83537701D01*
X87241752Y-83550000D01*
X87158248Y-83550000D01*
X87033370Y-83537701D01*
X86873145Y-83489097D01*
X86725480Y-83410169D01*
X86596051Y-83303949D01*
X86489831Y-83174520D01*
X86410903Y-83026855D01*
X86362299Y-82866630D01*
X86345888Y-82700000D01*
X86362299Y-82533370D01*
X86410903Y-82373145D01*
X86489831Y-82225480D01*
X86596051Y-82096051D01*
X86725480Y-81989831D01*
X86873145Y-81910903D01*
X87033370Y-81862299D01*
X87158248Y-81850000D01*
X87241752Y-81850000D01*
X87366630Y-81862299D01*
X87366630Y-81862299D01*
G37*
G36*
X85510000Y-83550000D02*
X83810000Y-83550000D01*
X83810000Y-81850000D01*
X85510000Y-81850000D01*
X85510000Y-83550000D01*
X85510000Y-83550000D01*
G37*
G36*
X89906630Y-81862299D02*
X90066855Y-81910903D01*
X90214520Y-81989831D01*
X90343949Y-82096051D01*
X90450169Y-82225480D01*
X90529097Y-82373145D01*
X90577701Y-82533370D01*
X90594112Y-82700000D01*
X90577701Y-82866630D01*
X90529097Y-83026855D01*
X90450169Y-83174520D01*
X90343949Y-83303949D01*
X90214520Y-83410169D01*
X90066855Y-83489097D01*
X89906630Y-83537701D01*
X89781752Y-83550000D01*
X89698248Y-83550000D01*
X89573370Y-83537701D01*
X89413145Y-83489097D01*
X89265480Y-83410169D01*
X89136051Y-83303949D01*
X89029831Y-83174520D01*
X88950903Y-83026855D01*
X88902299Y-82866630D01*
X88885888Y-82700000D01*
X88902299Y-82533370D01*
X88950903Y-82373145D01*
X89029831Y-82225480D01*
X89136051Y-82096051D01*
X89265480Y-81989831D01*
X89413145Y-81910903D01*
X89573370Y-81862299D01*
X89698248Y-81850000D01*
X89781752Y-81850000D01*
X89906630Y-81862299D01*
X89906630Y-81862299D01*
G37*
G36*
X46009024Y-82028955D02*
X46041736Y-82038879D01*
X46071890Y-82054997D01*
X46098316Y-82076684D01*
X46120003Y-82103110D01*
X46136121Y-82133264D01*
X46146045Y-82165976D01*
X46150000Y-82206138D01*
X46150000Y-82793862D01*
X46146045Y-82834024D01*
X46136121Y-82866736D01*
X46120003Y-82896890D01*
X46098316Y-82923316D01*
X46071890Y-82945003D01*
X46041736Y-82961121D01*
X46009024Y-82971045D01*
X45968862Y-82975000D01*
X45281138Y-82975000D01*
X45240976Y-82971045D01*
X45208264Y-82961121D01*
X45178110Y-82945003D01*
X45151684Y-82923316D01*
X45129997Y-82896890D01*
X45113879Y-82866736D01*
X45103955Y-82834024D01*
X45100000Y-82793862D01*
X45100000Y-82206138D01*
X45103955Y-82165976D01*
X45113879Y-82133264D01*
X45129997Y-82103110D01*
X45151684Y-82076684D01*
X45178110Y-82054997D01*
X45208264Y-82038879D01*
X45240976Y-82028955D01*
X45281138Y-82025000D01*
X45968862Y-82025000D01*
X46009024Y-82028955D01*
X46009024Y-82028955D01*
G37*
G36*
X47759024Y-82028955D02*
X47791736Y-82038879D01*
X47821890Y-82054997D01*
X47848316Y-82076684D01*
X47870003Y-82103110D01*
X47886121Y-82133264D01*
X47896045Y-82165976D01*
X47900000Y-82206138D01*
X47900000Y-82793862D01*
X47896045Y-82834024D01*
X47886121Y-82866736D01*
X47870003Y-82896890D01*
X47848316Y-82923316D01*
X47821890Y-82945003D01*
X47791736Y-82961121D01*
X47759024Y-82971045D01*
X47718862Y-82975000D01*
X47031138Y-82975000D01*
X46990976Y-82971045D01*
X46958264Y-82961121D01*
X46928110Y-82945003D01*
X46901684Y-82923316D01*
X46879997Y-82896890D01*
X46863879Y-82866736D01*
X46853955Y-82834024D01*
X46850000Y-82793862D01*
X46850000Y-82206138D01*
X46853955Y-82165976D01*
X46863879Y-82133264D01*
X46879997Y-82103110D01*
X46901684Y-82076684D01*
X46928110Y-82054997D01*
X46958264Y-82038879D01*
X46990976Y-82028955D01*
X47031138Y-82025000D01*
X47718862Y-82025000D01*
X47759024Y-82028955D01*
X47759024Y-82028955D01*
G37*
G36*
X55965000Y-82500000D02*
X55065000Y-82500000D01*
X55065000Y-80500000D01*
X55965000Y-80500000D01*
X55965000Y-82500000D01*
X55965000Y-82500000D01*
G37*
G36*
X62315000Y-82500000D02*
X61415000Y-82500000D01*
X61415000Y-80500000D01*
X62315000Y-80500000D01*
X62315000Y-82500000D01*
X62315000Y-82500000D01*
G37*
G36*
X61045000Y-82500000D02*
X60145000Y-82500000D01*
X60145000Y-80500000D01*
X61045000Y-80500000D01*
X61045000Y-82500000D01*
X61045000Y-82500000D01*
G37*
G36*
X59775000Y-82500000D02*
X58875000Y-82500000D01*
X58875000Y-80500000D01*
X59775000Y-80500000D01*
X59775000Y-82500000D01*
X59775000Y-82500000D01*
G37*
G36*
X57235000Y-82500000D02*
X56335000Y-82500000D01*
X56335000Y-80500000D01*
X57235000Y-80500000D01*
X57235000Y-82500000D01*
X57235000Y-82500000D01*
G37*
G36*
X54695000Y-82500000D02*
X53795000Y-82500000D01*
X53795000Y-80500000D01*
X54695000Y-80500000D01*
X54695000Y-82500000D01*
X54695000Y-82500000D01*
G37*
G36*
X71205000Y-82500000D02*
X70305000Y-82500000D01*
X70305000Y-80500000D01*
X71205000Y-80500000D01*
X71205000Y-82500000D01*
X71205000Y-82500000D01*
G37*
G36*
X69935000Y-82500000D02*
X69035000Y-82500000D01*
X69035000Y-80500000D01*
X69935000Y-80500000D01*
X69935000Y-82500000D01*
X69935000Y-82500000D01*
G37*
G36*
X68665000Y-82500000D02*
X67765000Y-82500000D01*
X67765000Y-80500000D01*
X68665000Y-80500000D01*
X68665000Y-82500000D01*
X68665000Y-82500000D01*
G37*
G36*
X67395000Y-82500000D02*
X66495000Y-82500000D01*
X66495000Y-80500000D01*
X67395000Y-80500000D01*
X67395000Y-82500000D01*
X67395000Y-82500000D01*
G37*
G36*
X66125000Y-82500000D02*
X65225000Y-82500000D01*
X65225000Y-80500000D01*
X66125000Y-80500000D01*
X66125000Y-82500000D01*
X66125000Y-82500000D01*
G37*
G36*
X63585000Y-82500000D02*
X62685000Y-82500000D01*
X62685000Y-80500000D01*
X63585000Y-80500000D01*
X63585000Y-82500000D01*
X63585000Y-82500000D01*
G37*
G36*
X64855000Y-82500000D02*
X63955000Y-82500000D01*
X63955000Y-80500000D01*
X64855000Y-80500000D01*
X64855000Y-82500000D01*
X64855000Y-82500000D01*
G37*
G36*
X58505000Y-82500000D02*
X57605000Y-82500000D01*
X57605000Y-80500000D01*
X58505000Y-80500000D01*
X58505000Y-82500000D01*
X58505000Y-82500000D01*
G37*
G36*
X95831403Y-81582466D02*
X95849579Y-81587980D01*
X95866333Y-81596936D01*
X95881015Y-81608985D01*
X95893064Y-81623667D01*
X95902020Y-81640421D01*
X95907534Y-81658597D01*
X95910000Y-81683638D01*
X95910000Y-82116362D01*
X95907534Y-82141403D01*
X95902020Y-82159579D01*
X95893064Y-82176333D01*
X95881015Y-82191015D01*
X95866333Y-82203064D01*
X95849579Y-82212020D01*
X95831403Y-82217534D01*
X95806362Y-82220000D01*
X95013638Y-82220000D01*
X94988597Y-82217534D01*
X94970421Y-82212020D01*
X94953667Y-82203064D01*
X94938985Y-82191015D01*
X94926936Y-82176333D01*
X94917980Y-82159579D01*
X94912466Y-82141403D01*
X94910000Y-82116362D01*
X94910000Y-81683638D01*
X94912466Y-81658597D01*
X94917980Y-81640421D01*
X94926936Y-81623667D01*
X94938985Y-81608985D01*
X94953667Y-81596936D01*
X94970421Y-81587980D01*
X94988597Y-81582466D01*
X95013638Y-81580000D01*
X95806362Y-81580000D01*
X95831403Y-81582466D01*
X95831403Y-81582466D01*
G37*
G36*
X97211403Y-81582466D02*
X97229579Y-81587980D01*
X97246333Y-81596936D01*
X97261015Y-81608985D01*
X97273064Y-81623667D01*
X97282020Y-81640421D01*
X97287534Y-81658597D01*
X97290000Y-81683638D01*
X97290000Y-82116362D01*
X97287534Y-82141403D01*
X97282020Y-82159579D01*
X97273064Y-82176333D01*
X97261015Y-82191015D01*
X97246333Y-82203064D01*
X97229579Y-82212020D01*
X97211403Y-82217534D01*
X97186362Y-82220000D01*
X96393638Y-82220000D01*
X96368597Y-82217534D01*
X96350421Y-82212020D01*
X96333667Y-82203064D01*
X96318985Y-82191015D01*
X96306936Y-82176333D01*
X96297980Y-82159579D01*
X96292466Y-82141403D01*
X96290000Y-82116362D01*
X96290000Y-81683638D01*
X96292466Y-81658597D01*
X96297980Y-81640421D01*
X96306936Y-81623667D01*
X96318985Y-81608985D01*
X96333667Y-81596936D01*
X96350421Y-81587980D01*
X96368597Y-81582466D01*
X96393638Y-81580000D01*
X97186362Y-81580000D01*
X97211403Y-81582466D01*
X97211403Y-81582466D01*
G37*
G36*
X46009024Y-80028955D02*
X46041736Y-80038879D01*
X46071890Y-80054997D01*
X46098316Y-80076684D01*
X46120003Y-80103110D01*
X46136121Y-80133264D01*
X46146045Y-80165976D01*
X46150000Y-80206138D01*
X46150000Y-80793862D01*
X46146045Y-80834024D01*
X46136121Y-80866736D01*
X46120003Y-80896890D01*
X46098316Y-80923316D01*
X46071890Y-80945003D01*
X46041736Y-80961121D01*
X46009024Y-80971045D01*
X45968862Y-80975000D01*
X45281138Y-80975000D01*
X45240976Y-80971045D01*
X45208264Y-80961121D01*
X45178110Y-80945003D01*
X45151684Y-80923316D01*
X45129997Y-80896890D01*
X45113879Y-80866736D01*
X45103955Y-80834024D01*
X45100000Y-80793862D01*
X45100000Y-80206138D01*
X45103955Y-80165976D01*
X45113879Y-80133264D01*
X45129997Y-80103110D01*
X45151684Y-80076684D01*
X45178110Y-80054997D01*
X45208264Y-80038879D01*
X45240976Y-80028955D01*
X45281138Y-80025000D01*
X45968862Y-80025000D01*
X46009024Y-80028955D01*
X46009024Y-80028955D01*
G37*
G36*
X47759024Y-80028955D02*
X47791736Y-80038879D01*
X47821890Y-80054997D01*
X47848316Y-80076684D01*
X47870003Y-80103110D01*
X47886121Y-80133264D01*
X47896045Y-80165976D01*
X47900000Y-80206138D01*
X47900000Y-80793862D01*
X47896045Y-80834024D01*
X47886121Y-80866736D01*
X47870003Y-80896890D01*
X47848316Y-80923316D01*
X47821890Y-80945003D01*
X47791736Y-80961121D01*
X47759024Y-80971045D01*
X47718862Y-80975000D01*
X47031138Y-80975000D01*
X46990976Y-80971045D01*
X46958264Y-80961121D01*
X46928110Y-80945003D01*
X46901684Y-80923316D01*
X46879997Y-80896890D01*
X46863879Y-80866736D01*
X46853955Y-80834024D01*
X46850000Y-80793862D01*
X46850000Y-80206138D01*
X46853955Y-80165976D01*
X46863879Y-80133264D01*
X46879997Y-80103110D01*
X46901684Y-80076684D01*
X46928110Y-80054997D01*
X46958264Y-80038879D01*
X46990976Y-80028955D01*
X47031138Y-80025000D01*
X47718862Y-80025000D01*
X47759024Y-80028955D01*
X47759024Y-80028955D01*
G37*
G36*
X71361403Y-79432466D02*
X71379579Y-79437980D01*
X71396333Y-79446936D01*
X71411015Y-79458985D01*
X71423064Y-79473667D01*
X71432020Y-79490421D01*
X71437534Y-79508597D01*
X71440000Y-79533638D01*
X71440000Y-79966362D01*
X71437534Y-79991403D01*
X71432020Y-80009579D01*
X71423064Y-80026333D01*
X71411015Y-80041015D01*
X71396333Y-80053064D01*
X71379579Y-80062020D01*
X71361403Y-80067534D01*
X71336362Y-80070000D01*
X70543638Y-80070000D01*
X70518597Y-80067534D01*
X70500421Y-80062020D01*
X70483667Y-80053064D01*
X70468985Y-80041015D01*
X70456936Y-80026333D01*
X70447980Y-80009579D01*
X70442466Y-79991403D01*
X70440000Y-79966362D01*
X70440000Y-79533638D01*
X70442466Y-79508597D01*
X70447980Y-79490421D01*
X70456936Y-79473667D01*
X70468985Y-79458985D01*
X70483667Y-79446936D01*
X70500421Y-79437980D01*
X70518597Y-79432466D01*
X70543638Y-79430000D01*
X71336362Y-79430000D01*
X71361403Y-79432466D01*
X71361403Y-79432466D01*
G37*
G36*
X69981403Y-79432466D02*
X69999579Y-79437980D01*
X70016333Y-79446936D01*
X70031015Y-79458985D01*
X70043064Y-79473667D01*
X70052020Y-79490421D01*
X70057534Y-79508597D01*
X70060000Y-79533638D01*
X70060000Y-79966362D01*
X70057534Y-79991403D01*
X70052020Y-80009579D01*
X70043064Y-80026333D01*
X70031015Y-80041015D01*
X70016333Y-80053064D01*
X69999579Y-80062020D01*
X69981403Y-80067534D01*
X69956362Y-80070000D01*
X69163638Y-80070000D01*
X69138597Y-80067534D01*
X69120421Y-80062020D01*
X69103667Y-80053064D01*
X69088985Y-80041015D01*
X69076936Y-80026333D01*
X69067980Y-80009579D01*
X69062466Y-79991403D01*
X69060000Y-79966362D01*
X69060000Y-79533638D01*
X69062466Y-79508597D01*
X69067980Y-79490421D01*
X69076936Y-79473667D01*
X69088985Y-79458985D01*
X69103667Y-79446936D01*
X69120421Y-79437980D01*
X69138597Y-79432466D01*
X69163638Y-79430000D01*
X69956362Y-79430000D01*
X69981403Y-79432466D01*
X69981403Y-79432466D01*
G37*
G36*
X64375000Y-79575000D02*
X63025000Y-79575000D01*
X63025000Y-78225000D01*
X64375000Y-78225000D01*
X64375000Y-79575000D01*
X64375000Y-79575000D01*
G37*
G36*
X70009024Y-77778955D02*
X70041736Y-77788879D01*
X70071890Y-77804997D01*
X70098316Y-77826684D01*
X70120003Y-77853110D01*
X70136121Y-77883264D01*
X70146045Y-77915976D01*
X70150000Y-77956138D01*
X70150000Y-78543862D01*
X70146045Y-78584024D01*
X70136121Y-78616736D01*
X70120003Y-78646890D01*
X70098316Y-78673316D01*
X70071890Y-78695003D01*
X70041736Y-78711121D01*
X70009024Y-78721045D01*
X69968862Y-78725000D01*
X69281138Y-78725000D01*
X69240976Y-78721045D01*
X69208264Y-78711121D01*
X69178110Y-78695003D01*
X69151684Y-78673316D01*
X69129997Y-78646890D01*
X69113879Y-78616736D01*
X69103955Y-78584024D01*
X69100000Y-78543862D01*
X69100000Y-77956138D01*
X69103955Y-77915976D01*
X69113879Y-77883264D01*
X69129997Y-77853110D01*
X69151684Y-77826684D01*
X69178110Y-77804997D01*
X69208264Y-77788879D01*
X69240976Y-77778955D01*
X69281138Y-77775000D01*
X69968862Y-77775000D01*
X70009024Y-77778955D01*
X70009024Y-77778955D01*
G37*
G36*
X68259024Y-77778955D02*
X68291736Y-77788879D01*
X68321890Y-77804997D01*
X68348316Y-77826684D01*
X68370003Y-77853110D01*
X68386121Y-77883264D01*
X68396045Y-77915976D01*
X68400000Y-77956138D01*
X68400000Y-78543862D01*
X68396045Y-78584024D01*
X68386121Y-78616736D01*
X68370003Y-78646890D01*
X68348316Y-78673316D01*
X68321890Y-78695003D01*
X68291736Y-78711121D01*
X68259024Y-78721045D01*
X68218862Y-78725000D01*
X67531138Y-78725000D01*
X67490976Y-78721045D01*
X67458264Y-78711121D01*
X67428110Y-78695003D01*
X67401684Y-78673316D01*
X67379997Y-78646890D01*
X67363879Y-78616736D01*
X67353955Y-78584024D01*
X67350000Y-78543862D01*
X67350000Y-77956138D01*
X67353955Y-77915976D01*
X67363879Y-77883264D01*
X67379997Y-77853110D01*
X67401684Y-77826684D01*
X67428110Y-77804997D01*
X67458264Y-77788879D01*
X67490976Y-77778955D01*
X67531138Y-77775000D01*
X68218862Y-77775000D01*
X68259024Y-77778955D01*
X68259024Y-77778955D01*
G37*
G36*
X58675000Y-76425000D02*
X57325000Y-76425000D01*
X57325000Y-75075000D01*
X58675000Y-75075000D01*
X58675000Y-76425000D01*
X58675000Y-76425000D01*
G37*
G36*
X70675000Y-76425000D02*
X69325000Y-76425000D01*
X69325000Y-75075000D01*
X70675000Y-75075000D01*
X70675000Y-76425000D01*
X70675000Y-76425000D01*
G37*
G36*
X52111403Y-75682466D02*
X52129579Y-75687980D01*
X52146333Y-75696936D01*
X52161015Y-75708985D01*
X52173064Y-75723667D01*
X52182020Y-75740421D01*
X52187534Y-75758597D01*
X52190000Y-75783638D01*
X52190000Y-76216362D01*
X52187534Y-76241403D01*
X52182020Y-76259579D01*
X52173064Y-76276333D01*
X52161015Y-76291015D01*
X52146333Y-76303064D01*
X52129579Y-76312020D01*
X52111403Y-76317534D01*
X52086362Y-76320000D01*
X51293638Y-76320000D01*
X51268597Y-76317534D01*
X51250421Y-76312020D01*
X51233667Y-76303064D01*
X51218985Y-76291015D01*
X51206936Y-76276333D01*
X51197980Y-76259579D01*
X51192466Y-76241403D01*
X51190000Y-76216362D01*
X51190000Y-75783638D01*
X51192466Y-75758597D01*
X51197980Y-75740421D01*
X51206936Y-75723667D01*
X51218985Y-75708985D01*
X51233667Y-75696936D01*
X51250421Y-75687980D01*
X51268597Y-75682466D01*
X51293638Y-75680000D01*
X52086362Y-75680000D01*
X52111403Y-75682466D01*
X52111403Y-75682466D01*
G37*
G36*
X50731403Y-75682466D02*
X50749579Y-75687980D01*
X50766333Y-75696936D01*
X50781015Y-75708985D01*
X50793064Y-75723667D01*
X50802020Y-75740421D01*
X50807534Y-75758597D01*
X50810000Y-75783638D01*
X50810000Y-76216362D01*
X50807534Y-76241403D01*
X50802020Y-76259579D01*
X50793064Y-76276333D01*
X50781015Y-76291015D01*
X50766333Y-76303064D01*
X50749579Y-76312020D01*
X50731403Y-76317534D01*
X50706362Y-76320000D01*
X49913638Y-76320000D01*
X49888597Y-76317534D01*
X49870421Y-76312020D01*
X49853667Y-76303064D01*
X49838985Y-76291015D01*
X49826936Y-76276333D01*
X49817980Y-76259579D01*
X49812466Y-76241403D01*
X49810000Y-76216362D01*
X49810000Y-75783638D01*
X49812466Y-75758597D01*
X49817980Y-75740421D01*
X49826936Y-75723667D01*
X49838985Y-75708985D01*
X49853667Y-75696936D01*
X49870421Y-75687980D01*
X49888597Y-75682466D01*
X49913638Y-75680000D01*
X50706362Y-75680000D01*
X50731403Y-75682466D01*
X50731403Y-75682466D01*
G37*
G36*
X62700000Y-75650000D02*
X60650000Y-75650000D01*
X60650000Y-75000000D01*
X62700000Y-75000000D01*
X62700000Y-75650000D01*
X62700000Y-75650000D01*
G37*
G36*
X67850000Y-75650000D02*
X65800000Y-75650000D01*
X65800000Y-75000000D01*
X67850000Y-75000000D01*
X67850000Y-75650000D01*
X67850000Y-75650000D01*
G37*
G36*
X74050000Y-75450000D02*
X73050000Y-75450000D01*
X73050000Y-75200000D01*
X74050000Y-75200000D01*
X74050000Y-75450000D01*
X74050000Y-75450000D01*
G37*
G36*
X75450000Y-75450000D02*
X74450000Y-75450000D01*
X74450000Y-75200000D01*
X75450000Y-75200000D01*
X75450000Y-75450000D01*
X75450000Y-75450000D01*
G37*
G36*
X50106445Y-73475009D02*
X50120696Y-73489261D01*
X50141070Y-73502875D01*
X50163709Y-73512254D01*
X50187742Y-73517036D01*
X50212246Y-73517037D01*
X50236280Y-73512257D01*
X50258920Y-73502881D01*
X50279295Y-73489268D01*
X50293554Y-73475009D01*
X50293643Y-73475000D01*
X50506357Y-73475000D01*
X50506445Y-73475009D01*
X50520696Y-73489261D01*
X50541070Y-73502875D01*
X50563709Y-73512254D01*
X50587742Y-73517036D01*
X50612246Y-73517037D01*
X50636280Y-73512257D01*
X50658920Y-73502881D01*
X50679295Y-73489268D01*
X50693554Y-73475009D01*
X50693643Y-73475000D01*
X50906357Y-73475000D01*
X50906445Y-73475009D01*
X50920696Y-73489261D01*
X50941070Y-73502875D01*
X50963709Y-73512254D01*
X50987742Y-73517036D01*
X51012246Y-73517037D01*
X51036280Y-73512257D01*
X51058920Y-73502881D01*
X51079295Y-73489268D01*
X51093554Y-73475009D01*
X51093643Y-73475000D01*
X51306357Y-73475000D01*
X51306445Y-73475009D01*
X51320696Y-73489261D01*
X51341070Y-73502875D01*
X51363709Y-73512254D01*
X51387742Y-73517036D01*
X51412246Y-73517037D01*
X51436280Y-73512257D01*
X51458920Y-73502881D01*
X51479295Y-73489268D01*
X51493554Y-73475009D01*
X51493643Y-73475000D01*
X51706357Y-73475000D01*
X51706445Y-73475009D01*
X51720696Y-73489261D01*
X51741070Y-73502875D01*
X51763709Y-73512254D01*
X51787742Y-73517036D01*
X51812246Y-73517037D01*
X51836280Y-73512257D01*
X51858920Y-73502881D01*
X51879295Y-73489268D01*
X51893554Y-73475009D01*
X51893643Y-73475000D01*
X52100000Y-73475000D01*
X52100000Y-75025000D01*
X51893643Y-75025000D01*
X51893555Y-75024991D01*
X51879304Y-75010739D01*
X51858930Y-74997125D01*
X51836291Y-74987746D01*
X51812258Y-74982964D01*
X51787754Y-74982963D01*
X51763720Y-74987743D01*
X51741080Y-74997119D01*
X51720705Y-75010732D01*
X51706446Y-75024991D01*
X51706357Y-75025000D01*
X51493643Y-75025000D01*
X51493555Y-75024991D01*
X51479304Y-75010739D01*
X51458930Y-74997125D01*
X51436291Y-74987746D01*
X51412258Y-74982964D01*
X51387754Y-74982963D01*
X51363720Y-74987743D01*
X51341080Y-74997119D01*
X51320705Y-75010732D01*
X51306446Y-75024991D01*
X51306357Y-75025000D01*
X51093643Y-75025000D01*
X51093555Y-75024991D01*
X51079304Y-75010739D01*
X51058930Y-74997125D01*
X51036291Y-74987746D01*
X51012258Y-74982964D01*
X50987754Y-74982963D01*
X50963720Y-74987743D01*
X50941080Y-74997119D01*
X50920705Y-75010732D01*
X50906446Y-75024991D01*
X50906357Y-75025000D01*
X50693643Y-75025000D01*
X50693555Y-75024991D01*
X50679304Y-75010739D01*
X50658930Y-74997125D01*
X50636291Y-74987746D01*
X50612258Y-74982964D01*
X50587754Y-74982963D01*
X50563720Y-74987743D01*
X50541080Y-74997119D01*
X50520705Y-75010732D01*
X50506446Y-75024991D01*
X50506357Y-75025000D01*
X50293643Y-75025000D01*
X50293555Y-75024991D01*
X50279304Y-75010739D01*
X50258930Y-74997125D01*
X50236291Y-74987746D01*
X50212258Y-74982964D01*
X50187754Y-74982963D01*
X50163720Y-74987743D01*
X50141080Y-74997119D01*
X50120705Y-75010732D01*
X50106446Y-75024991D01*
X50106357Y-75025000D01*
X49900000Y-75025000D01*
X49900000Y-73475000D01*
X50106357Y-73475000D01*
X50106445Y-73475009D01*
X50106445Y-73475009D01*
G37*
G36*
X47441403Y-73992466D02*
X47459579Y-73997980D01*
X47476333Y-74006936D01*
X47491015Y-74018985D01*
X47503064Y-74033667D01*
X47512020Y-74050421D01*
X47517534Y-74068597D01*
X47520000Y-74093638D01*
X47520000Y-74886362D01*
X47517534Y-74911403D01*
X47512020Y-74929579D01*
X47503064Y-74946333D01*
X47491015Y-74961015D01*
X47476333Y-74973064D01*
X47459579Y-74982020D01*
X47441403Y-74987534D01*
X47416362Y-74990000D01*
X46983638Y-74990000D01*
X46958597Y-74987534D01*
X46940421Y-74982020D01*
X46923667Y-74973064D01*
X46908985Y-74961015D01*
X46896936Y-74946333D01*
X46887980Y-74929579D01*
X46882466Y-74911403D01*
X46880000Y-74886362D01*
X46880000Y-74093638D01*
X46882466Y-74068597D01*
X46887980Y-74050421D01*
X46896936Y-74033667D01*
X46908985Y-74018985D01*
X46923667Y-74006936D01*
X46940421Y-73997980D01*
X46958597Y-73992466D01*
X46983638Y-73990000D01*
X47416362Y-73990000D01*
X47441403Y-73992466D01*
X47441403Y-73992466D01*
G37*
G36*
X75450000Y-74800000D02*
X74450000Y-74800000D01*
X74450000Y-74550000D01*
X75450000Y-74550000D01*
X75450000Y-74800000D01*
X75450000Y-74800000D01*
G37*
G36*
X74050000Y-74800000D02*
X73050000Y-74800000D01*
X73050000Y-74550000D01*
X74050000Y-74550000D01*
X74050000Y-74800000D01*
X74050000Y-74800000D01*
G37*
G36*
X47441403Y-72612466D02*
X47459579Y-72617980D01*
X47476333Y-72626936D01*
X47491015Y-72638985D01*
X47503064Y-72653667D01*
X47512020Y-72670421D01*
X47517534Y-72688597D01*
X47520000Y-72713638D01*
X47520000Y-73506362D01*
X47517534Y-73531403D01*
X47512020Y-73549579D01*
X47503064Y-73566333D01*
X47491015Y-73581015D01*
X47476333Y-73593064D01*
X47459579Y-73602020D01*
X47441403Y-73607534D01*
X47416362Y-73610000D01*
X46983638Y-73610000D01*
X46958597Y-73607534D01*
X46940421Y-73602020D01*
X46923667Y-73593064D01*
X46908985Y-73581015D01*
X46896936Y-73566333D01*
X46887980Y-73549579D01*
X46882466Y-73531403D01*
X46880000Y-73506362D01*
X46880000Y-72713638D01*
X46882466Y-72688597D01*
X46887980Y-72670421D01*
X46896936Y-72653667D01*
X46908985Y-72638985D01*
X46923667Y-72626936D01*
X46940421Y-72617980D01*
X46958597Y-72612466D01*
X46983638Y-72610000D01*
X47416362Y-72610000D01*
X47441403Y-72612466D01*
X47441403Y-72612466D01*
G37*
G36*
X62700000Y-73500000D02*
X60650000Y-73500000D01*
X60650000Y-72850000D01*
X62700000Y-72850000D01*
X62700000Y-73500000D01*
X62700000Y-73500000D01*
G37*
G36*
X67850000Y-73500000D02*
X65800000Y-73500000D01*
X65800000Y-72850000D01*
X67850000Y-72850000D01*
X67850000Y-73500000D01*
X67850000Y-73500000D01*
G37*
G36*
X53775000Y-71356357D02*
X53774991Y-71356445D01*
X53760739Y-71370696D01*
X53747125Y-71391070D01*
X53737746Y-71413709D01*
X53732964Y-71437742D01*
X53732963Y-71462246D01*
X53737743Y-71486280D01*
X53747119Y-71508920D01*
X53760732Y-71529295D01*
X53774991Y-71543554D01*
X53775000Y-71543643D01*
X53775000Y-71756357D01*
X53774991Y-71756445D01*
X53760739Y-71770696D01*
X53747125Y-71791070D01*
X53737746Y-71813709D01*
X53732964Y-71837742D01*
X53732963Y-71862246D01*
X53737743Y-71886280D01*
X53747119Y-71908920D01*
X53760732Y-71929295D01*
X53774991Y-71943554D01*
X53775000Y-71943643D01*
X53775000Y-72156357D01*
X53774991Y-72156445D01*
X53760739Y-72170696D01*
X53747125Y-72191070D01*
X53737746Y-72213709D01*
X53732964Y-72237742D01*
X53732963Y-72262246D01*
X53737743Y-72286280D01*
X53747119Y-72308920D01*
X53760732Y-72329295D01*
X53774991Y-72343554D01*
X53775000Y-72343643D01*
X53775000Y-72556357D01*
X53774991Y-72556445D01*
X53760739Y-72570696D01*
X53747125Y-72591070D01*
X53737746Y-72613709D01*
X53732964Y-72637742D01*
X53732963Y-72662246D01*
X53737743Y-72686280D01*
X53747119Y-72708920D01*
X53760732Y-72729295D01*
X53774991Y-72743554D01*
X53775000Y-72743643D01*
X53775000Y-72956357D01*
X53774991Y-72956445D01*
X53760739Y-72970696D01*
X53747125Y-72991070D01*
X53737746Y-73013709D01*
X53732964Y-73037742D01*
X53732963Y-73062246D01*
X53737743Y-73086280D01*
X53747119Y-73108920D01*
X53760732Y-73129295D01*
X53774991Y-73143554D01*
X53775000Y-73143643D01*
X53775000Y-73350000D01*
X52225000Y-73350000D01*
X52225000Y-73143643D01*
X52225009Y-73143555D01*
X52239261Y-73129304D01*
X52252875Y-73108930D01*
X52262254Y-73086291D01*
X52267036Y-73062258D01*
X52267037Y-73037754D01*
X52262257Y-73013720D01*
X52252881Y-72991080D01*
X52239268Y-72970705D01*
X52225009Y-72956446D01*
X52225000Y-72956357D01*
X52225000Y-72743643D01*
X52225009Y-72743555D01*
X52239261Y-72729304D01*
X52252875Y-72708930D01*
X52262254Y-72686291D01*
X52267036Y-72662258D01*
X52267037Y-72637754D01*
X52262257Y-72613720D01*
X52252881Y-72591080D01*
X52239268Y-72570705D01*
X52225009Y-72556446D01*
X52225000Y-72556357D01*
X52225000Y-72343643D01*
X52225009Y-72343555D01*
X52239261Y-72329304D01*
X52252875Y-72308930D01*
X52262254Y-72286291D01*
X52267036Y-72262258D01*
X52267037Y-72237754D01*
X52262257Y-72213720D01*
X52252881Y-72191080D01*
X52239268Y-72170705D01*
X52225009Y-72156446D01*
X52225000Y-72156357D01*
X52225000Y-71943643D01*
X52225009Y-71943555D01*
X52239261Y-71929304D01*
X52252875Y-71908930D01*
X52262254Y-71886291D01*
X52267036Y-71862258D01*
X52267037Y-71837754D01*
X52262257Y-71813720D01*
X52252881Y-71791080D01*
X52239268Y-71770705D01*
X52225009Y-71756446D01*
X52225000Y-71756357D01*
X52225000Y-71543643D01*
X52225009Y-71543555D01*
X52239261Y-71529304D01*
X52252875Y-71508930D01*
X52262254Y-71486291D01*
X52267036Y-71462258D01*
X52267037Y-71437754D01*
X52262257Y-71413720D01*
X52252881Y-71391080D01*
X52239268Y-71370705D01*
X52225009Y-71356446D01*
X52225000Y-71356357D01*
X52225000Y-71150000D01*
X53775000Y-71150000D01*
X53775000Y-71356357D01*
X53775000Y-71356357D01*
G37*
G36*
X49775000Y-71356357D02*
X49774991Y-71356445D01*
X49760739Y-71370696D01*
X49747125Y-71391070D01*
X49737746Y-71413709D01*
X49732964Y-71437742D01*
X49732963Y-71462246D01*
X49737743Y-71486280D01*
X49747119Y-71508920D01*
X49760732Y-71529295D01*
X49774991Y-71543554D01*
X49775000Y-71543643D01*
X49775000Y-71756357D01*
X49774991Y-71756445D01*
X49760739Y-71770696D01*
X49747125Y-71791070D01*
X49737746Y-71813709D01*
X49732964Y-71837742D01*
X49732963Y-71862246D01*
X49737743Y-71886280D01*
X49747119Y-71908920D01*
X49760732Y-71929295D01*
X49774991Y-71943554D01*
X49775000Y-71943643D01*
X49775000Y-72156357D01*
X49774991Y-72156445D01*
X49760739Y-72170696D01*
X49747125Y-72191070D01*
X49737746Y-72213709D01*
X49732964Y-72237742D01*
X49732963Y-72262246D01*
X49737743Y-72286280D01*
X49747119Y-72308920D01*
X49760732Y-72329295D01*
X49774991Y-72343554D01*
X49775000Y-72343643D01*
X49775000Y-72556357D01*
X49774991Y-72556445D01*
X49760739Y-72570696D01*
X49747125Y-72591070D01*
X49737746Y-72613709D01*
X49732964Y-72637742D01*
X49732963Y-72662246D01*
X49737743Y-72686280D01*
X49747119Y-72708920D01*
X49760732Y-72729295D01*
X49774991Y-72743554D01*
X49775000Y-72743643D01*
X49775000Y-72956357D01*
X49774991Y-72956445D01*
X49760739Y-72970696D01*
X49747125Y-72991070D01*
X49737746Y-73013709D01*
X49732964Y-73037742D01*
X49732963Y-73062246D01*
X49737743Y-73086280D01*
X49747119Y-73108920D01*
X49760732Y-73129295D01*
X49774991Y-73143554D01*
X49775000Y-73143643D01*
X49775000Y-73350000D01*
X48225000Y-73350000D01*
X48225000Y-73143643D01*
X48225009Y-73143555D01*
X48239261Y-73129304D01*
X48252875Y-73108930D01*
X48262254Y-73086291D01*
X48267036Y-73062258D01*
X48267037Y-73037754D01*
X48262257Y-73013720D01*
X48252881Y-72991080D01*
X48239268Y-72970705D01*
X48225009Y-72956446D01*
X48225000Y-72956357D01*
X48225000Y-72743643D01*
X48225009Y-72743555D01*
X48239261Y-72729304D01*
X48252875Y-72708930D01*
X48262254Y-72686291D01*
X48267036Y-72662258D01*
X48267037Y-72637754D01*
X48262257Y-72613720D01*
X48252881Y-72591080D01*
X48239268Y-72570705D01*
X48225009Y-72556446D01*
X48225000Y-72556357D01*
X48225000Y-72343643D01*
X48225009Y-72343555D01*
X48239261Y-72329304D01*
X48252875Y-72308930D01*
X48262254Y-72286291D01*
X48267036Y-72262258D01*
X48267037Y-72237754D01*
X48262257Y-72213720D01*
X48252881Y-72191080D01*
X48239268Y-72170705D01*
X48225009Y-72156446D01*
X48225000Y-72156357D01*
X48225000Y-71943643D01*
X48225009Y-71943555D01*
X48239261Y-71929304D01*
X48252875Y-71908930D01*
X48262254Y-71886291D01*
X48267036Y-71862258D01*
X48267037Y-71837754D01*
X48262257Y-71813720D01*
X48252881Y-71791080D01*
X48239268Y-71770705D01*
X48225009Y-71756446D01*
X48225000Y-71756357D01*
X48225000Y-71543643D01*
X48225009Y-71543555D01*
X48239261Y-71529304D01*
X48252875Y-71508930D01*
X48262254Y-71486291D01*
X48267036Y-71462258D01*
X48267037Y-71437754D01*
X48262257Y-71413720D01*
X48252881Y-71391080D01*
X48239268Y-71370705D01*
X48225009Y-71356446D01*
X48225000Y-71356357D01*
X48225000Y-71150000D01*
X49775000Y-71150000D01*
X49775000Y-71356357D01*
X49775000Y-71356357D01*
G37*
G36*
X51726412Y-71401630D02*
X51736435Y-71404670D01*
X51745667Y-71409605D01*
X51753756Y-71416244D01*
X51760395Y-71424333D01*
X51765330Y-71433565D01*
X51768370Y-71443588D01*
X51770000Y-71460138D01*
X51770000Y-73039862D01*
X51768370Y-73056412D01*
X51765330Y-73066435D01*
X51760395Y-73075667D01*
X51753756Y-73083756D01*
X51745667Y-73090395D01*
X51736435Y-73095330D01*
X51726412Y-73098370D01*
X51709862Y-73100000D01*
X50290138Y-73100000D01*
X50273588Y-73098370D01*
X50263565Y-73095330D01*
X50254333Y-73090395D01*
X50246244Y-73083756D01*
X50239605Y-73075667D01*
X50234670Y-73066435D01*
X50231630Y-73056412D01*
X50230000Y-73039862D01*
X50230000Y-71460138D01*
X50231630Y-71443588D01*
X50234670Y-71433565D01*
X50239605Y-71424333D01*
X50246244Y-71416244D01*
X50254333Y-71409605D01*
X50263565Y-71404670D01*
X50273588Y-71401630D01*
X50290138Y-71400000D01*
X51709862Y-71400000D01*
X51726412Y-71401630D01*
X51726412Y-71401630D01*
G37*
G36*
X75784024Y-72018955D02*
X75816736Y-72028879D01*
X75846890Y-72044997D01*
X75873316Y-72066684D01*
X75895003Y-72093110D01*
X75911121Y-72123264D01*
X75921045Y-72155976D01*
X75925000Y-72196138D01*
X75925000Y-72783862D01*
X75921045Y-72824024D01*
X75911121Y-72856736D01*
X75895003Y-72886890D01*
X75873316Y-72913316D01*
X75846890Y-72935003D01*
X75816736Y-72951121D01*
X75784024Y-72961045D01*
X75743862Y-72965000D01*
X75056138Y-72965000D01*
X75015976Y-72961045D01*
X74983264Y-72951121D01*
X74953110Y-72935003D01*
X74926684Y-72913316D01*
X74904997Y-72886890D01*
X74888879Y-72856736D01*
X74878955Y-72824024D01*
X74875000Y-72783862D01*
X74875000Y-72196138D01*
X74878955Y-72155976D01*
X74888879Y-72123264D01*
X74904997Y-72093110D01*
X74926684Y-72066684D01*
X74953110Y-72044997D01*
X74983264Y-72028879D01*
X75015976Y-72018955D01*
X75056138Y-72015000D01*
X75743862Y-72015000D01*
X75784024Y-72018955D01*
X75784024Y-72018955D01*
G37*
G36*
X74034024Y-72018955D02*
X74066736Y-72028879D01*
X74096890Y-72044997D01*
X74123316Y-72066684D01*
X74145003Y-72093110D01*
X74161121Y-72123264D01*
X74171045Y-72155976D01*
X74175000Y-72196138D01*
X74175000Y-72783862D01*
X74171045Y-72824024D01*
X74161121Y-72856736D01*
X74145003Y-72886890D01*
X74123316Y-72913316D01*
X74096890Y-72935003D01*
X74066736Y-72951121D01*
X74034024Y-72961045D01*
X73993862Y-72965000D01*
X73306138Y-72965000D01*
X73265976Y-72961045D01*
X73233264Y-72951121D01*
X73203110Y-72935003D01*
X73176684Y-72913316D01*
X73154997Y-72886890D01*
X73138879Y-72856736D01*
X73128955Y-72824024D01*
X73125000Y-72783862D01*
X73125000Y-72196138D01*
X73128955Y-72155976D01*
X73138879Y-72123264D01*
X73154997Y-72093110D01*
X73176684Y-72066684D01*
X73203110Y-72044997D01*
X73233264Y-72028879D01*
X73265976Y-72018955D01*
X73306138Y-72015000D01*
X73993862Y-72015000D01*
X74034024Y-72018955D01*
X74034024Y-72018955D01*
G37*
G36*
X47441403Y-70592466D02*
X47459579Y-70597980D01*
X47476333Y-70606936D01*
X47491015Y-70618985D01*
X47503064Y-70633667D01*
X47512020Y-70650421D01*
X47517534Y-70668597D01*
X47520000Y-70693638D01*
X47520000Y-71486362D01*
X47517534Y-71511403D01*
X47512020Y-71529579D01*
X47503064Y-71546333D01*
X47491015Y-71561015D01*
X47476333Y-71573064D01*
X47459579Y-71582020D01*
X47441403Y-71587534D01*
X47416362Y-71590000D01*
X46983638Y-71590000D01*
X46958597Y-71587534D01*
X46940421Y-71582020D01*
X46923667Y-71573064D01*
X46908985Y-71561015D01*
X46896936Y-71546333D01*
X46887980Y-71529579D01*
X46882466Y-71511403D01*
X46880000Y-71486362D01*
X46880000Y-70693638D01*
X46882466Y-70668597D01*
X46887980Y-70650421D01*
X46896936Y-70633667D01*
X46908985Y-70618985D01*
X46923667Y-70606936D01*
X46940421Y-70597980D01*
X46958597Y-70592466D01*
X46983638Y-70590000D01*
X47416362Y-70590000D01*
X47441403Y-70592466D01*
X47441403Y-70592466D01*
G37*
G36*
X59506630Y-69462299D02*
X59666855Y-69510903D01*
X59814520Y-69589831D01*
X59943949Y-69696051D01*
X60050169Y-69825480D01*
X60129097Y-69973145D01*
X60177701Y-70133370D01*
X60194112Y-70300000D01*
X60177701Y-70466630D01*
X60129097Y-70626855D01*
X60050169Y-70774520D01*
X59943949Y-70903949D01*
X59814520Y-71010169D01*
X59666855Y-71089097D01*
X59506630Y-71137701D01*
X59381752Y-71150000D01*
X59298248Y-71150000D01*
X59173370Y-71137701D01*
X59013145Y-71089097D01*
X58865480Y-71010169D01*
X58736051Y-70903949D01*
X58629831Y-70774520D01*
X58550903Y-70626855D01*
X58502299Y-70466630D01*
X58485888Y-70300000D01*
X58502299Y-70133370D01*
X58550903Y-69973145D01*
X58629831Y-69825480D01*
X58736051Y-69696051D01*
X58865480Y-69589831D01*
X59013145Y-69510903D01*
X59173370Y-69462299D01*
X59298248Y-69450000D01*
X59381752Y-69450000D01*
X59506630Y-69462299D01*
X59506630Y-69462299D01*
G37*
G36*
X62046630Y-69462299D02*
X62206855Y-69510903D01*
X62354520Y-69589831D01*
X62483949Y-69696051D01*
X62590169Y-69825480D01*
X62669097Y-69973145D01*
X62717701Y-70133370D01*
X62734112Y-70300000D01*
X62717701Y-70466630D01*
X62669097Y-70626855D01*
X62590169Y-70774520D01*
X62483949Y-70903949D01*
X62354520Y-71010169D01*
X62206855Y-71089097D01*
X62046630Y-71137701D01*
X61921752Y-71150000D01*
X61838248Y-71150000D01*
X61713370Y-71137701D01*
X61553145Y-71089097D01*
X61405480Y-71010169D01*
X61276051Y-70903949D01*
X61169831Y-70774520D01*
X61090903Y-70626855D01*
X61042299Y-70466630D01*
X61025888Y-70300000D01*
X61042299Y-70133370D01*
X61090903Y-69973145D01*
X61169831Y-69825480D01*
X61276051Y-69696051D01*
X61405480Y-69589831D01*
X61553145Y-69510903D01*
X61713370Y-69462299D01*
X61838248Y-69450000D01*
X61921752Y-69450000D01*
X62046630Y-69462299D01*
X62046630Y-69462299D01*
G37*
G36*
X64586630Y-69462299D02*
X64746855Y-69510903D01*
X64894520Y-69589831D01*
X65023949Y-69696051D01*
X65130169Y-69825480D01*
X65209097Y-69973145D01*
X65257701Y-70133370D01*
X65274112Y-70300000D01*
X65257701Y-70466630D01*
X65209097Y-70626855D01*
X65130169Y-70774520D01*
X65023949Y-70903949D01*
X64894520Y-71010169D01*
X64746855Y-71089097D01*
X64586630Y-71137701D01*
X64461752Y-71150000D01*
X64378248Y-71150000D01*
X64253370Y-71137701D01*
X64093145Y-71089097D01*
X63945480Y-71010169D01*
X63816051Y-70903949D01*
X63709831Y-70774520D01*
X63630903Y-70626855D01*
X63582299Y-70466630D01*
X63565888Y-70300000D01*
X63582299Y-70133370D01*
X63630903Y-69973145D01*
X63709831Y-69825480D01*
X63816051Y-69696051D01*
X63945480Y-69589831D01*
X64093145Y-69510903D01*
X64253370Y-69462299D01*
X64378248Y-69450000D01*
X64461752Y-69450000D01*
X64586630Y-69462299D01*
X64586630Y-69462299D01*
G37*
G36*
X67126630Y-69462299D02*
X67286855Y-69510903D01*
X67434520Y-69589831D01*
X67563949Y-69696051D01*
X67670169Y-69825480D01*
X67749097Y-69973145D01*
X67797701Y-70133370D01*
X67814112Y-70300000D01*
X67797701Y-70466630D01*
X67749097Y-70626855D01*
X67670169Y-70774520D01*
X67563949Y-70903949D01*
X67434520Y-71010169D01*
X67286855Y-71089097D01*
X67126630Y-71137701D01*
X67001752Y-71150000D01*
X66918248Y-71150000D01*
X66793370Y-71137701D01*
X66633145Y-71089097D01*
X66485480Y-71010169D01*
X66356051Y-70903949D01*
X66249831Y-70774520D01*
X66170903Y-70626855D01*
X66122299Y-70466630D01*
X66105888Y-70300000D01*
X66122299Y-70133370D01*
X66170903Y-69973145D01*
X66249831Y-69825480D01*
X66356051Y-69696051D01*
X66485480Y-69589831D01*
X66633145Y-69510903D01*
X66793370Y-69462299D01*
X66918248Y-69450000D01*
X67001752Y-69450000D01*
X67126630Y-69462299D01*
X67126630Y-69462299D01*
G37*
G36*
X70986630Y-69462299D02*
X71146855Y-69510903D01*
X71294520Y-69589831D01*
X71423949Y-69696051D01*
X71530169Y-69825480D01*
X71609097Y-69973145D01*
X71657701Y-70133370D01*
X71674112Y-70300000D01*
X71657701Y-70466630D01*
X71609097Y-70626855D01*
X71530169Y-70774520D01*
X71423949Y-70903949D01*
X71294520Y-71010169D01*
X71146855Y-71089097D01*
X70986630Y-71137701D01*
X70861752Y-71150000D01*
X70778248Y-71150000D01*
X70653370Y-71137701D01*
X70493145Y-71089097D01*
X70345480Y-71010169D01*
X70216051Y-70903949D01*
X70109831Y-70774520D01*
X70030903Y-70626855D01*
X69982299Y-70466630D01*
X69965888Y-70300000D01*
X69982299Y-70133370D01*
X70030903Y-69973145D01*
X70109831Y-69825480D01*
X70216051Y-69696051D01*
X70345480Y-69589831D01*
X70493145Y-69510903D01*
X70653370Y-69462299D01*
X70778248Y-69450000D01*
X70861752Y-69450000D01*
X70986630Y-69462299D01*
X70986630Y-69462299D01*
G37*
G36*
X73526630Y-69462299D02*
X73686855Y-69510903D01*
X73834520Y-69589831D01*
X73963949Y-69696051D01*
X74070169Y-69825480D01*
X74149097Y-69973145D01*
X74197701Y-70133370D01*
X74214112Y-70300000D01*
X74197701Y-70466630D01*
X74149097Y-70626855D01*
X74070169Y-70774520D01*
X73963949Y-70903949D01*
X73834520Y-71010169D01*
X73686855Y-71089097D01*
X73526630Y-71137701D01*
X73401752Y-71150000D01*
X73318248Y-71150000D01*
X73193370Y-71137701D01*
X73033145Y-71089097D01*
X72885480Y-71010169D01*
X72756051Y-70903949D01*
X72649831Y-70774520D01*
X72570903Y-70626855D01*
X72522299Y-70466630D01*
X72505888Y-70300000D01*
X72522299Y-70133370D01*
X72570903Y-69973145D01*
X72649831Y-69825480D01*
X72756051Y-69696051D01*
X72885480Y-69589831D01*
X73033145Y-69510903D01*
X73193370Y-69462299D01*
X73318248Y-69450000D01*
X73401752Y-69450000D01*
X73526630Y-69462299D01*
X73526630Y-69462299D01*
G37*
G36*
X76750000Y-71150000D02*
X75050000Y-71150000D01*
X75050000Y-69450000D01*
X76750000Y-69450000D01*
X76750000Y-71150000D01*
X76750000Y-71150000D01*
G37*
G36*
X57650000Y-71150000D02*
X55950000Y-71150000D01*
X55950000Y-69450000D01*
X57650000Y-69450000D01*
X57650000Y-71150000D01*
X57650000Y-71150000D01*
G37*
G36*
X50106445Y-69475009D02*
X50120696Y-69489261D01*
X50141070Y-69502875D01*
X50163709Y-69512254D01*
X50187742Y-69517036D01*
X50212246Y-69517037D01*
X50236280Y-69512257D01*
X50258920Y-69502881D01*
X50279295Y-69489268D01*
X50293554Y-69475009D01*
X50293643Y-69475000D01*
X50506357Y-69475000D01*
X50506445Y-69475009D01*
X50520696Y-69489261D01*
X50541070Y-69502875D01*
X50563709Y-69512254D01*
X50587742Y-69517036D01*
X50612246Y-69517037D01*
X50636280Y-69512257D01*
X50658920Y-69502881D01*
X50679295Y-69489268D01*
X50693554Y-69475009D01*
X50693643Y-69475000D01*
X50906357Y-69475000D01*
X50906445Y-69475009D01*
X50920696Y-69489261D01*
X50941070Y-69502875D01*
X50963709Y-69512254D01*
X50987742Y-69517036D01*
X51012246Y-69517037D01*
X51036280Y-69512257D01*
X51058920Y-69502881D01*
X51079295Y-69489268D01*
X51093554Y-69475009D01*
X51093643Y-69475000D01*
X51306357Y-69475000D01*
X51306445Y-69475009D01*
X51320696Y-69489261D01*
X51341070Y-69502875D01*
X51363709Y-69512254D01*
X51387742Y-69517036D01*
X51412246Y-69517037D01*
X51436280Y-69512257D01*
X51458920Y-69502881D01*
X51479295Y-69489268D01*
X51493554Y-69475009D01*
X51493643Y-69475000D01*
X51706357Y-69475000D01*
X51706445Y-69475009D01*
X51720696Y-69489261D01*
X51741070Y-69502875D01*
X51763709Y-69512254D01*
X51787742Y-69517036D01*
X51812246Y-69517037D01*
X51836280Y-69512257D01*
X51858920Y-69502881D01*
X51879295Y-69489268D01*
X51893554Y-69475009D01*
X51893643Y-69475000D01*
X52100000Y-69475000D01*
X52100000Y-71025000D01*
X51893643Y-71025000D01*
X51893555Y-71024991D01*
X51879304Y-71010739D01*
X51858930Y-70997125D01*
X51836291Y-70987746D01*
X51812258Y-70982964D01*
X51787754Y-70982963D01*
X51763720Y-70987743D01*
X51741080Y-70997119D01*
X51720705Y-71010732D01*
X51706446Y-71024991D01*
X51706357Y-71025000D01*
X51493643Y-71025000D01*
X51493555Y-71024991D01*
X51479304Y-71010739D01*
X51458930Y-70997125D01*
X51436291Y-70987746D01*
X51412258Y-70982964D01*
X51387754Y-70982963D01*
X51363720Y-70987743D01*
X51341080Y-70997119D01*
X51320705Y-71010732D01*
X51306446Y-71024991D01*
X51306357Y-71025000D01*
X51093643Y-71025000D01*
X51093555Y-71024991D01*
X51079304Y-71010739D01*
X51058930Y-70997125D01*
X51036291Y-70987746D01*
X51012258Y-70982964D01*
X50987754Y-70982963D01*
X50963720Y-70987743D01*
X50941080Y-70997119D01*
X50920705Y-71010732D01*
X50906446Y-71024991D01*
X50906357Y-71025000D01*
X50693643Y-71025000D01*
X50693555Y-71024991D01*
X50679304Y-71010739D01*
X50658930Y-70997125D01*
X50636291Y-70987746D01*
X50612258Y-70982964D01*
X50587754Y-70982963D01*
X50563720Y-70987743D01*
X50541080Y-70997119D01*
X50520705Y-71010732D01*
X50506446Y-71024991D01*
X50506357Y-71025000D01*
X50293643Y-71025000D01*
X50293555Y-71024991D01*
X50279304Y-71010739D01*
X50258930Y-70997125D01*
X50236291Y-70987746D01*
X50212258Y-70982964D01*
X50187754Y-70982963D01*
X50163720Y-70987743D01*
X50141080Y-70997119D01*
X50120705Y-71010732D01*
X50106446Y-71024991D01*
X50106357Y-71025000D01*
X49900000Y-71025000D01*
X49900000Y-69475000D01*
X50106357Y-69475000D01*
X50106445Y-69475009D01*
X50106445Y-69475009D01*
G37*
G36*
X47441403Y-69212466D02*
X47459579Y-69217980D01*
X47476333Y-69226936D01*
X47491015Y-69238985D01*
X47503064Y-69253667D01*
X47512020Y-69270421D01*
X47517534Y-69288597D01*
X47520000Y-69313638D01*
X47520000Y-70106362D01*
X47517534Y-70131403D01*
X47512020Y-70149579D01*
X47503064Y-70166333D01*
X47491015Y-70181015D01*
X47476333Y-70193064D01*
X47459579Y-70202020D01*
X47441403Y-70207534D01*
X47416362Y-70210000D01*
X46983638Y-70210000D01*
X46958597Y-70207534D01*
X46940421Y-70202020D01*
X46923667Y-70193064D01*
X46908985Y-70181015D01*
X46896936Y-70166333D01*
X46887980Y-70149579D01*
X46882466Y-70131403D01*
X46880000Y-70106362D01*
X46880000Y-69313638D01*
X46882466Y-69288597D01*
X46887980Y-69270421D01*
X46896936Y-69253667D01*
X46908985Y-69238985D01*
X46923667Y-69226936D01*
X46940421Y-69217980D01*
X46958597Y-69212466D01*
X46983638Y-69210000D01*
X47416362Y-69210000D01*
X47441403Y-69212466D01*
X47441403Y-69212466D01*
G37*
M02*
