M48
; DRILL file {KiCad (5.1.6)-1} date 09/30/20 10:21:53
; FORMAT={-:-/ absolute / metric / decimal}
; #@! TF.CreationDate,2020-09-30T10:21:53+09:00
; #@! TF.GenerationSoftware,Kicad,Pcbnew,(5.1.6)-1
; #@! TF.FileFunction,Plated,1,2,PTH
FMAT,2
METRIC
T1C0.400
T2C0.500
T3C0.700
T4C0.750
T5C1.000
T6C1.500
%
G90
G05
T1
X54.9Y-97.7
X54.9Y-100.6
X55.0Y-92.4
X55.05Y-61.94
X55.2Y-59.46
X55.45Y-67.54
X57.2Y-62.0
X57.5Y-100.6
X57.6Y-59.2
X58.3Y-90.7
X58.42Y-68.68
X59.08Y-67.9
X59.2Y-94.6
X60.8Y-96.2
X60.85Y-91.2
X60.935Y-64.165
X61.4Y-89.4
X62.466Y-62.421
X62.8Y-93.8
X62.9Y-63.3
X63.11Y-61.25
X63.2Y-100.6
X63.37Y-71.33
X64.14Y-95.58
X65.8Y-87.7
X66.1Y-92.2
X67.38Y-69.41
X68.4Y-64.8
X68.8Y-97.95
X69.3Y-94.55
X69.33Y-69.67
X69.75Y-96.55
X70.5Y-87.7
X70.9Y-68.2
X71.5Y-80.1
X71.75Y-64.7
X72.45Y-89.35
X72.5Y-83.2
X72.6Y-77.2
X72.85Y-64.7
X73.3Y-96.2
X74.0Y-66.4
X74.3Y-100.6
X74.8Y-77.1
X74.9Y-87.8
X75.87Y-70.03
X75.89Y-71.2
X75.95Y-91.3
X77.0Y-94.0
X77.5Y-89.0
X78.7Y-76.7
X78.7Y-78.8
X78.7Y-81.2
X78.88Y-69.72
X78.91Y-68.36
X79.55Y-92.8
X79.78Y-63.83
X79.896Y-74.936
X79.9Y-65.5
X80.0Y-90.0
X80.18Y-61.65
X80.75Y-97.1
X80.86Y-69.32
X81.02Y-63.84
X82.1Y-65.7
X82.45Y-68.12
X83.0Y-91.4
X83.05Y-62.9
X84.68Y-67.55
X85.1Y-92.4
X85.1Y-100.6
X85.18Y-62.82
X85.2Y-97.1
X88.5Y-79.2
X88.9Y-69.1
X88.9Y-74.6
X89.1Y-59.6
X89.4Y-85.9
X89.4Y-92.7
X89.5Y-80.99
X89.68Y-61.65
X90.3Y-87.5
X90.4Y-90.7
X90.65Y-70.04
X90.7Y-73.6
X90.9Y-71.4
X91.34Y-80.94
X91.4Y-60.1
X91.61Y-64.42
X91.709Y-66.431
X91.8Y-94.9
X91.9Y-73.2
X91.92Y-69.31
X92.0Y-76.5
X92.1Y-59.3
X92.3Y-84.3
X92.5Y-92.9
X92.6Y-70.2
X92.85Y-82.04
X93.54Y-77.34
X93.64Y-73.88
X93.7Y-79.3
X94.0Y-61.9
X94.0Y-82.9
X94.6Y-96.4
X94.611Y-70.46
X95.501Y-70.87
X96.0Y-90.5
X96.4Y-95.4
X97.5Y-79.4
X97.57Y-61.0
X97.6Y-77.8
X97.87Y-62.79
X97.9Y-73.7
X97.9Y-86.7
X98.185Y-66.5
X98.2Y-90.41
X99.0Y-77.6
X99.0Y-80.0
X99.1Y-81.8
X99.157Y-66.636
X99.3Y-84.5
X100.1Y-78.6
X100.428Y-63.432
X100.8Y-95.5
X101.01Y-64.415
X101.4Y-73.8
X101.408Y-66.836
X101.9Y-86.5
X102.0Y-84.4
X102.1Y-79.8
X102.2Y-90.4
X102.3Y-81.9
X103.0Y-97.3
X103.32Y-61.58
X103.4Y-91.8
X104.06Y-74.03
X104.4Y-66.1
X105.1Y-82.2
X105.1Y-86.7
X105.2Y-91.0
X105.5Y-95.1
X105.5Y-97.3
X105.6Y-69.6
X105.796Y-85.496
X106.401Y-75.389
X106.6Y-63.0
X106.801Y-66.586
X107.495Y-86.807
X107.52Y-73.41
X108.0Y-97.4
X108.063Y-63.537
X108.1Y-90.9
X108.9Y-68.709
X109.1Y-79.5
X109.246Y-76.927
X109.3Y-81.1
X109.376Y-86.785
X109.4Y-84.8
X109.417Y-82.285
X109.545Y-75.862
X109.6Y-62.9
X109.6Y-100.3
X109.8Y-59.9
X110.5Y-77.0
X110.6Y-86.7
X110.8Y-90.4
X111.4Y-61.9
X111.8Y-81.167
X111.8Y-84.68
X111.806Y-74.034
X111.9Y-59.9
X111.9Y-92.9
X112.4Y-64.5
X112.5Y-65.9
X112.9Y-91.8
X113.0Y-78.6
X113.1Y-75.1
X113.2Y-93.4
X113.7Y-100.6
X113.9Y-69.5
X114.8Y-93.4
X115.2Y-59.9
X115.2Y-62.5
X115.5Y-68.5
X118.5Y-100.5
X118.7Y-59.9
X118.7Y-62.6
X118.7Y-68.5
X118.7Y-91.1
T3
X60.7Y-65.9
T4
X68.0Y-90.0
X70.0Y-90.0
T5
X56.0Y-65.0
X66.28Y-60.0
X68.82Y-60.0
X71.36Y-60.0
X73.9Y-60.0
X118.0Y-95.0
X90.0Y-65.0
X66.38Y-72.0
X68.92Y-72.0
X71.46Y-72.0
X74.0Y-72.0
X65.9Y-68.3
X68.44Y-68.3
X79.0Y-60.1
X81.54Y-60.1
X84.08Y-60.1
X100.28Y-60.0
X102.82Y-60.0
X105.36Y-60.0
X107.9Y-60.0
X78.46Y-99.0
X81.0Y-99.0
X83.54Y-99.0
X102.96Y-67.8
X105.5Y-67.8
X84.0Y-65.0
X101.36Y-99.5
X103.9Y-99.5
X106.44Y-99.5
X90.0Y-95.0
X90.02Y-99.5
X92.56Y-99.5
X95.1Y-99.5
X97.64Y-99.5
X67.46Y-99.5
X70.0Y-99.5
X72.54Y-99.5
X56.0Y-95.0
X82.4Y-74.92
X82.4Y-77.46
X82.4Y-80.0
X82.4Y-82.54
X82.4Y-85.08
X84.0Y-95.0
X118.0Y-65.0
X98.02Y-93.4
X100.56Y-93.4
X103.1Y-93.4
X105.64Y-93.4
X108.18Y-93.4
T6
X105.755Y-79.0
T2
G00X75.8Y-63.75
M15
G01X75.8Y-65.25
M16
G05
G00X95.0Y-67.75
M15
G01X95.0Y-66.25
M16
G05
G00X56.95Y-98.025
M15
G01X57.65Y-98.025
M16
G05
G00X59.55Y-100.175
M15
G01X60.65Y-100.175
M16
G05
G00X62.55Y-98.025
M15
G01X63.25Y-98.025
M16
G05
G00X114.75Y-97.0
M15
G01X113.25Y-97.0
M16
G05
T0
M30
