M48
;DRILL file {KiCad (5.0.2)-1} date 2020/01/20 23:48:11
;FORMAT={-:-/ absolute / metric / decimal}
FMAT,2
METRIC,TZ
T1C0.400
T2C0.500
T3C0.650
T4C0.700
T5C0.750
T6C1.000
%
G90
G05
T1
X21.52Y-33.26
X21.56Y-31.11
X23.62Y-35.22
X23.64Y-29.33
X24.53Y-67.7
X25.17Y-70.95
X25.55Y-34.74
X25.58Y-29.99
X25.58Y-32.43
X25.65Y-64.79
X25.98Y-67.17
X26.2Y-37.15
X26.25Y-48.98
X26.39Y-54.49
X26.39Y-60.53
X26.63Y-53.05
X26.67Y-43.22
X27.11Y-63.45
X27.38Y-55.64
X27.5Y-46.
X27.98Y-70.95
X28.17Y-51.46
X28.5Y-57.
X28.51Y-41.51
X28.52Y-35.2
X28.59Y-63.66
X28.68Y-64.97
X29.52Y-51.36
X29.79Y-39.02
X30.26Y-32.55
X30.36Y-49.12
X30.44Y-29.9
X30.46Y-50.5
X30.7Y-68.347
X30.8Y-63.95
X31.11Y-40.66
X31.16Y-38.87
X31.49Y-52.92
X31.5Y-67.5
X31.59Y-50.5
X32.56Y-63.478
X32.606Y-33.807
X33.18Y-66.81
X33.58Y-38.98
X33.9Y-43.9
X33.9Y-44.9
X33.9Y-54.6
X33.9Y-55.7
X34.2Y-49.57
X34.48Y-66.36
X34.87Y-29.17
X35.03Y-48.57
X35.2Y-44.4
X35.3Y-70.82
X35.37Y-33.71
X35.82Y-67.143
X35.87Y-34.79
X36.Y-39.
X36.66Y-71.025
X36.81Y-50.53
X37.42Y-46.69
X37.5Y-43.25
X37.81Y-55.79
X37.98Y-49.29
X38.02Y-68.07
X38.18Y-51.36
X38.24Y-33.83
X38.26Y-60.02
X38.33Y-58.57
X38.33Y-69.74
X38.94Y-39.74
X38.94Y-65.43
X38.98Y-43.09
X39.07Y-46.1
X39.32Y-69.25
X39.37Y-70.97
X39.59Y-48.22
X39.61Y-55.68
X39.62Y-52.78
X39.69Y-35.74
X39.82Y-58.19
X39.82Y-60.2
X39.82Y-61.92
X40.14Y-33.78
X40.24Y-36.67
X40.43Y-29.52
X40.57Y-38.45
X40.6Y-40.2
X40.64Y-50.65
X40.64Y-64.64
X40.65Y-42.93
X40.65Y-66.93
X41.01Y-47.
X41.23Y-34.71
X41.28Y-49.66
X41.53Y-54.
X41.8Y-59.18
X41.84Y-61.39
X41.93Y-63.5
X41.98Y-32.55
X42.23Y-57.49
X42.64Y-52.15
X43.05Y-48.75
X43.84Y-68.06
X43.89Y-35.87
X43.94Y-39.43
X44.11Y-55.96
X44.41Y-62.04
X44.67Y-70.64
X44.816Y-32.883
X44.97Y-65.05
X45.02Y-37.27
X45.06Y-41.76
X45.19Y-34.33
X45.381Y-50.401
X45.63Y-48.9
X45.73Y-54.9
X45.92Y-33.17
X45.94Y-31.7
X46.03Y-68.02
X46.75Y-46.43
X46.82Y-40.09
X46.82Y-43.59
X46.83Y-34.28
X46.85Y-37.09
X46.91Y-62.04
X46.91Y-65.14
X46.94Y-58.02
X46.97Y-67.26
X47.08Y-31.1
X47.13Y-32.86
X47.36Y-53.07
X48.03Y-29.72
X48.16Y-70.22
X48.26Y-68.02
X48.99Y-62.18
X49.05Y-57.98
X49.14Y-45.86
X49.14Y-51.09
X49.3Y-42.33
X49.34Y-39.
X49.59Y-64.45
X49.62Y-35.89
X50.48Y-63.65
X50.66Y-49.41
X50.66Y-55.27
X51.68Y-58.21
X51.75Y-42.82
X51.89Y-38.01
X51.94Y-52.62
X51.95Y-46.13
X52.35Y-68.
X52.46Y-63.66
X52.48Y-32.31
X52.54Y-35.66
X52.56Y-65.29
X53.93Y-65.31
X53.94Y-32.34
X54.04Y-68.01
X54.64Y-35.66
X56.152Y-64.299
X57.328Y-64.354
X57.36Y-35.695
X57.48Y-37.59
X57.75Y-68.13
X57.84Y-69.45
X57.86Y-70.74
X58.03Y-31.8
X58.618Y-75.69
X58.63Y-73.78
X59.37Y-63.75
X59.46Y-77.44
X59.618Y-75.69
X59.72Y-58.452
X59.85Y-35.15
X60.27Y-41.14
X60.51Y-42.34
X60.64Y-39.69
X60.76Y-54.026
X60.9Y-63.77
X60.92Y-70.91
X62.24Y-56.28
X62.26Y-50.69
X62.27Y-46.23
X62.29Y-49.24
X62.31Y-53.646
X62.68Y-75.47
X62.74Y-43.36
X62.75Y-61.5
X62.85Y-60.1
X62.97Y-63.52
X63.232Y-54.722
X63.25Y-70.92
X63.831Y-60.63
X63.86Y-46.47
X63.97Y-52.45
X64.17Y-43.26
X64.37Y-63.48
X64.99Y-52.26
X65.14Y-39.47
X65.37Y-77.18
X65.43Y-45.24
X65.56Y-60.199
X65.68Y-62.34
X65.81Y-43.22
X65.81Y-54.35
X65.89Y-48.37
X66.03Y-76.13
X66.16Y-36.09
X66.54Y-39.05
X66.61Y-70.43
X66.82Y-60.28
X66.92Y-43.79
X67.04Y-52.86
X67.13Y-54.3
X67.24Y-45.72
X67.32Y-38.3
X68.46Y-54.41
X68.75Y-34.48
X68.76Y-52.77
X68.77Y-70.48
X69.09Y-44.03
X69.17Y-45.86
X69.68Y-75.67
X69.69Y-54.35
X69.77Y-64.91
X69.79Y-66.45
X69.88Y-56.89
X69.99Y-55.35
X70.03Y-43.24
X70.7Y-54.38
X70.71Y-56.88
X70.87Y-63.8
X71.09Y-66.35
X71.1Y-32.48
X71.556Y-77.597
X71.61Y-43.3
X72.12Y-52.9
X72.16Y-49.43
X72.19Y-47.12
X72.43Y-36.2
X72.63Y-46.01
X72.76Y-70.75
X73.03Y-48.6
X73.33Y-43.35
X73.38Y-75.31
X73.43Y-44.99
X73.49Y-66.37
X73.957Y-60.913
X73.99Y-46.99
X74.09Y-50.77
X74.35Y-39.08
X74.58Y-75.29
X74.68Y-73.82
X75.Y-52.33
X75.17Y-70.77
X75.23Y-48.26
X75.25Y-60.18
X75.28Y-45.42
X75.29Y-43.24
X75.61Y-64.14
X75.61Y-66.07
X75.64Y-61.87
X75.89Y-53.21
X75.98Y-35.98
X76.076Y-37.702
X76.16Y-47.28
X76.36Y-54.42
X76.42Y-55.66
X76.49Y-51.45
X77.08Y-44.85
X77.21Y-60.91
X77.32Y-46.65
X77.32Y-56.59
X77.33Y-52.27
X77.34Y-49.31
X77.34Y-50.63
X77.38Y-47.99
X78.02Y-37.36
X78.08Y-65.58
X78.47Y-70.75
X78.59Y-60.72
X78.97Y-62.95
X79.23Y-56.98
X79.3Y-37.64
X79.3Y-58.91
X80.29Y-43.02
T3
X69.47Y-37.63
X70.74Y-37.63
X72.01Y-37.63
X73.28Y-37.63
X74.55Y-37.63
X26.4Y-40.
X38.3Y-44.73
X80.Y-40.
X27.11Y-33.52
X27.07Y-31.35
T4
X34.73Y-69.1
T5
X23.74Y-31.42
X23.74Y-33.42
T6
X69.045Y-49.
X70.02Y-68.49
X72.56Y-68.49
X75.1Y-68.49
X77.64Y-68.49
X27.36Y-66.12
X27.36Y-68.66
X61.4Y-74.3
X63.94Y-74.3
X66.48Y-74.3
X69.02Y-74.3
X71.56Y-74.3
X59.6Y-69.72
X62.14Y-69.72
X64.68Y-69.72
X67.83Y-29.79
X70.37Y-29.79
X72.91Y-29.79
X75.45Y-29.79
X77.99Y-29.79
X21.77Y-65.18
X21.77Y-67.72
X21.77Y-70.26
X59.67Y-30.04
X59.67Y-32.58
X62.21Y-30.04
X62.21Y-32.58
X64.75Y-30.04
X64.75Y-32.58
X59.37Y-65.8
X61.91Y-65.8
X64.45Y-65.8
X66.99Y-65.8
T2
X72.12Y-34.555G85X72.82Y-34.555
G05
X74.72Y-32.405G85X75.82Y-32.405
G05
X77.72Y-34.555G85X78.42Y-34.555
G05
X30.64Y-45.03G85X30.64Y-43.53
G05
X30.51Y-55.88G85X30.51Y-54.38
G05
T0
M30
